<svg xmlns="http://www.w3.org/2000/svg" width="400" height="400"><g fill-rule="evenodd"><path d="M52.797 63.219C50.159 65.869 48 68.214 48 68.43c0 .215-.81 1.201-1.8 2.191-.99.99-1.8 1.953-1.8 2.139 0 .186-.72 1.127-1.6 2.089-.88.963-1.6 1.904-1.6 2.09 0 .187-.54.844-1.2 1.461-.66.617-1.2 1.337-1.2 1.6 0 .263-.54.983-1.2 1.6-.66.617-1.2 1.369-1.2 1.672 0 .303-.36.811-.8 1.128-.44.317-.8.831-.8 1.141 0 .311-.316.856-.703 1.212-.386.356-.957 1.142-1.267 1.747-.311.605-.715 1.1-.898 1.1-.182 0-.332.32-.332.712 0 .391-.36.971-.8 1.288-.44.317-.8.807-.8 1.088 0 .282-.18.512-.4.512-.22 0-.4.27-.4.6 0 .33-.18.6-.4.6-.22 0-.4.27-.4.6 0 .33-.18.6-.4.6-.22 0-.4.36-.4.8 0 .44-.148.8-.328.8-.388 0-3.516 6.451-3.36 6.93.059.181-.077.215-.302.076-.226-.139-.41.027-.41.37 0 .343-.18.624-.4.624-.22 0-.4.36-.4.8 0 .44-.18.8-.4.8-.22 0-.4.36-.4.8 0 .44-.18.8-.4.8-.22 0-.4.27-.4.6 0 .33-.18.6-.4.6-.22 0-.4.36-.4.8 0 .44-.18.8-.4.8-.22 0-.4.36-.4.8 0 .44-.18.8-.4.8-.22 0-.4.36-.4.8 0 .44-.18.8-.4.8-.22 0-.4.349-.4.776 0 .427-.18.888-.4 1.024-.22.136-.4.687-.4 1.224 0 .537-.18.976-.4.976-.22 0-.4.36-.4.8 0 .44-.18.8-.4.8-.22 0-.4.36-.4.8 0 .44-.18.8-.4.8-.22 0-.4.54-.4 1.2 0 .66-.18 1.2-.4 1.2-.22 0-.4.461-.4 1.024 0 .58-.173.916-.4.776-.227-.14-.4.196-.4.776 0 .563-.18 1.024-.4 1.024-.22 0-.4.54-.4 1.2 0 .66-.18 1.2-.4 1.2-.22 0-.4.272-.4.605 0 .333-.162.918-.361 1.3-.199.382-.591 1.505-.872 2.495-.281.99-.639 1.98-.794 2.2-.156.22-.41 1.345-.566 2.5-.155 1.155-.445 2.1-.645 2.1-.199 0-.362.63-.362 1.4 0 .77-.141 1.4-.313 1.4-.172 0-.353.495-.403 1.1-.05.605-.269 1.16-.487 1.233-.219.074-.4 1.064-.403 2.2-.005 1.482-.116 1.897-.394 1.467-.278-.43-.389-.012-.394 1.476-.003 1.142-.186 2.188-.406 2.324-.22.136-.4 1.047-.4 2.024 0 .977-.18 1.776-.4 1.776-.22 0-.4.731-.4 1.624 0 .98-.158 1.525-.4 1.376-.252-.156-.4.804-.4 2.6s-.148 2.756-.4 2.6c-.25-.154-.4.663-.4 2.176 0 1.349-.177 2.424-.4 2.424-.234 0-.4 1.341-.4 3.224 0 1.854-.156 3.127-.367 2.996-.481-.297-.61 2.854-.769 18.791-.143 14.426.249 28.29.792 27.954.189-.117.344 1.228.344 2.988s.18 3.311.4 3.447c.22.136.4 1.137.4 2.224 0 1.087.18 1.976.4 1.976.226 0 .4 1.133.4 2.6s.174 2.6.4 2.6c.22 0 .4.72.4 1.6 0 .88.18 1.6.4 1.6.22 0 .4.81.4 1.8s.18 1.8.4 1.8c.22 0 .4.81.4 1.8s.18 1.8.4 1.8c.22 0 .4.72.4 1.6 0 1.01.184 1.602.5 1.606.333.004.3.136-.1.394s-.433.39-.1.394c.275.003.5.366.5.806 0 .44.225.803.5.806.333.004.3.136-.1.394s-.433.39-.1.394c.309.004.502.579.506 1.506.004.958.127 1.31.34.973.211-.332.431.394.594 1.959.143 1.367.408 2.685.588 2.927.18.243.558 1.251.839 2.241.281.99.673 2.113.872 2.495.199.382.361.967.361 1.3 0 .333.18.605.4.605.22 0 .4.54.4 1.2 0 .66.18 1.2.4 1.2.22 0 .4.45.4 1s.18 1 .4 1c.22 0 .4.36.4.8 0 .44.18.8.4.8.22 0 .403.585.406 1.3.005.986.1 1.155.394.7.294-.455.389-.286.394.7.003.715.186 1.3.406 1.3.22 0 .4.36.4.8 0 .44.18.8.4.8.22 0 .4.439.4.976 0 .537.18 1.088.4 1.224.22.136.4.597.4 1.024 0 .427.18.776.4.776.22 0 .4.36.4.8 0 .44.18.8.4.8.22 0 .4.36.4.8 0 .44.146.8.325.8.179 0 .573.63.875 1.4.302.77.696 1.4.875 1.4.179 0 .325.36.325.8 0 .44.18.8.4.8.22 0 .4.36.4.8 0 .44.18.8.4.8.22 0 .4.32.4.712 0 .391.36.971.8 1.288.44.317.8.813.8 1.102 0 .702 2.009 4.663 2.451 4.831.192.074.349.479.349.9 0 .422.18.767.4.767.22 0 .4.27.4.6 0 .33.18.6.4.6.22 0 .4.27.4.6 0 .33.18.6.4.6.22 0 .4.268.4.597 0 .328.36.821.8 1.096.44.275.8.776.8 1.115 0 .338.36.875.8 1.192.44.317.8.857.8 1.2 0 .343.36.883.8 1.2.44.317.8.857.8 1.2 0 .343.36.883.8 1.2.44.317.8.825.8 1.128 0 .303.54 1.055 1.2 1.672.66.617 1.2 1.337 1.2 1.6 0 .263.54.983 1.2 1.6.66.617 1.2 1.319 1.2 1.56 0 .242.18.44.4.44.22 0 .4.245.4.544 0 .299.45.882 1 1.295.55.413 1 .96 1 1.215 0 .256.9 1.384 2 2.507 1.1 1.124 2 2.214 2 2.422 0 .574 9.52 10.017 10.099 10.017.277 0 32.363-31.861 71.302-70.802l70.797-70.802-70.801-70.798C90.456 90.259 58.37 58.4 58.095 58.4c-.275 0-2.659 2.169-5.298 4.819" fill="#0454b4"/><path d="m129.021 271.047-70.78 70.914.78.895c1.84 2.112 8.198 8.344 8.513 8.344.189 0 1.479 1.08 2.866 2.4 1.387 1.32 2.692 2.4 2.901 2.4.208 0 .882.54 1.499 1.2.617.66 1.313 1.2 1.547 1.2.235 0 1.056.63 1.826 1.4.77.77 1.637 1.4 1.925 1.4.289 0 .785.36 1.102.8.317.44.78.8 1.029.8.249 0 1.017.54 1.708 1.2.691.66 1.488 1.2 1.771 1.2.283 0 .775.36 1.092.8.317.44.897.8 1.288.8.392 0 .712.18.712.4 0 .22.32.4.712.4.391 0 .971.36 1.288.8.317.44.942.803 1.388.806.671.005.708.074.212.394-.513.331-.498.389.1.394.385.003.7.165.7.359 0 .195.315.46.7.589.737.249 2.011.985 4.767 2.755.916.589 2.176 1.197 2.8 1.351.623.154 1.424.611 1.78 1.016.356.405.941.736 1.3.736.359 0 .653.18.653.4 0 .22.36.4.8.4.44 0 .8.18.8.4 0 .22.36.4.8.4.44 0 .8.146.8.325 0 .179.63.573 1.4.875.77.302 1.4.696 1.4.875 0 .179.36.325.8.325.44 0 .8.18.8.4 0 .22.349.4.776.4.427 0 .888.18 1.024.4.136.22.687.4 1.224.4.537 0 .976.18.976.4 0 .22.36.4.8.4.44 0 .8.18.8.4 0 .22.36.4.8.4.44 0 .8.18.8.4 0 .22.36.4.8.4.44 0 .8.18.8.4 0 .22.54.4 1.2.4.66 0 1.2.18 1.2.4 0 .22.349.4.776.4.427 0 .888.18 1.024.4.136.22.597.4 1.024.4.427 0 .776.18.776.4 0 .22.362.4.805.4.443 0 1.163.18 1.6.4.437.22 1.153.58 1.59.8.437.22 1.146.4 1.576.4.43 0 .893.18 1.029.4.136.22.676.4 1.2.4.524 0 1.056.167 1.183.372.126.205 1.217.495 2.423.646 1.207.151 2.194.433 2.194.628s.63.354 1.4.354c.77 0 1.4.18 1.4.4 0 .22.54.4 1.2.4.66 0 1.2.18 1.2.4 0 .22.72.4 1.6.4.88 0 1.6.18 1.6.4 0 .22.72.4 1.6.4.88 0 1.6.18 1.6.4 0 .22.72.4 1.6.4.88 0 1.6.18 1.6.4 0 .22.9.4 2 .4s2 .18 2 .4c0 .22.99.4 2.2.4 1.21 0 2.2.18 2.2.4 0 .22.979.4 2.176.4s2.288.18 2.424.4c.136.22 1.482.4 2.99.4 1.839 0 2.798.165 2.91.5.131.393 5.509.5 25.1.5s24.969-.107 25.1-.5c.112-.335 1.071-.5 2.91-.5 1.508 0 2.854-.18 2.99-.4.136-.22 1.317-.4 2.624-.4 1.317 0 2.376-.178 2.376-.4 0-.22.889-.4 1.976-.4s2.088-.18 2.224-.4c.136-.22.946-.4 1.8-.4.854 0 1.664-.18 1.8-.4.136-.22.957-.4 1.824-.4.867 0 1.576-.18 1.576-.4 0-.22.72-.4 1.6-.4.88 0 1.6-.18 1.6-.4 0-.22.72-.4 1.6-.4.88 0 1.6-.18 1.6-.4 0-.22.54-.4 1.2-.4.66 0 1.2-.18 1.2-.4 0-.22.63-.4 1.4-.4.77 0 1.4-.159 1.4-.354 0-.195.987-.477 2.194-.628 1.206-.151 2.297-.441 2.423-.646.127-.205.659-.372 1.183-.372s1.064-.18 1.2-.4c.136-.22.599-.4 1.029-.4.43 0 1.094-.159 1.476-.353.382-.195 1.235-.576 1.895-.847.66-.271 1.513-.652 1.895-.847.382-.194 1.057-.353 1.5-.353.443 0 .805-.18.805-.4 0-.22.36-.4.8-.4.44 0 .8-.18.8-.4 0-.22.54-.4 1.2-.4.66 0 1.2-.18 1.2-.4 0-.22.36-.4.8-.4.44 0 .8-.18.8-.4 0-.22.36-.4.8-.4.44 0 .8-.18.8-.4 0-.22.349-.4.776-.4.427 0 .888-.18 1.024-.4.136-.22.687-.4 1.224-.4.537 0 .976-.18.976-.4 0-.22.36-.4.8-.4.44 0 .8-.18.8-.4 0-.22.36-.4.8-.4.44 0 .8-.146.8-.325 0-.179.63-.573 1.4-.875.77-.302 1.4-.696 1.4-.875 0-.179.36-.325.8-.325.44 0 .8-.18.8-.4 0-.22.36-.4.8-.4.44 0 .8-.18.8-.4 0-.22.32-.4.712-.4.391 0 .971-.36 1.288-.8.317-.44.828-.8 1.134-.8.651 0 4.603-2.059 4.799-2.5.074-.165.396-.3.717-.3.321 0 .939-.331 1.373-.736.435-.405 1.282-.989 1.884-1.297.601-.309 1.384-.878 1.74-1.264.356-.387.901-.703 1.212-.703.31 0 .824-.36 1.141-.8.317-.44.857-.8 1.2-.8.343 0 .883-.36 1.2-.8.317-.44.857-.8 1.2-.8.343 0 .883-.36 1.2-.8.317-.44.78-.8 1.029-.8.249 0 1.017-.54 1.708-1.2.691-.66 1.455-1.2 1.699-1.2s.947-.54 1.564-1.2c.617-.66 1.334-1.2 1.594-1.2s1.085-.63 1.832-1.4c.748-.77 1.516-1.4 1.706-1.4.19 0 1.481-1.08 2.868-2.4 1.387-1.32 2.68-2.4 2.874-2.4.193 0 2.332-2.025 4.752-4.5 5.284-5.403 4.071-4.19 9.474-9.474 2.475-2.42 4.5-4.559 4.5-4.752 0-.194 1.08-1.487 2.4-2.874 1.32-1.387 2.4-2.678 2.4-2.868 0-.19.63-.958 1.4-1.706.77-.747 1.4-1.572 1.4-1.832s.54-.977 1.2-1.594c.66-.617 1.2-1.32 1.2-1.564s.54-1.008 1.2-1.699c.66-.691 1.2-1.459 1.2-1.708 0-.249.36-.712.8-1.029.44-.317.8-.857.8-1.2 0-.343.36-.883.8-1.2.44-.317.8-.857.8-1.2 0-.343.36-.883.8-1.2.44-.317.8-.857.8-1.2 0-.343.36-.883.8-1.2.44-.317.8-.729.8-.916 0-.187.54-1.125 1.2-2.084.66-.959 1.2-1.937 1.2-2.172 0-.235.18-.428.4-.428.22 0 .4-.197.4-.438s.348-.927.773-1.525c.426-.597.905-1.615 1.064-2.261.16-.647.622-1.467 1.027-1.823.405-.356.736-.941.736-1.3 0-.359.18-.653.4-.653.22 0 .4-.36.4-.8 0-.44.18-.8.4-.8.22 0 .4-.36.4-.8 0-.44.146-.8.325-.8.179 0 .573-.63.875-1.4.302-.77.696-1.4.875-1.4.179 0 .325-.36.325-.8 0-.44.18-.8.4-.8.22 0 .4-.36.4-.8 0-.44.18-.8.4-.8.22 0 .4-.349.4-.776 0-.427.18-.888.4-1.024.22-.136.4-.687.4-1.224 0-.537.18-.976.4-.976.22 0 .4-.36.4-.8 0-.44.18-.8.4-.8.22 0 .4-.36.4-.8 0-.44.18-.8.4-.8.22 0 .4-.54.4-1.2 0-.66.18-1.2.4-1.2.22 0 .4-.36.4-.8 0-.44.18-.8.4-.8.22 0 .4-.362.4-.805 0-.443.159-1.118.353-1.5.873-1.715 1.797-4.142 2.473-6.495.285-.99.654-1.984.82-2.21.167-.225.427-1.35.58-2.5.152-1.149.434-2.09.626-2.09.191 0 .348-.63.348-1.4 0-.77.18-1.4.4-1.4.22 0 .4-.54.4-1.2 0-.66.18-1.2.4-1.2.22 0 .4-.72.4-1.6 0-.88.18-1.6.4-1.6.22 0 .4-.72.4-1.6 0-.88.18-1.6.4-1.6.22 0 .4-.72.4-1.6 0-.88.18-1.6.4-1.6.22 0 .4-.9.4-2s.18-2 .4-2c.22 0 .4-.9.4-2s.18-2 .4-2c.222 0 .4-1.059.4-2.376 0-1.307.18-2.488.4-2.624.22-.136.4-1.482.4-2.99 0-1.609.179-2.803.432-2.887.291-.097.507-4.237.662-12.634l.229-12.489-100.161.066-100.162.066-70.779 70.915" fill="#dc0424"/><path d="M178.3.275c-1.925.086-3.5.329-3.5.541 0 .211-1.339.384-2.976.384s-3.088.18-3.224.4c-.136.22-1.137.4-2.224.4-1.087 0-1.976.18-1.976.4 0 .22-.99.4-2.2.4-1.21 0-2.2.18-2.2.4 0 .22-.799.4-1.776.4s-1.888.18-2.024.4c-.136.22-.957.4-1.824.4-.867 0-1.576.18-1.576.4 0 .22-.72.4-1.6.4-.88 0-1.6.18-1.6.4 0 .22-.529.4-1.176.4-.647 0-1.288.18-1.424.4-.136.22-.766.4-1.4.4-.634 0-1.264.18-1.4.4-.136.22-.867.4-1.624.4-.757 0-1.376.18-1.376.4 0 .22-.429.4-.954.4-.891 0-4.228.885-6.046 1.603-.44.174-1.43.533-2.2.797-1.693.582-3.16 1.171-4.095 1.647-.382.194-1.057.353-1.5.353-.443 0-.805.18-.805.4 0 .22-.36.4-.8.4-.44 0-.8.18-.8.4 0 .22-.439.4-.976.4-.537 0-1.088.18-1.224.4-.136.22-.597.4-1.024.4-.427 0-.776.18-.776.4 0 .22-.36.4-.8.4-.44 0-.8.18-.8.4 0 .22-.272.4-.605.4-.333 0-.918.167-1.3.372-.382.204-2.315 1.147-4.295 2.095-1.98.948-3.66 1.861-3.733 2.028-.074.168-.479.305-.9.305-.422 0-.767.18-.767.4 0 .22-.36.4-.8.4-.44 0-.8.18-.8.4 0 .22-.32.4-.712.4-.391 0-.971.36-1.288.8-.317.44-.828.8-1.134.8-.651 0-4.603 2.059-4.799 2.5-.074.165-.311.3-.528.3-.217 0-1.18.54-2.139 1.2-.959.66-1.897 1.2-2.084 1.2-.187 0-.599.36-.916.8-.317.44-.857.8-1.2.8-.343 0-.883.36-1.2.8-.317.44-.857.8-1.2.8-.343 0-.883.36-1.2.8-.317.44-.809.8-1.092.8-.283 0-1.08.54-1.771 1.2-.691.66-1.459 1.2-1.708 1.2-.249 0-.712.36-1.029.8-.317.44-.825.8-1.128.8-.303 0-1.055.54-1.672 1.2-.617.66-1.253 1.2-1.414 1.2-.16 0-.628.388-1.039.861-.411.474-.747.736-.747.582 0-.154-.458.179-1.018.739s-1.17 1.018-1.355 1.018c-.186 0-1.123.769-2.082 1.71-.96.94-2.375 2.152-3.145 2.693-1.565 1.099-9.2 8.663-9.2 9.113 0 .159 31.905 32.193 70.9 71.186l70.9 70.897 99.962.001h99.961l-.229-12.489c-.155-8.397-.371-12.537-.662-12.634-.253-.084-.432-1.278-.432-2.887 0-1.508-.18-2.854-.4-2.99-.22-.136-.4-1.216-.4-2.4s-.18-2.264-.4-2.4c-.22-.136-.4-1.137-.4-2.224 0-1.087-.18-1.976-.4-1.976-.22 0-.4-.799-.4-1.776s-.18-1.888-.4-2.024c-.22-.136-.4-.957-.4-1.824 0-.867-.18-1.576-.4-1.576-.22 0-.4-.619-.4-1.376 0-.757-.18-1.488-.4-1.624-.22-.136-.4-.856-.4-1.6 0-.744-.18-1.464-.4-1.6-.22-.136-.4-.777-.4-1.424 0-.647-.18-1.176-.4-1.176-.22 0-.4-.63-.4-1.4 0-.77-.159-1.4-.354-1.4-.195 0-.477-.987-.628-2.194-.151-1.206-.441-2.297-.646-2.423-.205-.127-.372-.634-.372-1.127s-.143-1.067-.318-1.276c-.175-.209-.547-1.1-.827-1.98-.279-.88-.7-2.05-.935-2.6-.235-.55-.604-1.45-.82-2-.216-.55-.552-1.313-.747-1.695-.194-.382-.353-.967-.353-1.3 0-.333-.18-.605-.4-.605-.22 0-.4-.439-.4-.976 0-.537-.18-1.088-.4-1.224-.22-.136-.4-.597-.4-1.024 0-.427-.18-.776-.4-.776-.22 0-.4-.36-.4-.8 0-.44-.18-.8-.4-.8-.22 0-.4-.36-.4-.8 0-.44-.18-.8-.4-.8-.22 0-.399-.315-.397-.7.004-.775-3.217-7.422-3.699-7.633-.167-.074-.304-.479-.304-.9 0-.422-.18-.767-.4-.767-.22 0-.4-.36-.4-.8 0-.44-.18-.8-.4-.8-.22 0-.4-.236-.4-.525 0-.288-.331-.879-.735-1.313-.404-.434-.866-1.312-1.026-1.951-.161-.639-.64-1.651-1.066-2.248-.425-.598-.773-1.284-.773-1.525 0-.241-.18-.438-.4-.438-.22 0-.4-.193-.4-.428s-.54-1.213-1.2-2.172c-.66-.959-1.2-1.897-1.2-2.084 0-.187-.36-.599-.8-.916-.44-.317-.8-.857-.8-1.2 0-.343-.36-.883-.8-1.2-.44-.317-.8-.857-.8-1.2 0-.343-.36-.883-.8-1.2-.44-.317-.8-.857-.8-1.2 0-.343-.36-.883-.8-1.2-.44-.317-.8-.78-.8-1.029 0-.249-.54-1.017-1.2-1.708-.66-.691-1.2-1.455-1.2-1.699s-.54-.947-1.2-1.564c-.66-.617-1.2-1.274-1.2-1.461 0-.186-.72-1.127-1.6-2.09-.88-.962-1.6-1.903-1.6-2.089 0-.186-.767-1.109-1.705-2.049-.938-.941-2.15-2.341-2.694-3.111-.543-.77-2.791-3.161-4.994-5.313-4.818-4.705-3.789-3.676-8.494-8.494-2.152-2.203-4.541-4.451-5.308-4.994-.767-.544-2.27-1.846-3.34-2.894-1.07-1.048-2.116-1.905-2.324-1.905-.207 0-.811-.405-1.34-.9-1.464-1.369-2.141-1.9-2.424-1.9-.141 0-.76-.54-1.377-1.2-.617-.66-1.32-1.2-1.564-1.2s-1.008-.54-1.699-1.2c-.691-.66-1.459-1.2-1.708-1.2-.249 0-.712-.36-1.029-.8-.317-.44-.857-.8-1.2-.8-.343 0-.883-.36-1.2-.8-.317-.44-.857-.8-1.2-.8-.343 0-.883-.36-1.2-.8-.317-.44-.857-.8-1.2-.8-.343 0-.883-.36-1.2-.8-.317-.44-.729-.8-.916-.8-.187 0-1.125-.54-2.084-1.2-.959-.66-1.922-1.2-2.139-1.2-.217 0-.454-.135-.528-.3-.18-.405-4.122-2.5-4.704-2.5-.254 0-.849-.36-1.321-.8-.472-.44-1.095-.8-1.383-.8-.289 0-.525-.18-.525-.4 0-.22-.36-.4-.8-.4-.44 0-.8-.18-.8-.4 0-.22-.36-.4-.8-.4-.44 0-.801-.135-.801-.3-.001-.165-.991-.75-2.199-1.3-1.208-.55-2.198-1.135-2.199-1.3 0-.165-.273-.3-.606-.3-.588 0-1.013-.167-2.89-1.138-.492-.254-1.167-.462-1.5-.462-.333 0-.605-.18-.605-.4 0-.22-.36-.4-.8-.4-.44 0-.8-.18-.8-.4 0-.22-.36-.4-.8-.4-.44 0-.8-.18-.8-.4 0-.22-.54-.4-1.2-.4-.66 0-1.2-.18-1.2-.4 0-.22-.36-.4-.8-.4-.44 0-.8-.18-.8-.4 0-.22-.439-.4-.976-.4-.537 0-1.088-.18-1.224-.4-.136-.22-.515-.4-.843-.4-.328 0-1.341-.36-2.251-.8-.911-.44-1.895-.8-2.187-.8-.291 0-.842-.163-1.224-.363-1.142-.597-4.917-1.637-5.941-1.637-.525 0-.954-.18-.954-.4 0-.22-.63-.4-1.4-.4-.77 0-1.4-.18-1.4-.4 0-.22-.529-.4-1.176-.4-.647 0-1.288-.18-1.424-.4-.136-.22-.867-.4-1.624-.4-.757 0-1.376-.18-1.376-.4 0-.22-.72-.4-1.6-.4-.88 0-1.6-.18-1.6-.4 0-.22-.709-.4-1.576-.4-.867 0-1.688-.18-1.824-.4-.136-.22-1.047-.4-2.024-.4-.977 0-1.776-.18-1.776-.4 0-.22-.9-.4-2-.4s-2-.18-2-.4c0-.222-1.059-.4-2.376-.4-1.307 0-2.488-.18-2.624-.4-.136-.22-1.482-.4-2.99-.4-1.817 0-2.799-.166-2.907-.492-.162-.486-37.812-.834-46.803-.433M3.812 156.517c-.171.395-.199.83-.061.967.406.406.733-.164.546-.953-.165-.698-.187-.699-.485-.014M2 164.776c0 .427.18.888.4 1.024.227.14.4-.196.4-.776 0-.563-.18-1.024-.4-1.024-.22 0-.4.349-.4.776m-.588 4.541c-.171.395-.199.83-.061.967.406.406.733-.164.546-.953-.165-.698-.187-.699-.485-.014M.619 174.9c-.167.385-.167 1.015 0 1.4.29.667.313.667.472 0 .283-1.181-.088-2.281-.472-1.4m-.518 8.5c.004.88.086 1.193.182.695.096-.497.092-1.217-.008-1.6-.1-.382-.179.025-.174.905m.008 33.4c0 .99.078 1.395.173.9.096-.495.096-1.305 0-1.8-.095-.495-.173-.09-.173.9m.558 6.667c-.415.415-.314 1.733.133 1.733.22 0 .4-.45.4-1 0-1.047-.092-1.174-.533-.733m.533 6.686c0 .33.18.711.4.847.22.136.4-.023.4-.353 0-.33-.18-.711-.4-.847-.22-.136-.4.023-.4.353M2 235c0 .55.18 1 .4 1 .22 0 .4-.45.4-1s-.18-1-.4-1c-.22 0-.4.45-.4 1m1.6 7.976c0 .317.18.688.4.824.22.136.4-.123.4-.576 0-.453-.18-.824-.4-.824-.22 0-.4.259-.4.576" fill="#f4f4f4"/></g></svg>