<svg xmlns="http://www.w3.org/2000/svg" width="400" height="400"><g fill-rule="evenodd"><path d="M9.873 134.8c-.817 2.53-1.482 4.994-1.479 5.476.003.482-.174.988-.394 1.124-.22.136-.4.777-.4 1.424 0 .647-.18 1.176-.4 1.176-.22 0-.4.529-.4 1.176 0 .647-.18 1.288-.4 1.424-.22.136-.4.967-.4 1.847 0 .965-.159 1.502-.4 1.353-.242-.149-.4.396-.4 1.376 0 .893-.18 1.624-.4 1.624-.22 0-.4.799-.4 1.776s-.18 1.888-.4 2.024c-.22.136-.4.946-.4 1.8 0 .854-.18 1.664-.4 1.8-.22.136-.4 1.036-.4 2s-.18 1.864-.4 2c-.22.136-.4 1.317-.4 2.624 0 1.317-.178 2.376-.4 2.376-.227 0-.4 1.173-.4 2.72 0 1.643-.198 2.918-.5 3.22-.729.729-.729 48.991 0 49.72.302.302.5 1.577.5 3.22 0 1.547.173 2.72.4 2.72.222 0 .4 1.059.4 2.376 0 1.307.18 2.488.4 2.624.22.136.4 1.047.4 2.024 0 .977.18 1.776.4 1.776.22 0 .4.799.4 1.776s.18 1.888.4 2.024c.22.136.4 1.047.4 2.024 0 .977.18 1.776.4 1.776.22 0 .4.72.4 1.6 0 .88.18 1.6.4 1.6.22 0 .4.619.4 1.376 0 .757.18 1.488.4 1.624.22.136.4.777.4 1.424 0 .647.18 1.176.4 1.176.22 0 .4.529.4 1.176 0 .647.18 1.288.4 1.424.22.136.4.684.4 1.218 0 .773 1.254 4.973 3.032 10.149.148.432.305.456.661.1.706-.706 375.763-.673 376.027.033.224.6.178.713 2.062-5.006.78-2.368 1.418-4.743 1.418-5.276 0-.534.18-1.082.4-1.218.22-.136.4-.777.4-1.424 0-.647.18-1.176.4-1.176.22 0 .4-.63.4-1.4 0-.77.18-1.4.4-1.4.22 0 .4-.63.4-1.4 0-.77.18-1.4.4-1.4.22 0 .4-.709.4-1.576 0-.867.18-1.688.4-1.824.22-.136.4-1.047.4-2.024 0-.977.18-1.776.4-1.776.22 0 .4-.81.4-1.8s.18-1.8.4-1.8c.22 0 .4-.799.4-1.776s.18-1.888.4-2.024c.22-.136.4-1.317.4-2.624 0-1.317.178-2.376.4-2.376.229 0 .4-1.2.4-2.8 0-1.54.156-2.8.346-2.8.848 0 1-49.214.154-50.06-.302-.302-.5-1.577-.5-3.22 0-1.547-.173-2.72-.4-2.72-.222 0-.4-1.059-.4-2.376 0-1.307-.18-2.488-.4-2.624-.22-.136-.4-1.036-.4-2s-.18-1.864-.4-2c-.22-.136-.4-.946-.4-1.8 0-.854-.18-1.664-.4-1.8-.22-.136-.4-.946-.4-1.8 0-.854-.18-1.664-.4-1.8-.22-.136-.4-.957-.4-1.824 0-.867-.18-1.576-.4-1.576-.22 0-.4-.619-.4-1.376 0-.757-.18-1.488-.4-1.624-.22-.136-.4-.777-.4-1.424 0-.647-.18-1.176-.4-1.176-.22 0-.4-.529-.4-1.176 0-.647-.18-1.288-.4-1.424-.22-.136-.397-.642-.394-1.124.003-.482-.662-2.946-1.479-5.476l-1.484-4.6H11.357l-1.484 4.6" fill="#dc0424"/><path d="M12.267 269.867c-.419.418-.312 2.133.133 2.133.22 0 .4.439.4.976 0 .537.18 1.088.4 1.224.22.136.4.597.4 1.024 0 .427.18.776.4.776.22 0 .4.349.4.776 0 .427.18.888.4 1.024.22.136.4.687.4 1.224 0 .537.18.976.4.976.22 0 .4.36.4.8 0 .44.18.8.4.8.22 0 .4.272.4.605 0 .333.168.918.374 1.3.205.382.609 1.28.897 1.995.289.715.66 1.3.827 1.3.166 0 .302.36.302.8 0 .44.18.8.4.8.22 0 .4.36.4.8 0 .44.18.8.4.8.22 0 .4.36.4.8 0 .44.18.8.4.8.22 0 .4.345.4.767 0 .421.135.826.3.9.376.167 1.675 2.297 1.971 3.233.122.385.381.7.576.7.194 0 .353.291.353.646 0 .716 2.026 4.677 2.5 4.887.165.074.3.29.3.48 0 .191.54 1.147 1.2 2.125.66.978 1.2 1.937 1.2 2.132 0 .194.36.613.8.93.44.317.8.857.8 1.2 0 .343.36.883.8 1.2.44.317.8.857.8 1.2 0 .343.36.883.8 1.2.44.317.8.857.8 1.2 0 .343.36.883.8 1.2.44.317.8.78.8 1.029 0 .249.54 1.017 1.2 1.708.66.691 1.2 1.437 1.2 1.659 0 .222.18.404.4.404.22 0 .4.204.4.453 0 .249.317.744.704 1.1.388.356 1.237 1.367 1.888 2.247.651.88 1.504 1.949 1.896 2.375.392.427.712.936.712 1.132 0 .196.681 1.017 1.513 1.824.832.808 1.954 2.099 2.493 2.869.54.77 2.784 3.161 4.987 5.313 2.204 2.152 4.134 4.042 4.29 4.2.155.158 1.971 2.011 4.035 4.118 2.065 2.107 4.451 4.357 5.303 5 .852.643 2.353 1.934 3.336 2.869.982.935 1.911 1.7 2.064 1.7.153 0 .966.63 1.807 1.4.841.77 1.651 1.4 1.8 1.4.149 0 .959.63 1.8 1.4.841.77 1.681 1.4 1.868 1.4.187 0 .79.45 1.34 1s1.164 1 1.364 1c.2 0 .814.45 1.364 1 .55.55 1.238 1 1.53 1 .291 0 .789.36 1.106.8.317.44.857.8 1.2.8.343 0 .883.36 1.2.8.317.44.857.8 1.2.8.343 0 .883.36 1.2.8.317.44.736.8.93.8.195 0 1.154.54 2.132 1.2.978.66 1.934 1.2 2.125 1.2.19 0 .406.135.48.3.21.474 4.171 2.5 4.887 2.5.355 0 .647.135.649.3.002.165.407.498.9.74 2.408 1.182 4.51 2.39 4.63 2.66.074.165.479.3.9.3.422 0 .767.136.767.302 0 .167.585.552 1.3.856.715.304 2.377 1.068 3.694 1.697 1.317.63 2.622 1.145 2.9 1.145s.506.18.506.4c0 .22.36.4.8.4.44 0 .8.18.8.4 0 .22.439.4.976.4.537 0 1.088.18 1.224.4.136.22.597.4 1.024.4.427 0 .776.147.776.328 0 .18.9.572 2 .872 1.1.3 2 .692 2 .872 0 .181.272.328.605.328.333 0 .918.177 1.3.392 1.235.698 9.277 3.208 10.277 3.208.534 0 1.082.18 1.218.4.136.22.766.4 1.4.4.634 0 1.264.18 1.4.4.136.22.777.4 1.424.4.647 0 1.176.18 1.176.4 0 .22.63.4 1.4.4.77 0 1.4.18 1.4.4 0 .22.72.4 1.6.4.88 0 1.6.18 1.6.4 0 .22.9.4 2 .4s2 .18 2 .4c0 .22.72.4 1.6.4.88 0 1.6.18 1.6.4 0 .22.99.4 2.2.4 1.21 0 2.2.18 2.2.4 0 .222 1.067.4 2.4.4s2.4.178 2.4.4c0 .228 1.189.4 2.767.4 1.857 0 2.821.164 2.933.5.131.393 5.509.5 25.1.5s24.969-.107 25.1-.5c.112-.335 1.071-.5 2.91-.5 1.508 0 2.854-.18 2.99-.4.136-.22 1.227-.4 2.424-.4 1.197 0 2.176-.18 2.176-.4 0-.22.99-.4 2.2-.4 1.21 0 2.2-.18 2.2-.4 0-.22.709-.4 1.576-.4.867 0 1.688-.18 1.824-.4.136-.22 1.047-.4 2.024-.4.977 0 1.776-.18 1.776-.4 0-.22.72-.4 1.6-.4.88 0 1.6-.18 1.6-.4 0-.22.63-.4 1.4-.4.77 0 1.4-.18 1.4-.4 0-.22.63-.4 1.4-.4.77 0 1.4-.18 1.4-.4 0-.22.63-.4 1.4-.4.77 0 1.4-.18 1.4-.4 0-.22.447-.4.994-.4.856 0 8.044-2.184 10.406-3.162 2.555-1.058 3.269-1.366 3.895-1.685.382-.194.967-.353 1.3-.353.333 0 .605-.147.605-.328 0-.18.9-.572 2-.872 1.1-.3 2-.692 2-.872 0-.181.36-.328.8-.328.44 0 .8-.18.8-.4 0-.22.349-.4.776-.4.427 0 .888-.18 1.024-.4.136-.22.597-.4 1.024-.4.427 0 .776-.18.776-.4 0-.22.245-.4.544-.4.657 0 5.601-2.476 5.789-2.9.074-.165.464-.3.867-.3.403 0 .793-.135.867-.3.073-.165.988-.733 2.033-1.263 1.045-.529 1.9-1.114 1.9-1.3 0-.185.291-.337.646-.337.716 0 4.677-2.026 4.887-2.5.074-.165.306-.3.517-.3.448 0 2.889-1.662 3.083-2.1.074-.165.439-.3.812-.3.373 0 .938-.36 1.255-.8.317-.44.831-.8 1.141-.8.311 0 .856-.316 1.212-.703.356-.386 1.142-.957 1.747-1.267.605-.311 1.1-.715 1.1-.898 0-.182.32-.332.712-.332.391 0 .971-.36 1.288-.8.317-.44.807-.8 1.088-.8.282 0 .512-.18.512-.4 0-.22.23-.4.512-.4.281 0 .771-.36 1.088-.8.317-.44.78-.8 1.029-.8.249 0 1.017-.54 1.708-1.2.691-.66 1.392-1.2 1.56-1.2.167 0 1.091-.72 2.054-1.6.962-.88 1.895-1.6 2.073-1.6.177 0 1.214-.855 2.303-1.9 2.276-2.185 3.592-3.3 3.892-3.3.115 0 2.008-1.845 4.208-4.1 2.199-2.255 4.154-4.254 4.345-4.441.19-.188 2.043-2.004 4.117-4.036 2.075-2.032 4.298-4.399 4.94-5.259.643-.86 1.626-2.014 2.185-2.564.559-.55 1.459-1.63 1.998-2.4.54-.77 1.568-2.023 2.285-2.783.717-.761 1.303-1.576 1.303-1.812s.36-.688.8-1.005c.44-.317.8-.807.8-1.088 0-.282.18-.512.4-.512.22 0 .4-.23.4-.512 0-.281.36-.771.8-1.088.44-.317.8-.807.8-1.088 0-.282.18-.512.4-.512.22 0 .4-.27.4-.6 0-.33.15-.6.332-.6.183 0 .587-.495.898-1.1.31-.605.881-1.391 1.267-1.747.387-.356.703-.901.703-1.212 0-.31.36-.824.8-1.141.44-.317.8-.882.8-1.255 0-.373.149-.738.331-.812.415-.167 3.669-5.07 3.669-5.528 0-.186.135-.398.3-.472.474-.21 2.5-4.171 2.5-4.887 0-.355.159-.646.353-.646.195 0 .454-.315.576-.7.296-.936 1.595-3.066 1.971-3.233.165-.074.3-.479.3-.9 0-.422.18-.767.4-.767.22 0 .4-.36.4-.8 0-.44.18-.8.4-.8.22 0 .4-.36.4-.8 0-.44.18-.8.4-.8.22 0 .4-.36.4-.8 0-.44.18-.8.4-.8.22 0 .4-.265.4-.588 0-.323.36-1.229.8-2.012.44-.783.8-1.689.8-2.012 0-.323.18-.588.4-.588.22 0 .4-.36.4-.8 0-.44.18-.8.4-.8.22 0 .4-.439.4-.976 0-.537.18-1.088.4-1.224.22-.136.4-.597.4-1.024 0-.427.18-.776.4-.776.22 0 .4-.272.4-.605 0-.333.18-.963.4-1.4.22-.437.58-1.153.8-1.59.22-.437.4-1.247.4-1.8V269.6H200.267c-103.254 0-187.854.12-188 .267" fill="#fcdb44"/><path d="M178.5.274c-2.035.086-3.7.329-3.7.541 0 .212-1.26.385-2.8.385-1.6 0-2.8.171-2.8.4 0 .222-1.067.4-2.4.4s-2.4.178-2.4.4c0 .22-.99.4-2.2.4-1.21 0-2.2.18-2.2.4 0 .22-.72.4-1.6.4-.88 0-1.6.18-1.6.4 0 .22-.9.4-2 .4s-2 .18-2 .4c0 .22-.72.4-1.6.4-.88 0-1.6.18-1.6.4 0 .22-.619.4-1.376.4-.757 0-1.488.18-1.624.4-.136.22-.777.4-1.424.4-.647 0-1.176.18-1.176.4 0 .22-.63.4-1.4.4-.77 0-1.4.18-1.4.4 0 .22-.447.4-.994.4-.894 0-8.253 2.252-10.506 3.215-.495.212-1.395.586-2 .832-.605.245-1.413.605-1.795.8-.382.194-.967.353-1.3.353-.333 0-.605.18-.605.4 0 .22-.439.4-.976.4-.537 0-1.088.18-1.224.4-.136.22-.597.4-1.024.4-.427 0-.776.18-.776.4 0 .22-.36.4-.8.4-.44 0-.8.18-.8.4 0 .22-.45.4-1 .4s-1 .18-1 .4c0 .22-.225.399-.5.397-.633-.004-7.254 3.291-7.433 3.699-.074.167-.479.304-.9.304-.422 0-.767.18-.767.4 0 .22-.36.4-.8.4-.44 0-.8.18-.8.4 0 .22-.236.4-.525.4-.288 0-.911.36-1.383.8-.472.44-1.067.8-1.321.8-.582 0-4.524 2.095-4.704 2.5-.074.165-.311.3-.528.3-.217 0-1.18.54-2.139 1.2-.959.66-1.897 1.2-2.084 1.2-.187 0-.599.36-.916.8-.317.44-.857.8-1.2.8-.343 0-.883.36-1.2.8-.317.44-.857.8-1.2.8-.343 0-.883.36-1.2.8-.317.44-.857.8-1.2.8-.343 0-.883.36-1.2.8-.317.44-.78.8-1.029.8-.249 0-1.017.54-1.708 1.2-.691.66-1.411 1.2-1.6 1.2-.189 0-.909.54-1.6 1.2-.691.66-1.355 1.2-1.476 1.2-.251 0-.637.305-2.529 1.999-.739.66-1.487 1.201-1.664 1.201-.177 0-1.352.99-2.612 2.2-1.259 1.21-2.451 2.2-2.648 2.2-.198 0-2.34 2.025-4.76 4.5-5.309 5.429-4.187 4.305-8.981 8.987-2.203 2.152-4.451 4.543-4.994 5.313-.544.77-1.756 2.17-2.694 3.111-.938.94-1.705 1.866-1.705 2.057 0 .191-.541.951-1.201 1.69-1.694 1.892-1.999 2.278-1.999 2.529 0 .121-.54.785-1.2 1.476-.66.691-1.2 1.411-1.2 1.6 0 .189-.54.909-1.2 1.6-.66.691-1.2 1.459-1.2 1.708 0 .249-.36.712-.8 1.029-.44.317-.8.857-.8 1.2 0 .343-.36.883-.8 1.2-.44.317-.8.857-.8 1.2 0 .343-.36.883-.8 1.2-.44.317-.8.857-.8 1.2 0 .343-.36.883-.8 1.2-.44.317-.8.729-.8.916 0 .187-.54 1.125-1.2 2.084-.66.959-1.2 1.922-1.2 2.139 0 .217-.135.454-.3.528-.474.21-2.5 4.171-2.5 4.887 0 .355-.18.646-.4.646-.22 0-.4.236-.4.525 0 .288-.36.911-.8 1.383-.44.472-.8 1.136-.8 1.475 0 .339-.18.617-.4.617-.22 0-.4.345-.4.767 0 .421-.137.826-.304.9-.167.073-1.085 1.753-2.041 3.733-.955 1.98-1.898 3.913-2.096 4.295-.197.382-.359.967-.359 1.3 0 .333-.18.605-.4.605-.22 0-.4.36-.4.8 0 .44-.18.8-.4.8-.22 0-.4.349-.4.776 0 .427-.18.888-.4 1.024-.22.136-.4.687-.4 1.224 0 .537-.18.976-.4.976-.22 0-.4.272-.4.605 0 .333-.159.918-.353 1.3-.728 1.43-1.219 2.72-1.331 3.495-.116.799.112.8 188.084.8s188.2-.001 188.084-.8c-.112-.775-.603-2.065-1.331-3.495-.194-.382-.353-.967-.353-1.3 0-.333-.18-.605-.4-.605-.22 0-.4-.439-.4-.976 0-.537-.18-1.088-.4-1.224-.22-.136-.4-.597-.4-1.024 0-.427-.18-.776-.4-.776-.22 0-.4-.36-.4-.8 0-.44-.18-.8-.4-.8-.22 0-.4-.272-.4-.605 0-.333-.162-.918-.359-1.3-.198-.382-1.141-2.315-2.096-4.295-.956-1.98-1.874-3.66-2.041-3.733-.167-.074-.304-.479-.304-.9 0-.422-.18-.767-.4-.767-.22 0-.4-.278-.4-.617 0-.339-.36-1.003-.8-1.475-.44-.472-.8-1.095-.8-1.383 0-.289-.18-.525-.4-.525-.22 0-.4-.291-.4-.646 0-.716-2.026-4.677-2.5-4.887-.165-.074-.3-.311-.3-.528 0-.217-.54-1.18-1.2-2.139-.66-.959-1.2-1.897-1.2-2.084 0-.187-.36-.599-.8-.916-.44-.317-.8-.857-.8-1.2 0-.343-.36-.883-.8-1.2-.44-.317-.8-.857-.8-1.2 0-.343-.36-.883-.8-1.2-.44-.317-.8-.857-.8-1.2 0-.343-.36-.883-.8-1.2-.44-.317-.8-.78-.8-1.029 0-.249-.54-1.017-1.2-1.708-.66-.691-1.2-1.411-1.2-1.6 0-.189-.54-.909-1.2-1.6-.66-.691-1.2-1.392-1.2-1.56 0-.167-.72-1.091-1.6-2.054-.88-.962-1.6-1.903-1.6-2.089 0-.186-.767-1.109-1.705-2.049-.938-.941-2.15-2.341-2.694-3.111-.543-.77-2.791-3.161-4.994-5.313-4.794-4.682-3.672-3.558-8.981-8.987-2.42-2.475-4.559-4.5-4.752-4.5-.194 0-1.487-1.08-2.874-2.4-1.387-1.32-2.683-2.4-2.879-2.4-.197 0-.791-.405-1.32-.9-1.417-1.325-2.14-1.9-2.388-1.9-.121 0-.785-.54-1.476-1.2-.691-.66-1.411-1.2-1.6-1.2-.189 0-.909-.54-1.6-1.2-.691-.66-1.459-1.2-1.708-1.2-.249 0-.712-.36-1.029-.8-.317-.44-.857-.8-1.2-.8-.343 0-.883-.36-1.2-.8-.317-.44-.857-.8-1.2-.8-.343 0-.883-.36-1.2-.8-.317-.44-.857-.8-1.2-.8-.343 0-.883-.36-1.2-.8-.317-.44-.729-.8-.916-.8-.187 0-1.125-.54-2.084-1.2-.959-.66-1.922-1.2-2.139-1.2-.217 0-.454-.135-.528-.3-.18-.405-4.122-2.5-4.704-2.5-.254 0-.849-.36-1.321-.8-.472-.44-1.095-.8-1.383-.8-.289 0-.525-.18-.525-.4 0-.22-.36-.4-.8-.4-.44 0-.8-.18-.8-.4 0-.22-.345-.4-.767-.4-.421 0-.826-.137-.9-.304-.073-.167-1.753-1.085-3.733-2.041-1.98-.955-3.913-1.898-4.295-2.096-.382-.197-.967-.359-1.3-.359-.333 0-.605-.18-.605-.4 0-.22-.36-.4-.8-.4-.44 0-.8-.18-.8-.4 0-.22-.349-.4-.776-.4-.427 0-.888-.18-1.024-.4-.136-.22-.687-.4-1.224-.4-.537 0-.976-.18-.976-.4 0-.22-.36-.4-.8-.4-.44 0-.8-.18-.8-.4 0-.22-.362-.4-.805-.4-.443 0-1.118-.159-1.5-.353-.657-.334-1.751-.796-3.795-1.602-2.324-.916-7.657-2.445-8.528-2.445-.534 0-.972-.18-.972-.4 0-.22-.63-.4-1.4-.4-.77 0-1.4-.18-1.4-.4 0-.22-.529-.4-1.176-.4-.647 0-1.288-.18-1.424-.4-.136-.22-.867-.4-1.624-.4-.757 0-1.376-.18-1.376-.4 0-.22-.72-.4-1.6-.4-.88 0-1.6-.18-1.6-.4 0-.22-.799-.4-1.776-.4s-1.888-.18-2.024-.4c-.136-.22-.957-.4-1.824-.4-.867 0-1.576-.18-1.576-.4 0-.22-.99-.4-2.2-.4-1.21 0-2.2-.18-2.2-.4 0-.22-.979-.4-2.176-.4s-2.288-.18-2.424-.4c-.136-.22-1.482-.4-2.99-.4-1.797 0-2.799-.168-2.905-.486-.161-.481-37.303-.832-46.605-.44" fill="#040404"/></g></svg>