<svg xmlns="http://www.w3.org/2000/svg" width="400" height="400"><g fill-rule="evenodd"><path d="M179.485.274c-2.37.094-3.82.307-3.676.541.131.212-.222.385-.784.385h-1.023l-.101 86.3-.101 86.3-86.3.101-86.3.101v.966c0 .531-.225 1.04-.5 1.132-.392.131-.5 5.252-.5 23.813 0 18.384.111 23.758.5 24.147.275.275.5.824.5 1.22 0 .691 3.449.72 85.92.72 66.293 0 86.03.11 86.4.48.37.37.48 20.107.48 86.4 0 84.408.013 85.92.767 85.92.421 0 .832.198.913.439.101.305 4.942.506 15.733.656 16.713.232 34.252-.155 33.336-.735-.406-.257-.314-.349.351-.354l.9-.006v-85.92c0-66.293.11-86.03.48-86.4.37-.37 20.107-.48 86.4-.48 77.552 0 85.92-.061 85.92-.624 0-.343.167-.52.371-.394.474.293.619-3.713.761-20.916.126-15.219-.267-29.61-.786-28.792-.236.371-.336.261-.34-.374l-.006-.9h-85.92c-66.293 0-86.03-.11-86.4-.48-.37-.37-.48-20.107-.48-86.4V1.2h-.967c-.531 0-1.038-.216-1.126-.48-.16-.479-34.846-.827-44.422-.446m111.22 84.423L252.4 122.994v12.103c0 6.657.136 12.103.302 12.103.513 0 88.898-88.577 88.898-89.091 0-.551-8.588-9.309-9.128-9.309-.194 0-.918-.54-1.609-1.2-.691-.66-1.39-1.2-1.554-1.2-.165 0-17.536 17.234-38.604 38.297M53.271 62.766C50.812 65.167 48.8 67.3 48.8 67.507c0 .206-.545.944-1.21 1.641-1.644 1.719-4.932-1.836 37.69 40.752l38.13 38.1 11.395-.006c6.626-.004 11.646-.168 11.995-.392.611-.393-87.632-89.202-88.633-89.202-.234 0-2.437 1.965-4.896 4.366M252.8 252.738c0 .363 88.622 88.579 89.191 88.784.394.141 9.209-8.522 9.209-9.05 0-.194.54-.918 1.2-1.609.66-.691 1.2-1.392 1.2-1.559 0-.166-17.235-17.538-38.299-38.603L277.002 252.4h-12.101c-6.656 0-12.101.152-12.101.338m-149.815 44.473c-24.411 24.412-44.434 44.535-44.495 44.718-.154.463 6.153 6.895 6.461 6.587.137-.137.249.011.249.329 0 .552 1.153 1.625 1.842 1.713.179.023.993.717 1.81 1.542.817.825 1.636 1.5 1.819 1.5.184 0 17.658-17.327 38.832-38.505L148 276.59l-.006-11.395c-.003-6.267-.145-11.614-.316-11.882-.205-.323-15.193 14.398-44.693 43.898" fill="#dc0424"/><path d="M146.4 6.4c0 .22-.371.4-.824.4-.453 0-.712.18-.576.4.136.22.072.4-.143.4-.215 0-.481-.225-.592-.5-.161-.4-.208-.4-.233 0-.018.275-.482.5-1.032.5s-1 .18-1 .4c0 .22-.54.4-1.2.4-.66 0-1.2.169-1.2.375s-.607.276-1.349.156c-.79-.128-1.463-.035-1.624.225-.151.244-.624.444-1.051.444-.427 0-.776.142-.776.315 0 .173-.582.359-1.293.413-.712.055-1.468.273-1.68.485-.213.213-.711.387-1.107.387s-.72.18-.72.4c0 .22-.54.4-1.2.4-.66 0-1.2.18-1.2.4 0 .22-.495.403-1.1.406-.857.005-.968.092-.5.394.455.294.286.389-.7.394-.715.003-1.3.186-1.3.406 0 .22-.585.403-1.3.406-.986.005-1.155.1-.7.394.455.294.286.389-.7.394-.715.003-1.3.186-1.3.406 0 .22-.36.4-.8.4-.44 0-.8.18-.8.4 0 .22-.27.4-.6.4-.33 0-.6.18-.6.4 0 .22-.63.4-1.4.4-.77 0-1.4.18-1.4.4 0 .22-.36.4-.8.4-.44 0-.8.18-.8.4 0 .22-.36.4-.8.4-.44 0-.8.18-.8.4 0 .22-.23.4-.512.4-.281 0-.771.36-1.088.8-.356.494-1.041.802-1.788.806-.93.005-1.072.097-.612.394.464.3.338.389-.553.394-.634.003-1.444.321-1.8.706-.356.385-.917.758-1.247.83-.33.071-.66.296-.733.5-.074.203-.466.37-.872.37-.406 0-.976.238-1.266.529-.291.29-.672.542-.846.558-.772.073-2.683 1.043-2.683 1.362 0 .193-.36.351-.8.351-.44 0-.8.18-.8.4 0 .22-.27.4-.6.4-.33 0-.6.18-.6.4 0 .22-.27.4-.6.4-.33 0-.6.18-.6.4 0 .22-.23.4-.512.4-.281 0-.771.36-1.088.8-.317.44-.942.803-1.388.806-.671.005-.708.074-.212.394s.459.389-.212.394c-.446.003-1.071.366-1.388.806-.317.44-.897.8-1.288.8-.392 0-.712.18-.712.4 0 .22-.32.4-.712.4-.391 0-.971.36-1.288.8-.317.44-.785.8-1.04.8s-1.205.72-2.112 1.6c-.906.879-1.648 1.411-1.648 1.181 0-.229-.45.033-1 .583-1.03 1.029-1.226 1.436-.695 1.436.168 0 15.862 15.56 34.875 34.578 19.013 19.017 34.715 34.487 34.894 34.376.65-.402.398-102.425-.255-103.078-.319-.319-.469-.692-.333-.828.136-.137.037-.248-.219-.248-.257 0-.467.18-.467.4m106.5.223c-.47.51-.811 103.777-.343 103.777.086 0 15.827-15.677 34.98-34.838l34.823-34.838-.962-.962c-.529-.529-1.168-.962-1.419-.962-.252 0-.962-.54-1.579-1.2-.617-.66-1.369-1.2-1.672-1.2-.303 0-.811-.36-1.128-.8-.317-.44-.897-.8-1.288-.8-.392 0-.712-.18-.712-.4 0-.22-.288-.4-.64-.4-.351 0-1.143-.54-1.76-1.2-.617-.66-1.369-1.2-1.672-1.2-.303 0-.811-.36-1.128-.8-.317-.44-.807-.8-1.088-.8-.282 0-.512-.18-.512-.4 0-.22-.236-.4-.525-.4-.288 0-.911-.36-1.383-.8-.472-.44-1.121-.8-1.442-.8-.321 0-.643-.157-.717-.349-.168-.442-4.129-2.451-4.831-2.451-.289 0-.785-.36-1.102-.8-.356-.494-1.041-.802-1.788-.806-.93-.005-1.072-.097-.612-.394.485-.314.428-.389-.3-.394-.495-.003-.9-.186-.9-.406 0-.22-.497-.4-1.104-.4-.67 0-1.3-.314-1.603-.8-.275-.44-.768-.8-1.096-.8-.329 0-.597-.18-.597-.4 0-.22-.585-.403-1.3-.406-.986-.005-1.155-.1-.7-.394.485-.314.428-.389-.3-.394-.495-.003-.9-.186-.9-.406 0-.22-.45-.4-1-.4s-1-.18-1-.4c0-.22-.45-.4-1-.4s-1-.18-1-.4c0-.22-.36-.4-.8-.4-.44 0-.8-.18-.8-.4 0-.22-.36-.4-.8-.4-.44 0-.8-.18-.8-.4 0-.22-.54-.4-1.2-.4-.66 0-1.2-.18-1.2-.4 0-.22-.36-.4-.8-.4-.44 0-.8-.18-.8-.4 0-.22-.45-.4-1-.4s-1-.18-1-.4c0-.22-.362-.4-.805-.4-.443 0-1.118-.159-1.5-.353-1.946-.99-5.275-2.047-6.447-2.047-.492 0-.798-.157-.68-.349.224-.362-1.954-.839-3.868-.847-.605-.002-1.1-.184-1.1-.404 0-.22-.45-.4-1-.4s-1-.18-1-.4c0-.22-.525-.4-1.167-.4-.641 0-1.226-.162-1.3-.361-.073-.198-.358-.116-.633.184M39.686 78.624c-.503.537-.728.976-.501.976.228 0-.306.742-1.185 1.648-.88.907-1.6 1.857-1.6 2.112 0 .255-.36.723-.8 1.04-.44.317-.8.897-.8 1.288 0 .392-.18.712-.4.712-.22 0-.4.32-.4.712 0 .391-.36.971-.8 1.288-.44.317-.8.825-.8 1.128 0 .303-.54 1.055-1.2 1.672-.66.617-1.2 1.319-1.2 1.56 0 .242-.18.44-.4.44-.22 0-.4.236-.4.525 0 .288-.36.911-.8 1.383-.44.472-.8 1.049-.8 1.281 0 .507-.806 1.969-1.504 2.728-.277.301-.401.713-.276.915.125.203.04.368-.189.368s-.54.493-.691 1.096c-.151.603-.516 1.337-.811 1.632-.295.295-.434.702-.309.904.125.203.037.368-.196.368s-.424.371-.424.824c0 .453-.18.712-.4.576-.22-.136-.4.033-.4.376 0 .343-.18.624-.4.624-.22 0-.4.5-.4 1.112 0 .653-.33 1.349-.8 1.688-.44.317-.8.807-.8 1.088 0 .282-.18.512-.4.512-.22 0-.4.36-.4.8 0 .44-.18.8-.4.8-.22 0-.4.345-.4.767 0 .421-.178.826-.397.9-.218.073-.437.628-.487 1.233-.05.605-.231 1.1-.403 1.1-.172 0-.313.36-.313.8 0 .44-.18.8-.4.8-.22 0-.4.36-.4.8 0 .44-.18.8-.4.8-.22 0-.403.585-.406 1.3-.005.986-.1 1.155-.394.7-.294-.455-.389-.286-.394.7-.003.715-.186 1.3-.406 1.3-.22 0-.403.585-.406 1.3-.005.986-.1 1.155-.394.7-.302-.468-.389-.357-.394.5-.003.605-.186 1.1-.406 1.1-.22 0-.4.525-.4 1.167 0 .641-.163 1.226-.362 1.3-.199.073-.424.583-.5 1.133-.076.55-.272 1.1-.436 1.222-.164.123-.338.708-.387 1.3-.049.593-.23 1.078-.402 1.078-.172 0-.313.551-.313 1.224 0 .804-.154 1.128-.45.945-.312-.193-.398.167-.28 1.176.093.8.026 1.455-.15 1.455s-.32.36-.32.8c0 .44-.18.8-.4.8-.22 0-.4.63-.4 1.4 0 .85-.196 1.402-.5 1.406-.333.004-.3.136.1.394s.433.39.1.394c-.275.003-.5.366-.5.806 0 .44-.18.8-.4.8-.22 0-.4.21-.4.467 0 .256.111.355.248.219.136-.136.509.014.828.333.651.65 102.676.906 103.076.259.11-.178-15.493-16.018-34.672-35.2-19.178-19.183-34.872-34.867-34.875-34.854-.003.014-.416.464-.919 1m319.114-.719c0 .168-15.564 15.866-34.587 34.885-23.031 23.025-34.425 34.682-34.1 34.888 1.074.683 102.416.352 103.287-.337.554-.438.646-.69.3-.82-.275-.103-.5-.713-.5-1.354 0-.642-.18-1.167-.4-1.167-.22 0-.4-.63-.4-1.4 0-.77-.157-1.4-.348-1.4-.192 0-.468-.9-.614-2-.146-1.1-.439-2-.652-2-.212 0-.386-.619-.386-1.376 0-.757-.18-1.488-.4-1.624-.22-.136-.4-.599-.4-1.029 0-.43-.18-1.139-.4-1.576-.22-.437-.58-1.153-.8-1.59-.22-.437-.4-1.157-.4-1.6 0-.443-.18-.805-.4-.805-.22 0-.4-.45-.4-1s-.18-1-.4-1c-.22 0-.4-.36-.4-.8 0-.44-.18-.8-.4-.8-.22 0-.4-.54-.4-1.2 0-.66-.18-1.2-.4-1.2-.22 0-.4-.36-.4-.8 0-.44-.18-.8-.4-.8-.22 0-.4-.36-.4-.8 0-.44-.18-.8-.4-.8-.22 0-.4-.272-.4-.605 0-.333-.208-1.008-.462-1.5-.971-1.877-1.138-2.302-1.138-2.89 0-.333-.18-.605-.4-.605-.22 0-.4-.36-.4-.8 0-.44-.18-.8-.4-.8-.22 0-.4-.27-.4-.6 0-.33-.18-.6-.4-.6-.22 0-.403-.405-.406-.9-.005-.728-.08-.785-.394-.3-.294.455-.389.286-.394-.7-.003-.715-.186-1.3-.406-1.3-.22 0-.4-.36-.4-.8 0-.44-.18-.8-.4-.8-.22 0-.4-.294-.4-.653 0-.359-.336-.944-.746-1.3-.411-.356-.875-1.234-1.033-1.951-.157-.717-.451-1.201-.654-1.076-.202.125-.367-.143-.367-.596 0-.453-.18-.824-.4-.824-.22 0-.355-.225-.3-.5.055-.275-.087-.468-.315-.428-.228.039-.453-.39-.5-.953-.047-.564-.445-1.337-.885-1.719-.44-.382-.8-.988-.8-1.347s-.18-.653-.4-.653c-.22 0-.4-.198-.4-.44 0-.241-.54-.943-1.2-1.56-.66-.617-1.2-1.369-1.2-1.672 0-.303-.36-.811-.8-1.128-.44-.317-.8-.897-.8-1.288 0-.392-.18-.712-.4-.712-.22 0-.4-.32-.4-.712 0-.391-.36-.971-.8-1.288-.44-.317-.8-.817-.8-1.112 0-.294-.18-.424-.4-.288-.22.136-.4-.051-.4-.416s-.534-1.162-1.186-1.771c-.652-.609-1.072-1.221-.933-1.36s.012-.253-.281-.253c-.293 0-.422-.111-.286-.248.136-.136-.001-.496-.304-.8-.614-.614-1.01-.71-1.01-.247M6.484 253.015c-.3.341-.342.585-.1.585.229 0 .416.36.416.8 0 .44.225.803.5.806.333.004.3.136-.1.394s-.433.39-.1.394c.309.004.502.579.506 1.506.005 1.116.106 1.346.394.9.308-.477.392-.395.409.4.035 1.638.454 4.171.761 4.6.157.22.519 1.21.804 2.2.541 1.884 1.078 3.325 1.673 4.495.194.382.353 1.057.353 1.5 0 .443.18.805.4.805.22 0 .403.495.406 1.1.005.857.092.968.394.5.294-.455.389-.286.394.7.003.715.186 1.3.406 1.3.22 0 .403.585.406 1.3.005.986.1 1.155.394.7.294-.455.389-.286.394.7.003.715.186 1.3.406 1.3.22 0 .4.36.4.8 0 .44.18.8.4.8.22 0 .4.36.4.8 0 .44.18.8.4.8.22 0 .4.5.4 1.112 0 .648.33 1.349.791 1.682.582.419.661.652.3.882-.385.245-.383.313.009.318.275.003.5.366.5.806 0 .44.18.8.4.8.22 0 .4.268.4.597 0 .328.36.821.8 1.096.44.275.8.816.8 1.203 0 .387.18.704.4.704.22 0 .4.36.4.8 0 .44.18.8.4.8.22 0 .4.36.4.8 0 .44.18.8.4.8.22 0 .4.36.4.8 0 .44.18.8.4.8.22 0 .4.291.4.646 0 .716 2.026 4.677 2.5 4.887.165.074.3.396.3.717 0 .321.36.97.8 1.442.44.472.8 1.095.8 1.383 0 .289.18.525.4.525.22 0 .4.23.4.512 0 .281.36.771.8 1.088.44.317.8.825.8 1.128 0 .303.54 1.055 1.2 1.672.66.617 1.2 1.409 1.2 1.76 0 .352.18.64.4.64.22 0 .4.32.4.712 0 .391.36.971.8 1.288.44.317.8.78.8 1.029 0 .249.54 1.017 1.2 1.708.66.691 1.2 1.446 1.2 1.678 0 .232.431.853.959 1.38l.958.958 34.842-34.824c19.162-19.153 34.841-34.893 34.841-34.977 0-.54-103.437-.079-103.916.463m317.717 34.269c19.139 19.186 34.833 34.955 34.875 35.042.041.087.545-.31 1.118-.884.573-.573.854-1.042.625-1.042-.23 0 .302-.742 1.181-1.648.88-.907 1.6-1.857 1.6-2.112 0-.255.36-.723.8-1.04.44-.317.8-.897.8-1.288 0-.392.18-.712.4-.712.22 0 .4-.288.4-.64 0-.351.54-1.143 1.2-1.76.66-.617 1.2-1.369 1.2-1.672 0-.303.36-.811.8-1.128.44-.317.8-.807.8-1.088 0-.282.136-.512.302-.512.363 0 1.519-2.46 1.377-2.93-.054-.181.086-.215.311-.076.226.139.41-.027.41-.37 0-.343.18-.624.4-.624.22 0 .4-.197.4-.438s.361-.946.803-1.567c.442-.62.915-1.683 1.05-2.361.136-.679.404-1.234.597-1.234.193 0 .353-.405.356-.9.005-.728.08-.785.394-.3.291.451.391.252.4-.8.009-1.052.109-1.251.4-.8.3.464.389.338.394-.553.003-.634.335-1.444.736-1.8.402-.356.986-1.232 1.298-1.947.312-.715.703-1.3.87-1.3.166 0 .302-.36.302-.8 0-.44.18-.8.4-.8.22 0 .4-.36.4-.8 0-.44.18-.8.4-.8.22 0 .4-.45.4-1s.18-1 .4-1c.22 0 .4-.45.4-1s.18-1 .4-1c.22 0 .4-.36.4-.8 0-.44.18-.8.4-.8.22 0 .403-.585.406-1.3.005-.986.1-1.155.394-.7.294.455.389.286.394-.7.003-.715.186-1.3.406-1.3.22 0 .4-.36.4-.8 0-.44.18-.8.4-.8.22 0 .4-.45.4-1s.18-1 .4-1c.22 0 .4-.362.4-.805 0-.443.208-1.208.462-1.7.994-1.921 1.138-2.311 1.138-3.066 0-.43.18-.893.4-1.029.22-.136.4-.651.4-1.144 0-.493.179-1.075.398-1.294.218-.218.515-1.526.659-2.906.165-1.579.386-2.314.597-1.983.213.337.336-.015.34-.973.003-.825.186-1.5.406-1.5.22 0 .4-.525.4-1.167 0-.641.225-1.258.5-1.369 2.31-.938-3.376-1.052-52.499-1.058l-51.799-.006 34.799 34.884M112.78 324.222C93.767 343.24 78.073 358.8 77.905 358.8c-.467 0-.365.397.263 1.025.436.436.614.452.768.071.111-.273.215-.151.232.271.018.421.146.653.285.514.139-.139.751.281 1.36.933.609.652 1.279 1.186 1.488 1.186.209 0 .945.54 1.636 1.2.691.66 1.527 1.2 1.859 1.2.332 0 .604.18.604.4 0 .22.32.4.712.4.391 0 .971.36 1.288.8.317.44.897.8 1.288.8.392 0 .712.18.712.4 0 .22.283.4.629.4.903 0 1.92 1.073 1.267 1.336-.292.118-.208.214.204.232.385.018.7.212.7.432s.36.4.8.4c.44 0 .8.147.8.326 0 .416 3.087 2.074 3.861 2.074.342 0 .467.193.3.463-.197.32-.009.391.608.229.65-.17.837-.085.685.31-.138.361.222.639 1.068.825.703.154 1.569.616 1.925 1.027.356.41.941.746 1.3.746.359 0 .653.18.653.4 0 .22.36.4.8.4.44 0 .803.225.806.5.004.333.136.3.394-.1s.39-.433.394-.1c.003.275.287.5.63.5s.531.15.418.332c-.113.183.416.577 1.176.875.76.298 1.382.689 1.382.868 0 .179.36.325.8.325.44 0 .8.18.8.4 0 .22.349.4.776.4.427 0 .888.18 1.024.4.136.22.687.4 1.224.4.537 0 .976.18.976.4 0 .22.36.4.8.4.44 0 .8.18.8.4 0 .22.585.403 1.3.406.986.005 1.155.1.7.394-.455.294-.286.389.7.394.715.003 1.3.186 1.3.406 0 .22.36.4.8.4.44 0 .8.18.8.4 0 .22.585.403 1.3.406.986.005 1.155.1.7.394-.468.302-.357.389.5.394.605.003 1.1.186 1.1.406 0 .22.765.403 1.7.406 1.245.005 1.539.11 1.1.394-.488.315-.436.389.276.394.482.003.988.186 1.124.406.136.22.877.4 1.647.4.832 0 1.3.162 1.153.4-.138.223.169.4.696.4.519 0 1.115.163 1.324.362.209.2 1.28.48 2.38.623 1.1.143 2.06.43 2.133.638.074.207.749.377 1.5.377.824 0 1.369.199 1.373.5.004.333.136.3.394-.1s.39-.433.394-.1c.003.275.366.5.806.5.44 0 .8.18.8.4 0 .22.191.4.424.4.233 0 .324-.161.202-.358-.122-.197.048-.461.376-.588.668-.256.938-102.796.272-103.208-.179-.111-15.881 15.359-34.894 34.376m139.62 17.081c0 36.259.128 51.897.424 51.897.233 0 .312.18.176.4-.136.22-.057.4.176.4.233 0 .424-.18.424-.4 0-.22.54-.4 1.2-.4.66 0 1.2-.18 1.2-.4 0-.22.675-.403 1.5-.406 1.116-.005 1.346-.106.9-.394-.461-.298-.323-.39.6-.398 2.023-.018 4.196-.485 3.968-.853-.118-.192.415-.349 1.185-.349s1.511-.18 1.647-.4c.136-.22.597-.4 1.024-.4.427 0 .776-.141.776-.313 0-.172.487-.353 1.082-.402.596-.049 1.262-.269 1.48-.487.219-.219.812-.398 1.318-.398s.92-.18.92-.4c0-.22.45-.4 1-.4s1-.18 1-.4c0-.22.36-.4.8-.4.44 0 .8-.18.8-.4 0-.22.463-.4 1.029-.4.565 0 1.3-.272 1.632-.604.332-.332.769-.501.971-.376.203.125.368.037.368-.196s.36-.424.8-.424c.44 0 .8-.18.8-.4 0-.22.272-.4.605-.4.698 0 2.257-.812 2.689-1.4.176-.239.296-.175.3.161.004.377.251.279.753-.3.411-.474 1.22-.861 1.8-.861.579 0 1.053-.146 1.053-.325 0-.179.63-.573 1.4-.875.77-.302 1.4-.696 1.4-.875 0-.179.32-.325.712-.325.391 0 .971-.36 1.288-.8.317-.44.953-.8 1.413-.8.46 0 1.191-.331 1.625-.735.434-.404 1.312-.866 1.951-1.026.639-.161 1.651-.64 2.248-1.066.598-.425 1.284-.773 1.525-.773.241 0 .438-.18.438-.4 0-.22.278-.4.617-.4.339 0 1.003-.36 1.475-.8.472-.44 1.095-.8 1.383-.8.289 0 .525-.18.525-.4 0-.22.198-.4.44-.4.241 0 .943-.54 1.56-1.2.617-.66 1.369-1.2 1.672-1.2.303 0 .811-.36 1.128-.8.317-.44.897-.8 1.288-.8.392 0 .712-.18.712-.4 0-.22.32-.4.712-.4.391 0 .971-.36 1.288-.8.317-.44.785-.8 1.04-.8s1.194-.709 2.087-1.575c.991-.962 1.698-1.39 1.816-1.1.107.261.208.07.225-.425.022-.623.278-.9.832-.9 1.299 0 2.042.767-34.265-35.397L252.4 289.405v51.898" fill="#0454b4"/><path d="M224 .8c0 .22.27.4.6.4.33 0 .6-.18.6-.4 0-.22-.27-.4-.6-.4-.33 0-.6.18-.6.4m-55.4.8c-.136.22-1.137.4-2.224.4-1.087 0-1.976.18-1.976.4 0 .22-.99.4-2.2.4-1.21 0-2.2.18-2.2.4 0 .22-.799.4-1.776.4s-1.888.18-2.024.4c-.136.22-.957.4-1.824.4-.867 0-1.576.18-1.576.4 0 .22-.72.4-1.6.4-.88 0-1.6.18-1.6.4 0 .22-.51.4-1.133.4-1.447 0-1.781.343-1.048 1.076.653.653.905 102.676.255 103.078-.179.111-15.881-15.359-34.894-34.376-35.308-35.317-35.384-35.387-36.833-33.717-.411.474-.747.736-.747.582 0-.154-.458.179-1.018.739s-1.17 1.018-1.355 1.018c-.186 0-1.123.769-2.082 1.71-.96.94-2.375 2.152-3.145 2.693-1.567 1.101-9.2 8.663-9.2 9.115 0 .159 20.025 20.316 44.5 44.794 35.318 35.321 44.376 44.584 43.9 44.89-.349.224-5.37.388-11.998.392l-11.397.006-38.565-38.565C43.273 67.868 45.715 70.078 44.324 72.781c-.288.561-.884 1.415-1.324 1.9-1.556 1.713-1.8 2.093-1.8 2.803 0 .418 14.433 15.15 34.577 35.293 19.017 19.016 34.486 34.721 34.376 34.899-.401.649-102.425.395-103.077-.257-.733-.733-1.076-.399-1.076 1.048 0 .623-.18 1.133-.4 1.133-.22 0-.4.72-.4 1.6 0 .88-.18 1.6-.4 1.6-.22 0-.4.709-.4 1.576 0 .867-.18 1.688-.4 1.824-.22.136-.4 1.047-.4 2.024 0 .977-.18 1.776-.4 1.776-.22 0-.4.9-.4 2s-.18 2-.4 2c-.222 0-.4 1.059-.4 2.376 0 1.307-.18 2.488-.4 2.624-.22.136-.4 1.317-.4 2.625v2.377l86.3-.101 86.3-.101.101-86.3.101-86.3h-2.577c-1.418 0-2.689.18-2.825.4M226 87.12c0 66.293.11 86.03.48 86.4.37.37 20.107.48 86.4.48h85.92v-2.376c0-1.307-.18-2.488-.4-2.624-.22-.136-.4-1.216-.4-2.4s-.18-2.264-.4-2.4c-.22-.136-.4-1.137-.4-2.224 0-1.087-.18-1.976-.4-1.976-.22 0-.4-.799-.4-1.776s-.18-1.888-.4-2.024c-.22-.136-.4-.957-.4-1.824 0-.867-.18-1.576-.4-1.576-.22 0-.4-.619-.4-1.376 0-.757-.18-1.488-.4-1.624-.22-.136-.4-.777-.4-1.424 0-1.158-.516-1.559-1-.776-.296.479-102.134.557-102.887.078-.325-.206 11.069-11.863 34.1-34.888C347.168 89.84 358.8 77.94 358.8 77.405c0-.443-.72-1.593-1.6-2.556-.88-.962-1.6-1.903-1.6-2.089 0-.186-.767-1.109-1.705-2.049-.938-.941-2.15-2.341-2.694-3.111-1.111-1.574-8.67-9.2-9.119-9.2-.16 0-20.267 19.98-44.684 44.4-24.416 24.42-44.529 44.4-44.696 44.4-.166 0-.302-5.446-.302-12.103v-12.103l38.4-38.392c21.12-21.116 38.4-38.463 38.4-38.551 0-.272-2.183-2.05-2.518-2.051-.175 0-.752-.405-1.281-.9-1.721-1.609-2.157-1.9-2.845-1.9-.374 0-16.24 15.57-35.259 34.6-19.018 19.03-34.651 34.6-34.738 34.6-.088 0-.159-23.31-.159-51.8 0-34.267.135-51.8.4-51.8.22 0 .4-.18.4-.4 0-.22-.63-.4-1.4-.4-.77 0-1.4-.18-1.4-.4 0-.22-.72-.4-1.6-.4-.88 0-1.6-.18-1.6-.4 0-.22-.709-.4-1.576-.4-.867 0-1.688-.18-1.824-.4-.136-.22-1.047-.4-2.024-.4-.977 0-1.776-.18-1.776-.4 0-.22-.9-.4-2-.4s-2-.18-2-.4c0-.222-1.059-.4-2.376-.4-1.307 0-2.488-.18-2.624-.4-.136-.22-1.317-.4-2.624-.4H226v85.92M.679 174.957c-.164.417-.204.852-.088.967.364.365.685-.233.533-.993-.141-.696-.162-.695-.445.026m399.014 7.843c0 .77.082 1.085.183.7.1-.385.1-1.015 0-1.4-.101-.385-.183-.07-.183.7M1.2 228.376c0 1.307.18 2.488.4 2.624.22.136.4 1.317.4 2.624 0 1.317.178 2.376.4 2.376.22 0 .4.9.4 2s.18 2 .4 2c.22 0 .4.799.4 1.776s.18 1.888.4 2.024c.22.136.4.957.4 1.824 0 .867.18 1.576.4 1.576.22 0 .4.72.4 1.6 0 .88.18 1.6.4 1.6.22 0 .4.63.4 1.4 0 .77.18 1.4.4 1.4.22 0 .4-.18.4-.4 0-.265 17.533-.4 51.8-.4 28.49 0 51.8.069 51.8.154 0 .085-15.57 15.714-34.6 34.732-19.03 19.017-34.6 34.816-34.6 35.108 0 .499 1.546 2.764 2.686 3.935.282.29.514.683.514.873 0 .19.855 1.244 1.9 2.343 2.341 2.461 3.699 4.055 3.456 4.055-.101 0 1.629 1.8 3.844 4s4.247 4 4.514 4c.267-.001 20.459-19.975 44.871-44.387 29.5-29.502 44.488-44.223 44.693-43.9.171.268.313 5.615.316 11.882L148 276.59l-38.68 38.688-38.681 38.689.942.816c.518.449 1.086.817 1.262.817.176 0 .734.41 1.239.912 1.342 1.333 2.808 2.288 3.512 2.288.34 0 16.173-15.56 35.186-34.578 19.013-19.017 34.715-34.487 34.894-34.376.666.412.396 102.952-.272 103.208-.991.381-.248.946 1.245.946.832 0 1.3.162 1.153.4-.149.241.388.4 1.353.4.88 0 1.711.18 1.847.4.136.22.856.4 1.6.4.744 0 1.464.18 1.6.4.136.22 1.047.4 2.024.4.977 0 1.776.18 1.776.4 0 .22.99.4 2.2.4 1.21 0 2.2.18 2.2.4 0 .22.979.4 2.176.4s2.288.18 2.424.4c.136.22 1.317.4 2.624.4H174v-85.92c0-66.293-.11-86.03-.48-86.4-.37-.37-20.107-.48-86.4-.48H1.2v2.376m225.28-1.896c-.37.37-.48 20.107-.48 86.4v85.92h2.376c1.307 0 2.488-.18 2.624-.4.136-.22 1.216-.4 2.4-.4s2.264-.18 2.4-.4c.136-.22 1.036-.4 2-.4s1.864-.18 2-.4c.136-.22.946-.4 1.8-.4.854 0 1.664-.18 1.8-.4.136-.22 1.047-.4 2.024-.4.977 0 1.776-.18 1.776-.4 0-.22.72-.4 1.6-.4.88 0 1.6-.18 1.6-.4 0-.22.529-.4 1.176-.4.647 0 1.288-.18 1.424-.4.136-.22.057-.4-.176-.4-.296 0-.424-15.638-.424-51.899v-51.899l34.755 34.753c38.559 38.557 35.167 35.639 38.199 32.862.851-.78 1.699-1.417 1.886-1.417.186 0 1.112-.765 2.057-1.7.944-.935 2.418-2.226 3.274-2.869 2.304-1.73 9.029-8.558 9.029-9.167 0-.29-19.98-20.385-44.4-44.657-24.42-24.272-44.4-44.283-44.4-44.469 0-.186 5.445-.338 12.099-.338h12.099l38.484 38.482 38.483 38.481.817-.943c.45-.518.818-1.076.818-1.239 0-.163.541-.9 1.201-1.639 1.908-2.131 1.999-2.269 1.999-3.024 0-.416-14.548-15.266-34.7-35.42l-34.7-34.704 52.3.103 52.3.103v-1.076c0-.592.18-1.188.4-1.324.22-.136.4-.867.4-1.624 0-.757.18-1.376.4-1.376.22 0 .4-.709.4-1.576 0-.867.18-1.688.4-1.824.22-.136.4-1.047.4-2.024 0-.977.18-1.776.4-1.776.22 0 .4-.889.4-1.976s.18-2.088.4-2.224c.22-.136.4-1.216.4-2.4s.18-2.264.4-2.4c.22-.136.4-1.317.4-2.624V226h-85.92c-66.293 0-86.03.11-86.4.48" fill="#f3f3f3"/></g></svg>