<svg xmlns="http://www.w3.org/2000/svg" width="400" height="400"><g fill-rule="evenodd"><path d="M179.085.298c-2.376.08-3.821.283-3.676.517.145.235-1.057.387-3.085.391-2.294.004-3.138.126-2.724.394.418.27-.28.39-2.3.394-1.663.003-2.9.177-2.9.406 0 .22-1.001.4-2.224.4-1.38 0-2.129.152-1.976.4.153.248-.596.4-1.976.4-1.223 0-2.224.18-2.224.4 0 .22-.36.4-.8.4-.44 0-.8.18-.8.4 0 .222-1.067.4-2.4.4s-2.4.178-2.4.4c0 .22-.72.4-1.6.4-.88 0-1.6.18-1.6.4 0 .22-.371.4-.824.4-.453 0-.712.18-.576.4.136.22.072.4-.143.4-.215 0-.481-.225-.592-.5-.161-.4-.208-.4-.233 0-.018.275-.482.5-1.032.5s-1 .18-1 .4c0 .22-.54.4-1.2.4-.66 0-1.2.169-1.2.375s-.607.276-1.349.156c-.79-.128-1.463-.035-1.624.225-.151.244-.624.444-1.051.444-.427 0-.776.142-.776.315 0 .173-.582.359-1.293.413-.712.055-1.468.273-1.68.485-.213.213-.711.387-1.107.387s-.72.18-.72.4c0 .22-.54.4-1.2.4-.66 0-1.2.18-1.2.4 0 .22-.495.403-1.1.406-.857.005-.968.092-.5.394.455.294.286.389-.7.394-.715.003-1.3.186-1.3.406 0 .22-.54.4-1.2.4-.66 0-1.2.18-1.2.4 0 .22-.36.4-.8.4-.44 0-.8.18-.8.4 0 .22-.36.4-.8.4-.44 0-.8.18-.8.4 0 .22-.416.4-.925.4-.508 0-1.305.355-1.77.788-.595.555-.905.644-1.044.3-.152-.376-.205-.373-.229.012-.018.275-.392.5-.832.5-.44 0-.8.18-.8.4 0 .22-.36.4-.8.4-.44 0-.8.18-.8.4 0 .22-.39.4-.867.4-.476 0-.755.111-.619.248.442.441-.828 1.352-1.885 1.352-.566 0-1.029.18-1.029.4 0 .22-.371.4-.824.4-.453 0-.712.18-.576.4.136.22-.033.4-.376.4-.343 0-.624.18-.624.4 0 .22-.36.4-.8.4-.44 0-.8.157-.8.35 0 .193-.54.458-1.2.59-.727.145-1.2.49-1.2.874 0 .348-.191.515-.424.371-.504-.312-2.776.559-2.776 1.064 0 .193-.405.354-.9.357-.728.005-.785.08-.3.394.483.312.419.389-.324.394-.508.003-.835.149-.727.323.107.174-.194.346-.671.382-.476.036-.929.253-1.005.483-.077.23-.395.418-.706.418-.766 0-.72.656.066.957.348.134 4.398.243 9 .243 4.709 0 8.367.158 8.367.361 0 .199-1.464 1.414-3.254 2.7C100.641 38.65 94 43.599 94 43.76c0 .088.816 2.653 1.814 5.7 5.237 15.99 5.354 14.647-.875 10.051-11.865-8.753-11.543-8.592-13.629-6.822-.461.391-1.967 1.521-3.346 2.511-1.38.99-4.321 3.123-6.536 4.739-4.153 3.031-5.245 3.115-3.897.301.883-1.842 4.069-12.403 4.069-13.485 0-1.482-.08-1.465-2.048.445-.907.88-1.815 1.6-2.018 1.6-.605 0-2.334 1.913-2.334 2.582 0 .34-.279.618-.619.618-.341 0-1.875 1.305-3.41 2.9-1.535 1.595-2.922 3.029-3.081 3.186-.16.158-2.315 2.267-4.79 4.688-2.475 2.42-4.5 4.568-4.5 4.773 0 .204-.9 1.291-2 2.414-1.1 1.124-2 2.23-2 2.459 0 .229-.405.832-.9 1.339-1.406 1.442-2.7 3.022-2.7 3.297 0 .138-.349.553-.775.922-.426.37-.831.927-.9 1.238-.069.311-.8 1.231-1.625 2.043-.825.813-1.5 1.723-1.5 2.021 0 .299-.36.803-.8 1.12-.44.317-.8.897-.8 1.288 0 .392-.18.712-.4.712-.22 0-.4.345-.4.767 0 .421-.212.837-.472.924-1.41.47.146 1.509 2.259 1.509 2.973 0 2.84.279-1.687 3.546-2.145 1.547-4.101 2.987-4.346 3.199-.245.212-.856.446-1.359.52-.502.074-1.112.495-1.354.935-.243.44-.562.892-.709 1.004-.147.112-.327.468-.4.79-.073.323-.357.829-.632 1.125-.275.296-.5.885-.5 1.31 0 .424-.18.771-.4.771-.22 0-.4.36-.4.8 0 .44-.18.8-.4.8-.499 0-.528 1.705-.038 2.22.57.599 4.486 13.06 4.355 13.86-.094.576-.948.095-4.317-2.428-2.31-1.73-4.65-3.272-5.2-3.425-.762-.213-.857-.18-.4.141.406.284.438.422.1.426-.275.003-.5.456-.5 1.006s-.18 1-.4 1c-.22 0-.4.27-.4.6 0 .33-.18.6-.4.6-.22 0-.4.36-.4.8 0 .44-.18.8-.4.8-.22 0-.4.36-.4.8 0 .44-.18.8-.4.8-.22 0-.4.731-.4 1.624 0 .98-.158 1.525-.4 1.376-.23-.142-.403.23-.406.876-.005.873-.093.99-.394.524-.302-.468-.389-.357-.394.5-.003.605-.186 1.1-.406 1.1-.575 0-.493 2.479.113 3.411.283.434.712 1.419.955 2.189s1.389 4.325 2.546 7.9l2.103 6.5h9.918c5.455 0 10.015.158 10.134.35.119.193-.995 1.24-2.476 2.327-1.481 1.087-5.006 3.661-7.833 5.721-2.827 2.059-5.22 3.955-5.319 4.212-.155.403 4.001 13.913 5.078 16.509 1.263 3.045.642 3.007-3.746-.226-12.594-9.283-12.056-9.004-14.196-7.356-4.093 3.15-7.663 5.663-8.047 5.663-.237 0-.433.225-.436.5-.004.333-.136.3-.394-.1-.213-.33-.393-.51-.4-.4-.007.11-.128 5.825-.269 12.7L-.126 200H200V0l-8.5.084c-4.675.046-10.262.142-12.415.214m-20.482 21.607 3.034 9.295h9.915c5.453 0 10.025.111 10.16.246.258.257-.18.593-12.212 9.366-4.203 3.065-4.142 1.97-.689 12.449 1.546 4.692 2.761 8.761 2.7 9.042-.123.565-.83.103-9.911-6.482-7.279-5.279-5.045-5.64-16.502 2.665-6.143 4.453-6.92 4.878-6.329 3.462.793-1.901 5.631-17.367 5.631-18.001 0-.548-3.989-3.757-7.985-6.425-4.001-2.671-8.042-5.936-7.566-6.113.303-.113 4.934-.251 10.292-.307l9.74-.102.506-1.6c3.383-10.7 5.665-17.308 5.898-17.075.157.157 1.65 4.468 3.318 9.58m-.964 55.149c1.084 3.27 2.348 7.206 2.808 8.746 1.224 4.098.329 3.8 11.402 3.8 5.363 0 9.751.143 9.751.318 0 .286-1.96 1.782-9.4 7.173-6.155 4.459-6.596 4.873-6.212 5.821.198.489.738 2.148 1.2 3.688.462 1.54.993 3.16 1.18 3.6.669 1.571 3.232 9.851 3.232 10.439 0 .657-1.312-.168-7.049-4.427-10.101-7.5-8.981-7.063-12.163-4.75-4.747 3.451-6.565 4.781-9.658 7.068-4.661 3.446-4.571 3.658-1.928-4.53 4.425-13.713 4.414-11.953.098-15-6.309-4.455-12.1-8.808-12.1-9.095 0-.168 4.388-.305 9.751-.305 7.335 0 9.843-.124 10.124-.5.311-.417 3.798-10.769 5.731-17.012.715-2.309.933-1.974 3.233 4.966M83.885 71.3c.21.275.79 1.85 1.289 3.5 1.083 3.586 3.894 12.154 4.496 13.7l.427 1.1h9.985c5.87 0 9.93.151 9.851.366-.073.201-3.2 2.586-6.949 5.3-3.749 2.714-7.304 5.319-7.899 5.79l-1.082.856 1.16 3.744c.637 2.059 1.995 6.238 3.018 9.285 1.022 3.048 1.804 5.7 1.739 5.893-.123.359-2.189-1.056-12.92-8.851-1.54-1.118-3.017-2.128-3.282-2.244-.265-.116-1.885.827-3.6 2.095-1.715 1.268-4.018 2.963-5.118 3.767-1.1.803-3.143 2.302-4.54 3.33-3.911 2.879-3.974 2.728-1.705-4.072 3.855-11.546 4.209-12.868 3.608-13.445-.309-.298-2.025-1.593-3.812-2.878-9.098-6.541-11.351-8.242-11.351-8.567 0-.195 4.448-.403 9.884-.462l9.884-.107 2.062-6.2c1.134-3.41 2.491-7.594 3.016-9.298.98-3.182 1.179-3.464 1.839-2.602m74.316 65.9c1.46 4.51 2.844 8.695 3.075 9.3l.421 1.1 9.652.006c10.084.007 11.252.16 9.737 1.28-.487.361-4.036 2.944-7.886 5.74-8.474 6.153-7.771 4.945-5.99 10.299 3.199 9.615 4.39 13.422 4.39 14.026 0 .56-5.84-3.434-13.8-9.439-2.544-1.919-2.55-1.918-5.947.616-9.25 6.901-13.552 9.822-13.271 9.01 1.636-4.72 5.815-18.152 5.805-18.659-.007-.394-1.749-1.939-4.147-3.679-10.189-7.393-11.776-8.598-11.582-8.793.114-.114 4.712-.297 10.218-.407l10.011-.2 1.497-4.6c.823-2.53 2.198-6.795 3.056-9.478.858-2.683 1.683-4.753 1.833-4.6.15.153 1.468 3.968 2.928 8.478m-72.404-2.113c1.055 3.252 2.391 7.353 2.969 9.113l1.053 3.2 10.09.107c5.55.059 10.091.264 10.091.456 0 .387-1.685 1.79-4.501 3.748C101.64 154.393 94 160.038 94 160.207c0 .097.431 1.485.958 3.085 2.526 7.664 5.042 15.523 5.042 15.746 0 .644-2.079-.763-12.285-8.312-4.592-3.398-3.372-3.681-12.42 2.884-8.312 6.03-8.095 5.898-8.095 4.943 0-.669.226-1.4 3.598-11.62 1.101-3.336 1.993-6.306 1.982-6.6-.011-.293-3.609-3.118-7.996-6.277-4.387-3.159-7.878-5.904-7.757-6.1.121-.196 4.673-.356 10.114-.356h9.894l2.954-9.1c1.624-5.005 3.024-9.238 3.11-9.407.373-.73.894.428 2.698 5.994" fill="#0454b4"/><path d="M324.4 43c0 .531-7.178.6-62.2.6H200v52h85.176c57.265 0 85.259-.133 85.428-.407.138-.223.419-.302.624-.176.204.127.372.04.372-.193s-.18-.424-.4-.424c-.22 0-.4-.27-.4-.6 0-.33-.18-.6-.4-.6-.22 0-.403-.315-.406-.7-.005-.598-.063-.613-.394-.1-.32.496-.389.459-.394-.212-.003-.446-.366-1.071-.806-1.388-.44-.317-.8-.882-.8-1.255 0-.373-.167-.738-.37-.812-.204-.073-.429-.403-.5-.733-.072-.33-.445-.891-.83-1.247-.385-.356-.7-.901-.7-1.212 0-.31-.36-.824-.8-1.141-.44-.317-.8-.807-.8-1.088 0-.282-.18-.512-.4-.512-.22 0-.4-.23-.4-.512 0-.281-.36-.771-.8-1.088-.44-.317-.8-.897-.8-1.288 0-.445-.3-.712-.8-.712-.533 0-.8-.267-.8-.8 0-.44-.18-.8-.4-.8-.22 0-.4-.27-.4-.6 0-.33-.21-.6-.467-.6-.256 0-.353-.114-.214-.253.139-.139-.281-.751-.933-1.36-.652-.609-1.186-1.282-1.186-1.494 0-.212-.99-1.416-2.2-2.675-1.21-1.26-2.2-2.438-2.2-2.62 0-.181-2.059-2.37-4.576-4.864-2.517-2.494-4.812-4.769-5.1-5.055-.288-.287-2.648-2.672-5.243-5.3C334.086 50.15 331.74 48 331.469 48c-.271 0-.752-.36-1.069-.8-.317-.44-.817-.8-1.112-.8-.294 0-.424-.18-.288-.4.136-.22-.123-.4-.576-.4-.453 0-.779-.135-.724-.3.055-.165-.044-.336-.221-.38-.177-.044-.834-.629-1.461-1.3-1.275-1.366-1.618-1.497-1.618-.62M200 173.8V200h200.129l-.265-12.1c-.164-7.456-.419-12.151-.665-12.233-.219-.074-.399-1.379-.399-2.9 0-1.578-.172-2.767-.4-2.767-.229 0-.403-1.237-.406-2.9-.004-2.02-.124-2.718-.394-2.3-.275.426-.39-.067-.394-1.7-.004-1.567-.165-2.302-.506-2.306-.333-.004-.3-.136.1-.394s.433-.39.1-.394c-.288-.003-.5-.516-.5-1.206 0-.66-.18-1.2-.4-1.2-.22 0-.4-.9-.4-2s-.18-2-.4-2c-.22 0-.4-.731-.4-1.624 0-1.048-.151-1.53-.427-1.359-.234.145-.393.02-.352-.277.04-.297.052-1.035.026-1.64l-.047-1.1H200v26.2M6.484 253.015c-.3.341-.342.585-.1.585.229 0 .416.371.416.824 0 .453.18.712.4.576.22-.136.4-.072.4.143 0 .215-.225.481-.5.592-.4.161-.4.208 0 .233.275.018.5.467.5.999 0 .531.158 1.026.351 1.1.193.073.459 1.032.591 2.132.132 1.099.484 2.179.784 2.4.299.22.461.647.36.947-.188.56.508 3.308 1.153 4.549.199.382.361.977.361 1.323s.18.518.4.382c.238-.147.4.329.4 1.176 0 .783.18 1.424.4 1.424.22 0 .4.461.4 1.024 0 .58.173.916.4.776.22-.136.4.033.4.376 0 .343.18.624.4.624.22 0 .4.54.4 1.2 0 .66.18 1.2.4 1.2.22 0 .4.54.4 1.2 0 .66.18 1.2.4 1.2.22 0 .4.36.4.8 0 .44.18.8.4.8.22 0 .4.36.4.8 0 .44.18.8.4.8.22 0 .4.355.4.788 0 .433.36 1.429.8 2.212.44.783.8 1.623.8 1.865 0 .243.372.764.826 1.158.455.394.815.82.8.947-.09.794.023 1.047.374.83.229-.141.4.214.4.829 0 .605.378 1.405.861 1.824.509.442.648.747.339.747s-.17.305.339.747c.473.411.861 1.041.861 1.4s.157.653.35.653c.193 0 .449.495.57 1.1.121.605.678 1.775 1.238 2.6.56.825.906 1.5.769 1.5s.15.346.638.77c.488.423.876.873.861 1-.114 1.004-.007 1.171.454.71.657-.657 341.536-.704 342.192-.048.31.31.587.083.978-.8.3-.678.681-1.232.848-1.232.166 0 .302-.197.302-.438s.361-.946.803-1.567c.442-.62.915-1.683 1.05-2.361.136-.679.404-1.234.597-1.234.193 0 .35-.36.35-.8 0-.44.18-.8.4-.8.22 0 .4-.32.4-.712 0-.391.36-.971.8-1.288.44-.317.806-.852.813-1.188.007-.337.271-.954.587-1.371.316-.417.462-.94.325-1.162-.141-.228-.049-.279.213-.117.274.169.462.031.462-.338 0-.343.18-.624.4-.624.22 0 .4-.36.4-.8 0-.44.18-.8.4-.8.22 0 .4-.551.4-1.224 0-.713.167-1.12.4-.976.227.14.4-.196.4-.776 0-.563.18-1.024.4-1.024.22 0 .4-.36.4-.8 0-.44.18-.8.4-.8.22 0 .4-.36.4-.8 0-.44.18-.8.4-.8.22 0 .4-.54.4-1.2 0-.66.18-1.2.4-1.2.22 0 .403-.585.406-1.3.005-.986.1-1.155.394-.7.314.485.389.428.394-.3.003-.495.186-.9.406-.9.22 0 .4-.45.4-1s.18-1 .4-1c.22 0 .4-.641.4-1.424 0-.847.162-1.323.4-1.176.22.136.4-.113.4-.553 0-.44.18-.911.4-1.047.22-.136.4-.676.4-1.2 0-.524.18-1.064.4-1.2.22-.136.4-.877.4-1.647s.159-1.302.354-1.181c.195.12.479-.95.632-2.377.153-1.427.443-2.595.646-2.595.202 0 .368-.542.368-1.205 0-1.207.648-2.731 1.4-3.295.251-.188.176-.447-.2-.694-1.088-.714-386.485-.506-387.116.209M75.6 357.424c0 .58.173.916.4.776.22-.136.4-.057.4.176 0 .233.23.424.512.424.281 0 .768.356 1.082.791.419.582.652.661.882.3.212-.334.314-.245.318.276.003.421.111.661.24.533.128-.129.96.471 1.848 1.333.888.862 1.823 1.567 2.078 1.567.255 0 .723.36 1.04.8.317.44.897.8 1.288.8.392 0 .712.18.712.4 0 .22.32.4.712.4.391 0 .971.36 1.288.8.317.44.857.8 1.2.8.343 0 .883.36 1.2.8.317.44.942.803 1.388.806.671.005.708.074.212.394-.513.331-.498.389.1.394.385.003.701.141.703.306.002.165.407.498.9.74 2.408 1.182 4.51 2.39 4.63 2.66.074.165.457.3.851.3.395 0 .942.27 1.216.6.274.33.836.6 1.249.6.413 0 .751.18.751.4 0 .22.45.4 1 .4s1 .18 1 .4c0 .22.27.4.6.4.33 0 .6.18.6.4 0 .22.294.4.653.4.359 0 .944.316 1.3.703.356.386 1.187.971 1.847 1.299.66.328 1.332.777 1.494.997.182.249.296.211.3-.099.003-.275.197-.5.43-.5.233 0 .328.154.211.343-.116.189.638.748 1.677 1.244 1.038.495 2.201 1.061 2.583 1.257.382.196.967.356 1.3.356.333 0 .605.18.605.4 0 .22.54.4 1.2.4.66 0 1.2.18 1.2.4 0 .22.36.4.8.4.44 0 .8.18.8.4 0 .22.36.4.8.4.44 0 .8.18.8.4 0 .22.585.403 1.3.406.986.005 1.155.1.7.394-.469.303-.366.389.476.394.592.003 1.188.186 1.324.406.136.22.897.4 1.69.4.794 0 1.326.117 1.183.261-.443.442 1.738 1.339 3.273 1.345 1.086.005 1.302.104.854.394-.469.303-.366.389.476.394.592.003 1.18.173 1.307.378.126.205 1.217.495 2.423.646 1.207.151 2.194.433 2.194.628s.9.354 2 .354 2 .18 2 .4c0 .22.27.4.6.4.33 0 .603.225.606.5.004.333.136.3.394-.1s.39-.433.394-.1c.003.288.516.5 1.206.5.66 0 1.2.18 1.2.4 0 .222 1.067.4 2.4.4s2.4.178 2.4.4c0 .22.36.4.8.4.44 0 .8.18.8.4 0 .229 1.2.4 2.8.4 1.6 0 2.8.171 2.8.4 0 .22.63.4 1.4.4.77 0 1.4.18 1.4.4 0 .231 1.267.4 3 .4s3 .169 3 .4 1.256.4 2.967.4c2.017 0 3.02.16 3.133.5.131.393 5.349.5 24.3.5s24.169-.107 24.3-.5c.106-.318.956-.5 2.333-.5 1.192 0 2.167-.18 2.167-.4 0-.226 1.133-.4 2.6-.4s2.6-.174 2.6-.4c0-.22.799-.4 1.776-.4s1.888-.18 2.024-.4c.136-.22 1.306-.4 2.6-.4s2.464-.18 2.6-.4c.136-.22.777-.4 1.424-.4.671 0 1.179-.215 1.182-.5.004-.333.136-.3.394.1s.39.433.394.1c.004-.316.596-.5 1.606-.5.88 0 1.6-.18 1.6-.4 0-.22.765-.403 1.7-.406 1.245-.005 1.539-.11 1.1-.394-.455-.294-.286-.389.7-.394.715-.003 1.3-.186 1.3-.406 0-.22.81-.4 1.8-.4s1.8-.157 1.8-.348c0-.192.9-.468 2-.614 1.1-.146 2-.439 2-.652 0-.212.619-.386 1.376-.386.757 0 1.488-.18 1.624-.4.136-.22.597-.4 1.024-.4.427 0 .776-.141.776-.313 0-.172.487-.353 1.082-.402.596-.049 1.262-.269 1.48-.487.219-.219.812-.398 1.318-.398s.92-.18.92-.4c0-.22.45-.4 1-.4s1-.18 1-.4c0-.22.36-.4.8-.4.44 0 .8-.18.8-.4 0-.22.585-.403 1.3-.406.986-.005 1.155-.1.7-.394-.485-.314-.428-.389.3-.394.495-.003.9-.186.9-.406 0-.22.551-.4 1.224-.4.713 0 1.12-.167.976-.4-.14-.226.188-.4.753-.4.55 0 1.111-.18 1.247-.4.136-.22.563-.4.948-.4.386 0 1.088-.36 1.56-.8.472-.44 1.136-.8 1.475-.8.339 0 .617-.18.617-.4 0-.22.135-.379.3-.353.876.139 1.638-.129 2.408-.847.472-.44 1.046-.8 1.275-.8.229 0 .417-.18.417-.4 0-.22.36-.4.8-.4.44 0 .8-.18.8-.4 0-.22.416-.4.925-.4.508 0 1.279-.331 1.713-.735.434-.404 1.309-.865 1.944-1.025.635-.159 1.598-.638 2.14-1.065.542-.426 1.232-.775 1.532-.775.3 0 .546-.18.546-.4 0-.22.281-.4.624-.4.369 0 .507-.188.338-.462-.16-.258-.111-.354.109-.217.218.134 1.046-.198 1.841-.739.795-.54 1.595-.982 1.778-.982.184 0 .593-.36.91-.8.317-.44.857-.8 1.2-.8.343 0 .883-.36 1.2-.8.317-.44.942-.803 1.388-.806.671-.005.708-.074.212-.394-.485-.314-.428-.389.3-.394.495-.003.9-.186.9-.406 0-.22.32-.4.712-.4.391 0 .971-.36 1.288-.8.317-.44.785-.8 1.04-.8s1.194-.709 2.087-1.575c.991-.962 1.698-1.39 1.816-1.1.107.261.208.07.225-.425.022-.623.278-.9.832-.9.44 0 .8-.18.8-.4 0-.22.236-.4.524-.4.973 0 1.931-.99 1.655-1.711-.25-.65-7.28-.689-124.622-.689H75.6v1.024" fill="#dc0424"/><path d="M200 21.738V43.6h62.2c56.279 0 62.2-.06 62.2-.629 0-.63-.909-1.771-1.411-1.771-.147 0-.772-.54-1.389-1.2-.617-.66-1.32-1.2-1.564-1.2s-1.008-.54-1.699-1.2c-.691-.66-1.459-1.2-1.708-1.2-.249 0-.712-.36-1.029-.8-.317-.44-.857-.8-1.2-.8-.343 0-.883-.36-1.2-.8-.317-.44-.857-.8-1.2-.8-.343 0-.883-.36-1.2-.8-.317-.44-.857-.8-1.2-.8-.343 0-.883-.36-1.2-.8-.317-.44-.729-.8-.916-.8-.187 0-1.125-.54-2.084-1.2-.959-.66-1.922-1.2-2.139-1.2-.217 0-.454-.135-.528-.3-.18-.405-4.122-2.5-4.704-2.5-.254 0-.849-.36-1.321-.8-.472-.44-1.095-.8-1.383-.8-.289 0-.525-.18-.525-.4 0-.22-.36-.4-.8-.4-.44 0-.8-.18-.8-.4 0-.22-.36-.4-.8-.4-.44 0-.801-.135-.801-.3-.001-.165-.991-.75-2.199-1.3-1.208-.55-2.198-1.135-2.199-1.3 0-.165-.273-.3-.606-.3-.333 0-.963-.18-1.4-.4-.437-.22-1.153-.58-1.59-.8-.437-.22-1.067-.4-1.4-.4-.333 0-.605-.18-.605-.4 0-.22-.36-.4-.8-.4-.44 0-.8-.18-.8-.4 0-.22-.36-.4-.8-.4-.44 0-.8-.18-.8-.4 0-.22-.54-.4-1.2-.4-.66 0-1.2-.18-1.2-.4 0-.22-.36-.4-.8-.4-.44 0-.8-.18-.8-.4 0-.22-.439-.4-.976-.4-.537 0-1.088-.18-1.224-.4-.136-.22-.515-.4-.843-.4-.328 0-1.341-.36-2.251-.8-.911-.44-1.895-.8-2.187-.8-.291 0-.842-.163-1.224-.363-1.142-.597-4.917-1.637-5.941-1.637-.525 0-.954-.18-.954-.4 0-.22-.63-.4-1.4-.4-.77 0-1.4-.18-1.4-.4 0-.22-.529-.4-1.176-.4-.647 0-1.288-.18-1.424-.4-.136-.22-.867-.4-1.624-.4-.757 0-1.376-.18-1.376-.4 0-.22-.72-.4-1.6-.4-.88 0-1.6-.18-1.6-.4 0-.22-.709-.4-1.576-.4-.867 0-1.688-.18-1.824-.4-.136-.22-1.047-.4-2.024-.4-.977 0-1.776-.18-1.776-.4 0-.22-.9-.4-2-.4s-2-.18-2-.4c0-.222-1.059-.4-2.376-.4-1.307 0-2.488-.18-2.624-.4-.136-.22-1.482-.4-2.99-.4-1.609 0-2.803-.179-2.887-.432-.097-.291-4.237-.507-12.634-.662L200-.123v21.861M152.8 4.8c0 .22.36.4.8.4.44 0 .8-.18.8-.4 0-.22-.36-.4-.8-.4-.44 0-.8.18-.8.4m-.354 15.12c-1.404 4.334-2.781 8.6-3.059 9.48l-.506 1.6-9.74.102c-5.358.056-9.989.194-10.292.307-.476.177 3.565 3.442 7.566 6.113 3.996 2.668 7.985 5.877 7.985 6.425 0 .634-4.838 16.1-5.631 18.001-.591 1.416.186.991 6.329-3.462 11.457-8.305 9.223-7.944 16.502-2.665 9.081 6.585 9.788 7.047 9.911 6.482.061-.281-1.154-4.35-2.7-9.042-3.453-10.479-3.514-9.384.689-12.449 12.032-8.773 12.47-9.109 12.212-9.366-.135-.135-4.707-.246-10.16-.246h-9.915l-3.034-9.295c-1.668-5.112-3.161-9.423-3.318-9.58-.157-.157-1.434 3.261-2.839 7.595M91.2 31.15c0 .248-.32.45-.712.45-.391 0-.971.36-1.288.8-.317.44-.857.8-1.2.8-.343 0-.883.36-1.2.8-.317.44-.809.8-1.092.8-.283 0-1.08.54-1.771 1.2-.691.66-1.459 1.2-1.708 1.2-.249 0-.712.36-1.029.8-.317.44-.825.8-1.128.8-.303 0-1.055.54-1.672 1.2-.617.66-1.253 1.2-1.414 1.2-.16 0-.628.388-1.039.861-.411.474-.747.736-.747.582 0-.154-.444.165-.987.708-.543.543-1.353 1.103-1.8 1.245-.63.2-.813.601-.813 1.786 0 1.36-3.037 11.704-4.069 13.858-1.348 2.814-.256 2.73 3.897-.301 2.215-1.616 5.156-3.749 6.536-4.739 1.379-.99 2.885-2.12 3.346-2.511 2.086-1.77 1.764-1.931 13.629 6.822 5.744 4.239 5.567 4.274 3.911-.78-.671-2.052-2.038-6.224-3.036-9.271-.998-3.047-1.814-5.612-1.814-5.7 0-.161 6.641-5.11 12.746-9.499 1.79-1.286 3.254-2.501 3.254-2.7 0-.203-3.57-.361-8.15-.361-4.482 0-8.712-.112-9.4-.25-.807-.161-1.25-.091-1.25.2m63.206 40.938c-1.933 6.243-5.42 16.595-5.731 17.012-.281.376-2.789.5-10.124.5-5.363 0-9.751.137-9.751.305 0 .287 5.791 4.64 12.1 9.095 4.316 3.047 4.327 1.287-.098 15-2.643 8.188-2.733 7.976 1.928 4.53 3.093-2.287 4.911-3.617 9.658-7.068 3.182-2.313 2.062-2.75 12.163 4.75 5.737 4.259 7.049 5.084 7.049 4.427 0-.588-2.563-8.868-3.232-10.439-.187-.44-.718-2.06-1.18-3.6-.462-1.54-1.002-3.199-1.2-3.688-.384-.948.057-1.362 6.212-5.821 7.44-5.391 9.4-6.887 9.4-7.173 0-.175-4.388-.318-9.751-.318-11.073 0-10.178.298-11.402-3.8-1.651-5.524-4.786-14.699-5.145-15.058-.221-.221-.575.31-.896 1.346m-72.36 1.814c-.525 1.704-1.882 5.888-3.016 9.298l-2.062 6.2-9.884.107c-5.436.059-9.884.267-9.884.462 0 .325 2.253 2.026 11.351 8.567 1.787 1.285 3.503 2.58 3.812 2.878.601.577.247 1.899-3.608 13.445-2.269 6.8-2.206 6.951 1.705 4.072 1.397-1.028 3.44-2.527 4.54-3.33 1.1-.804 3.403-2.499 5.118-3.767 1.715-1.268 3.335-2.211 3.6-2.095.265.116 1.742 1.126 3.282 2.244 10.731 7.795 12.797 9.21 12.92 8.851.065-.193-.717-2.845-1.739-5.893-1.023-3.047-2.381-7.226-3.018-9.285l-1.16-3.744 1.082-.856c.595-.471 4.15-3.076 7.899-5.79 3.749-2.714 6.876-5.099 6.949-5.3.079-.215-3.981-.366-9.851-.366h-9.985l-.427-1.1c-.602-1.546-3.413-10.114-4.496-13.7-1.505-4.981-1.841-5.077-3.128-.898M31.97 89.9c-.31.605-.881 1.391-1.267 1.747-.387.356-.703.773-.703.928 0 .154-.54 1.066-1.2 2.025-1.472 2.14-.861 3.326.917 1.78.266-.231 2.238-1.687 4.383-3.234 4.518-3.26 4.657-3.546 1.724-3.546-1.197 0-2.288-.18-2.424-.4-.411-.665-.836-.457-1.43.7m338.646 5.274c-.185.299-25.614.426-85.44.426H200v52h97c60.344 0 97-.142 97-.376 0-.207-.18-.488-.4-.624-.22-.136-.4-.777-.4-1.424 0-.647-.18-1.176-.4-1.176-.22 0-.4-.63-.4-1.4 0-.77-.159-1.4-.354-1.4-.195 0-.477-.987-.628-2.194-.151-1.206-.441-2.297-.646-2.423-.205-.127-.372-.634-.372-1.127s-.143-1.067-.318-1.276c-.175-.209-.547-1.1-.827-1.98-.279-.88-.676-2.005-.881-2.5-.206-.495-.575-1.395-.821-2-.245-.605-.605-1.413-.8-1.795-.194-.382-.353-.967-.353-1.3 0-.333-.18-.605-.4-.605-.22 0-.4-.439-.4-.976 0-.537-.18-1.088-.4-1.224-.22-.136-.4-.597-.4-1.024 0-.427-.18-.776-.4-.776-.22 0-.4-.36-.4-.8 0-.44-.18-.8-.4-.8-.22 0-.4-.36-.4-.8 0-.44-.18-.8-.4-.8-.22 0-.399-.315-.397-.7.004-.775-3.217-7.422-3.699-7.633-.167-.074-.304-.479-.304-.9 0-.422-.18-.767-.4-.767-.22 0-.4-.36-.4-.8 0-.44-.18-.8-.4-.8-.22 0-.4-.236-.4-.525 0-.288-.331-.879-.735-1.313-.404-.434-.866-1.312-1.026-1.951-.161-.639-.64-1.651-1.066-2.248-.425-.598-.773-1.284-.773-1.525 0-.241-.18-.438-.4-.438-.22 0-.4-.242-.4-.538 0-.793-1.461-2.011-1.784-1.488M22.4 106c0 .44-.18.8-.4.8-.22 0-.4.345-.4.767 0 .421-.135.826-.3.9-.44.195-2.1 3.511-2.1 4.194 0 .323-.18.475-.4.339-.226-.139-.4.185-.4.743 0 .545-.225 1.094-.5 1.22-.275.126-.094.129.403.005.694-.172 1.895.522 5.2 3.003 5.205 3.909 5.206 3.908 2.667-3.982-2.586-8.04-3.77-10.548-3.77-7.989m131.04 27.322c-.858 2.683-2.233 6.948-3.056 9.478l-1.497 4.6-10.011.2c-5.506.11-10.104.293-10.218.407-.194.195 1.393 1.4 11.582 8.793 2.398 1.74 4.14 3.285 4.147 3.679.01.507-4.169 13.939-5.805 18.659-.281.812 4.021-2.109 13.271-9.01 3.397-2.534 3.403-2.535 5.947-.616 7.96 6.005 13.8 9.999 13.8 9.439 0-.604-1.191-4.411-4.39-14.026-1.781-5.354-2.484-4.146 5.99-10.299 3.85-2.796 7.399-5.379 7.886-5.74 1.515-1.12.347-1.273-9.737-1.28l-9.652-.006-.421-1.1c-.231-.605-1.615-4.79-3.075-9.3-1.46-4.51-2.778-8.325-2.928-8.478-.15-.153-.975 1.917-1.833 4.6m-70.341-4.229c-.086.169-1.486 4.402-3.11 9.407l-2.954 9.1h-9.894c-5.441 0-9.993.16-10.114.356-.121.196 3.37 2.941 7.757 6.1s7.985 5.984 7.996 6.277c.011.294-.881 3.264-1.982 6.6-3.372 10.22-3.598 10.951-3.598 11.62 0 .955-.217 1.087 8.095-4.943 9.048-6.565 7.828-6.282 12.42-2.884 10.206 7.549 12.285 8.956 12.285 8.312 0-.223-2.516-8.082-5.042-15.746-.527-1.6-.958-2.988-.958-3.085 0-.169 7.64-5.814 11.499-8.496 2.816-1.958 4.501-3.361 4.501-3.748 0-.192-4.541-.397-10.091-.456l-10.09-.107-1.053-3.2c-.578-1.76-1.914-5.861-2.969-9.113-1.804-5.566-2.325-6.724-2.698-5.994m-71.711 1.129c-.136.428-.413 1.091-.617 1.473-.204.382-.371.969-.371 1.305 0 .336-.163.923-.363 1.305-.597 1.142-1.637 4.917-1.637 5.941 0 .525-.18.954-.4.954-.22 0-.4.619-.4 1.376 0 .757-.18 1.488-.4 1.624-.22.136-.4.676-.4 1.2 0 .524-.18 1.064-.4 1.2-.22.136-.4.867-.4 1.624 0 .757-.18 1.376-.4 1.376-.22 0-.4.72-.4 1.6 0 .88-.18 1.6-.4 1.6-.22 0-.4.709-.4 1.576 0 .867-.18 1.688-.4 1.824-.22.136-.4 1.047-.4 2.024 0 .977-.18 1.776-.4 1.776-.22 0-.4.9-.4 2s-.18 2-.4 2c-.221 0-.4 1.04-.4 2.32 0 1.276-.159 2.491-.354 2.7-.195.209-.438 1.82-.54 3.58-.103 1.76-.108 2.975-.013 2.7.096-.275.352-.5.57-.5.356 0 4.03-2.596 8.014-5.663 2.14-1.648 1.602-1.927 14.196 7.356 4.388 3.233 5.009 3.271 3.746.226-1.077-2.596-5.233-16.106-5.078-16.509.099-.257 2.492-2.153 5.319-4.212 2.827-2.06 6.352-4.634 7.833-5.721 1.481-1.087 2.595-2.134 2.476-2.327-.119-.192-4.679-.35-10.134-.35h-9.918l-2.103-6.5c-1.157-3.575-2.306-7.13-2.553-7.9-.797-2.484-1.781-3.898-2.073-2.978M395.6 156.776c0 .453.18.824.4.824.22 0 .4-.259.4-.576 0-.317-.18-.688-.4-.824-.22-.136-.4.123-.4.576m4.093 26.024c0 .77.082 1.085.183.7.1-.385.1-1.015 0-1.4-.101-.385-.183-.07-.183.7M.106 212.489c.155 8.397.371 12.537.662 12.634.253.084.432 1.278.432 2.887 0 1.508.18 2.854.4 2.99.22.136.4 1.317.4 2.624 0 1.317.178 2.376.4 2.376.22 0 .4.9.4 2s.18 2 .4 2c.22 0 .4.799.4 1.776s.18 1.888.4 2.024c.22.136.4.957.4 1.824 0 .867.18 1.576.4 1.576.22 0 .4.72.4 1.6 0 .88.18 1.6.4 1.6.22 0 .4.63.4 1.4 0 .77.18 1.4.4 1.4.22 0 .4-.181.4-.401 0-.268 64.338-.368 193.6-.3l193.6.101v-1.076c0-.592.18-1.188.4-1.324.22-.136.4-.867.4-1.624 0-.757.18-1.376.4-1.376.22 0 .4-.709.4-1.576 0-.867.18-1.688.4-1.824.22-.136.4-1.047.4-2.024 0-.977.18-1.776.4-1.776.22 0 .4-.889.4-1.976s.18-2.088.4-2.224c.22-.136.4-1.216.4-2.4s.18-2.264.4-2.4c.22-.136.4-1.482.4-2.99 0-1.609.179-2.803.432-2.887.291-.097.507-4.237.662-12.634l.229-12.489H-.123l.229 12.489m28.895 92.31c-.287.464.88 2.706 1.899 3.648.385.356.7.901.7 1.212 0 .31.36.824.8 1.141.44.317.8.857.8 1.2 0 .343.36.883.8 1.2.44.317.8.809.8 1.092 0 .283.54 1.08 1.2 1.771.66.691 1.2 1.459 1.2 1.708 0 .249.36.712.8 1.029.44.317.8.825.8 1.128 0 .303.496 1.028 1.101 1.612.606.583 1.634 1.78 2.286 2.66.651.88 1.416 1.838 1.699 2.129.282.29.514.683.514.873 0 .19.855 1.244 1.9 2.343 2.341 2.461 3.699 4.055 3.456 4.055-.101 0 1.667 1.806 3.93 4.013 4.933 4.812 3.885 3.764 8.601 8.594 2.152 2.203 4.543 4.451 5.313 4.994.77.544 2.17 1.756 3.111 2.694.94.938 1.877 1.705 2.081 1.705.205 0 .822.45 1.372 1 1.155 1.155 1.436 1.234 1.436.4 0-.532 14.089-.6 124.4-.6 82.667 0 124.4.134 124.4.4 0 .623.591.475 1.6-.4.507-.44 1.07-.8 1.251-.8.18 0 1.101-.765 2.046-1.7.944-.935 2.418-2.226 3.274-2.869.857-.643 3.193-2.841 5.193-4.883 2-2.042 3.816-3.895 4.036-4.118.22-.222 2.203-2.165 4.407-4.317 2.203-2.152 4.451-4.543 4.994-5.313.544-.77 1.756-2.17 2.694-3.111.938-.94 1.705-1.866 1.705-2.057 0-.191.518-.927 1.151-1.636 1.718-1.923 2.049-2.34 2.049-2.583 0-.121.54-.785 1.2-1.476.66-.691 1.2-1.459 1.2-1.708 0-.249.36-.712.8-1.029.44-.317.8-.78.8-1.029 0-.249.54-1.017 1.2-1.708.66-.691 1.2-1.488 1.2-1.771 0-.283.36-.775.8-1.092.44-.317.8-.897.8-1.288 0-.392.15-.712.332-.712.183 0 .587-.495.898-1.1.31-.605.881-1.391 1.267-1.747.387-.356.703-.864.703-1.128 0-.265.278-.76.618-1.1.34-.34.55-.822.467-1.071-.202-.604-341.711-.858-342.084-.255M144 392.8c0 .22.27.4.6.4.33 0 .6-.18.6-.4 0-.22-.27-.4-.6-.4-.33 0-.6.18-.6.4m9 2.4c.136.22.507.4.824.4.317 0 .576-.18.576-.4 0-.22-.371-.4-.824-.4-.453 0-.712.18-.576.4m7 1.6c0 .22.36.4.8.4.44 0 .8-.18.8-.4 0-.22-.36-.4-.8-.4-.44 0-.8.18-.8.4m78.6 0c-.136.22.023.4.353.4.33 0 .711-.18.847-.4.136-.22-.023-.4-.353-.4-.33 0-.711.18-.847.4m-69.6 1.6c.136.22.507.4.824.4.317 0 .576-.18.576-.4 0-.22-.371-.4-.824-.4-.453 0-.712.18-.576.4m60.6 0c0 .22.259.4.576.4.317 0 .688-.18.824-.4.136-.22-.123-.4-.576-.4-.453 0-.824.18-.824.4m-54.8.8c0 .22.36.4.8.4.44 0 .8-.18.8-.4 0-.22-.36-.4-.8-.4-.44 0-.8.18-.8.4" fill="#f3f3f3"/></g></svg>