<svg xmlns="http://www.w3.org/2000/svg" width="400" height="400"><g fill-rule="evenodd"><path d="M10.667 130.266c-.147.147-.267.677-.267 1.177s-.18 1.021-.4 1.157c-.22.136-.4.676-.4 1.2 0 .524-.167 1.056-.372 1.183-.205.126-.495 1.217-.646 2.423-.151 1.207-.433 2.194-.628 2.194s-.354.54-.354 1.2c0 .66-.18 1.2-.4 1.2-.22 0-.4.63-.4 1.4 0 .77-.18 1.4-.4 1.4-.22 0-.4.72-.4 1.6 0 .88-.18 1.6-.4 1.6-.22 0-.4.72-.4 1.6 0 .88-.18 1.6-.4 1.6-.22 0-.4.72-.4 1.6 0 .88-.18 1.6-.4 1.6-.22 0-.4.9-.4 2s-.18 2-.4 2c-.22 0-.4.799-.4 1.776s-.18 1.888-.4 2.024c-.22.136-.4 1.407-.4 2.824 0 1.451-.175 2.576-.4 2.576-.228 0-.4 1.189-.4 2.767 0 1.857-.164 2.821-.5 2.933-.732.244-.732 52.356 0 52.6.344.115.5 1.156.5 3.333 0 1.845.167 3.167.4 3.167.222 0 .4 1.067.4 2.4s.178 2.4.4 2.4c.22 0 .4.9.4 2s.18 2 .4 2c.22 0 .4.81.4 1.8s.18 1.8.4 1.8c.22 0 .4.9.4 2s.18 2 .4 2c.22 0 .4.72.4 1.6 0 .88.18 1.6.4 1.6.22 0 .4.72.4 1.6 0 .88.18 1.6.4 1.6.22 0 .4.54.4 1.2 0 .66.18 1.2.4 1.2.22 0 .4.63.4 1.4 0 .77.159 1.4.354 1.4.195 0 .477.987.628 2.194.151 1.206.441 2.297.646 2.423.205.127.372.634.372 1.127s.165 1.067.366 1.276c.202.209.427.83.5 1.38.111.831.303.966 1.134.8.55-.11 85.33-.2 188.4-.2 103.07 0 187.85.09 188.4.2.831.166 1.023.031 1.134-.8.073-.55.298-1.171.5-1.38.201-.209.366-.783.366-1.276s.167-1 .372-1.127c.205-.126.495-1.217.646-2.423.151-1.207.433-2.194.628-2.194s.354-.63.354-1.4c0-.77.18-1.4.4-1.4.22 0 .4-.54.4-1.2 0-.66.18-1.2.4-1.2.22 0 .4-.72.4-1.6 0-.88.18-1.6.4-1.6.22 0 .4-.709.4-1.576 0-.867.18-1.688.4-1.824.22-.136.4-1.047.4-2.024 0-.977.18-1.776.4-1.776.22 0 .4-.81.4-1.8s.18-1.8.4-1.8c.22 0 .4-.9.4-2s.18-2 .4-2c.222 0 .4-1.067.4-2.4s.178-2.4.4-2.4c.233 0 .4-1.322.4-3.167 0-2.177.156-3.218.5-3.333.393-.131.5-5.589.5-25.5s-.107-25.369-.5-25.5c-.344-.115-.5-1.156-.5-3.333 0-1.845-.167-3.167-.4-3.167-.222 0-.4-1.067-.4-2.4s-.178-2.4-.4-2.4c-.22 0-.4-.99-.4-2.2 0-1.21-.18-2.2-.4-2.2-.22 0-.4-.9-.4-2s-.18-2-.4-2c-.22 0-.4-.72-.4-1.6 0-.88-.18-1.6-.4-1.6-.22 0-.4-.72-.4-1.6 0-.88-.18-1.6-.4-1.6-.22 0-.4-.72-.4-1.6 0-.88-.18-1.6-.4-1.6-.22 0-.4-.619-.4-1.376 0-.757-.18-1.488-.4-1.624-.22-.136-.4-.867-.4-1.624 0-.757-.159-1.376-.354-1.376-.195 0-.477-.987-.628-2.194-.151-1.206-.441-2.297-.646-2.423-.205-.127-.372-.634-.372-1.127s-.165-1.067-.366-1.276c-.202-.209-.427-.83-.5-1.38l-.134-1-189.233-.1c-104.078-.056-189.353.019-189.5.166" fill="#fcdc44"/><path d="M177.1.276c-2.145.084-3.9.326-3.9.538 0 .216-1.413.386-3.2.386-1.867 0-3.2.167-3.2.4 0 .229-1.2.4-2.8.4-1.6 0-2.8.171-2.8.4 0 .22-.63.4-1.4.4-.77 0-1.4.18-1.4.4 0 .22-.9.4-2 .4s-2 .18-2 .4c0 .22-.72.4-1.6.4-.88 0-1.6.18-1.6.4 0 .22-.72.4-1.6.4-.88 0-1.6.18-1.6.4 0 .22-.72.4-1.6.4-.88 0-1.6.18-1.6.4 0 .22-.63.4-1.4.4-.77 0-1.4.18-1.4.4 0 .22-.54.4-1.2.4-.66 0-1.2.159-1.2.354 0 .195-.987.477-2.194.628-1.206.151-2.297.441-2.423.646-.127.205-.659.372-1.183.372s-1.064.18-1.2.4c-.136.22-.676.4-1.2.4-.524 0-1.064.18-1.2.4-.136.22-.597.4-1.024.4-.427 0-.776.18-.776.4 0 .22-.439.4-.976.4-.537 0-1.088.18-1.224.4-.136.22-.687.4-1.224.4-.537 0-.976.18-.976.4 0 .22-.36.4-.8.4-.44 0-.8.18-.8.4 0 .22-.36.4-.8.4-.44 0-.8.18-.8.4 0 .22-.36.4-.8.4-.44 0-.8.18-.8.4 0 .22-.54.4-1.2.4-.66 0-1.2.18-1.2.4 0 .22-.36.4-.8.4-.44 0-.8.18-.8.4 0 .22-.36.4-.8.4-.44 0-.8.18-.8.4 0 .22-.36.4-.8.4-.44 0-.8.18-.8.4 0 .22-.36.4-.8.4-.44 0-.8.18-.8.4 0 .22-.36.4-.8.4-.44 0-.8.18-.8.4 0 .22-.27.4-.6.4-.33 0-.6.18-.6.4 0 .22-.36.4-.8.4-.44 0-.8.18-.8.4 0 .22-.36.4-.8.4-.44 0-.8.18-.8.4 0 .22-.36.4-.8.4-.44 0-.8.18-.8.4 0 .22-.36.4-.8.4-.44 0-.8.135-.8.301 0 .165-1.08.81-2.4 1.434-1.32.623-2.4 1.298-2.4 1.499 0 .201-.36.366-.8.366-.44 0-.8.18-.8.4 0 .22-.242.4-.538.4-.296 0-.864.36-1.262.8-.398.44-.926.8-1.174.8-.247 0-.709.36-1.026.8-.317.44-.857.8-1.2.8-.343 0-.883.36-1.2.8-.317.44-.857.8-1.2.8-.343 0-.883.36-1.2.8-.317.44-.825.8-1.128.8-.303 0-1.055.54-1.672 1.2-.617.66-1.333 1.2-1.592 1.2-.259 0-1.162.72-2.008 1.6-.846.88-1.706 1.6-1.913 1.6-.206 0-1.043.63-1.86 1.4-.816.77-1.635 1.4-1.821 1.4-.185 0-1.433 1.08-2.774 2.4-1.34 1.32-2.621 2.4-2.846 2.4-.225 0-2.571 2.205-5.212 4.9-5.759 5.877-4.397 4.515-10.274 10.274-2.695 2.641-4.9 4.987-4.9 5.212 0 .225-1.08 1.506-2.4 2.846-1.32 1.341-2.4 2.603-2.4 2.805 0 .202-.81 1.166-1.8 2.142s-1.8 1.983-1.8 2.237c0 .255-.54.967-1.2 1.584-.66.617-1.2 1.337-1.2 1.6 0 .263-.54.983-1.2 1.6-.66.617-1.2 1.369-1.2 1.672 0 .303-.36.811-.8 1.128-.44.317-.8.857-.8 1.2 0 .343-.36.883-.8 1.2-.44.317-.8.825-.8 1.128 0 .303-.507 1.028-1.127 1.612-.62.583-1.384 1.645-1.698 2.36-.313.715-.685 1.3-.826 1.3-.14 0-.738.987-1.328 2.192-.59 1.206-1.241 2.297-1.447 2.424-.206.127-.374.581-.374 1.008 0 .427-.18.776-.4.776-.22 0-.4.36-.4.8 0 .44-.18.8-.4.8-.22 0-.4.36-.4.8 0 .44-.18.8-.4.8-.22 0-.4.36-.4.8 0 .44-.18.8-.4.8-.22 0-.4.32-.4.712 0 .391-.36.971-.8 1.288-.44.317-.8.897-.8 1.288 0 .392-.18.712-.4.712-.22 0-.4.45-.4 1s-.18 1-.4 1c-.22 0-.4.36-.4.8 0 .44-.18.8-.4.8-.22 0-.4.36-.4.8 0 .44-.18.8-.4.8-.22 0-.4.36-.4.8 0 .44-.18.8-.4.8-.22 0-.4.36-.4.8 0 .44-.18.8-.4.8-.22 0-.4.36-.4.8 0 .44-.18.8-.4.8-.22 0-.4.54-.4 1.2 0 .66-.18 1.2-.4 1.2-.22 0-.4.36-.4.8 0 .44-.18.8-.4.8-.22 0-.4.355-.4.788 0 .433-.36 1.429-.8 2.212-.44.783-.8 1.779-.8 2.212 0 .783 1.239.788 188.8.788 188.533 0 188.8-.001 188.8-.8 0-.44-.18-.8-.4-.8-.22 0-.4-.439-.4-.976 0-.537-.18-1.088-.4-1.224-.22-.136-.4-.687-.4-1.224 0-.537-.18-.976-.4-.976-.22 0-.4-.36-.4-.8 0-.44-.18-.8-.4-.8-.22 0-.4-.36-.4-.8 0-.44-.18-.8-.4-.8-.22 0-.4-.54-.4-1.2 0-.66-.18-1.2-.4-1.2-.22 0-.4-.36-.4-.8 0-.44-.18-.8-.4-.8-.22 0-.4-.36-.4-.8 0-.44-.18-.8-.4-.8-.22 0-.4-.36-.4-.8 0-.44-.18-.8-.4-.8-.22 0-.4-.36-.4-.8 0-.44-.18-.8-.4-.8-.22 0-.4-.36-.4-.8 0-.44-.18-.8-.4-.8-.22 0-.4-.27-.4-.6 0-.33-.18-.6-.4-.6-.22 0-.4-.36-.4-.8 0-.44-.18-.8-.4-.8-.22 0-.4-.36-.4-.8 0-.44-.18-.8-.4-.8-.22 0-.4-.32-.4-.712 0-.391-.36-.971-.8-1.288-.44-.317-.8-.897-.8-1.288 0-.392-.18-.712-.4-.712-.22 0-.4-.279-.4-.62 0-.627-1.101-3.012-1.561-3.38-.137-.11-.681-1.055-1.207-2.1-.527-1.045-1.109-1.9-1.295-1.9-.185 0-.337-.23-.337-.512 0-.281-.36-.771-.8-1.088-.44-.317-.8-.857-.8-1.2 0-.343-.36-.883-.8-1.2-.44-.317-.8-.857-.8-1.2 0-.343-.36-.883-.8-1.2-.44-.317-.8-.857-.8-1.2 0-.343-.36-.883-.8-1.2-.44-.317-.8-.821-.8-1.12 0-.298-.72-1.234-1.6-2.08-.88-.846-1.6-1.749-1.6-2.008 0-.259-.54-.975-1.2-1.592-.66-.617-1.2-1.313-1.2-1.547 0-.235-.63-1.056-1.4-1.826-.77-.77-1.4-1.571-1.4-1.779 0-.208-1.08-1.475-2.4-2.816-1.32-1.34-2.4-2.622-2.4-2.847 0-.226-2.025-2.391-4.5-4.811-5.371-5.253-4.081-3.963-9.874-9.874-2.641-2.695-4.982-4.9-5.201-4.9-.22 0-1.52-1.08-2.89-2.4-1.37-1.32-2.626-2.4-2.791-2.4-.165 0-.984-.629-1.822-1.398-.837-.769-1.675-1.399-1.862-1.4-.186-.001-.843-.542-1.46-1.202-.617-.66-1.337-1.2-1.6-1.2-.263 0-.983-.54-1.6-1.2-.617-.66-1.337-1.2-1.6-1.2-.263 0-.983-.54-1.6-1.2-.617-.66-1.369-1.2-1.672-1.2-.303 0-.811-.36-1.128-.8-.317-.44-.857-.8-1.2-.8-.343 0-.883-.36-1.2-.8-.317-.44-.773-.8-1.013-.8-.24 0-.785-.325-1.212-.722-.426-.398-1.36-.981-2.075-1.298-.715-.316-1.3-.678-1.3-.804s-1.08-.745-2.4-1.376c-1.32-.631-2.4-1.294-2.4-1.474 0-.179-.36-.326-.8-.326-.44 0-.8-.18-.8-.4 0-.22-.36-.4-.8-.4-.44 0-.8-.18-.8-.4 0-.22-.36-.4-.8-.4-.44 0-.8-.18-.8-.4 0-.22-.36-.4-.8-.4-.44 0-.8-.18-.8-.4 0-.22-.27-.4-.6-.4-.33 0-.6-.18-.6-.4 0-.22-.36-.4-.8-.4-.44 0-.8-.18-.8-.4 0-.22-.36-.4-.8-.4-.44 0-.8-.18-.8-.4 0-.22-.36-.4-.8-.4-.44 0-.8-.18-.8-.4 0-.22-.36-.4-.8-.4-.44 0-.8-.18-.8-.4 0-.22-.36-.4-.8-.4-.44 0-.8-.18-.8-.4 0-.22-.54-.4-1.2-.4-.66 0-1.2-.18-1.2-.4 0-.22-.36-.4-.8-.4-.44 0-.8-.18-.8-.4 0-.22-.36-.4-.8-.4-.44 0-.8-.18-.8-.4 0-.22-.36-.4-.8-.4-.44 0-.8-.18-.8-.4 0-.22-.439-.4-.976-.4-.537 0-1.088-.18-1.224-.4-.136-.22-.687-.4-1.224-.4-.537 0-.976-.18-.976-.4 0-.22-.272-.4-.605-.4-.333 0-.918-.163-1.3-.361-1.272-.662-7.336-2.439-8.323-2.439-.534 0-.972-.18-.972-.4 0-.22-.63-.4-1.4-.4-.77 0-1.4-.18-1.4-.4 0-.22-.54-.4-1.2-.4-.66 0-1.2-.18-1.2-.4 0-.22-.72-.4-1.6-.4-.88 0-1.6-.18-1.6-.4 0-.22-.72-.4-1.6-.4-.88 0-1.6-.18-1.6-.4 0-.22-.72-.4-1.6-.4-.88 0-1.6-.18-1.6-.4 0-.22-.9-.4-2-.4s-2-.18-2-.4c0-.22-.619-.4-1.376-.4-.757 0-1.488-.18-1.624-.4-.136-.22-1.407-.4-2.824-.4-1.451 0-2.576-.175-2.576-.4 0-.237-1.456-.4-3.567-.4-2.481 0-3.617-.151-3.732-.496-.162-.488-38.66-.826-48.801-.428m-165 269.206c-1.152.222-1.19 1.577-.1 3.518.44.783.8 1.779.8 2.212 0 .433.18.788.4.788.22 0 .4.36.4.8 0 .44.18.8.4.8.22 0 .4.36.4.8 0 .44.18.8.4.8.22 0 .4.54.4 1.2 0 .66.18 1.2.4 1.2.22 0 .4.36.4.8 0 .44.18.8.4.8.22 0 .4.36.4.8 0 .44.18.8.4.8.22 0 .4.36.4.8 0 .44.18.8.4.8.22 0 .4.36.4.8 0 .44.18.8.4.8.22 0 .4.36.4.8 0 .44.18.8.4.8.22 0 .4.36.4.8 0 .44.18.8.4.8.22 0 .4.27.4.6 0 .33.18.6.4.6.22 0 .4.36.4.8 0 .44.18.8.4.8.22 0 .4.36.4.8 0 .44.18.8.4.8.22 0 .4.32.4.712 0 .391.36.971.8 1.288.44.317.8.813.8 1.102 0 .889 3.414 6.997 4.042 7.231.197.074.358.361.358.638 0 .278.36.831.8 1.229.44.398.8.926.8 1.174 0 .247.36.709.8 1.026.44.317.8.857.8 1.2 0 .343.36.883.8 1.2.44.317.8.857.8 1.2 0 .343.36.883.8 1.2.44.317.8.825.8 1.128 0 .303.54 1.055 1.2 1.672.66.617 1.2 1.337 1.2 1.6 0 .263.54.983 1.2 1.6.66.617 1.201 1.274 1.202 1.46.001.187.631 1.025 1.4 1.862.769.838 1.398 1.657 1.398 1.822 0 .165 1.08 1.421 2.4 2.791 1.32 1.37 2.4 2.67 2.4 2.89 0 .219 2.205 2.56 4.9 5.201 5.877 5.759 4.515 4.397 10.274 10.274 2.641 2.695 4.987 4.9 5.212 4.9.225 0 1.506 1.08 2.846 2.4 1.341 1.32 2.577 2.4 2.747 2.4.17 0 .977.63 1.794 1.4.816.77 1.669 1.4 1.895 1.4.226 0 .915.54 1.532 1.2.617.66 1.337 1.2 1.6 1.2.263 0 .983.54 1.6 1.2.617.66 1.337 1.2 1.6 1.2.263 0 .983.54 1.6 1.2.617.66 1.369 1.2 1.672 1.2.303 0 .811.36 1.128.8.317.44.831.8 1.141.8.311 0 .856.316 1.212.703.356.386 1.187.971 1.847 1.3.66.328 1.549.912 1.975 1.297.427.385 1.012.7 1.3.7.289 0 .525.142.525.316 0 .397 4.077 2.484 4.852 2.484.314 0 .831.36 1.148.8.317.44.897.8 1.288.8.392 0 .712.18.712.4 0 .22.36.4.8.4.44 0 .8.18.8.4 0 .22.36.4.8.4.44 0 .8.18.8.4 0 .22.27.4.6.4.33 0 .6.18.6.4 0 .22.36.4.8.4.44 0 .8.18.8.4 0 .22.36.4.8.4.44 0 .8.18.8.4 0 .22.36.4.8.4.44 0 .8.18.8.4 0 .22.36.4.8.4.44 0 .8.18.8.4 0 .22.36.4.8.4.44 0 .8.18.8.4 0 .22.36.4.8.4.44 0 .8.18.8.4 0 .22.36.4.8.4.44 0 .8.18.8.4 0 .22.54.4 1.2.4.66 0 1.2.18 1.2.4 0 .22.36.4.8.4.44 0 .8.18.8.4 0 .22.439.4.976.4.537 0 1.088.18 1.224.4.136.22.687.4 1.224.4.537 0 .976.18.976.4 0 .22.349.4.776.4.427 0 .888.18 1.024.4.136.22.676.4 1.2.4.524 0 1.064.18 1.2.4.136.22.676.4 1.2.4.524 0 1.056.167 1.183.372.126.205 1.217.495 2.423.646 1.207.151 2.194.433 2.194.628s.54.354 1.2.354c.66 0 1.2.18 1.2.4 0 .22.63.4 1.4.4.77 0 1.4.18 1.4.4 0 .22.72.4 1.6.4.88 0 1.6.18 1.6.4 0 .22.72.4 1.6.4.88 0 1.6.18 1.6.4 0 .22.72.4 1.6.4.88 0 1.6.18 1.6.4 0 .22.9.4 2 .4s2 .18 2 .4c0 .226 1.133.4 2.6.4s2.6.174 2.6.4c0 .22.9.4 2 .4s2 .18 2 .4c0 .233 1.322.4 3.167.4 2.177 0 3.218.156 3.333.5.131.393 5.669.5 25.9.5 20.231 0 25.769-.107 25.9-.5.115-.344 1.156-.5 3.333-.5 1.845 0 3.167-.167 3.167-.4 0-.22.9-.4 2-.4s2-.18 2-.4c0-.226 1.133-.4 2.6-.4s2.6-.174 2.6-.4c0-.22.72-.4 1.6-.4.88 0 1.6-.18 1.6-.4 0-.22.9-.4 2-.4s2-.18 2-.4c0-.22.72-.4 1.6-.4.88 0 1.6-.18 1.6-.4 0-.22.72-.4 1.6-.4.88 0 1.6-.18 1.6-.4 0-.22.54-.4 1.2-.4.66 0 1.2-.18 1.2-.4 0-.22.63-.4 1.4-.4.77 0 1.4-.159 1.4-.354 0-.195.987-.477 2.194-.628 1.206-.151 2.297-.441 2.423-.646.127-.205.659-.372 1.183-.372s1.064-.18 1.2-.4c.136-.22.676-.4 1.2-.4.524 0 1.064-.18 1.2-.4.136-.22.597-.4 1.024-.4.427 0 .776-.18.776-.4 0-.22.439-.4.976-.4.537 0 1.088-.18 1.224-.4.136-.22.687-.4 1.224-.4.537 0 .976-.18.976-.4 0-.22.36-.4.8-.4.44 0 .8-.18.8-.4 0-.22.36-.4.8-.4.44 0 .8-.18.8-.4 0-.22.54-.4 1.2-.4.66 0 1.2-.18 1.2-.4 0-.22.36-.4.8-.4.44 0 .8-.18.8-.4 0-.22.36-.4.8-.4.44 0 .8-.18.8-.4 0-.22.36-.4.8-.4.44 0 .8-.18.8-.4 0-.22.36-.4.8-.4.44 0 .8-.18.8-.4 0-.22.36-.4.8-.4.44 0 .8-.18.8-.4 0-.22.36-.4.8-.4.44 0 .8-.18.8-.4 0-.22.27-.4.6-.4.33 0 .6-.18.6-.4 0-.22.36-.4.8-.4.44 0 .8-.18.8-.4 0-.22.32-.4.712-.4.391 0 .971-.36 1.288-.8.317-.44.897-.8 1.288-.8.392 0 .712-.18.712-.4 0-.22.279-.4.62-.4.627 0 3.012-1.101 3.38-1.561.11-.137 1.055-.681 2.1-1.207 1.045-.527 1.9-1.109 1.9-1.295 0-.185.236-.337.525-.337.288 0 .911-.36 1.383-.8.472-.44 1.006-.8 1.187-.8.181 0 .588-.36.905-.8.317-.44.857-.8 1.2-.8.343 0 .883-.36 1.2-.8.317-.44.857-.8 1.2-.8.343 0 .883-.36 1.2-.8.317-.44.825-.8 1.128-.8.303 0 1.055-.54 1.672-1.2.617-.66 1.337-1.2 1.6-1.2.263 0 .983-.54 1.6-1.2.617-.66 1.306-1.2 1.532-1.2.226 0 1.079-.63 1.895-1.4.817-.77 1.605-1.4 1.751-1.4.146 0 1.387-1.08 2.757-2.4 1.37-1.32 2.67-2.4 2.89-2.4.219 0 2.56-2.205 5.201-4.9 5.793-5.911 4.503-4.621 9.874-9.874 2.475-2.42 4.5-4.598 4.5-4.839 0-.242.9-1.316 2-2.387s2-2.146 2-2.389c0-.242.81-1.228 1.8-2.19s1.8-1.963 1.8-2.225c0-.261.54-.979 1.2-1.596.66-.617 1.2-1.337 1.2-1.6 0-.263.54-.983 1.2-1.6.66-.617 1.2-1.369 1.2-1.672 0-.303.36-.811.8-1.128.44-.317.8-.857.8-1.2 0-.343.36-.883.8-1.2.44-.317.8-.825.8-1.128 0-.303.54-1.055 1.2-1.672.66-.617 1.2-1.285 1.2-1.485 0-.2.325-.713.722-1.14.398-.426.981-1.36 1.298-2.075.316-.715.683-1.3.815-1.3.131 0 .671-.855 1.2-1.9.528-1.045 1.186-2.138 1.463-2.429.276-.29.502-.875.502-1.3 0-.424.18-.771.4-.771.22 0 .4-.32.4-.712 0-.391.36-.971.8-1.288.44-.317.8-.897.8-1.288 0-.392.18-.712.4-.712.22 0 .4-.36.4-.8 0-.44.146-.8.325-.8.179 0 .573-.63.875-1.4.302-.77.696-1.4.875-1.4.179 0 .325-.36.325-.8 0-.44.18-.8.4-.8.22 0 .4-.36.4-.8 0-.44.18-.8.4-.8.22 0 .4-.36.4-.8 0-.44.18-.8.4-.8.22 0 .4-.36.4-.8 0-.44.18-.8.4-.8.22 0 .4-.54.4-1.2 0-.66.18-1.2.4-1.2.22 0 .4-.36.4-.8 0-.44.18-.8.4-.8.22 0 .4-.36.4-.8 0-.44.18-.8.4-.8.22 0 .4-.36.4-.8 0-.44.18-.8.4-.8.22 0 .4-.439.4-.976 0-.537.18-1.088.4-1.224.22-.136.4-.687.4-1.224 0-.537.18-.976.4-.976 1.109 0 .354-1.909-.85-2.15-1.383-.277-374.012-.245-375.45.032" fill="#dc0424"/></g></svg>