<svg xmlns="http://www.w3.org/2000/svg" width="400" height="400"><g fill-rule="evenodd"><path d="M287.9 19.984c-1.16 1.132-1.08 359.113.08 360.106.734.629.794.621 1.036-.14.153-.482.484-.721.82-.591.328.125.564-.03.564-.372 0-.323.36-.587.8-.587.44 0 .8-.18.8-.4 0-.22.27-.4.6-.4.33 0 .6-.18.6-.4 0-.22.36-.4.8-.4.44 0 .8-.18.8-.4 0-.22.281-.4.624-.4.369 0 .507.188.338.462-.177.286-.11.353.176.176.254-.157.462-.545.462-.862 0-.317.315-.589.7-.606 1.535-.065 2.64-.415 3.706-1.174.615-.438 1.36-.799 1.656-.802.409-.005.395-.099-.062-.394-.513-.331-.498-.389.1-.394.385-.003.7-.186.7-.406 0-.22.405-.404.9-.409.495-.005 1.35-.361 1.9-.791.55-.43 1.225-.786 1.5-.791.275-.005.5-.369.5-.809 0-.533.267-.8.8-.8.44 0 .8-.18.8-.4 0-.22.288-.4.64-.4.351 0 1.143-.54 1.76-1.2.617-.66 1.369-1.2 1.672-1.2.303 0 .811-.36 1.128-.8.317-.44.993-.8 1.501-.8.512 0 1.042-.312 1.189-.7.379-1.001 1.153-1.7 1.881-1.7.346 0 .632-.225.635-.5.004-.338.142-.306.426.1.329.47.365.405.167-.3-.215-.765-.099-.9.774-.9.565 0 1.027-.141 1.027-.312 0-.172.562-.525 1.249-.784.816-.308 1.173-.668 1.031-1.039-.294-.767.475-1.465 1.613-1.465.52 0 1.049-.309 1.197-.7.394-1.039 1.16-1.699 1.981-1.706.617-.005.637-.066.129-.394-.485-.314-.428-.389.3-.394.495-.003.9-.174.9-.379 0-.205.339-.481.752-.612 1.009-.32 2.448-1.597 2.448-2.172 0-.255.81-1.274 1.8-2.264.99-.99 1.8-1.603 1.8-1.363 0 .241.902-.489 2.004-1.62 1.103-1.132 1.902-2.224 1.777-2.427-.126-.203.04-.369.369-.369.328 0 1.521-.9 2.65-2s1.857-2 1.618-2c-.239 0 .555-.99 1.765-2.2 1.21-1.21 2.452-2.2 2.76-2.2.308 0 .784-.54 1.057-1.2.273-.66.655-1.2.849-1.2.193 0 .351-.278.351-.618 0-.711 1.472-2.294 2.501-2.689.384-.147.699-.644.699-1.104 0-.46.18-.725.4-.589.22.136.4-.033.4-.376 0-.343.264-.624.586-.624.633 0 1.25-.921 1.474-2.2.187-1.068.92-1.799 1.811-1.806.617-.005.637-.066.129-.394-.4-.258-.433-.39-.1-.394.275-.003.5-.289.5-.635 0-.728.699-1.502 1.7-1.881.413-.156.7-.681.7-1.277 0-.746.211-1.013.8-1.013.608 0 .8-.267.8-1.112 0-.653.33-1.349.8-1.688.44-.317.8-.82.8-1.117 0-.837 1.087-1.797 1.336-1.179.111.273.215.158.232-.257.018-.414.402-1.074.854-1.466.453-.393.852-1.103.888-1.58.036-.477.386-1.038.778-1.248.411-.22.715-.84.718-1.467.005-.848.091-.955.394-.486.331.513.389.498.394-.1.003-.385.186-.7.406-.7.22 0 .4-.197.4-.438s.372-.961.827-1.6c.519-.728.732-1.46.573-1.962-.146-.459-.072-.8.173-.8.235 0 .427-.36.427-.8 0-.44.18-.8.4-.8.22 0 .4-.36.4-.8 0-.44.18-.8.4-.8.22 0 .4-.36.4-.8 0-.44.18-.8.4-.8.22 0 .4-.36.4-.8 0-.44.18-.8.4-.8.22 0 .4-.27.4-.6 0-.33.225-.555.5-.5.309.062.452-.245.375-.8-.098-.703.077-.907.8-.932.509-.017.7-.122.425-.233-.844-.341-.554-1.333.4-1.367.495-.017.675-.122.4-.233-.594-.239-.676-1.335-.1-1.335.22 0 .4-.36.4-.8 0-.44.18-.8.4-.8.22 0 .4-.36.4-.8 0-.44.18-.8.4-.8.22 0 .4-.45.4-1s.18-1 .4-1c.22 0 .4-.45.4-1s.18-1 .4-1c.22 0 .4-.36.4-.8 0-.44.18-.8.4-.8.22 0 .4-.461.4-1.024 0-.58.173-.916.4-.776.231.142.4-.23.4-.88 0-.694.307-1.32.8-1.627.44-.275.8-.822.8-1.216 0-.395.225-.959.5-1.256.4-.431.4-.482 0-.256-.3.169-.5.05-.5-.299 0-.319.248-.675.551-.792.359-.138.478-.589.342-1.302-.145-.756-.069-1.004.249-.808.307.19.467-.153.486-1.04.024-1.125.083-1.203.393-.524.298.656.358.548.331-.6-.051-2.163.015-2.468.474-2.184.288.178.338-.202.155-1.177-.178-.951-.119-1.439.174-1.439.245 0 .445-.54.445-1.2 0-.66.18-1.2.4-1.2.22 0 .4-.72.4-1.6 0-.88.18-1.6.4-1.6.22 0 .4-.54.4-1.2 0-.66.18-1.2.4-1.2.22 0 .4-.72.4-1.6 0-.88.18-1.6.4-1.6.22 0 .4-.77.4-1.712 0-1.253.214-1.866.8-2.288.8-.576 1.156-1.467.4-1-.227.14-.4-.196-.4-.776 0-.563.18-1.024.4-1.024.22 0 .4-.9.4-2s.18-2 .4-2c.22 0 .4-.99.4-2.2 0-1.21.18-2.2.4-2.2.222 0 .4-1.067.4-2.4s.178-2.4.4-2.4c.234 0 .4-1.341.4-3.224 0-1.827.157-3.126.363-2.999.592.366.692-3.347.654-24.147-.028-15.222-.149-19.807-.527-19.933-.332-.111-.49-1.186-.49-3.33 0-1.845-.167-3.167-.4-3.167-.222 0-.4-1.067-.4-2.4s-.178-2.4-.4-2.4c-.22 0-.4-.99-.4-2.2 0-1.21-.18-2.2-.4-2.2-.22 0-.4-.9-.4-2s-.18-2-.4-2c-.58 0-.492-1.5.1-1.713.339-.122.21-.437-.4-.98-.659-.586-.9-1.244-.9-2.454 0-.909-.18-1.653-.4-1.653-.22 0-.4-.731-.4-1.624 0-.98-.158-1.525-.4-1.376-.227.14-.4-.196-.4-.776 0-.563.225-1.036.5-1.051.275-.015.095-.222-.4-.461-.702-.339-.9-.773-.9-1.973 0-.847-.18-1.539-.4-1.539-.22 0-.4-.54-.4-1.2 0-.66-.177-1.2-.392-1.2-.227 0-.317-.802-.213-1.9.099-1.045.082-1.585-.037-1.2-.443 1.431-.936.635-.743-1.2.145-1.377.095-1.68-.18-1.1-.342.723-.381.695-.407-.3-.015-.605-.229-1.1-.475-1.1-.264 0-.366-.421-.249-1.032.125-.655-.004-1.108-.353-1.242-.303-.117-.551-.473-.551-.792 0-.32.193-.462.43-.316.236.146.192-.113-.097-.576-.289-.463-.662-.842-.829-.842-.167 0-.304-.36-.304-.8 0-.44-.18-.8-.4-.8-.22 0-.4-.45-.4-1s-.18-1-.4-1c-.22 0-.4-.45-.4-1s-.18-1-.4-1c-.22 0-.4-.36-.4-.8 0-.44-.18-.8-.4-.8-.22 0-.4-.54-.4-1.2 0-.66-.18-1.2-.4-1.2-.22 0-.4-.538-.4-1.197 0-.763-.29-1.377-.8-1.696-.44-.275-.8-.647-.8-.827 0-.18.18-.216.4-.08.22.136.4.04.4-.214 0-.253-.36-.555-.8-.67-.889-.233-1.076-1.138-.3-1.451.275-.111.095-.216-.4-.233-.933-.033-1.307-1.21-.4-1.259.275-.015.095-.222-.4-.461-.495-.239-.9-.677-.9-.973 0-.297-.18-.539-.4-.539-.22 0-.4-.27-.4-.6 0-.33-.18-.6-.4-.6-.22 0-.4-.36-.4-.8 0-.44-.18-.8-.4-.8-.22 0-.4-.36-.4-.8 0-.44-.18-.8-.4-.8-.22 0-.4-.281-.4-.624 0-.343.18-.512.4-.376.22.136.4.057.4-.176 0-.233-.36-.424-.8-.424-.533 0-.8-.267-.8-.8 0-.44-.192-.8-.427-.8-.253 0-.317-.346-.157-.85.175-.552.121-.758-.153-.589-.508.314-1.263-.975-1.263-2.158 0-.468-.18-.739-.4-.603-.22.136-.4-.134-.4-.6 0-.466-.164-.746-.365-.621-.201.124-.605-.315-.898-.977-.293-.661-.668-1.202-.835-1.202-.166 0-.302-.32-.302-.712 0-.391-.36-.971-.8-1.288-.44-.317-.8-.857-.8-1.2 0-.343-.36-.883-.8-1.2-.44-.317-.8-.857-.8-1.2 0-.343-.36-.883-.8-1.2-.47-.339-.8-1.035-.8-1.688 0-.845-.192-1.112-.8-1.112-.589 0-.8-.267-.8-1.013 0-.596-.287-1.121-.7-1.277-.878-.333-1.7-1.13-1.7-1.648 0-.217-.225-.487-.5-.598-.378-.153-.353-.318.1-.671.507-.396.484-.431-.151-.224-.893.291-1.818-.75-1.836-2.069-.008-.528-.261-.9-.613-.9-.33 0-.6-.281-.6-.624 0-.343-.18-.512-.4-.376-.22.136-.4-.123-.4-.576 0-.453-.18-.824-.4-.824-.22 0-.4-.3-.4-.667 0-.366-.109-.557-.242-.424-.378.378-2.157-1.588-2.164-2.391-.005-.61-.065-.628-.394-.118-.314.485-.389.428-.394-.3-.003-.495-.143-.9-.311-.9s-.49-.405-.715-.9c-.225-.495-.628-.855-.895-.8-.267.055-.464-.035-.438-.2.131-.824-.082-1.467-.353-1.071-.182.265-1.099-.385-2.402-1.7-1.159-1.171-1.904-2.129-1.654-2.129.249 0-.513-.89-1.693-1.978-1.18-1.088-2.277-2.123-2.438-2.3-2.554-2.8-4.34-4.522-4.69-4.522-.574 0-4.824-4.26-4.536-4.547.122-.123-.251-.439-.829-.702-.579-.264-1.052-.631-1.052-.815 0-.185-.278-.336-.618-.336-.711 0-2.294-1.472-2.689-2.501-.147-.384-.544-.699-.88-.699-.337 0-.613-.199-.613-.443 0-.243-.28-.335-.621-.204-.415.159-.847-.159-1.3-.955-.374-.656-.904-1.194-1.179-1.195-.275-.002-.503-.228-.506-.503-.004-.333-.136-.3-.394.1-.308.476-.39.393-.4-.4-.01-.793-.092-.876-.4-.4-.308.476-.39.393-.4-.4-.01-.793-.092-.876-.4-.4-.258.4-.39.433-.394.1-.003-.275-.289-.5-.635-.5-.808 0-1.771-.963-1.771-1.771 0-.432-.376-.629-1.2-.629-.976 0-1.201-.168-1.206-.9-.005-.728-.08-.785-.394-.3-.258.4-.39.433-.394.1-.003-.275-.294-.5-.646-.5-.351 0-1.143-.54-1.76-1.2-.617-.66-1.409-1.2-1.76-1.2-.352 0-.64-.18-.64-.4 0-.22-.3-.4-.667-.4-.366 0-.555-.111-.419-.248.295-.294-.685-1.352-1.252-1.352-.217 0-.486-.225-.597-.5-.161-.4-.208-.4-.233 0-.018.275-.212.5-.432.5s-.379-.135-.353-.3c.129-.813-.102-1.3-.614-1.3-.311 0-.626-.178-.7-.397-.073-.218-.628-.437-1.233-.487-.612-.05-1.1-.33-1.1-.63 0-.358-.27-.454-.8-.286-.551.175-.8.072-.8-.33 0-.699-.964-1.135-1.8-.815-.33.127-.6.031-.6-.212 0-.244-.36-.443-.8-.443-.44 0-.8-.18-.8-.4 0-.22-.36-.4-.8-.4-.44 0-.8-.18-.8-.4 0-.22-.36-.4-.8-.4-.44 0-.8-.18-.8-.4 0-.22-.281-.4-.624-.4-.343 0-.512-.18-.376-.4.14-.227-.196-.4-.776-.4-.634 0-1.024-.224-1.024-.587 0-.325-.238-.496-.532-.384-.292.112-.697-.141-.9-.562-.347-.724-.407-.728-1.068-.083" fill="#dc0424"/><path d="M110.8 20.373c0 .235-.36.427-.8.427-.44 0-.8.18-.8.4 0 .22-.36.4-.8.4-.44 0-.8.18-.8.4 0 .22-.467.4-1.037.4-.715 0-1.106.259-1.256.832-.15.574-.449.772-.962.638-.466-.122-.745.016-.745.367 0 .31-.36.563-.8.563-.44 0-.8.199-.8.443 0 .243-.277.336-.615.207-.344-.132-.712.014-.833.331-.12.313-.479.469-.797.346-.318-.122-.889.115-1.267.526-.378.411-1.138.809-1.688.885-.55.076-1.06.301-1.133.5-.074.199-.389.362-.7.362-.312 0-.567.18-.567.4 0 .22-.281.4-.624.4-.343 0-.512.18-.376.4.136.22-.084.4-.488.4-.405 0-.995.36-1.312.8-.317.44-.907.8-1.312.8-.404 0-.624.18-.488.4.136.22.006.4-.288.4-.295 0-.795.36-1.112.8-.317.44-.897.8-1.288.8-.392 0-.712.18-.712.4 0 .22-.32.4-.712.4-.391 0-.971.36-1.288.8-.317.44-.807.8-1.088.8-.282 0-.512.18-.512.4 0 .22-.23.4-.512.4-.281 0-.771.36-1.088.8-.317.44-.897.8-1.288.8-.452 0-.712.301-.712.824 0 .453-.165.721-.368.596-.202-.125-.639.044-.971.376-.332.332-.715.604-.851.604-.135 0-.686.405-1.224.9-2.028 1.868-2.843 2.503-3.353 2.615-.289.064-1.187.784-1.996 1.6-.808.817-1.823 1.693-2.253 1.948-.431.254-.739.659-.684.9.055.24-.035.416-.2.39-.835-.132-1.3.11-1.3.676 0 .844-.974 1.77-1.871 1.777-.617.005-.637.066-.129.394.507.328.487.389-.131.394-.676.006-1.631.871-4.912 4.45-.683.746-1.984 1.986-2.891 2.756-.906.77-1.652 1.636-1.657 1.924-.005.288-.144.448-.309.356-.286-.159-3.209 2.578-3 2.809.381.422-.047.912-.8.917-.728.005-.785.08-.3.394.514.332.501.389-.091.394-.38.003-1.006.501-1.393 1.106-.386.605-1.2 1.577-1.809 2.16-.609.584-1.11 1.394-1.113 1.8-.005.624-.067.646-.394.14s-.389-.484-.394.14c-.003.406-.565 1.261-1.248 1.9-.684.638-1.106 1.16-.939 1.16.167 0-.084.336-.558.747-.473.411-.861.874-.861 1.028 0 .155-.272.554-.604.886-.332.332-.501.769-.376.971.125.203-.143.368-.596.368-.557 0-.824.259-.824.8 0 .44-.18.8-.4.8-.22 0-.4.281-.4.624 0 .343-.18.512-.4.376-.22-.136-.4.033-.4.376 0 .343-.18.624-.4.624-.22 0-.4.23-.4.512 0 .281-.36.771-.8 1.088-.44.317-.8.897-.8 1.288 0 .392-.18.712-.4.712-.22 0-.4.288-.4.64 0 .351-.559 1.161-1.242 1.8-.684.638-1.025 1.16-.758 1.16.267 0-.074.522-.758 1.16-.7.655-1.245 1.571-1.248 2.1-.005.754-.083.821-.394.34-.341-.528-.388-.525-.394.025-.003.343-.366 1.011-.806 1.483-.903.969-1.049 1.481-.3 1.054.275-.157-.029.282-.675.976s-1.038 1.262-.871 1.262c.167 0-.004.307-.379.682-.444.444-.523.735-.226.834.268.09.085.479-.447.949-.496.438-.677.682-.402.542s.5-.079.5.136c0 .215-.166.45-.37.524-.203.073-.428.396-.5.717-.181.812-.87 1.569-1.23 1.35-.165-.099-.3.279-.3.842S23.02 106 22.8 106c-.22 0-.4.371-.4.824 0 .453-.18.712-.4.576-.227-.14-.4.196-.4.776 0 .563-.18 1.024-.4 1.024-.22 0-.4.371-.4.824 0 .453-.18.712-.4.576-.223-.138-.4.164-.4.68 0 .51-.36 1.152-.8 1.427-.44.275-.8.768-.8 1.096 0 .329-.225.6-.5.603-.333.004-.3.136.1.394s.433.39.1.394c-.275.003-.5.366-.5.806 0 .44-.18.8-.4.8-.22 0-.403.585-.406 1.3-.005.986-.1 1.155-.394.7-.294-.455-.389-.286-.394.7-.003.715-.186 1.3-.406 1.3-.22 0-.4.371-.4.824 0 .453-.18.712-.4.576-.238-.147-.4.329-.4 1.176 0 .783-.18 1.424-.4 1.424-.22 0-.403.405-.406.9-.005.728-.08.785-.394.3-.319-.494-.389-.454-.394.225-.003.454-.366 1.57-.806 2.481-.44.91-.8 2.013-.8 2.451 0 .438-.18.907-.4 1.043-.22.136-.4.794-.4 1.462 0 .668-.378 1.746-.841 2.395-.649.912-.78 1.505-.574 2.602.18.96.128 1.335-.159 1.157-.263-.163-.426.174-.426.88 0 .629-.179 1.323-.398 1.542-.218.218-.436.929-.483 1.58-.047.65-.256 1.3-.464 1.444-.208.144-.363.819-.344 1.5.02.681-.132 1.238-.338 1.238-.205 0-.373.36-.373.8 0 .44-.18.8-.4.8-.22 0-.4.191-.4.424 0 .233.18.312.4.176.22-.136.4-.067.4.153s-.18.511-.4.647c-.22.136-.4.957-.4 1.824 0 .867-.18 1.576-.4 1.576-.22 0-.4.349-.4.776 0 .427-.18.888-.4 1.024-.22.136-.4 1.417-.4 2.847 0 1.632-.149 2.508-.4 2.353-.25-.155-.4.67-.4 2.2 0 1.53-.15 2.355-.4 2.2-.25-.154-.4.663-.4 2.176 0 1.349-.177 2.424-.4 2.424-.234 0-.4 1.341-.4 3.224 0 1.854-.156 3.127-.367 2.996-.594-.366-.714 4.365-.664 26.149.036 15.898.158 20.607.539 20.734.335.111.492 1.183.492 3.354 0 2.025.146 3.1.4 2.943.25-.154.4.663.4 2.176 0 1.349.177 2.424.4 2.424.22 0 .4.9.4 2s.18 2 .4 2c.22 0 .4.9.4 2s.18 2 .4 2c.22 0 .4.191.4.424 0 .233-.18.312-.4.176-.22-.136-.4.033-.4.376 0 .343.18.624.4.624.22 0 .4.36.4.8 0 .44.18.8.4.8.22 0 .4.795.4 1.767 0 1.038.206 1.85.5 1.969.376.153.352.308-.1.627-.407.288-.439.427-.1.431.275.003.5.366.5.806 0 .44.168.8.373.8.206 0 .358.557.338 1.238-.019.681.136 1.356.344 1.5.208.144.417.794.464 1.444.047.651.265 1.362.483 1.58.219.219.398.801.398 1.294s.168 1.001.374 1.128c.205.127.271.861.146 1.631-.188 1.158-.119 1.36.397 1.161.469-.179.573-.043.419.547-.113.433-.01.908.229 1.055.239.148.435.899.435 1.669s.16 1.302.355 1.181c.195-.121.347.004.337.276-.047 1.288.143 1.921.508 1.696.242-.149.4.396.4 1.376 0 .893.18 1.624.4 1.624.22 0 .403.495.406 1.1.005.857.092.968.394.5.314-.485.389-.428.394.3.003.495.186.9.406.9.22 0 .4.641.4 1.424 0 .847.162 1.323.4 1.176.22-.136.4.123.4.576 0 .453.18.824.4.824.22 0 .4.36.4.8 0 .44.18.8.4.8.22 0 .4.54.4 1.2 0 .66.142 1.2.315 1.2.173 0 .345.402.382.894.037.492.255.957.485 1.033.23.077.418.405.418.73 0 .325.18.479.4.343.238-.147.4.329.4 1.176 0 .783.18 1.424.4 1.424.22 0 .4.27.4.6 0 .33.18.6.4.6.22 0 .4.281.4.624 0 .343.18.512.4.376.22-.136.4.123.4.576 0 .453.191.824.424.824.233 0 .321.165.196.368-.125.202.044.639.376.971.332.332.604.862.604 1.178 0 .317.36 1.033.8 1.592.44.56.8 1.197.8 1.416 0 .537 1.674 3.742 2.3 4.404.275.29.5.863.5 1.273 0 .409.36.858.8.998.511.162.8.605.8 1.227 0 .535.18.973.4.973.22 0 .4.23.4.512 0 .281.36.771.8 1.088.44.317.8.825.8 1.128 0 .303.54 1.055 1.2 1.672.66.617 1.2 1.409 1.2 1.76 0 .352.18.64.4.64.22 0 .4.32.4.712 0 .391.36.971.8 1.288.44.317.8.78.8 1.029 0 .249.507.983 1.126 1.631.62.648 1.244 1.485 1.388 1.859.143.375.547.681.897.681s.534.165.409.368c-.125.202.044.639.376.971.332.332.604.797.604 1.032 0 .236.18.429.4.429.22 0 .4.183.4.407 0 .224.63 1.019 1.4 1.767.77.747 1.414 1.689 1.432 2.093.019.448.112.532.238.216.264-.657 1.33.131 1.33.984 0 .313.45 1.019 1 1.569s1 1.153 1 1.34c0 .653 2.327 2.824 3.06 2.856.407.017.521.12.252.229-.421.171 1.07 1.754 6.783 7.202.498.475 1.895 1.952 3.105 3.284 1.21 1.332 2.438 2.428 2.729 2.437.655.02 1.671 1.002 1.671 1.616 0 .548.993 1.6 1.51 1.6.202 0 1.503 1.08 2.89 2.4 1.387 1.32 2.681 2.4 2.874 2.4.194 0 .983.63 1.753 1.4.77.77 1.598 1.4 1.839 1.4.242 0 .776.388 1.187.861.411.474.747.639.747.368 0-.272.706.24 1.569 1.138.862.898 1.762 1.633 2 1.633.237 0 .431.18.431.4 0 .22.23.4.512.4.281 0 .771.36 1.088.8.317.44.897.8 1.288.8.392 0 .712.18.712.4 0 .22.32.4.712.4.391 0 .971.36 1.288.8.317.44.897.8 1.288.8.392 0 .712.18.712.4 0 .22.278.4.618.4.728 0 2.644 1.805 2.291 2.158-.133.133.283.245.924.248.901.005 1.03.095.567.394-.519.335-.51.389.067.394.366.003.726.184.8.403.073.218.615.436 1.205.484.589.049 1.039.276 1 .504-.04.228.153.37.428.315.275-.055.5.088.5.318 0 .229.315.364.7.3.391-.066.656.103.6.382-.055.275.17.522.5.55.33.028.78.095 1 .15.22.055.76.123 1.2.15.517.032.8.333.8.85 0 .44.191.8.424.8.233 0 .312-.18.176-.4-.136-.22.033-.4.376-.4.343 0 .579.162.524.36-.055.198.049.366.23.374.182.007.653.385 1.047.84.394.454 1.191.826 1.77.826s1.053.18 1.053.4c0 .22.281.4.624.4.343 0 .505.192.36.427-.174.281.261.383 1.276.3l1.54-.127V20.2l-1.1-.127c-.605-.069-1.1.066-1.1.3M148.182 196.4c.144 12.5.394 14.395 2.821 21.4 4.758 13.732 17.921 26.771 31.597 31.298 2.312.766 3.249 1.034 7.6 2.177 1.323.347 4.642.525 9.8.525s8.477-.178 9.8-.525c1.1-.289 2.72-.718 3.6-.954 18.077-4.839 32.203-18.968 36.913-36.921.23-.88.634-2.32.897-3.2.307-1.029.528-5.813.618-13.4.082-6.947 0-11.253-.2-10.469C249.761 193.646 241.86 200 234.63 200c-.065 0-.22.855-.344 1.9-.908 7.643-6.508 13.573-14.059 14.887-3.15.548-37.304.548-40.454 0-7.142-1.243-12.629-6.824-13.878-14.116l-.453-2.647-2.221-.435c-3.297-.645-6.105-1.701-7.15-2.689-.29-.275-.68-.5-.865-.5-1.483 0-6.147-7.071-6.86-10.4-.165-.77-.238 3.91-.164 10.4" fill="#81a33e"/><path d="M178.3.275c-1.925.086-3.5.329-3.5.541 0 .211-1.339.384-2.976.384s-3.088.18-3.224.4c-.136.22-1.137.4-2.224.4-1.087 0-1.976.18-1.976.4 0 .22-.99.4-2.2.4-1.21 0-2.2.18-2.2.4 0 .22-.799.4-1.776.4s-1.888.18-2.024.4c-.136.22-.957.4-1.824.4-.867 0-1.576.18-1.576.4 0 .22-.72.4-1.6.4-.88 0-1.6.18-1.6.4 0 .22-.529.4-1.176.4-.647 0-1.288.18-1.424.4-.136.22-.766.4-1.4.4-.634 0-1.264.18-1.4.4-.136.22-.867.4-1.624.4-.757 0-1.376.157-1.376.348 0 .192-.893.467-1.984.612-1.091.145-2.091.438-2.223.652-.132.213-.734.388-1.337.388s-1.267.143-1.476.318c-.209.175-1.1.547-1.98.827-1.674.531-3.122 1.105-4.295 1.702-.382.194-1.057.353-1.5.353-.443 0-.805.18-.805.4 0 .22-.36.4-.8.4-.44 0-.8.18-.8.4 0 .22-.439.4-.976.4-.537 0-1.088.18-1.224.4-.136.22-.597.4-1.024.4-.427 0-.776.18-.776.4 0 .22-.36.4-.8.4-.44 0-.8.18-.8.4 0 .22-.272.4-.605.4-.333 0-.918.16-1.3.356-.382.195-1.325.662-2.095 1.037l-1.4.681.097 181.263c.092 172.594.13 181.27.8 181.402.387.076.874.301 1.083.5.209.198.704.361 1.1.361.396 0 .72.18.72.4 0 .22.36.4.8.4.44 0 .8.18.8.4 0 .22.265.4.588.4.323 0 1.229.36 2.012.8.783.44 1.779.8 2.212.8.433 0 .788.141.788.313 0 .172.855.563 1.9.869 1.045.305 2.44.855 3.1 1.221.66.366 1.74.799 2.4.962.66.163 1.74.53 2.4.816 1.934.837 5.414 1.819 6.446 1.819.525 0 .954.18.954.4 0 .22.63.4 1.4.4.77 0 1.4.18 1.4.4 0 .22.529.4 1.176.4.647 0 1.288.18 1.424.4.136.22.967.4 1.847.4.965 0 1.502.159 1.353.4-.149.241.388.4 1.353.4.88 0 1.711.18 1.847.4.136.22.856.4 1.6.4.744 0 1.464.18 1.6.4.136.22 1.047.4 2.024.4.977 0 1.776.18 1.776.4 0 .22.99.4 2.2.4 1.21 0 2.2.18 2.2.4 0 .22.979.4 2.176.4s2.288.18 2.424.4c.136.22 1.482.4 2.99.4 1.839 0 2.798.165 2.91.5.244.732 49.956.732 50.2 0 .112-.335 1.071-.5 2.91-.5 1.508 0 2.854-.18 2.99-.4.136-.22 1.216-.4 2.4-.4s2.264-.18 2.4-.4c.136-.22 1.036-.4 2-.4s1.864-.18 2-.4c.136-.22.921-.4 1.744-.4s1.667-.17 1.876-.379c.209-.208 1.145-.423 2.08-.478.935-.055 1.7-.244 1.7-.421s.72-.322 1.6-.322c.88 0 1.6-.18 1.6-.4 0-.22.619-.4 1.376-.4.757 0 1.488-.18 1.624-.4.136-.22.777-.4 1.424-.4.647 0 1.176-.18 1.176-.4 0-.22.63-.4 1.4-.4.77 0 1.4-.159 1.4-.354 0-.195.987-.477 2.194-.628 1.206-.151 2.297-.441 2.423-.646.127-.205.659-.372 1.183-.372s1.064-.18 1.2-.4c.136-.22.599-.4 1.029-.4.43 0 1.094-.159 1.476-.353.382-.195 1.19-.555 1.795-.8.605-.246 1.595-.648 2.2-.894.605-.245 1.413-.605 1.795-.8.382-.194.952-.353 1.266-.353.315 0 .632-.178.706-.397.073-.218.628-.437 1.233-.487.605-.05 1.1-.231 1.1-.403 0-.172.36-.313.8-.313.44 0 .8-.18.8-.4 0-.22.36-.4.8-.4.44 0 .8-.18.8-.4 0-.22.272-.4.605-.4.588 0 1.013-.167 2.89-1.138.492-.254 1.122-.462 1.4-.462.406 0 .505-35.547.505-181.6s-.099-181.6-.505-181.6c-.493 0-.949-.186-2.79-1.138-.492-.254-1.167-.462-1.5-.462-.333 0-.605-.18-.605-.4 0-.22-.36-.4-.8-.4-.44 0-.8-.18-.8-.4 0-.22-.36-.4-.8-.4-.44 0-.8-.18-.8-.4 0-.22-.54-.4-1.2-.4-.66 0-1.2-.18-1.2-.4 0-.22-.36-.4-.8-.4-.44 0-.8-.18-.8-.4 0-.22-.439-.4-.976-.4-.537 0-1.088-.18-1.224-.4-.136-.22-.515-.4-.843-.4-.328 0-1.341-.36-2.251-.8-.911-.44-1.895-.8-2.187-.8-.291 0-.842-.163-1.224-.363-1.142-.597-4.917-1.637-5.941-1.637-.525 0-.954-.18-.954-.4 0-.22-.619-.4-1.376-.4-.757 0-1.488-.18-1.624-.4-.136-.22-.676-.4-1.2-.4-.524 0-1.064-.18-1.2-.4-.136-.22-.867-.4-1.624-.4-.757 0-1.376-.18-1.376-.4 0-.22-.72-.4-1.6-.4-.88 0-1.6-.18-1.6-.4 0-.22-.709-.4-1.576-.4-.867 0-1.688-.18-1.824-.4-.136-.22-1.047-.4-2.024-.4-.977 0-1.776-.18-1.776-.4 0-.22-.9-.4-2-.4s-2-.18-2-.4c0-.222-1.059-.4-2.376-.4-1.307 0-2.488-.18-2.624-.4-.136-.22-1.482-.4-2.99-.4-1.817 0-2.799-.166-2.907-.492-.162-.486-37.812-.834-46.803-.433m26.926 148.165c6.632 2.177 11.326 7.686 12.207 14.326l.27 2.034H269.6v1.906c0 7.057-6.717 14.267-14.8 15.885l-2.2.441-.239 11.584c-.222 10.726-.512 14.125-1.521 17.784-.212.77-.507 1.85-.654 2.4-4.344 16.18-19.206 31.042-35.386 35.386-.55.147-1.63.439-2.4.649-7.237 1.969-17.602 1.958-24.9-.027-.825-.224-2.085-.566-2.8-.758-15.378-4.142-30.625-19.421-34.776-34.85-1.797-6.675-1.964-8.201-2.253-20.546l-.271-11.546-2.924-.742c-7.971-2.023-14.462-9.296-13.998-15.684L130.6 165l25.9-.103c14.245-.057 25.901-.237 25.902-.4.087-11.1 12.125-19.57 22.824-16.057" fill="#f3f3f3"/><path d="M111.828 19.555c-.12.195.139.448.576.562.516.135.796.01.796-.354 0-.619-1.023-.774-1.372-.208M286.8 200c0 180.533.001 180.8.8 180.8.937 0 1.067-.612.2-.945-.914-.35-.914-359.36 0-359.71.867-.333.737-.945-.2-.945-.799 0-.8.267-.8 180.8m3.6-178.8c0 .22.27.4.6.4.33 0 .6-.18.6-.4 0-.22-.27-.4-.6-.4-.33 0-.6.18-.6.4m1.8.8c-.136.22.033.4.376.4.343 0 .624.18.624.4 0 .22.36.4.8.4.44 0 .8.18.8.4 0 .22.36.4.8.4.44 0 .8.18.8.4 0 .22.18.4.4.4.804 0 .37-.734-.7-1.184-1.878-.791-2.9-1.393-2.9-1.711 0-.442-.71-.375-1 .095M312 33.429c0 .424 1.236 1.468 1.467 1.238.125-.126-.05-.507-.391-.848-.635-.635-1.076-.795-1.076-.39m5.6 3.938c0 .421 1.205 1.561 1.421 1.345.101-.101-.177-.51-.619-.91-.441-.399-.802-.595-.802-.435m10 7.581c0 .491 2.034 2.351 2.291 2.094.133-.133.167-.287.076-.342-.092-.055-.662-.536-1.267-1.07-.605-.533-1.1-.84-1.1-.682m6.966 6.435c1.261 1.261 2.375 2.209 2.477 2.107.214-.213-3.658-4.012-4.325-4.244-.244-.085.587.877 1.848 2.137m-269.564-.185c-.399.441-.595.802-.435.802.421 0 1.561-1.205 1.345-1.421-.101-.101-.51.177-.91.619m281.606 12.24c.664.639 1.699 1.665 2.3 2.28.6.615 1.092.94 1.092.722 0-.448-3.412-3.754-4.131-4.002-.258-.089.074.361.739 1m6.992 7.51c0 .159.45.738 1 1.288s1 .844 1 .652c0-.192-.45-.771-1-1.288s-1-.81-1-.652m5.2 6.949c.001.604 2.012 2.624 2.302 2.313.164-.176.073-.4-.202-.498-.275-.098-.5-.39-.5-.649s-.36-.695-.8-.97c-.44-.275-.8-.363-.8-.196m2.4 3.07c0 .421 1.205 1.561 1.421 1.345.101-.101-.177-.51-.619-.91-.441-.399-.802-.595-.802-.435m4 5.658c0 .3 1.073 1.375 1.371 1.375.509 0 .18-.638-.571-1.107-.44-.275-.8-.395-.8-.268m1.6 2.404c0 .424 1.236 1.468 1.467 1.238.125-.126-.05-.507-.391-.848-.635-.635-1.076-.795-1.076-.39m1.6 2.4c0 .298 1.075 1.371 1.375 1.371.127 0 .007-.36-.268-.8-.469-.751-1.107-1.08-1.107-.571m1.613 2.271c-.007.385.123.7.289.7.167 0 .542.541.835 1.202.297.671.72 1.086.958.939.275-.17.191-.435-.234-.746-.364-.266-.661-.654-.661-.863 0-.795-1.173-2.012-1.187-1.232m3.233 5.124c-.025.342.218.972.541 1.4.532.702.589.709.6.076.007-.385-.154-.7-.358-.7s-.453-.315-.553-.7c-.142-.544-.194-.561-.23-.076m2.763 5.676c-.005.385.171.7.391.7s.4.36.4.8c0 .44.18.8.4.8.22 0 .4.36.4.8 0 .44.18.8.4.8.22 0 .4.27.4.6 0 .33.18.6.4.6.22 0 .4-.27.4-.6 0-.33-.18-.6-.4-.6-.22 0-.4-.36-.4-.8 0-.44-.18-.8-.4-.8-.22 0-.404-.225-.409-.5-.015-.863-1.572-2.633-1.582-1.8m3.991 7.7c0 .33.18.6.4.6.22 0 .4-.27.4-.6 0-.33-.18-.6-.4-.6-.22 0-.4.27-.4.6m.8 1.6c0 .33.18.6.4.6.22 0 .4-.27.4-.6 0-.33-.18-.6-.4-.6-.22 0-.4.27-.4.6m3.2 7c0 .44.18.8.4.8.22 0 .4.36.4.8 0 .44.18.8.4.8.515 0 .511-.036-.205-1.751-.68-1.627-.995-1.832-.995-.649m1.6 3.8c0 .33.18.6.4.6.22 0 .4-.27.4-.6 0-.33-.18-.6-.4-.6-.22 0-.4.27-.4.6m.8 1.776c0 .453.18.824.4.824.22 0 .4-.259.4-.576 0-.317-.18-.688-.4-.824-.22-.136-.4.123-.4.576m2.406 6.324c-.003.495.174.9.394.9.501 0 .501-.424 0-1.2-.314-.485-.389-.428-.394.3m1.406 4.217c-.171.395-.199.83-.061.967.406.406.733-.164.546-.953-.165-.698-.187-.699-.485-.014m.8 2.4c-.171.395-.199.83-.061.967.406.406.733-.164.546-.953-.165-.698-.187-.699-.485-.014M391.6 142c0 .44.18.8.4.8.22 0 .4-.36.4-.8 0-.44-.18-.8-.4-.8-.22 0-.4.36-.4.8m.8 2.976c0 .563.18 1.024.4 1.024.22 0 .4-.349.4-.776 0-.427-.18-.888-.4-1.024-.227-.14-.4.196-.4.776M6 147.4c0 .33.18.6.4.6.22 0 .4-.27.4-.6 0-.33-.18-.6-.4-.6-.22 0-.4.27-.4.6m387.2.424c0 .58.173.916.4.776.22-.136.4-.597.4-1.024 0-.427-.18-.776-.4-.776-.22 0-.4.461-.4 1.024m-198.561.631c-6.976 2.358-12.183 9.185-12.237 16.042-.001.163-11.657.343-25.902.4l-25.9.103-.122 1.682c-.464 6.388 6.026 13.661 13.998 15.684l2.924.742.21 10.746.21 10.746.136-10c.075-5.5.261-9.37.413-8.6.644 3.254 5.342 10.4 6.837 10.4.185 0 .575.225.865.5 1.045.988 3.853 2.044 7.15 2.689l2.221.435.453 2.647c1.249 7.292 6.736 12.873 13.878 14.116 3.15.548 37.304.548 40.454 0 7.551-1.314 13.151-7.244 14.059-14.887.124-1.045.279-1.9.344-1.9 7.231 0 15.271-6.475 16.973-13.669.19-.801.367 2.651.446 8.669l.132 10 .209-10.984.21-10.984 2.2-.441c8.084-1.619 14.8-8.828 14.8-15.885V164.8H217.703l-.27-2.034c-1.41-10.633-12.702-17.722-22.794-14.311M394 150.576c0 .563.18 1.024.4 1.024.22 0 .4-.349.4-.776 0-.427-.18-.888-.4-1.024-.227-.14-.4.196-.4.776M4.612 153.317c-.171.395-.199.83-.061.967.406.406.733-.164.546-.953-.165-.698-.187-.699-.485-.014M394.8 154c0 .66.18 1.2.4 1.2.22 0 .4-.54.4-1.2 0-.66-.18-1.2-.4-1.2-.22 0-.4.54-.4 1.2m.8 3.6c0 .44.18.8.4.8.22 0 .4-.36.4-.8 0-.44-.18-.8-.4-.8-.22 0-.4.36-.4.8M2.8 160.576c0 .317.18.688.4.824.22.136.4-.123.4-.576 0-.453-.18-.824-.4-.824-.22 0-.4.259-.4.576m393.6.624c0 .66.18 1.2.4 1.2.22 0 .4-.54.4-1.2 0-.66-.18-1.2-.4-1.2-.22 0-.4.54-.4 1.2m.8 4.176c0 .783.18 1.424.4 1.424.22 0 .4-.529.4-1.176 0-.647-.18-1.288-.4-1.424-.238-.147-.4.329-.4 1.176m-395.2-.4c0 .317.18.688.4.824.22.136.4-.123.4-.576 0-.453-.18-.824-.4-.824-.22 0-.4.259-.4.576m-.8 4.824c0 .33.18.6.4.6.22 0 .4-.27.4-.6 0-.33-.18-.6-.4-.6-.22 0-.4.27-.4.6m396.8.576c0 .673.18 1.224.4 1.224.22 0 .4-.439.4-.976 0-.537-.18-1.088-.4-1.224-.233-.144-.4.263-.4.976m-397.6 5.2c0 .427.18.888.4 1.024.227.14.4-.196.4-.776 0-.563-.18-1.024-.4-1.024-.22 0-.4.349-.4.776m398.4.824c0 .88.18 1.6.4 1.6.22 0 .4-.72.4-1.6 0-.88-.18-1.6-.4-1.6-.22 0-.4.72-.4 1.6m.934 8.4c0 1.65.071 2.325.157 1.5.087-.825.087-2.175 0-3-.086-.825-.157-.15-.157 1.5M.093 183.6c0 .77.082 1.085.183.7.1-.385.1-1.015 0-1.4-.101-.385-.183-.07-.183.7m148.313 25.833c.003.422.189 1.037.412 1.367.297.438.334.276.138-.6-.329-1.471-.558-1.79-.55-.767m102.623.796c-.148.586-.191 1.143-.097 1.237.095.094.292-.308.439-.895.148-.586.191-1.143.097-1.237-.095-.094-.292.308-.439.895m148.705 4.971c0 1.65.071 2.325.157 1.5.087-.825.087-2.175 0-3-.086-.825-.157-.15-.157 1.5M.093 216.4c0 .77.082 1.085.183.7.1-.385.1-1.015 0-1.4-.101-.385-.183-.07-.183.7m398.707 7.176c0 .893.18 1.624.4 1.624.22 0 .4-.619.4-1.376 0-.757-.18-1.488-.4-1.624-.242-.149-.4.396-.4 1.376M.4 224.4c0 .44.18.8.4.8.22 0 .4-.36.4-.8 0-.44-.18-.8-.4-.8-.22 0-.4.36-.4.8m244.153 2.5c-1.377 2.336-1.467 2.535-.766 1.7.813-.968 1.513-2.2 1.251-2.2-.105 0-.323.225-.485.5M398 229.624c0 .713.167 1.12.4.976.22-.136.4-.687.4-1.224 0-.537-.18-.976-.4-.976-.22 0-.4.551-.4 1.224m-156.225 1.444c-.616.808-.916 1.343-.666 1.188.512-.316 2.244-2.656 1.966-2.656-.099 0-.684.661-1.3 1.468m155.425 3.556c0 .847.162 1.323.4 1.176.22-.136.4-.777.4-1.424 0-.647-.18-1.176-.4-1.176-.22 0-.4.641-.4 1.424m-.8 4.2c0 .713.167 1.12.4.976.22-.136.4-.687.4-1.224 0-.537-.18-.976-.4-.976-.22 0-.4.551-.4 1.224M2.8 239.2c0 .44.18.8.4.8.22 0 .4-.36.4-.8 0-.44-.18-.8-.4-.8-.22 0-.4.36-.4.8m228 2.849c-1.394 1.222-1.395 1.223-.112.37.708-.471 1.394-1.028 1.524-1.238.385-.624.065-.427-1.412.868m164.8.575c0 .58.173.916.4.776.22-.136.4-.597.4-1.024 0-.427-.18-.776-.4-.776-.22 0-.4.461-.4 1.024m-225.593.312c2.721 1.828 3.593 2.354 3.593 2.167 0-.253-4.305-3.103-4.687-3.103-.164 0 .328.421 1.094.936m57.693 1.11c-1.363.873-1.805 1.46-.6.797.918-.504 2.356-1.616 2.1-1.624-.11-.003-.785.369-1.5.827m167.1 1.978c0 .713.167 1.12.4.976.22-.136.4-.687.4-1.224 0-.537-.18-.976-.4-.976-.22 0-.4.551-.4 1.224m-390.4.152c0 .317.18.688.4.824.22.136.4-.123.4-.576 0-.453-.18-.824-.4-.824-.22 0-.4.259-.4.576m389.6 3.248c0 .58.173.916.4.776.22-.136.4-.597.4-1.024 0-.427-.18-.776-.4-.776-.22 0-.4.461-.4 1.024M189 251.2c.44.189 1.07.344 1.4.344.378 0 .304-.127-.2-.344-.44-.189-1.07-.344-1.4-.344-.378 0-.304.127.2.344m20.8 0c-.504.217-.578.344-.2.344.33 0 .96-.155 1.4-.344.504-.217.578-.344.2-.344-.33 0-.96.155-1.4.344m183.4 1.2c0 .44.18.8.4.8.22 0 .4-.36.4-.8 0-.44-.18-.8-.4-.8-.22 0-.4.36-.4.8M6 252.6c0 .33.18.6.4.6.22 0 .4-.27.4-.6 0-.33-.18-.6-.4-.6-.22 0-.4.27-.4.6m191.5-.304c1.375.078 3.625.078 5 0s.25-.142-2.5-.142-3.875.064-2.5.142M392.4 255c0 .55.18 1 .4 1 .22 0 .4-.45.4-1s-.18-1-.4-1c-.22 0-.4.45-.4 1m-.8 3.024c0 .453.18.712.4.576.22-.136.4-.507.4-.824 0-.317-.18-.576-.4-.576-.22 0-.4.371-.4.824m-.8 2.376c0 .44.18.8.4.8.22 0 .4-.36.4-.8 0-.44-.18-.8-.4-.8-.22 0-.4.36-.4.8m-4.4 13.224c0 .453.18.712.4.576.22-.136.4-.507.4-.824 0-.317-.18-.576-.4-.576-.22 0-.4.371-.4.824m-1.6 3.976c0 .44-.18.8-.4.8-.22 0-.4.36-.4.8 0 1.088.66 1.015.902-.1.107-.495.328-1.215.489-1.6.178-.422.119-.7-.148-.7-.244 0-.443.36-.443.8m-1.6 3.4c0 .33.18.6.4.6.22 0 .4-.27.4-.6 0-.33-.18-.6-.4-.6-.22 0-.4.27-.4.6m-2.4 5.2c0 .33.18.6.4.6.22 0 .4-.27.4-.6 0-.33-.18-.6-.4-.6-.22 0-.4.27-.4.6m-.8 1.6c0 .33.18.6.4.6.22 0 .4-.27.4-.6 0-.33-.18-.6-.4-.6-.22 0-.4.27-.4.6m-.8 1.6c0 .33.18.6.4.6.22 0 .4-.27.4-.6 0-.33-.18-.6-.4-.6-.22 0-.4.27-.4.6m-.8 1.52c0 .374-.18.68-.4.68-.22 0-.4.36-.4.8 0 .44-.18.8-.4.8-.22 0-.4.36-.4.8 0 .44-.18.8-.4.8-.22 0-.4.36-.4.8 0 .44-.18.8-.4.8-.22 0-.4.18-.4.4 0 .955.715.252 1.621-1.594.539-1.096 1.114-1.996 1.279-2 .165-.003.3-.351.3-.773 0-.421.225-.849.5-.95.4-.146.4-.289 0-.713-.412-.436-.5-.41-.5.15m-11.1 19.303c-.589.64-.638.977-.143.977.341 0 .98-1.204.752-1.417-.06-.056-.334.142-.609.44m-1.64 2.419c-.729.824-.26 1.215.521.434.34-.34.619-.722.619-.847 0-.42-.594-.205-1.14.413m-4 5.6c-.729.824-.26 1.215.521.434.34-.34.619-.722.619-.847 0-.42-.594-.205-1.14.413m-2.356 3.152c-.273.31-.354.652-.18.759.174.107.533-.153.799-.579.557-.891.119-1.018-.619-.18m-5.644 7.257c-.517.551-.864 1.078-.771 1.171.093.093.685-.368 1.315-1.026.63-.658.977-1.185.771-1.172-.206.014-.798.476-1.315 1.027m-5.968 6.779c-1.159 1.193-1.969 2.164-1.8 2.157.387-.017 1.512-1.014 3.286-2.912 2.176-2.328.858-1.658-1.486.755m-12.03 12.059c-.956.973-1.665 1.842-1.575 1.931.09.09.95-.639 1.913-1.62.963-.981 1.671-1.85 1.575-1.931-.096-.082-.957.647-1.913 1.62m-270.66 1.313c.4.442.809.72.91.619.216-.216-.924-1.421-1.345-1.421-.16 0 .036.361.435.802m263.058 5.44c-.298.336-.461.69-.365.787.097.097.503-.185.903-.627.399-.441.563-.795.364-.787-.199.009-.605.29-.902.627m-7.827 6.015c-.138.362-.158.752-.042.867.115.115.209-.001.209-.257 0-.257.27-.467.6-.467.33 0 .6-.18.6-.4 0-.658-1.094-.452-1.367.257m-2.173 1.585c-.729.824-.26 1.215.521.434.34-.34.619-.722.619-.847 0-.42-.594-.205-1.14.413m-3.2 2.4c-.298.336-.461.69-.365.787.097.097.503-.185.903-.627.399-.441.563-.795.364-.787-.199.009-.605.29-.902.627m-2.4 1.6c-.729.824-.26 1.215.521.434.34-.34.619-.722.619-.847 0-.42-.594-.205-1.14.413M91.2 368.704c0 .167.36.528.8.803.93.581 1.054.29.229-.536-.631-.63-1.029-.734-1.029-.267m203.6 7.696c0 .22-.36.4-.8.4-.44 0-.8.18-.8.4 0 .22-.27.4-.6.4-.33 0-.6.18-.6.4 0 .22.27.4.6.4.33 0 .6-.18.6-.4 0-.22.278-.4.617-.4.339 0 1.003-.36 1.475-.8.728-.678.756-.8.183-.8-.371 0-.675.18-.675.4m-4.4 2.4c0 .22.27.4.6.4.33 0 .6-.18.6-.4 0-.22-.27-.4-.6-.4-.33 0-.6.18-.6.4M112 380.004l-1 .255.93.307c.969.32 1.454.133 1.212-.467-.078-.193-.592-.236-1.142-.095" fill="#fcc47c"/></g></svg>