<svg xmlns="http://www.w3.org/2000/svg" width="400" height="400"><g fill-rule="evenodd"><path d="M269.702 199.622 269.8 388.2l1-.135c.55-.074 1.171-.299 1.38-.5.209-.201.715-.365 1.124-.365.409 0 .632-.18.496-.4-.144-.233.263-.4.976-.4.673 0 1.224-.18 1.224-.4 0-.22.5-.4 1.112-.4.648 0 1.349-.33 1.682-.791.419-.582.652-.661.882-.3.245.385.313.383.318-.009.003-.275.411-.503.906-.506.728-.005.785-.08.3-.394-.457-.295-.295-.389.676-.394.702-.003 1.388-.186 1.524-.406.136-.22.563-.4.948-.4.386 0 1.088-.36 1.56-.8.472-.44 1.136-.8 1.475-.8.339 0 .617-.191.617-.424 0-.233.142-.335.316-.228.438.271 2.945-.96 3.731-1.831.356-.394.941-.717 1.3-.717.359 0 .653-.18.653-.4 0-.22.416-.4.925-.4.508 0 1.279-.331 1.713-.735.434-.404 1.312-.866 1.951-1.026.639-.161 1.651-.64 2.248-1.066.598-.425 1.284-.773 1.525-.773.241 0 .438-.18.438-.4 0-.22.36-.4.8-.4.44 0 .801-.135.802-.3.001-.165.99-.93 2.198-1.7 1.208-.77 2.197-1.535 2.198-1.7.001-.165.322-.3.714-.3.391 0 .971-.36 1.288-.8.317-.44.942-.803 1.388-.806.671-.005.708-.074.212-.394-.485-.314-.428-.389.3-.394.495-.003.9-.186.9-.406 0-.22.32-.4.712-.4.391 0 .971-.36 1.288-.8.317-.44.785-.8 1.04-.8s1.205-.72 2.112-1.6c.906-.879 1.648-1.4 1.648-1.157 0 .243.522-.117 1.16-.801.639-.683 1.374-1.242 1.634-1.242.26 0 1.085-.63 1.832-1.4.748-.77 1.519-1.4 1.713-1.4.195 0 1.384-.99 2.643-2.2 1.26-1.21 2.452-2.2 2.65-2.2.295 0 2.476-2.137 9.827-9.63.188-.191 1.815-1.774 3.616-3.517 1.801-1.743 3.166-3.278 3.033-3.411s-.014-.242.265-.242c.541 0 2.827-2.269 2.827-2.806 0-.177.99-1.352 2.2-2.612 1.21-1.259 2.2-2.448 2.2-2.643 0-.194.63-.965 1.4-1.713.77-.747 1.4-1.572 1.4-1.832s.559-.995 1.242-1.634c.684-.638 1.044-1.16.801-1.16s.278-.742 1.157-1.648c.88-.907 1.6-1.857 1.6-2.112 0-.255.36-.723.8-1.04.44-.317.8-.897.8-1.288 0-.392.18-.712.4-.712.22 0 .403-.405.406-.9.005-.728.08-.785.394-.3.32.496.389.459.394-.212.003-.446.366-1.071.806-1.388.44-.317.8-.882.8-1.255 0-.373.147-.738.328-.812.465-.189 3.672-5.002 3.672-5.511 0-.232.18-.422.4-.422.22 0 .4-.197.4-.438s.361-.946.803-1.567c.442-.62.915-1.683 1.05-2.361.136-.679.404-1.234.597-1.234.193 0 .353-.405.356-.9.005-.728.08-.785.394-.3.294.455.389.286.394-.7.003-.715.186-1.3.406-1.3.22 0 .4-.294.4-.653 0-.359.329-.944.73-1.3.402-.356.986-1.232 1.298-1.947.312-.715.703-1.3.87-1.3.166 0 .302-.36.302-.8 0-.44.18-.8.4-.8.22 0 .4-.551.4-1.224 0-.713.167-1.12.4-.976.22.136.4-.123.4-.576 0-.453.18-.824.4-.824.22 0 .4-.45.4-1s.18-1 .4-1c.22 0 .4-.36.4-.8 0-.44.225-.803.5-.806.333-.004.3-.136-.1-.394s-.433-.39-.1-.394c.275-.003.503-.411.506-.906.005-.728.08-.785.394-.3.294.455.389.286.394-.7.003-.715.186-1.3.406-1.3.22 0 .4-.349.4-.776 0-.427.18-.888.4-1.024.22-.136.4-.597.4-1.024 0-.427.18-.776.4-.776.22 0 .4-.439.4-.976 0-.537.144-1.066.321-1.175.176-.109.572-1.121.879-2.249.307-1.128.703-2.14.879-2.249.177-.109.321-.602.321-1.095s.179-1.075.398-1.294c.218-.218.514-1.514.656-2.88.143-1.365.414-2.482.603-2.482s.343-.45.343-1 .18-1 .4-1c.22 0 .4-.54.4-1.2 0-.69.212-1.203.5-1.206.339-.004.307-.143-.1-.431-.452-.319-.476-.474-.1-.627.275-.111.5-.818.5-1.569 0-.752.18-1.367.4-1.367.22 0 .4-.54.4-1.2 0-.66.18-1.2.4-1.2.223 0 .4-1.075.4-2.424 0-1.513.15-2.33.4-2.176.238.147.4-.329.4-1.176 0-.783.18-1.424.4-1.424.226 0 .4-1.133.4-2.6s.174-2.6.4-2.6c.22 0 .4-1.001.4-2.224 0-1.38.152-2.129.4-1.976.252.156.4-.785.4-2.543 0-1.877.164-2.845.5-2.957.732-.244.732-49.956 0-50.2-.336-.112-.5-1.08-.5-2.957 0-1.758-.148-2.699-.4-2.543-.248.153-.4-.596-.4-1.976 0-1.223-.18-2.224-.4-2.224-.226 0-.4-1.133-.4-2.6s-.174-2.6-.4-2.6c-.22 0-.4-.54-.4-1.2 0-.66-.18-1.2-.4-1.2-.222 0-.4-1.067-.4-2.4s-.178-2.4-.4-2.4c-.22 0-.4-.439-.4-.976 0-.537-.199-1.1-.443-1.25-.308-.191-.278-.378.1-.618.4-.253.411-.345.043-.35-.275-.003-.5-.42-.5-.926s-.225-1.162-.5-1.459c-.4-.431-.4-.482 0-.256.275.155.5.092.5-.141 0-.233-.18-.424-.4-.424-.22 0-.4-.54-.4-1.2 0-.66-.18-1.2-.4-1.2-.22 0-.4-.45-.4-1s-.155-1-.344-1c-.189 0-.449-1.018-.578-2.263-.128-1.244-.379-2.369-.557-2.5-.178-.13-.386-.777-.461-1.437-.076-.66-.268-1.38-.427-1.6-.159-.22-.533-1.21-.831-2.2-.297-.99-.69-1.971-.872-2.18-.181-.209-.33-.794-.33-1.3s-.18-.92-.4-.92c-.22 0-.4-.349-.4-.776 0-.427-.18-.888-.4-1.024-.22-.136-.4-.597-.4-1.024 0-.427-.18-.776-.4-.776-.22 0-.4-.439-.4-.976 0-.537-.18-1.088-.4-1.224-.22-.136-.4-.597-.4-1.024 0-.427-.18-.776-.4-.776-.22 0-.4-.36-.4-.8 0-.44-.18-.8-.4-.8-.22 0-.4-.272-.4-.605 0-.333-.18-.963-.4-1.4-.22-.437-.58-1.153-.8-1.59-.22-.437-.4-1.067-.4-1.4 0-.333-.18-.605-.4-.605-.22 0-.4-.36-.4-.8 0-.44-.18-.8-.4-.8-.22 0-.4-.27-.4-.6 0-.33-.18-.6-.4-.6-.22 0-.4-.36-.4-.8 0-.44-.18-.8-.4-.8-.22 0-.4-.32-.4-.712 0-.391-.36-.971-.8-1.288-.441-.318-.8-1.035-.8-1.6 0-.565-.359-1.282-.8-1.6-.44-.317-.8-.884-.8-1.26 0-.375-.225-.925-.5-1.221-.275-.296-.556-.791-.624-1.1-.068-.31-.473-1.053-.9-1.653-.427-.599-.776-1.294-.776-1.544 0-.251-.36-.842-.8-1.314-.44-.472-.8-1.095-.8-1.383 0-.289-.18-.525-.4-.525-.22 0-.403-.315-.406-.7-.005-.598-.063-.613-.394-.1-.314.485-.389.428-.394-.3-.003-.495-.186-.9-.406-.9-.22 0-.4-.288-.4-.64 0-.351-.54-1.143-1.2-1.76-.66-.617-1.2-1.409-1.2-1.76 0-.352-.18-.64-.4-.64-.22 0-.4-.32-.4-.712 0-.391-.36-.971-.8-1.288-.44-.317-.8-.78-.8-1.029 0-.249-.54-1.017-1.2-1.708-.66-.691-1.2-1.455-1.2-1.699s-.54-.947-1.2-1.564c-.66-.617-1.2-1.313-1.2-1.547 0-.235-.63-1.056-1.4-1.826-.77-.77-1.4-1.562-1.4-1.76 0-.198-.99-1.39-2.2-2.649-1.21-1.26-2.2-2.458-2.2-2.662 0-.205-2.115-2.441-4.7-4.967-2.585-2.527-4.853-4.755-5.041-4.951-4.389-4.582-9.558-9.638-9.853-9.638-.212 0-1.193-.808-2.18-1.795-.987-.987-2.023-1.842-2.303-1.9-.28-.058-1.094-.69-1.809-1.405-.715-.715-1.483-1.3-1.707-1.3-.224 0-.407-.18-.407-.4 0-.22-.198-.4-.44-.4-.241 0-.943-.54-1.56-1.2-.617-.66-1.32-1.2-1.564-1.2s-1.008-.54-1.699-1.2c-.691-.66-1.459-1.2-1.708-1.2-.249 0-.712-.36-1.029-.8-.317-.44-.897-.8-1.288-.8-.392 0-.712-.18-.712-.4 0-.22-.288-.4-.64-.4-.351 0-1.143-.54-1.76-1.2-.617-.66-1.369-1.2-1.672-1.2-.303 0-.811-.36-1.128-.8-.317-.44-.807-.8-1.088-.8-.282 0-.512-.18-.512-.4 0-.22-.236-.4-.525-.4-.288 0-.911-.36-1.383-.8-.472-.44-1.125-.8-1.452-.8-.326 0-.692-.16-.813-.356-.323-.523-4.111-2.444-4.82-2.444-.334 0-.607-.18-.607-.4 0-.22-.405-.403-.9-.406-.728-.005-.785-.08-.3-.394.455-.294.286-.389-.7-.394-.715-.003-1.3-.186-1.3-.406 0-.22-.36-.4-.8-.4-.44 0-.8-.18-.8-.4 0-.22-.405-.403-.9-.406-.601-.004-.733-.112-.398-.325.341-.217.054-.494-.9-.868-.771-.303-1.402-.697-1.402-.876 0-.179-.585-.328-1.3-.331-.986-.005-1.155-.1-.7-.394.485-.314.428-.389-.3-.394-.495-.003-.9-.186-.9-.406 0-.22-.45-.4-1-.4s-1-.18-1-.4c0-.22-.59-.4-1.312-.4-.853 0-1.513-.28-1.888-.8-.317-.44-.886-.8-1.265-.8-.378 0-.799-.18-.935-.4-.136-.22-.687-.4-1.224-.4-.537 0-.976-.18-.976-.4 0-.22-.585-.403-1.3-.406-.986-.005-1.155-.1-.7-.394.468-.302.357-.389-.5-.394-.605-.003-1.1-.186-1.1-.406 0-.22-.414-.4-.92-.4s-1.135-.215-1.398-.478c-.37-.37-.456 41.887-.38 188.1" fill="#dc0424"/><path d="M127.6 12.4c0 .22-.495.403-1.1.406-.857.005-.968.092-.5.394.455.294.286.389-.7.394-.715.003-1.3.186-1.3.406 0 .22-.585.403-1.3.406-.986.005-1.155.1-.7.394.485.314.428.389-.3.394-.495.003-.9.186-.9.406 0 .22-.36.4-.8.4-.44 0-.803.225-.806.5-.004.333-.136.3-.394-.1s-.39-.433-.394-.1c-.003.275-.456.5-1.006.5s-1 .18-1 .4c0 .22-.45.4-1 .4s-1 .18-1 .4c0 .22-.405.413-.9.428-.859.027-.863.044-.1.372.642.276.503.349-.7.372-.825.015-1.5.208-1.5.428s-.315.403-.7.406c-.598.005-.613.063-.1.394.46.297.318.389-.612.394-.747.004-1.432.312-1.788.806-.356.494-1.041.802-1.788.806-.93.005-1.072.097-.612.394.485.314.428.389-.3.394-.495.003-.9.197-.9.43 0 .233-.165.321-.368.196-.202-.125-.609.014-.904.309-.295.295-1.029.66-1.632.811-.603.151-1.096.512-1.096.801 0 .289-.27.556-.6.592-.33.037-.87.097-1.2.134-.33.036-.6.227-.6.423 0 .197-.18.246-.4.11-.22-.136-.4-.057-.4.176 0 .233-.36.424-.8.424-.44 0-.8.18-.8.4 0 .22-.27.4-.6.4-.33 0-.6.18-.6.4 0 .22-.27.4-.6.4-.33 0-.6.18-.6.4 0 .22-.23.4-.512.4-.281 0-.771.36-1.088.8-.317.44-.825.8-1.128.8-.303 0-1.055.54-1.672 1.2-.617.66-1.409 1.2-1.76 1.2-.352 0-.64.18-.64.4 0 .22-.32.4-.712.4-.391 0-.971.36-1.288.8-.317.44-.785.8-1.04.8s-1.175.675-2.044 1.5-1.824 1.556-2.123 1.625c-.298.069-.845.474-1.215.9-.369.426-.784.775-.922.775-.236 0-1.746 1.206-2.881 2.3-.285.275-.683.5-.885.5-.202 0-1.503 1.08-2.89 2.4-1.387 1.32-2.68 2.4-2.874 2.4-.193 0-2.332 2.025-4.752 4.5-2.421 2.475-4.557 4.653-4.746 4.841-.19.188-2.434 2.395-4.987 4.904-2.553 2.51-4.641 4.737-4.641 4.949 0 .212-.808 1.193-1.795 2.18-.987.987-1.842 2.018-1.9 2.292-.058.274-.465.884-.905 1.357-1.46 1.569-2.6 2.98-2.6 3.22 0 .13-.559.758-1.242 1.397-.684.638-1.044 1.16-.801 1.16s-.278.742-1.157 1.648c-.88.907-1.6 1.857-1.6 2.112 0 .255-.36.723-.8 1.04-.44.317-.8.831-.8 1.141 0 .311-.388.901-.861 1.312-.474.411-.635.747-.358.747s-.055.522-.739 1.16c-.683.639-1.242 1.409-1.242 1.712 0 .303-.36.811-.8 1.128-.44.317-.8.807-.8 1.088 0 .282-.18.512-.4.512-.22 0-.4.236-.4.525 0 .288-.36.911-.8 1.383-.44.472-.8 1.049-.8 1.281 0 .526-.878 2.122-1.358 2.471-.197.142-.248.547-.113.9.158.411.032.64-.352.64-.343 0-.699.509-.837 1.2-.132.66-.397 1.2-.59 1.2-.192 0-.35.36-.35.8 0 .44-.18.8-.4.8-.22 0-.4.36-.4.8 0 .44-.18.8-.4.8-.22 0-.4.36-.4.8 0 .44-.18.8-.4.8-.22 0-.403.405-.406.9-.005.728-.08.785-.394.3-.312-.483-.389-.419-.394.324-.003.512-.184.813-.406.676-.22-.136-.4.108-.4.543 0 .435-.163.85-.362.924-.199.073-.424.583-.5 1.133-.076.55-.453 1.291-.838 1.647-.385.356-.7.93-.7 1.276 0 .347-.18.741-.4.877-.22.136-.4.687-.4 1.224 0 .537-.18.976-.4.976-.22 0-.4.36-.4.8 0 .44-.18.8-.4.8-.22 0-.4.36-.4.8 0 .44-.18.8-.4.8-.22 0-.4.54-.4 1.2 0 .66-.18 1.2-.4 1.2-.22 0-.403.585-.406 1.3-.005.986-.1 1.155-.394.7-.302-.468-.389-.357-.394.5-.003.605-.153 1.1-.334 1.1-.339 0-1.549 3.968-1.372 4.5.055.165-.08.3-.3.3-.22 0-.4.54-.4 1.2 0 .66-.18 1.2-.4 1.2-.22 0-.4.349-.4.776 0 .427-.166.879-.369 1.005-.202.125-.493 1.396-.646 2.823-.153 1.428-.437 2.596-.632 2.596-.194 0-.353.45-.353 1s-.18 1-.4 1c-.22 0-.4.54-.4 1.2 0 .66-.18 1.2-.4 1.2-.22 0-.4.9-.4 2s-.18 2-.4 2c-.22 0-.4.54-.4 1.2 0 .66-.18 1.2-.4 1.2-.22 0-.4 1.001-.4 2.224 0 1.38-.152 2.129-.4 1.976-.238-.147-.4.321-.4 1.153 0 .77-.18 1.511-.4 1.647-.22.136-.4 1.407-.4 2.824 0 1.451-.175 2.576-.4 2.576-.22 0-.4.709-.4 1.576 0 .867-.18 1.688-.4 1.824-.22.136-.4 1.777-.4 3.647 0 1.984-.154 3.305-.37 3.171-.596-.368-.732 5.374-.665 28.153.047 16.381.175 21.409.548 21.533.321.107.489 1.138.493 3.029.004 1.999.124 2.685.394 2.267.271-.42.39.217.394 2.124.004 1.712.155 2.631.406 2.476.251-.155.4.721.4 2.353 0 1.43.18 2.711.4 2.847.22.136.4.867.4 1.624 0 .757.146 1.376.325 1.376.179 0 .369.855.422 1.9.053 1.045.266 1.96.474 2.033.209.074.379.659.379 1.3 0 .642.18 1.167.4 1.167.22 0 .4.72.4 1.6 0 1.01.184 1.602.5 1.606.333.004.3.136-.1.394s-.433.39-.1.394c.288.003.5.516.5 1.206 0 .66.18 1.2.4 1.2.22 0 .4.45.4 1s.154 1 .343 1c.189 0 .46 1.117.603 2.482.142 1.366.438 2.662.656 2.88.219.219.398.722.398 1.118 0 .396.142.72.315.72.173 0 .359.582.413 1.293.055.712.273 1.468.485 1.68.213.213.387.711.387 1.107s.18.72.4.72c.22 0 .4.54.4 1.2 0 .66.18 1.2.4 1.2.22 0 .403.495.406 1.1.005.857.092.968.394.5.294-.455.389-.286.394.7.003.715.186 1.3.406 1.3.22 0 .403.585.406 1.3.005.986.1 1.155.394.7.314-.485.389-.428.394.3.003.495.186.9.406.9.22 0 .4.54.4 1.2 0 .66.18 1.2.4 1.2.22 0 .4.355.4.788 0 .883 1.448 3.654 2.146 4.106.311.201.277.296-.107.3-.364.004-.237.287.361.806.598.519.725.802.361.806-.365.004-.41.109-.129.3.238.162.681.866.985 1.565.304.699.695 1.184.868 1.077.173-.108.315.085.315.428 0 .343.18.624.4.624.22 0 .4.36.4.8 0 .44.18.8.4.8.22 0 .4.5.4 1.112 0 .653.33 1.349.8 1.688.44.317.8.828.8 1.134 0 .651 2.059 4.603 2.5 4.799.165.074.3.396.3.717 0 .321.36.97.8 1.442.44.472.8 1.095.8 1.383 0 .289.18.525.4.525.22 0 .4.23.4.512 0 .281.36.771.8 1.088.44.317.8.825.8 1.128 0 .303.54 1.055 1.2 1.672.66.617 1.2 1.409 1.2 1.76 0 .352.18.64.4.64.22 0 .4.32.4.712 0 .391.36.971.8 1.288.44.317.8.785.8 1.04s.72 1.205 1.6 2.112c.879.906 1.4 1.648 1.157 1.648-.243 0 .117.522.801 1.16.683.639 1.242 1.359 1.242 1.6 0 .242.18.44.4.44.22 0 .4.245.4.544 0 .299.45.882 1 1.295.55.413 1 .951 1 1.195 0 .244 1.08 1.579 2.4 2.966 1.32 1.387 2.4 2.68 2.4 2.874 0 .193 2.025 2.332 4.5 4.752 5.403 5.284 4.19 4.071 9.474 9.474 2.42 2.475 4.559 4.5 4.752 4.5.194 0 1.487 1.08 2.874 2.4 1.387 1.32 2.681 2.4 2.874 2.4.194 0 .983.63 1.753 1.4.77.77 1.598 1.4 1.839 1.4.242 0 .776.388 1.187.861.411.474.747.655.747.402 0-.252.918.44 2.041 1.539 1.122 1.099 2.252 1.998 2.511 1.998.259 0 .731.36 1.048.8.317.44.897.8 1.288.8.392 0 .712.18.712.4 0 .22.288.4.64.4.351 0 1.161.559 1.8 1.242.638.684 1.16 1.016 1.16.739s.336-.116.747.358c.411.473 1.086.864 1.5.867.633.005.657.068.153.394-.513.331-.498.389.1.394.385.003.7.186.7.406 0 .22.32.4.712.4.391 0 .971.36 1.288.8.317.44.852.804 1.188.809.337.005 1.062.361 1.612.791.55.43 1.326.786 1.724.791.398.005.618.18.488.389-.129.209.401.499 1.177.644.776.146 1.411.425 1.411.621 0 .195.461.355 1.024.355.58 0 .916.173.776.4-.136.22.123.4.576.4.453 0 .824.18.824.4 0 .22.294.4.653.4.359 0 .944.316 1.3.703.356.386 1.187.971 1.847 1.299.66.328 1.332.777 1.494.997.182.249.296.211.3-.099.003-.275.216-.5.473-.5.256 0 .355.111.219.248-.35.349.735 1.352 1.462 1.352.333 0 .716.18.852.4.136.22.687.4 1.224.4.537 0 .976.18.976.4 0 .22.36.4.8.4.44 0 .8.18.8.4 0 .22.585.403 1.3.406.986.005 1.155.1.7.394-.485.314-.428.389.3.394.495.003.9.186.9.406 0 .22.54.4 1.2.4.66 0 1.2.18 1.2.4 0 .22.641.4 1.424.4.847 0 1.323.162 1.176.4-.136.22.018.4.343.4s.65.163.724.362c.073.199.673.424 1.333.5l1.2.138.1-188.1.101-188.1H129c-.77 0-1.4.18-1.4.4" fill="#0454b4"/><path d="M178.3.275c-1.925.086-3.5.329-3.5.541 0 .211-1.339.384-2.976.384s-3.088.18-3.224.4c-.136.22-1.137.4-2.224.4-1.087 0-1.976.18-1.976.4 0 .22-.99.4-2.2.4-1.21 0-2.2.18-2.2.4 0 .22-.799.4-1.776.4s-1.888.18-2.024.4c-.136.22-.957.4-1.824.4-.867 0-1.576.18-1.576.4 0 .22-.72.4-1.6.4-.88 0-1.6.18-1.6.4 0 .22-.529.4-1.176.4-.647 0-1.288.18-1.424.4-.136.22-.766.4-1.4.4-.634 0-1.264.18-1.4.4-.136.22-.867.4-1.624.4-.757 0-1.376.18-1.376.4 0 .22-.429.4-.954.4-.906 0-4.321.911-6.046 1.613-.44.178-1.665.637-2.722 1.019-1.057.381-1.732.811-1.499.955.297.184.393 56.419.322 188.48l-.101 188.217 1.8.525c.99.289 2.07.659 2.4.821 1.138.561 4.894 1.57 5.846 1.57.525 0 .954.18.954.4 0 .22.63.4 1.4.4.77 0 1.4.18 1.4.4 0 .22.529.4 1.176.4.647 0 1.288.18 1.424.4.136.22.967.4 1.847.4.965 0 1.502.159 1.353.4-.149.241.388.4 1.353.4.88 0 1.711.18 1.847.4.136.22.856.4 1.6.4.744 0 1.464.18 1.6.4.136.22 1.047.4 2.024.4.977 0 1.776.18 1.776.4 0 .22.99.4 2.2.4 1.21 0 2.2.18 2.2.4 0 .22.979.4 2.176.4s2.288.18 2.424.4c.136.22 1.482.4 2.99.4 1.839 0 2.798.165 2.91.5.244.732 49.956.732 50.2 0 .112-.335 1.071-.5 2.91-.5 1.508 0 2.854-.18 2.99-.4.136-.22 1.216-.4 2.4-.4s2.264-.18 2.4-.4c.136-.22 1.036-.4 2-.4s1.864-.18 2-.4c.136-.22.946-.4 1.8-.4.854 0 1.664-.18 1.8-.4.136-.22 1.047-.4 2.024-.4.977 0 1.776-.18 1.776-.4 0-.22.72-.4 1.6-.4.88 0 1.6-.18 1.6-.4 0-.22.619-.4 1.376-.4.757 0 1.488-.18 1.624-.4.136-.22.777-.4 1.424-.4.647 0 1.176-.18 1.176-.4 0-.22.63-.4 1.4-.4.77 0 1.4-.159 1.4-.354 0-.195.987-.477 2.194-.628 1.206-.151 2.297-.441 2.423-.646.127-.205.659-.372 1.183-.372s1.064-.18 1.2-.4c.136-.22.576-.4.978-.4s1.201-.244 1.777-.543l1.046-.543.001-188.513.001-188.514-1.047-.544c-.576-.298-1.299-.543-1.607-.543-.308 0-.872-.163-1.254-.363-1.142-.597-4.917-1.637-5.941-1.637-.525 0-.954-.18-.954-.4 0-.22-.63-.4-1.4-.4-.77 0-1.4-.18-1.4-.4 0-.22-.529-.4-1.176-.4-.647 0-1.288-.18-1.424-.4-.136-.22-.867-.4-1.624-.4-.757 0-1.376-.18-1.376-.4 0-.22-.72-.4-1.6-.4-.88 0-1.6-.18-1.6-.4 0-.22-.709-.4-1.576-.4-.867 0-1.688-.18-1.824-.4-.136-.22-1.047-.4-2.024-.4-.977 0-1.776-.18-1.776-.4 0-.22-.9-.4-2-.4s-2-.18-2-.4c0-.222-1.059-.4-2.376-.4-1.307 0-2.488-.18-2.624-.4-.136-.22-1.482-.4-2.99-.4-1.817 0-2.799-.166-2.907-.492-.162-.486-37.812-.834-46.803-.433M98.976 26.222c-.754.605-.752.611.071.214.466-.224.961-.294 1.1-.155.139.139.253.042.253-.214 0-.64-.499-.585-1.424.155M395.6 156.776c0 .453.18.824.4.824.22 0 .4-.259.4-.576 0-.317-.18-.688-.4-.824-.22-.136-.4.123-.4.576M2 164.6c0 .33.18.6.4.6.22 0 .4-.27.4-.6 0-.33-.18-.6-.4-.6-.22 0-.4.27-.4.6m393.6 78.6c0 .747.107.853.48.48s.373-.587 0-.96-.48-.267-.48.48M78.806 359.871c.012.613.749 1.507 1.02 1.236.148-.148-.022-.56-.378-.917-.357-.356-.645-.499-.642-.319" fill="#f4f4f4"/></g></svg>