<svg xmlns="http://www.w3.org/2000/svg" width="400" height="400"><g fill-rule="evenodd"><path d="M178.5.274c-2.035.086-3.7.329-3.7.541 0 .212-1.26.385-2.8.385-1.6 0-2.8.171-2.8.4 0 .222-1.067.4-2.4.4s-2.4.178-2.4.4c0 .22-.99.4-2.2.4-1.21 0-2.2.18-2.2.4 0 .22-.72.4-1.6.4-.88 0-1.6.18-1.6.4 0 .22-.9.4-2 .4s-2 .18-2 .4c0 .22-.72.4-1.6.4-.88 0-1.6.18-1.6.4 0 .22-.63.4-1.4.4-.77 0-1.4.18-1.4.4 0 .22-.529.4-1.176.4-.647 0-1.288.18-1.424.4-.136.22-.867.4-1.624.4-.757 0-1.376.18-1.376.4 0 .22-.447.4-.994.4-1.018 0-9.05 2.501-10.301 3.208-.382.215-.967.392-1.3.392-.333 0-.605.18-.605.4 0 .22-.439.4-.976.4-.537 0-1.088.18-1.224.4-.136.22-.597.4-1.024.4-.427 0-.776.18-.776.4 0 .22-.439.4-.976.4-.537 0-1.088.18-1.224.4-.136.22-.597.4-1.024.4-.427 0-.776.18-.776.4 0 .22-.36.4-.8.4-.44 0-.8.18-.8.4 0 .22-.45.4-1 .4s-1 .18-1 .4c0 .22-.211.4-.47.4-.62 0-7.292 3.304-7.463 3.695-.074.168-.479.305-.9.305-.422 0-.767.18-.767.4 0 .22-.36.4-.8.4-.44 0-.8.18-.8.4 0 .22-.236.4-.525.4-.288 0-.911.36-1.383.8-.472.44-1.067.8-1.321.8-.582 0-4.524 2.095-4.704 2.5-.074.165-.355.3-.625.3s-.84.315-1.267.7c-.426.385-1.315.969-1.975 1.297-.66.329-1.491.914-1.847 1.3-.356.387-.901.703-1.212.703-.31 0-.824.36-1.141.8-.317.44-.857.8-1.2.8-.343 0-.883.36-1.2.8-.317.44-.857.8-1.2.8-.343 0-.883.36-1.2.8-.317.44-.78.8-1.029.8-.249 0-1.017.54-1.708 1.2-.691.66-1.411 1.2-1.6 1.2-.189 0-.909.54-1.6 1.2-.691.66-1.355 1.2-1.476 1.2-.251 0-.637.305-2.529 1.999-.739.66-1.499 1.201-1.69 1.201-.191 0-1.117.767-2.057 1.705-.941.938-2.341 2.15-3.111 2.694-.77.543-3.161 2.791-5.313 4.994-4.705 4.818-3.676 3.789-8.494 8.494-2.203 2.152-4.447 4.543-4.987 5.313-.539.77-1.661 2.061-2.493 2.869-.832.807-1.513 1.627-1.513 1.821 0 .195-.63 1.041-1.4 1.882-.77.841-1.4 1.648-1.4 1.794 0 .146-.72 1.062-1.6 2.034-.88.972-1.6 1.918-1.6 2.102 0 .184-.45.784-1 1.334s-1 1.164-1 1.364c0 .2-.45.814-1 1.364-.55.55-1 1.238-1 1.53 0 .291-.36.789-.8 1.106-.44.317-.8.857-.8 1.2 0 .343-.36.883-.8 1.2-.44.317-.8.831-.8 1.141 0 .311-.316.856-.703 1.212-.386.356-.971 1.187-1.3 1.847-.328.66-.912 1.549-1.297 1.975-.385.427-.7.997-.7 1.267 0 .27-.135.551-.3.625-.474.21-2.5 4.171-2.5 4.887 0 .355-.135.649-.3.652-.165.004-.74.904-1.279 2-.538 1.097-1.123 1.994-1.3 1.994-.176 0-.321.36-.321.8 0 .44-.18.8-.4.8-.22 0-.4.345-.4.767 0 .421-.136.826-.302.9-.166.073-.905 1.393-1.642 2.933-.737 1.54-1.501 3.113-1.698 3.495-.197.382-.358.967-.358 1.3 0 .333-.18.605-.4.605-.22 0-.4.265-.4.588 0 .323-.36 1.229-.8 2.012-.44.783-.8 1.779-.8 2.212 0 .433-.18.788-.4.788-.22 0-.4.349-.4.776 0 .427-.18.888-.4 1.024-.22.136-.4.672-.4 1.19 0 .519-.163 1.003-.362 1.077-.199.073-.424.583-.5 1.133l-.138 1H200c187.972 0 188.2-.001 188.084-.8-.112-.775-.603-2.065-1.331-3.495-.194-.382-.353-.967-.353-1.3 0-.333-.147-.605-.328-.605-.18 0-.572-.9-.872-2-.3-1.1-.692-2-.872-2-.181 0-.328-.36-.328-.8 0-.44-.18-.8-.4-.8-.22 0-.4-.272-.4-.605 0-.333-.161-.918-.358-1.3-.197-.382-.961-1.955-1.698-3.495s-1.476-2.86-1.642-2.933c-.166-.074-.302-.479-.302-.9 0-.422-.18-.767-.4-.767-.22 0-.4-.345-.4-.767 0-.421-.135-.826-.3-.9-.376-.167-1.675-2.297-1.971-3.233-.122-.385-.381-.7-.576-.7-.194 0-.353-.291-.353-.646 0-.716-2.026-4.677-2.5-4.887-.165-.074-.3-.309-.3-.522 0-.485-3.225-5.297-3.672-5.478-.181-.074-.328-.439-.328-.812 0-.373-.36-.938-.8-1.255-.44-.317-.8-.831-.8-1.141 0-.311-.316-.856-.703-1.212-.386-.356-.957-1.142-1.267-1.747-.311-.605-.715-1.1-.898-1.1-.182 0-.332-.243-.332-.541 0-.297-.54-1.105-1.2-1.796-.66-.691-1.2-1.411-1.2-1.6 0-.189-.54-.909-1.2-1.6-.66-.691-1.2-1.392-1.2-1.56 0-.167-.72-1.091-1.6-2.054-.88-.962-1.6-1.875-1.6-2.028 0-.153-.765-1.082-1.7-2.064-.935-.983-2.226-2.484-2.869-3.336-.643-.852-2.867-3.212-4.942-5.244-4.562-4.469-3.797-3.704-8.266-8.266-2.032-2.075-4.393-4.299-5.246-4.942-.853-.643-2.43-2.024-3.504-3.069-1.075-1.045-2.124-1.9-2.332-1.9-.207 0-.811-.405-1.34-.9-1.417-1.325-2.14-1.9-2.388-1.9-.121 0-.785-.54-1.476-1.2-.691-.66-1.411-1.2-1.6-1.2-.189 0-.909-.54-1.6-1.2-.691-.66-1.459-1.2-1.708-1.2-.249 0-.712-.36-1.029-.8-.317-.44-.857-.8-1.2-.8-.343 0-.883-.36-1.2-.8-.317-.44-.857-.8-1.2-.8-.343 0-.883-.36-1.2-.8-.317-.44-.857-.8-1.2-.8-.343 0-.883-.36-1.2-.8-.317-.44-.736-.8-.93-.8-.195 0-1.154-.54-2.132-1.2-.978-.66-1.934-1.2-2.125-1.2-.19 0-.406-.135-.48-.3-.21-.474-4.171-2.5-4.887-2.5-.355 0-.646-.152-.646-.337 0-.186-.855-.771-1.9-1.3-1.045-.53-1.96-1.098-2.033-1.263-.074-.165-.464-.3-.867-.3-.403 0-.793-.137-.867-.304-.073-.167-1.753-1.085-3.733-2.041-1.98-.955-3.913-1.898-4.295-2.096-.382-.197-.967-.359-1.3-.359-.333 0-.605-.18-.605-.4 0-.22-.36-.4-.8-.4-.44 0-.8-.18-.8-.4 0-.22-.349-.4-.776-.4-.427 0-.888-.18-1.024-.4-.136-.22-.687-.4-1.224-.4-.537 0-.976-.18-.976-.4 0-.22-.36-.4-.8-.4-.44 0-.8-.18-.8-.4 0-.22-.42-.4-.933-.4-.514 0-1.053-.119-1.199-.265-.623-.623-11.224-4.135-12.48-4.135-.518 0-1.052-.18-1.188-.4-.136-.22-.777-.4-1.424-.4-.647 0-1.176-.18-1.176-.4 0-.22-.529-.4-1.176-.4-.647 0-1.288-.18-1.424-.4-.136-.22-.856-.4-1.6-.4-.744 0-1.464-.18-1.6-.4-.136-.22-.867-.4-1.624-.4-.757 0-1.376-.18-1.376-.4 0-.22-.799-.4-1.776-.4s-1.888-.18-2.024-.4c-.136-.22-.957-.4-1.824-.4-.867 0-1.576-.18-1.576-.4 0-.22-.99-.4-2.2-.4-1.21 0-2.2-.18-2.2-.4 0-.22-.979-.4-2.176-.4s-2.288-.18-2.424-.4c-.136-.22-1.482-.4-2.99-.4-1.797 0-2.799-.168-2.905-.486-.161-.481-37.303-.832-46.605-.44" fill="#db0424"/><path d="M11.895 269.839c-.305.304.282 2.153 1.352 4.256.194.382.353.967.353 1.3 0 .333.18.605.4.605.22 0 .4.439.4.976 0 .537.18 1.088.4 1.224.22.136.4.597.4 1.024 0 .427.18.776.4.776.22 0 .4.36.4.8 0 .44.18.8.4.8.22 0 .4.272.4.605 0 .333.161.918.358 1.3.197.382.961 1.955 1.698 3.495s1.476 2.86 1.642 2.933c.166.074.302.479.302.9 0 .422.18.767.4.767.22 0 .4.345.4.767 0 .421.135.826.3.9.376.167 1.675 2.297 1.971 3.233.122.385.381.7.576.7.194 0 .353.291.353.646 0 .716 2.026 4.677 2.5 4.887.165.074.3.311.3.528 0 .217.54 1.18 1.2 2.139.66.959 1.2 1.897 1.2 2.084 0 .187.36.599.8.916.44.317.8.857.8 1.2 0 .343.36.883.8 1.2.44.317.8.857.8 1.2 0 .343.36.883.8 1.2.44.317.8.857.8 1.2 0 .343.36.883.8 1.2.44.317.8.78.8 1.029 0 .249.54 1.017 1.2 1.708.66.691 1.2 1.411 1.2 1.6 0 .189.54.909 1.2 1.6.66.691 1.2 1.355 1.2 1.476 0 .251.305.637 1.999 2.529.66.739 1.201 1.499 1.201 1.69 0 .191.767 1.117 1.705 2.057.938.941 2.15 2.341 2.694 3.111.543.77 2.791 3.161 4.994 5.313 4.818 4.705 3.789 3.676 8.494 8.494 2.152 2.203 4.543 4.451 5.313 4.994.77.544 2.17 1.756 3.111 2.694.94.938 1.863 1.705 2.049 1.705.186 0 1.127.72 2.089 1.6.963.88 1.887 1.6 2.054 1.6.168 0 .869.54 1.56 1.2.691.66 1.411 1.2 1.6 1.2.189 0 .909.54 1.6 1.2.691.66 1.459 1.2 1.708 1.2.249 0 .712.36 1.029.8.317.44.857.8 1.2.8.343 0 .883.36 1.2.8.317.44.857.8 1.2.8.343 0 .883.36 1.2.8.317.44.857.8 1.2.8.343 0 .883.36 1.2.8.317.44.729.8.916.8.187 0 1.125.54 2.084 1.2.959.66 1.922 1.2 2.139 1.2.217 0 .454.135.528.3.205.462 4.163 2.5 4.854 2.5.337 0 .672.135.746.3.167.376 2.297 1.675 3.233 1.971.385.122.7.381.7.576 0 .194.36.353.8.353.44 0 .8.18.8.4 0 .22.345.4.767.4.421 0 .826.135.9.3.073.165 1.033.726 2.133 1.247 1.1.521 2.692 1.286 3.538 1.7.846.414 1.791.753 2.1.753.309 0 .562.18.562.4 0 .22.36.4.8.4.44 0 .8.18.8.4 0 .22.349.4.776.4.427 0 .888.18 1.024.4.136.22.687.4 1.224.4.537 0 .976.18.976.4 0 .22.272.4.605.4.333 0 .918.159 1.3.353.626.319 1.34.627 3.895 1.685 2.332.966 9.544 3.162 10.382 3.162.534 0 1.082.18 1.218.4.136.22.777.4 1.424.4.647 0 1.176.18 1.176.4 0 .22.63.4 1.4.4.77 0 1.4.18 1.4.4 0 .22.63.4 1.4.4.77 0 1.4.18 1.4.4 0 .22.72.4 1.6.4.88 0 1.6.18 1.6.4 0 .22.9.4 2 .4s2 .18 2 .4c0 .22.72.4 1.6.4.88 0 1.6.18 1.6.4 0 .22.99.4 2.2.4 1.21 0 2.2.18 2.2.4 0 .222 1.067.4 2.4.4s2.4.178 2.4.4c0 .228 1.189.4 2.767.4 1.857 0 2.821.164 2.933.5.131.393 5.509.5 25.1.5s24.969-.107 25.1-.5c.112-.335 1.071-.5 2.91-.5 1.508 0 2.854-.18 2.99-.4.136-.22 1.227-.4 2.424-.4 1.197 0 2.176-.18 2.176-.4 0-.22.99-.4 2.2-.4 1.21 0 2.2-.18 2.2-.4 0-.22.709-.4 1.576-.4.867 0 1.688-.18 1.824-.4.136-.22 1.047-.4 2.024-.4.977 0 1.776-.18 1.776-.4 0-.22.72-.4 1.6-.4.88 0 1.6-.18 1.6-.4 0-.22.619-.4 1.376-.4.757 0 1.488-.18 1.624-.4.136-.22.777-.4 1.424-.4.647 0 1.176-.18 1.176-.4 0-.22.63-.4 1.4-.4.77 0 1.4-.18 1.4-.4 0-.22.438-.4.972-.4.871 0 6.204-1.529 8.528-2.445 3.487-1.375 5.046-2.021 5.795-2.402.382-.194.967-.353 1.3-.353.333 0 .605-.147.605-.328 0-.18.9-.572 2-.872 1.1-.3 2-.692 2-.872 0-.181.36-.328.8-.328.44 0 .8-.18.8-.4 0-.22.272-.4.605-.4.333 0 .918-.162 1.3-.359.382-.198 2.315-1.141 4.295-2.096 1.98-.956 3.66-1.874 3.733-2.041.074-.167.479-.304.9-.304.422 0 .767-.18.767-.4 0-.22.36-.4.8-.4.44 0 .8-.18.8-.4 0-.22.236-.4.525-.4.288 0 .911-.36 1.383-.8.472-.44 1.067-.8 1.321-.8.582 0 4.524-2.095 4.704-2.5.074-.165.311-.3.528-.3.217 0 1.18-.54 2.139-1.2.959-.66 1.897-1.2 2.084-1.2.187 0 .599-.36.916-.8.317-.44.857-.8 1.2-.8.343 0 .883-.36 1.2-.8.317-.44.857-.8 1.2-.8.343 0 .883-.36 1.2-.8.317-.44.857-.8 1.2-.8.343 0 .883-.36 1.2-.8.317-.44.78-.8 1.029-.8.249 0 1.017-.54 1.708-1.2.691-.66 1.411-1.2 1.6-1.2.189 0 .909-.54 1.6-1.2.691-.66 1.392-1.2 1.56-1.2.167 0 1.091-.72 2.054-1.6.962-.88 1.903-1.6 2.089-1.6.186 0 1.109-.767 2.049-1.705.941-.938 2.341-2.15 3.111-2.694.77-.543 3.161-2.791 5.313-4.994 4.705-4.818 3.676-3.789 8.494-8.494 2.203-2.152 4.451-4.543 4.994-5.313.544-.77 1.756-2.17 2.694-3.111.938-.94 1.705-1.863 1.705-2.049 0-.186.72-1.127 1.6-2.089.88-.963 1.6-1.887 1.6-2.054 0-.168.54-.869 1.2-1.56.66-.691 1.2-1.411 1.2-1.6 0-.189.54-.909 1.2-1.6.66-.691 1.2-1.459 1.2-1.708 0-.249.36-.712.8-1.029.44-.317.8-.857.8-1.2 0-.343.36-.883.8-1.2.44-.317.8-.857.8-1.2 0-.343.36-.883.8-1.2.44-.317.8-.857.8-1.2 0-.343.36-.883.8-1.2.44-.317.8-.729.8-.916 0-.187.54-1.125 1.2-2.084.66-.959 1.2-1.922 1.2-2.139 0-.217.135-.454.3-.528.474-.21 2.5-4.171 2.5-4.887 0-.355.18-.646.4-.646.22 0 .4-.236.4-.525 0-.288.36-.911.8-1.383.44-.472.8-1.136.8-1.475 0-.339.18-.617.4-.617.22 0 .4-.36.4-.8 0-.44.18-.8.4-.8.22 0 .4-.345.4-.767 0-.421.136-.826.302-.9.166-.073.905-1.393 1.642-2.933.737-1.54 1.501-3.113 1.698-3.495.197-.382.358-.967.358-1.3 0-.333.18-.605.4-.605.22 0 .4-.36.4-.8 0-.44.18-.8.4-.8.22 0 .4-.349.4-.776 0-.427.18-.888.4-1.024.22-.136.4-.687.4-1.224 0-.537.18-.976.4-.976.22 0 .4-.272.4-.605 0-.333.159-.918.353-1.3.728-1.43 1.219-2.72 1.331-3.495.115-.79-375.401-1.55-376.189-.761" fill="#6ca444"/><path d="M10.824 132c-.27.99-.645 2.16-.832 2.6-.58 1.358-.953 2.778-.86 3.27.049.258-.096.584-.321.723-.226.14-.411.773-.411 1.407s-.18 1.264-.4 1.4c-.22.136-.4.777-.4 1.424 0 .647-.18 1.176-.4 1.176-.22 0-.4.529-.4 1.176 0 .647-.18 1.288-.4 1.424-.22.136-.4.867-.4 1.624 0 .757-.18 1.376-.4 1.376-.22 0-.4.72-.4 1.6 0 .88-.18 1.6-.4 1.6-.22 0-.4.774-.4 1.72s-.162 1.891-.359 2.1c-.197.209-.458 1.1-.58 1.98-.121.88-.422 2.59-.669 3.8-.247 1.21-.542 3.19-.656 4.4-.113 1.21-.371 2.371-.571 2.58-.201.209-.365 1.499-.365 2.867 0 1.633-.171 2.543-.5 2.653-.732.244-.732 49.956 0 50.2.33.11.5 1.031.5 2.71 0 1.398.18 2.654.4 2.79.22.136.4 1.306.4 2.6s.18 2.464.4 2.6c.22.136.4 1.047.4 2.024 0 .977.18 1.776.4 1.776.22 0 .4.799.4 1.776s.18 1.888.4 2.024c.22.136.4 1.047.4 2.024 0 .977.18 1.776.4 1.776.22 0 .4.72.4 1.6 0 .88.18 1.6.4 1.6.22 0 .4.619.4 1.376 0 .757.18 1.488.4 1.624.22.136.4.777.4 1.424 0 .647.18 1.176.4 1.176.22 0 .4.529.4 1.176 0 .647.18 1.288.4 1.424.22.136.4.766.4 1.4 0 .634.185 1.267.411 1.407.225.139.368.465.316.723-.052.259.426 2.09 1.061 4.07l1.155 3.6h377.341l.492-1.8c.27-.99.647-2.16.837-2.6.752-1.737 1.587-4.678 1.587-5.59 0-.53.18-1.074.4-1.21.22-.136.4-.777.4-1.424 0-.647.18-1.176.4-1.176.22 0 .4-.529.4-1.176 0-.647.18-1.288.4-1.424.22-.136.4-.867.4-1.624 0-.757.18-1.376.4-1.376.22 0 .4-.72.4-1.6 0-.88.18-1.6.4-1.6.22 0 .4-.9.4-2s.18-2 .4-2c.22 0 .4-.709.4-1.576 0-.867.18-1.688.4-1.824.22-.136.4-1.036.4-2s.18-1.864.4-2c.22-.136.4-1.317.4-2.624 0-1.317.178-2.376.4-2.376.228 0 .4-1.189.4-2.767 0-1.857.164-2.821.5-2.933.732-.244.732-49.956 0-50.2-.336-.112-.5-1.076-.5-2.933 0-1.578-.172-2.767-.4-2.767-.222 0-.4-1.059-.4-2.376 0-1.307-.18-2.488-.4-2.624-.22-.136-.4-1.036-.4-2s-.18-1.864-.4-2c-.22-.136-.4-.946-.4-1.8 0-.854-.18-1.664-.4-1.8-.22-.136-.4-1.047-.4-2.024 0-.977-.18-1.776-.4-1.776-.22 0-.4-.72-.4-1.6 0-.88-.18-1.6-.4-1.6-.22 0-.4-.619-.4-1.376 0-.757-.18-1.488-.4-1.624-.22-.136-.4-.777-.4-1.424 0-.647-.18-1.176-.4-1.176-.22 0-.4-.529-.4-1.176 0-.647-.18-1.288-.4-1.424-.22-.136-.4-.68-.4-1.21 0-.976-.955-4.293-1.552-5.39-.179-.33-.556-1.5-.837-2.6l-.511-2H11.316l-.492 1.8" fill="#f4f4f4"/></g></svg>