<svg xmlns="http://www.w3.org/2000/svg" width="400" height="400"><g fill-rule="evenodd"><path d="M269.702 199.622c.098 188.326.099 188.578.898 188.451 1.171-.185 3-1.021 3-1.371 0-.166.54-.302 1.2-.302.66 0 1.2-.18 1.2-.4 0-.22.585-.403 1.3-.406.986-.005 1.155-.1.7-.394-.485-.314-.428-.389.3-.394.495-.003.903-.231.906-.506.004-.333.136-.3.394.1s.39.433.394.1c.003-.275.411-.503.906-.506.728-.005.785-.08.3-.394-.457-.295-.295-.389.676-.394.702-.003 1.388-.186 1.524-.406.136-.22.607-.4 1.047-.4.44 0 .689-.18.553-.4-.136-.22.123-.4.576-.4.453 0 .824-.18.824-.4 0-.22.36-.4.8-.4.44 0 .8-.191.8-.424 0-.233.142-.335.316-.228.438.271 2.945-.96 3.731-1.831.356-.394.941-.717 1.3-.717.359 0 .653-.18.653-.4 0-.22.416-.4.925-.4.508 0 1.279-.331 1.713-.735.434-.404 1.312-.866 1.951-1.026.639-.161 1.651-.64 2.248-1.066.598-.425 1.284-.773 1.525-.773.241 0 .438-.18.438-.4 0-.22.36-.4.8-.4.44 0 .801-.135.802-.3.001-.165.99-.93 2.198-1.7 1.208-.77 2.197-1.535 2.198-1.7.001-.165.322-.3.714-.3.391 0 .971-.36 1.288-.8.317-.44.942-.803 1.388-.806.671-.005.708-.074.212-.394-.485-.314-.428-.389.3-.394.495-.003.9-.186.9-.406 0-.22.32-.4.712-.4.391 0 .971-.36 1.288-.8.317-.44.785-.8 1.04-.8s1.205-.72 2.112-1.6c.906-.879 1.648-1.4 1.648-1.157 0 .243.522-.117 1.16-.801.639-.683 1.362-1.242 1.608-1.242.245 0 1.058-.63 1.806-1.4.747-.77 1.51-1.4 1.693-1.4.184 0 1.389-.99 2.679-2.2 1.29-1.21 2.503-2.2 2.695-2.2.288 0 2.48-2.151 9.818-9.63.188-.191 1.815-1.774 3.616-3.517 1.801-1.743 3.166-3.278 3.033-3.411s-.014-.242.265-.242c.536 0 2.827-2.267 2.827-2.797 0-.171.99-1.367 2.2-2.657 1.21-1.29 2.2-2.483 2.2-2.653 0-.169.63-.919 1.4-1.667.77-.747 1.4-1.572 1.4-1.832s.559-.995 1.242-1.634c.684-.638 1.044-1.16.801-1.16s.278-.742 1.157-1.648c.88-.907 1.6-1.857 1.6-2.112 0-.255.36-.723.8-1.04.44-.317.8-.897.8-1.288 0-.392.18-.712.4-.712.22 0 .403-.405.406-.9.005-.728.08-.785.394-.3.32.496.389.459.394-.212.003-.446.366-1.071.806-1.388.44-.317.8-.882.8-1.255 0-.373.147-.738.328-.812.465-.189 3.672-5.002 3.672-5.511 0-.232.18-.422.4-.422.22 0 .4-.197.4-.438s.361-.946.803-1.567c.442-.62.915-1.683 1.05-2.361.136-.679.404-1.234.597-1.234.193 0 .353-.405.356-.9.005-.728.08-.785.394-.3.294.455.389.286.394-.7.003-.715.186-1.3.406-1.3.22 0 .4-.294.4-.653 0-.359.329-.944.73-1.3.402-.356.986-1.232 1.298-1.947.312-.715.703-1.3.87-1.3.166 0 .302-.36.302-.8 0-.44.18-.8.4-.8.22 0 .4-.551.4-1.224 0-.713.167-1.12.4-.976.22.136.4-.123.4-.576 0-.453.18-.824.4-.824.22 0 .4-.45.4-1s.18-1 .4-1c.22 0 .4-.36.4-.8 0-.44.225-.803.5-.806.333-.004.3-.136-.1-.394s-.433-.39-.1-.394c.275-.003.503-.411.506-.906.005-.728.08-.785.394-.3.294.455.389.286.394-.7.003-.715.186-1.3.406-1.3.22 0 .4-.45.4-1s.18-1 .4-1c.22 0 .4-.36.4-.8 0-.44.18-.8.4-.8.22 0 .4-.42.4-.933 0-.514.123-1.057.274-1.208.449-.449 1.313-3.188 1.32-4.183.003-.512.184-.813.406-.676.223.138.4-.169.4-.696 0-.519.179-1.123.398-1.342.218-.218.514-1.514.656-2.88.143-1.365.414-2.482.603-2.482s.343-.45.343-1 .18-1 .4-1c.22 0 .4-.81.4-1.8s.18-1.8.4-1.8c.22 0 .4-.63.4-1.4 0-.77.18-1.4.4-1.4.22 0 .4-.54.4-1.2 0-.66.18-1.2.4-1.2.223 0 .4-1.075.4-2.424 0-1.513.15-2.33.4-2.176.238.147.4-.329.4-1.176 0-.783.18-1.424.4-1.424.226 0 .4-1.133.4-2.6s.174-2.6.4-2.6c.22 0 .4-1.001.4-2.224 0-1.38.152-2.129.4-1.976.252.156.4-.769.4-2.496 0-1.662.197-2.941.5-3.244.389-.389.5-5.963.5-25.147 0-19.362-.107-24.682-.5-24.813-.336-.112-.5-1.08-.5-2.957 0-1.758-.148-2.699-.4-2.543-.248.153-.4-.596-.4-1.976 0-1.223-.18-2.224-.4-2.224-.226 0-.4-1.133-.4-2.6s-.174-2.6-.4-2.6c-.22 0-.4-.54-.4-1.2 0-.66-.18-1.2-.4-1.2-.222 0-.4-1.067-.4-2.4s-.178-2.4-.4-2.4c-.22 0-.4-.439-.4-.976 0-.537-.18-1.088-.4-1.224-.22-.136-.4-.831-.4-1.544 0-.713-.225-1.538-.5-1.835-.4-.431-.4-.482 0-.256.275.155.5.092.5-.141 0-.233-.18-.424-.4-.424-.22 0-.4-.54-.4-1.2 0-.66-.18-1.2-.4-1.2-.22 0-.4-.45-.4-1s-.155-1-.344-1c-.189 0-.449-1.018-.578-2.263-.128-1.244-.439-2.389-.69-2.544-.251-.155-.441-.397-.422-.538.157-1.175-.036-2.259-.366-2.055-.222.137-.403-.164-.406-.676-.007-.995-.871-3.734-1.32-4.183-.151-.151-.274-.694-.274-1.208 0-.513-.18-.933-.4-.933-.22 0-.4-.371-.4-.824 0-.453-.18-.712-.4-.576-.233.144-.4-.263-.4-.976 0-.673-.18-1.224-.4-1.224-.22 0-.4-.461-.4-1.024 0-.58-.173-.916-.4-.776-.233.144-.4-.263-.4-.976 0-.673-.18-1.224-.4-1.224-.22 0-.4-.36-.4-.8 0-.44-.18-.8-.4-.8-.22 0-.4-.272-.4-.605 0-.333-.18-.963-.4-1.4-.22-.437-.58-1.153-.8-1.59-.22-.437-.4-1.027-.4-1.311 0-.285-.356-.774-.791-1.088-.582-.419-.661-.652-.3-.882.385-.245.383-.313-.009-.318-.275-.003-.5-.276-.5-.606 0-.33-.18-.6-.4-.6-.22 0-.4-.281-.4-.624 0-.343-.18-.512-.4-.376-.231.143-.4-.233-.4-.888 0-.677-.323-1.368-.8-1.712-.441-.318-.8-1.035-.8-1.6 0-.565-.359-1.282-.8-1.6-.44-.317-.8-.884-.8-1.26 0-.375-.225-.925-.5-1.222-.569-.613-2.303-3.955-2.301-4.435.001-.174-.359-.703-.799-1.175-.44-.472-.8-1.095-.8-1.383 0-.289-.18-.525-.4-.525-.22 0-.403-.315-.406-.7-.005-.598-.063-.613-.394-.1-.314.485-.389.428-.394-.3-.003-.495-.186-.9-.406-.9-.22 0-.4-.288-.4-.64 0-.351-.54-1.143-1.2-1.76-.66-.617-1.2-1.409-1.2-1.76 0-.352-.18-.64-.4-.64-.22 0-.4-.32-.4-.712 0-.391-.36-.971-.8-1.288-.44-.317-.8-.78-.8-1.029 0-.249-.54-1.017-1.2-1.708-.66-.691-1.2-1.455-1.2-1.699s-.54-.947-1.2-1.564c-.66-.617-1.2-1.301-1.2-1.52 0-.22-.63-1.03-1.4-1.8-.77-.77-1.4-1.574-1.4-1.786 0-.213-.99-1.417-2.2-2.676-1.21-1.26-2.2-2.458-2.2-2.662 0-.205-2.115-2.441-4.7-4.967-2.585-2.527-4.853-4.755-5.041-4.951-4.389-4.582-9.558-9.638-9.853-9.638-.212 0-1.193-.808-2.18-1.795-.987-.987-2.023-1.842-2.303-1.9-.28-.058-1.094-.69-1.809-1.405-.715-.715-1.483-1.3-1.707-1.3-.224 0-.407-.18-.407-.4 0-.22-.198-.4-.44-.4-.241 0-.943-.54-1.56-1.2-.617-.66-1.32-1.2-1.564-1.2s-1.008-.54-1.699-1.2c-.691-.66-1.459-1.2-1.708-1.2-.249 0-.712-.36-1.029-.8-.317-.44-.897-.8-1.288-.8-.392 0-.712-.18-.712-.4 0-.22-.288-.4-.64-.4-.351 0-1.143-.54-1.76-1.2-.617-.66-1.369-1.2-1.672-1.2-.303 0-.811-.36-1.128-.8-.317-.44-.807-.8-1.088-.8-.282 0-.512-.18-.512-.4 0-.22-.236-.4-.525-.4-.288 0-.911-.36-1.383-.8-.472-.44-1.125-.8-1.452-.8-.326 0-.692-.16-.813-.356-.323-.523-4.111-2.444-4.82-2.444-.334 0-.607-.18-.607-.4 0-.22-.405-.403-.9-.406-.728-.005-.785-.08-.3-.394.455-.294.286-.389-.7-.394-.715-.003-1.3-.186-1.3-.406 0-.22-.36-.4-.8-.4-.44 0-.8-.18-.8-.4 0-.22-.405-.403-.9-.406-.601-.004-.733-.112-.398-.325.341-.217.054-.494-.9-.868-.771-.303-1.402-.697-1.402-.876 0-.179-.5-.325-1.112-.325-.648 0-1.349-.33-1.682-.791-.419-.582-.652-.661-.882-.3-.245.385-.313.383-.318-.009-.003-.275-.276-.5-.606-.5-.33 0-.6-.18-.6-.4 0-.22-.59-.4-1.312-.4-.853 0-1.513-.28-1.888-.8-.344-.477-1.035-.8-1.712-.8-.655 0-1.031-.169-.888-.4.14-.227-.196-.4-.776-.4-.563 0-1.024-.18-1.024-.4 0-.22-.585-.403-1.3-.406-.986-.005-1.155-.1-.7-.394.468-.302.357-.389-.5-.394-.605-.003-1.1-.186-1.1-.406 0-.22-.414-.4-.92-.4s-1.135-.215-1.398-.478c-.37-.37-.456 41.887-.38 188.1" fill="#dc0424"/><path d="M129.8 11.6c-.136.22-.687.4-1.224.4-.537 0-.976.18-.976.4 0 .22-.495.403-1.1.406-.857.005-.968.092-.5.394.455.294.286.389-.7.394-.715.003-1.3.186-1.3.406 0 .22-.5.4-1.112.4-.653 0-1.349.33-1.688.8-.356.494-1.041.802-1.788.806-.93.005-1.072.097-.612.394.446.288.216.389-.9.394-.825.003-1.5.186-1.5.406 0 .22-.373.4-.829.4-.9 0-2.086.952-1.685 1.352.136.137-.143.248-.619.248-.477 0-.867.188-.867.418 0 .229-.225.388-.5.352-1.017-.132-1.54.041-1.3.43.143.231-.233.4-.888.4-.677 0-1.368.323-1.712.8-.317.44-.897.8-1.288.8-.392 0-.712.18-.712.4 0 .22-.36.4-.8.4-.44 0-.8.191-.8.424 0 .233-.165.321-.368.196-.202-.125-.639.044-.971.376-.332.332-.877.604-1.21.604-.333 0-.857.359-1.164.797-.307.439-.656.7-.776.581-.119-.12-.874.152-1.676.602-.803.451-1.724.82-2.047.82-.323 0-.588.18-.588.4 0 .22-.281.4-.624.4-.343 0-.512.18-.376.4.136.22-.123.4-.576.4-.453 0-.824.18-.824.4 0 .22-.23.4-.512.4-.281 0-.771.36-1.088.8-.317.44-.825.8-1.128.8-.303 0-1.055.54-1.672 1.2-.617.66-1.409 1.2-1.76 1.2-.352 0-.64.18-.64.4 0 .22-.32.4-.712.4-.391 0-.971.36-1.288.8-.317.44-.785.8-1.04.8s-1.19.705-2.078 1.567c-.888.862-1.72 1.462-1.848 1.333-.129-.128-.248.112-.266.533-.018.452-.116.555-.238.251-.156-.388-.373-.337-.869.204-.363.396-1.381 1.25-2.261 1.896-.88.646-1.87 1.454-2.2 1.795-.33.342-.833.669-1.118.727-.286.059-1.591 1.175-2.9 2.48-1.31 1.306-2.382 2.192-2.382 1.968 0-.223-1.979 1.63-4.398 4.12-2.419 2.489-4.534 4.66-4.7 4.823-.166.164-2.417 2.365-5.002 4.892-2.585 2.526-4.7 4.773-4.7 4.992 0 .219-.808 1.206-1.795 2.193-.987.987-1.842 2.018-1.9 2.292-.058.274-.465.884-.905 1.357-1.46 1.569-2.6 2.98-2.6 3.22 0 .13-.54.74-1.2 1.357-.66.617-1.2 1.369-1.2 1.672 0 .303-.36.811-.8 1.128-.44.317-.8.807-.8 1.088 0 .282-.18.512-.4.512-.22 0-.4.23-.4.512 0 .281-.36.771-.8 1.088-.44.317-.8.831-.8 1.141 0 .311-.388.901-.861 1.312-.474.411-.635.747-.358.747s-.055.522-.739 1.16c-.683.639-1.242 1.409-1.242 1.712 0 .303-.36.811-.8 1.128-.44.317-.8.807-.8 1.088 0 .282-.18.512-.4.512-.22 0-.4.236-.4.525 0 .288-.36.911-.8 1.383-.44.472-.8 1.049-.8 1.281 0 .526-.878 2.122-1.358 2.471-.197.142-.26.515-.14.828.12.313-.124.783-.542 1.044-.418.261-.76.833-.76 1.271 0 .439-.18.797-.4.797-.22 0-.4.371-.4.824 0 .453-.18.712-.4.576-.227-.14-.4.196-.4.776 0 .563-.18 1.024-.4 1.024-.22 0-.403.405-.406.9-.005.728-.08.785-.394.3-.301-.466-.389-.347-.394.529-.006 1.138-.9 2.444-1.358 1.985-.137-.136-.248.333-.248 1.043 0 .758-.165 1.188-.4 1.043-.339-.209-.484.268-.374 1.23.015.127-.345.553-.8.947-.454.394-.826 1.101-.826 1.57 0 .469-.18.853-.4.853-.22 0-.4.551-.4 1.224 0 .713-.167 1.12-.4.976-.22-.136-.4.123-.4.576 0 .453-.191.824-.424.824-.233 0-.328.153-.212.341.116.188-.048.683-.364 1.1-.316.417-.58 1.164-.587 1.659-.007.495-.193.9-.413.9-.22 0-.4.36-.4.8 0 .44-.18.8-.4.8-.22 0-.4.45-.4 1s-.147 1-.328 1c-.339 0-1.549 3.968-1.372 4.5.055.165-.08.3-.3.3-.22 0-.4.54-.4 1.2 0 .66-.18 1.2-.4 1.2-.22 0-.4.324-.4.72 0 .396-.168.891-.373 1.1-.205.209-.495 1.46-.644 2.78-.15 1.32-.432 2.46-.628 2.533-.195.074-.355.569-.355 1.1 0 .532-.18.967-.4.967-.22 0-.4.529-.4 1.176 0 .647-.18 1.288-.4 1.424-.22.136-.4 1.047-.4 2.024 0 .977-.18 1.776-.4 1.776-.22 0-.4.54-.4 1.2 0 .66-.18 1.2-.4 1.2-.22 0-.4.9-.4 2s-.18 2-.4 2c-.22 0-.4.619-.4 1.376 0 .757-.18 1.488-.4 1.624-.22.136-.4 1.396-.4 2.8s-.18 2.664-.4 2.8c-.22.136-.4.856-.4 1.6 0 .744-.199 1.476-.443 1.626-.309.192-.279.389.1.654.422.296.432.426.043.584-.331.134-.5 1.124-.5 2.936 0 1.831-.165 2.788-.5 2.9-.732.244-.732 49.156 0 49.4.336.112.5 1.076.5 2.933 0 1.578.172 2.767.4 2.767.22 0 .4.911.4 2.024 0 1.247.153 1.928.4 1.776.252-.156.4.788.4 2.553 0 1.54.18 2.911.4 3.047.22.136.4.867.4 1.624 0 .757.146 1.376.325 1.376.179 0 .369.855.422 1.9.053 1.045.266 1.96.474 2.033.209.074.379.659.379 1.3 0 .642.18 1.167.4 1.167.22 0 .4.731.4 1.624 0 1.048.151 1.53.427 1.359.234-.145.393-.02.352.277-.194 1.413.057 3.165.421 2.94.233-.144.4.263.4.976 0 .673.154 1.224.343 1.224.189 0 .46 1.125.604 2.5.143 1.375.439 2.56.657 2.633.218.074.396.569.396 1.1 0 .532.141.967.313.967.172 0 .35.455.396 1.012.046.557.446 1.761.888 2.675.441.915.803 2.079.803 2.588 0 .509.18.925.4.925.22 0 .403.495.406 1.1.005.857.092.968.394.5.294-.455.389-.286.394.7.003.715.186 1.3.406 1.3.22 0 .4.416.4.925 0 .508.355 1.305.788 1.77.555.595.644.905.3 1.044-.376.152-.373.205.012.229.275.018.5.392.5.832 0 .44.141.8.313.8.172 0 .552.81.844 1.8.292.99.691 1.8.887 1.8.196 0 .356.371.356.824 0 .453.18.712.4.576.22-.136.4.123.4.576 0 .453.225.827.5.83.333.004.3.136-.1.394-.33.213-.409.391-.175.394.234.003.673.636.975 1.406.302.77.696 1.4.875 1.4.179 0 .328.405.331.9.005.728.08.785.394.3.314-.485.389-.428.394.3.003.495.231.903.506.906.333.004.3.136-.1.394s-.433.39-.1.394c.275.003.5.242.5.531 0 .288.36.911.8 1.383.44.472.8 1.091.801 1.375.001.284.631 1.561 1.4 2.837.769 1.276 1.399 2.499 1.399 2.717 0 .218.36.783.8 1.255.44.472.8 1.095.8 1.383 0 .289.18.525.4.525.22 0 .4.23.4.512 0 .281.36.771.8 1.088.44.317.8.857.8 1.2 0 .343.36.883.8 1.2.44.317.803.942.806 1.388.005.671.074.708.394.212.314-.485.389-.428.394.3.003.495.186.9.406.9.22 0 .4.32.4.712 0 .391.36.971.8 1.288.44.317.8.785.8 1.04s.72 1.205 1.6 2.112c.88.907 1.6 1.879 1.6 2.16 0 .281.36.771.8 1.088.44.317.8.807.8 1.088 0 .282.18.512.4.512.22 0 .4.183.4.407 0 .224.585.992 1.3 1.707.715.715 1.345 1.521 1.399 1.79.054.269.999 1.409 2.1 2.533 1.101 1.124 2.001 2.212 2.001 2.416 0 .205 2.025 2.349 4.5 4.764 5.521 5.389 5.044 4.912 9.882 9.883 2.195 2.255 4.155 4.1 4.356 4.1.201 0 1.107.72 2.014 1.6.907.88 1.964 1.603 2.348 1.606.508.005.561.094.192.328-.364.232-.196.484.597.894.608.315 1.697 1.157 2.421 1.872.724.715 1.515 1.3 1.756 1.3.242 0 .776.388 1.187.861.411.474.747.655.747.402 0-.252.918.44 2.041 1.539 1.122 1.099 2.252 1.998 2.511 1.998.259 0 .731.36 1.048.8.317.44.897.8 1.288.8.392 0 .712.18.712.4 0 .22.32.4.712.4.391 0 .971.36 1.288.8.317.44.857.8 1.2.8.343 0 .883.36 1.2.8.317.44.885.8 1.261.8.377 0 .799.36.939.8.14.44.562.8.939.8.376 0 .944.36 1.261.8.317.44.852.804 1.188.809.337.005 1.062.361 1.612.791.55.43 1.238.786 1.529.791.29.005.798.279 1.128.609.33.33.947.6 1.372.6.424 0 .771.18.771.4 0 .22.36.4.8.4.44 0 .8.18.8.4 0 .22.36.4.8.4.44 0 .8.18.8.4 0 .22.294.4.653.4.359 0 .944.316 1.3.703.356.386 1.187.971 1.847 1.299.66.328 1.332.777 1.494.997.182.249.296.211.3-.099.01-.794.727-.58 1.006.3.14.44.591.8 1.003.8.413 0 .861.18.997.4.136.22.687.4 1.224.4.537 0 .976.18.976.4 0 .22.36.4.8.4.44 0 .8.18.8.4 0 .22.5.4 1.112.4.653 0 1.349.33 1.688.8.339.47 1.035.8 1.688.8.612 0 1.112.18 1.112.4 0 .22.641.4 1.424.4.847 0 1.323.162 1.176.4-.136.22.018.4.343.4s.65.163.724.362c.073.199.673.424 1.333.5l1.2.138.098-188.5c.054-103.675.019-188.5-.076-188.5-.096 0-.286.18-.422.4" fill="#6ca444"/><path d="M178.3.275c-1.925.086-3.5.329-3.5.541 0 .211-1.339.384-2.976.384s-3.088.18-3.224.4c-.136.22-1.137.4-2.224.4-1.087 0-1.976.18-1.976.4 0 .22-.99.4-2.2.4-1.21 0-2.2.18-2.2.4 0 .22-.799.4-1.776.4s-1.888.18-2.024.4c-.136.22-.957.4-1.824.4-.867 0-1.576.18-1.576.4 0 .22-.72.4-1.6.4-.88 0-1.6.18-1.6.4 0 .22-.529.4-1.176.4-.647 0-1.288.18-1.424.4-.136.22-.766.4-1.4.4-.634 0-1.264.18-1.4.4-.136.22-.867.4-1.624.4-.757 0-1.376.157-1.376.348 0 .192-.893.467-1.984.612-1.091.145-2.091.438-2.223.652-.132.213-.74.388-1.35.388-.61 0-1.232.122-1.381.271-.149.15-1.081.555-2.07.9l-1.799.629-.096 188.67-.097 188.67 1.132.226c.622.125 1.702.476 2.4.781 1.972.861 5.459 1.853 6.514 1.853.525 0 .954.18.954.4 0 .22.63.4 1.4.4.77 0 1.4.18 1.4.4 0 .22.529.4 1.176.4.647 0 1.288.18 1.424.4.136.22.967.4 1.847.4.965 0 1.502.159 1.353.4-.149.241.388.4 1.353.4.88 0 1.711.18 1.847.4.136.22.856.4 1.6.4.744 0 1.464.18 1.6.4.136.22 1.047.4 2.024.4.977 0 1.776.18 1.776.4 0 .22.99.4 2.2.4 1.21 0 2.2.18 2.2.4 0 .22.979.4 2.176.4s2.288.18 2.424.4c.136.22 1.482.4 2.99.4 1.839 0 2.798.165 2.91.5.244.732 49.956.732 50.2 0 .112-.335 1.071-.5 2.91-.5 1.508 0 2.854-.18 2.99-.4.136-.22 1.216-.4 2.4-.4s2.264-.18 2.4-.4c.136-.22 1.036-.4 2-.4s1.864-.18 2-.4c.136-.22.946-.4 1.8-.4.854 0 1.664-.18 1.8-.4.136-.22 1.047-.4 2.024-.4.977 0 1.776-.18 1.776-.4 0-.22.72-.4 1.6-.4.88 0 1.6-.18 1.6-.4 0-.22.619-.4 1.376-.4.757 0 1.488-.18 1.624-.4.136-.22.777-.4 1.424-.4.647 0 1.176-.18 1.176-.4 0-.22.63-.4 1.4-.4.77 0 1.4-.159 1.4-.354 0-.195.987-.477 2.194-.628 1.206-.151 2.297-.441 2.423-.646.127-.205.659-.372 1.183-.372s1.064-.18 1.2-.4c.136-.22.576-.4.978-.4s1.201-.244 1.777-.543l1.046-.543.001-188.513.001-188.514-1.047-.544c-.576-.298-1.299-.543-1.607-.543-.308 0-.872-.163-1.254-.363-1.142-.597-4.917-1.637-5.941-1.637-.525 0-.954-.18-.954-.4 0-.22-.619-.4-1.376-.4-.757 0-1.488-.18-1.624-.4-.136-.22-.676-.4-1.2-.4-.524 0-1.064-.18-1.2-.4-.136-.22-.867-.4-1.624-.4-.757 0-1.376-.18-1.376-.4 0-.22-.72-.4-1.6-.4-.88 0-1.6-.18-1.6-.4 0-.22-.709-.4-1.576-.4-.867 0-1.688-.18-1.824-.4-.136-.22-1.047-.4-2.024-.4-.977 0-1.776-.18-1.776-.4 0-.22-.9-.4-2-.4s-2-.18-2-.4c0-.222-1.059-.4-2.376-.4-1.307 0-2.488-.18-2.624-.4-.136-.22-1.482-.4-2.99-.4-1.817 0-2.799-.166-2.907-.492-.162-.486-37.812-.834-46.803-.433m217.3 156.501c0 .453.18.824.4.824.22 0 .4-.259.4-.576 0-.317-.18-.688-.4-.824-.22-.136-.4.123-.4.576M2 164.824c0 .453.18.712.4.576.519-.321.519-1.4 0-1.4-.22 0-.4.371-.4.824m.212 70.093c-.171.395-.199.83-.061.967.406.406.733-.164.546-.953-.165-.698-.187-.699-.485-.014M395.6 243.2c0 .747.107.853.48.48s.373-.587 0-.96-.48-.267-.48.48M78.806 359.871c.012.613.749 1.507 1.02 1.236.148-.148-.022-.56-.378-.917-.357-.356-.645-.499-.642-.319" fill="#f4f4f4"/></g></svg>