<svg xmlns="http://www.w3.org/2000/svg" width="400" height="400"><g fill-rule="evenodd"><path d="M189.6 113.644c-8.047 1.278-10.759 1.896-16.6 3.78-27.154 8.763-49.291 31.749-56.606 58.776-1.456 5.381-1.565 5.92-2.787 13.833-.526 3.403-.526 16.531 0 19.934.991 6.42 1.344 8.37 1.885 10.433.318 1.21.72 2.773.895 3.473 6.677 26.807 32.847 53.017 59.613 59.707.77.193 2.39.617 3.6.942 1.21.326 3.55.81 5.2 1.075 1.65.266 3.978.645 5.173.843 2.817.466 17.237.466 20.054 0 1.195-.198 3.523-.576 5.173-.84 28.44-4.549 56.635-27.562 65.751-53.666.333-.954.96-2.724 1.393-3.934 1.133-3.168 2.698-9.319 3.256-12.8.264-1.65.642-3.978.84-5.173.466-2.817.466-17.237 0-20.054-.198-1.195-.577-3.523-.843-5.173-1.718-10.671-6.735-23.233-13.098-32.8-11.352-17.065-30.382-30.987-48.699-35.627-.66-.167-2.19-.563-3.4-.881-2.063-.541-4.013-.894-10.433-1.885-3.136-.485-17.243-.459-20.367.037" fill="#dc0424"/><path d="M178.3.275c-1.925.086-3.5.329-3.5.541 0 .211-1.339.384-2.976.384s-3.088.18-3.224.4c-.136.22-1.137.4-2.224.4-1.087 0-1.976.18-1.976.4 0 .22-.99.4-2.2.4-1.21 0-2.2.18-2.2.4 0 .22-.799.4-1.776.4s-1.888.18-2.024.4c-.136.22-.957.4-1.824.4-.867 0-1.576.18-1.576.4 0 .22-.72.4-1.6.4-.88 0-1.6.18-1.6.4 0 .22-.529.4-1.176.4-.647 0-1.288.18-1.424.4-.136.22-.766.4-1.4.4-.634 0-1.264.18-1.4.4-.136.22-.867.4-1.624.4-.757 0-1.376.18-1.376.4 0 .22-.429.4-.954.4-.891 0-4.228.885-6.046 1.603-.44.174-1.43.533-2.2.797-1.693.582-3.16 1.171-4.095 1.647-.382.194-1.057.353-1.5.353-.443 0-.805.18-.805.4 0 .22-.36.4-.8.4-.44 0-.8.18-.8.4 0 .22-.439.4-.976.4-.537 0-1.088.18-1.224.4-.136.22-.597.4-1.024.4-.427 0-.776.18-.776.4 0 .22-.36.4-.8.4-.44 0-.8.18-.8.4 0 .22-.272.4-.605.4-.333 0-.918.167-1.3.372-.382.204-2.315 1.147-4.295 2.095-1.98.948-3.66 1.861-3.733 2.028-.074.168-.479.305-.9.305-.422 0-.767.18-.767.4 0 .22-.36.4-.8.4-.44 0-.8.18-.8.4 0 .22-.32.4-.712.4-.391 0-.971.36-1.288.8-.317.44-.828.8-1.134.8-.651 0-4.603 2.059-4.799 2.5-.074.165-.311.3-.528.3-.217 0-1.18.54-2.139 1.2-.959.66-1.897 1.2-2.084 1.2-.187 0-.599.36-.916.8-.317.44-.857.8-1.2.8-.343 0-.883.36-1.2.8-.317.44-.857.8-1.2.8-.343 0-.883.36-1.2.8-.317.44-.809.8-1.092.8-.283 0-1.08.54-1.771 1.2-.691.66-1.459 1.2-1.708 1.2-.249 0-.712.36-1.029.8-.317.44-.825.8-1.128.8-.303 0-1.055.54-1.672 1.2-.617.66-1.253 1.2-1.414 1.2-.16 0-.628.388-1.039.861-.411.474-.747.736-.747.582 0-.154-.458.179-1.018.739s-1.17 1.018-1.355 1.018c-.186 0-1.123.769-2.082 1.71-.96.94-2.375 2.152-3.145 2.693-.77.541-3.161 2.787-5.313 4.99-4.705 4.818-3.676 3.789-8.494 8.494-2.203 2.152-4.451 4.541-4.994 5.308-.544.767-1.846 2.27-2.894 3.34C44.857 72.005 44 73.051 44 73.259c0 .207-.405.811-.9 1.34-1.369 1.464-1.9 2.141-1.9 2.424 0 .141-.54.76-1.2 1.377-.66.617-1.2 1.343-1.2 1.614 0 .27-.316.783-.703 1.139-.386.356-.957 1.142-1.267 1.747-.311.605-.715 1.1-.898 1.1-.182 0-.332.281-.332.624 0 .369-.188.507-.462.338-.276-.171-.353-.111-.192.15.148.24-.184.89-.738 1.444-.555.554-1.008 1.286-1.008 1.626 0 .34-.15.618-.332.618-.183 0-.587.495-.898 1.1-.31.605-.881 1.391-1.267 1.747-.387.356-.703.773-.703.928 0 .154-.54 1.066-1.2 2.025-.66.959-1.2 1.922-1.2 2.139 0 .217-.157.454-.349.528-.442.168-2.451 4.129-2.451 4.831 0 .289-.36.785-.8 1.102-.44.317-.8.897-.8 1.288 0 .392-.18.712-.4.712-.22 0-.4.36-.4.8 0 .44-.18.8-.4.8-.22 0-.4.345-.4.767 0 .421-.135.826-.3.9-.44.195-2.1 3.511-2.1 4.194 0 .323-.18.475-.4.339-.22-.136-.4.113-.4.553 0 .44-.18.911-.4 1.047-.22.136-.4.597-.4 1.024 0 .427-.18.776-.4.776-.22 0-.4.45-.4 1s-.18 1-.4 1c-.22 0-.4.36-.4.8 0 .44-.18.8-.4.8-.22 0-.4.349-.4.776 0 .427-.18.888-.4 1.024-.22.136-.4.687-.4 1.224 0 .537-.18.976-.4.976-.22 0-.4.36-.4.8 0 .44-.18.8-.4.8-.22 0-.4.362-.4.805 0 .443-.159 1.118-.353 1.5-.195.382-.576 1.235-.847 1.895-.271.66-.652 1.513-.847 1.895-.194.382-.353.969-.353 1.305 0 .336-.163.923-.363 1.305-.597 1.142-1.637 4.917-1.637 5.941 0 .525-.18.954-.4.954-.22 0-.4.619-.4 1.376 0 .757-.18 1.488-.4 1.624-.22.136-.4.676-.4 1.2 0 .524-.18 1.064-.4 1.2-.22.136-.4.867-.4 1.624 0 .757-.18 1.376-.4 1.376-.22 0-.4.72-.4 1.6 0 .88-.18 1.6-.4 1.6-.22 0-.4.709-.4 1.576 0 .867-.18 1.688-.4 1.824-.22.136-.4 1.047-.4 2.024 0 .977-.18 1.776-.4 1.776-.22 0-.4.9-.4 2s-.18 2-.4 2c-.222 0-.4 1.059-.4 2.376 0 1.307-.18 2.488-.4 2.624-.22.136-.4 1.371-.4 2.744 0 1.463-.207 2.703-.5 2.996-.389.389-.5 6.003-.5 25.347 0 19.521.107 24.882.5 25.013.335.112.5 1.071.5 2.91 0 1.508.18 2.854.4 2.99.22.136.4 1.317.4 2.624 0 1.317.178 2.376.4 2.376.22 0 .4.9.4 2s.18 2 .4 2c.22 0 .4.799.4 1.776s.18 1.888.4 2.024c.22.136.4.957.4 1.824 0 .867.18 1.576.4 1.576.22 0 .4.72.4 1.6 0 .88.18 1.6.4 1.6.22 0 .4.619.4 1.376 0 .757.18 1.488.4 1.624.22.136.4.777.4 1.424 0 .647.18 1.176.4 1.176.22 0 .4.63.4 1.4 0 .77.18 1.4.4 1.4.22 0 .4.429.4.954 0 .893.889 4.243 1.605 6.046.174.44.709 1.88 1.188 3.2.479 1.32 1.037 2.713 1.239 3.095.202.382.368 1.057.368 1.5 0 .443.18.805.4.805.22 0 .4.36.4.8 0 .44.18.8.4.8.22 0 .4.439.4.976 0 .537.18 1.088.4 1.224.22.136.4.597.4 1.024 0 .427.18.776.4.776.22 0 .4.36.4.8 0 .44.18.8.4.8.22 0 .4.272.4.605 0 .333.162.918.359 1.3.198.382 1.141 2.315 2.096 4.295.956 1.98 1.874 3.66 2.041 3.733.167.074.304.479.304.9 0 .422.18.767.4.767.22 0 .4.36.4.8 0 .44.18.8.4.8.22 0 .4.236.4.525 0 .288.36.911.8 1.383.44.472.8 1.047.8 1.278 0 .557 2.117 4.577 2.5 4.747.165.074.3.311.3.528 0 .217.54 1.18 1.2 2.139.66.959 1.2 1.897 1.2 2.084 0 .187.36.599.8.916.44.317.8.857.8 1.2 0 .343.36.883.8 1.2.44.317.8.857.8 1.2 0 .343.36.883.8 1.2.44.317.8.809.8 1.092 0 .283.54 1.08 1.2 1.771.66.691 1.2 1.459 1.2 1.708 0 .249.36.712.8 1.029.44.317.8.825.8 1.128 0 .303.496 1.028 1.101 1.612.606.583 1.634 1.78 2.286 2.66.651.88 1.416 1.838 1.699 2.129.282.29.514.683.514.873 0 .19.855 1.244 1.9 2.343 2.341 2.461 3.699 4.055 3.456 4.055-.101 0 1.667 1.806 3.93 4.013 4.933 4.812 3.885 3.764 8.601 8.594 2.152 2.203 4.543 4.451 5.313 4.994.77.544 2.17 1.756 3.111 2.694.94.938 1.863 1.705 2.049 1.705.187 0 1.027.63 1.868 1.4.841.77 1.667 1.4 1.837 1.4.17 0 .938.63 1.708 1.4.77.77 1.637 1.4 1.925 1.4.289 0 .785.36 1.102.8.317.44.78.8 1.029.8.249 0 1.017.54 1.708 1.2.691.66 1.488 1.2 1.771 1.2.283 0 .775.36 1.092.8.317.44.857.8 1.2.8.343 0 .883.36 1.2.8.317.44.857.8 1.2.8.343 0 .883.36 1.2.8.317.44.897.8 1.288.8.392 0 .712.152.712.337 0 .186.81.754 1.8 1.263.99.509 1.8 1.077 1.8 1.263 0 .185.197.337.438.337s.927.348 1.525.773c.597.426 1.609.905 2.248 1.066.639.16 1.517.622 1.951 1.026.434.404 1.025.735 1.313.735.289 0 .525.18.525.4 0 .22.36.4.8.4.44 0 .8.18.8.4 0 .22.36.4.8.4.44 0 .8.18.8.4 0 .22.345.4.767.4.421 0 .826.135.9.3.073.165 1.033.725 2.133 1.244s2.313 1.104 2.695 1.3c.382.196.967.356 1.3.356.333 0 .605.18.605.4 0 .22.36.4.8.4.44 0 .8.18.8.4 0 .22.265.4.588.4.323 0 1.229.36 2.012.8.783.44 1.779.8 2.212.8.433 0 .788.18.788.4 0 .22.349.4.776.4.427 0 .888.18 1.024.4.136.22.687.4 1.224.4.537 0 .976.18.976.4 0 .22.324.4.72.4.396 0 .891.143 1.1.318.209.175 1.1.547 1.98.827.88.279 1.96.656 2.4.838 1.684.695 5.133 1.617 6.046 1.617.525 0 .954.18.954.4 0 .22.63.4 1.4.4.77 0 1.4.18 1.4.4 0 .22.529.4 1.176.4.647 0 1.288.18 1.424.4.136.22.967.4 1.847.4.965 0 1.502.159 1.353.4-.149.241.388.4 1.353.4.88 0 1.711.18 1.847.4.136.22.856.4 1.6.4.744 0 1.464.18 1.6.4.136.22 1.047.4 2.024.4.977 0 1.776.18 1.776.4 0 .22.99.4 2.2.4 1.21 0 2.2.18 2.2.4 0 .22.979.4 2.176.4s2.288.18 2.424.4c.136.22 1.482.4 2.99.4 1.839 0 2.798.165 2.91.5.244.732 49.956.732 50.2 0 .112-.335 1.071-.5 2.91-.5 1.508 0 2.854-.18 2.99-.4.136-.22 1.216-.4 2.4-.4s2.264-.18 2.4-.4c.136-.22 1.036-.4 2-.4s1.864-.18 2-.4c.136-.22.946-.4 1.8-.4.854 0 1.664-.18 1.8-.4.136-.22 1.047-.4 2.024-.4.977 0 1.776-.18 1.776-.4 0-.22.72-.4 1.6-.4.88 0 1.6-.18 1.6-.4 0-.22.619-.4 1.376-.4.757 0 1.488-.18 1.624-.4.136-.22.777-.4 1.424-.4.647 0 1.176-.18 1.176-.4 0-.22.63-.4 1.4-.4.77 0 1.4-.159 1.4-.354 0-.195.987-.477 2.194-.628 1.206-.151 2.297-.441 2.423-.646.127-.205.659-.372 1.183-.372s1.064-.18 1.2-.4c.136-.22.599-.4 1.029-.4.43 0 1.094-.159 1.476-.353.382-.195 1.19-.555 1.795-.8.605-.246 1.595-.648 2.2-.894.605-.245 1.413-.605 1.795-.8.382-.194.952-.353 1.266-.353.315 0 .632-.178.706-.397.073-.218.628-.437 1.233-.487.605-.05 1.1-.231 1.1-.403 0-.172.36-.313.8-.313.44 0 .8-.18.8-.4 0-.22.36-.4.8-.4.44 0 .8-.18.8-.4 0-.22.272-.4.605-.4.588 0 1.013-.167 2.89-1.138.492-.254 1.167-.462 1.5-.462.333 0 .606-.135.606-.3.001-.165.991-.75 2.199-1.3 1.208-.55 2.198-1.135 2.199-1.3 0-.165.361-.3.801-.3.44 0 .8-.18.8-.4 0-.22.36-.4.8-.4.44 0 .8-.18.8-.4 0-.22.236-.4.525-.4.288 0 .911-.36 1.383-.8.472-.44 1.067-.8 1.321-.8.582 0 4.524-2.095 4.704-2.5.074-.165.29-.3.48-.3.191 0 1.147-.54 2.125-1.2.978-.66 1.937-1.2 2.132-1.2.194 0 .613-.36.93-.8.317-.44.857-.8 1.2-.8.343 0 .883-.36 1.2-.8.317-.44.857-.8 1.2-.8.343 0 .883-.36 1.2-.8.317-.44.762-.8.988-.801.227 0 1.042-.54 1.812-1.199s1.585-1.199 1.812-1.199c.226-.001.671-.361.988-.801.317-.44.772-.8 1.01-.8.239 0 1.121-.63 1.962-1.4.841-.77 1.651-1.4 1.8-1.4.149 0 .959-.63 1.8-1.4.841-.77 1.681-1.4 1.868-1.4.186 0 1.112-.765 2.057-1.7.944-.935 2.418-2.226 3.274-2.869.857-.643 3.22-2.867 5.252-4.942 2.032-2.074 3.848-3.927 4.036-4.117.187-.191 2.144-2.107 4.348-4.259 2.203-2.152 4.451-4.543 4.994-5.313.544-.77 1.756-2.17 2.694-3.111.938-.94 1.705-1.866 1.705-2.057 0-.191.495-.903 1.1-1.581 1.749-1.963 2.1-2.403 2.1-2.638 0-.121.54-.785 1.2-1.476.66-.691 1.2-1.459 1.2-1.708 0-.249.36-.712.8-1.029.44-.317.8-.78.8-1.029 0-.249.54-1.017 1.2-1.708.66-.691 1.2-1.488 1.2-1.771 0-.283.36-.775.8-1.092.44-.317.8-.897.8-1.288 0-.392.15-.712.332-.712.183 0 .587-.495.898-1.1.31-.605.881-1.391 1.267-1.747.387-.356.703-.926.703-1.267 0-.34.135-.679.3-.753.455-.202 2.1-2.643 2.1-3.117 0-.229.18-.416.4-.416.22 0 .4-.36.4-.8 0-.44.147-.8.326-.8.348 0 1.674-2.558 1.674-3.23 0-.222.36-.79.8-1.262.44-.472.8-1.095.8-1.383 0-.289.18-.525.4-.525.22 0 .4-.36.4-.8 0-.44.18-.8.4-.8.22 0 .4-.345.4-.767 0-.421.137-.826.304-.9.167-.073 1.085-1.753 2.041-3.733.955-1.98 1.898-3.913 2.096-4.295.197-.382.359-.967.359-1.3 0-.333.18-.605.4-.605.22 0 .4-.36.4-.8 0-.44.18-.8.4-.8.22 0 .4-.349.4-.776 0-.427.18-.888.4-1.024.22-.136.4-.687.4-1.224 0-.537.18-.976.4-.976.22 0 .4-.272.4-.605 0-.333.159-.918.353-1.3.195-.382.555-1.19.8-1.795.246-.605.615-1.505.821-2 .205-.495.602-1.62.881-2.5.28-.88.652-1.771.827-1.98.175-.209.318-.783.318-1.276s.167-1 .372-1.127c.205-.126.495-1.217.646-2.423.151-1.207.433-2.194.628-2.194s.354-.63.354-1.4c0-.77.18-1.4.4-1.4.22 0 .4-.529.4-1.176 0-.647.18-1.288.4-1.424.22-.136.4-.856.4-1.6 0-.744.18-1.464.4-1.6.22-.136.4-.867.4-1.624 0-.757.18-1.376.4-1.376.22 0 .4-.709.4-1.576 0-.867.18-1.688.4-1.824.22-.136.4-1.047.4-2.024 0-.977.18-1.776.4-1.776.22 0 .4-.889.4-1.976s.18-2.088.4-2.224c.22-.136.4-1.216.4-2.4s.18-2.264.4-2.4c.22-.136.4-1.482.4-2.99 0-1.839.165-2.798.5-2.91.393-.131.5-5.509.5-25.1s-.107-24.969-.5-25.1c-.335-.112-.5-1.071-.5-2.91 0-1.508-.18-2.854-.4-2.99-.22-.136-.4-1.216-.4-2.4s-.18-2.264-.4-2.4c-.22-.136-.4-1.137-.4-2.224 0-1.087-.18-1.976-.4-1.976-.22 0-.4-.799-.4-1.776s-.18-1.888-.4-2.024c-.22-.136-.4-.957-.4-1.824 0-.867-.18-1.576-.4-1.576-.22 0-.4-.619-.4-1.376 0-.757-.18-1.488-.4-1.624-.22-.136-.4-.856-.4-1.6 0-.744-.18-1.464-.4-1.6-.22-.136-.4-.777-.4-1.424 0-.647-.18-1.176-.4-1.176-.22 0-.4-.63-.4-1.4 0-.77-.159-1.4-.354-1.4-.195 0-.477-.987-.628-2.194-.151-1.206-.441-2.297-.646-2.423-.205-.127-.372-.634-.372-1.127s-.143-1.067-.318-1.276c-.175-.209-.547-1.1-.827-1.98-.279-.88-.7-2.05-.935-2.6-.235-.55-.604-1.45-.82-2-.216-.55-.552-1.313-.747-1.695-.194-.382-.353-.967-.353-1.3 0-.333-.18-.605-.4-.605-.22 0-.4-.439-.4-.976 0-.537-.18-1.088-.4-1.224-.22-.136-.4-.597-.4-1.024 0-.427-.18-.776-.4-.776-.22 0-.4-.36-.4-.8 0-.44-.18-.8-.4-.8-.22 0-.4-.36-.4-.8 0-.44-.18-.8-.4-.8-.22 0-.399-.315-.397-.7.004-.775-3.217-7.422-3.699-7.633-.167-.074-.304-.479-.304-.9 0-.422-.18-.767-.4-.767-.22 0-.4-.36-.4-.8 0-.44-.18-.8-.4-.8-.22 0-.4-.236-.4-.525 0-.288-.331-.879-.735-1.313-.404-.434-.866-1.312-1.026-1.951-.161-.639-.64-1.651-1.066-2.248-.425-.598-.773-1.284-.773-1.525 0-.241-.18-.438-.4-.438-.22 0-.4-.193-.4-.428s-.54-1.213-1.2-2.172c-.66-.959-1.2-1.897-1.2-2.084 0-.187-.36-.599-.8-.916-.44-.317-.8-.857-.8-1.2 0-.343-.36-.883-.8-1.2-.44-.317-.8-.857-.8-1.2 0-.343-.36-.883-.8-1.2-.44-.317-.8-.857-.8-1.2 0-.343-.36-.883-.8-1.2-.44-.317-.8-.78-.8-1.029 0-.249-.54-1.017-1.2-1.708-.66-.691-1.2-1.455-1.2-1.699s-.54-.947-1.2-1.564c-.66-.617-1.2-1.274-1.2-1.461 0-.186-.72-1.127-1.6-2.09-.88-.962-1.6-1.903-1.6-2.089 0-.186-.767-1.109-1.705-2.049-.938-.941-2.15-2.341-2.694-3.111-.543-.77-2.791-3.161-4.994-5.313-4.818-4.705-3.789-3.676-8.494-8.494-2.152-2.203-4.541-4.451-5.308-4.994-.767-.544-2.27-1.846-3.34-2.894-1.07-1.048-2.116-1.905-2.324-1.905-.207 0-.811-.405-1.34-.9-1.464-1.369-2.141-1.9-2.424-1.9-.141 0-.76-.54-1.377-1.2-.617-.66-1.32-1.2-1.564-1.2s-1.008-.54-1.699-1.2c-.691-.66-1.459-1.2-1.708-1.2-.249 0-.712-.36-1.029-.8-.317-.44-.857-.8-1.2-.8-.343 0-.883-.36-1.2-.8-.317-.44-.857-.8-1.2-.8-.343 0-.883-.36-1.2-.8-.317-.44-.857-.8-1.2-.8-.343 0-.883-.36-1.2-.8-.317-.44-.729-.8-.916-.8-.187 0-1.125-.54-2.084-1.2-.959-.66-1.922-1.2-2.139-1.2-.217 0-.454-.135-.528-.3-.18-.405-4.122-2.5-4.704-2.5-.254 0-.849-.36-1.321-.8-.472-.44-1.095-.8-1.383-.8-.289 0-.525-.18-.525-.4 0-.22-.36-.4-.8-.4-.44 0-.8-.18-.8-.4 0-.22-.36-.4-.8-.4-.44 0-.801-.135-.801-.3-.001-.165-.991-.75-2.199-1.3-1.208-.55-2.198-1.135-2.199-1.3 0-.165-.273-.3-.606-.3-.588 0-1.013-.167-2.89-1.138-.492-.254-1.167-.462-1.5-.462-.333 0-.605-.18-.605-.4 0-.22-.36-.4-.8-.4-.44 0-.8-.18-.8-.4 0-.22-.36-.4-.8-.4-.44 0-.8-.18-.8-.4 0-.22-.54-.4-1.2-.4-.66 0-1.2-.18-1.2-.4 0-.22-.36-.4-.8-.4-.44 0-.8-.18-.8-.4 0-.22-.439-.4-.976-.4-.537 0-1.088-.18-1.224-.4-.136-.22-.515-.4-.843-.4-.328 0-1.341-.36-2.251-.8-.911-.44-1.895-.8-2.187-.8-.291 0-.842-.163-1.224-.363-1.142-.597-4.917-1.637-5.941-1.637-.525 0-.954-.18-.954-.4 0-.22-.63-.4-1.4-.4-.77 0-1.4-.18-1.4-.4 0-.22-.529-.4-1.176-.4-.647 0-1.288-.18-1.424-.4-.136-.22-.867-.4-1.624-.4-.757 0-1.376-.18-1.376-.4 0-.22-.72-.4-1.6-.4-.88 0-1.6-.18-1.6-.4 0-.22-.709-.4-1.576-.4-.867 0-1.688-.18-1.824-.4-.136-.22-1.047-.4-2.024-.4-.977 0-1.776-.18-1.776-.4 0-.22-.9-.4-2-.4s-2-.18-2-.4c0-.222-1.059-.4-2.376-.4-1.307 0-2.488-.18-2.624-.4-.136-.22-1.482-.4-2.99-.4-1.817 0-2.799-.166-2.907-.492-.162-.486-37.812-.834-46.803-.433m31.667 113.332c6.42.991 8.37 1.344 10.433 1.885 1.21.318 2.74.714 3.4.881 26.879 6.809 51.794 31.372 59.467 58.627 1.482 5.266 1.848 6.802 2.33 9.8.266 1.65.645 3.978.843 5.173.466 2.817.466 17.237 0 20.054-.198 1.195-.576 3.523-.84 5.173-.558 3.481-2.123 9.632-3.256 12.8-.433 1.21-1.06 2.98-1.393 3.934-9.116 26.104-37.311 49.117-65.751 53.666-1.65.264-3.978.642-5.173.84-2.817.466-17.237.466-20.054 0-1.195-.198-3.523-.577-5.173-.843-1.65-.265-3.99-.749-5.2-1.075-1.21-.325-2.83-.749-3.6-.942-26.766-6.69-52.936-32.9-59.613-59.707-.175-.7-.577-2.263-.895-3.473-.541-2.063-.894-4.013-1.885-10.433-.526-3.403-.526-16.531 0-19.934 1.222-7.913 1.331-8.452 2.787-13.833 7.315-27.027 29.452-50.013 56.606-58.776 5.841-1.884 8.553-2.502 16.6-3.78 3.124-.496 17.231-.522 20.367-.037" fill="#f3f3f3"/></g></svg>