<svg xmlns="http://www.w3.org/2000/svg" width="400" height="400"><g fill-rule="evenodd"><path d="M83.299 83.301C70.044 96.557 59.2 107.584 59.2 107.806c0 .488 11.266 11.794 11.752 11.794.46 0 48.648-48.188 48.648-48.648 0-.494-11.31-11.752-11.806-11.752-.218 0-11.241 10.846-24.495 24.101m202.75-18.295c-5.103 5.165-5.676 5.881-5.193 6.479 1.502 1.855 17.285 17.315 17.678 17.315.251 0 3.04-2.637 6.198-5.859l5.743-5.86-8.934-8.94c-4.914-4.918-9.119-8.941-9.345-8.941-.226 0-2.992 2.613-6.147 5.806M101.7 101.723c-13.255 13.262-24.1 24.287-24.1 24.5 0 .511 11.294 11.778 11.805 11.775.519-.002 48.595-48.094 48.595-48.611 0-.52-11.29-11.789-11.805-11.782-.217.003-11.24 10.856-24.495 24.118m166.264-18.61c-2.989 3.018-5.568 5.717-5.729 5.997-.284.492 47.675 48.89 48.446 48.89.181 0 2.981-2.656 6.222-5.903l5.893-5.903-24.299-24.297c-13.365-13.363-24.479-24.291-24.698-24.284-.22.006-2.845 2.481-5.835 5.5m48.849 12.674-5.777 5.787.982 1.054c2.016 2.163 15.823 15.994 16.514 16.542.71.563 12.268-10.147 12.268-11.368 0-.53-17.279-17.802-17.809-17.802-.221 0-3.001 2.604-6.178 5.787M120.1 120.261C106.845 133.56 96 144.569 96 144.726c0 .442 11.359 11.674 11.806 11.674.523 0 48.594-48.083 48.594-48.606 0-.547-11.307-11.805-11.805-11.754-.217.022-11.24 10.922-24.495 24.221m129.2-18.533c-3.135 3.136-5.7 5.876-5.7 6.09 0 .568 17.319 17.782 17.89 17.782.735 0 11.711-10.853 11.702-11.571-.008-.667-17.195-18.039-17.824-18.015-.202.007-2.933 2.579-6.068 5.714m30.795 30.777c-3.132 3.138-5.695 5.884-5.695 6.103 0 .523 17.285 17.792 17.809 17.792.474 0 11.791-11.261 11.791-11.732 0-.475-17.329-17.862-17.805-17.865-.223-.002-2.968 2.564-6.1 5.702M165.3 200.3c19.085.057 50.315.057 69.4 0 19.085-.057 3.47-.104-34.7-.104s-53.785.047-34.7.104m-63.605 49.005c-3.132 3.138-5.695 5.847-5.695 6.021 0 .412 48.282 48.674 48.694 48.674.463 0 11.706-11.339 11.706-11.806 0-.523-48.083-48.594-48.606-48.594-.223 0-2.967 2.567-6.099 5.705m181.402 2.998c-4.784 4.787-8.697 8.929-8.697 9.205 0 .563 10.991 11.433 11.728 11.598.512.116 17.872-17.113 17.872-17.737 0-.507-11.3-11.769-11.808-11.769-.22 0-4.312 3.917-9.095 8.703M83.295 267.705c-3.132 3.138-5.695 5.883-5.695 6.101 0 .218 4.026 4.409 8.946 9.313l8.946 8.917 5.754-5.825c3.165-3.205 5.821-6.024 5.903-6.266.166-.489-17.102-17.945-17.751-17.945-.224 0-2.971 2.567-6.103 5.705m218.059 3.293-9.017 8.997 3.625 3.456c1.995 1.901 4.718 4.628 6.053 6.061l2.427 2.605 8.979-8.947c4.938-4.92 8.979-9.134 8.979-9.363 0-.476-11.247-11.807-11.719-11.807-.171 0-4.368 4.049-9.327 8.998m-49.057 12.105c-4.784 4.787-8.697 8.884-8.697 9.106 0 .509 11.279 11.791 11.789 11.791.511 0 17.81-17.293 17.81-17.805.001-.524-11.282-11.795-11.807-11.795-.22 0-4.312 3.917-9.095 8.703m-187.402 3.002c-3.132 3.138-5.695 5.883-5.695 6.101 0 .523 48.083 48.594 48.606 48.594.492 0 11.794-11.268 11.794-11.758 0-.456-48.205-48.642-48.661-48.642-.192 0-2.912 2.567-6.044 5.705m255.118 3.163c-4.847 4.877-8.813 8.983-8.813 9.123 0 .14 2.637 2.916 5.861 6.168l5.86 5.913 8.94-8.933c4.916-4.913 8.939-9.116 8.939-9.341 0-.453-11.243-11.798-11.692-11.798-.155 0-4.248 3.991-9.095 8.868m-205.918 9.237c-3.132 3.138-5.695 5.883-5.694 6.1 0 .217 4.012 4.396 8.914 9.286l8.914 8.89 5.885-5.895c3.237-3.243 5.886-6.069 5.886-6.28 0-.517-17.286-17.806-17.803-17.806-.224 0-2.97 2.567-6.102 5.705m156.66 3.087c-4.815 4.835-8.755 8.928-8.755 9.095 0 .167 2.653 2.961 5.896 6.209l5.896 5.906 8.904-8.898c4.897-4.893 8.904-9.081 8.904-9.306 0-.49-11.262-11.798-11.75-11.798-.188 0-4.28 3.956-9.095 8.792m19.021 17.925c-4.607 4.575-8.632 8.636-8.946 9.025-.561.698 10.153 12.258 11.362 12.258.221 0 4.408-4.003 9.304-8.896l8.902-8.896-5.894-5.904c-3.242-3.247-5.997-5.904-6.123-5.904-.125 0-3.998 3.743-8.605 8.317" fill="#052347"/><path d="M192 131.027c-.55.093-2.26.369-3.8.614-2.487.395-3.957.738-8.4 1.958-19.42 5.333-37.904 22.828-45.009 42.601-.807 2.245-1.039 3.006-2.017 6.6-1.002 3.683-1.625 7.83-1.85 12.3l-.246 4.9h69.238c49.27 0 69.314-.125 69.505-.433.877-1.42-1.439-15.193-3.686-21.91-5.505-16.462-17.688-30.694-33.535-39.175-2.486-1.33-6.964-3.282-7.53-3.282-.281 0-.681-.151-.89-.337-.596-.528-5.835-2.008-11.58-3.272-1.977-.435-18.266-.89-20.2-.564" fill="#dc0424"/><path d="M178.3.276c-1.925.085-3.5.328-3.5.54 0 .211-1.339.384-2.976.384s-3.088.18-3.224.4c-.136.22-1.122.4-2.19.4-1.069 0-2.003.17-2.077.378-.073.208-1.078.42-2.233.471-1.155.052-2.1.242-2.1.422 0 .181-.774.329-1.72.329s-1.891.171-2.101.381c-.209.209-1.055.426-1.88.482-.824.055-1.499.244-1.499.419s-.731.318-1.624.318c-.98 0-1.525.158-1.376.4.147.238-.321.4-1.153.4-.77 0-1.511.18-1.647.4-.136.22-.766.4-1.4.4-.634 0-1.264.18-1.4.4-.136.22-.867.4-1.624.4-.757 0-1.376.157-1.376.348 0 .192-.893.467-1.984.612-1.091.145-2.091.438-2.223.652-.132.213-.734.388-1.337.388s-1.267.143-1.476.318c-.209.175-1.1.547-1.98.827-1.674.531-3.122 1.105-4.295 1.702-.382.194-1.057.353-1.5.353-.443 0-.805.18-.805.4 0 .22-.36.4-.8.4-.44 0-.8.18-.8.4 0 .22-.439.4-.976.4-.537 0-1.088.18-1.224.4-.136.22-.597.4-1.024.4-.427 0-.776.18-.776.4 0 .22-.36.4-.8.4-.44 0-.8.18-.8.4 0 .22-.272.4-.605.4-.333 0-.918.169-1.3.375-.382.207-2.315 1.152-4.295 2.1-1.98.949-3.84 1.952-4.132 2.229-.293.277-.698.401-.9.276-.203-.125-.368-.037-.368.196s-.36.424-.8.424c-.44 0-.8.18-.8.4 0 .22-.294.4-.653.4-.359 0-.944.331-1.3.736-.356.405-1.11.85-1.676.99-.566.14-1.677.693-2.468 1.23-.791.537-1.543.871-1.67.743-.128-.128-.233-.022-.233.234 0 .257-.27.467-.6.467-.33 0-.6.159-.6.353 0 .195-.315.454-.7.576-1.042.33-3.009 1.575-3.746 2.371-.356.385-.876.7-1.154.7-.278 0-.797.316-1.153.703-.356.386-1.142.957-1.747 1.267-.605.311-1.1.715-1.1.898 0 .182-.251.332-.558.332-.306 0-1.135.54-1.842 1.2-.707.66-1.496 1.2-1.754 1.2s-.729.36-1.046.8c-.317.44-.852.802-1.188.804-.337.002-1.037.542-1.557 1.2-.52.658-1.129 1.196-1.353 1.196-.225 0-.744.388-1.155.861-.411.474-.747.736-.747.582 0-.154-.458.179-1.018.739s-1.17 1.018-1.355 1.018c-.186 0-1.123.769-2.082 1.71-.96.94-2.372 2.152-3.138 2.693-1.416 1-8.43 7.967-9.707 9.642-.385.505-.7.792-.7.638 0-.428-7.321 7.001-8.42 8.545-.533.749-1.827 2.237-2.875 3.307C44.857 72.005 44 73.051 44 73.259c0 .207-.405.811-.9 1.34-1.369 1.464-1.9 2.141-1.9 2.424 0 .141-.54.76-1.2 1.377-.66.617-1.2 1.343-1.2 1.614 0 .27-.316.783-.703 1.139-.386.356-.957 1.142-1.267 1.747-.311.605-.715 1.1-.898 1.1-.182 0-.332.281-.332.624 0 .369-.188.507-.462.338-.265-.164-.354-.111-.208.124.139.225-.193.928-.738 1.562-.545.634-.991 1.377-.992 1.652 0 .275-.15.5-.332.5-.183 0-.587.495-.898 1.1-.31.605-.836 1.37-1.167 1.701-.735.732-1.972 2.745-2.274 3.699-.122.385-.381.7-.576.7-.194 0-.353.255-.353.567 0 .311-.157.626-.349.7-.442.168-2.451 4.129-2.451 4.831 0 .289-.36.785-.8 1.102-.44.317-.8.897-.8 1.288 0 .392-.18.712-.4.712-.22 0-.4.272-.4.605 0 .577-.75 2.17-1.222 2.595-.354.318-1.978 3.947-1.978 4.419 0 .236-.18.317-.4.181-.22-.136-.4.113-.4.553 0 .44-.18.911-.4 1.047-.22.136-.4.597-.4 1.024 0 .427-.18.776-.4.776-.22 0-.4.45-.4 1s-.18 1-.4 1c-.22 0-.4.36-.4.8 0 .44-.18.8-.4.8-.22 0-.4.349-.4.776 0 .427-.18.888-.4 1.024-.22.136-.4.687-.4 1.224 0 .537-.18.976-.4.976-.22 0-.4.36-.4.8 0 .44-.18.8-.4.8-.22 0-.4.362-.4.805 0 .443-.159 1.118-.353 1.5-.195.382-.576 1.235-.847 1.895-.271.66-.652 1.513-.847 1.895-.194.382-.353.969-.353 1.305 0 .336-.158.923-.351 1.305-.699 1.385-1.293 3.7-1.05 4.093.136.221.058.402-.175.402-.233 0-.424.54-.424 1.2 0 .66-.18 1.2-.4 1.2-.22 0-.4.619-.4 1.376 0 .757-.18 1.488-.4 1.624-.22.136-.4.676-.4 1.2 0 .524-.18 1.064-.4 1.2-.22.136-.4.867-.4 1.624 0 .757-.18 1.376-.4 1.376-.22 0-.4.72-.4 1.6 0 .88-.143 1.6-.318 1.6-.175 0-.364.675-.419 1.499-.056.825-.273 1.671-.482 1.88-.21.21-.381 1.155-.381 2.101S3.42 160 3.2 160c-.22 0-.4.9-.4 2s-.18 2-.4 2c-.222 0-.4 1.059-.4 2.376 0 1.307-.18 2.488-.4 2.624-.22.136-.4 1.371-.4 2.744 0 1.463-.207 2.703-.5 2.996-.389.389-.5 6.003-.5 25.347 0 19.521.107 24.882.5 25.013.335.112.5 1.071.5 2.91 0 1.508.18 2.854.4 2.99.22.136.4 1.317.4 2.624 0 1.317.178 2.376.4 2.376.22 0 .4.9.4 2s.18 2 .4 2c.22 0 .4.799.4 1.776s.18 1.888.4 2.024c.22.136.4.957.4 1.824 0 .867.18 1.576.4 1.576.22 0 .4.72.4 1.6 0 .88.18 1.6.4 1.6.22 0 .4.619.4 1.376 0 .757.18 1.488.4 1.624.22.136.4.777.4 1.424 0 .647.18 1.176.4 1.176.22 0 .4.63.4 1.4 0 .77.18 1.4.4 1.4.22 0 .4.54.4 1.2 0 .66.199 1.2.443 1.2.243 0 .344.257.224.571-.278.723.187 2.201 2.489 7.92.684 1.7 1.244 3.455 1.244 3.9 0 .445.18.809.4.809.22 0 .4.36.4.8 0 .44.18.8.4.8.22 0 .406.405.413.9.007.495.271 1.242.587 1.659.316.417.48.912.364 1.1-.116.188-.021.341.212.341.233 0 .424.36.424.8 0 .44.18.8.4.8.22 0 .4.272.4.605 0 .333.167.918.372 1.3.204.382 1.134 2.278 2.066 4.212.932 1.935 1.845 3.611 2.028 3.724.184.113.334.556.334.983 0 .427.18.776.4.776.22 0 .4.36.4.8 0 .44.18.8.4.8.22 0 .4.236.4.525 0 .288.36.911.8 1.383.44.472.8 1.047.8 1.278 0 .557 2.117 4.577 2.5 4.747.165.074.3.311.3.528 0 .217.518 1.147 1.15 2.067.633.92 1.161 1.821 1.174 2.002.013.182.395.653.85 1.047.454.394.826.971.826 1.282 0 .31.36.824.8 1.141.44.317.8.831.8 1.141 0 .311.349.868.775 1.237.426.37.831.923.9 1.229.069.306.517.965.996 1.464s1.193 1.452 1.586 2.118c.394.666.857 1.211 1.029 1.211.173 0 .314.268.314.597 0 .328.499 1.093 1.11 1.7.61.606 1.639 1.823 2.285 2.703.647.88 1.408 1.838 1.691 2.129.282.29.514.683.514.873 0 .19.855 1.241 1.9 2.338 1.045 1.096 2.53 2.751 3.3 3.678s2.93 3.191 4.8 5.032c1.87 1.84 3.529 3.482 3.687 3.648 3.731 3.928 8.478 8.564 9.538 9.316.756.536 2.145 1.743 3.086 2.681.94.938 1.877 1.705 2.081 1.705.205 0 .83.458 1.39 1.018.56.56 1.023.875 1.03.7.007-.175.196-.003.42.382.224.385.626.7.892.7s1.022.626 1.68 1.391c.658.766 1.471 1.396 1.808 1.4.336.005.871.369 1.188.809.317.44.78.8 1.029.8.249 0 .987.495 1.639 1.1.653.605 1.434 1.156 1.734 1.225.301.069.85.474 1.22.9.369.426.926.775 1.237.775.31 0 .824.36 1.141.8.317.44.857.8 1.2.8.343 0 .883.36 1.2.8.317.44.875.8 1.239.8.365 0 .89.273 1.167.607.277.334 1.109.895 1.849 1.246s1.345.798 1.345.993c0 .195.197.354.438.354s.927.348 1.525.773c.597.426 1.609.905 2.248 1.066.639.16 1.517.622 1.951 1.026.434.404 1.025.735 1.313.735.289 0 .525.18.525.4 0 .22.234.4.52.4.736 0 2.673.941 2.677 1.3.002.165.348.3.77.3.421 0 .826.135.9.3.073.165 1.033.725 2.133 1.244s2.313 1.104 2.695 1.3c.382.196.967.356 1.3.356.333 0 .605.18.605.4 0 .22.36.4.8.4.44 0 .8.18.8.4 0 .22.265.4.588.4.323 0 1.229.36 2.012.8.783.44 1.779.8 2.212.8.433 0 .788.141.788.313 0 .172.855.563 1.9.869 1.045.305 2.44.855 3.1 1.221.66.366 1.74.799 2.4.962.66.163 1.74.53 2.4.816 1.934.837 5.414 1.819 6.446 1.819.525 0 .954.18.954.4 0 .22.63.4 1.4.4.77 0 1.4.18 1.4.4 0 .22.529.4 1.176.4.647 0 1.288.18 1.424.4.136.22.967.4 1.847.4.965 0 1.502.159 1.353.4-.149.241.388.4 1.353.4.88 0 1.711.18 1.847.4.136.22.856.4 1.6.4.744 0 1.464.18 1.6.4.136.22 1.047.4 2.024.4.977 0 1.776.148 1.776.329 0 .18.945.37 2.1.422 1.155.051 2.16.263 2.233.471.074.208 1.098.378 2.277.378 1.178 0 2.254.18 2.39.4.136.22 1.482.4 2.99.4 1.839 0 2.798.165 2.91.5.244.732 49.956.732 50.2 0 .112-.335 1.071-.5 2.91-.5 1.508 0 2.854-.18 2.99-.4.136-.22 1.216-.4 2.4-.4s2.264-.18 2.4-.4c.136-.22 1.036-.4 2-.4s1.864-.18 2-.4c.136-.22.921-.4 1.744-.4s1.667-.17 1.876-.379c.209-.208 1.145-.423 2.08-.478.935-.055 1.7-.244 1.7-.421s.72-.322 1.6-.322c.88 0 1.6-.18 1.6-.4 0-.22.619-.4 1.376-.4.757 0 1.488-.18 1.624-.4.136-.22.777-.4 1.424-.4.647 0 1.176-.18 1.176-.4 0-.22.63-.4 1.4-.4.77 0 1.4-.159 1.4-.354 0-.195.987-.477 2.194-.628 1.206-.151 2.297-.441 2.423-.646.127-.205.659-.372 1.183-.372s1.064-.18 1.2-.4c.136-.22.599-.4 1.029-.4.43 0 1.139-.18 1.576-.4.437-.22 1.153-.58 1.59-.8.437-.22 1.067-.4 1.4-.4.333 0 .605-.18.605-.4 0-.22.439-.4.976-.4.537 0 1.088-.18 1.224-.4.136-.22.582-.4.99-.4.409 0 .803-.178.877-.397.073-.218.628-.437 1.233-.487.605-.05 1.1-.231 1.1-.403 0-.172.36-.313.8-.313.44 0 .8-.18.8-.4 0-.22.36-.4.8-.4.44 0 .8-.18.8-.4 0-.22.272-.4.605-.4.588 0 1.013-.167 2.89-1.138.492-.254 1.152-.462 1.466-.462.315 0 .632-.135.706-.3.073-.165 1.033-.748 2.133-1.295 1.1-.547 2.09-1.087 2.2-1.2.463-.475 2.034-1.205 2.595-1.205.333 0 .605-.18.605-.4 0-.22.236-.4.525-.4.288 0 .911-.36 1.383-.8.472-.44 1.029-.8 1.238-.8.54 0 4.627-2.131 4.787-2.496.074-.167.306-.304.517-.304.384 0 2.772-1.566 3.154-2.068.112-.147.472-.327.8-.4.328-.073.866-.403 1.196-.735.33-.331 1.095-.857 1.7-1.167.605-.311 1.1-.715 1.1-.898 0-.182.272-.332.604-.332.332 0 1.168-.54 1.859-1.2.691-.66 1.499-1.2 1.796-1.2.298 0 .541-.15.541-.332 0-.183.495-.587 1.1-.898.605-.31 1.391-.881 1.747-1.267.356-.387.824-.703 1.041-.703.216 0 .916-.495 1.554-1.1.639-.605 1.701-1.443 2.36-1.863.659-.42 1.342-1.005 1.518-1.3.176-.295.888-.831 1.582-1.19.694-.359 1.9-1.304 2.68-2.1.78-.796 2.138-1.985 3.018-2.644.88-.658 3.261-2.908 5.292-5 2.03-2.091 3.83-3.932 4-4.09 3.303-3.075 8.552-8.443 9.302-9.513.539-.77 1.637-2.038 2.44-2.818.804-.78 1.764-2.004 2.134-2.721.371-.716.933-1.402 1.251-1.523.317-.122.497-.35.4-.507-.097-.157.174-.538.602-.846.429-.309.779-.704.779-.877 0-.173.54-.88 1.2-1.571.66-.691 1.2-1.459 1.2-1.708 0-.249.36-.712.8-1.029.44-.317.8-.78.8-1.029 0-.249.54-1.017 1.2-1.708.66-.691 1.2-1.488 1.2-1.771 0-.283.36-.775.8-1.092.44-.317.8-.897.8-1.288 0-.392.15-.712.332-.712.183 0 .587-.495.898-1.1.31-.605.881-1.391 1.267-1.747.387-.356.703-.941.703-1.3 0-.359.158-.653.351-.653.194 0 .576-.54.849-1.2.273-.66.655-1.2.849-1.2.193 0 .351-.27.351-.6 0-.33.18-.6.4-.6.22 0 .4-.36.4-.8 0-.44.145-.8.323-.8.305 0 1.677-2.743 1.677-3.351 0-.155.36-.669.8-1.141.44-.472.8-1.095.8-1.383 0-.289.18-.525.4-.525.22 0 .4-.36.4-.8 0-.44.18-.8.4-.8.22 0 .4-.345.4-.767 0-.421.137-.826.304-.9.167-.073 1.085-1.753 2.041-3.733.955-1.98 1.898-3.913 2.096-4.295.197-.382.359-.967.359-1.3 0-.333.18-.605.4-.605.22 0 .4-.36.4-.8 0-.44.18-.8.4-.8.22 0 .4-.349.4-.776 0-.427.18-.888.4-1.024.22-.136.4-.687.4-1.224 0-.537.18-.976.4-.976.22 0 .4-.349.4-.776 0-.427.18-.888.4-1.024.22-.136.4-.687.4-1.224 0-.537.18-.976.4-.976.22 0 .4-.349.4-.776 0-.427.144-.866.321-.975.176-.109.572-1.121.879-2.249.307-1.128.703-2.14.879-2.249.177-.109.321-.608.321-1.108 0-.5.135-1.045.3-1.21.165-.165.313-.42.33-.566.228-2.034.736-4.067 1.015-4.067.195 0 .355-.63.355-1.4 0-.77.18-1.4.4-1.4.22 0 .4-.529.4-1.176 0-.647.18-1.288.4-1.424.22-.136.4-.856.4-1.6 0-.744.18-1.464.4-1.6.22-.136.4-.867.4-1.624 0-.757.143-1.376.318-1.376.175 0 .364-.675.419-1.499.056-.825.273-1.671.482-1.88.21-.21.381-1.155.381-2.101s.18-1.72.4-1.72c.22 0 .4-.889.4-1.976s.18-2.088.4-2.224c.22-.136.4-1.216.4-2.4s.18-2.264.4-2.4c.22-.136.4-1.482.4-2.99 0-1.839.165-2.798.5-2.91.393-.131.5-5.509.5-25.1s-.107-24.969-.5-25.1c-.335-.112-.5-1.071-.5-2.91 0-1.508-.18-2.854-.4-2.99-.22-.136-.4-1.216-.4-2.4s-.18-2.264-.4-2.4c-.22-.136-.4-1.137-.4-2.224 0-1.087-.18-1.976-.4-1.976-.22 0-.4-.799-.4-1.776s-.18-1.888-.4-2.024c-.22-.136-.4-.957-.4-1.824 0-.867-.18-1.576-.4-1.576-.22 0-.4-.619-.4-1.376 0-.757-.18-1.488-.4-1.624-.22-.136-.4-.856-.4-1.6 0-.744-.18-1.464-.4-1.6-.22-.136-.4-.777-.4-1.424 0-.647-.18-1.176-.4-1.176-.22 0-.4-.63-.4-1.4 0-.77-.159-1.4-.354-1.4-.195 0-.477-.987-.628-2.194-.151-1.206-.441-2.297-.646-2.423-.205-.127-.372-.634-.372-1.127s-.143-1.067-.318-1.276c-.175-.209-.547-1.1-.827-1.98-.552-1.739-.752-2.244-2.015-5.096-.462-1.042-.84-2.167-.84-2.5 0-.332-.18-.604-.4-.604-.22 0-.4-.439-.4-.976 0-.537-.18-1.088-.4-1.224-.22-.136-.4-.597-.4-1.024 0-.427-.18-.776-.4-.776-.22 0-.4-.36-.4-.8 0-.44-.18-.8-.4-.8-.22 0-.4-.36-.4-.8 0-.44-.18-.8-.4-.8-.22 0-.399-.315-.397-.7.004-.775-3.217-7.422-3.699-7.633-.167-.074-.304-.479-.304-.9 0-.422-.18-.767-.4-.767-.22 0-.4-.36-.4-.8 0-.44-.18-.8-.4-.8-.22 0-.4-.236-.4-.525 0-.288-.331-.879-.735-1.313-.404-.434-.866-1.312-1.026-1.951-.161-.639-.64-1.651-1.066-2.248-.425-.598-.773-1.284-.773-1.525 0-.241-.18-.438-.4-.438-.22 0-.4-.193-.4-.428s-.54-1.213-1.2-2.172c-.66-.959-1.2-1.897-1.2-2.084 0-.187-.36-.599-.8-.916-.44-.317-.8-.857-.8-1.2 0-.343-.36-.883-.8-1.2-.44-.317-.8-.857-.8-1.2 0-.343-.36-.883-.8-1.2-.44-.317-.8-.857-.8-1.2 0-.343-.36-.883-.8-1.2-.44-.317-.801-.762-.802-.988-.001-.227-.541-.987-1.2-1.69-.659-.703-1.198-1.486-1.198-1.74 0-.253-.54-.965-1.2-1.582-.66-.617-1.2-1.274-1.2-1.461 0-.186-.72-1.127-1.6-2.09-.88-.962-1.6-1.887-1.6-2.055 0-.167-.769-1.09-1.71-2.049-.94-.96-2.134-2.347-2.653-3.082-.519-.735-2.712-3.075-4.872-5.2-2.16-2.125-4.11-4.043-4.333-4.263-.224-.22-2.167-2.203-4.319-4.407-2.152-2.203-4.543-4.447-5.313-4.987-.77-.539-2.061-1.661-2.869-2.493-.807-.832-1.662-1.513-1.9-1.513-.237 0-.431-.18-.431-.4 0-.22-.188-.4-.418-.4-.23 0-.852-.405-1.381-.9-1.464-1.369-2.141-1.9-2.424-1.9-.141 0-.76-.54-1.377-1.2-.617-.66-1.32-1.2-1.564-1.2s-1.008-.54-1.699-1.2c-.691-.66-1.459-1.2-1.708-1.2-.249 0-.712-.36-1.029-.8-.317-.44-.857-.8-1.2-.8-.343 0-.883-.36-1.2-.8-.317-.44-.857-.8-1.2-.8-.343 0-.883-.36-1.2-.8-.317-.44-.857-.8-1.2-.8-.343 0-.883-.36-1.2-.8-.317-.44-.814-.8-1.105-.8-.291 0-.884-.331-1.318-.736-.435-.405-1.282-.99-1.884-1.299-.601-.31-1.183-.655-1.293-.767-.427-.435-4.333-2.398-4.771-2.398-.254 0-.849-.36-1.321-.8-.472-.44-1.095-.8-1.383-.8-.289 0-.525-.18-.525-.4 0-.22-.36-.4-.8-.4-.44 0-.8-.18-.8-.4 0-.22-.36-.4-.8-.4-.44 0-.801-.135-.801-.3-.001-.165-.991-.75-2.199-1.3-1.208-.55-2.198-1.135-2.199-1.3 0-.165-.273-.3-.606-.3-.588 0-1.013-.167-2.89-1.138-.492-.254-1.167-.462-1.5-.462-.333 0-.605-.18-.605-.4 0-.22-.36-.4-.8-.4-.44 0-.8-.191-.8-.424 0-.233-.165-.321-.368-.196-.202.125-.639-.044-.971-.376-.332-.332-1.067-.604-1.632-.604-.566 0-1.029-.18-1.029-.4 0-.22-.36-.4-.8-.4-.44 0-.8-.18-.8-.4 0-.22-.439-.4-.976-.4-.537 0-1.088-.18-1.224-.4-.136-.22-.515-.4-.843-.4-.328 0-1.341-.36-2.251-.8-.911-.44-1.895-.8-2.187-.8-.291 0-.842-.163-1.224-.363-1.142-.597-4.917-1.637-5.941-1.637-.525 0-.954-.18-.954-.4 0-.22-.619-.4-1.376-.4-.757 0-1.488-.18-1.624-.4-.136-.22-.676-.4-1.2-.4-.524 0-1.064-.18-1.2-.4-.136-.22-.867-.4-1.624-.4-.757 0-1.376-.18-1.376-.4 0-.22-.72-.4-1.6-.4-.88 0-1.6-.18-1.6-.4 0-.22-.709-.4-1.576-.4-.867 0-1.688-.18-1.824-.4-.136-.22-1.047-.4-2.024-.4-.977 0-1.776-.18-1.776-.4 0-.22-.9-.4-2-.4s-2-.18-2-.4c0-.222-1.059-.4-2.376-.4-1.307 0-2.488-.18-2.624-.4-.136-.22-1.461-.4-2.944-.4-1.617 0-2.895-.199-3.194-.498-.489-.489-37.502-.828-46.562-.426m-63.914 64.31c3.397 3.402 6.094 6.274 5.995 6.382-.47.51-36.222 36.294-42.491 42.53l-7.111 7.071-6.189-6.179c-3.405-3.399-6.19-6.362-6.19-6.584 0-.529 48.874-49.406 49.404-49.406.223 0 3.185 2.784 6.582 6.186m187.311 2.911c5.007 5.003 9.103 9.309 9.103 9.568 0 .624-11.459 11.895-12.278 12.075-.717.159-18.522-17.394-18.522-18.26 0-.584 11.567-12.385 12.197-12.443.218-.02 4.493 4.057 9.5 9.06M132.695 82.895c3.138 3.132 5.705 6.006 5.705 6.387 0 .9-48.208 49.118-49.107 49.118-.909 0-12.093-11.191-12.093-12.1 0-.993 47.968-49.036 48.995-49.072.51-.018 2.842 2.016 6.5 5.667m166.251 18.654c21.192 21.203 24.284 24.446 23.926 25.1-.225.413-3.037 3.35-6.248 6.527l-5.839 5.776-1.818-1.776c-11.057-10.802-47.197-47.288-47.294-47.747-.173-.823 11.094-12.148 12.131-12.194.554-.024 8.386 7.55 25.142 24.314m33.534-3.261c5.016 4.999 9.12 9.276 9.12 9.505 0 .229-2.79 3.203-6.201 6.608l-6.201 6.191-9.199-9.193c-5.059-5.056-9.197-9.464-9.194-9.796.005-.623 11.605-12.403 12.213-12.403.188 0 4.446 4.09 9.462 9.088m-175.28 9.506c0 .529-48.874 49.406-49.404 49.406-.223 0-3.192-2.79-6.597-6.201l-6.191-6.2 24.896-24.895 24.895-24.896 6.2 6.191c3.411 3.405 6.201 6.373 6.201 6.595m107.739-3.145c7.177 7.186 8.964 9.182 8.683 9.7-.458.84-10.913 11.246-11.798 11.741-.627.352-19.024-17.219-19.024-18.17 0-.564 11.953-12.32 12.527-12.32.316 0 4.641 4.072 9.612 9.049m30.86 30.95 9.193 9.199-6.191 6.201c-3.405 3.411-6.379 6.201-6.608 6.201-.497 0-18.593-18.087-18.593-18.584 0-.61 11.778-12.204 12.403-12.21.332-.003 4.74 4.134 9.796 9.193m-86.645-4.779c8.34 1.323 14.517 3.216 21.446 6.573 3.749 1.816 10.349 5.752 11 6.559.11.136 1.01.87 2 1.631 3.408 2.617 8.191 7.5 12.057 12.309 5.299 6.59 11.077 19.402 12.677 28.108.222 1.21.598 3.291.835 4.624.557 3.131.557 15.508.001 18.93-5.192 31.937-27.679 54.424-59.616 59.616-3.207.521-15.967.57-18.634.071-1.056-.198-3.18-.578-4.72-.846-8.051-1.401-24.804-8.852-27.8-12.365-.11-.129-.92-.76-1.8-1.403-2.07-1.512-9.715-9.157-11.227-11.227-.643-.88-1.274-1.69-1.403-1.8-2.69-2.294-9.05-15.255-11.09-22.6-2.062-7.421-2.583-11.905-2.351-20.2.851-30.307 19.085-55.475 46.871-64.692 3.375-1.12 4.245-1.375 8.446-2.476.906-.238 2.346-.45 3.2-.472.855-.022 2.004-.184 2.554-.36 1.492-.478 14.511-.463 17.554.02m-76.455 136.479c13.475 13.474 24.501 24.681 24.501 24.905 0 .223-2.79 3.192-6.201 6.597l-6.2 6.191-24.895-24.896-24.896-24.895 6.191-6.2c3.405-3.411 6.373-6.201 6.595-6.201.222 0 11.429 11.024 24.905 24.499m166.05-18.35 6.14 6.15-1.544 1.75c-3.345 3.788-16.78 16.751-17.362 16.751-.983 0-12.524-11.844-12.153-12.472.576-.973 17.965-18.309 18.375-18.319.223-.005 3.168 2.758 6.544 6.14M98.085 269.738c4.463 4.475 8.557 8.621 9.097 9.213l.982 1.075-6.177 6.187c-3.398 3.403-6.306 6.187-6.464 6.187-.619 0-18.323-18.084-18.323-18.716 0-.89 11.19-12.084 12.08-12.084.38 0 4.342 3.662 8.805 8.138m219.01-2.443c3.619 3.612 5.705 5.993 5.705 6.512 0 .82-17.421 18.593-18.225 18.593-.503 0-12.792-12.309-12.556-12.575 2.743-3.092 18.315-18.225 18.753-18.225.34 0 3.185 2.563 6.323 5.695m-49.425 12.188c3.261 3.235 5.93 6.16 5.93 6.5 0 .524-11.378 12.362-16.729 17.405l-1.685 1.588-6.193-6.183c-3.406-3.401-6.193-6.349-6.193-6.552 0-.46 18.145-18.641 18.604-18.641.185 0 3.004 2.647 6.266 5.883M94.258 302.835c12.424 12.411 23.413 23.438 24.42 24.506l1.831 1.941-6.15 6.159c-3.382 3.387-6.331 6.159-6.553 6.159-.523 0-49.406-48.871-49.406-49.394 0-.865 12.14-12.567 12.708-12.25.308.173 10.725 10.468 23.15 22.879M341.6 292.192c0 .507-18.061 18.608-18.567 18.608-.649 0-12.233-11.736-12.233-12.394 0-.346 4.143-4.758 9.208-9.805l9.207-9.176 6.193 6.183c3.405 3.4 6.192 6.363 6.192 6.584m-212.522 8.519c4.797 4.79 8.973 9.025 9.28 9.411.63.791-10.622 12.678-12 12.678-.542 0-16.108-15.087-18.328-17.763-.527-.636 10.93-13.037 12.044-13.037.155 0 4.207 3.92 9.004 8.711m157.269-2.564c5.299 5.307 6.081 6.25 5.724 6.9-1.247 2.271-18.008 18.214-18.729 17.816-1.633-.904-11.819-11.566-11.682-12.229.129-.622 17.851-18.634 18.335-18.634.118 0 2.977 2.766 6.352 6.147m18.57 18.583c3.236 3.262 5.883 6.088 5.883 6.28 0 .501-18.092 18.59-18.593 18.59-.229 0-3.203-2.79-6.608-6.201l-6.191-6.201 9.193-9.199c5.056-5.059 9.472-9.199 9.813-9.199.341 0 3.268 2.669 6.503 5.93" fill="#f3f3f3"/><path d="M82.899 82.901C69.424 96.377 58.4 107.584 58.4 107.806c0 .222 2.785 3.185 6.19 6.584l6.189 6.179 7.111-7.071c6.269-6.236 42.021-42.02 42.491-42.53.245-.267-12.065-12.568-12.577-12.568-.224 0-11.431 11.026-24.905 24.501M285.9 64.413c-3.245 3.267-5.9 6.177-5.9 6.467 0 .866 17.805 18.419 18.522 18.26.819-.18 12.278-11.451 12.278-12.075 0-.592-18.062-18.678-18.603-18.628-.218.02-3.052 2.71-6.297 5.976m-172.005.482c3.138 3.132 5.705 5.857 5.705 6.057 0 .46-48.188 48.648-48.648 48.648-.486 0-11.752-11.306-11.752-11.794 0-.523 48.071-48.606 48.594-48.606.218 0 2.963 2.563 6.101 5.695m187.646 3.246 8.934 8.94-5.743 5.86c-3.158 3.222-5.947 5.859-6.198 5.859-.393 0-16.176-15.46-17.678-17.315-.541-.67 10.181-12.285 11.34-12.285.226 0 4.431 4.023 9.345 8.941M101.3 101.422c-13.759 13.797-24.1 24.472-24.1 24.878 0 .909 11.184 12.1 12.093 12.1.899 0 49.107-48.218 49.107-49.118 0-1.008-11.219-12.089-12.205-12.054-.499.018-9.781 9.039-24.895 24.194m165.973-18.373c-3.259 3.289-5.672 6.038-5.6 6.38.097.459 36.237 36.945 47.294 47.747l1.818 1.776 5.839-5.776c3.211-3.177 6.023-6.114 6.248-6.527.52-.951-47.665-49.475-49.068-49.414-.476.022-3.136 2.389-6.531 5.814m-134.978.246c3.138 3.132 5.705 5.873 5.705 6.092 0 .517-48.076 48.609-48.595 48.611-.511.003-11.805-11.264-11.805-11.775 0-.509 48.08-48.611 48.595-48.618.217-.003 2.962 2.558 6.1 5.69m166.202 18.602 24.299 24.297-5.893 5.903c-3.241 3.247-6.041 5.903-6.222 5.903-.771 0-48.73-48.398-48.446-48.89.531-.921 11.155-11.485 11.564-11.497.219-.007 11.333 10.921 24.698 24.284m18.246-6.797c-3.263 3.245-5.935 6.171-5.938 6.503-.003.332 4.135 4.74 9.194 9.796l9.199 9.193 6.201-6.191c3.411-3.405 6.201-6.379 6.201-6.608 0-.495-18.087-18.593-18.582-18.593-.188 0-3.012 2.655-6.275 5.9m15.354 3.597c4.786 4.783 8.703 8.88 8.703 9.105 0 1.221-11.558 11.931-12.268 11.368-.691-.548-14.498-14.379-16.514-16.542l-.982-1.054 5.777-5.787C319.99 92.604 322.77 90 322.991 90c.222 0 4.319 3.913 9.106 8.697m-212.193 21.207-24.896 24.895 6.191 6.2c3.405 3.411 6.374 6.201 6.597 6.201.53 0 49.404-48.877 49.404-49.406 0-.222-2.79-3.19-6.201-6.595l-6.2-6.191-24.895 24.896m128.872-18.293c-3.287 3.306-5.976 6.145-5.976 6.309 0 .951 18.397 18.522 19.024 18.17.885-.495 11.34-10.901 11.798-11.741.395-.726-17.192-18.749-18.295-18.749-.317 0-3.265 2.705-6.551 6.011m-98.081.084c3.138 3.132 5.705 5.876 5.705 6.099 0 .523-48.071 48.606-48.594 48.606-.447 0-11.806-11.232-11.806-11.674 0-.419 48.13-48.638 48.595-48.686.217-.022 2.962 2.523 6.1 5.655m113.766 3.005c4.798 4.785 8.727 8.983 8.731 9.329.009.718-10.967 11.571-11.702 11.571-.571 0-17.89-17.214-17.89-17.782 0-.486 11.265-11.786 11.768-11.804.203-.008 4.295 3.901 9.093 8.686m15.039 27.641c-3.245 3.262-5.9 6.085-5.9 6.275 0 .497 18.096 18.584 18.593 18.584.229 0 3.203-2.79 6.608-6.201l6.191-6.201-9.193-9.199c-5.056-5.059-9.464-9.196-9.796-9.193-.332.003-3.258 2.674-6.503 5.935m15.8 3.234c4.785 4.824 8.7 8.915 8.7 9.093 0 .471-11.317 11.732-11.791 11.732-.524 0-17.809-17.269-17.809-17.792 0-.527 11.272-11.809 11.795-11.805.223.002 4.32 3.949 9.105 8.772m-103.622-4.835c-.507.143 3.354.26 8.58.26s8.971-.114 8.322-.253c-1.561-.334-15.722-.34-16.902-.007m-5.478.86-.8.344.8-.019c.44-.011 1.34-.157 2-.325l1.2-.305-1.2-.02c-.66-.01-1.56.136-2 .325m25.6 0c.66.168 1.56.314 2 .325l.8.019-.8-.344c-.44-.189-1.34-.335-2-.325l-1.2.02 1.2.305m-29 .8c-.795.514.204.514 1.4 0l.8-.344-.8-.022c-.44-.012-1.07.153-1.4.366m33 0c1.196.514 2.195.514 1.4 0-.33-.213-.96-.378-1.4-.366l-.8.022.8.344m-35.8.8c-.533.345-.533.388 0 .388.33 0 .87-.175 1.2-.388.533-.345.533-.388 0-.388-.33 0-.87.175-1.2.388m39 0c.44.189 1.07.344 1.4.344.378 0 .304-.127-.2-.344-.44-.189-1.07-.344-1.4-.344-.378 0-.304.127.2.344m-43.8 1.6c-.533.345-.533.388 0 .388.33 0 .87-.175 1.2-.388.533-.345.533-.388 0-.388-.33 0-.87.175-1.2.388m-5.164 2.222c-2.07.981-3.681 1.866-3.58 1.967.101.101 1.975-.701 4.164-1.783 2.189-1.082 3.8-1.967 3.58-1.967-.22 0-2.094.802-4.164 1.783m57.564-.827c0 .21 2.735 1.416 3.149 1.388.321-.021-2.448-1.544-2.849-1.566-.165-.009-.3.071-.3.178m4 1.803c.33.24 2.082 1.311 3.893 2.379 4.58 2.701 8.667 5.853 12.993 10.021 2.03 1.956 3.743 3.506 3.805 3.444.186-.186-7.161-7.171-8.891-8.452-.88-.652-1.69-1.29-1.8-1.418-.489-.567-5.251-3.575-7.8-4.926-1.54-.817-2.53-1.288-2.2-1.048m-67.5 2.228c-1.888 1.132-2.323 1.723-.6.815 1.209-.638 2.816-1.81 2.5-1.824-.11-.005-.965.449-1.9 1.009m-4.984 3.274c-1.472 1.045-2.686 2.046-2.696 2.223-.016.264 3.922-2.519 5.36-3.788 1.002-.884-.251-.148-2.664 1.565m-6.321 5.247c-1.653 1.509-3.876 3.804-4.941 5.099l-1.936 2.354 2.541-2.691c1.398-1.48 3.711-3.77 5.141-5.089 1.43-1.319 2.51-2.402 2.4-2.408-.11-.005-1.552 1.226-3.205 2.735m100.973 7.353c.841 1.045 1.609 1.9 1.707 1.9.317 0-1.358-2.174-2.312-3-.508-.44-.235.055.605 1.1M143.8 158.695c-3.043 4.308-2.831 4.429.359.205 1.038-1.375 1.742-2.493 1.564-2.485-.177.009-1.043 1.035-1.923 2.28m113.523 2.205c.969 1.375 2.434 3.715 3.254 5.2 1.77 3.203 2.347 3.645.716.548-1.561-2.964-5.023-8.237-5.413-8.243-.176-.003.473 1.12 1.443 2.495m-116.615 2.4c-.321.495-.801 1.35-1.068 1.9-.68 1.403.554-.094 1.401-1.7.698-1.326.482-1.456-.333-.2m-3.308 5.9c-.798 1.585-1.372 2.962-1.275 3.059.098.097.819-1.132 1.602-2.732.784-1.599 1.358-2.976 1.275-3.059-.083-.082-.804 1.147-1.602 2.732m125.042.2c.003.22.537 1.48 1.187 2.8.651 1.32 1.067 1.95.925 1.4-.301-1.172-2.119-4.787-2.112-4.2M134.6 175.6c-.15.473-.183.95-.073 1.06.11.11.323-.187.473-.66.15-.473.183-.95.073-1.06-.11-.11-.323.187-.473.66m131.856 4c0 .33.155.96.344 1.4.217.504.344.578.344.2 0-.33-.155-.96-.344-1.4-.217-.504-.344-.578-.344-.2M133 180.4c-.15.473-.183.95-.073 1.06.11.11.323-.187.473-.66.15-.473.183-.95.073-1.06-.11-.11-.323.187-.473.66m134.256 2.2c0 .44.155 1.16.344 1.6l.344.8v-.8c0-.44-.155-1.16-.344-1.6l-.344-.8v.8m-134.983.353c-.15.392-.262 1.013-.248 1.38.017.442.156.341.412-.299.212-.531.324-1.152.248-1.38-.076-.227-.261-.093-.412.299m-.797 3.457c-.146.545-.249 1.44-.23 1.99.025.718.138.557.403-.573.406-1.732.251-3.002-.173-1.417m136.592-.21c.006.44.156 1.25.332 1.8l.32 1 .012-1c.006-.55-.143-1.36-.332-1.8l-.344-.8.012.8m1.007 7c.126 1.65.296 3.075.377 3.167.295.332.059-4.193-.269-5.167-.208-.615-.249.154-.108 2m-138.422-1.164c-.139.695-.225 2.817-.192 4.714l.062 3.45.29-4.6c.303-4.806.264-5.684-.16-3.564m-29.454 56.965-6.191 6.2 24.896 24.895 24.895 24.896 6.2-6.191c3.411-3.405 6.201-6.374 6.201-6.597 0-.53-48.877-49.404-49.406-49.404-.222 0-3.19 2.79-6.595 6.201m181.772 2.708c-4.855 4.89-8.969 9.129-9.141 9.419-.371.628 11.17 12.472 12.153 12.472.582 0 14.017-12.963 17.362-16.751l1.544-1.75-6.14-6.15c-3.376-3.382-6.321-6.145-6.544-6.14-.223.006-4.378 4.011-9.234 8.9m-150.672 15.99c13.255 13.254 24.101 24.277 24.101 24.495 0 .467-11.243 11.806-11.706 11.806C144.282 304 96 255.738 96 255.326c0-.469 11.322-11.726 11.794-11.726.222 0 11.249 10.844 24.505 24.099m165.996-18.404c3.138 3.132 5.705 5.865 5.705 6.074 0 .624-17.36 17.853-17.872 17.737-.737-.165-11.728-11.035-11.728-11.598 0-.59 17.206-17.908 17.792-17.908.219 0 2.965 2.563 6.103 5.695m-215.4 18.01c-3.132 3.138-5.695 6.008-5.695 6.379 0 .632 17.704 18.716 18.323 18.716.158 0 3.066-2.784 6.464-6.187l6.177-6.187-.982-1.075c-4.243-4.648-17.351-17.351-17.902-17.351-.38 0-3.253 2.567-6.385 5.705m218.282 3.305c-4.937 4.956-9.058 9.102-9.158 9.215-.236.266 12.053 12.575 12.556 12.575.804 0 18.225-17.773 18.225-18.593 0-.967-11.076-12.207-12.028-12.207-.34 0-4.657 4.055-9.595 9.01m-202.624.143c4.81 4.813 8.678 8.95 8.596 9.192-.082.242-2.738 3.061-5.903 6.266l-5.754 5.825-8.946-8.917c-4.92-4.904-8.946-9.095-8.946-9.313 0-.525 11.273-11.806 11.798-11.806.225 0 4.344 3.939 9.155 8.753m218.142-3.058c3.138 3.132 5.705 5.882 5.705 6.112 0 .229-4.041 4.443-8.979 9.363l-8.979 8.947-2.427-2.605c-1.335-1.433-4.058-4.16-6.053-6.061l-3.625-3.456 9.017-8.997c4.959-4.949 9.156-8.998 9.327-8.998.17 0 2.876 2.563 6.014 5.695m-64.761 15.042c-5.024 5.025-9.134 9.302-9.134 9.504 0 .203 2.787 3.151 6.193 6.552l6.193 6.183 1.685-1.588c5.351-5.043 16.729-16.881 16.729-17.405 0-.626-11.579-12.383-12.196-12.383-.184 0-4.446 4.111-9.47 9.137m15.561-2.642c3.138 3.132 5.705 5.877 5.704 6.1 0 .512-17.299 17.805-17.81 17.805-.51 0-11.789-11.282-11.789-11.791 0-.524 17.269-17.809 17.792-17.809.219 0 2.965 2.563 6.103 5.695m-203.021 5.631c-3.341 3.346-6.074 6.262-6.074 6.48 0 .523 48.883 49.394 49.406 49.394.222 0 3.171-2.772 6.553-6.159l6.15-6.159-1.831-1.941c-3.686-3.909-47.027-47.081-47.57-47.385-.398-.222-2.318 1.447-6.634 5.77m255.534 2.875c-5.065 5.047-9.208 9.459-9.208 9.805 0 .658 11.584 12.394 12.233 12.394.506 0 18.567-18.101 18.567-18.608 0-.221-2.787-3.184-6.192-6.584l-6.193-6.183-9.207 9.176M95.444 304.547c13.286 13.281 24.156 24.303 24.156 24.495 0 .49-11.302 11.758-11.794 11.758-.523 0-48.606-48.071-48.606-48.594 0-.488 11.253-11.806 11.739-11.806.192 0 11.219 10.866 24.505 24.147m239.651-18.452c3.138 3.132 5.705 5.878 5.705 6.103 0 .225-4.023 4.428-8.939 9.341l-8.94 8.933-5.86-5.913c-3.224-3.252-5.861-6.028-5.861-6.168 0-.352 17.558-17.991 17.908-17.991.155 0 2.849 2.563 5.987 5.695m-221.47 12.08c-5.579 5.588-6.111 6.24-5.595 6.862 1.114 1.342 17.655 17.763 17.894 17.763.3 0-1.406-1.754-10.424-10.719-3.905-3.882-7.1-7.246-7.1-7.475 0-.531 11.276-11.806 11.807-11.806.51 0 17.793 17.296 17.793 17.806 0 .211-2.653 3.041-5.895 6.289-3.242 3.248-5.709 5.905-5.483 5.905 1.198 0 12.29-11.983 11.736-12.678-1.06-1.331-18.002-18.122-18.284-18.122-.156 0-3.058 2.779-6.449 6.175m157.165 2.804c-4.944 4.939-9.053 9.284-9.13 9.655-.137.663 10.049 11.325 11.682 12.229.721.398 17.482-15.545 18.729-17.816.367-.667-11.092-13.047-12.076-13.047-.118 0-4.26 4.041-9.205 8.979m15.105-2.484c3.138 3.132 5.705 5.878 5.705 6.103 0 .225-4.007 4.413-8.904 9.306l-8.904 8.898-5.896-5.906c-3.243-3.248-5.896-6.042-5.896-6.209 0-.422 17.429-17.887 17.85-17.887.187 0 2.907 2.563 6.045 5.695m2.706 21.504-9.193 9.199 6.191 6.201c3.405 3.411 6.379 6.201 6.608 6.201.501 0 18.593-18.089 18.593-18.59 0-.629-11.748-12.21-12.386-12.21-.341 0-4.757 4.14-9.813 9.199m15.903-2.895 5.894 5.904-8.902 8.896c-4.896 4.893-9.083 8.896-9.304 8.896-1.209 0-11.923-11.56-11.362-12.258.953-1.183 17.306-17.342 17.551-17.342.126 0 2.881 2.657 6.123 5.904" fill="#929293"/><path d="M130.4 203.154c0 8.604 3.152 20.101 8.118 29.608 22.764 43.585 84.883 49.658 115.488 11.291.767-.961 1.58-1.951 1.808-2.2 6.723-7.362 12.957-24.472 13.645-37.453l.223-4.2H130.4v2.954" fill="#5a8cc9"/></g></svg>