<svg xmlns="http://www.w3.org/2000/svg" width="400" height="400"><g fill-rule="evenodd"><path d="M.106 212.489c.155 8.397.371 12.537.662 12.634.257.085.432 1.335.432 3.087 0 1.618.18 3.054.4 3.19.22.136.4 1.216.4 2.4s.18 2.264.4 2.4c.22.136.4 1.047.4 2.024 0 .977.18 1.776.4 1.776.22 0 .4.9.4 2s.18 2 .4 2c.22 0 .4.72.4 1.6 0 .88.18 1.6.4 1.6.22 0 .4.72.4 1.6 0 .88.18 1.6.4 1.6.22 0 .4.72.4 1.6 0 .88.18 1.6.4 1.6.22 0 .4.54.4 1.2 0 .66.18 1.2.4 1.2.22 0 .4.63.4 1.4 0 .77.157 1.4.348 1.4.192 0 .474.941.626 2.09.153 1.15.413 2.275.58 2.5.166.226.535 1.22.82 2.21.541 1.884 1.078 3.325 1.673 4.495.194.382.353 1.057.353 1.5 0 .443.18.805.4.805.22 0 .4.45.4 1s.18 1 .4 1c.22 0 .4.36.4.8 0 .44.18.8.4.8.22 0 .4.54.4 1.2 0 .66.18 1.2.4 1.2.22 0 .4.36.4.8 0 .44.18.8.4.8.22 0 .4.36.4.8 0 .44.18.8.4.8.22 0 .4.324.4.72 0 .894.894 2.873 1.3 2.877.165.002.3.453.3 1.003 0 .55.18 1 .4 1 .22 0 .4.36.4.8 0 .44.146.8.325.8.179 0 .573.63.875 1.4.302.77.696 1.4.875 1.4.179 0 .325.36.325.8 0 .44.18.8.4.8.22 0 .4.36.4.8 0 .44.18.8.4.8.22 0 .4.32.4.712 0 .391.36.971.8 1.288.44.317.8.852.801 1.188.001.337.631 1.656 1.4 2.932.769 1.276 1.399 2.499 1.399 2.717 0 .218.36.783.8 1.255.44.472.8 1.095.8 1.383 0 .289.18.525.4.525.22 0 .4.23.4.512 0 .281.36.771.8 1.088.44.317.8.857.8 1.2 0 .343.36.883.8 1.2.44.317.8.857.8 1.2 0 .343.36.883.8 1.2.44.317.8.857.8 1.2 0 .343.36.883.8 1.2.44.317.8.78.8 1.029 0 .249.54 1.017 1.2 1.708.66.691 1.2 1.455 1.2 1.699s.54.947 1.2 1.564c.66.617 1.2 1.319 1.2 1.56 0 .242.18.44.4.44.22 0 .4.206.4.457s.54.972 1.2 1.603c.66.631 1.2 1.309 1.2 1.508 0 .198.99 1.39 2.2 2.65 1.21 1.259 2.2 2.451 2.2 2.648 0 .273 5.254 5.608 9.302 9.448.166.157 2.27 2.311 4.674 4.786 2.405 2.475 4.537 4.5 4.737 4.5.201 0 1.5 1.08 2.887 2.4 1.387 1.32 2.692 2.4 2.901 2.4.208 0 .882.54 1.499 1.2.617.66 1.313 1.2 1.547 1.2.235 0 1.056.63 1.826 1.4.77.77 1.637 1.4 1.925 1.4.289 0 .785.36 1.102.8.317.44.78.8 1.029.8.249 0 1.017.54 1.708 1.2.691.66 1.488 1.2 1.771 1.2.283 0 .768.35 1.077.779.308.428.696.694.862.592.166-.102.755.267 1.309.821.554.555 1.246 1.008 1.538 1.008.291 0 .789.36 1.106.8.317.44.807.8 1.088.8.282 0 .512.18.512.4 0 .22.27.4.6.4.33 0 .6.18.6.4 0 .22.27.4.6.4.33 0 .6.18.6.4 0 .22.261.4.58.4.319 0 1.361.527 2.315 1.171s2.269 1.303 2.92 1.464c.652.161 1.476.624 1.832 1.029.356.405.941.736 1.3.736.359 0 .653.18.653.4 0 .22.36.4.8.4.44 0 .8.18.8.4 0 .22.36.4.8.4.44 0 .8.146.8.325 0 .179.63.573 1.4.875.77.302 1.4.696 1.4.875 0 .179.36.325.8.325.44 0 .8.18.8.4 0 .22.349.4.776.4.427 0 .888.18 1.024.4.136.22.687.4 1.224.4.537 0 .976.18.976.4 0 .22.36.4.8.4.44 0 .8.18.8.4 0 .22.36.4.8.4.44 0 .8.18.8.4 0 .22.36.4.8.4.44 0 .8.18.8.4 0 .22.54.4 1.2.4.66 0 1.2.18 1.2.4 0 .22.36.4.8.4.44 0 .8.18.8.4 0 .22.45.4 1 .4s1 .18 1 .4c0 .22.362.4.805.4.443 0 1.163.18 1.6.4.437.22 1.153.58 1.59.8.437.22 1.146.4 1.576.4.43 0 .893.18 1.029.4.136.22.676.4 1.2.4.524 0 1.056.167 1.183.372.126.205 1.217.495 2.423.646 1.207.151 2.194.433 2.194.628s.63.354 1.4.354c.77 0 1.4.18 1.4.4 0 .22.54.4 1.2.4.66 0 1.2.18 1.2.4 0 .22.72.4 1.6.4.88 0 1.6.18 1.6.4 0 .22.72.4 1.6.4.88 0 1.6.18 1.6.4 0 .22.72.4 1.6.4.88 0 1.6.18 1.6.4 0 .22.9.4 2 .4s2 .18 2 .4c0 .22.99.4 2.2.4 1.21 0 2.2.18 2.2.4 0 .22.979.4 2.176.4s2.288.18 2.424.4c.136.22 1.482.4 2.99.4 1.839 0 2.798.165 2.91.5.131.393 5.509.5 25.1.5s24.969-.107 25.1-.5c.112-.335 1.071-.5 2.91-.5 1.508 0 2.854-.18 2.99-.4.136-.22 1.317-.4 2.624-.4 1.317 0 2.376-.178 2.376-.4 0-.22.889-.4 1.976-.4s2.088-.18 2.224-.4c.136-.22.946-.4 1.8-.4.854 0 1.664-.18 1.8-.4.136-.22.957-.4 1.824-.4.867 0 1.576-.18 1.576-.4 0-.22.72-.4 1.6-.4.88 0 1.6-.18 1.6-.4 0-.22.72-.4 1.6-.4.88 0 1.6-.18 1.6-.4 0-.22.54-.4 1.2-.4.66 0 1.2-.18 1.2-.4 0-.22.63-.4 1.4-.4.77 0 1.4-.162 1.4-.361 0-.198 1.08-.486 2.4-.639 1.32-.153 2.4-.441 2.4-.639 0-.199.439-.361.976-.361.537 0 1.088-.18 1.224-.4.136-.22.599-.4 1.029-.4.43 0 1.139-.18 1.576-.4.437-.22 1.153-.58 1.59-.8.437-.22 1.157-.4 1.6-.4.443 0 .805-.18.805-.4 0-.22.45-.4 1-.4s1-.18 1-.4c0-.22.36-.4.8-.4.44 0 .8-.18.8-.4 0-.22.54-.4 1.2-.4.66 0 1.2-.18 1.2-.4 0-.22.36-.4.8-.4.44 0 .8-.18.8-.4 0-.22.36-.4.8-.4.44 0 .8-.18.8-.4 0-.22.349-.4.776-.4.427 0 .888-.18 1.024-.4.136-.22.687-.4 1.224-.4.537 0 .976-.18.976-.4 0-.22.36-.4.8-.4.44 0 .8-.18.8-.4 0-.22.36-.4.8-.4.44 0 .8-.146.8-.325 0-.179.63-.573 1.4-.875.77-.302 1.4-.696 1.4-.875 0-.179.36-.325.8-.325.44 0 .8-.18.8-.4 0-.22.36-.4.8-.4.44 0 .8-.18.8-.4 0-.22.294-.4.653-.4.359 0 .944-.331 1.3-.736.356-.405 1.176-.867 1.823-1.027.646-.159 1.664-.638 2.261-1.064.598-.425 1.284-.773 1.525-.773.241 0 .438-.18.438-.4 0-.22.278-.4.617-.4.339 0 1.003-.36 1.475-.8.472-.44 1.095-.8 1.383-.8.289 0 .525-.18.525-.4 0-.22.23-.4.512-.4.281 0 .771-.36 1.088-.8.317-.44.857-.8 1.2-.8.343 0 .883-.36 1.2-.8.317-.44.857-.8 1.2-.8.343 0 .883-.36 1.2-.8.317-.44.857-.8 1.2-.8.343 0 .883-.36 1.2-.8.317-.44.78-.8 1.029-.8.249 0 1.017-.54 1.708-1.2.691-.66 1.455-1.2 1.699-1.2s.947-.54 1.564-1.2c.617-.66 1.334-1.2 1.594-1.2s1.085-.63 1.832-1.4c.748-.77 1.516-1.4 1.706-1.4.19 0 1.481-1.08 2.868-2.4 1.387-1.32 2.68-2.4 2.874-2.4.193 0 2.332-2.025 4.752-4.5 5.284-5.403 4.071-4.19 9.474-9.474 2.475-2.42 4.5-4.559 4.5-4.752 0-.194 1.08-1.487 2.4-2.874 1.32-1.387 2.4-2.678 2.4-2.868 0-.19.63-.958 1.4-1.706.77-.747 1.4-1.572 1.4-1.832s.54-.977 1.2-1.594c.66-.617 1.2-1.32 1.2-1.564s.54-1.008 1.2-1.699c.66-.691 1.2-1.459 1.2-1.708 0-.249.36-.712.8-1.029.44-.317.8-.857.8-1.2 0-.343.36-.883.8-1.2.44-.317.8-.857.8-1.2 0-.343.36-.883.8-1.2.44-.317.8-.857.8-1.2 0-.343.36-.883.8-1.2.44-.317.8-.807.8-1.088 0-.282.18-.512.4-.512.22 0 .4-.236.4-.525 0-.288.36-.911.8-1.383.44-.472.8-1.136.8-1.475 0-.339.18-.617.4-.617.22 0 .4-.197.4-.438s.348-.927.773-1.525c.426-.597.905-1.615 1.064-2.261.16-.647.622-1.467 1.027-1.823.405-.356.736-.941.736-1.3 0-.359.18-.653.4-.653.22 0 .4-.36.4-.8 0-.44.18-.8.4-.8.22 0 .4-.36.4-.8 0-.44.146-.8.325-.8.179 0 .573-.63.875-1.4.302-.77.696-1.4.875-1.4.179 0 .325-.36.325-.8 0-.44.18-.8.4-.8.22 0 .4-.36.4-.8 0-.44.18-.8.4-.8.22 0 .4-.349.4-.776 0-.427.18-.888.4-1.024.22-.136.4-.687.4-1.224 0-.537.18-.976.4-.976.22 0 .4-.36.4-.8 0-.44.18-.8.4-.8.22 0 .4-.36.4-.8 0-.44.18-.8.4-.8.22 0 .4-.54.4-1.2 0-.66.18-1.2.4-1.2.22 0 .4-.36.4-.8 0-.44.18-.8.4-.8.22 0 .4-.45.4-1s.18-1 .4-1c.22 0 .4-.362.4-.805 0-.443.159-1.118.353-1.5.595-1.17 1.132-2.611 1.673-4.495.285-.99.654-1.984.82-2.21.167-.225.427-1.35.58-2.5.152-1.149.434-2.09.626-2.09.191 0 .348-.63.348-1.4 0-.77.18-1.4.4-1.4.22 0 .4-.54.4-1.2 0-.66.18-1.2.4-1.2.22 0 .4-.72.4-1.6 0-.88.18-1.6.4-1.6.22 0 .4-.72.4-1.6 0-.88.18-1.6.4-1.6.22 0 .4-.72.4-1.6 0-.88.18-1.6.4-1.6.22 0 .4-.9.4-2s.18-2 .4-2c.22 0 .4-.9.4-2s.18-2 .4-2c.222 0 .4-1.059.4-2.376 0-1.307.18-2.488.4-2.624.22-.136.4-1.482.4-2.99 0-1.609.179-2.803.432-2.887.291-.097.507-4.237.662-12.634l.229-12.489H-.123l.229 12.489" fill="#dc0424"/><path d="M178.3.275c-1.925.086-3.5.329-3.5.541 0 .211-1.339.384-2.976.384s-3.088.18-3.224.4c-.136.22-1.137.4-2.224.4-1.087 0-1.976.18-1.976.4 0 .22-.99.4-2.2.4-1.21 0-2.2.18-2.2.4 0 .22-.799.4-1.776.4s-1.888.18-2.024.4c-.136.22-.957.4-1.824.4-.867 0-1.576.18-1.576.4 0 .22-.72.4-1.6.4-.88 0-1.6.18-1.6.4 0 .22-.529.4-1.176.4-.647 0-1.288.18-1.424.4-.136.22-.766.4-1.4.4-.634 0-1.264.18-1.4.4-.136.22-.867.4-1.624.4-.757 0-1.376.18-1.376.4 0 .22-.429.4-.954.4-.891 0-4.228.885-6.046 1.603-.44.174-1.43.533-2.2.797-1.693.582-3.16 1.171-4.095 1.647-.382.194-1.057.353-1.5.353-.443 0-.805.18-.805.4 0 .22-.36.4-.8.4-.44 0-.8.18-.8.4 0 .22-.439.4-.976.4-.537 0-1.088.18-1.224.4-.136.22-.597.4-1.024.4-.427 0-.776.18-.776.4 0 .22-.36.4-.8.4-.44 0-.8.18-.8.4 0 .22-.272.4-.605.4-.333 0-.918.167-1.3.372-.382.204-2.315 1.147-4.295 2.095-1.98.948-3.66 1.861-3.733 2.028-.074.168-.479.305-.9.305-.422 0-.767.18-.767.4 0 .22-.36.4-.8.4-.44 0-.8.18-.8.4 0 .22-.32.4-.712.4-.391 0-.971.36-1.288.8-.317.44-.828.8-1.134.8-.651 0-4.603 2.059-4.799 2.5-.074.165-.311.3-.528.3-.217 0-1.18.54-2.139 1.2-.959.66-1.897 1.2-2.084 1.2-.187 0-.599.36-.916.8-.317.44-.857.8-1.2.8-.343 0-.883.36-1.2.8-.317.44-.857.8-1.2.8-.343 0-.883.36-1.2.8-.317.44-.809.8-1.092.8-.283 0-1.08.54-1.771 1.2-.691.66-1.459 1.2-1.708 1.2-.249 0-.712.36-1.029.8-.317.44-.825.8-1.128.8-.303 0-1.055.54-1.672 1.2-.617.66-1.253 1.2-1.414 1.2-.16 0-.628.388-1.039.861-.411.474-.747.736-.747.582 0-.154-.458.179-1.018.739s-1.17 1.018-1.355 1.018c-.186 0-1.123.769-2.082 1.71-.96.94-2.375 2.152-3.145 2.693-.77.541-3.161 2.787-5.313 4.99-4.705 4.818-3.676 3.789-8.494 8.494-2.203 2.152-4.451 4.541-4.994 5.308-.544.767-1.846 2.27-2.894 3.34C44.857 72.005 44 73.051 44 73.259c0 .207-.405.811-.9 1.34-1.369 1.464-1.9 2.141-1.9 2.424 0 .141-.54.76-1.2 1.377-.66.617-1.2 1.343-1.2 1.614 0 .27-.316.783-.703 1.139-.386.356-.957 1.142-1.267 1.747-.311.605-.715 1.1-.898 1.1-.182 0-.332.281-.332.624 0 .369-.188.507-.462.338-.276-.171-.353-.111-.192.15.148.24-.184.89-.738 1.444-.555.554-1.008 1.286-1.008 1.626 0 .34-.15.618-.332.618-.183 0-.587.495-.898 1.1-.31.605-.881 1.391-1.267 1.747-.387.356-.703.773-.703.928 0 .154-.54 1.066-1.2 2.025-.66.959-1.2 1.922-1.2 2.139 0 .217-.157.454-.349.528-.442.168-2.451 4.129-2.451 4.831 0 .289-.36.785-.8 1.102-.44.317-.8.897-.8 1.288 0 .392-.18.712-.4.712-.22 0-.4.36-.4.8 0 .44-.18.8-.4.8-.22 0-.4.345-.4.767 0 .421-.135.826-.3.9-.44.195-2.1 3.511-2.1 4.194 0 .323-.18.475-.4.339-.22-.136-.4.113-.4.553 0 .44-.18.911-.4 1.047-.22.136-.4.597-.4 1.024 0 .427-.18.776-.4.776-.22 0-.4.45-.4 1s-.18 1-.4 1c-.22 0-.4.36-.4.8 0 .44-.18.8-.4.8-.22 0-.4.349-.4.776 0 .427-.18.888-.4 1.024-.22.136-.4.687-.4 1.224 0 .537-.18.976-.4.976-.22 0-.4.36-.4.8 0 .44-.18.8-.4.8-.22 0-.4.362-.4.805 0 .443-.159 1.118-.353 1.5-.195.382-.576 1.235-.847 1.895-.271.66-.652 1.513-.847 1.895-.194.382-.353.969-.353 1.305 0 .336-.163.923-.363 1.305-.597 1.142-1.637 4.917-1.637 5.941 0 .525-.18.954-.4.954-.22 0-.4.619-.4 1.376 0 .757-.18 1.488-.4 1.624-.22.136-.4.676-.4 1.2 0 .524-.18 1.064-.4 1.2-.22.136-.4.867-.4 1.624 0 .757-.18 1.376-.4 1.376-.22 0-.4.72-.4 1.6 0 .88-.18 1.6-.4 1.6-.22 0-.4.709-.4 1.576 0 .867-.18 1.688-.4 1.824-.22.136-.4 1.047-.4 2.024 0 .977-.18 1.776-.4 1.776-.22 0-.4.9-.4 2s-.18 2-.4 2c-.222 0-.4 1.059-.4 2.376 0 1.307-.18 2.488-.4 2.624-.22.136-.4 1.371-.4 2.744 0 1.373-.195 2.691-.433 2.929-.281.281-.513 4.782-.662 12.88L-.123 200h400.246l-.229-12.489c-.155-8.397-.371-12.537-.662-12.634-.253-.084-.432-1.278-.432-2.887 0-1.508-.18-2.854-.4-2.99-.22-.136-.4-1.216-.4-2.4s-.18-2.264-.4-2.4c-.22-.136-.4-1.137-.4-2.224 0-1.087-.18-1.976-.4-1.976-.22 0-.4-.799-.4-1.776s-.18-1.888-.4-2.024c-.22-.136-.4-.957-.4-1.824 0-.867-.18-1.576-.4-1.576-.22 0-.4-.619-.4-1.376 0-.757-.18-1.488-.4-1.624-.22-.136-.4-.856-.4-1.6 0-.744-.18-1.464-.4-1.6-.22-.136-.4-.777-.4-1.424 0-.647-.18-1.176-.4-1.176-.22 0-.4-.63-.4-1.4 0-.77-.159-1.4-.354-1.4-.195 0-.477-.987-.628-2.194-.151-1.206-.441-2.297-.646-2.423-.205-.127-.372-.634-.372-1.127s-.143-1.067-.318-1.276c-.175-.209-.547-1.1-.827-1.98-.279-.88-.7-2.05-.935-2.6-.235-.55-.604-1.45-.82-2-.216-.55-.552-1.313-.747-1.695-.194-.382-.353-.967-.353-1.3 0-.333-.18-.605-.4-.605-.22 0-.4-.439-.4-.976 0-.537-.18-1.088-.4-1.224-.22-.136-.4-.597-.4-1.024 0-.427-.18-.776-.4-.776-.22 0-.4-.36-.4-.8 0-.44-.18-.8-.4-.8-.22 0-.4-.36-.4-.8 0-.44-.18-.8-.4-.8-.22 0-.399-.315-.397-.7.004-.775-3.217-7.422-3.699-7.633-.167-.074-.304-.479-.304-.9 0-.422-.18-.767-.4-.767-.22 0-.4-.36-.4-.8 0-.44-.18-.8-.4-.8-.22 0-.4-.236-.4-.525 0-.288-.331-.879-.735-1.313-.404-.434-.866-1.312-1.026-1.951-.161-.639-.64-1.651-1.066-2.248-.425-.598-.773-1.284-.773-1.525 0-.241-.18-.438-.4-.438-.22 0-.4-.193-.4-.428s-.54-1.213-1.2-2.172c-.66-.959-1.2-1.897-1.2-2.084 0-.187-.36-.599-.8-.916-.44-.317-.8-.857-.8-1.2 0-.343-.36-.883-.8-1.2-.44-.317-.8-.857-.8-1.2 0-.343-.36-.883-.8-1.2-.44-.317-.8-.857-.8-1.2 0-.343-.36-.883-.8-1.2-.44-.317-.8-.78-.8-1.029 0-.249-.54-1.017-1.2-1.708-.66-.691-1.2-1.455-1.2-1.699s-.54-.947-1.2-1.564c-.66-.617-1.2-1.274-1.2-1.461 0-.186-.72-1.127-1.6-2.09-.88-.962-1.6-1.903-1.6-2.089 0-.186-.767-1.109-1.705-2.049-.938-.941-2.15-2.341-2.694-3.111-.543-.77-2.791-3.161-4.994-5.313-4.818-4.705-3.789-3.676-8.494-8.494-2.152-2.203-4.541-4.451-5.308-4.994-.767-.544-2.27-1.846-3.34-2.894-1.07-1.048-2.116-1.905-2.324-1.905-.207 0-.811-.405-1.34-.9-1.464-1.369-2.141-1.9-2.424-1.9-.141 0-.76-.54-1.377-1.2-.617-.66-1.32-1.2-1.564-1.2s-1.008-.54-1.699-1.2c-.691-.66-1.459-1.2-1.708-1.2-.249 0-.712-.36-1.029-.8-.317-.44-.857-.8-1.2-.8-.343 0-.883-.36-1.2-.8-.317-.44-.857-.8-1.2-.8-.343 0-.883-.36-1.2-.8-.317-.44-.857-.8-1.2-.8-.343 0-.883-.36-1.2-.8-.317-.44-.729-.8-.916-.8-.187 0-1.125-.54-2.084-1.2-.959-.66-1.922-1.2-2.139-1.2-.217 0-.454-.135-.528-.3-.18-.405-4.122-2.5-4.704-2.5-.254 0-.849-.36-1.321-.8-.472-.44-1.095-.8-1.383-.8-.289 0-.525-.18-.525-.4 0-.22-.36-.4-.8-.4-.44 0-.8-.18-.8-.4 0-.22-.36-.4-.8-.4-.44 0-.801-.135-.801-.3-.001-.165-.991-.75-2.199-1.3-1.208-.55-2.198-1.135-2.199-1.3 0-.165-.273-.3-.606-.3-.588 0-1.013-.167-2.89-1.138-.492-.254-1.167-.462-1.5-.462-.333 0-.605-.18-.605-.4 0-.22-.36-.4-.8-.4-.44 0-.8-.18-.8-.4 0-.22-.36-.4-.8-.4-.44 0-.8-.18-.8-.4 0-.22-.54-.4-1.2-.4-.66 0-1.2-.18-1.2-.4 0-.22-.36-.4-.8-.4-.44 0-.8-.18-.8-.4 0-.22-.439-.4-.976-.4-.537 0-1.088-.18-1.224-.4-.136-.22-.515-.4-.843-.4-.328 0-1.341-.36-2.251-.8-.911-.44-1.895-.8-2.187-.8-.291 0-.842-.163-1.224-.363-1.142-.597-4.917-1.637-5.941-1.637-.525 0-.954-.18-.954-.4 0-.22-.63-.4-1.4-.4-.77 0-1.4-.18-1.4-.4 0-.22-.529-.4-1.176-.4-.647 0-1.288-.18-1.424-.4-.136-.22-.867-.4-1.624-.4-.757 0-1.376-.18-1.376-.4 0-.22-.72-.4-1.6-.4-.88 0-1.6-.18-1.6-.4 0-.22-.709-.4-1.576-.4-.867 0-1.688-.18-1.824-.4-.136-.22-1.047-.4-2.024-.4-.977 0-1.776-.18-1.776-.4 0-.22-.9-.4-2-.4s-2-.18-2-.4c0-.222-1.059-.4-2.376-.4-1.307 0-2.488-.18-2.624-.4-.136-.22-1.482-.4-2.99-.4-1.817 0-2.799-.166-2.907-.492-.162-.486-37.812-.834-46.803-.433" fill="#f4f4f4"/></g></svg>