<svg xmlns="http://www.w3.org/2000/svg" width="400" height="400"><g fill-rule="evenodd"><path d="M178.3.274c-1.925.086-3.5.33-3.5.542 0 .211-1.249.384-2.776.384-1.527 0-2.888.18-3.024.4-.136.22-1.126.4-2.2.4-1.074 0-2.064.18-2.2.4-.136.22-1.237.4-2.447.4-1.365 0-2.106.152-1.953.4.152.246-.521.4-1.753.4-1.1 0-2.111.18-2.247.4-.136.22-.957.4-1.824.4-.867 0-1.576.18-1.576.4 0 .22-.619.4-1.376.4-.757 0-1.488.18-1.624.4-.136.22-.867.4-1.624.4-.757 0-1.376.18-1.376.4 0 .22-.529.4-1.176.4-.647 0-1.288.18-1.424.4-.136.22-.766.4-1.4.4-.634 0-1.252.16-1.373.356-.121.195-.806.445-1.523.555-2.331.357-8.812 2.486-11.212 3.683-.668.333-1.637.606-2.153.606-.517 0-.939.18-.939.4 0 .22-.36.4-.8.4-.44 0-.8.18-.8.4 0 .22-.355.4-.788.4-.433 0-1.429.36-2.212.8-.783.44-1.689.8-2.012.8-.323 0-.588.18-.588.4 0 .22-.36.4-.8.4-.44 0-.8.141-.8.313 0 .172-.81.552-1.8.844-.99.292-1.8.691-1.8.887 0 .196-.36.356-.8.356-.44 0-.8.18-.8.4 0 .22-.36.4-.8.4-.44 0-.8.18-.8.4 0 .22-.36.4-.8.4-.44 0-.8.18-.8.4 0 .22-.36.4-.8.4-.44 0-.8.18-.8.4 0 .22-.36.4-.8.4-.44 0-.8.18-.8.4 0 .22-.27.4-.6.4-.33 0-.6.18-.6.4 0 .22-.27.4-.6.4-.33 0-.6.18-.6.4 0 .22-.36.4-.8.4-.44 0-.8.18-.8.4 0 .22-.317.4-.705.4-.388 0-1.641.63-2.785 1.4-1.143.77-2.266 1.4-2.494 1.4-.229 0-.416.18-.416.4 0 .22-.27.4-.6.4-.33 0-.6.158-.6.351 0 .194-.54.576-1.2.849-.66.273-1.2.655-1.2.849 0 .193-.236.351-.525.351-.288 0-.911.36-1.383.8-.472.44-1.096.8-1.387.8-.291 0-.788.36-1.105.8-.317.44-.762.8-.988.801-.227 0-1.042.54-1.812 1.199s-1.585 1.199-1.812 1.199c-.226.001-.671.361-.988.801-.317.44-.715.8-.884.8-.274 0-1.098.603-2.461 1.8-.25.22-1.175.933-2.055 1.586-.88.652-1.838 1.417-2.129 1.7-.29.282-.667.514-.837.514-.17 0-1.215.855-2.323 1.9-2.358 2.225-3.638 3.3-3.93 3.3-.115 0-2.008 1.845-4.208 4.1-2.199 2.255-4.181 4.28-4.405 4.5-.223.22-2.197 2.163-4.387 4.317-2.189 2.154-3.981 3.997-3.981 4.095 0 .281-1.246 1.74-3.111 3.642-.94.96-1.602 1.746-1.471 1.746.132 0 .001.264-.289.586-.715.792-1.146 1.336-2.541 3.206-1.496 2.005-2.254 2.956-2.888 3.624-.275.29-.5.68-.5.867 0 .187-.36.6-.8.917-.44.317-.8.825-.8 1.128 0 .303-.54 1.055-1.2 1.672-.66.617-1.2 1.369-1.2 1.672 0 .303-.36.811-.8 1.128-.44.317-.8.897-.8 1.288 0 .392-.15.712-.332.712-.183 0-.588.495-.9 1.1-.312.605-.657 1.19-.767 1.3-.601.599-2.001 2.827-2.001 3.184 0 .229-.18.416-.4.416-.22 0-.4.187-.4.416 0 .228-.63 1.351-1.4 2.494-.77 1.144-1.4 2.397-1.4 2.785 0 .388-.18.705-.4.705-.22 0-.4.36-.4.8 0 .44-.18.8-.4.8-.22 0-.4.27-.4.6 0 .33-.135.601-.3.601-.165.001-.75.991-1.3 2.199-.55 1.208-1.135 2.198-1.3 2.199-.165 0-.3.361-.3.801 0 .44-.18.8-.4.8-.22 0-.4.36-.4.8 0 .44-.18.8-.4.8-.22 0-.4.36-.4.8 0 .44-.18.8-.4.8-.22 0-.4.189-.4.419 0 .231-.36 1.165-.8 2.075-.44.911-.8 1.892-.8 2.181 0 .289-.18.525-.4.525-.22 0-.4.236-.4.525 0 .289-.36 1.27-.8 2.181-.44.91-.8 1.934-.8 2.275 0 .34-.18.619-.4.619-.22 0-.4.36-.4.8 0 .44-.18.8-.4.8-.22 0-.4.416-.4.925 0 .509-.36 1.67-.8 2.581-.44.91-.8 1.846-.8 2.08 0 .234-.176.737-.391 1.119-.677 1.203-2.409 6.869-2.409 7.88 0 .532-.18 1.079-.4 1.215-.22.136-.4.766-.4 1.4 0 .634-.18 1.264-.4 1.4-.22.136-.4.676-.4 1.2 0 .524-.18 1.064-.4 1.2-.22.136-.4.856-.4 1.6 0 .744-.18 1.464-.4 1.6-.22.136-.4.867-.4 1.624 0 .757-.18 1.376-.4 1.376-.22 0-.4.9-.4 2s-.18 2-.4 2c-.22 0-.4.709-.4 1.576 0 .867-.18 1.688-.4 1.824-.22.136-.4 1.036-.4 2s-.18 1.864-.4 2c-.22.136-.4 1.317-.4 2.624 0 1.317-.178 2.376-.4 2.376-.224 0-.4 1.107-.4 2.52 0 1.483-.206 2.726-.5 3.02-.389.389-.5 6.003-.5 25.347 0 19.521.107 24.882.5 25.013.336.112.5 1.076.5 2.933 0 1.578.172 2.767.4 2.767.222 0 .4 1.059.4 2.376 0 1.307.18 2.488.4 2.624.22.136.4 1.036.4 2s.18 1.864.4 2c.22.136.4.957.4 1.824 0 .867.18 1.576.4 1.576.22 0 .4.9.4 2s.18 2 .4 2c.22 0 .4.72.4 1.6 0 .88.18 1.6.4 1.6.22 0 .4.529.4 1.176 0 .647.18 1.288.4 1.424.22.136.4.867.4 1.624 0 .757.18 1.376.4 1.376.22 0 .4.63.4 1.4 0 .77.18 1.4.4 1.4.22 0 .4.446.4.992 0 .911 1.511 5.982 2.417 8.108 1.61 3.781 2.352 5.997 2.095 6.255-.135.135-.035.245.221.245.257 0 .467.36.467.8 0 .44.18.8.4.8.22 0 .4.349.4.776 0 .427.18.888.4 1.024.22.136.4.687.4 1.224 0 .537.18.976.4.976.22 0 .4.36.4.8 0 .44.18.8.4.8.22 0 .4.36.4.8 0 .44.18.8.4.8.22 0 .4.45.4 1s.18 1 .4 1c.22 0 .4.253.4.562 0 .666 1.668 3.979 2.1 4.171.165.074.3.479.3.9 0 .422.135.768.3.77.311.003 1.3 1.9 1.3 2.493 0 .186.36.724.8 1.196.44.472.8 1.095.8 1.383 0 .289.18.525.4.525.22 0 .413.315.429.7.016.385.374 1.24.796 1.9.421.66.891 1.47 1.043 1.8.428.93 4.114 6.786 4.532 7.2.11.11.456.695.768 1.3.312.605.717 1.1.9 1.1.182 0 .332.272.332.604 0 .332.54 1.168 1.2 1.859.66.691 1.2 1.433 1.2 1.649 0 .217.316.685.703 1.041.386.356.957 1.142 1.267 1.747.311.605.715 1.1.898 1.1.182 0 .332.226.332.502s.72 1.267 1.6 2.201c.88.934 1.6 1.801 1.6 1.926 0 .126.225.463.5.751.275.287.77.926 1.1 1.42.33.494.838 1.146 1.129 1.449.29.303.449.551.353.551-.097 0 .88 1.12 2.171 2.489 1.291 1.37 2.347 2.622 2.347 2.784 0 .161 1.792 2.056 3.981 4.21 2.19 2.154 4.164 4.097 4.387 4.317.224.22 2.206 2.245 4.405 4.5 2.2 2.255 4.14 4.101 4.313 4.102.173.002 1.57 1.172 3.106 2.6 1.535 1.429 2.918 2.598 3.071 2.598.154 0 .518.232.808.514.291.283 1.245 1.048 2.121 1.7 1.994 1.485 2.952 2.248 3.624 2.886.29.275.68.5.867.5.187 0 .6.36.917.8.317.44.762.8.988.8.227.001.935.451 1.574 1 .639.55 1.306 1 1.482 1 .176 0 .77.45 1.32 1s1.195 1 1.435 1c.239 0 .821.36 1.293.8.472.44 1.095.8 1.383.8.289 0 .525.142.525.315 0 .174 1.035.937 2.3 1.697 1.265.759 2.36 1.517 2.433 1.684.074.167.29.304.48.304.191 0 1.391.63 2.667 1.399 1.276.769 2.635 1.399 3.02 1.4.385.001.7.159.7.352 0 .194.54.576 1.2.849.66.273 1.2.655 1.2.849 0 .193.234.351.52.351.736 0 2.673.941 2.677 1.3.002.165.348.3.77.3.421 0 .826.143.9.319.18.43 3.772 2.081 4.529 2.081.332 0 .604.18.604.4 0 .22.36.4.8.4.44 0 .8.18.8.4 0 .22.36.4.8.4.44 0 .8.18.8.4 0 .22.36.4.8.4.44 0 .8.147.8.328 0 .18.9.572 2 .872 1.1.3 2 .653 2 .785s.855.49 1.9.795c1.045.305 2.17.689 2.5.854 3.137 1.564 10.427 3.966 12.036 3.966.64 0 1.164.18 1.164.4 0 .22.529.4 1.176.4.647 0 1.288.18 1.424.4.136.22.676.4 1.2.4.524 0 1.064.18 1.2.4.136.22.867.4 1.624.4.757 0 1.376.18 1.376.4 0 .22.72.4 1.6.4.88 0 1.6.18 1.6.4 0 .22.9.4 2 .4s2 .18 2 .4c0 .22.821.4 1.824.4 1.113 0 1.727.156 1.576.4-.153.248.596.4 1.976.4 1.223 0 2.224.18 2.224.4 0 .22.979.4 2.176.4s2.288.18 2.424.4c.136.22 1.482.4 2.99.4 1.839 0 2.798.165 2.91.5.244.732 49.956.732 50.2 0 .112-.335 1.071-.5 2.91-.5 1.508 0 2.854-.18 2.99-.4.136-.22 1.227-.4 2.424-.4 1.197 0 2.176-.18 2.176-.4 0-.22.99-.4 2.2-.4 1.21 0 2.2-.18 2.2-.4 0-.22.709-.4 1.576-.4.867 0 1.688-.18 1.824-.4.136-.22 1.047-.4 2.024-.4.977 0 1.776-.18 1.776-.4 0-.22.72-.4 1.6-.4.88 0 1.6-.18 1.6-.4 0-.22.63-.4 1.4-.4.77 0 1.4-.18 1.4-.4 0-.22.63-.4 1.4-.4.77 0 1.4-.18 1.4-.4 0-.22.63-.4 1.4-.4.77 0 1.4-.18 1.4-.4 0-.22.441-.4.98-.4 1.18 0 9.964-2.845 10.153-3.288.074-.172.481-.312.906-.312.746 0 1.137-.145 3.056-1.138.492-.254 1.167-.462 1.5-.462.333 0 .605-.18.605-.4 0-.22.355-.4.788-.4.433 0 1.429-.36 2.212-.8.783-.44 1.689-.8 2.012-.8.323 0 .588-.18.588-.4 0-.22.272-.4.605-.4.333 0 .918-.168 1.3-.374.382-.205 1.28-.609 1.995-.897.715-.289 1.3-.66 1.3-.827 0-.166.234-.302.52-.302.736 0 2.673-.941 2.677-1.3.002-.165.363-.3.803-.3.44 0 .8-.18.8-.4 0-.22.36-.4.8-.4.44 0 .8-.18.8-.4 0-.22.236-.4.525-.4.288 0 .911-.36 1.383-.8.472-.44 1.136-.8 1.475-.8.339 0 .617-.18.617-.4 0-.22.287-.4.638-.4.591 0 2.904-1.115 3.362-1.621.11-.121.85-.523 1.645-.892.795-.37 1.672-.946 1.949-1.28.277-.334.752-.607 1.055-.607.303 0 .551-.18.551-.4 0-.22.236-.4.525-.4.288 0 .911-.36 1.383-.8.472-.44 1.096-.8 1.387-.8.291 0 .788-.36 1.105-.8.317-.44.857-.8 1.2-.8.343 0 .883-.36 1.2-.8.317-.44.78-.8 1.029-.8.249 0 1.017-.54 1.708-1.2.691-.66 1.488-1.2 1.771-1.2.283 0 .775-.36 1.092-.8.317-.44.772-.8 1.01-.8.239 0 1.121-.63 1.962-1.4.841-.77 1.651-1.4 1.8-1.4.149 0 .959-.63 1.8-1.4.841-.77 1.641-1.403 1.778-1.407.138-.004 1.24-.928 2.45-2.055 1.21-1.126 2.828-2.518 3.595-3.093.768-.575 2.978-2.665 4.912-4.645 1.935-1.98 3.673-3.754 3.864-3.941.191-.188 2.044-2.004 4.118-4.036 2.075-2.032 4.299-4.392 4.942-5.244.643-.852 1.934-2.353 2.869-3.336.935-.982 1.7-1.911 1.7-2.064 0-.153.63-.966 1.4-1.807.77-.841 1.4-1.653 1.4-1.806 0-.153.626-.973 1.391-1.822.765-.849 1.395-1.729 1.4-1.956.005-.226.369-.671.809-.988.44-.317.8-.809.8-1.092 0-.283.54-1.08 1.2-1.771.66-.691 1.2-1.459 1.2-1.708 0-.249.36-.712.8-1.029.44-.317.8-.857.8-1.2 0-.343.36-.883.8-1.2.44-.317.8-.814.8-1.105 0-.291.336-.889.746-1.329.411-.441 1.159-1.603 1.663-2.584.504-.98 1.025-1.782 1.156-1.782.132 0 .497-.581.811-1.291.314-.71.988-1.905 1.498-2.656.509-.75.926-1.685.926-2.075 0-.391.135-.771.3-.845.376-.167 1.675-2.297 1.971-3.233.122-.385.381-.7.576-.7.194 0 .353-.36.353-.8 0-.44.18-.8.4-.8.22 0 .4-.345.4-.767 0-.421.135-.826.3-.9.165-.073.725-1.033 1.244-2.133s1.104-2.313 1.3-2.695c.196-.382.356-.967.356-1.3 0-.333.18-.605.4-.605.22 0 .4-.36.4-.8 0-.44.18-.8.4-.8.22 0 .4-.236.4-.525 0-.289.36-1.27.8-2.181.44-.91.8-1.934.8-2.275 0-.34.18-.619.4-.619.22 0 .4-.272.4-.605 0-.333.18-.963.4-1.4.22-.437.58-1.153.8-1.59.22-.437.4-1.142.4-1.566 0-.425.14-.832.312-.906.443-.189 3.288-8.973 3.288-10.153 0-.539.18-.98.4-.98.22 0 .4-.63.4-1.4 0-.77.18-1.4.4-1.4.22 0 .4-.619.4-1.376 0-.757.18-1.488.4-1.624.22-.136.4-.777.4-1.424 0-.647.18-1.176.4-1.176.22 0 .4-.72.4-1.6 0-.88.18-1.6.4-1.6.22 0 .4-.9.4-2s.18-2 .4-2c.22 0 .4-.72.4-1.6 0-.88.18-1.6.4-1.6.22 0 .4-.99.4-2.2 0-1.21.18-2.2.4-2.2.22 0 .4-.979.4-2.176s.18-2.288.4-2.424c.22-.136.4-1.461.4-2.944 0-1.623.199-2.895.5-3.196.389-.389.5-5.963.5-25.147 0-19.361-.107-24.682-.5-24.813-.335-.112-.5-1.071-.5-2.91 0-1.508-.18-2.854-.4-2.99-.22-.136-.4-1.227-.4-2.424 0-1.197-.18-2.176-.4-2.176-.22 0-.4-.889-.4-1.976s-.18-2.088-.4-2.224c-.22-.136-.4-.957-.4-1.824 0-.867-.18-1.576-.4-1.576-.22 0-.4-.9-.4-2s-.18-2-.4-2c-.22 0-.4-.619-.4-1.376 0-.757-.18-1.488-.4-1.624-.22-.136-.4-.856-.4-1.6 0-.744-.18-1.464-.4-1.6-.22-.136-.4-.676-.4-1.2 0-.524-.18-1.064-.4-1.2-.22-.136-.4-.867-.4-1.624 0-.757-.18-1.376-.4-1.376-.22 0-.4-.446-.4-.992 0-1.362-1.99-7.432-3.247-9.903-.194-.382-.353-1.057-.353-1.5 0-.443-.147-.805-.328-.805-.18 0-.572-.9-.872-2-.3-1.1-.692-2-.872-2-.181 0-.328-.439-.328-.976 0-.537-.18-1.088-.4-1.224-.22-.136-.4-.597-.4-1.024 0-.427-.18-.776-.4-.776-.22 0-.4-.36-.4-.8 0-.44-.18-.8-.4-.8-.22 0-.4-.36-.4-.8 0-.44-.18-.8-.4-.8-.22 0-.4-.45-.4-1s-.18-1-.4-1c-.22 0-.4-.36-.4-.8 0-.44-.18-.8-.4-.8-.22 0-.4-.234-.4-.52 0-.736-.941-2.673-1.3-2.677-.165-.002-.3-.363-.3-.803 0-.44-.18-.8-.4-.8-.22 0-.4-.36-.4-.8 0-.44-.135-.803-.3-.806-.165-.004-.74-.904-1.279-2-.538-1.097-1.123-1.994-1.3-1.994-.176 0-.321-.326-.321-.724 0-.397-.63-1.769-1.4-3.048-.77-1.279-1.4-2.483-1.4-2.676 0-.194-.135-.352-.301-.352-.165 0-.745-.855-1.289-1.9-.544-1.045-1.308-2.191-1.699-2.547-.391-.356-.711-.901-.711-1.212 0-.31-.36-.824-.8-1.141-.44-.317-.8-.857-.8-1.2 0-.343-.36-.883-.8-1.2-.44-.317-.8-.815-.8-1.106 0-.292-.437-.967-.971-1.501-.534-.534-1.293-1.516-1.686-2.182-.394-.666-.857-1.211-1.029-1.211-.173 0-.314-.178-.314-.395 0-.218-.315-.773-.7-1.234-.385-.461-1.105-1.318-1.6-1.905-.494-.586-.899-1.182-.9-1.324 0-.141-.54-.835-1.2-1.542-.66-.707-1.204-1.401-1.209-1.542-.005-.142-1.173-1.518-2.596-3.058-1.423-1.54-2.589-2.927-2.591-3.083-.002-.156-1.796-2.046-3.985-4.2-4.925-4.845-4.125-4.044-9.065-9.076-2.29-2.332-4.309-4.241-4.486-4.241-.178 0-1.323-.945-2.544-2.1-1.222-1.155-2.379-2.161-2.573-2.235-.509-.195-2.48-1.72-3.573-2.765-.518-.495-1.05-.9-1.182-.9-.131 0-.815-.539-1.518-1.198-.703-.659-1.463-1.199-1.69-1.2-.226-.001-.671-.362-.988-.802-.317-.44-.78-.8-1.029-.8-.249 0-1.017-.54-1.708-1.2-.691-.66-1.488-1.2-1.771-1.2-.283 0-.775-.36-1.092-.8-.317-.44-.857-.8-1.2-.8-.343 0-.883-.36-1.2-.8-.317-.44-.857-.8-1.2-.8-.343 0-.883-.36-1.2-.8-.317-.44-.882-.8-1.255-.8-.373 0-.738-.142-.812-.316-.175-.415-4.231-2.884-4.739-2.884-.217 0-.394-.145-.394-.323 0-.345-2.78-1.677-3.501-1.677-.238 0-.492-.135-.566-.3-.167-.376-2.297-1.675-3.233-1.971-.385-.122-.7-.381-.7-.576 0-.194-.36-.353-.8-.353-.44 0-.8-.18-.8-.4 0-.22-.345-.4-.767-.4-.421 0-.826-.135-.9-.3-.073-.165-1.033-.725-2.133-1.244s-2.313-1.104-2.695-1.3c-.382-.196-.967-.356-1.3-.356-.333 0-.605-.18-.605-.4 0-.22-.36-.4-.8-.4-.44 0-.8-.18-.8-.4 0-.22-.36-.4-.8-.4-.44 0-.8-.18-.8-.4 0-.22-.349-.4-.776-.4-.427 0-.888-.18-1.024-.4-.136-.22-.687-.4-1.224-.4-.537 0-.976-.18-.976-.4 0-.22-.36-.4-.8-.4-.44 0-.8-.191-.8-.424 0-.233-.148-.332-.329-.22-.18.112-.831-.058-1.445-.376-.615-.319-1.421-.58-1.792-.58s-.845-.158-1.054-.351c-.607-.56-8.857-3.249-9.969-3.249-.556 0-1.011-.18-1.011-.4 0-.22-.63-.4-1.4-.4-.77 0-1.4-.18-1.4-.4 0-.22-.619-.4-1.376-.4-.757 0-1.488-.18-1.624-.4-.136-.22-.777-.4-1.424-.4-.647 0-1.176-.18-1.176-.4 0-.22-.72-.4-1.6-.4-.88 0-1.6-.18-1.6-.4 0-.22-.9-.4-2-.4s-2-.18-2-.4c0-.22-.72-.4-1.6-.4-.88 0-1.6-.18-1.6-.4 0-.22-.889-.4-1.976-.4s-2.088-.18-2.224-.4c-.136-.22-1.317-.4-2.624-.4-1.317 0-2.376-.178-2.376-.4 0-.228-1.189-.4-2.767-.4-1.818 0-2.822-.167-2.929-.487-.16-.481-37.96-.836-46.804-.439m24.023 79.663c.813.625 2.827 2.123 4.477 3.328 2.976 2.175 5.6 4.107 16 11.782 2.97 2.192 6.03 4.422 6.8 4.956.77.534 1.607 1.157 1.86 1.384.253.227 3.291 2.483 6.752 5.013 7.414 5.421 16.139 11.854 16.988 12.527.33.262 4.02 2.978 8.2 6.036 4.18 3.059 10.48 7.69 14 10.292 3.52 2.603 8.38 6.186 10.8 7.962 2.42 1.777 4.85 3.566 5.4 3.976 1.486 1.107 12.454 9.194 19.8 14.6 3.344 2.46 8.652 6.373 15.2 11.205 13.003 9.595 15.936 11.753 18.464 13.588 1.505 1.092 5.526 4.048 8.936 6.569 3.41 2.52 6.785 5.011 7.5 5.534 1.966 1.439 2.639.709-7.6 8.245-3.786 2.787-11.027 8.121-12.3 9.061-.55.406-2.35 1.735-4 2.954s-3.72 2.74-4.6 3.38c-.88.64-4.39 3.227-7.8 5.748-10.622 7.852-17.259 12.747-24.032 17.723-10.594 7.784-24.872 18.305-34.029 25.075-3.663 2.709-8.509 6.275-10.768 7.925-2.259 1.65-6.732 4.937-9.939 7.305-6.994 5.164-18.256 13.458-21.032 15.49-1.1.805-4.43 3.266-7.4 5.469-20.838 15.456-19.782 14.718-20.466 14.295-.276-.171-1.967-1.401-3.758-2.735-1.791-1.333-5.218-3.857-7.616-5.609-2.398-1.752-7.06-5.18-10.36-7.618-3.3-2.438-7.95-5.865-10.334-7.615-2.384-1.75-8.712-6.422-14.063-10.382-8.551-6.328-11.764-8.693-21.781-16.027-1.222-.895-5.102-3.758-8.622-6.364-6.948-5.142-9.027-6.672-13-9.562-1.43-1.04-2.87-2.109-3.2-2.375-.33-.266-1.23-.928-2-1.472-.77-.544-1.67-1.206-2-1.472-.33-.266-1.68-1.275-3-2.242-1.32-.968-5.19-3.82-8.6-6.338-3.41-2.519-6.83-5.02-7.6-5.558-.77-.538-1.67-1.198-2-1.465-.33-.268-2.13-1.607-4-2.976-4.529-3.316-7.92-5.816-14.4-10.619-2.97-2.201-8.1-5.975-11.4-8.385-11.743-8.579-16.6-12.238-16.6-12.507 0-.312.172-.442 15.4-11.643 2.2-1.618 6.43-4.739 9.4-6.935 5.335-3.945 8.146-6.015 14-10.311 1.65-1.211 5.07-3.733 7.6-5.605 2.53-1.871 6.4-4.722 8.6-6.336 2.2-1.613 5.62-4.135 7.6-5.604 1.98-1.469 5.912-4.366 8.737-6.437 5.087-3.731 17.199-12.648 26.463-19.486 2.64-1.948 6.15-4.531 7.8-5.739 1.65-1.208 5.54-4.074 8.645-6.369 3.105-2.295 8.595-6.348 12.2-9.006 3.605-2.657 9.345-6.894 12.755-9.415 3.41-2.521 7.794-5.746 9.742-7.167 1.949-1.422 6.162-4.52 9.364-6.885 6.381-4.714 6.669-4.817 8.817-3.163m-10.902 50.81c-.648.139 3.187.253 8.523.253 5.335 0 9.286-.117 8.778-.26-1.181-.333-15.741-.327-17.301.007m-4.687.653c-.11.109-.995.362-1.967.562-2.872.589-6.417 1.622-7.116 2.073-.731.472-.283.381 3.549-.72 1.21-.347 3.64-.947 5.4-1.333 2.381-.521 2.833-.711 1.767-.741-.789-.023-1.523.049-1.633.159m24.666.2c1.797.457 3.464.457 2.4 0-.44-.189-1.43-.335-2.2-.325l-1.4.02 1.2.305m7.001 1.538c21.128 6.053 38.307 21.385 46.008 41.062 1.656 4.231 2.129 5.868 3.935 13.6.303 1.298.381 1.394.415.511.144-3.789-4.326-16.288-8.325-23.28-3.865-6.756-11.426-15.473-17.034-19.638-.88-.654-1.69-1.294-1.8-1.423-2.831-3.319-22.077-12.08-26.243-11.946-.416.014.953.515 3.044 1.114m-45.601 2.61c-5.174 2.233-12.591 6.499-14.653 8.428-.249.233-1.239 1.043-2.2 1.8-2.252 1.775-8.196 7.719-9.971 9.971-.757.961-1.567 1.951-1.8 2.2-1.662 1.777-6.616 10.201-7.745 13.171-.396 1.042-.364 1.08.879 1.028.94-.04 1.046-.102.39-.228-1.158-.223-1.167-.175.693-3.819 4.686-9.177 13.341-19.238 21.007-24.421 1.32-.892 2.46-1.77 2.533-1.95.074-.181.316-.328.539-.328.222 0 .882-.336 1.466-.747 1.779-1.252 6.895-3.842 9.962-5.043 1.595-.625 2.9-1.198 2.9-1.273 0-.355-1.249.024-4 1.211m-16.7 34.139c.605.091 1.595.091 2.2 0 .605-.092.11-.167-1.1-.167-1.21 0-1.705.075-1.1.167m16 0c.605.091 1.595.091 2.2 0 .605-.092.11-.167-1.1-.167-1.21 0-1.705.075-1.1.167m-19.8.395c.495.096 1.305.096 1.8 0 .495-.095.09-.173-.9-.173s-1.395.078-.9.173m24 0c.495.096 1.305.096 1.8 0 .495-.095.09-.173-.9-.173s-1.395.078-.9.173m-31.4.794c.385.1 1.015.1 1.4 0 .385-.101.07-.183-.7-.183s-1.085.082-.7.183m-4.3.524c-1.089.277-1.107.307-.2.325.55.01 1.36-.136 1.8-.325.986-.424.066-.424-1.6 0M269 200c0 5.526.117 9.632.26 9.124.143-.508.26-4.614.26-9.124 0-4.51-.117-8.616-.26-9.124-.143-.508-.26 3.598-.26 9.124m-27.826-8.476c.535.435 1.525 1.095 2.2 1.467l1.226.676-.974-.791c-.535-.435-1.525-1.095-2.2-1.467l-1.226-.676.974.791m4.826 3.038c0 .11.81.757 1.8 1.438.99.681 1.8 1.148 1.8 1.038 0-.11-.81-.757-1.8-1.438-.99-.681-1.8-1.148-1.8-1.038m-83.9 1.335c1.705.075 4.495.075 6.2 0s.31-.136-3.1-.136-4.805.061-3.1.136m-9.4.385c.495.096 1.305.096 1.8 0 .495-.095.09-.173-.9-.173s-1.395.078-.9.173m23.2 0c.495.096 1.305.096 1.8 0 .495-.095.09-.173-.9-.173s-1.395.078-.9.173m-45.46 7.951c.022 1.962.184 4.017.361 4.567.178.553.224-.968.105-3.4-.266-5.376-.52-6.015-.466-1.167m127.16-.908c0 .069.585.654 1.3 1.3l1.3 1.175-1.175-1.3c-1.095-1.212-1.425-1.484-1.425-1.175m3.6 3.2c0 .069.585.654 1.3 1.3l1.3 1.175-1.175-1.3c-1.095-1.212-1.425-1.484-1.425-1.175m-129.96 4.829c-.022.634.132 1.804.342 2.6.21.795.489 1.962.619 2.593.131.631.319 1.067.418.968.098-.099-.162-1.785-.58-3.748-.417-1.962-.777-3.048-.799-2.413m137.22.146c-.038.562-.323.905-.76.912-.649.011-.646.043.03.437.944.549 1.17.287.96-1.112-.131-.877-.184-.931-.23-.237m-135.623 6.9c-.151 3.211 8.27 20.758 11.133 23.2.129.11.763.92 1.409 1.8 3.85 5.244 13.183 13.333 19.652 17.034 7.005 4.007 19.534 8.483 23.28 8.318.807-.036.623-.152-.711-.448-9.819-2.181-18.643-5.593-23.662-9.151-.584-.414-1.186-.753-1.337-.753-2.464 0-21.001-18.513-21.001-20.974 0-.155-.506-1.034-1.125-1.954-2.072-3.081-4.913-9.388-6.698-14.872-.502-1.54-.925-2.53-.94-2.2m107.563 4.525c0 .069.585.654 1.3 1.3l1.3 1.175-1.175-1.3c-1.095-1.212-1.425-1.484-1.425-1.175m7.4 7.075c2.412 2.42 4.476 4.4 4.586 4.4.11 0-1.774-1.98-4.186-4.4-2.412-2.42-4.476-4.4-4.586-4.4-.11 0 1.774 1.98 4.186 4.4m7.4 7.92c0 .21.27.606.6.88 1.666 1.383-4.186 8.581-12.4 15.253-4.363 3.543-4.692 3.765-10.1 6.785-.825.46-1.68 1.011-1.9 1.223-.623.601 1.037-.079 2.262-.926.584-.404 1.177-.735 1.318-.735.269 0 6.274-3.964 6.62-4.37.11-.129.92-.762 1.8-1.406 2.398-1.756 8.827-8.123 10.727-10.624.919-1.21 1.761-2.29 1.872-2.4 1.257-1.251 1.286-1.584.243-2.823-.573-.681-1.042-1.067-1.042-.857m-26.6 25.243c-2.434 1.434-11.717 4.348-17.024 5.345-.94.176-.936.185.113.238 1.545.077 9.489-2.076 13.511-3.662 3.84-1.514 6.093-2.658 5.2-2.64-.33.007-1.14.331-1.8.719m-37.724 6.097c.508.143 4.614.26 9.124.26 4.51 0 8.616-.117 9.124-.26.508-.143-3.598-.26-9.124-.26-5.526 0-9.632.117-9.124.26" fill="#6ca444"/><path d="M193.506 83.1c-3.202 2.365-7.415 5.463-9.364 6.885-1.948 1.421-6.332 4.646-9.742 7.167-3.41 2.521-9.15 6.758-12.755 9.415-3.605 2.658-9.095 6.711-12.2 9.006-3.105 2.295-6.995 5.161-8.645 6.369-1.65 1.208-5.16 3.791-7.8 5.739-9.264 6.838-21.376 15.755-26.463 19.486-2.825 2.071-6.757 4.968-8.737 6.437-1.98 1.469-5.4 3.991-7.6 5.604-2.2 1.614-6.07 4.465-8.6 6.336-2.53 1.872-5.95 4.394-7.6 5.605-5.854 4.296-8.665 6.366-14 10.311-2.97 2.196-7.2 5.317-9.4 6.935-15.228 11.201-15.4 11.331-15.4 11.643 0 .269 4.857 3.928 16.6 12.507 3.3 2.41 8.43 6.184 11.4 8.385 6.48 4.803 9.871 7.303 14.4 10.619 1.87 1.369 3.67 2.708 4 2.976.33.267 1.23.927 2 1.465s4.19 3.039 7.6 5.558c3.41 2.518 7.28 5.37 8.6 6.338 1.32.967 2.67 1.976 3 2.242.33.266 1.23.928 2 1.472.77.544 1.67 1.206 2 1.472.33.266 1.77 1.335 3.2 2.375 3.973 2.89 6.052 4.42 13 9.562 3.52 2.606 7.4 5.469 8.622 6.364 10.017 7.334 13.23 9.699 21.781 16.027 5.351 3.96 11.679 8.632 14.063 10.382 2.384 1.75 7.034 5.177 10.334 7.615 3.3 2.438 7.962 5.866 10.36 7.618 2.398 1.752 5.825 4.276 7.616 5.609 1.791 1.334 3.482 2.564 3.758 2.735.684.423-.372 1.161 20.466-14.295 2.97-2.203 6.3-4.664 7.4-5.469 2.776-2.032 14.038-10.326 21.032-15.49 3.207-2.368 7.68-5.655 9.939-7.305 2.259-1.65 7.105-5.216 10.768-7.925 9.157-6.77 23.435-17.291 34.029-25.075 6.773-4.976 13.41-9.871 24.032-17.723 3.41-2.521 6.92-5.108 7.8-5.748.88-.64 2.95-2.161 4.6-3.38 1.65-1.219 3.45-2.548 4-2.954 1.273-.94 8.514-6.274 12.3-9.061 10.239-7.536 9.566-6.806 7.6-8.245-.715-.523-4.09-3.014-7.5-5.534-3.41-2.521-7.431-5.477-8.936-6.569-2.528-1.835-5.461-3.993-18.464-13.588-6.548-4.832-11.856-8.745-15.2-11.205-7.346-5.406-18.314-13.493-19.8-14.6-.55-.41-2.98-2.199-5.4-3.976-2.42-1.776-7.28-5.359-10.8-7.962-3.52-2.602-9.82-7.233-14-10.292-4.18-3.058-7.87-5.774-8.2-6.036-.849-.673-9.574-7.106-16.988-12.527-3.461-2.53-6.499-4.786-6.752-5.013-.253-.227-1.09-.85-1.86-1.384-.77-.534-3.83-2.764-6.8-4.956-10.4-7.675-13.024-9.607-16-11.782-1.65-1.205-3.664-2.703-4.477-3.328-2.148-1.654-2.436-1.551-8.817 3.163m15.87 47.731c7.413 1.318 10.636 2.15 15.624 4.036 5.157 1.95 15.193 7.453 16.6 9.103.11.129.92.769 1.8 1.423 13.2 9.803 22.818 26.641 25.823 45.207.759 4.689.112 21.747-.864 22.78-.197.209-.359.736-.359 1.172 0 .435-.173 1.344-.385 2.02-.211.675-.941 3.028-1.622 5.228-1.348 4.359-4.671 11.449-7.196 15.355-.878 1.36-1.597 2.612-1.597 2.783 0 .171-.315.66-.7 1.087-.385.427-1.228 1.496-1.874 2.375-1.764 2.404-8.13 8.83-10.626 10.727-1.21.919-2.29 1.775-2.4 1.902-.11.127-1.294.968-2.631 1.869-8.494 5.724-17.648 9.26-29.193 11.278-22.309 3.9-51.058-7.607-64.397-25.776-.646-.88-1.28-1.69-1.409-1.8-.708-.604-4.472-6.694-6.057-9.8-4.792-9.394-6.972-17.78-7.383-28.4-.368-9.506 1.319-20.229 4.336-27.555.624-1.515 1.134-2.982 1.134-3.259 0-1.373 6.207-12.334 8.176-14.439.233-.249 1.043-1.239 1.8-2.2 1.775-2.252 7.719-8.196 9.971-9.971.961-.757 1.951-1.567 2.2-1.8 5.677-5.311 20.337-11.361 32.253-13.311 3.167-.518 16.121-.542 18.976-.034" fill="#fbdb44"/><path d="M192.2 131.055c-9.059.961-22.155 5.501-28.262 9.798-.584.411-1.244.747-1.466.747-.223 0-.465.147-.539.328-.073.18-1.213 1.058-2.533 1.95-7.723 5.221-16.406 15.344-21.067 24.56-1.989 3.933-2.077 3.848 3.169 3.029 45.471-7.099 89.614 6.324 121.968 37.087 2.224 2.116 4.233 3.846 4.463 3.846 1.286 0 1.541-19.489.327-25-1.34-6.082-2.175-8.946-3.849-13.2-11.21-28.482-41.246-46.428-72.211-43.145m-40.848 65.556c-5.549.714-10.442 1.648-14.952 2.854-2.09.558-4.231 1.113-4.758 1.233-3.624.823 2.675 25.618 8.833 34.774.619.92 1.125 1.799 1.125 1.954 0 2.461 18.537 20.974 21.001 20.974.151 0 .753.339 1.337.753 12.766 9.05 35.499 12.529 52.862 8.09 7.052-1.803 11.357-3.478 16.655-6.481.74-.419 2.02-1.143 2.845-1.609 6.493-3.666 20.1-16.633 20.1-19.156 0-1.905-12.36-14.183-20.803-20.666-22.896-17.578-55.623-26.404-84.245-22.72" fill="#0454b4"/><path d="M158.8 169.83c-.33.075-3.03.338-6 .583-5.247.433-6.672.603-13.411 1.595l-3.211.473-1.272 3.259c-3.521 9.025-5.925 25.569-3.606 24.825.944-.303 1.65-.488 5.9-1.552 4.769-1.194 6.161-1.464 13.8-2.682 4.407-.703 24.062-.679 28.6.034 3.795.596 12.246 2.24 14.4 2.801 7.341 1.912 12.779 3.759 17.968 6.104 3.632 1.641 11.438 5.622 12.485 6.368.589.419 1.186.762 1.327.762.415 0 6.123 3.893 10.171 6.938 6.504 4.891 12.69 10.727 18.91 17.84l2.255 2.579 1.64-2.537c4.014-6.211 7.84-15.529 9.206-22.42.303-1.526-.63-2.607-7.682-8.903-17.165-15.321-41.223-27.88-61.88-32.301-2.257-.483-7.636-1.561-9.8-1.964-7.484-1.395-26.542-2.547-29.8-1.802" fill="#f3f3f3"/></g></svg>