<svg xmlns="http://www.w3.org/2000/svg" width="400" height="400"><g fill-rule="evenodd"><path d="M388 129.978c0 .299-55.652.395-188.4.323-188.153-.101-188.4-.1-188.447.699-.026.44-.026.935 0 1.1.026.165-.133.3-.353.3-.22 0-.4.54-.4 1.2 0 .66-.18 1.2-.4 1.2-.22 0-.4.551-.4 1.224 0 .713-.167 1.12-.4.976-.22-.136-.409.078-.42.476-.053 1.862-.509 4.347-.836 4.553-.2.127-.388.892-.418 1.7-.031.809-.206 1.471-.391 1.471-.184 0-.335.27-.335.6 0 .33-.18.6-.4.6-.22 0-.4.99-.4 2.2 0 1.21-.18 2.2-.4 2.2-.22 0-.4.63-.4 1.4 0 .77-.18 1.4-.4 1.4-.22 0-.4.81-.4 1.8s-.18 1.8-.4 1.8c-.22 0-.4.9-.4 2s-.18 2-.4 2c-.22 0-.4.911-.4 2.024 0 1.247-.153 1.928-.4 1.776-.252-.156-.4.796-.4 2.576 0 1.616-.171 2.824-.4 2.824-.231 0-.4 1.256-.4 2.967 0 2.017-.16 3.02-.5 3.133-.732.244-.732 46.756 0 47 .34.113.5 1.116.5 3.133 0 1.711.169 2.967.4 2.967.229 0 .4 1.208.4 2.824 0 1.78.148 2.732.4 2.576.247-.152.4.529.4 1.776 0 1.113.18 2.024.4 2.024.22 0 .4.99.4 2.2 0 1.21.143 2.2.318 2.2.175 0 .363.675.418 1.5.054.825.271 1.56.482 1.633.21.074.382.749.382 1.5 0 .752.18 1.367.4 1.367.22 0 .4.81.4 1.8 0 1.17.175 1.802.5 1.806.333.004.3.136-.1.394s-.433.39-.1.394c.275.003.5.377.5.83 0 .453.18.712.4.576.22-.136.4-.072.4.143 0 .215-.225.481-.5.592-.4.161-.4.208 0 .233.275.018.5.377.5.799 0 .421.157.826.35.9.192.073.472 1.303.621 2.733.15 1.43.442 2.771.65 2.98.209.209.379.704.379 1.1 0 .396.18.72.4.72.22 0 .4.619.4 1.376 0 .757.18 1.488.4 1.624.22.136.4.552.4.924 0 .634 11.767.676 188.8.676 177.033 0 188.8-.042 188.8-.676 0-.372.18-.788.4-.924.22-.136.4-.877.4-1.647 0-.832.162-1.3.4-1.153.223.138.4-.169.4-.696 0-.519.184-1.128.408-1.352.225-.225.521-1.611.658-3.08.137-1.47.404-2.672.592-2.672.188 0 .342-.54.342-1.2 0-.66.18-1.2.4-1.2.22 0 .4-.36.4-.8 0-.44.225-.803.5-.806.333-.004.3-.136-.1-.394s-.433-.39-.1-.394c.325-.004.5-.636.5-1.806 0-.99.18-1.8.4-1.8.22 0 .403-.675.406-1.5.005-1.116.106-1.346.394-.9.273.422.391-.172.4-2 .009-1.828.127-2.422.4-2 .275.426.39-.067.394-1.7.003-1.265.186-2.3.406-2.3.22 0 .4-.63.4-1.4 0-.77.18-1.4.4-1.4.233 0 .4-1.333.4-3.2 0-1.867.167-3.2.4-3.2.231 0 .4-1.256.4-2.967 0-2.017.16-3.02.5-3.133.391-.13.508-4.663.539-20.733.041-21.962-.084-26.91-.671-26.547-.212.131-.368-1.056-.368-2.796 0-1.749-.169-3.024-.4-3.024-.229 0-.4-1.2-.4-2.8 0-1.97-.148-2.802-.5-2.806-.333-.004-.3-.136.1-.394s.433-.39.1-.394c-.304-.004-.5-.556-.5-1.406 0-.77-.18-1.4-.4-1.4-.22 0-.4-.81-.4-1.8s-.18-1.8-.4-1.8c-.22 0-.397-.315-.394-.7.005-.598.063-.613.394-.1.233.361.39.41.394.124.003-.262-.174-.588-.394-.724-.22-.136-.4-.777-.4-1.424 0-.647-.18-1.176-.4-1.176-.22 0-.4-.63-.4-1.4 0-.77-.151-1.4-.337-1.4-.185 0-.369-.945-.409-2.1-.041-1.155-.249-2.16-.464-2.233-.214-.074-.39-.479-.39-.9 0-.422-.225-.77-.5-.773-.333-.004-.3-.136.1-.394s.433-.39.1-.394c-.275-.003-.5-.366-.5-.806 0-.44-.155-.8-.344-.8-.19 0-.446-1.121-.571-2.49-.124-1.37-.419-2.555-.655-2.633-.237-.079-.43-.769-.43-1.534 0-.825-.163-1.29-.4-1.143-.238.147-.4-.321-.4-1.153 0-.77-.18-1.511-.4-1.647-.22-.136-.4-.586-.4-1 0-.414-.18-.864-.4-1-.22-.136-.4-.056-.4.178" fill="#0454b4"/><path d="M11.936 269.798c-.323.322.124 2.602.509 2.602.195 0 .358.495.361 1.1.005.857.092.968.394.5.294-.455.389-.286.394.7.003.715.186 1.3.406 1.3.22 0 .4.461.4 1.024 0 .58.173.916.4.776.22-.136.4.123.4.576 0 .453.18.824.4.824.22 0 .4.54.4 1.2 0 .66.18 1.2.4 1.2.22 0 .4.45.4 1s.18 1 .4 1c.22 0 .4.36.4.8 0 .44.18.8.4.8.22 0 .4.27.4.6 0 .33.141.6.313.6.172 0 .353.485.402 1.078.049.592.223 1.177.388 1.3.164.122.553.717.865 1.322.312.605.717 1.1.9 1.1.182 0 .332.27.332.6 0 .33.18.6.4.6.22 0 .403.585.406 1.3.005.986.1 1.155.394.7.291-.451.391-.252.4.8.009 1.052.109 1.251.4.8.314-.485.389-.428.394.3.003.495.186.9.406.9.22 0 .4.315.401.7.001.385.631 1.744 1.4 3.02.769 1.276 1.399 2.499 1.399 2.717 0 .218.36.783.8 1.255.44.472.8 1.095.8 1.383 0 .289.18.525.4.525.22 0 .4.23.4.512 0 .281.36.771.8 1.088.44.317.8.825.8 1.128 0 .303.54 1.055 1.2 1.672.66.617 1.2 1.409 1.2 1.76 0 .352.18.64.4.64.22 0 .4.32.4.712 0 .391.36.971.8 1.288.44.317.8.785.8 1.04s.72 1.205 1.6 2.112c.879.906 1.4 1.648 1.157 1.648-.243 0 .117.522.801 1.16.683.639 1.242 1.359 1.242 1.6 0 .242.18.44.4.44.22 0 .4.212.4.472 0 .259.585 1.024 1.3 1.7.715.675 1.345 1.452 1.399 1.725.054.273.999 1.416 2.1 2.54s2.001 2.212 2.001 2.416c0 .283 5.187 5.558 9.302 9.461.166.157 2.27 2.311 4.674 4.786 2.405 2.475 4.54 4.5 4.745 4.5.204 0 1.402.99 2.661 2.2 1.26 1.21 2.439 2.2 2.621 2.2.183 0 1.081.72 1.997 1.6.916.88 1.854 1.6 2.086 1.6.231 0 .723.349 1.092.775.37.426.917.831 1.215.9.299.069 1.254.8 2.123 1.625.869.825 1.789 1.5 2.044 1.5.255 0 .723.36 1.04.8.317.44.897.8 1.288.8.392 0 .712.18.712.4 0 .22.288.4.64.4.351 0 1.143.54 1.76 1.2.617.66 1.409 1.2 1.76 1.2.352 0 .64.18.64.4 0 .22.405.403.9.406.728.005.785.08.3.394-.513.331-.498.389.1.394.385.003.7.165.7.359 0 .195.315.46.7.589.793.267 2.62 1.322 4.089 2.359.544.385 1.309.699 1.7.699s.711.177.711.392c0 .216.495.515 1.1.664.605.15 1.391.603 1.747 1.008.356.405 1.121.736 1.7.736s1.053.18 1.053.4c0 .22.294.4.653.4.359 0 .944.329 1.3.73.356.402 1.232.986 1.947 1.298.715.312 1.3.703 1.3.87 0 .166.36.302.8.302.44 0 .8.18.8.4 0 .22.272.4.605.4.333 0 1.008.208 1.5.462 1.877.971 2.302 1.138 2.89 1.138.333 0 .605.18.605.4 0 .22.36.4.8.4.44 0 .8.18.8.4 0 .22.36.4.8.4.44 0 .803.225.806.5.004.333.136.3.394-.1s.39-.433.394-.1c.003.275.366.5.806.5.44 0 .8.18.8.4 0 .22.551.4 1.224.4.713 0 1.12.167.976.4-.136.22.036.4.382.4.346 0 .941.159 1.323.353.382.195 1.235.576 1.895.847.66.271 1.513.652 1.895.847.382.194 1.247.353 1.923.353.718 0 1.126.166.982.4-.138.223.169.4.696.4.519 0 1.115.163 1.324.362.209.2 1.28.48 2.38.623 1.1.143 2.06.43 2.133.638.074.207.749.377 1.5.377.752 0 1.367.18 1.367.4 0 .22.54.4 1.2.4.66 0 1.2.18 1.2.4 0 .22.72.4 1.6.4.88 0 1.6.18 1.6.4 0 .22.72.4 1.6.4.88 0 1.6.18 1.6.4 0 .222 1.067.4 2.4.4s2.4.178 2.4.4c0 .22.54.4 1.2.4.66 0 1.2.18 1.2.4 0 .22.99.4 2.2.4 1.21 0 2.2.18 2.2.4 0 .233 1.333.4 3.2.4 1.867 0 3.2.167 3.2.4 0 .22.885.4 1.967.4 1.217 0 2.03.19 2.133.5.131.393 5.509.5 25.1.5s24.969-.107 25.1-.5c.112-.335 1.071-.5 2.91-.5 1.508 0 2.854-.18 2.99-.4.136-.22.957-.4 1.824-.4.867 0 1.576-.18 1.576-.4 0-.229 1.2-.4 2.8-.4 1.6 0 2.8-.171 2.8-.4 0-.22.799-.4 1.776-.4s1.888-.18 2.024-.4c.136-.22.957-.4 1.824-.4.867 0 1.576-.18 1.576-.4 0-.22.45-.4 1-.4s1-.18 1-.4c0-.22.99-.4 2.2-.4 1.21 0 2.2-.18 2.2-.4 0-.22.54-.4 1.2-.4.66 0 1.2-.18 1.2-.4 0-.22.675-.403 1.5-.406.962-.004 1.31-.126.972-.341-.336-.213.306-.421 1.762-.572 1.26-.13 2.398-.382 2.529-.56.13-.178.777-.384 1.437-.457.66-.073 1.371-.297 1.58-.498.209-.201.704-.366 1.1-.366.396 0 .72-.141.72-.313 0-.172.487-.353 1.082-.402.596-.049 1.262-.269 1.48-.487.219-.219.812-.398 1.318-.398s.92-.18.92-.4c0-.22.349-.4.776-.4.427 0 .888-.18 1.024-.4.136-.22.597-.4 1.024-.4.427 0 .776-.18.776-.4 0-.22.585-.403 1.3-.406.986-.005 1.155-.1.7-.394-.485-.314-.428-.389.3-.394.495-.003.903-.231.906-.506.004-.333.136-.3.394.1s.39.433.394.1c.003-.275.366-.5.806-.5.44 0 .8-.18.8-.4 0-.22.45-.4 1-.4s1-.18 1-.4c0-.22.27-.4.6-.4.33 0 .6-.191.6-.424 0-.233.165-.321.368-.196.202.125.639-.044.971-.376.332-.332 1.067-.604 1.632-.604.566 0 1.029-.146 1.029-.325 0-.179.622-.57 1.382-.868.76-.298 1.289-.692 1.176-.875-.113-.182.075-.332.418-.332.343 0 .624-.18.624-.4 0-.22.36-.4.8-.4.44 0 .8-.18.8-.4 0-.22.474-.4 1.053-.4s1.344-.331 1.7-.736c.356-.405 1.176-.867 1.823-1.027.646-.159 1.664-.638 2.261-1.064.598-.425 1.284-.773 1.525-.773.241 0 .438-.18.438-.4 0-.22.36-.4.8-.4.44 0 .801-.135.802-.3.001-.165.99-.93 2.198-1.7 1.208-.77 2.197-1.535 2.198-1.7.001-.165.322-.3.714-.3.391 0 .971-.36 1.288-.8.317-.44.942-.803 1.388-.806.671-.005.708-.074.212-.394-.485-.314-.428-.389.3-.394.495-.003.9-.186.9-.406 0-.22.32-.4.712-.4.391 0 .971-.36 1.288-.8.317-.44.78-.8 1.029-.8.249 0 1.017-.54 1.708-1.2.691-.66 1.455-1.2 1.699-1.2s.947-.54 1.564-1.2c.617-.66 1.334-1.2 1.594-1.2s1.085-.63 1.832-1.4c.748-.77 1.519-1.4 1.713-1.4.195 0 1.384-.99 2.643-2.2 1.26-1.21 2.452-2.2 2.65-2.2.198 0 2.413-2.088 4.923-4.641 2.509-2.553 4.716-4.797 4.904-4.987.188-.189 2.366-2.325 4.841-4.746 2.475-2.42 4.5-4.568 4.5-4.773 0-.204.9-1.291 2-2.414 1.1-1.124 2-2.323 2-2.665 0-.341.18-.51.4-.374.22.136.4.053.4-.183 0-.237.63-1.043 1.4-1.791.77-.747 1.4-1.572 1.4-1.832s.559-.995 1.242-1.634c.684-.638 1.044-1.16.801-1.16s.278-.742 1.157-1.648c.88-.907 1.6-1.857 1.6-2.112 0-.255.36-.723.8-1.04.44-.317.8-.897.8-1.288 0-.392.18-.712.4-.712.22 0 .4-.288.4-.64 0-.351.54-1.143 1.2-1.76.66-.617 1.2-1.394 1.2-1.727 0-.334.147-.666.328-.74.465-.189 3.672-5.002 3.672-5.511 0-.232.18-.422.4-.422.22 0 .4-.197.4-.438s.361-.946.803-1.567c.442-.62.915-1.683 1.05-2.361.136-.679.404-1.234.597-1.234.192 0 .353-.405.356-.9.005-.728.08-.785.394-.3.294.455.389.286.394-.7.003-.715.186-1.3.406-1.3.22 0 .4-.294.4-.653 0-.359.37-.974.822-1.366.453-.393.85-1.076.883-1.52.034-.443.204-.717.378-.61.174.108.317-.084.317-.427 0-.343.225-.627.5-.63.333-.004.3-.136-.1-.394-.33-.213-.408-.391-.174-.394.485-.007 2.174-2.993 2.174-3.844 0-.309.18-.562.4-.562.22 0 .4-.45.4-1s.18-1 .4-1c.22 0 .4-.345.4-.767 0-.421.225-.857.5-.968.39-.157.386-.209-.016-.233-.339-.021-.237-.331.3-.907.449-.482.816-1.292.816-1.8 0-.509.18-.925.4-.925.22 0 .4-.551.4-1.224 0-.713.167-1.12.4-.976.22.136.4-.123.4-.576 0-.453.18-.824.4-.824.22 0 .4-.63.4-1.4v-1.4H200.067c-103.364 0-188.023.089-188.131.198" fill="#db0424"/><path d="M178.3.275c-1.925.086-3.5.329-3.5.541 0 .211-1.339.384-2.976.384s-3.088.18-3.224.4c-.136.22-1.137.4-2.224.4-1.087 0-1.976.18-1.976.4 0 .22-.99.4-2.2.4-1.21 0-2.2.18-2.2.4 0 .22-.799.4-1.776.4s-1.888.18-2.024.4c-.136.22-.957.4-1.824.4-.867 0-1.576.18-1.576.4 0 .22-.72.4-1.6.4-.88 0-1.6.18-1.6.4 0 .22-.529.4-1.176.4-.647 0-1.288.18-1.424.4-.136.22-.766.4-1.4.4-.634 0-1.264.18-1.4.4-.136.22-.867.4-1.624.4-.757 0-1.376.18-1.376.4 0 .22-.429.4-.954.4-.891 0-4.228.885-6.046 1.603-.44.174-1.43.533-2.2.797-1.693.582-3.16 1.171-4.095 1.647-.382.194-1.057.353-1.5.353-.443 0-.805.18-.805.4 0 .22-.36.4-.8.4-.44 0-.8.18-.8.4 0 .22-.439.4-.976.4-.537 0-1.088.18-1.224.4-.136.22-.597.4-1.024.4-.427 0-.776.18-.776.4 0 .22-.36.4-.8.4-.44 0-.8.18-.8.4 0 .22-.272.4-.605.4-.333 0-.918.167-1.3.372-.382.204-2.315 1.147-4.295 2.095-1.98.948-3.66 1.861-3.733 2.028-.074.168-.479.305-.9.305-.422 0-.767.18-.767.4 0 .22-.36.4-.8.4-.44 0-.8.18-.8.4 0 .22-.32.4-.712.4-.391 0-.971.36-1.288.8-.317.44-.828.8-1.134.8-.651 0-4.603 2.059-4.799 2.5-.074.165-.311.3-.528.3-.217 0-1.18.54-2.139 1.2-.959.66-1.897 1.2-2.084 1.2-.187 0-.599.36-.916.8-.317.44-.857.8-1.2.8-.343 0-.883.36-1.2.8-.317.44-.857.8-1.2.8-.343 0-.883.36-1.2.8-.317.44-.809.8-1.092.8-.283 0-1.08.54-1.771 1.2-.691.66-1.459 1.2-1.708 1.2-.249 0-.712.36-1.029.8-.317.44-.825.8-1.128.8-.303 0-1.055.54-1.672 1.2-.617.66-1.253 1.2-1.414 1.2-.16 0-.628.388-1.039.861-.411.474-.747.736-.747.582 0-.154-.458.179-1.018.739s-1.17 1.018-1.355 1.018c-.186 0-1.123.769-2.082 1.71-.96.94-2.375 2.152-3.145 2.693-.77.541-3.161 2.787-5.313 4.99-4.705 4.818-3.676 3.789-8.494 8.494-2.203 2.152-4.451 4.541-4.994 5.308-.544.767-1.846 2.27-2.894 3.34C44.857 72.005 44 73.051 44 73.259c0 .207-.405.811-.9 1.34-1.369 1.464-1.9 2.141-1.9 2.424 0 .141-.54.76-1.2 1.377-.66.617-1.2 1.343-1.2 1.614 0 .27-.316.783-.703 1.139-.386.356-.957 1.142-1.267 1.747-.311.605-.715 1.1-.898 1.1-.182 0-.332.281-.332.624 0 .369-.188.507-.462.338-.276-.171-.353-.111-.192.15.148.24-.184.89-.738 1.444-.555.554-1.008 1.286-1.008 1.626 0 .34-.15.618-.332.618-.183 0-.587.495-.898 1.1-.31.605-.881 1.391-1.267 1.747-.387.356-.703.773-.703.928 0 .154-.54 1.066-1.2 2.025-.66.959-1.2 1.922-1.2 2.139 0 .217-.157.454-.349.528-.442.168-2.451 4.129-2.451 4.831 0 .289-.36.785-.8 1.102-.44.317-.8.897-.8 1.288 0 .392-.18.712-.4.712-.22 0-.4.36-.4.8 0 .44-.18.8-.4.8-.22 0-.4.345-.4.767 0 .421-.135.826-.3.9-.44.195-2.1 3.511-2.1 4.194 0 .323-.18.475-.4.339-.22-.136-.4.113-.4.553 0 .44-.18.911-.4 1.047-.22.136-.4.597-.4 1.024 0 .427-.18.776-.4.776-.22 0-.4.45-.4 1s-.18 1-.4 1c-.22 0-.4.36-.4.8 0 .44-.18.8-.4.8-.22 0-.4.349-.4.776 0 .427-.18.888-.4 1.024-.22.136-.4.687-.4 1.224 0 .537-.18.976-.4.976-.22 0-.4.36-.4.8 0 .44-.18.8-.4.8-.22 0-.4.414-.4.92s-.164 1.091-.365 1.3c-.201.209-.426.83-.5 1.38l-.135 1 188.1.1 188.1.101v-1.006c0-.553-.18-1.363-.4-1.8-.22-.437-.58-1.153-.8-1.59-.22-.437-.4-1.067-.4-1.4 0-.333-.18-.605-.4-.605-.22 0-.4-.439-.4-.976 0-.537-.18-1.088-.4-1.224-.22-.136-.4-.597-.4-1.024 0-.427-.18-.776-.4-.776-.22 0-.4-.36-.4-.8 0-.44-.18-.8-.4-.8-.22 0-.4-.36-.4-.8 0-.44-.18-.8-.4-.8-.22 0-.399-.315-.397-.7.004-.775-3.217-7.422-3.699-7.633-.167-.074-.304-.479-.304-.9 0-.422-.18-.767-.4-.767-.22 0-.4-.36-.4-.8 0-.44-.18-.8-.4-.8-.22 0-.4-.236-.4-.525 0-.288-.331-.879-.735-1.313-.404-.434-.866-1.312-1.026-1.951-.161-.639-.64-1.651-1.066-2.248-.425-.598-.773-1.284-.773-1.525 0-.241-.18-.438-.4-.438-.22 0-.4-.193-.4-.428s-.54-1.213-1.2-2.172c-.66-.959-1.2-1.897-1.2-2.084 0-.187-.36-.599-.8-.916-.44-.317-.8-.857-.8-1.2 0-.343-.36-.883-.8-1.2-.44-.317-.8-.857-.8-1.2 0-.343-.36-.883-.8-1.2-.44-.317-.8-.857-.8-1.2 0-.343-.36-.883-.8-1.2-.44-.317-.8-.78-.8-1.029 0-.249-.54-1.017-1.2-1.708-.66-.691-1.2-1.455-1.2-1.699s-.54-.947-1.2-1.564c-.66-.617-1.2-1.274-1.2-1.461 0-.186-.72-1.127-1.6-2.09-.88-.962-1.6-1.903-1.6-2.089 0-.186-.767-1.109-1.705-2.049-.938-.941-2.15-2.341-2.694-3.111-.543-.77-2.791-3.161-4.994-5.313-4.818-4.705-3.789-3.676-8.494-8.494-2.152-2.203-4.541-4.451-5.308-4.994-.767-.544-2.27-1.846-3.34-2.894-1.07-1.048-2.116-1.905-2.324-1.905-.207 0-.811-.405-1.34-.9-1.464-1.369-2.141-1.9-2.424-1.9-.141 0-.76-.54-1.377-1.2-.617-.66-1.32-1.2-1.564-1.2s-1.008-.54-1.699-1.2c-.691-.66-1.459-1.2-1.708-1.2-.249 0-.712-.36-1.029-.8-.317-.44-.857-.8-1.2-.8-.343 0-.883-.36-1.2-.8-.317-.44-.857-.8-1.2-.8-.343 0-.883-.36-1.2-.8-.317-.44-.857-.8-1.2-.8-.343 0-.883-.36-1.2-.8-.317-.44-.729-.8-.916-.8-.187 0-1.125-.54-2.084-1.2-.959-.66-1.922-1.2-2.139-1.2-.217 0-.454-.135-.528-.3-.18-.405-4.122-2.5-4.704-2.5-.254 0-.849-.36-1.321-.8-.472-.44-1.095-.8-1.383-.8-.289 0-.525-.18-.525-.4 0-.22-.36-.4-.8-.4-.44 0-.8-.18-.8-.4 0-.22-.36-.4-.8-.4-.44 0-.801-.135-.801-.3-.001-.165-.991-.75-2.199-1.3-1.208-.55-2.198-1.135-2.199-1.3 0-.165-.273-.3-.606-.3-.588 0-1.013-.167-2.89-1.138-.492-.254-1.167-.462-1.5-.462-.333 0-.605-.18-.605-.4 0-.22-.36-.4-.8-.4-.44 0-.8-.18-.8-.4 0-.22-.36-.4-.8-.4-.44 0-.8-.18-.8-.4 0-.22-.54-.4-1.2-.4-.66 0-1.2-.18-1.2-.4 0-.22-.36-.4-.8-.4-.44 0-.8-.18-.8-.4 0-.22-.439-.4-.976-.4-.537 0-1.088-.18-1.224-.4-.136-.22-.515-.4-.843-.4-.328 0-1.341-.36-2.251-.8-.911-.44-1.895-.8-2.187-.8-.291 0-.842-.163-1.224-.363-1.142-.597-4.917-1.637-5.941-1.637-.525 0-.954-.18-.954-.4 0-.22-.63-.4-1.4-.4-.77 0-1.4-.18-1.4-.4 0-.22-.529-.4-1.176-.4-.647 0-1.288-.18-1.424-.4-.136-.22-.867-.4-1.624-.4-.757 0-1.376-.18-1.376-.4 0-.22-.72-.4-1.6-.4-.88 0-1.6-.18-1.6-.4 0-.22-.709-.4-1.576-.4-.867 0-1.688-.18-1.824-.4-.136-.22-1.047-.4-2.024-.4-.977 0-1.776-.18-1.776-.4 0-.22-.9-.4-2-.4s-2-.18-2-.4c0-.222-1.059-.4-2.376-.4-1.307 0-2.488-.18-2.624-.4-.136-.22-1.482-.4-2.99-.4-1.817 0-2.799-.166-2.907-.492-.162-.486-37.812-.834-46.803-.433M391.6 141.8c0 .33.18.6.4.6.22 0 .4-.27.4-.6 0-.33-.18-.6-.4-.6-.22 0-.4.27-.4.6M5.2 150.2c0 .33.18.6.4.6.22 0 .4-.27.4-.6 0-.33-.18-.6-.4-.6-.22 0-.4.27-.4.6m-2.4 10.4c0 .33.18.6.4.6.22 0 .4-.27.4-.6 0-.33-.18-.6-.4-.6-.22 0-.4.27-.4.6m393.6 0c0 .33.18.6.4.6.22 0 .4-.27.4-.6 0-.33-.18-.6-.4-.6-.22 0-.4.27-.4.6M1.412 169.317c-.171.395-.199.83-.061.967.406.406.733-.164.546-.953-.165-.698-.187-.699-.485-.014m396.594.183c-.003.495.174.9.394.9.501 0 .501-.424 0-1.2-.314-.485-.389-.428-.394.3M.667 174.667c-.415.415-.314 1.733.133 1.733.22 0 .4-.45.4-1 0-1.047-.092-1.174-.533-.733m398.133.957c0 .453.18.712.4.576.22-.136.4-.507.4-.824 0-.317-.18-.576-.4-.576-.22 0-.4.371-.4.824m.893 41.176c0 .77.082 1.085.183.7.1-.385.1-1.015 0-1.4-.101-.385-.183-.07-.183.7M.4 224.4c0 .44.18.8.4.8.22 0 .4-.36.4-.8 0-.44-.18-.8-.4-.8-.22 0-.4.36-.4.8m398.4 0c0 .44.18.8.4.8.22 0 .4-.36.4-.8 0-.44-.18-.8-.4-.8-.22 0-.4.36-.4.8M1.2 230.176c0 .317.18.688.4.824.22.136.4-.123.4-.576 0-.453-.18-.824-.4-.824-.22 0-.4.259-.4.576m396.8.248c0 .453.18.712.4.576.22-.136.4-.507.4-.824 0-.317-.18-.576-.4-.576-.22 0-.4.371-.4.824M2.8 239.4c0 .33.18.6.4.6.22 0 .4-.27.4-.6 0-.33-.18-.6-.4-.6-.22 0-.4.27-.4.6m393.6 0c0 .33.18.6.4.6.22 0 .4-.27.4-.6 0-.33-.18-.6-.4-.6-.22 0-.4.27-.4.6M5.2 249.8c0 .33.18.6.4.6.22 0 .4-.27.4-.6 0-.33-.18-.6-.4-.6-.22 0-.4.27-.4.6m2.4 8.4c0 .33.18.6.4.6.22 0 .4-.27.4-.6 0-.33-.18-.6-.4-.6-.22 0-.4.27-.4.6m241.6 136.2c0 .22.27.4.6.4.33 0 .6-.18.6-.4 0-.22-.27-.4-.6-.4-.33 0-.6.18-.6.4m-93 1.6c.136.22.507.4.824.4.317 0 .576-.18.576-.4 0-.22-.371-.4-.824-.4-.453 0-.712.18-.576.4m78.2 1.6c0 .22.259.4.576.4.317 0 .688-.18.824-.4.136-.22-.123-.4-.576-.4-.453 0-.824.18-.824.4m-65.4.8c.136.22.597.4 1.024.4.427 0 .776-.18.776-.4 0-.22-.461-.4-1.024-.4-.58 0-.916.173-.776.4" fill="#f3f3f3"/></g></svg>