<svg xmlns="http://www.w3.org/2000/svg" width="400" height="400"><g fill-rule="evenodd"><path d="M178.3.275c-1.925.086-3.5.329-3.5.541 0 .211-1.339.384-2.976.384s-3.088.18-3.224.4c-.136.22-1.137.4-2.224.4-1.087 0-1.976.18-1.976.4 0 .22-.99.4-2.2.4-1.21 0-2.2.18-2.2.4 0 .22-.72.4-1.6.4-.88 0-1.6.18-1.6.4 0 .22-.911.4-2.024.4-1.247 0-1.928.153-1.776.4.149.241-.388.4-1.353.4-.88 0-1.711.18-1.847.4-.136.22-.856.4-1.6.4-.744 0-1.464.18-1.6.4-.136.22-.777.4-1.424.4-.647 0-1.176.18-1.176.4 0 .22-.63.4-1.4.4-.77 0-1.4.159-1.4.354 0 .195-.99.478-2.2.629-1.21.151-2.2.413-2.2.582 0 .169-1.035.546-2.3.838-1.265.292-2.48.655-2.7.806-.22.151-1.255.52-2.3.82-1.045.3-1.9.686-1.9.858 0 .172-.461.313-1.024.313-.58 0-.916.173-.776.4.14.227-.196.4-.776.4-.563 0-1.024.18-1.024.4 0 .22-.54.4-1.2.4-.66 0-1.2.18-1.2.4 0 .22-.36.4-.8.4-.44 0-.8.18-.8.4 0 .22-.36.4-.8.4-.44 0-.8.18-.8.4 0 .22-.439.4-.976.4-.537 0-1.088.18-1.224.4-.136.22-.597.4-1.024.4-.427 0-.776.146-.776.325 0 .179-.63.573-1.4.875-.77.302-1.4.696-1.4.875 0 .179-.461.325-1.024.325-.58 0-.916.173-.776.4.136.22-.134.4-.6.4-.466 0-.736.18-.6.4.14.227-.196.4-.776.4-.563 0-1.024.18-1.024.4 0 .22-.36.4-.8.4-.44 0-.8.18-.8.4 0 .22-.32.4-.712.4-.391 0-.971.36-1.288.8-.317.44-.779.8-1.027.8-.579 0-2.87 1.116-4.235 2.063-.584.405-1.349.737-1.7.737s-.638.18-.638.4c0 .22-.27.4-.6.4-.33 0-.6.18-.6.4 0 .22-.27.4-.6.4-.33 0-.6.18-.6.4 0 .22-.281.4-.624.4-.343 0-.512.18-.376.4.136.22-.033.4-.376.4-.343 0-.624.18-.624.4 0 .22-.32.4-.712.4-.391 0-.971.36-1.288.8-.317.44-.825.8-1.128.8-.303 0-1.055.54-1.672 1.2-.617.66-1.409 1.2-1.76 1.2-.352 0-.64.15-.64.332 0 .183-.495.587-1.1.898-.605.31-1.391.881-1.747 1.267-.356.387-.849.703-1.096.703-.248 0-.966.54-1.597 1.2-.631.66-1.27 1.2-1.421 1.2-.152 0-.709.405-1.238.9-1.423 1.331-1.954 1.74-2.953 2.275-.497.265-1.808 1.369-2.916 2.454-1.107 1.084-2.183 1.971-2.391 1.971-.554 0-2.334 1.873-2.05 2.158.133.133.018.242-.257.242-.274 0-1.92 1.485-3.658 3.3-1.737 1.815-3.297 3.436-3.467 3.602-.17.166-2.334 2.27-4.809 4.674-2.475 2.405-4.5 4.546-4.5 4.758 0 .212-.9 1.305-2.001 2.429-1.101 1.124-2.046 2.257-2.1 2.519-.096.464-.757 1.304-2.599 3.304-.495.538-.9 1.101-.9 1.253 0 .151-.54.79-1.2 1.421-.66.631-1.2 1.327-1.2 1.547 0 .22-.54.965-1.2 1.656-.66.691-1.2 1.459-1.2 1.708 0 .249-.36.712-.8 1.029-.44.317-.8.857-.8 1.2 0 .343-.36.883-.8 1.2-.44.317-.8.897-.8 1.288 0 .392-.18.712-.4.712-.22 0-.403.405-.406.9-.005.728-.08.785-.394.3-.32-.496-.389-.459-.394.212-.003.446-.366 1.071-.806 1.388-.44.317-.8.907-.8 1.312 0 .404-.18.624-.4.488-.22-.136-.4-.001-.4.301 0 .301-.36.935-.8 1.407-.44.472-.8 1.125-.8 1.452 0 .326-.187.708-.415.849-.509.315-2.385 4.141-2.385 4.866 0 .289-.18.525-.4.525-.22 0-.4.371-.4.824 0 .453-.18.712-.4.576-.22-.136-.4.033-.4.376 0 .343-.18.624-.4.624-.22 0-.4.36-.4.8 0 .44-.18.8-.4.8-.22 0-.4.36-.4.8 0 .44-.18.8-.4.8-.22 0-.4.371-.4.824 0 .453-.18.712-.4.576-.226-.139-.4.185-.4.743 0 .545-.188 1.053-.418 1.13-.23.076-.447.529-.483 1.005-.036.477-.208.778-.382.671-.174-.108-.317.084-.317.427 0 .343-.18.624-.4.624-.22 0-.4.551-.4 1.224 0 .713-.167 1.12-.4.976-.227-.14-.4.196-.4.776 0 .563-.18 1.024-.4 1.024-.22 0-.4.36-.4.8 0 .44-.18.8-.4.8-.22 0-.4.349-.4.776 0 .427-.18.888-.4 1.024-.22.136-.4.687-.4 1.224 0 .537-.18.976-.4.976-.22 0-.4.36-.4.8 0 .44-.18.8-.4.8-.22 0-.4.45-.4 1s-.141 1-.313 1c-.172 0-.558.855-.858 1.9-.3 1.045-.676 2.08-.835 2.3-.159.22-.404 1.03-.544 1.8s-.524 1.918-.855 2.55c-.33.633-.713 2.114-.851 3.291-.139 1.177-.408 2.043-.598 1.926-.19-.118-.346.426-.346 1.209 0 .783-.18 1.424-.4 1.424-.22 0-.4.529-.4 1.176 0 .647-.18 1.288-.4 1.424-.22.136-.4.867-.4 1.624 0 .757-.18 1.376-.4 1.376-.22 0-.4.821-.4 1.824 0 1.113-.156 1.727-.4 1.576-.242-.149-.4.396-.4 1.376 0 .893-.18 1.624-.4 1.624-.22 0-.4.799-.4 1.776s-.18 1.888-.4 2.024c-.22.136-.4 1.036-.4 2s-.18 1.864-.4 2c-.22.136-.4 1.191-.4 2.344 0 1.153-.165 2.267-.368 2.476-.202.209-.467 1.55-.589 2.98-.123 1.43-.388 4.49-.59 6.8-.203 2.31-.387 8.115-.411 12.9L0 200H400.123l-.229-12.489c-.155-8.397-.371-12.537-.662-12.634-.253-.084-.432-1.278-.432-2.887 0-1.508-.18-2.854-.4-2.99-.22-.136-.4-1.317-.4-2.624 0-1.317-.178-2.376-.4-2.376-.22 0-.4-.889-.4-1.976s-.18-2.088-.4-2.224c-.22-.136-.4-1.032-.4-1.99 0-.959-.172-1.803-.382-1.877-.211-.073-.428-.808-.482-1.633-.055-.825-.243-1.5-.418-1.5s-.318-.72-.318-1.6c0-.88-.18-1.6-.4-1.6-.22 0-.4-.72-.4-1.6 0-.88-.18-1.6-.4-1.6-.22 0-.4-.54-.4-1.2 0-.66-.18-1.2-.4-1.2-.22 0-.4-.63-.4-1.4 0-.77-.159-1.4-.354-1.4-.195 0-.477-.987-.628-2.194-.151-1.206-.441-2.297-.646-2.423-.205-.127-.372-.58-.372-1.007 0-.427-.18-.776-.4-.776-.22 0-.355-.135-.3-.3.177-.532-1.033-4.5-1.372-4.5-.181 0-.328-.54-.328-1.2 0-.66-.18-1.2-.4-1.2-.22 0-.4-.45-.4-1s-.18-1-.4-1c-.22 0-.4-.36-.4-.8 0-.44-.18-.8-.4-.8-.22 0-.4-.54-.4-1.2 0-.66-.18-1.2-.4-1.2-.22 0-.4-.36-.4-.8 0-.44-.18-.8-.4-.8-.22 0-.4-.36-.4-.8 0-.44-.18-.8-.4-.8-.22 0-.4-.36-.4-.8 0-.44-.18-.8-.4-.8-.22 0-.4-.36-.4-.8 0-.44-.18-.8-.4-.8-.22 0-.379-.135-.353-.3.145-.913-.101-1.714-.457-1.494-.225.139-.36.096-.3-.097.163-.519-.987-3.309-1.365-3.309-.179 0-.325-.36-.325-.8 0-.44-.18-.8-.4-.8-.22 0-.4-.36-.4-.8 0-.44-.18-.8-.4-.8-.22 0-.4-.36-.4-.8 0-.44-.18-.8-.4-.8-.22 0-.4-.294-.4-.653 0-.359-.331-.944-.736-1.3-.405-.356-.868-1.18-1.029-1.832-.161-.651-.82-1.966-1.464-2.92s-1.171-1.996-1.171-2.315c0-.319-.18-.58-.4-.58-.22 0-.4-.27-.4-.6 0-.33-.18-.6-.4-.6-.22 0-.4-.281-.4-.624 0-.343-.18-.512-.4-.376-.22.136-.4-.084-.4-.488 0-.405-.36-.995-.8-1.312-.44-.317-.8-.857-.8-1.2 0-.343-.36-.883-.8-1.2-.44-.317-.8-.807-.8-1.088 0-.282-.18-.512-.4-.512-.22 0-.4-.27-.4-.6 0-.33-.18-.6-.4-.6-.22 0-.4-.288-.4-.64 0-.351-.54-1.143-1.2-1.76-.66-.617-1.2-1.369-1.2-1.672 0-.303-.36-.811-.8-1.128-.44-.317-.8-.825-.8-1.128 0-.303-.515-1.032-1.144-1.62-.629-.587-1.272-1.472-1.429-1.966-.156-.494-.452-.794-.656-.668-.204.126-.371.015-.371-.247 0-.263-.316-.768-.703-1.124-.386-.356-.953-1.136-1.26-1.733-.307-.598-.71-.992-.897-.877-.187.116-.34.02-.34-.213 0-.233-.72-1.165-1.6-2.072-.88-.907-1.6-1.822-1.6-2.034 0-.213-2.025-2.344-4.5-4.737-2.475-2.393-4.654-4.519-4.841-4.724-2.362-2.588-8.082-8.181-9.295-9.088-.86-.643-2.407-2.024-3.438-3.069-1.031-1.045-2.09-1.9-2.354-1.9-.264 0-.897-.45-1.407-1s-1.094-1-1.298-1c-.204 0-1.082-.675-1.951-1.5s-1.81-1.551-2.091-1.614c-.281-.063-.776-.38-1.1-.704-.324-.324-.755-.487-.957-.362-.203.125-.368-.059-.368-.409s-.315-.753-.7-.896c-.385-.143-.991-.587-1.347-.987-.356-.401-.941-.728-1.3-.728-.359 0-.653-.15-.653-.332 0-.183-.495-.587-1.1-.898-.605-.31-1.391-.881-1.747-1.267-.356-.387-.901-.703-1.212-.703-.31 0-.824-.36-1.141-.8-.317-.44-.807-.8-1.088-.8-.282 0-.512-.18-.512-.4 0-.22-.236-.4-.525-.4-.288 0-.911-.36-1.383-.8-.472-.44-1.125-.8-1.452-.8-.326 0-.711-.191-.855-.425-.261-.422-1.778-1.126-2.214-1.027-.125.029-.543-.263-.928-.648s-.97-.7-1.3-.7c-.33 0-.872-.272-1.204-.604-.332-.332-.769-.501-.971-.376-.203.125-.368.037-.368-.196s-.281-.424-.624-.424c-.343 0-.512-.18-.376-.4.136-.22-.123-.4-.576-.4-.453 0-.824-.191-.824-.424 0-.233-.165-.321-.368-.196-.202.125-.639-.044-.971-.376-.332-.332-.887-.604-1.232-.604-.346 0-.629-.18-.629-.4 0-.22-.27-.4-.6-.4-.33 0-.6-.18-.6-.4 0-.22-.36-.4-.8-.4-.44 0-.8-.18-.8-.4 0-.22-.36-.4-.8-.4-.44 0-.8-.18-.8-.4 0-.22-.349-.4-.776-.4-.427 0-.888-.18-1.024-.4-.136-.22-.687-.4-1.224-.4-.537 0-.976-.18-.976-.4 0-.22-.36-.4-.8-.4-.44 0-.8-.18-.8-.4 0-.22-.36-.4-.8-.4-.44 0-.8-.18-.8-.4 0-.22-.54-.4-1.2-.4-.66 0-1.2-.18-1.2-.4 0-.22-.36-.4-.8-.4-.44 0-.8-.18-.8-.4 0-.22-.45-.4-1-.4s-1-.18-1-.4c0-.22-.54-.4-1.2-.4-.66 0-1.2-.18-1.2-.4 0-.22-.349-.4-.776-.4-.427 0-.873-.156-.992-.347-.118-.192-.893-.46-1.723-.597-.83-.137-2.016-.516-2.635-.842-.619-.326-2.014-.711-3.1-.855-1.086-.144-1.974-.419-1.974-.611 0-.191-.63-.348-1.4-.348-.77 0-1.4-.18-1.4-.4 0-.22-.54-.4-1.2-.4-.66 0-1.2-.18-1.2-.4 0-.22-.72-.4-1.6-.4-.88 0-1.6-.18-1.6-.4 0-.22-.72-.4-1.6-.4-.88 0-1.6-.18-1.6-.4 0-.22-.72-.4-1.6-.4-.88 0-1.6-.18-1.6-.4 0-.22-.799-.4-1.776-.4s-1.888-.18-2.024-.4c-.136-.22-1.036-.4-2-.4s-1.864-.18-2-.4c-.136-.22-1.216-.4-2.4-.4s-2.264-.18-2.4-.4c-.136-.22-1.572-.4-3.19-.4-1.975 0-2.997-.162-3.107-.492-.162-.486-37.812-.834-46.803-.433" fill="#348cf3"/><path d="M.106 212.489c.155 8.397.371 12.537.662 12.634.253.084.432 1.278.432 2.887 0 1.508.18 2.854.4 2.99.22.136.4 1.317.4 2.624 0 1.317.178 2.376.4 2.376.22 0 .4.9.4 2s.18 2 .4 2c.22 0 .4.799.4 1.776s.18 1.888.4 2.024c.22.136.4.957.4 1.824 0 .867.18 1.576.4 1.576.22 0 .4.72.4 1.6 0 .88.18 1.6.4 1.6.22 0 .4.619.4 1.376 0 .757.18 1.488.4 1.624.22.136.4.777.4 1.424 0 .647.18 1.176.4 1.176.22 0 .4.63.4 1.4 0 .77.18 1.4.4 1.4.22 0 .4.429.4.954 0 .891.885 4.228 1.603 6.046.174.44.533 1.43.797 2.2.582 1.693 1.171 3.16 1.647 4.095.194.382.353 1.057.353 1.5 0 .443.18.805.4.805.22 0 .4.36.4.8 0 .44.18.8.4.8.22 0 .4.439.4.976 0 .537.18 1.088.4 1.224.22.136.4.597.4 1.024 0 .427.18.776.4.776.22 0 .4.36.4.8 0 .44.18.8.4.8.22 0 .4.272.4.605 0 .333.18.963.4 1.4.22.437.58 1.153.8 1.59.22.437.4 1.067.4 1.4 0 .333.135.606.3.606.165.001.75.991 1.3 2.199.55 1.208 1.135 2.198 1.3 2.199.165 0 .3.361.3.801 0 .44.18.8.4.8.22 0 .4.36.4.8 0 .44.18.8.4.8.22 0 .4.236.4.525 0 .288.36.911.8 1.383.44.472.8 1.067.8 1.321 0 .582 2.095 4.524 2.5 4.704.165.074.3.311.3.528 0 .217.54 1.18 1.2 2.139.66.959 1.2 1.897 1.2 2.084 0 .187.36.599.8.916.44.317.8.857.8 1.2 0 .343.36.883.8 1.2.44.317.8.857.8 1.2 0 .343.36.883.8 1.2.44.317.8.809.8 1.092 0 .283.54 1.08 1.2 1.771.66.691 1.2 1.459 1.2 1.708 0 .249.36.712.8 1.029.44.317.8.807.8 1.088s.72 1.253 1.6 2.16c.88.907 1.6 1.788 1.6 1.958 0 .17.54.887 1.2 1.594.66.707 1.2 1.441 1.2 1.632 0 .191.767 1.117 1.705 2.057.938.941 2.15 2.341 2.694 3.111.543.77 2.791 3.161 4.994 5.313 4.818 4.705 3.789 3.676 8.494 8.494 2.152 2.203 4.543 4.451 5.313 4.994.77.544 2.17 1.756 3.111 2.694.94.938 1.863 1.705 2.049 1.705.187 0 1.027.63 1.868 1.4.841.77 1.667 1.4 1.837 1.4.17 0 .938.63 1.708 1.4.77.77 1.637 1.4 1.925 1.4.289 0 .785.36 1.102.8.317.44.78.8 1.029.8.249 0 1.017.54 1.708 1.2.691.66 1.488 1.2 1.771 1.2.283 0 .775.36 1.092.8.317.44.857.8 1.2.8.343 0 .883.36 1.2.8.317.44.857.8 1.2.8.343 0 .883.36 1.2.8.317.44.729.8.916.8.187 0 1.125.54 2.084 1.2.959.66 1.937 1.2 2.172 1.2.235 0 .428.18.428.4 0 .22.197.4.438.4s.927.348 1.525.773c.597.426 1.609.905 2.248 1.066.639.16 1.517.622 1.951 1.026.434.404 1.025.735 1.313.735.289 0 .525.18.525.4 0 .22.36.4.8.4.44 0 .8.18.8.4 0 .22.36.4.8.4.44 0 .8.18.8.4 0 .22.345.4.767.4.421 0 .826.135.9.3.073.165 1.033.725 2.133 1.244s2.313 1.104 2.695 1.3c.382.196.967.356 1.3.356.333 0 .605.18.605.4 0 .22.36.4.8.4.44 0 .8.18.8.4 0 .22.36.4.8.4.44 0 .8.18.8.4 0 .22.349.4.776.4.427 0 .888.18 1.024.4.136.22.687.4 1.224.4.537 0 .976.18.976.4 0 .22.36.4.8.4.44 0 .8.18.8.4 0 .22.362.4.805.4.443 0 1.118.159 1.5.353.935.476 2.402 1.065 4.095 1.647.77.264 1.76.623 2.2.797 1.818.718 5.155 1.603 6.046 1.603.525 0 .954.18.954.4 0 .22.63.4 1.4.4.77 0 1.4.18 1.4.4 0 .22.529.4 1.176.4.647 0 1.288.18 1.424.4.136.22.867.4 1.624.4.757 0 1.376.18 1.376.4 0 .22.72.4 1.6.4.88 0 1.6.18 1.6.4 0 .22.709.4 1.576.4.867 0 1.688.18 1.824.4.136.22 1.047.4 2.024.4.977 0 1.776.18 1.776.4 0 .22.99.4 2.2.4 1.21 0 2.2.18 2.2.4 0 .22.979.4 2.176.4s2.288.18 2.424.4c.136.22 1.482.4 2.99.4 1.839 0 2.798.165 2.91.5.131.393 5.509.5 25.1.5s24.969-.107 25.1-.5c.112-.335 1.071-.5 2.91-.5 1.508 0 2.854-.18 2.99-.4.136-.22 1.216-.4 2.4-.4s2.264-.18 2.4-.4c.136-.22 1.137-.4 2.224-.4 1.087 0 1.976-.18 1.976-.4 0-.22.709-.4 1.576-.4.867 0 1.688-.18 1.824-.4.136-.22 1.047-.4 2.024-.4.977 0 1.776-.18 1.776-.4 0-.22.72-.4 1.6-.4.88 0 1.6-.18 1.6-.4 0-.22.619-.4 1.376-.4.757 0 1.488-.18 1.624-.4.136-.22.777-.4 1.424-.4.647 0 1.176-.18 1.176-.4 0-.22.63-.4 1.4-.4.77 0 1.4-.159 1.4-.354 0-.195.987-.477 2.194-.628 1.206-.151 2.297-.441 2.423-.646.127-.205.659-.372 1.183-.372s1.064-.18 1.2-.4c.136-.22.599-.4 1.029-.4.43 0 1.094-.159 1.476-.353.382-.195 1.235-.576 1.895-.847.66-.271 1.513-.652 1.895-.847.382-.194 1.057-.353 1.5-.353.443 0 .805-.18.805-.4 0-.22.36-.4.8-.4.44 0 .8-.18.8-.4 0-.22.54-.4 1.2-.4.66 0 1.2-.18 1.2-.4 0-.22.36-.4.8-.4.44 0 .8-.18.8-.4 0-.22.36-.4.8-.4.44 0 .8-.18.8-.4 0-.22.272-.4.605-.4.333 0 .963-.18 1.4-.4.437-.22 1.153-.58 1.59-.8.437-.22 1.067-.4 1.4-.4.333 0 .606-.135.606-.3.001-.165.991-.75 2.199-1.3 1.208-.55 2.198-1.135 2.199-1.3 0-.165.361-.3.801-.3.44 0 .8-.18.8-.4 0-.22.36-.4.8-.4.44 0 .8-.18.8-.4 0-.22.236-.4.525-.4.288 0 .911-.36 1.383-.8.472-.44 1.067-.8 1.321-.8.582 0 4.524-2.095 4.704-2.5.074-.165.311-.3.528-.3.217 0 1.18-.54 2.139-1.2.959-.66 1.897-1.2 2.084-1.2.187 0 .599-.36.916-.8.317-.44.857-.8 1.2-.8.343 0 .883-.36 1.2-.8.317-.44.857-.8 1.2-.8.343 0 .883-.36 1.2-.8.317-.44.809-.8 1.092-.8.283 0 1.08-.54 1.771-1.2.691-.66 1.459-1.2 1.708-1.2.249 0 .712-.36 1.029-.8.317-.44.813-.8 1.102-.8.288 0 1.155-.63 1.925-1.4.77-.77 1.538-1.4 1.708-1.4.17 0 .996-.63 1.837-1.4.841-.77 1.681-1.4 1.868-1.4.186 0 1.109-.767 2.049-1.705.941-.938 2.341-2.15 3.111-2.694.77-.543 3.161-2.791 5.313-4.994 4.705-4.818 3.676-3.789 8.494-8.494 2.203-2.152 4.451-4.543 4.994-5.313.544-.77 1.756-2.17 2.694-3.111.938-.94 1.705-1.863 1.705-2.049 0-.186.72-1.127 1.6-2.089.88-.963 1.6-1.904 1.6-2.09 0-.187.54-.844 1.2-1.461.66-.617 1.2-1.369 1.2-1.672 0-.303.36-.811.8-1.128.44-.317.8-.78.8-1.029 0-.249.54-1.017 1.2-1.708.66-.691 1.2-1.488 1.2-1.771 0-.283.36-.775.8-1.092.44-.317.8-.857.8-1.2 0-.343.36-.883.8-1.2.44-.317.8-.857.8-1.2 0-.343.36-.883.8-1.2.44-.317.8-.729.8-.916 0-.187.54-1.125 1.2-2.084.66-.959 1.2-1.937 1.2-2.172 0-.235.18-.428.4-.428.22 0 .4-.36.4-.8 0-.44.147-.8.326-.8.348 0 1.674-2.558 1.674-3.23 0-.222.36-.79.8-1.262.44-.472.8-1.095.8-1.383 0-.289.18-.525.4-.525.22 0 .4-.36.4-.8 0-.44.18-.8.4-.8.22 0 .4-.345.4-.767 0-.421.137-.826.304-.9.167-.073 1.085-1.753 2.041-3.733.955-1.98 1.898-3.913 2.096-4.295.197-.382.359-.967.359-1.3 0-.333.18-.605.4-.605.22 0 .4-.36.4-.8 0-.44.18-.8.4-.8.22 0 .4-.349.4-.776 0-.427.18-.888.4-1.024.22-.136.4-.687.4-1.224 0-.537.18-.976.4-.976.22 0 .4-.36.4-.8 0-.44.18-.8.4-.8.22 0 .4-.362.4-.805 0-.443.159-1.118.353-1.5.195-.382.576-1.235.847-1.895.271-.66.652-1.513.847-1.895.194-.382.353-1.046.353-1.476 0-.43.18-.893.4-1.029.22-.136.4-.676.4-1.2 0-.524.167-1.056.372-1.183.205-.126.495-1.217.646-2.423.151-1.207.433-2.194.628-2.194s.354-.63.354-1.4c0-.77.18-1.4.4-1.4.22 0 .4-.529.4-1.176 0-.647.18-1.288.4-1.424.22-.136.4-.867.4-1.624 0-.757.18-1.376.4-1.376.22 0 .4-.72.4-1.6 0-.88.18-1.6.4-1.6.22 0 .4-.709.4-1.576 0-.867.18-1.688.4-1.824.22-.136.4-1.047.4-2.024 0-.977.18-1.776.4-1.776.22 0 .4-.889.4-1.976s.18-2.088.4-2.224c.22-.136.4-1.216.4-2.4s.18-2.264.4-2.4c.22-.136.4-1.482.4-2.99 0-1.609.179-2.803.432-2.887.291-.097.507-4.237.662-12.634l.229-12.489H-.123l.229 12.489" fill="#fcdc44"/></g></svg>