<svg xmlns="http://www.w3.org/2000/svg" width="400" height="400"><g fill-rule="evenodd"><path d="M232.943 95.462c-9.708 11.478-8.646 10.596-11.249 9.338-.91-.44-1.898-.8-2.195-.8-.296 0-.71-.153-.919-.341-.209-.188-2.54-1.193-5.18-2.234-2.64-1.041-5.391-2.171-6.114-2.511-1.685-.793-2.032-.419-1.109 1.198.997 1.747 5.541 9.071 7.681 12.383 2.065 3.195 2.062 3.17.587 4.816-3.101 3.462-11.245 13.291-11.245 13.571 0 .533.72.396 9.99-1.897 4.924-1.219 9.146-2.141 9.382-2.05.235.092 1.843 2.484 3.572 5.316 1.73 2.832 3.935 6.362 4.9 7.844.966 1.483 1.756 2.878 1.756 3.1 0 .223.157.405.349.405.419 0 .736-1.892 1.039-6.2.124-1.76.43-5.586.679-8.502l.455-5.302 1.639-.424c.901-.233 2.179-.575 2.839-.761.66-.185 2.19-.563 3.4-.841 1.21-.277 4.237-1.014 6.727-1.637s4.605-1.133 4.7-1.133c.873 0-.292-.782-2.327-1.564-1.375-.527-3.469-1.398-4.653-1.934-1.184-.535-3.794-1.607-5.8-2.381-5.937-2.291-5.981-2.323-5.688-4.156.138-.862.424-4.042.636-7.066.212-3.025.506-6.714.653-8.199.359-3.624.139-3.528-4.505 1.962M108.996 123.3c-.099.275-1.26 3.83-2.58 7.9-5.37 16.551-9.05 27.816-11.564 35.4l-2.652 8-27.183.103c-14.95.056-27.327.247-27.504.424-.177.177 1.773 1.84 4.332 3.697s6.509 4.726 8.777 6.376c2.269 1.65 6.482 4.71 9.363 6.8 2.881 2.09 6.832 4.97 8.779 6.4 1.947 1.43 5.533 4.04 7.968 5.8 2.988 2.16 4.435 3.455 4.448 3.986.018.691-3.157 10.688-10.166 32.014-6.975 21.222-6.635 20.047-5.691 19.685.521-.2 5.54-3.746 10.877-7.685 2.219-1.637 20.674-14.988 31.054-22.465 1.019-.734 2.054-1.335 2.299-1.335.474 0 5.358 3.381 8.85 6.126.331.261 2.851 2.091 5.6 4.068 2.748 1.976 6.098 4.406 7.443 5.4 1.345.993 4.207 3.066 6.36 4.606 2.153 1.54 5.372 3.881 7.154 5.203 9.705 7.197 9.775 7.224 8.456 3.197-.842-2.571-4.103-12.648-9.707-30-1.207-3.74-3.076-9.44-4.152-12.667-1.076-3.226-1.957-6.043-1.957-6.259 0-.217 1.665-1.614 3.7-3.106 2.035-1.492 4.6-3.371 5.7-4.175 1.1-.805 3.823-2.797 6.051-4.428 2.228-1.631 5.81-4.225 7.958-5.765 2.149-1.54 5.726-4.136 7.949-5.768 4.534-3.33 6.861-5.031 10.617-7.76 1.416-1.03 2.496-1.914 2.4-1.965-.096-.051-12.581-.186-27.745-.3l-27.57-.207-2.34-7.2c-1.287-3.96-3.929-12.06-5.871-18-1.943-5.94-4.683-14.355-6.089-18.7-2.41-7.448-2.934-8.6-3.364-7.4m156.742 21.147c.14.964.429 2.743.642 3.953.214 1.21.567 3.28.785 4.6.218 1.32.614 3.57.88 5 .978 5.266 2.237 4.124-13.518 12.265-4.119 2.127-4.221 2.346-1.234 2.646 2.107.212 4.502.544 13.082 1.812l4.575.677.477 2.4c.263 1.32.665 3.48.895 4.8 1.812 10.417 2.255 12.538 2.577 12.339.202-.125 2.234-4.015 4.516-8.644 2.281-4.63 4.291-8.556 4.466-8.724.176-.169 4.616.316 9.868 1.078 5.253.762 9.663 1.269 9.8 1.127.138-.142-2.961-3.378-6.888-7.192-3.926-3.814-7.052-7.081-6.946-7.26.68-1.142 8.285-17.092 8.285-17.375 0-.567-.666-.407-2.486.596-.943.52-3.874 2.076-6.514 3.46-2.64 1.383-5.655 2.973-6.7 3.533l-1.9 1.019-1.486-1.378c-.817-.759-3.977-3.809-7.021-6.779-6.436-6.278-6.498-6.318-6.155-3.953m13.462 66.504c0 .12-.909 3.15-2.021 6.733-1.112 3.584-2.388 7.703-2.836 9.154l-.816 2.639-6.863.26c-3.775.143-8.259.261-9.964.262-3.226.001-3.72.318-2.2 1.411.495.356 3.96 2.811 7.7 5.455s6.953 4.954 7.14 5.132c.187.178-.014 1.376-.448 2.663-1.128 3.346-2.694 8.378-4.463 14.339l-.772 2.599.85-.455c.467-.25 4.066-2.86 7.997-5.799 3.931-2.939 7.43-5.344 7.774-5.344.54 0 5.471 3.3 10.122 6.772 3.08 2.3 6.013 4.149 6.233 3.928.128-.127-1.132-4.263-2.8-9.19s-3.033-9.151-3.033-9.386c0-.4 1.015-1.222 6.7-5.424 1.265-.935 2.502-1.88 2.75-2.1.247-.22 1.725-1.3 3.283-2.4 3.985-2.812 3.972-2.817-6.967-2.681-10.979.137-10.087.427-11.461-3.719-4.041-12.19-5.905-16.877-5.905-14.849M228.205 264.2c-2.958 4.51-5.582 8.2-5.831 8.2-.409 0-4.383-1.019-10.374-2.661-4.918-1.348-8.498-2.174-8.671-2.001-.101.1 2.621 3.665 6.048 7.922s6.144 7.967 6.038 8.245c-.107.278-.984 1.718-1.95 3.2-7.291 11.185-8.683 13.41-8.503 13.591.162.162 5.858-1.941 11.638-4.296.44-.18 2.06-.813 3.6-1.408s3-1.161 3.246-1.259c.422-.167 5.082 5.215 10.354 11.96 1.32 1.689 2.562 3.078 2.76 3.089.346.017.135-8.236-.417-16.273-.232-3.388-.191-3.712.502-3.939.415-.137 2.645-.967 4.955-1.847 4.042-1.538 4.936-1.887 6.9-2.692.495-.203 2.025-.787 3.401-1.298 3.869-1.438 4.153-1.292-9.481-4.877-3.771-.991-6.701-1.97-6.864-2.293-.341-.675-1.17-12.568-1.162-16.663.008-4.051-.139-3.925-6.189 5.3" fill="#fbda43"/><path d="M178.3.275c-1.925.086-3.5.329-3.5.541 0 .211-1.339.384-2.976.384s-3.088.18-3.224.4c-.136.22-1.137.4-2.224.4-1.087 0-1.976.18-1.976.4 0 .22-.99.4-2.2.4-1.21 0-2.2.18-2.2.4 0 .22-.799.4-1.776.4s-1.888.18-2.024.4c-.136.22-.957.4-1.824.4-.867 0-1.576.18-1.576.4 0 .22-.72.4-1.6.4-.88 0-1.6.18-1.6.4 0 .22-.72.4-1.6.4-.88 0-1.6.18-1.6.4 0 .22-.54.4-1.2.4-.66 0-1.2.18-1.2.4 0 .22-.63.4-1.4.4-.77 0-1.4.18-1.4.4 0 .22-.429.4-.954.4-.891 0-4.228.885-6.046 1.603-.44.174-1.43.533-2.2.797-1.693.582-3.16 1.171-4.095 1.647-.382.194-1.057.353-1.5.353-.443 0-.805.18-.805.4 0 .22-.36.4-.8.4-.44 0-.8.18-.8.4 0 .22-.439.4-.976.4-.537 0-1.088.18-1.224.4-.136.22-.597.4-1.024.4-.427 0-.776.18-.776.4 0 .22-.36.4-.8.4-.44 0-.8.18-.8.4 0 .22-.272.4-.605.4-.588 0-1.013.167-2.89 1.138-.492.254-1.167.462-1.5.462-.333 0-.605.18-.605.4 0 .22-.36.4-.8.4-.44 0-.8.146-.8.325 0 .179-.63.573-1.4.875-.77.302-1.4.696-1.4.875 0 .179-.36.325-.8.325-.44 0-.8.18-.8.4 0 .22-.36.4-.8.4-.44 0-.8.18-.8.4 0 .22-.32.4-.712.4-.391 0-.971.36-1.288.8-.317.44-.828.8-1.134.8-.651 0-4.603 2.059-4.799 2.5-.074.165-.311.3-.528.3-.217 0-1.18.54-2.139 1.2-.959.66-1.897 1.2-2.084 1.2-.187 0-.599.36-.916.8-.317.44-.857.8-1.2.8-.343 0-.883.36-1.2.8-.317.44-.857.8-1.2.8-.343 0-.883.36-1.2.8-.317.44-.809.8-1.092.8-.283 0-1.08.54-1.771 1.2-.691.66-1.459 1.2-1.708 1.2-.249 0-.712.36-1.029.8-.317.44-.825.8-1.128.8-.303 0-1.055.54-1.672 1.2-.617.66-1.236 1.2-1.377 1.2-.271 0-.671.314-2.674 2.1-.678.605-1.39 1.1-1.581 1.1-.191 0-1.117.767-2.057 1.705-.941.938-2.341 2.15-3.111 2.694-.77.543-3.161 2.791-5.313 4.994-4.705 4.818-3.676 3.789-8.494 8.494-2.203 2.152-4.451 4.541-4.994 5.308-.544.767-1.846 2.27-2.894 3.34C44.857 72.005 44 73.051 44 73.259c0 .207-.405.811-.9 1.34-1.369 1.464-1.9 2.141-1.9 2.424 0 .141-.54.76-1.2 1.377-.66.617-1.2 1.369-1.2 1.672 0 .303-.36.811-.8 1.128-.44.317-.8.78-.8 1.029 0 .249-.54 1.017-1.2 1.708-.66.691-1.2 1.488-1.2 1.771 0 .283-.36.775-.8 1.092-.44.317-.8.857-.8 1.2 0 .343-.36.883-.8 1.2-.44.317-.8.857-.8 1.2 0 .343-.36.883-.8 1.2-.44.317-.8.729-.8.916 0 .187-.54 1.125-1.2 2.084-.66.959-1.2 1.922-1.2 2.139 0 .217-.157.454-.349.528-.442.168-2.451 4.129-2.451 4.831 0 .289-.36.785-.8 1.102-.44.317-.8.897-.8 1.288 0 .392-.18.712-.4.712-.22 0-.4.36-.4.8 0 .44-.18.8-.4.8-.22 0-.4.36-.4.8 0 .44-.146.8-.325.8-.179 0-.573.63-.875 1.4-.302.77-.696 1.4-.875 1.4-.179 0-.325.36-.325.8 0 .44-.18.8-.4.8-.22 0-.4.349-.4.776 0 .427-.18.888-.4 1.024-.22.136-.4.597-.4 1.024 0 .427-.18.776-.4.776-.22 0-.4.45-.4 1s-.18 1-.4 1c-.22 0-.4.36-.4.8 0 .44-.18.8-.4.8-.22 0-.4.349-.4.776 0 .427-.18.888-.4 1.024-.22.136-.4.687-.4 1.224 0 .537-.18.976-.4.976-.22 0-.4.36-.4.8 0 .44-.18.8-.4.8-.22 0-.4.362-.4.805 0 .443-.159 1.118-.353 1.5-.195.382-.576 1.235-.847 1.895-.271.66-.652 1.513-.847 1.895-.194.382-.353.969-.353 1.305 0 .336-.163.923-.363 1.305-.597 1.142-1.637 4.917-1.637 5.941 0 .525-.18.954-.4.954-.22 0-.4.63-.4 1.4 0 .77-.18 1.4-.4 1.4-.22 0-.4.529-.4 1.176 0 .647-.18 1.288-.4 1.424-.22.136-.4.867-.4 1.624 0 .757-.18 1.376-.4 1.376-.22 0-.4.72-.4 1.6 0 .88-.18 1.6-.4 1.6-.22 0-.4.709-.4 1.576 0 .867-.18 1.688-.4 1.824-.22.136-.4 1.047-.4 2.024 0 .977-.18 1.776-.4 1.776-.22 0-.4.9-.4 2s-.18 2-.4 2c-.222 0-.4 1.059-.4 2.376 0 1.307-.18 2.488-.4 2.624-.22.136-.4 1.371-.4 2.744 0 1.463-.207 2.703-.5 2.996-.389.389-.5 6.003-.5 25.347 0 19.521.107 24.882.5 25.013.335.112.5 1.071.5 2.91 0 1.508.18 2.854.4 2.99.22.136.4 1.317.4 2.624 0 1.317.178 2.376.4 2.376.22 0 .4.9.4 2s.18 2 .4 2c.22 0 .4.799.4 1.776s.18 1.888.4 2.024c.22.136.4.957.4 1.824 0 .867.18 1.576.4 1.576.22 0 .4.72.4 1.6 0 .88.18 1.6.4 1.6.22 0 .4.619.4 1.376 0 .757.18 1.488.4 1.624.22.136.4.777.4 1.424 0 .647.18 1.176.4 1.176.22 0 .4.63.4 1.4 0 .77.18 1.4.4 1.4.22 0 .4.429.4.954 0 .891.885 4.228 1.603 6.046.174.44.533 1.43.797 2.2.582 1.693 1.171 3.16 1.647 4.095.194.382.353 1.057.353 1.5 0 .443.18.805.4.805.22 0 .4.36.4.8 0 .44.18.8.4.8.22 0 .4.439.4.976 0 .537.18 1.088.4 1.224.22.136.4.597.4 1.024 0 .427.18.776.4.776.22 0 .4.36.4.8 0 .44.18.8.4.8.22 0 .4.272.4.605 0 .333.18.963.4 1.4.22.437.58 1.153.8 1.59.22.437.4 1.067.4 1.4 0 .333.135.606.3.606.165.001.75.991 1.3 2.199.55 1.208 1.135 2.198 1.3 2.199.165 0 .3.361.3.801 0 .44.18.8.4.8.22 0 .4.36.4.8 0 .44.18.8.4.8.22 0 .4.236.4.525 0 .288.36.911.8 1.383.44.472.8 1.067.8 1.321 0 .582 2.095 4.524 2.5 4.704.165.074.3.311.3.528 0 .217.54 1.18 1.2 2.139.66.959 1.2 1.897 1.2 2.084 0 .187.36.599.8.916.44.317.8.857.8 1.2 0 .343.36.883.8 1.2.44.317.8.857.8 1.2 0 .343.36.883.8 1.2.44.317.8.809.8 1.092 0 .283.54 1.08 1.2 1.771.66.691 1.2 1.459 1.2 1.708 0 .249.36.712.8 1.029.44.317.8.807.8 1.088s.72 1.253 1.6 2.16c.88.907 1.6 1.788 1.6 1.958 0 .17.54.887 1.2 1.594.66.707 1.2 1.441 1.2 1.632 0 .191.767 1.117 1.705 2.057.938.941 2.15 2.341 2.694 3.111.543.77 2.791 3.161 4.994 5.313 4.818 4.705 3.789 3.676 8.494 8.494 2.152 2.203 4.543 4.451 5.313 4.994.77.544 2.17 1.756 3.111 2.694.94.938 1.863 1.705 2.049 1.705.187 0 1.027.63 1.868 1.4.841.77 1.667 1.4 1.837 1.4.17 0 .938.63 1.708 1.4.77.77 1.637 1.4 1.925 1.4.289 0 .785.36 1.102.8.317.44.78.8 1.029.8.249 0 1.017.54 1.708 1.2.691.66 1.488 1.2 1.771 1.2.283 0 .775.36 1.092.8.317.44.857.8 1.2.8.343 0 .883.36 1.2.8.317.44.857.8 1.2.8.343 0 .883.36 1.2.8.317.44.729.8.916.8.187 0 1.125.54 2.084 1.2.959.66 1.937 1.2 2.172 1.2.235 0 .428.18.428.4 0 .22.197.4.438.4s.927.348 1.525.773c.597.426 1.609.905 2.248 1.066.639.16 1.517.622 1.951 1.026.434.404 1.025.735 1.313.735.289 0 .525.18.525.4 0 .22.36.4.8.4.44 0 .8.18.8.4 0 .22.36.4.8.4.44 0 .8.18.8.4 0 .22.345.4.767.4.421 0 .826.135.9.3.073.165 1.033.725 2.133 1.244s2.313 1.104 2.695 1.3c.382.196.967.356 1.3.356.333 0 .605.18.605.4 0 .22.36.4.8.4.44 0 .8.18.8.4 0 .22.36.4.8.4.44 0 .8.18.8.4 0 .22.349.4.776.4.427 0 .888.18 1.024.4.136.22.687.4 1.224.4.537 0 .976.18.976.4 0 .22.36.4.8.4.44 0 .8.18.8.4 0 .22.362.4.805.4.443 0 1.118.159 1.5.353.935.476 2.402 1.065 4.095 1.647.77.264 1.76.623 2.2.797 1.818.718 5.155 1.603 6.046 1.603.525 0 .954.18.954.4 0 .22.63.4 1.4.4.77 0 1.4.18 1.4.4 0 .22.529.4 1.176.4.647 0 1.288.18 1.424.4.136.22.867.4 1.624.4.757 0 1.376.18 1.376.4 0 .22.72.4 1.6.4.88 0 1.6.18 1.6.4 0 .22.709.4 1.576.4.867 0 1.688.18 1.824.4.136.22 1.047.4 2.024.4.977 0 1.776.18 1.776.4 0 .22.99.4 2.2.4 1.21 0 2.2.18 2.2.4 0 .22.979.4 2.176.4s2.288.18 2.424.4c.136.22 1.482.4 2.99.4 1.839 0 2.798.165 2.91.5.244.732 49.956.732 50.2 0 .112-.335 1.071-.5 2.91-.5 1.508 0 2.854-.18 2.99-.4.136-.22 1.216-.4 2.4-.4s2.264-.18 2.4-.4c.136-.22 1.137-.4 2.224-.4 1.087 0 1.976-.18 1.976-.4 0-.22.709-.4 1.576-.4.867 0 1.688-.18 1.824-.4.136-.22 1.047-.4 2.024-.4.977 0 1.776-.18 1.776-.4 0-.22.72-.4 1.6-.4.88 0 1.6-.18 1.6-.4 0-.22.619-.4 1.376-.4.757 0 1.488-.18 1.624-.4.136-.22.777-.4 1.424-.4.647 0 1.176-.18 1.176-.4 0-.22.63-.4 1.4-.4.77 0 1.4-.159 1.4-.354 0-.195.987-.477 2.194-.628 1.206-.151 2.297-.441 2.423-.646.127-.205.659-.372 1.183-.372s1.064-.18 1.2-.4c.136-.22.599-.4 1.029-.4.43 0 1.094-.159 1.476-.353.382-.195 1.235-.576 1.895-.847.66-.271 1.513-.652 1.895-.847.382-.194 1.057-.353 1.5-.353.443 0 .805-.18.805-.4 0-.22.36-.4.8-.4.44 0 .8-.18.8-.4 0-.22.54-.4 1.2-.4.66 0 1.2-.18 1.2-.4 0-.22.36-.4.8-.4.44 0 .8-.18.8-.4 0-.22.36-.4.8-.4.44 0 .8-.18.8-.4 0-.22.272-.4.605-.4.588 0 1.013-.167 2.89-1.138.492-.254 1.167-.462 1.5-.462.333 0 .606-.135.606-.3.001-.165.991-.75 2.199-1.3 1.208-.55 2.198-1.135 2.199-1.3 0-.165.361-.3.801-.3.44 0 .8-.18.8-.4 0-.22.36-.4.8-.4.44 0 .8-.18.8-.4 0-.22.236-.4.525-.4.288 0 .911-.36 1.383-.8.472-.44 1.067-.8 1.321-.8.582 0 4.524-2.095 4.704-2.5.074-.165.311-.3.528-.3.217 0 1.18-.54 2.139-1.2.959-.66 1.897-1.2 2.084-1.2.187 0 .599-.36.916-.8.317-.44.857-.8 1.2-.8.343 0 .883-.36 1.2-.8.317-.44.857-.8 1.2-.8.343 0 .883-.36 1.2-.8.317-.44.809-.8 1.092-.8.283 0 1.08-.54 1.771-1.2.691-.66 1.459-1.2 1.708-1.2.249 0 .712-.36 1.029-.8.317-.44.813-.8 1.102-.8.288 0 1.155-.63 1.925-1.4.77-.77 1.538-1.4 1.708-1.4.17 0 .996-.63 1.837-1.4.841-.77 1.681-1.4 1.868-1.4.186 0 1.109-.767 2.049-1.705.941-.938 2.341-2.15 3.111-2.694.77-.543 3.161-2.791 5.313-4.994 4.705-4.818 3.676-3.789 8.494-8.494 2.203-2.152 4.451-4.543 4.994-5.313.544-.77 1.756-2.17 2.694-3.111.938-.94 1.705-1.863 1.705-2.049 0-.186.72-1.127 1.6-2.089.88-.963 1.6-1.904 1.6-2.09 0-.187.54-.844 1.2-1.461.66-.617 1.2-1.369 1.2-1.672 0-.303.36-.811.8-1.128.44-.317.8-.78.8-1.029 0-.249.54-1.017 1.2-1.708.66-.691 1.2-1.488 1.2-1.771 0-.283.36-.775.8-1.092.44-.317.8-.857.8-1.2 0-.343.36-.883.8-1.2.44-.317.8-.857.8-1.2 0-.343.36-.883.8-1.2.44-.317.8-.729.8-.916 0-.187.54-1.125 1.2-2.084.66-.959 1.2-1.937 1.2-2.172 0-.235.18-.428.4-.428.22 0 .4-.36.4-.8 0-.44.147-.8.326-.8.348 0 1.674-2.558 1.674-3.23 0-.222.36-.79.8-1.262.44-.472.8-1.095.8-1.383 0-.289.18-.525.4-.525.22 0 .4-.36.4-.8 0-.44.18-.8.4-.8.22 0 .4-.345.4-.767 0-.421.137-.826.304-.9.167-.073 1.085-1.753 2.041-3.733.955-1.98 1.898-3.913 2.096-4.295.197-.382.359-.967.359-1.3 0-.333.18-.605.4-.605.22 0 .4-.36.4-.8 0-.44.18-.8.4-.8.22 0 .4-.349.4-.776 0-.427.18-.888.4-1.024.22-.136.4-.687.4-1.224 0-.537.18-.976.4-.976.22 0 .4-.36.4-.8 0-.44.18-.8.4-.8.22 0 .4-.362.4-.805 0-.443.159-1.118.353-1.5.195-.382.576-1.235.847-1.895.271-.66.652-1.513.847-1.895.194-.382.353-1.046.353-1.476 0-.43.18-.893.4-1.029.22-.136.4-.676.4-1.2 0-.524.167-1.056.372-1.183.205-.126.495-1.217.646-2.423.151-1.207.433-2.194.628-2.194s.354-.63.354-1.4c0-.77.18-1.4.4-1.4.22 0 .4-.529.4-1.176 0-.647.18-1.288.4-1.424.22-.136.4-.867.4-1.624 0-.757.18-1.376.4-1.376.22 0 .4-.72.4-1.6 0-.88.18-1.6.4-1.6.22 0 .4-.709.4-1.576 0-.867.18-1.688.4-1.824.22-.136.4-1.047.4-2.024 0-.977.18-1.776.4-1.776.22 0 .4-.889.4-1.976s.18-2.088.4-2.224c.22-.136.4-1.216.4-2.4s.18-2.264.4-2.4c.22-.136.4-1.482.4-2.99 0-1.839.165-2.798.5-2.91.393-.131.5-5.509.5-25.1s-.107-24.969-.5-25.1c-.335-.112-.5-1.071-.5-2.91 0-1.508-.18-2.854-.4-2.99-.22-.136-.4-1.216-.4-2.4s-.18-2.264-.4-2.4c-.22-.136-.4-1.137-.4-2.224 0-1.087-.18-1.976-.4-1.976-.22 0-.4-.799-.4-1.776s-.18-1.888-.4-2.024c-.22-.136-.4-.957-.4-1.824 0-.867-.18-1.576-.4-1.576-.22 0-.4-.72-.4-1.6 0-.88-.18-1.6-.4-1.6-.22 0-.4-.619-.4-1.376 0-.757-.18-1.488-.4-1.624-.22-.136-.4-.777-.4-1.424 0-.647-.18-1.176-.4-1.176-.22 0-.4-.63-.4-1.4 0-.77-.159-1.4-.354-1.4-.195 0-.477-.987-.628-2.194-.151-1.206-.441-2.297-.646-2.423-.205-.127-.372-.659-.372-1.183s-.18-1.064-.4-1.2c-.22-.136-.4-.599-.4-1.029 0-.43-.159-1.094-.353-1.476-.195-.382-.576-1.235-.847-1.895-.271-.66-.652-1.513-.847-1.895-.194-.382-.353-1.057-.353-1.5 0-.443-.18-.805-.4-.805-.22 0-.4-.36-.4-.8 0-.44-.18-.8-.4-.8-.22 0-.4-.439-.4-.976 0-.537-.18-1.088-.4-1.224-.22-.136-.4-.597-.4-1.024 0-.427-.18-.776-.4-.776-.22 0-.4-.36-.4-.8 0-.44-.18-.8-.4-.8-.22 0-.4-.36-.4-.8 0-.44-.18-.8-.4-.8-.22 0-.399-.315-.397-.7.004-.775-3.217-7.422-3.699-7.633-.167-.074-.304-.479-.304-.9 0-.422-.18-.767-.4-.767-.22 0-.4-.36-.4-.8 0-.44-.18-.8-.4-.8-.22 0-.4-.236-.4-.525 0-.288-.331-.879-.735-1.313-.404-.434-.866-1.312-1.026-1.951-.161-.639-.64-1.651-1.066-2.248-.425-.598-.773-1.284-.773-1.525 0-.241-.18-.438-.4-.438-.22 0-.4-.193-.4-.428s-.54-1.213-1.2-2.172c-.66-.959-1.2-1.897-1.2-2.084 0-.187-.36-.599-.8-.916-.44-.317-.8-.857-.8-1.2 0-.343-.36-.883-.8-1.2-.44-.317-.8-.857-.8-1.2 0-.343-.36-.883-.8-1.2-.44-.317-.8-.857-.8-1.2 0-.343-.36-.883-.8-1.2-.44-.317-.8-.78-.8-1.029 0-.249-.54-1.017-1.2-1.708-.66-.691-1.2-1.455-1.2-1.699s-.54-.947-1.2-1.564c-.66-.617-1.2-1.274-1.2-1.461 0-.186-.72-1.127-1.6-2.09-.88-.962-1.6-1.903-1.6-2.089 0-.186-.767-1.109-1.705-2.049-.938-.941-2.15-2.341-2.694-3.111-.543-.77-2.791-3.161-4.994-5.313-4.818-4.705-3.789-3.676-8.494-8.494-2.152-2.203-4.541-4.451-5.308-4.994-.767-.544-2.27-1.846-3.34-2.894-1.07-1.048-2.116-1.905-2.324-1.905-.207 0-.811-.405-1.34-.9-1.464-1.369-2.141-1.9-2.424-1.9-.141 0-.76-.54-1.377-1.2-.617-.66-1.32-1.2-1.564-1.2s-1.008-.54-1.699-1.2c-.691-.66-1.459-1.2-1.708-1.2-.249 0-.712-.36-1.029-.8-.317-.44-.857-.8-1.2-.8-.343 0-.883-.36-1.2-.8-.317-.44-.857-.8-1.2-.8-.343 0-.883-.36-1.2-.8-.317-.44-.857-.8-1.2-.8-.343 0-.883-.36-1.2-.8-.317-.44-.729-.8-.916-.8-.187 0-1.125-.54-2.084-1.2-.959-.66-1.922-1.2-2.139-1.2-.217 0-.454-.135-.528-.3-.18-.405-4.122-2.5-4.704-2.5-.254 0-.849-.36-1.321-.8-.472-.44-1.095-.8-1.383-.8-.289 0-.525-.18-.525-.4 0-.22-.36-.4-.8-.4-.44 0-.8-.18-.8-.4 0-.22-.36-.4-.8-.4-.44 0-.801-.135-.801-.3-.001-.165-.991-.75-2.199-1.3-1.208-.55-2.198-1.135-2.199-1.3 0-.165-.273-.3-.606-.3-.588 0-1.013-.167-2.89-1.138-.492-.254-1.167-.462-1.5-.462-.333 0-.605-.18-.605-.4 0-.22-.36-.4-.8-.4-.44 0-.8-.18-.8-.4 0-.22-.36-.4-.8-.4-.44 0-.8-.18-.8-.4 0-.22-.54-.4-1.2-.4-.66 0-1.2-.18-1.2-.4 0-.22-.36-.4-.8-.4-.44 0-.8-.18-.8-.4 0-.22-.362-.4-.805-.4-.443 0-1.118-.159-1.5-.353-.382-.195-1.235-.576-1.895-.847-.66-.271-1.513-.652-1.895-.847-.382-.194-.969-.353-1.305-.353-.336 0-.923-.163-1.305-.363-1.142-.597-4.917-1.637-5.941-1.637-.525 0-.954-.18-.954-.4 0-.22-.63-.4-1.4-.4-.77 0-1.4-.18-1.4-.4 0-.22-.529-.4-1.176-.4-.647 0-1.288-.18-1.424-.4-.136-.22-.867-.4-1.624-.4-.757 0-1.376-.18-1.376-.4 0-.22-.72-.4-1.6-.4-.88 0-1.6-.18-1.6-.4 0-.22-.709-.4-1.576-.4-.867 0-1.688-.18-1.824-.4-.136-.22-1.047-.4-2.024-.4-.977 0-1.776-.18-1.776-.4 0-.22-.9-.4-2-.4s-2-.18-2-.4c0-.222-1.059-.4-2.376-.4-1.307 0-2.488-.18-2.624-.4-.136-.22-1.482-.4-2.99-.4-1.817 0-2.799-.166-2.907-.492-.162-.486-37.812-.834-46.803-.433M237.448 93.5c-.147 1.485-.441 5.174-.653 8.199-.212 3.024-.498 6.204-.636 7.066-.293 1.833-.249 1.865 5.688 4.156 2.006.774 4.616 1.846 5.8 2.381 1.184.536 3.278 1.407 4.653 1.934 2.035.782 3.2 1.564 2.327 1.564-.095 0-2.21.51-4.7 1.133s-5.517 1.36-6.727 1.637c-1.21.278-2.74.656-3.4.841-.66.186-1.938.528-2.839.761l-1.639.424-.455 5.302c-.249 2.916-.555 6.742-.679 8.502-.303 4.308-.62 6.2-1.039 6.2-.192 0-.349-.182-.349-.405 0-.222-.79-1.617-1.756-3.1-.965-1.482-3.17-5.012-4.9-7.844-1.729-2.832-3.337-5.224-3.572-5.316-.236-.091-4.458.831-9.382 2.05-9.27 2.293-9.99 2.43-9.99 1.897 0-.28 8.144-10.109 11.245-13.571 1.475-1.646 1.478-1.621-.587-4.816-2.14-3.312-6.684-10.636-7.681-12.383-.923-1.617-.576-1.991 1.109-1.198.723.34 3.474 1.47 6.114 2.511 2.64 1.041 4.971 2.046 5.18 2.234.209.188.623.341.919.341.297 0 1.285.36 2.195.8 2.603 1.258 1.541 2.14 11.249-9.338 4.644-5.49 4.864-5.586 4.505-1.962M112.36 130.7c1.406 4.345 4.146 12.76 6.089 18.7 1.942 5.94 4.584 14.04 5.871 18l2.34 7.2 27.57.207c15.164.114 27.649.249 27.745.3.096.051-.984.935-2.4 1.965-3.756 2.729-6.083 4.43-10.617 7.76-2.223 1.632-5.8 4.228-7.949 5.768-2.148 1.54-5.73 4.134-7.958 5.765-2.228 1.631-4.951 3.623-6.051 4.428-1.1.804-3.665 2.683-5.7 4.175s-3.7 2.889-3.7 3.106c0 .216.881 3.033 1.957 6.259 1.076 3.227 2.945 8.927 4.152 12.667 5.604 17.352 8.865 27.429 9.707 30 1.319 4.027 1.249 4-8.456-3.197-1.782-1.322-5.001-3.663-7.154-5.203-2.153-1.54-5.015-3.613-6.36-4.606-1.345-.994-4.695-3.424-7.443-5.4-2.749-1.977-5.269-3.807-5.6-4.068-3.492-2.745-8.376-6.126-8.85-6.126-.245 0-1.28.601-2.299 1.335-10.38 7.477-28.835 20.828-31.054 22.465-5.337 3.939-10.356 7.485-10.877 7.685-.944.362-1.284 1.537 5.691-19.685 7.009-21.326 10.184-31.323 10.166-32.014-.013-.531-1.46-1.826-4.448-3.986-2.435-1.76-6.021-4.37-7.968-5.8-1.947-1.43-5.898-4.31-8.779-6.4-2.881-2.09-7.094-5.15-9.363-6.8-2.268-1.65-6.218-4.519-8.777-6.376-2.559-1.857-4.509-3.52-4.332-3.697.177-.177 12.554-.368 27.504-.424L92.2 174.6l2.652-8c2.514-7.584 6.194-18.849 11.564-35.4 2.946-9.08 2.697-8.4 3.073-8.4.173 0 1.465 3.555 2.871 7.9m159.533 17.7c3.044 2.97 6.204 6.02 7.021 6.779l1.486 1.378 1.9-1.019c1.045-.56 4.06-2.15 6.7-3.533 2.64-1.384 5.571-2.94 6.514-3.46 1.82-1.003 2.486-1.163 2.486-.596 0 .283-7.605 16.233-8.285 17.375-.106.179 3.02 3.446 6.946 7.26 3.927 3.814 7.026 7.05 6.888 7.192-.137.142-4.547-.365-9.8-1.127-5.252-.762-9.692-1.247-9.868-1.078-.175.168-2.185 4.094-4.466 8.724-2.282 4.629-4.314 8.519-4.516 8.644-.322.199-.765-1.922-2.577-12.339-.23-1.32-.632-3.48-.895-4.8l-.477-2.4-4.575-.677c-8.58-1.268-10.975-1.6-13.082-1.812-2.987-.3-2.885-.519 1.234-2.646 15.755-8.141 14.496-6.999 13.518-12.265-.266-1.43-.662-3.68-.88-5-.218-1.32-.571-3.39-.785-4.6-1.23-6.984-1.647-6.984 5.513 0m10.158 68.41c1.096 3.184 2.47 7.23 3.054 8.99 1.374 4.146.482 3.856 11.461 3.719 10.939-.136 10.952-.131 6.967 2.681-1.558 1.1-3.036 2.18-3.283 2.4-.248.22-1.485 1.165-2.75 2.1-5.685 4.202-6.7 5.024-6.7 5.424 0 .235 1.365 4.459 3.033 9.386s2.928 9.063 2.8 9.19c-.22.221-3.153-1.628-6.233-3.928-4.651-3.472-9.582-6.772-10.122-6.772-.344 0-3.843 2.405-7.774 5.344-3.931 2.939-7.53 5.549-7.997 5.799l-.85.455.772-2.599c1.769-5.961 3.335-10.993 4.463-14.339.434-1.287.635-2.485.448-2.663-.187-.178-3.4-2.488-7.14-5.132-3.74-2.644-7.205-5.099-7.7-5.455-1.52-1.093-1.026-1.41 2.2-1.411 1.705-.001 6.189-.119 9.964-.262l6.863-.26.816-2.639c.448-1.451 1.724-5.57 2.836-9.154 1.112-3.583 2.021-6.613 2.021-6.733 0-1.373 1.237 1.17 2.851 5.859m-47.657 42.09c-.008 4.095.821 15.988 1.162 16.663.163.323 3.093 1.302 6.864 2.293 13.634 3.585 13.35 3.439 9.481 4.877-1.376.511-2.906 1.095-3.401 1.298-1.964.805-2.858 1.154-6.9 2.692-2.31.88-4.54 1.71-4.955 1.847-.693.227-.734.551-.502 3.939.552 8.037.763 16.29.417 16.273-.198-.011-1.44-1.4-2.76-3.089-5.272-6.745-9.932-12.127-10.354-11.96-.246.098-1.706.664-3.246 1.259-1.54.595-3.16 1.228-3.6 1.408-5.78 2.355-11.476 4.458-11.638 4.296-.18-.181 1.212-2.406 8.503-13.591.966-1.482 1.843-2.922 1.95-3.2.106-.278-2.611-3.988-6.038-8.245s-6.149-7.822-6.048-7.922c.173-.173 3.753.653 8.671 2.001 5.991 1.642 9.965 2.661 10.374 2.661.249 0 2.873-3.69 5.831-8.2 6.05-9.225 6.197-9.351 6.189-5.3" fill="#dc0424"/></g></svg>