<svg id="svg" version="1.1" xmlns="http://www.w3.org/2000/svg" xmlns:xlink="http://www.w3.org/1999/xlink" width="400" height="400" viewBox="0, 0, 400,400"><g id="svgg"><path id="path0" d="M52.797 63.219 C 50.159 65.869,48.000 68.214,48.000 68.430 C 48.000 68.645,47.190 69.631,46.200 70.621 C 45.210 71.611,44.400 72.574,44.400 72.760 C 44.400 72.946,43.680 73.887,42.800 74.849 C 41.920 75.812,41.200 76.753,41.200 76.939 C 41.200 77.126,40.660 77.783,40.000 78.400 C 39.340 79.017,38.800 79.737,38.800 80.000 C 38.800 80.263,38.260 80.983,37.600 81.600 C 36.940 82.217,36.400 82.969,36.400 83.272 C 36.400 83.575,36.040 84.083,35.600 84.400 C 35.160 84.717,34.800 85.231,34.800 85.541 C 34.800 85.852,34.484 86.397,34.097 86.753 C 33.711 87.109,33.140 87.895,32.830 88.500 C 32.519 89.105,32.115 89.600,31.932 89.600 C 31.750 89.600,31.600 89.920,31.600 90.312 C 31.600 90.703,31.240 91.283,30.800 91.600 C 30.360 91.917,30.000 92.407,30.000 92.688 C 30.000 92.970,29.820 93.200,29.600 93.200 C 29.380 93.200,29.200 93.470,29.200 93.800 C 29.200 94.130,29.020 94.400,28.800 94.400 C 28.580 94.400,28.400 94.670,28.400 95.000 C 28.400 95.330,28.220 95.600,28.000 95.600 C 27.780 95.600,27.600 95.960,27.600 96.400 C 27.600 96.840,27.452 97.200,27.272 97.200 C 26.884 97.200,23.756 103.651,23.912 104.130 C 23.971 104.311,23.835 104.345,23.610 104.206 C 23.384 104.067,23.200 104.233,23.200 104.576 C 23.200 104.919,23.020 105.200,22.800 105.200 C 22.580 105.200,22.400 105.560,22.400 106.000 C 22.400 106.440,22.220 106.800,22.000 106.800 C 21.780 106.800,21.600 107.160,21.600 107.600 C 21.600 108.040,21.420 108.400,21.200 108.400 C 20.980 108.400,20.800 108.670,20.800 109.000 C 20.800 109.330,20.620 109.600,20.400 109.600 C 20.180 109.600,20.000 109.960,20.000 110.400 C 20.000 110.840,19.820 111.200,19.600 111.200 C 19.380 111.200,19.200 111.560,19.200 112.000 C 19.200 112.440,19.020 112.800,18.800 112.800 C 18.580 112.800,18.400 113.160,18.400 113.600 C 18.400 114.040,18.220 114.400,18.000 114.400 C 17.780 114.400,17.600 114.749,17.600 115.176 C 17.600 115.603,17.420 116.064,17.200 116.200 C 16.980 116.336,16.800 116.887,16.800 117.424 C 16.800 117.961,16.620 118.400,16.400 118.400 C 16.180 118.400,16.000 118.760,16.000 119.200 C 16.000 119.640,15.820 120.000,15.600 120.000 C 15.380 120.000,15.200 120.360,15.200 120.800 C 15.200 121.240,15.020 121.600,14.800 121.600 C 14.580 121.600,14.400 122.140,14.400 122.800 C 14.400 123.460,14.220 124.000,14.000 124.000 C 13.780 124.000,13.600 124.461,13.600 125.024 C 13.600 125.604,13.427 125.940,13.200 125.800 C 12.973 125.660,12.800 125.996,12.800 126.576 C 12.800 127.139,12.620 127.600,12.400 127.600 C 12.180 127.600,12.000 128.140,12.000 128.800 C 12.000 129.460,11.820 130.000,11.600 130.000 C 11.380 130.000,11.200 130.272,11.200 130.605 C 11.200 130.938,11.038 131.523,10.839 131.905 C 10.640 132.287,10.248 133.410,9.967 134.400 C 9.686 135.390,9.328 136.380,9.173 136.600 C 9.017 136.820,8.763 137.945,8.607 139.100 C 8.452 140.255,8.162 141.200,7.962 141.200 C 7.763 141.200,7.600 141.830,7.600 142.600 C 7.600 143.370,7.459 144.000,7.287 144.000 C 7.115 144.000,6.934 144.495,6.884 145.100 C 6.834 145.705,6.615 146.260,6.397 146.333 C 6.178 146.407,5.997 147.397,5.994 148.533 C 5.989 150.015,5.878 150.430,5.600 150.000 C 5.322 149.570,5.211 149.988,5.206 151.476 C 5.203 152.618,5.020 153.664,4.800 153.800 C 4.580 153.936,4.400 154.847,4.400 155.824 C 4.400 156.801,4.220 157.600,4.000 157.600 C 3.780 157.600,3.600 158.331,3.600 159.224 C 3.600 160.204,3.442 160.749,3.200 160.600 C 2.948 160.444,2.800 161.404,2.800 163.200 C 2.800 164.996,2.652 165.956,2.400 165.800 C 2.150 165.646,2.000 166.463,2.000 167.976 C 2.000 169.325,1.823 170.400,1.600 170.400 C 1.366 170.400,1.200 171.741,1.200 173.624 C 1.200 175.478,1.044 176.751,0.833 176.620 C 0.352 176.323,0.223 179.474,0.064 195.411 C -0.079 209.837,0.313 223.701,0.856 223.365 C 1.045 223.248,1.200 224.593,1.200 226.353 C 1.200 228.113,1.380 229.664,1.600 229.800 C 1.820 229.936,2.000 230.937,2.000 232.024 C 2.000 233.111,2.180 234.000,2.400 234.000 C 2.626 234.000,2.800 235.133,2.800 236.600 C 2.800 238.067,2.974 239.200,3.200 239.200 C 3.420 239.200,3.600 239.920,3.600 240.800 C 3.600 241.680,3.780 242.400,4.000 242.400 C 4.220 242.400,4.400 243.210,4.400 244.200 C 4.400 245.190,4.580 246.000,4.800 246.000 C 5.020 246.000,5.200 246.810,5.200 247.800 C 5.200 248.790,5.380 249.600,5.600 249.600 C 5.820 249.600,6.000 250.320,6.000 251.200 C 6.000 252.210,6.184 252.802,6.500 252.806 C 6.833 252.810,6.800 252.942,6.400 253.200 C 6.000 253.458,5.967 253.590,6.300 253.594 C 6.575 253.597,6.800 253.960,6.800 254.400 C 6.800 254.840,7.025 255.203,7.300 255.206 C 7.633 255.210,7.600 255.342,7.200 255.600 C 6.800 255.858,6.767 255.990,7.100 255.994 C 7.409 255.998,7.602 256.573,7.606 257.500 C 7.610 258.458,7.733 258.810,7.946 258.473 C 8.157 258.141,8.377 258.867,8.540 260.432 C 8.683 261.799,8.948 263.117,9.128 263.359 C 9.308 263.602,9.686 264.610,9.967 265.600 C 10.248 266.590,10.640 267.713,10.839 268.095 C 11.038 268.477,11.200 269.062,11.200 269.395 C 11.200 269.728,11.380 270.000,11.600 270.000 C 11.820 270.000,12.000 270.540,12.000 271.200 C 12.000 271.860,12.180 272.400,12.400 272.400 C 12.620 272.400,12.800 272.850,12.800 273.400 C 12.800 273.950,12.980 274.400,13.200 274.400 C 13.420 274.400,13.600 274.760,13.600 275.200 C 13.600 275.640,13.780 276.000,14.000 276.000 C 14.220 276.000,14.403 276.585,14.406 277.300 C 14.411 278.286,14.506 278.455,14.800 278.000 C 15.094 277.545,15.189 277.714,15.194 278.700 C 15.197 279.415,15.380 280.000,15.600 280.000 C 15.820 280.000,16.000 280.360,16.000 280.800 C 16.000 281.240,16.180 281.600,16.400 281.600 C 16.620 281.600,16.800 282.039,16.800 282.576 C 16.800 283.113,16.980 283.664,17.200 283.800 C 17.420 283.936,17.600 284.397,17.600 284.824 C 17.600 285.251,17.780 285.600,18.000 285.600 C 18.220 285.600,18.400 285.960,18.400 286.400 C 18.400 286.840,18.580 287.200,18.800 287.200 C 19.020 287.200,19.200 287.560,19.200 288.000 C 19.200 288.440,19.346 288.800,19.525 288.800 C 19.704 288.800,20.098 289.430,20.400 290.200 C 20.702 290.970,21.096 291.600,21.275 291.600 C 21.454 291.600,21.600 291.960,21.600 292.400 C 21.600 292.840,21.780 293.200,22.000 293.200 C 22.220 293.200,22.400 293.560,22.400 294.000 C 22.400 294.440,22.580 294.800,22.800 294.800 C 23.020 294.800,23.200 295.120,23.200 295.512 C 23.200 295.903,23.560 296.483,24.000 296.800 C 24.440 297.117,24.800 297.613,24.800 297.902 C 24.800 298.604,26.809 302.565,27.251 302.733 C 27.443 302.807,27.600 303.212,27.600 303.633 C 27.600 304.055,27.780 304.400,28.000 304.400 C 28.220 304.400,28.400 304.670,28.400 305.000 C 28.400 305.330,28.580 305.600,28.800 305.600 C 29.020 305.600,29.200 305.870,29.200 306.200 C 29.200 306.530,29.380 306.800,29.600 306.800 C 29.820 306.800,30.000 307.068,30.000 307.397 C 30.000 307.725,30.360 308.218,30.800 308.493 C 31.240 308.768,31.600 309.269,31.600 309.608 C 31.600 309.946,31.960 310.483,32.400 310.800 C 32.840 311.117,33.200 311.657,33.200 312.000 C 33.200 312.343,33.560 312.883,34.000 313.200 C 34.440 313.517,34.800 314.057,34.800 314.400 C 34.800 314.743,35.160 315.283,35.600 315.600 C 36.040 315.917,36.400 316.425,36.400 316.728 C 36.400 317.031,36.940 317.783,37.600 318.400 C 38.260 319.017,38.800 319.737,38.800 320.000 C 38.800 320.263,39.340 320.983,40.000 321.600 C 40.660 322.217,41.200 322.919,41.200 323.160 C 41.200 323.402,41.380 323.600,41.600 323.600 C 41.820 323.600,42.000 323.845,42.000 324.144 C 42.000 324.443,42.450 325.026,43.000 325.439 C 43.550 325.852,44.000 326.399,44.000 326.654 C 44.000 326.910,44.900 328.038,46.000 329.161 C 47.100 330.285,48.000 331.375,48.000 331.583 C 48.000 332.157,57.520 341.600,58.099 341.600 C 58.376 341.600,90.462 309.739,129.401 270.798 L 200.198 199.996 129.397 129.198 C 90.456 90.259,58.370 58.400,58.095 58.400 C 57.820 58.400,55.436 60.569,52.797 63.219 " stroke="none" fill="#0454b4" fill-rule="evenodd"></path><path id="path1" d="M129.021 271.047 L 58.241 341.961 59.021 342.856 C 60.861 344.968,67.219 351.200,67.534 351.200 C 67.723 351.200,69.013 352.280,70.400 353.600 C 71.787 354.920,73.092 356.000,73.301 356.000 C 73.509 356.000,74.183 356.540,74.800 357.200 C 75.417 357.860,76.113 358.400,76.347 358.400 C 76.582 358.400,77.403 359.030,78.173 359.800 C 78.943 360.570,79.810 361.200,80.098 361.200 C 80.387 361.200,80.883 361.560,81.200 362.000 C 81.517 362.440,81.980 362.800,82.229 362.800 C 82.478 362.800,83.246 363.340,83.937 364.000 C 84.628 364.660,85.425 365.200,85.708 365.200 C 85.991 365.200,86.483 365.560,86.800 366.000 C 87.117 366.440,87.697 366.800,88.088 366.800 C 88.480 366.800,88.800 366.980,88.800 367.200 C 88.800 367.420,89.120 367.600,89.512 367.600 C 89.903 367.600,90.483 367.960,90.800 368.400 C 91.117 368.840,91.742 369.203,92.188 369.206 C 92.859 369.211,92.896 369.280,92.400 369.600 C 91.887 369.931,91.902 369.989,92.500 369.994 C 92.885 369.997,93.200 370.159,93.200 370.353 C 93.200 370.548,93.515 370.813,93.900 370.942 C 94.637 371.191,95.911 371.927,98.667 373.697 C 99.583 374.286,100.843 374.894,101.467 375.048 C 102.090 375.202,102.891 375.659,103.247 376.064 C 103.603 376.469,104.188 376.800,104.547 376.800 C 104.906 376.800,105.200 376.980,105.200 377.200 C 105.200 377.420,105.560 377.600,106.000 377.600 C 106.440 377.600,106.800 377.780,106.800 378.000 C 106.800 378.220,107.160 378.400,107.600 378.400 C 108.040 378.400,108.400 378.546,108.400 378.725 C 108.400 378.904,109.030 379.298,109.800 379.600 C 110.570 379.902,111.200 380.296,111.200 380.475 C 111.200 380.654,111.560 380.800,112.000 380.800 C 112.440 380.800,112.800 380.980,112.800 381.200 C 112.800 381.420,113.149 381.600,113.576 381.600 C 114.003 381.600,114.464 381.780,114.600 382.000 C 114.736 382.220,115.287 382.400,115.824 382.400 C 116.361 382.400,116.800 382.580,116.800 382.800 C 116.800 383.020,117.160 383.200,117.600 383.200 C 118.040 383.200,118.400 383.380,118.400 383.600 C 118.400 383.820,118.760 384.000,119.200 384.000 C 119.640 384.000,120.000 384.180,120.000 384.400 C 120.000 384.620,120.360 384.800,120.800 384.800 C 121.240 384.800,121.600 384.980,121.600 385.200 C 121.600 385.420,122.140 385.600,122.800 385.600 C 123.460 385.600,124.000 385.780,124.000 386.000 C 124.000 386.220,124.349 386.400,124.776 386.400 C 125.203 386.400,125.664 386.580,125.800 386.800 C 125.936 387.020,126.397 387.200,126.824 387.200 C 127.251 387.200,127.600 387.380,127.600 387.600 C 127.600 387.820,127.962 388.000,128.405 388.000 C 128.848 388.000,129.568 388.180,130.005 388.400 C 130.442 388.620,131.158 388.980,131.595 389.200 C 132.032 389.420,132.741 389.600,133.171 389.600 C 133.601 389.600,134.064 389.780,134.200 390.000 C 134.336 390.220,134.876 390.400,135.400 390.400 C 135.924 390.400,136.456 390.567,136.583 390.772 C 136.709 390.977,137.800 391.267,139.006 391.418 C 140.213 391.569,141.200 391.851,141.200 392.046 C 141.200 392.241,141.830 392.400,142.600 392.400 C 143.370 392.400,144.000 392.580,144.000 392.800 C 144.000 393.020,144.540 393.200,145.200 393.200 C 145.860 393.200,146.400 393.380,146.400 393.600 C 146.400 393.820,147.120 394.000,148.000 394.000 C 148.880 394.000,149.600 394.180,149.600 394.400 C 149.600 394.620,150.320 394.800,151.200 394.800 C 152.080 394.800,152.800 394.980,152.800 395.200 C 152.800 395.420,153.520 395.600,154.400 395.600 C 155.280 395.600,156.000 395.780,156.000 396.000 C 156.000 396.220,156.900 396.400,158.000 396.400 C 159.100 396.400,160.000 396.580,160.000 396.800 C 160.000 397.020,160.990 397.200,162.200 397.200 C 163.410 397.200,164.400 397.380,164.400 397.600 C 164.400 397.820,165.379 398.000,166.576 398.000 C 167.773 398.000,168.864 398.180,169.000 398.400 C 169.136 398.620,170.482 398.800,171.990 398.800 C 173.829 398.800,174.788 398.965,174.900 399.300 C 175.031 399.693,180.409 399.800,200.000 399.800 C 219.591 399.800,224.969 399.693,225.100 399.300 C 225.212 398.965,226.171 398.800,228.010 398.800 C 229.518 398.800,230.864 398.620,231.000 398.400 C 231.136 398.180,232.317 398.000,233.624 398.000 C 234.941 398.000,236.000 397.822,236.000 397.600 C 236.000 397.380,236.889 397.200,237.976 397.200 C 239.063 397.200,240.064 397.020,240.200 396.800 C 240.336 396.580,241.146 396.400,242.000 396.400 C 242.854 396.400,243.664 396.220,243.800 396.000 C 243.936 395.780,244.757 395.600,245.624 395.600 C 246.491 395.600,247.200 395.420,247.200 395.200 C 247.200 394.980,247.920 394.800,248.800 394.800 C 249.680 394.800,250.400 394.620,250.400 394.400 C 250.400 394.180,251.120 394.000,252.000 394.000 C 252.880 394.000,253.600 393.820,253.600 393.600 C 253.600 393.380,254.140 393.200,254.800 393.200 C 255.460 393.200,256.000 393.020,256.000 392.800 C 256.000 392.580,256.630 392.400,257.400 392.400 C 258.170 392.400,258.800 392.241,258.800 392.046 C 258.800 391.851,259.787 391.569,260.994 391.418 C 262.200 391.267,263.291 390.977,263.417 390.772 C 263.544 390.567,264.076 390.400,264.600 390.400 C 265.124 390.400,265.664 390.220,265.800 390.000 C 265.936 389.780,266.399 389.600,266.829 389.600 C 267.259 389.600,267.923 389.441,268.305 389.247 C 268.687 389.052,269.540 388.671,270.200 388.400 C 270.860 388.129,271.713 387.748,272.095 387.553 C 272.477 387.359,273.152 387.200,273.595 387.200 C 274.038 387.200,274.400 387.020,274.400 386.800 C 274.400 386.580,274.760 386.400,275.200 386.400 C 275.640 386.400,276.000 386.220,276.000 386.000 C 276.000 385.780,276.540 385.600,277.200 385.600 C 277.860 385.600,278.400 385.420,278.400 385.200 C 278.400 384.980,278.760 384.800,279.200 384.800 C 279.640 384.800,280.000 384.620,280.000 384.400 C 280.000 384.180,280.360 384.000,280.800 384.000 C 281.240 384.000,281.600 383.820,281.600 383.600 C 281.600 383.380,281.949 383.200,282.376 383.200 C 282.803 383.200,283.264 383.020,283.400 382.800 C 283.536 382.580,284.087 382.400,284.624 382.400 C 285.161 382.400,285.600 382.220,285.600 382.000 C 285.600 381.780,285.960 381.600,286.400 381.600 C 286.840 381.600,287.200 381.420,287.200 381.200 C 287.200 380.980,287.560 380.800,288.000 380.800 C 288.440 380.800,288.800 380.654,288.800 380.475 C 288.800 380.296,289.430 379.902,290.200 379.600 C 290.970 379.298,291.600 378.904,291.600 378.725 C 291.600 378.546,291.960 378.400,292.400 378.400 C 292.840 378.400,293.200 378.220,293.200 378.000 C 293.200 377.780,293.560 377.600,294.000 377.600 C 294.440 377.600,294.800 377.420,294.800 377.200 C 294.800 376.980,295.120 376.800,295.512 376.800 C 295.903 376.800,296.483 376.440,296.800 376.000 C 297.117 375.560,297.628 375.200,297.934 375.200 C 298.585 375.200,302.537 373.141,302.733 372.700 C 302.807 372.535,303.129 372.400,303.450 372.400 C 303.771 372.400,304.389 372.069,304.823 371.664 C 305.258 371.259,306.105 370.675,306.707 370.367 C 307.308 370.058,308.091 369.489,308.447 369.103 C 308.803 368.716,309.348 368.400,309.659 368.400 C 309.969 368.400,310.483 368.040,310.800 367.600 C 311.117 367.160,311.657 366.800,312.000 366.800 C 312.343 366.800,312.883 366.440,313.200 366.000 C 313.517 365.560,314.057 365.200,314.400 365.200 C 314.743 365.200,315.283 364.840,315.600 364.400 C 315.917 363.960,316.380 363.600,316.629 363.600 C 316.878 363.600,317.646 363.060,318.337 362.400 C 319.028 361.740,319.792 361.200,320.036 361.200 C 320.280 361.200,320.983 360.660,321.600 360.000 C 322.217 359.340,322.934 358.800,323.194 358.800 C 323.454 358.800,324.279 358.170,325.026 357.400 C 325.774 356.630,326.542 356.000,326.732 356.000 C 326.922 356.000,328.213 354.920,329.600 353.600 C 330.987 352.280,332.280 351.200,332.474 351.200 C 332.667 351.200,334.806 349.175,337.226 346.700 C 342.510 341.297,341.297 342.510,346.700 337.226 C 349.175 334.806,351.200 332.667,351.200 332.474 C 351.200 332.280,352.280 330.987,353.600 329.600 C 354.920 328.213,356.000 326.922,356.000 326.732 C 356.000 326.542,356.630 325.774,357.400 325.026 C 358.170 324.279,358.800 323.454,358.800 323.194 C 358.800 322.934,359.340 322.217,360.000 321.600 C 360.660 320.983,361.200 320.280,361.200 320.036 C 361.200 319.792,361.740 319.028,362.400 318.337 C 363.060 317.646,363.600 316.878,363.600 316.629 C 363.600 316.380,363.960 315.917,364.400 315.600 C 364.840 315.283,365.200 314.743,365.200 314.400 C 365.200 314.057,365.560 313.517,366.000 313.200 C 366.440 312.883,366.800 312.343,366.800 312.000 C 366.800 311.657,367.160 311.117,367.600 310.800 C 368.040 310.483,368.400 309.943,368.400 309.600 C 368.400 309.257,368.760 308.717,369.200 308.400 C 369.640 308.083,370.000 307.671,370.000 307.484 C 370.000 307.297,370.540 306.359,371.200 305.400 C 371.860 304.441,372.400 303.463,372.400 303.228 C 372.400 302.993,372.580 302.800,372.800 302.800 C 373.020 302.800,373.200 302.603,373.200 302.362 C 373.200 302.121,373.548 301.435,373.973 300.837 C 374.399 300.240,374.878 299.222,375.037 298.576 C 375.197 297.929,375.659 297.109,376.064 296.753 C 376.469 296.397,376.800 295.812,376.800 295.453 C 376.800 295.094,376.980 294.800,377.200 294.800 C 377.420 294.800,377.600 294.440,377.600 294.000 C 377.600 293.560,377.780 293.200,378.000 293.200 C 378.220 293.200,378.400 292.840,378.400 292.400 C 378.400 291.960,378.546 291.600,378.725 291.600 C 378.904 291.600,379.298 290.970,379.600 290.200 C 379.902 289.430,380.296 288.800,380.475 288.800 C 380.654 288.800,380.800 288.440,380.800 288.000 C 380.800 287.560,380.980 287.200,381.200 287.200 C 381.420 287.200,381.600 286.840,381.600 286.400 C 381.600 285.960,381.780 285.600,382.000 285.600 C 382.220 285.600,382.400 285.251,382.400 284.824 C 382.400 284.397,382.580 283.936,382.800 283.800 C 383.020 283.664,383.200 283.113,383.200 282.576 C 383.200 282.039,383.380 281.600,383.600 281.600 C 383.820 281.600,384.000 281.240,384.000 280.800 C 384.000 280.360,384.180 280.000,384.400 280.000 C 384.620 280.000,384.800 279.640,384.800 279.200 C 384.800 278.760,384.980 278.400,385.200 278.400 C 385.420 278.400,385.600 277.860,385.600 277.200 C 385.600 276.540,385.780 276.000,386.000 276.000 C 386.220 276.000,386.400 275.640,386.400 275.200 C 386.400 274.760,386.580 274.400,386.800 274.400 C 387.020 274.400,387.200 274.038,387.200 273.595 C 387.200 273.152,387.359 272.477,387.553 272.095 C 388.426 270.380,389.350 267.953,390.026 265.600 C 390.311 264.610,390.680 263.616,390.846 263.390 C 391.013 263.165,391.273 262.040,391.426 260.890 C 391.578 259.741,391.860 258.800,392.052 258.800 C 392.243 258.800,392.400 258.170,392.400 257.400 C 392.400 256.630,392.580 256.000,392.800 256.000 C 393.020 256.000,393.200 255.460,393.200 254.800 C 393.200 254.140,393.380 253.600,393.600 253.600 C 393.820 253.600,394.000 252.880,394.000 252.000 C 394.000 251.120,394.180 250.400,394.400 250.400 C 394.620 250.400,394.800 249.680,394.800 248.800 C 394.800 247.920,394.980 247.200,395.200 247.200 C 395.420 247.200,395.600 246.480,395.600 245.600 C 395.600 244.720,395.780 244.000,396.000 244.000 C 396.220 244.000,396.400 243.100,396.400 242.000 C 396.400 240.900,396.580 240.000,396.800 240.000 C 397.020 240.000,397.200 239.100,397.200 238.000 C 397.200 236.900,397.380 236.000,397.600 236.000 C 397.822 236.000,398.000 234.941,398.000 233.624 C 398.000 232.317,398.180 231.136,398.400 231.000 C 398.620 230.864,398.800 229.518,398.800 228.010 C 398.800 226.401,398.979 225.207,399.232 225.123 C 399.523 225.026,399.739 220.886,399.894 212.489 L 400.123 200.000 299.962 200.066 L 199.800 200.132 129.021 271.047 " stroke="none" fill="#dc0424" fill-rule="evenodd"></path><path id="path2" d="M178.300 0.275 C 176.375 0.361,174.800 0.604,174.800 0.816 C 174.800 1.027,173.461 1.200,171.824 1.200 C 170.187 1.200,168.736 1.380,168.600 1.600 C 168.464 1.820,167.463 2.000,166.376 2.000 C 165.289 2.000,164.400 2.180,164.400 2.400 C 164.400 2.620,163.410 2.800,162.200 2.800 C 160.990 2.800,160.000 2.980,160.000 3.200 C 160.000 3.420,159.201 3.600,158.224 3.600 C 157.247 3.600,156.336 3.780,156.200 4.000 C 156.064 4.220,155.243 4.400,154.376 4.400 C 153.509 4.400,152.800 4.580,152.800 4.800 C 152.800 5.020,152.080 5.200,151.200 5.200 C 150.320 5.200,149.600 5.380,149.600 5.600 C 149.600 5.820,149.071 6.000,148.424 6.000 C 147.777 6.000,147.136 6.180,147.000 6.400 C 146.864 6.620,146.234 6.800,145.600 6.800 C 144.966 6.800,144.336 6.980,144.200 7.200 C 144.064 7.420,143.333 7.600,142.576 7.600 C 141.819 7.600,141.200 7.780,141.200 8.000 C 141.200 8.220,140.771 8.400,140.246 8.400 C 139.355 8.400,136.018 9.285,134.200 10.003 C 133.760 10.177,132.770 10.536,132.000 10.800 C 130.307 11.382,128.840 11.971,127.905 12.447 C 127.523 12.641,126.848 12.800,126.405 12.800 C 125.962 12.800,125.600 12.980,125.600 13.200 C 125.600 13.420,125.240 13.600,124.800 13.600 C 124.360 13.600,124.000 13.780,124.000 14.000 C 124.000 14.220,123.561 14.400,123.024 14.400 C 122.487 14.400,121.936 14.580,121.800 14.800 C 121.664 15.020,121.203 15.200,120.776 15.200 C 120.349 15.200,120.000 15.380,120.000 15.600 C 120.000 15.820,119.640 16.000,119.200 16.000 C 118.760 16.000,118.400 16.180,118.400 16.400 C 118.400 16.620,118.128 16.800,117.795 16.800 C 117.462 16.800,116.877 16.967,116.495 17.172 C 116.113 17.376,114.180 18.319,112.200 19.267 C 110.220 20.215,108.540 21.128,108.467 21.295 C 108.393 21.463,107.988 21.600,107.567 21.600 C 107.145 21.600,106.800 21.780,106.800 22.000 C 106.800 22.220,106.440 22.400,106.000 22.400 C 105.560 22.400,105.200 22.580,105.200 22.800 C 105.200 23.020,104.880 23.200,104.488 23.200 C 104.097 23.200,103.517 23.560,103.200 24.000 C 102.883 24.440,102.372 24.800,102.066 24.800 C 101.415 24.800,97.463 26.859,97.267 27.300 C 97.193 27.465,96.956 27.600,96.739 27.600 C 96.522 27.600,95.559 28.140,94.600 28.800 C 93.641 29.460,92.703 30.000,92.516 30.000 C 92.329 30.000,91.917 30.360,91.600 30.800 C 91.283 31.240,90.743 31.600,90.400 31.600 C 90.057 31.600,89.517 31.960,89.200 32.400 C 88.883 32.840,88.343 33.200,88.000 33.200 C 87.657 33.200,87.117 33.560,86.800 34.000 C 86.483 34.440,85.991 34.800,85.708 34.800 C 85.425 34.800,84.628 35.340,83.937 36.000 C 83.246 36.660,82.478 37.200,82.229 37.200 C 81.980 37.200,81.517 37.560,81.200 38.000 C 80.883 38.440,80.375 38.800,80.072 38.800 C 79.769 38.800,79.017 39.340,78.400 40.000 C 77.783 40.660,77.147 41.200,76.986 41.200 C 76.826 41.200,76.358 41.588,75.947 42.061 C 75.536 42.535,75.200 42.797,75.200 42.643 C 75.200 42.489,74.742 42.822,74.182 43.382 C 73.622 43.942,73.012 44.400,72.827 44.400 C 72.641 44.400,71.704 45.169,70.745 46.110 C 69.785 47.050,68.370 48.262,67.600 48.803 C 66.035 49.902,58.400 57.466,58.400 57.916 C 58.400 58.075,90.305 90.109,129.300 129.102 L 200.200 199.999 300.162 200.000 L 400.123 200.000 399.894 187.511 C 399.739 179.114,399.523 174.974,399.232 174.877 C 398.979 174.793,398.800 173.599,398.800 171.990 C 398.800 170.482,398.620 169.136,398.400 169.000 C 398.180 168.864,398.000 167.784,398.000 166.600 C 398.000 165.416,397.820 164.336,397.600 164.200 C 397.380 164.064,397.200 163.063,397.200 161.976 C 397.200 160.889,397.020 160.000,396.800 160.000 C 396.580 160.000,396.400 159.201,396.400 158.224 C 396.400 157.247,396.220 156.336,396.000 156.200 C 395.780 156.064,395.600 155.243,395.600 154.376 C 395.600 153.509,395.420 152.800,395.200 152.800 C 394.980 152.800,394.800 152.181,394.800 151.424 C 394.800 150.667,394.620 149.936,394.400 149.800 C 394.180 149.664,394.000 148.944,394.000 148.200 C 394.000 147.456,393.820 146.736,393.600 146.600 C 393.380 146.464,393.200 145.823,393.200 145.176 C 393.200 144.529,393.020 144.000,392.800 144.000 C 392.580 144.000,392.400 143.370,392.400 142.600 C 392.400 141.830,392.241 141.200,392.046 141.200 C 391.851 141.200,391.569 140.213,391.418 139.006 C 391.267 137.800,390.977 136.709,390.772 136.583 C 390.567 136.456,390.400 135.949,390.400 135.456 C 390.400 134.963,390.257 134.389,390.082 134.180 C 389.907 133.971,389.535 133.080,389.255 132.200 C 388.976 131.320,388.555 130.150,388.320 129.600 C 388.085 129.050,387.716 128.150,387.500 127.600 C 387.284 127.050,386.948 126.287,386.753 125.905 C 386.559 125.523,386.400 124.938,386.400 124.605 C 386.400 124.272,386.220 124.000,386.000 124.000 C 385.780 124.000,385.600 123.561,385.600 123.024 C 385.600 122.487,385.420 121.936,385.200 121.800 C 384.980 121.664,384.800 121.203,384.800 120.776 C 384.800 120.349,384.620 120.000,384.400 120.000 C 384.180 120.000,384.000 119.640,384.000 119.200 C 384.000 118.760,383.820 118.400,383.600 118.400 C 383.380 118.400,383.200 118.040,383.200 117.600 C 383.200 117.160,383.020 116.800,382.800 116.800 C 382.580 116.800,382.401 116.485,382.403 116.100 C 382.407 115.325,379.186 108.678,378.704 108.467 C 378.537 108.393,378.400 107.988,378.400 107.567 C 378.400 107.145,378.220 106.800,378.000 106.800 C 377.780 106.800,377.600 106.440,377.600 106.000 C 377.600 105.560,377.420 105.200,377.200 105.200 C 376.980 105.200,376.800 104.964,376.800 104.675 C 376.800 104.387,376.469 103.796,376.065 103.362 C 375.661 102.928,375.199 102.050,375.039 101.411 C 374.878 100.772,374.399 99.760,373.973 99.163 C 373.548 98.565,373.200 97.879,373.200 97.638 C 373.200 97.397,373.020 97.200,372.800 97.200 C 372.580 97.200,372.400 97.007,372.400 96.772 C 372.400 96.537,371.860 95.559,371.200 94.600 C 370.540 93.641,370.000 92.703,370.000 92.516 C 370.000 92.329,369.640 91.917,369.200 91.600 C 368.760 91.283,368.400 90.743,368.400 90.400 C 368.400 90.057,368.040 89.517,367.600 89.200 C 367.160 88.883,366.800 88.343,366.800 88.000 C 366.800 87.657,366.440 87.117,366.000 86.800 C 365.560 86.483,365.200 85.943,365.200 85.600 C 365.200 85.257,364.840 84.717,364.400 84.400 C 363.960 84.083,363.600 83.620,363.600 83.371 C 363.600 83.122,363.060 82.354,362.400 81.663 C 361.740 80.972,361.200 80.208,361.200 79.964 C 361.200 79.720,360.660 79.017,360.000 78.400 C 359.340 77.783,358.800 77.126,358.800 76.939 C 358.800 76.753,358.080 75.812,357.200 74.849 C 356.320 73.887,355.600 72.946,355.600 72.760 C 355.600 72.574,354.833 71.651,353.895 70.711 C 352.957 69.770,351.745 68.370,351.201 67.600 C 350.658 66.830,348.410 64.439,346.207 62.287 C 341.389 57.582,342.418 58.611,337.713 53.793 C 335.561 51.590,333.172 49.342,332.405 48.799 C 331.638 48.255,330.135 46.953,329.065 45.905 C 327.995 44.857,326.949 44.000,326.741 44.000 C 326.534 44.000,325.930 43.595,325.401 43.100 C 323.937 41.731,323.260 41.200,322.977 41.200 C 322.836 41.200,322.217 40.660,321.600 40.000 C 320.983 39.340,320.280 38.800,320.036 38.800 C 319.792 38.800,319.028 38.260,318.337 37.600 C 317.646 36.940,316.878 36.400,316.629 36.400 C 316.380 36.400,315.917 36.040,315.600 35.600 C 315.283 35.160,314.743 34.800,314.400 34.800 C 314.057 34.800,313.517 34.440,313.200 34.000 C 312.883 33.560,312.343 33.200,312.000 33.200 C 311.657 33.200,311.117 32.840,310.800 32.400 C 310.483 31.960,309.943 31.600,309.600 31.600 C 309.257 31.600,308.717 31.240,308.400 30.800 C 308.083 30.360,307.671 30.000,307.484 30.000 C 307.297 30.000,306.359 29.460,305.400 28.800 C 304.441 28.140,303.478 27.600,303.261 27.600 C 303.044 27.600,302.807 27.465,302.733 27.300 C 302.553 26.895,298.611 24.800,298.029 24.800 C 297.775 24.800,297.180 24.440,296.708 24.000 C 296.236 23.560,295.613 23.200,295.325 23.200 C 295.036 23.200,294.800 23.020,294.800 22.800 C 294.800 22.580,294.440 22.400,294.000 22.400 C 293.560 22.400,293.200 22.220,293.200 22.000 C 293.200 21.780,292.840 21.600,292.400 21.600 C 291.960 21.600,291.599 21.465,291.599 21.300 C 291.598 21.135,290.608 20.550,289.400 20.000 C 288.192 19.450,287.202 18.865,287.201 18.700 C 287.201 18.535,286.928 18.400,286.595 18.400 C 286.007 18.400,285.582 18.233,283.705 17.262 C 283.213 17.008,282.538 16.800,282.205 16.800 C 281.872 16.800,281.600 16.620,281.600 16.400 C 281.600 16.180,281.240 16.000,280.800 16.000 C 280.360 16.000,280.000 15.820,280.000 15.600 C 280.000 15.380,279.640 15.200,279.200 15.200 C 278.760 15.200,278.400 15.020,278.400 14.800 C 278.400 14.580,277.860 14.400,277.200 14.400 C 276.540 14.400,276.000 14.220,276.000 14.000 C 276.000 13.780,275.640 13.600,275.200 13.600 C 274.760 13.600,274.400 13.420,274.400 13.200 C 274.400 12.980,273.961 12.800,273.424 12.800 C 272.887 12.800,272.336 12.620,272.200 12.400 C 272.064 12.180,271.685 12.000,271.357 12.000 C 271.029 12.000,270.016 11.640,269.106 11.200 C 268.195 10.760,267.211 10.400,266.919 10.400 C 266.628 10.400,266.077 10.237,265.695 10.037 C 264.553 9.440,260.778 8.400,259.754 8.400 C 259.229 8.400,258.800 8.220,258.800 8.000 C 258.800 7.780,258.170 7.600,257.400 7.600 C 256.630 7.600,256.000 7.420,256.000 7.200 C 256.000 6.980,255.471 6.800,254.824 6.800 C 254.177 6.800,253.536 6.620,253.400 6.400 C 253.264 6.180,252.533 6.000,251.776 6.000 C 251.019 6.000,250.400 5.820,250.400 5.600 C 250.400 5.380,249.680 5.200,248.800 5.200 C 247.920 5.200,247.200 5.020,247.200 4.800 C 247.200 4.580,246.491 4.400,245.624 4.400 C 244.757 4.400,243.936 4.220,243.800 4.000 C 243.664 3.780,242.753 3.600,241.776 3.600 C 240.799 3.600,240.000 3.420,240.000 3.200 C 240.000 2.980,239.100 2.800,238.000 2.800 C 236.900 2.800,236.000 2.620,236.000 2.400 C 236.000 2.178,234.941 2.000,233.624 2.000 C 232.317 2.000,231.136 1.820,231.000 1.600 C 230.864 1.380,229.518 1.200,228.010 1.200 C 226.193 1.200,225.211 1.034,225.103 0.708 C 224.941 0.222,187.291 -0.126,178.300 0.275 M3.812 156.517 C 3.641 156.912,3.613 157.347,3.751 157.484 C 4.157 157.890,4.484 157.320,4.297 156.531 C 4.132 155.833,4.110 155.832,3.812 156.517 M2.000 164.776 C 2.000 165.203,2.180 165.664,2.400 165.800 C 2.627 165.940,2.800 165.604,2.800 165.024 C 2.800 164.461,2.620 164.000,2.400 164.000 C 2.180 164.000,2.000 164.349,2.000 164.776 M1.412 169.317 C 1.241 169.712,1.213 170.147,1.351 170.284 C 1.757 170.690,2.084 170.120,1.897 169.331 C 1.732 168.633,1.710 168.632,1.412 169.317 M0.619 174.900 C 0.452 175.285,0.452 175.915,0.619 176.300 C 0.909 176.967,0.932 176.967,1.091 176.300 C 1.374 175.119,1.003 174.019,0.619 174.900 M0.101 183.400 C 0.105 184.280,0.187 184.593,0.283 184.095 C 0.379 183.598,0.375 182.878,0.275 182.495 C 0.175 182.113,0.096 182.520,0.101 183.400 M0.109 216.800 C 0.109 217.790,0.187 218.195,0.282 217.700 C 0.378 217.205,0.378 216.395,0.282 215.900 C 0.187 215.405,0.109 215.810,0.109 216.800 M0.667 223.467 C 0.252 223.882,0.353 225.200,0.800 225.200 C 1.020 225.200,1.200 224.750,1.200 224.200 C 1.200 223.153,1.108 223.026,0.667 223.467 M1.200 230.153 C 1.200 230.483,1.380 230.864,1.600 231.000 C 1.820 231.136,2.000 230.977,2.000 230.647 C 2.000 230.317,1.820 229.936,1.600 229.800 C 1.380 229.664,1.200 229.823,1.200 230.153 M2.000 235.000 C 2.000 235.550,2.180 236.000,2.400 236.000 C 2.620 236.000,2.800 235.550,2.800 235.000 C 2.800 234.450,2.620 234.000,2.400 234.000 C 2.180 234.000,2.000 234.450,2.000 235.000 M3.600 242.976 C 3.600 243.293,3.780 243.664,4.000 243.800 C 4.220 243.936,4.400 243.677,4.400 243.224 C 4.400 242.771,4.220 242.400,4.000 242.400 C 3.780 242.400,3.600 242.659,3.600 242.976 " stroke="none" fill="#f4f4f4" fill-rule="evenodd"></path></g></svg>