<svg id="svg" version="1.1" xmlns="http://www.w3.org/2000/svg" xmlns:xlink="http://www.w3.org/1999/xlink" width="400" height="400" viewBox="0, 0, 400,400"><g id="svgg"><path id="path0" d="M9.873 134.800 C 9.056 137.330,8.391 139.794,8.394 140.276 C 8.397 140.758,8.220 141.264,8.000 141.400 C 7.780 141.536,7.600 142.177,7.600 142.824 C 7.600 143.471,7.420 144.000,7.200 144.000 C 6.980 144.000,6.800 144.529,6.800 145.176 C 6.800 145.823,6.620 146.464,6.400 146.600 C 6.180 146.736,6.000 147.567,6.000 148.447 C 6.000 149.412,5.841 149.949,5.600 149.800 C 5.358 149.651,5.200 150.196,5.200 151.176 C 5.200 152.069,5.020 152.800,4.800 152.800 C 4.580 152.800,4.400 153.599,4.400 154.576 C 4.400 155.553,4.220 156.464,4.000 156.600 C 3.780 156.736,3.600 157.546,3.600 158.400 C 3.600 159.254,3.420 160.064,3.200 160.200 C 2.980 160.336,2.800 161.236,2.800 162.200 C 2.800 163.164,2.620 164.064,2.400 164.200 C 2.180 164.336,2.000 165.517,2.000 166.824 C 2.000 168.141,1.822 169.200,1.600 169.200 C 1.373 169.200,1.200 170.373,1.200 171.920 C 1.200 173.563,1.002 174.838,0.700 175.140 C -0.029 175.869,-0.029 224.131,0.700 224.860 C 1.002 225.162,1.200 226.437,1.200 228.080 C 1.200 229.627,1.373 230.800,1.600 230.800 C 1.822 230.800,2.000 231.859,2.000 233.176 C 2.000 234.483,2.180 235.664,2.400 235.800 C 2.620 235.936,2.800 236.847,2.800 237.824 C 2.800 238.801,2.980 239.600,3.200 239.600 C 3.420 239.600,3.600 240.399,3.600 241.376 C 3.600 242.353,3.780 243.264,4.000 243.400 C 4.220 243.536,4.400 244.447,4.400 245.424 C 4.400 246.401,4.580 247.200,4.800 247.200 C 5.020 247.200,5.200 247.920,5.200 248.800 C 5.200 249.680,5.380 250.400,5.600 250.400 C 5.820 250.400,6.000 251.019,6.000 251.776 C 6.000 252.533,6.180 253.264,6.400 253.400 C 6.620 253.536,6.800 254.177,6.800 254.824 C 6.800 255.471,6.980 256.000,7.200 256.000 C 7.420 256.000,7.600 256.529,7.600 257.176 C 7.600 257.823,7.780 258.464,8.000 258.600 C 8.220 258.736,8.400 259.284,8.400 259.818 C 8.400 260.591,9.654 264.791,11.432 269.967 C 11.580 270.399,11.737 270.423,12.093 270.067 C 12.799 269.361,387.856 269.394,388.120 270.100 C 388.344 270.700,388.298 270.813,390.182 265.094 C 390.962 262.726,391.600 260.351,391.600 259.818 C 391.600 259.284,391.780 258.736,392.000 258.600 C 392.220 258.464,392.400 257.823,392.400 257.176 C 392.400 256.529,392.580 256.000,392.800 256.000 C 393.020 256.000,393.200 255.370,393.200 254.600 C 393.200 253.830,393.380 253.200,393.600 253.200 C 393.820 253.200,394.000 252.570,394.000 251.800 C 394.000 251.030,394.180 250.400,394.400 250.400 C 394.620 250.400,394.800 249.691,394.800 248.824 C 394.800 247.957,394.980 247.136,395.200 247.000 C 395.420 246.864,395.600 245.953,395.600 244.976 C 395.600 243.999,395.780 243.200,396.000 243.200 C 396.220 243.200,396.400 242.390,396.400 241.400 C 396.400 240.410,396.580 239.600,396.800 239.600 C 397.020 239.600,397.200 238.801,397.200 237.824 C 397.200 236.847,397.380 235.936,397.600 235.800 C 397.820 235.664,398.000 234.483,398.000 233.176 C 398.000 231.859,398.178 230.800,398.400 230.800 C 398.629 230.800,398.800 229.600,398.800 228.000 C 398.800 226.460,398.956 225.200,399.146 225.200 C 399.994 225.200,400.146 175.986,399.300 175.140 C 398.998 174.838,398.800 173.563,398.800 171.920 C 398.800 170.373,398.627 169.200,398.400 169.200 C 398.178 169.200,398.000 168.141,398.000 166.824 C 398.000 165.517,397.820 164.336,397.600 164.200 C 397.380 164.064,397.200 163.164,397.200 162.200 C 397.200 161.236,397.020 160.336,396.800 160.200 C 396.580 160.064,396.400 159.254,396.400 158.400 C 396.400 157.546,396.220 156.736,396.000 156.600 C 395.780 156.464,395.600 155.654,395.600 154.800 C 395.600 153.946,395.420 153.136,395.200 153.000 C 394.980 152.864,394.800 152.043,394.800 151.176 C 394.800 150.309,394.620 149.600,394.400 149.600 C 394.180 149.600,394.000 148.981,394.000 148.224 C 394.000 147.467,393.820 146.736,393.600 146.600 C 393.380 146.464,393.200 145.823,393.200 145.176 C 393.200 144.529,393.020 144.000,392.800 144.000 C 392.580 144.000,392.400 143.471,392.400 142.824 C 392.400 142.177,392.220 141.536,392.000 141.400 C 391.780 141.264,391.603 140.758,391.606 140.276 C 391.609 139.794,390.944 137.330,390.127 134.800 L 388.643 130.200 200.000 130.200 L 11.357 130.200 9.873 134.800 " stroke="none" fill="#dc0424" fill-rule="evenodd"></path><path id="path1" d="M12.267 269.867 C 11.848 270.285,11.955 272.000,12.400 272.000 C 12.620 272.000,12.800 272.439,12.800 272.976 C 12.800 273.513,12.980 274.064,13.200 274.200 C 13.420 274.336,13.600 274.797,13.600 275.224 C 13.600 275.651,13.780 276.000,14.000 276.000 C 14.220 276.000,14.400 276.349,14.400 276.776 C 14.400 277.203,14.580 277.664,14.800 277.800 C 15.020 277.936,15.200 278.487,15.200 279.024 C 15.200 279.561,15.380 280.000,15.600 280.000 C 15.820 280.000,16.000 280.360,16.000 280.800 C 16.000 281.240,16.180 281.600,16.400 281.600 C 16.620 281.600,16.800 281.872,16.800 282.205 C 16.800 282.538,16.968 283.123,17.174 283.505 C 17.379 283.887,17.783 284.785,18.071 285.500 C 18.360 286.215,18.731 286.800,18.898 286.800 C 19.064 286.800,19.200 287.160,19.200 287.600 C 19.200 288.040,19.380 288.400,19.600 288.400 C 19.820 288.400,20.000 288.760,20.000 289.200 C 20.000 289.640,20.180 290.000,20.400 290.000 C 20.620 290.000,20.800 290.360,20.800 290.800 C 20.800 291.240,20.980 291.600,21.200 291.600 C 21.420 291.600,21.600 291.945,21.600 292.367 C 21.600 292.788,21.735 293.193,21.900 293.267 C 22.276 293.434,23.575 295.564,23.871 296.500 C 23.993 296.885,24.252 297.200,24.447 297.200 C 24.641 297.200,24.800 297.491,24.800 297.846 C 24.800 298.562,26.826 302.523,27.300 302.733 C 27.465 302.807,27.600 303.023,27.600 303.213 C 27.600 303.404,28.140 304.360,28.800 305.338 C 29.460 306.316,30.000 307.275,30.000 307.470 C 30.000 307.664,30.360 308.083,30.800 308.400 C 31.240 308.717,31.600 309.257,31.600 309.600 C 31.600 309.943,31.960 310.483,32.400 310.800 C 32.840 311.117,33.200 311.657,33.200 312.000 C 33.200 312.343,33.560 312.883,34.000 313.200 C 34.440 313.517,34.800 314.057,34.800 314.400 C 34.800 314.743,35.160 315.283,35.600 315.600 C 36.040 315.917,36.400 316.380,36.400 316.629 C 36.400 316.878,36.940 317.646,37.600 318.337 C 38.260 319.028,38.800 319.774,38.800 319.996 C 38.800 320.218,38.980 320.400,39.200 320.400 C 39.420 320.400,39.600 320.604,39.600 320.853 C 39.600 321.102,39.917 321.597,40.304 321.953 C 40.692 322.309,41.541 323.320,42.192 324.200 C 42.843 325.080,43.696 326.149,44.088 326.575 C 44.480 327.002,44.800 327.511,44.800 327.707 C 44.800 327.903,45.481 328.724,46.313 329.531 C 47.145 330.339,48.267 331.630,48.806 332.400 C 49.346 333.170,51.590 335.561,53.793 337.713 C 55.997 339.865,57.927 341.755,58.083 341.913 C 58.238 342.071,60.054 343.924,62.118 346.031 C 64.183 348.138,66.569 350.388,67.421 351.031 C 68.273 351.674,69.774 352.965,70.757 353.900 C 71.739 354.835,72.668 355.600,72.821 355.600 C 72.974 355.600,73.787 356.230,74.628 357.000 C 75.469 357.770,76.279 358.400,76.428 358.400 C 76.577 358.400,77.387 359.030,78.228 359.800 C 79.069 360.570,79.909 361.200,80.096 361.200 C 80.283 361.200,80.886 361.650,81.436 362.200 C 81.986 362.750,82.600 363.200,82.800 363.200 C 83.000 363.200,83.614 363.650,84.164 364.200 C 84.714 364.750,85.402 365.200,85.694 365.200 C 85.985 365.200,86.483 365.560,86.800 366.000 C 87.117 366.440,87.657 366.800,88.000 366.800 C 88.343 366.800,88.883 367.160,89.200 367.600 C 89.517 368.040,90.057 368.400,90.400 368.400 C 90.743 368.400,91.283 368.760,91.600 369.200 C 91.917 369.640,92.336 370.000,92.530 370.000 C 92.725 370.000,93.684 370.540,94.662 371.200 C 95.640 371.860,96.596 372.400,96.787 372.400 C 96.977 372.400,97.193 372.535,97.267 372.700 C 97.477 373.174,101.438 375.200,102.154 375.200 C 102.509 375.200,102.801 375.335,102.803 375.500 C 102.805 375.665,103.210 375.998,103.703 376.240 C 106.111 377.422,108.213 378.630,108.333 378.900 C 108.407 379.065,108.812 379.200,109.233 379.200 C 109.655 379.200,110.000 379.336,110.000 379.502 C 110.000 379.669,110.585 380.054,111.300 380.358 C 112.015 380.662,113.677 381.426,114.994 382.055 C 116.311 382.685,117.616 383.200,117.894 383.200 C 118.172 383.200,118.400 383.380,118.400 383.600 C 118.400 383.820,118.760 384.000,119.200 384.000 C 119.640 384.000,120.000 384.180,120.000 384.400 C 120.000 384.620,120.439 384.800,120.976 384.800 C 121.513 384.800,122.064 384.980,122.200 385.200 C 122.336 385.420,122.797 385.600,123.224 385.600 C 123.651 385.600,124.000 385.747,124.000 385.928 C 124.000 386.108,124.900 386.500,126.000 386.800 C 127.100 387.100,128.000 387.492,128.000 387.672 C 128.000 387.853,128.272 388.000,128.605 388.000 C 128.938 388.000,129.523 388.177,129.905 388.392 C 131.140 389.090,139.182 391.600,140.182 391.600 C 140.716 391.600,141.264 391.780,141.400 392.000 C 141.536 392.220,142.166 392.400,142.800 392.400 C 143.434 392.400,144.064 392.580,144.200 392.800 C 144.336 393.020,144.977 393.200,145.624 393.200 C 146.271 393.200,146.800 393.380,146.800 393.600 C 146.800 393.820,147.430 394.000,148.200 394.000 C 148.970 394.000,149.600 394.180,149.600 394.400 C 149.600 394.620,150.320 394.800,151.200 394.800 C 152.080 394.800,152.800 394.980,152.800 395.200 C 152.800 395.420,153.700 395.600,154.800 395.600 C 155.900 395.600,156.800 395.780,156.800 396.000 C 156.800 396.220,157.520 396.400,158.400 396.400 C 159.280 396.400,160.000 396.580,160.000 396.800 C 160.000 397.020,160.990 397.200,162.200 397.200 C 163.410 397.200,164.400 397.380,164.400 397.600 C 164.400 397.822,165.467 398.000,166.800 398.000 C 168.133 398.000,169.200 398.178,169.200 398.400 C 169.200 398.628,170.389 398.800,171.967 398.800 C 173.824 398.800,174.788 398.964,174.900 399.300 C 175.031 399.693,180.409 399.800,200.000 399.800 C 219.591 399.800,224.969 399.693,225.100 399.300 C 225.212 398.965,226.171 398.800,228.010 398.800 C 229.518 398.800,230.864 398.620,231.000 398.400 C 231.136 398.180,232.227 398.000,233.424 398.000 C 234.621 398.000,235.600 397.820,235.600 397.600 C 235.600 397.380,236.590 397.200,237.800 397.200 C 239.010 397.200,240.000 397.020,240.000 396.800 C 240.000 396.580,240.709 396.400,241.576 396.400 C 242.443 396.400,243.264 396.220,243.400 396.000 C 243.536 395.780,244.447 395.600,245.424 395.600 C 246.401 395.600,247.200 395.420,247.200 395.200 C 247.200 394.980,247.920 394.800,248.800 394.800 C 249.680 394.800,250.400 394.620,250.400 394.400 C 250.400 394.180,251.030 394.000,251.800 394.000 C 252.570 394.000,253.200 393.820,253.200 393.600 C 253.200 393.380,253.830 393.200,254.600 393.200 C 255.370 393.200,256.000 393.020,256.000 392.800 C 256.000 392.580,256.630 392.400,257.400 392.400 C 258.170 392.400,258.800 392.220,258.800 392.000 C 258.800 391.780,259.247 391.600,259.794 391.600 C 260.650 391.600,267.838 389.416,270.200 388.438 C 272.755 387.380,273.469 387.072,274.095 386.753 C 274.477 386.559,275.062 386.400,275.395 386.400 C 275.728 386.400,276.000 386.253,276.000 386.072 C 276.000 385.892,276.900 385.500,278.000 385.200 C 279.100 384.900,280.000 384.508,280.000 384.328 C 280.000 384.147,280.360 384.000,280.800 384.000 C 281.240 384.000,281.600 383.820,281.600 383.600 C 281.600 383.380,281.949 383.200,282.376 383.200 C 282.803 383.200,283.264 383.020,283.400 382.800 C 283.536 382.580,283.997 382.400,284.424 382.400 C 284.851 382.400,285.200 382.220,285.200 382.000 C 285.200 381.780,285.445 381.600,285.744 381.600 C 286.401 381.600,291.345 379.124,291.533 378.700 C 291.607 378.535,291.997 378.400,292.400 378.400 C 292.803 378.400,293.193 378.265,293.267 378.100 C 293.340 377.935,294.255 377.367,295.300 376.837 C 296.345 376.308,297.200 375.723,297.200 375.537 C 297.200 375.352,297.491 375.200,297.846 375.200 C 298.562 375.200,302.523 373.174,302.733 372.700 C 302.807 372.535,303.039 372.400,303.250 372.400 C 303.698 372.400,306.139 370.738,306.333 370.300 C 306.407 370.135,306.772 370.000,307.145 370.000 C 307.518 370.000,308.083 369.640,308.400 369.200 C 308.717 368.760,309.231 368.400,309.541 368.400 C 309.852 368.400,310.397 368.084,310.753 367.697 C 311.109 367.311,311.895 366.740,312.500 366.430 C 313.105 366.119,313.600 365.715,313.600 365.532 C 313.600 365.350,313.920 365.200,314.312 365.200 C 314.703 365.200,315.283 364.840,315.600 364.400 C 315.917 363.960,316.407 363.600,316.688 363.600 C 316.970 363.600,317.200 363.420,317.200 363.200 C 317.200 362.980,317.430 362.800,317.712 362.800 C 317.993 362.800,318.483 362.440,318.800 362.000 C 319.117 361.560,319.580 361.200,319.829 361.200 C 320.078 361.200,320.846 360.660,321.537 360.000 C 322.228 359.340,322.929 358.800,323.097 358.800 C 323.264 358.800,324.188 358.080,325.151 357.200 C 326.113 356.320,327.046 355.600,327.224 355.600 C 327.401 355.600,328.438 354.745,329.527 353.700 C 331.803 351.515,333.119 350.400,333.419 350.400 C 333.534 350.400,335.427 348.555,337.627 346.300 C 339.826 344.045,341.781 342.046,341.972 341.859 C 342.162 341.671,344.015 339.855,346.089 337.823 C 348.164 335.791,350.387 333.424,351.029 332.564 C 351.672 331.704,352.655 330.550,353.214 330.000 C 353.773 329.450,354.673 328.370,355.212 327.600 C 355.752 326.830,356.780 325.577,357.497 324.817 C 358.214 324.056,358.800 323.241,358.800 323.005 C 358.800 322.769,359.160 322.317,359.600 322.000 C 360.040 321.683,360.400 321.193,360.400 320.912 C 360.400 320.630,360.580 320.400,360.800 320.400 C 361.020 320.400,361.200 320.170,361.200 319.888 C 361.200 319.607,361.560 319.117,362.000 318.800 C 362.440 318.483,362.800 317.993,362.800 317.712 C 362.800 317.430,362.980 317.200,363.200 317.200 C 363.420 317.200,363.600 316.930,363.600 316.600 C 363.600 316.270,363.750 316.000,363.932 316.000 C 364.115 316.000,364.519 315.505,364.830 314.900 C 365.140 314.295,365.711 313.509,366.097 313.153 C 366.484 312.797,366.800 312.252,366.800 311.941 C 366.800 311.631,367.160 311.117,367.600 310.800 C 368.040 310.483,368.400 309.918,368.400 309.545 C 368.400 309.172,368.549 308.807,368.731 308.733 C 369.146 308.566,372.400 303.663,372.400 303.205 C 372.400 303.019,372.535 302.807,372.700 302.733 C 373.174 302.523,375.200 298.562,375.200 297.846 C 375.200 297.491,375.359 297.200,375.553 297.200 C 375.748 297.200,376.007 296.885,376.129 296.500 C 376.425 295.564,377.724 293.434,378.100 293.267 C 378.265 293.193,378.400 292.788,378.400 292.367 C 378.400 291.945,378.580 291.600,378.800 291.600 C 379.020 291.600,379.200 291.240,379.200 290.800 C 379.200 290.360,379.380 290.000,379.600 290.000 C 379.820 290.000,380.000 289.640,380.000 289.200 C 380.000 288.760,380.180 288.400,380.400 288.400 C 380.620 288.400,380.800 288.040,380.800 287.600 C 380.800 287.160,380.980 286.800,381.200 286.800 C 381.420 286.800,381.600 286.535,381.600 286.212 C 381.600 285.889,381.960 284.983,382.400 284.200 C 382.840 283.417,383.200 282.511,383.200 282.188 C 383.200 281.865,383.380 281.600,383.600 281.600 C 383.820 281.600,384.000 281.240,384.000 280.800 C 384.000 280.360,384.180 280.000,384.400 280.000 C 384.620 280.000,384.800 279.561,384.800 279.024 C 384.800 278.487,384.980 277.936,385.200 277.800 C 385.420 277.664,385.600 277.203,385.600 276.776 C 385.600 276.349,385.780 276.000,386.000 276.000 C 386.220 276.000,386.400 275.728,386.400 275.395 C 386.400 275.062,386.580 274.432,386.800 273.995 C 387.020 273.558,387.380 272.842,387.600 272.405 C 387.820 271.968,388.000 271.158,388.000 270.605 L 388.000 269.600 200.267 269.600 C 97.013 269.600,12.413 269.720,12.267 269.867 " stroke="none" fill="#fcdb44" fill-rule="evenodd"></path><path id="path2" d="M178.500 0.274 C 176.465 0.360,174.800 0.603,174.800 0.815 C 174.800 1.027,173.540 1.200,172.000 1.200 C 170.400 1.200,169.200 1.371,169.200 1.600 C 169.200 1.822,168.133 2.000,166.800 2.000 C 165.467 2.000,164.400 2.178,164.400 2.400 C 164.400 2.620,163.410 2.800,162.200 2.800 C 160.990 2.800,160.000 2.980,160.000 3.200 C 160.000 3.420,159.280 3.600,158.400 3.600 C 157.520 3.600,156.800 3.780,156.800 4.000 C 156.800 4.220,155.900 4.400,154.800 4.400 C 153.700 4.400,152.800 4.580,152.800 4.800 C 152.800 5.020,152.080 5.200,151.200 5.200 C 150.320 5.200,149.600 5.380,149.600 5.600 C 149.600 5.820,148.981 6.000,148.224 6.000 C 147.467 6.000,146.736 6.180,146.600 6.400 C 146.464 6.620,145.823 6.800,145.176 6.800 C 144.529 6.800,144.000 6.980,144.000 7.200 C 144.000 7.420,143.370 7.600,142.600 7.600 C 141.830 7.600,141.200 7.780,141.200 8.000 C 141.200 8.220,140.753 8.400,140.206 8.400 C 139.312 8.400,131.953 10.652,129.700 11.615 C 129.205 11.827,128.305 12.201,127.700 12.447 C 127.095 12.692,126.287 13.052,125.905 13.247 C 125.523 13.441,124.938 13.600,124.605 13.600 C 124.272 13.600,124.000 13.780,124.000 14.000 C 124.000 14.220,123.561 14.400,123.024 14.400 C 122.487 14.400,121.936 14.580,121.800 14.800 C 121.664 15.020,121.203 15.200,120.776 15.200 C 120.349 15.200,120.000 15.380,120.000 15.600 C 120.000 15.820,119.640 16.000,119.200 16.000 C 118.760 16.000,118.400 16.180,118.400 16.400 C 118.400 16.620,117.950 16.800,117.400 16.800 C 116.850 16.800,116.400 16.980,116.400 17.200 C 116.400 17.420,116.175 17.599,115.900 17.597 C 115.267 17.593,108.646 20.888,108.467 21.296 C 108.393 21.463,107.988 21.600,107.567 21.600 C 107.145 21.600,106.800 21.780,106.800 22.000 C 106.800 22.220,106.440 22.400,106.000 22.400 C 105.560 22.400,105.200 22.580,105.200 22.800 C 105.200 23.020,104.964 23.200,104.675 23.200 C 104.387 23.200,103.764 23.560,103.292 24.000 C 102.820 24.440,102.225 24.800,101.971 24.800 C 101.389 24.800,97.447 26.895,97.267 27.300 C 97.193 27.465,96.956 27.600,96.739 27.600 C 96.522 27.600,95.559 28.140,94.600 28.800 C 93.641 29.460,92.703 30.000,92.516 30.000 C 92.329 30.000,91.917 30.360,91.600 30.800 C 91.283 31.240,90.743 31.600,90.400 31.600 C 90.057 31.600,89.517 31.960,89.200 32.400 C 88.883 32.840,88.343 33.200,88.000 33.200 C 87.657 33.200,87.117 33.560,86.800 34.000 C 86.483 34.440,85.943 34.800,85.600 34.800 C 85.257 34.800,84.717 35.160,84.400 35.600 C 84.083 36.040,83.620 36.400,83.371 36.400 C 83.122 36.400,82.354 36.940,81.663 37.600 C 80.972 38.260,80.252 38.800,80.063 38.800 C 79.874 38.800,79.154 39.340,78.463 40.000 C 77.772 40.660,77.108 41.200,76.987 41.200 C 76.736 41.200,76.350 41.505,74.458 43.199 C 73.719 43.859,72.971 44.400,72.794 44.400 C 72.617 44.400,71.442 45.390,70.182 46.600 C 68.923 47.810,67.731 48.800,67.534 48.800 C 67.336 48.800,65.194 50.825,62.774 53.300 C 57.465 58.729,58.587 57.605,53.793 62.287 C 51.590 64.439,49.342 66.830,48.799 67.600 C 48.255 68.370,47.043 69.770,46.105 70.711 C 45.167 71.651,44.400 72.577,44.400 72.768 C 44.400 72.959,43.859 73.719,43.199 74.458 C 41.505 76.350,41.200 76.736,41.200 76.987 C 41.200 77.108,40.660 77.772,40.000 78.463 C 39.340 79.154,38.800 79.874,38.800 80.063 C 38.800 80.252,38.260 80.972,37.600 81.663 C 36.940 82.354,36.400 83.122,36.400 83.371 C 36.400 83.620,36.040 84.083,35.600 84.400 C 35.160 84.717,34.800 85.257,34.800 85.600 C 34.800 85.943,34.440 86.483,34.000 86.800 C 33.560 87.117,33.200 87.657,33.200 88.000 C 33.200 88.343,32.840 88.883,32.400 89.200 C 31.960 89.517,31.600 90.057,31.600 90.400 C 31.600 90.743,31.240 91.283,30.800 91.600 C 30.360 91.917,30.000 92.329,30.000 92.516 C 30.000 92.703,29.460 93.641,28.800 94.600 C 28.140 95.559,27.600 96.522,27.600 96.739 C 27.600 96.956,27.465 97.193,27.300 97.267 C 26.826 97.477,24.800 101.438,24.800 102.154 C 24.800 102.509,24.620 102.800,24.400 102.800 C 24.180 102.800,24.000 103.036,24.000 103.325 C 24.000 103.613,23.640 104.236,23.200 104.708 C 22.760 105.180,22.400 105.844,22.400 106.183 C 22.400 106.522,22.220 106.800,22.000 106.800 C 21.780 106.800,21.600 107.145,21.600 107.567 C 21.600 107.988,21.463 108.393,21.296 108.467 C 21.129 108.540,20.211 110.220,19.255 112.200 C 18.300 114.180,17.357 116.113,17.159 116.495 C 16.962 116.877,16.800 117.462,16.800 117.795 C 16.800 118.128,16.620 118.400,16.400 118.400 C 16.180 118.400,16.000 118.760,16.000 119.200 C 16.000 119.640,15.820 120.000,15.600 120.000 C 15.380 120.000,15.200 120.349,15.200 120.776 C 15.200 121.203,15.020 121.664,14.800 121.800 C 14.580 121.936,14.400 122.487,14.400 123.024 C 14.400 123.561,14.220 124.000,14.000 124.000 C 13.780 124.000,13.600 124.272,13.600 124.605 C 13.600 124.938,13.441 125.523,13.247 125.905 C 12.519 127.335,12.028 128.625,11.916 129.400 C 11.800 130.199,12.028 130.200,200.000 130.200 C 387.972 130.200,388.200 130.199,388.084 129.400 C 387.972 128.625,387.481 127.335,386.753 125.905 C 386.559 125.523,386.400 124.938,386.400 124.605 C 386.400 124.272,386.220 124.000,386.000 124.000 C 385.780 124.000,385.600 123.561,385.600 123.024 C 385.600 122.487,385.420 121.936,385.200 121.800 C 384.980 121.664,384.800 121.203,384.800 120.776 C 384.800 120.349,384.620 120.000,384.400 120.000 C 384.180 120.000,384.000 119.640,384.000 119.200 C 384.000 118.760,383.820 118.400,383.600 118.400 C 383.380 118.400,383.200 118.128,383.200 117.795 C 383.200 117.462,383.038 116.877,382.841 116.495 C 382.643 116.113,381.700 114.180,380.745 112.200 C 379.789 110.220,378.871 108.540,378.704 108.467 C 378.537 108.393,378.400 107.988,378.400 107.567 C 378.400 107.145,378.220 106.800,378.000 106.800 C 377.780 106.800,377.600 106.522,377.600 106.183 C 377.600 105.844,377.240 105.180,376.800 104.708 C 376.360 104.236,376.000 103.613,376.000 103.325 C 376.000 103.036,375.820 102.800,375.600 102.800 C 375.380 102.800,375.200 102.509,375.200 102.154 C 375.200 101.438,373.174 97.477,372.700 97.267 C 372.535 97.193,372.400 96.956,372.400 96.739 C 372.400 96.522,371.860 95.559,371.200 94.600 C 370.540 93.641,370.000 92.703,370.000 92.516 C 370.000 92.329,369.640 91.917,369.200 91.600 C 368.760 91.283,368.400 90.743,368.400 90.400 C 368.400 90.057,368.040 89.517,367.600 89.200 C 367.160 88.883,366.800 88.343,366.800 88.000 C 366.800 87.657,366.440 87.117,366.000 86.800 C 365.560 86.483,365.200 85.943,365.200 85.600 C 365.200 85.257,364.840 84.717,364.400 84.400 C 363.960 84.083,363.600 83.620,363.600 83.371 C 363.600 83.122,363.060 82.354,362.400 81.663 C 361.740 80.972,361.200 80.252,361.200 80.063 C 361.200 79.874,360.660 79.154,360.000 78.463 C 359.340 77.772,358.800 77.071,358.800 76.903 C 358.800 76.736,358.080 75.812,357.200 74.849 C 356.320 73.887,355.600 72.946,355.600 72.760 C 355.600 72.574,354.833 71.651,353.895 70.711 C 352.957 69.770,351.745 68.370,351.201 67.600 C 350.658 66.830,348.410 64.439,346.207 62.287 C 341.413 57.605,342.535 58.729,337.226 53.300 C 334.806 50.825,332.667 48.800,332.474 48.800 C 332.280 48.800,330.987 47.720,329.600 46.400 C 328.213 45.080,326.917 44.000,326.721 44.000 C 326.524 44.000,325.930 43.595,325.401 43.100 C 323.984 41.775,323.261 41.200,323.013 41.200 C 322.892 41.200,322.228 40.660,321.537 40.000 C 320.846 39.340,320.126 38.800,319.937 38.800 C 319.748 38.800,319.028 38.260,318.337 37.600 C 317.646 36.940,316.878 36.400,316.629 36.400 C 316.380 36.400,315.917 36.040,315.600 35.600 C 315.283 35.160,314.743 34.800,314.400 34.800 C 314.057 34.800,313.517 34.440,313.200 34.000 C 312.883 33.560,312.343 33.200,312.000 33.200 C 311.657 33.200,311.117 32.840,310.800 32.400 C 310.483 31.960,309.943 31.600,309.600 31.600 C 309.257 31.600,308.717 31.240,308.400 30.800 C 308.083 30.360,307.671 30.000,307.484 30.000 C 307.297 30.000,306.359 29.460,305.400 28.800 C 304.441 28.140,303.478 27.600,303.261 27.600 C 303.044 27.600,302.807 27.465,302.733 27.300 C 302.553 26.895,298.611 24.800,298.029 24.800 C 297.775 24.800,297.180 24.440,296.708 24.000 C 296.236 23.560,295.613 23.200,295.325 23.200 C 295.036 23.200,294.800 23.020,294.800 22.800 C 294.800 22.580,294.440 22.400,294.000 22.400 C 293.560 22.400,293.200 22.220,293.200 22.000 C 293.200 21.780,292.855 21.600,292.433 21.600 C 292.012 21.600,291.607 21.463,291.533 21.296 C 291.460 21.129,289.780 20.211,287.800 19.255 C 285.820 18.300,283.887 17.357,283.505 17.159 C 283.123 16.962,282.538 16.800,282.205 16.800 C 281.872 16.800,281.600 16.620,281.600 16.400 C 281.600 16.180,281.240 16.000,280.800 16.000 C 280.360 16.000,280.000 15.820,280.000 15.600 C 280.000 15.380,279.651 15.200,279.224 15.200 C 278.797 15.200,278.336 15.020,278.200 14.800 C 278.064 14.580,277.513 14.400,276.976 14.400 C 276.439 14.400,276.000 14.220,276.000 14.000 C 276.000 13.780,275.640 13.600,275.200 13.600 C 274.760 13.600,274.400 13.420,274.400 13.200 C 274.400 12.980,274.038 12.800,273.595 12.800 C 273.152 12.800,272.477 12.641,272.095 12.447 C 271.438 12.113,270.344 11.651,268.300 10.845 C 265.976 9.929,260.643 8.400,259.772 8.400 C 259.238 8.400,258.800 8.220,258.800 8.000 C 258.800 7.780,258.170 7.600,257.400 7.600 C 256.630 7.600,256.000 7.420,256.000 7.200 C 256.000 6.980,255.471 6.800,254.824 6.800 C 254.177 6.800,253.536 6.620,253.400 6.400 C 253.264 6.180,252.533 6.000,251.776 6.000 C 251.019 6.000,250.400 5.820,250.400 5.600 C 250.400 5.380,249.680 5.200,248.800 5.200 C 247.920 5.200,247.200 5.020,247.200 4.800 C 247.200 4.580,246.401 4.400,245.424 4.400 C 244.447 4.400,243.536 4.220,243.400 4.000 C 243.264 3.780,242.443 3.600,241.576 3.600 C 240.709 3.600,240.000 3.420,240.000 3.200 C 240.000 2.980,239.010 2.800,237.800 2.800 C 236.590 2.800,235.600 2.620,235.600 2.400 C 235.600 2.180,234.621 2.000,233.424 2.000 C 232.227 2.000,231.136 1.820,231.000 1.600 C 230.864 1.380,229.518 1.200,228.010 1.200 C 226.213 1.200,225.211 1.032,225.105 0.714 C 224.944 0.233,187.802 -0.118,178.500 0.274 " stroke="none" fill="#040404" fill-rule="evenodd"></path></g></svg>