<svg xmlns="http://www.w3.org/2000/svg" width="400" height="400" viewBox="0, 0, 400,400">
    <g>
        <path
            d="M179.085 0.298 C 176.709 0.378,175.264 0.581,175.409 0.815 C 175.554 1.050,174.352 1.202,172.324 1.206 C 170.030 1.210,169.186 1.332,169.600 1.600 C 170.018 1.870,169.320 1.990,167.300 1.994 C 165.637 1.997,164.400 2.171,164.400 2.400 C 164.400 2.620,163.399 2.800,162.176 2.800 C 160.796 2.800,160.047 2.952,160.200 3.200 C 160.353 3.448,159.604 3.600,158.224 3.600 C 157.001 3.600,156.000 3.780,156.000 4.000 C 156.000 4.220,155.640 4.400,155.200 4.400 C 154.760 4.400,154.400 4.580,154.400 4.800 C 154.400 5.022,153.333 5.200,152.000 5.200 C 150.667 5.200,149.600 5.378,149.600 5.600 C 149.600 5.820,148.880 6.000,148.000 6.000 C 147.120 6.000,146.400 6.180,146.400 6.400 C 146.400 6.620,146.029 6.800,145.576 6.800 C 145.123 6.800,144.864 6.980,145.000 7.200 C 145.136 7.420,145.072 7.600,144.857 7.600 C 144.642 7.600,144.376 7.375,144.265 7.100 C 144.104 6.700,144.057 6.700,144.032 7.100 C 144.014 7.375,143.550 7.600,143.000 7.600 C 142.450 7.600,142.000 7.780,142.000 8.000 C 142.000 8.220,141.460 8.400,140.800 8.400 C 140.140 8.400,139.600 8.569,139.600 8.775 C 139.600 8.981,138.993 9.051,138.251 8.931 C 137.461 8.803,136.788 8.896,136.627 9.156 C 136.476 9.400,136.003 9.600,135.576 9.600 C 135.149 9.600,134.800 9.742,134.800 9.915 C 134.800 10.088,134.218 10.274,133.507 10.328 C 132.795 10.383,132.039 10.601,131.827 10.813 C 131.614 11.026,131.116 11.200,130.720 11.200 C 130.324 11.200,130.000 11.380,130.000 11.600 C 130.000 11.820,129.460 12.000,128.800 12.000 C 128.140 12.000,127.600 12.180,127.600 12.400 C 127.600 12.620,127.105 12.803,126.500 12.806 C 125.643 12.811,125.532 12.898,126.000 13.200 C 126.455 13.494,126.286 13.589,125.300 13.594 C 124.585 13.597,124.000 13.780,124.000 14.000 C 124.000 14.220,123.460 14.400,122.800 14.400 C 122.140 14.400,121.600 14.580,121.600 14.800 C 121.600 15.020,121.240 15.200,120.800 15.200 C 120.360 15.200,120.000 15.380,120.000 15.600 C 120.000 15.820,119.640 16.000,119.200 16.000 C 118.760 16.000,118.400 16.180,118.400 16.400 C 118.400 16.620,117.984 16.800,117.475 16.800 C 116.967 16.800,116.170 17.155,115.705 17.588 C 115.110 18.143,114.800 18.232,114.661 17.888 C 114.509 17.512,114.456 17.515,114.432 17.900 C 114.414 18.175,114.040 18.400,113.600 18.400 C 113.160 18.400,112.800 18.580,112.800 18.800 C 112.800 19.020,112.440 19.200,112.000 19.200 C 111.560 19.200,111.200 19.380,111.200 19.600 C 111.200 19.820,110.810 20.000,110.333 20.000 C 109.857 20.000,109.578 20.111,109.714 20.248 C 110.156 20.689,108.886 21.600,107.829 21.600 C 107.263 21.600,106.800 21.780,106.800 22.000 C 106.800 22.220,106.429 22.400,105.976 22.400 C 105.523 22.400,105.264 22.580,105.400 22.800 C 105.536 23.020,105.367 23.200,105.024 23.200 C 104.681 23.200,104.400 23.380,104.400 23.600 C 104.400 23.820,104.040 24.000,103.600 24.000 C 103.160 24.000,102.800 24.157,102.800 24.350 C 102.800 24.543,102.260 24.808,101.600 24.940 C 100.873 25.085,100.400 25.430,100.400 25.814 C 100.400 26.162,100.209 26.329,99.976 26.185 C 99.472 25.873,97.200 26.744,97.200 27.249 C 97.200 27.442,96.795 27.603,96.300 27.606 C 95.572 27.611,95.515 27.686,96.000 28.000 C 96.483 28.312,96.419 28.389,95.676 28.394 C 95.168 28.397,94.841 28.543,94.949 28.717 C 95.056 28.891,94.755 29.063,94.278 29.099 C 93.802 29.135,93.349 29.352,93.273 29.582 C 93.196 29.812,92.878 30.000,92.567 30.000 C 91.801 30.000,91.847 30.656,92.633 30.957 C 92.981 31.091,97.031 31.200,101.633 31.200 C 106.342 31.200,110.000 31.358,110.000 31.561 C 110.000 31.760,108.536 32.975,106.746 34.261 C 100.641 38.650,94.000 43.599,94.000 43.760 C 94.000 43.848,94.816 46.413,95.814 49.460 C 101.051 65.450,101.168 64.107,94.939 59.511 C 83.074 50.758,83.396 50.919,81.310 52.689 C 80.849 53.080,79.343 54.210,77.964 55.200 C 76.584 56.190,73.643 58.323,71.428 59.939 C 67.275 62.970,66.183 63.054,67.531 60.240 C 68.414 58.398,71.600 47.837,71.600 46.755 C 71.600 45.273,71.520 45.290,69.552 47.200 C 68.645 48.080,67.737 48.800,67.534 48.800 C 66.929 48.800,65.200 50.713,65.200 51.382 C 65.200 51.722,64.921 52.000,64.581 52.000 C 64.240 52.000,62.706 53.305,61.171 54.900 C 59.636 56.495,58.249 57.929,58.090 58.086 C 57.930 58.244,55.775 60.353,53.300 62.774 C 50.825 65.194,48.800 67.342,48.800 67.547 C 48.800 67.751,47.900 68.838,46.800 69.961 C 45.700 71.085,44.800 72.191,44.800 72.420 C 44.800 72.649,44.395 73.252,43.900 73.759 C 42.494 75.201,41.200 76.781,41.200 77.056 C 41.200 77.194,40.851 77.609,40.425 77.978 C 39.999 78.348,39.594 78.905,39.525 79.216 C 39.456 79.527,38.725 80.447,37.900 81.259 C 37.075 82.072,36.400 82.982,36.400 83.280 C 36.400 83.579,36.040 84.083,35.600 84.400 C 35.160 84.717,34.800 85.297,34.800 85.688 C 34.800 86.080,34.620 86.400,34.400 86.400 C 34.180 86.400,34.000 86.745,34.000 87.167 C 34.000 87.588,33.788 88.004,33.528 88.091 C 32.118 88.561,33.674 89.600,35.787 89.600 C 38.760 89.600,38.627 89.879,34.100 93.146 C 31.955 94.693,29.999 96.133,29.754 96.345 C 29.509 96.557,28.898 96.791,28.395 96.865 C 27.893 96.939,27.283 97.360,27.041 97.800 C 26.798 98.240,26.479 98.692,26.332 98.804 C 26.185 98.916,26.005 99.272,25.932 99.594 C 25.859 99.917,25.575 100.423,25.300 100.719 C 25.025 101.015,24.800 101.604,24.800 102.029 C 24.800 102.453,24.620 102.800,24.400 102.800 C 24.180 102.800,24.000 103.160,24.000 103.600 C 24.000 104.040,23.820 104.400,23.600 104.400 C 23.101 104.400,23.072 106.105,23.562 106.620 C 24.132 107.219,28.048 119.680,27.917 120.480 C 27.823 121.056,26.969 120.575,23.600 118.052 C 21.290 116.322,18.950 114.780,18.400 114.627 C 17.638 114.414,17.543 114.447,18.000 114.768 C 18.406 115.052,18.438 115.190,18.100 115.194 C 17.825 115.197,17.600 115.650,17.600 116.200 C 17.600 116.750,17.420 117.200,17.200 117.200 C 16.980 117.200,16.800 117.470,16.800 117.800 C 16.800 118.130,16.620 118.400,16.400 118.400 C 16.180 118.400,16.000 118.760,16.000 119.200 C 16.000 119.640,15.820 120.000,15.600 120.000 C 15.380 120.000,15.200 120.360,15.200 120.800 C 15.200 121.240,15.020 121.600,14.800 121.600 C 14.580 121.600,14.400 122.331,14.400 123.224 C 14.400 124.204,14.242 124.749,14.000 124.600 C 13.770 124.458,13.597 124.830,13.594 125.476 C 13.589 126.349,13.501 126.466,13.200 126.000 C 12.898 125.532,12.811 125.643,12.806 126.500 C 12.803 127.105,12.620 127.600,12.400 127.600 C 11.825 127.600,11.907 130.079,12.513 131.011 C 12.796 131.445,13.225 132.430,13.468 133.200 C 13.711 133.970,14.857 137.525,16.014 141.100 L 18.117 147.600 28.035 147.600 C 33.490 147.600,38.050 147.758,38.169 147.950 C 38.288 148.143,37.174 149.190,35.693 150.277 C 34.212 151.364,30.687 153.938,27.860 155.998 C 25.033 158.057,22.640 159.953,22.541 160.210 C 22.386 160.613,26.542 174.123,27.619 176.719 C 28.882 179.764,28.261 179.726,23.873 176.493 C 11.279 167.210,11.817 167.489,9.677 169.137 C 5.584 172.287,2.014 174.800,1.630 174.800 C 1.393 174.800,1.197 175.025,1.194 175.300 C 1.190 175.633,1.058 175.600,0.800 175.200 C 0.587 174.870,0.407 174.690,0.400 174.800 C 0.393 174.910,0.272 180.625,0.131 187.500 L -0.126 200.000 99.937 200.000 L 200.000 200.000 200.000 100.000 L 200.000 0.000 191.500 0.084 C 186.825 0.130,181.238 0.226,179.085 0.298 M158.603 21.905 L 161.637 31.200 171.552 31.200 C 177.005 31.200,181.577 31.311,181.712 31.446 C 181.970 31.703,181.532 32.039,169.500 40.812 C 165.297 43.877,165.358 42.782,168.811 53.261 C 170.357 57.953,171.572 62.022,171.511 62.303 C 171.388 62.868,170.681 62.406,161.600 55.821 C 154.321 50.542,156.555 50.181,145.098 58.486 C 138.955 62.939,138.178 63.364,138.769 61.948 C 139.562 60.047,144.400 44.581,144.400 43.947 C 144.400 43.399,140.411 40.190,136.415 37.522 C 132.414 34.851,128.373 31.586,128.849 31.409 C 129.152 31.296,133.783 31.158,139.141 31.102 L 148.881 31.000 149.387 29.400 C 152.770 18.700,155.052 12.092,155.285 12.325 C 155.442 12.482,156.935 16.793,158.603 21.905 M157.639 77.054 C 158.723 80.324,159.987 84.260,160.447 85.800 C 161.671 89.898,160.776 89.600,171.849 89.600 C 177.212 89.600,181.600 89.743,181.600 89.918 C 181.600 90.204,179.640 91.700,172.200 97.091 C 166.045 101.550,165.604 101.964,165.988 102.912 C 166.186 103.401,166.726 105.060,167.188 106.600 C 167.650 108.140,168.181 109.760,168.368 110.200 C 169.037 111.771,171.600 120.051,171.600 120.639 C 171.600 121.296,170.288 120.471,164.551 116.212 C 154.450 108.712,155.570 109.149,152.388 111.462 C 147.641 114.913,145.823 116.243,142.730 118.530 C 138.069 121.976,138.159 122.188,140.802 114.000 C 145.227 100.287,145.216 102.047,140.900 99.000 C 134.591 94.545,128.800 90.192,128.800 89.905 C 128.800 89.737,133.188 89.600,138.551 89.600 C 145.886 89.600,148.394 89.476,148.675 89.100 C 148.986 88.683,152.473 78.331,154.406 72.088 C 155.121 69.779,155.339 70.114,157.639 77.054 M83.885 71.300 C 84.095 71.575,84.675 73.150,85.174 74.800 C 86.257 78.386,89.068 86.954,89.670 88.500 L 90.097 89.600 100.082 89.600 C 105.952 89.600,110.012 89.751,109.933 89.966 C 109.860 90.167,106.733 92.552,102.984 95.266 C 99.235 97.980,95.680 100.585,95.085 101.056 L 94.003 101.912 95.163 105.656 C 95.800 107.715,97.158 111.894,98.181 114.941 C 99.203 117.989,99.985 120.641,99.920 120.834 C 99.797 121.193,97.731 119.778,87.000 111.983 C 85.460 110.865,83.983 109.855,83.718 109.739 C 83.453 109.623,81.833 110.566,80.118 111.834 C 78.403 113.102,76.100 114.797,75.000 115.601 C 73.900 116.404,71.857 117.903,70.460 118.931 C 66.549 121.810,66.486 121.659,68.755 114.859 C 72.610 103.313,72.964 101.991,72.363 101.414 C 72.054 101.116,70.338 99.821,68.551 98.536 C 59.453 91.995,57.200 90.294,57.200 89.969 C 57.200 89.774,61.648 89.566,67.084 89.507 L 76.968 89.400 79.030 83.200 C 80.164 79.790,81.521 75.606,82.046 73.902 C 83.026 70.720,83.225 70.438,83.885 71.300 M158.201 137.200 C 159.661 141.710,161.045 145.895,161.276 146.500 L 161.697 147.600 171.349 147.606 C 181.433 147.613,182.601 147.766,181.086 148.886 C 180.599 149.247,177.050 151.830,173.200 154.626 C 164.726 160.779,165.429 159.571,167.210 164.925 C 170.409 174.540,171.600 178.347,171.600 178.951 C 171.600 179.511,165.760 175.517,157.800 169.512 C 155.256 167.593,155.250 167.594,151.853 170.128 C 142.603 177.029,138.301 179.950,138.582 179.138 C 140.218 174.418,144.397 160.986,144.387 160.479 C 144.380 160.085,142.638 158.540,140.240 156.800 C 130.051 149.407,128.464 148.202,128.658 148.007 C 128.772 147.893,133.370 147.710,138.876 147.600 L 148.887 147.400 150.384 142.800 C 151.207 140.270,152.582 136.005,153.440 133.322 C 154.298 130.639,155.123 128.569,155.273 128.722 C 155.423 128.875,156.741 132.690,158.201 137.200 M85.797 135.087 C 86.852 138.339,88.188 142.440,88.766 144.200 L 89.819 147.400 99.909 147.507 C 105.459 147.566,110.000 147.771,110.000 147.963 C 110.000 148.350,108.315 149.753,105.499 151.711 C 101.640 154.393,94.000 160.038,94.000 160.207 C 94.000 160.304,94.431 161.692,94.958 163.292 C 97.484 170.956,100.000 178.815,100.000 179.038 C 100.000 179.682,97.921 178.275,87.715 170.726 C 83.123 167.328,84.343 167.045,75.295 173.610 C 66.983 179.640,67.200 179.508,67.200 178.553 C 67.200 177.884,67.426 177.153,70.798 166.933 C 71.899 163.597,72.791 160.627,72.780 160.333 C 72.769 160.040,69.171 157.215,64.784 154.056 C 60.397 150.897,56.906 148.152,57.027 147.956 C 57.148 147.760,61.700 147.600,67.141 147.600 L 77.035 147.600 79.989 138.500 C 81.613 133.495,83.013 129.262,83.099 129.093 C 83.472 128.363,83.993 129.521,85.797 135.087 "
            stroke="none"
            fill="#0454b4"
            fill-rule="evenodd"
        ></path>
        <path
            d="M324.400 43.000 C 324.400 43.531,317.222 43.600,262.200 43.600 L 200.000 43.600 200.000 69.600 L 200.000 95.600 285.176 95.600 C 342.441 95.600,370.435 95.467,370.604 95.193 C 370.742 94.970,371.023 94.891,371.228 95.017 C 371.432 95.144,371.600 95.057,371.600 94.824 C 371.600 94.591,371.420 94.400,371.200 94.400 C 370.980 94.400,370.800 94.130,370.800 93.800 C 370.800 93.470,370.620 93.200,370.400 93.200 C 370.180 93.200,369.997 92.885,369.994 92.500 C 369.989 91.902,369.931 91.887,369.600 92.400 C 369.280 92.896,369.211 92.859,369.206 92.188 C 369.203 91.742,368.840 91.117,368.400 90.800 C 367.960 90.483,367.600 89.918,367.600 89.545 C 367.600 89.172,367.433 88.807,367.230 88.733 C 367.026 88.660,366.801 88.330,366.730 88.000 C 366.658 87.670,366.285 87.109,365.900 86.753 C 365.515 86.397,365.200 85.852,365.200 85.541 C 365.200 85.231,364.840 84.717,364.400 84.400 C 363.960 84.083,363.600 83.593,363.600 83.312 C 363.600 83.030,363.420 82.800,363.200 82.800 C 362.980 82.800,362.800 82.570,362.800 82.288 C 362.800 82.007,362.440 81.517,362.000 81.200 C 361.560 80.883,361.200 80.303,361.200 79.912 C 361.200 79.467,360.900 79.200,360.400 79.200 C 359.867 79.200,359.600 78.933,359.600 78.400 C 359.600 77.960,359.420 77.600,359.200 77.600 C 358.980 77.600,358.800 77.330,358.800 77.000 C 358.800 76.670,358.590 76.400,358.333 76.400 C 358.077 76.400,357.980 76.286,358.119 76.147 C 358.258 76.008,357.838 75.396,357.186 74.787 C 356.534 74.178,356.000 73.505,356.000 73.293 C 356.000 73.081,355.010 71.877,353.800 70.618 C 352.590 69.358,351.600 68.180,351.600 67.998 C 351.600 67.817,349.541 65.628,347.024 63.134 C 344.507 60.640,342.212 58.365,341.924 58.079 C 341.636 57.792,339.276 55.407,336.681 52.779 C 334.086 50.150,331.740 48.000,331.469 48.000 C 331.198 48.000,330.717 47.640,330.400 47.200 C 330.083 46.760,329.583 46.400,329.288 46.400 C 328.994 46.400,328.864 46.220,329.000 46.000 C 329.136 45.780,328.877 45.600,328.424 45.600 C 327.971 45.600,327.645 45.465,327.700 45.300 C 327.755 45.135,327.656 44.964,327.479 44.920 C 327.302 44.876,326.645 44.291,326.018 43.620 C 324.743 42.254,324.400 42.123,324.400 43.000 M200.000 173.800 L 200.000 200.000 300.065 200.000 L 400.129 200.000 399.864 187.900 C 399.700 180.444,399.445 175.749,399.199 175.667 C 398.980 175.593,398.800 174.288,398.800 172.767 C 398.800 171.189,398.628 170.000,398.400 170.000 C 398.171 170.000,397.997 168.763,397.994 167.100 C 397.990 165.080,397.870 164.382,397.600 164.800 C 397.325 165.226,397.210 164.733,397.206 163.100 C 397.202 161.533,397.041 160.798,396.700 160.794 C 396.367 160.790,396.400 160.658,396.800 160.400 C 397.200 160.142,397.233 160.010,396.900 160.006 C 396.612 160.003,396.400 159.490,396.400 158.800 C 396.400 158.140,396.220 157.600,396.000 157.600 C 395.780 157.600,395.600 156.700,395.600 155.600 C 395.600 154.500,395.420 153.600,395.200 153.600 C 394.980 153.600,394.800 152.869,394.800 151.976 C 394.800 150.928,394.649 150.446,394.373 150.617 C 394.139 150.762,393.980 150.637,394.021 150.340 C 394.061 150.043,394.073 149.305,394.047 148.700 L 394.000 147.600 297.000 147.600 L 200.000 147.600 200.000 173.800 M6.484 253.015 C 6.184 253.356,6.142 253.600,6.384 253.600 C 6.613 253.600,6.800 253.971,6.800 254.424 C 6.800 254.877,6.980 255.136,7.200 255.000 C 7.420 254.864,7.600 254.928,7.600 255.143 C 7.600 255.358,7.375 255.624,7.100 255.735 C 6.700 255.896,6.700 255.943,7.100 255.968 C 7.375 255.986,7.600 256.435,7.600 256.967 C 7.600 257.498,7.758 257.993,7.951 258.067 C 8.144 258.140,8.410 259.099,8.542 260.199 C 8.674 261.298,9.026 262.378,9.326 262.599 C 9.625 262.819,9.787 263.246,9.686 263.546 C 9.498 264.106,10.194 266.854,10.839 268.095 C 11.038 268.477,11.200 269.072,11.200 269.418 C 11.200 269.764,11.380 269.936,11.600 269.800 C 11.838 269.653,12.000 270.129,12.000 270.976 C 12.000 271.759,12.180 272.400,12.400 272.400 C 12.620 272.400,12.800 272.861,12.800 273.424 C 12.800 274.004,12.973 274.340,13.200 274.200 C 13.420 274.064,13.600 274.233,13.600 274.576 C 13.600 274.919,13.780 275.200,14.000 275.200 C 14.220 275.200,14.400 275.740,14.400 276.400 C 14.400 277.060,14.580 277.600,14.800 277.600 C 15.020 277.600,15.200 278.140,15.200 278.800 C 15.200 279.460,15.380 280.000,15.600 280.000 C 15.820 280.000,16.000 280.360,16.000 280.800 C 16.000 281.240,16.180 281.600,16.400 281.600 C 16.620 281.600,16.800 281.960,16.800 282.400 C 16.800 282.840,16.980 283.200,17.200 283.200 C 17.420 283.200,17.600 283.555,17.600 283.988 C 17.600 284.421,17.960 285.417,18.400 286.200 C 18.840 286.983,19.200 287.823,19.200 288.065 C 19.200 288.308,19.572 288.829,20.026 289.223 C 20.481 289.617,20.841 290.043,20.826 290.170 C 20.736 290.964,20.849 291.217,21.200 291.000 C 21.429 290.859,21.600 291.214,21.600 291.829 C 21.600 292.434,21.978 293.234,22.461 293.653 C 22.970 294.095,23.109 294.400,22.800 294.400 C 22.491 294.400,22.630 294.705,23.139 295.147 C 23.612 295.558,24.000 296.188,24.000 296.547 C 24.000 296.906,24.157 297.200,24.350 297.200 C 24.543 297.200,24.799 297.695,24.920 298.300 C 25.041 298.905,25.598 300.075,26.158 300.900 C 26.718 301.725,27.064 302.400,26.927 302.400 C 26.790 302.400,27.077 302.746,27.565 303.170 C 28.053 303.593,28.441 304.043,28.426 304.170 C 28.312 305.174,28.419 305.341,28.880 304.880 C 29.537 304.223,370.416 304.176,371.072 304.832 C 371.382 305.142,371.659 304.915,372.050 304.032 C 372.350 303.354,372.731 302.800,372.898 302.800 C 373.064 302.800,373.200 302.603,373.200 302.362 C 373.200 302.121,373.561 301.416,374.003 300.795 C 374.445 300.175,374.918 299.112,375.053 298.434 C 375.189 297.755,375.457 297.200,375.650 297.200 C 375.843 297.200,376.000 296.840,376.000 296.400 C 376.000 295.960,376.180 295.600,376.400 295.600 C 376.620 295.600,376.800 295.280,376.800 294.888 C 376.800 294.497,377.160 293.917,377.600 293.600 C 378.040 293.283,378.406 292.748,378.413 292.412 C 378.420 292.075,378.684 291.458,379.000 291.041 C 379.316 290.624,379.462 290.101,379.325 289.879 C 379.184 289.651,379.276 289.600,379.538 289.762 C 379.812 289.931,380.000 289.793,380.000 289.424 C 380.000 289.081,380.180 288.800,380.400 288.800 C 380.620 288.800,380.800 288.440,380.800 288.000 C 380.800 287.560,380.980 287.200,381.200 287.200 C 381.420 287.200,381.600 286.649,381.600 285.976 C 381.600 285.263,381.767 284.856,382.000 285.000 C 382.227 285.140,382.400 284.804,382.400 284.224 C 382.400 283.661,382.580 283.200,382.800 283.200 C 383.020 283.200,383.200 282.840,383.200 282.400 C 383.200 281.960,383.380 281.600,383.600 281.600 C 383.820 281.600,384.000 281.240,384.000 280.800 C 384.000 280.360,384.180 280.000,384.400 280.000 C 384.620 280.000,384.800 279.460,384.800 278.800 C 384.800 278.140,384.980 277.600,385.200 277.600 C 385.420 277.600,385.603 277.015,385.606 276.300 C 385.611 275.314,385.706 275.145,386.000 275.600 C 386.314 276.085,386.389 276.028,386.394 275.300 C 386.397 274.805,386.580 274.400,386.800 274.400 C 387.020 274.400,387.200 273.950,387.200 273.400 C 387.200 272.850,387.380 272.400,387.600 272.400 C 387.820 272.400,388.000 271.759,388.000 270.976 C 388.000 270.129,388.162 269.653,388.400 269.800 C 388.620 269.936,388.800 269.687,388.800 269.247 C 388.800 268.807,388.980 268.336,389.200 268.200 C 389.420 268.064,389.600 267.524,389.600 267.000 C 389.600 266.476,389.780 265.936,390.000 265.800 C 390.220 265.664,390.400 264.923,390.400 264.153 C 390.400 263.383,390.559 262.851,390.754 262.972 C 390.949 263.092,391.233 262.022,391.386 260.595 C 391.539 259.168,391.829 258.000,392.032 258.000 C 392.234 258.000,392.400 257.458,392.400 256.795 C 392.400 255.588,393.048 254.064,393.800 253.500 C 394.051 253.312,393.976 253.053,393.600 252.806 C 392.512 252.092,7.115 252.300,6.484 253.015 M75.600 357.424 C 75.600 358.004,75.773 358.340,76.000 358.200 C 76.220 358.064,76.400 358.143,76.400 358.376 C 76.400 358.609,76.630 358.800,76.912 358.800 C 77.193 358.800,77.680 359.156,77.994 359.591 C 78.413 360.173,78.646 360.252,78.876 359.891 C 79.088 359.557,79.190 359.646,79.194 360.167 C 79.197 360.588,79.305 360.828,79.434 360.700 C 79.562 360.571,80.394 361.171,81.282 362.033 C 82.170 362.895,83.105 363.600,83.360 363.600 C 83.615 363.600,84.083 363.960,84.400 364.400 C 84.717 364.840,85.297 365.200,85.688 365.200 C 86.080 365.200,86.400 365.380,86.400 365.600 C 86.400 365.820,86.720 366.000,87.112 366.000 C 87.503 366.000,88.083 366.360,88.400 366.800 C 88.717 367.240,89.257 367.600,89.600 367.600 C 89.943 367.600,90.483 367.960,90.800 368.400 C 91.117 368.840,91.742 369.203,92.188 369.206 C 92.859 369.211,92.896 369.280,92.400 369.600 C 91.887 369.931,91.902 369.989,92.500 369.994 C 92.885 369.997,93.201 370.135,93.203 370.300 C 93.205 370.465,93.610 370.798,94.103 371.040 C 96.511 372.222,98.613 373.430,98.733 373.700 C 98.807 373.865,99.190 374.000,99.584 374.000 C 99.979 374.000,100.526 374.270,100.800 374.600 C 101.074 374.930,101.636 375.200,102.049 375.200 C 102.462 375.200,102.800 375.380,102.800 375.600 C 102.800 375.820,103.250 376.000,103.800 376.000 C 104.350 376.000,104.800 376.180,104.800 376.400 C 104.800 376.620,105.070 376.800,105.400 376.800 C 105.730 376.800,106.000 376.980,106.000 377.200 C 106.000 377.420,106.294 377.600,106.653 377.600 C 107.012 377.600,107.597 377.916,107.953 378.303 C 108.309 378.689,109.140 379.274,109.800 379.602 C 110.460 379.930,111.132 380.379,111.294 380.599 C 111.476 380.848,111.590 380.810,111.594 380.500 C 111.597 380.225,111.791 380.000,112.024 380.000 C 112.257 380.000,112.352 380.154,112.235 380.343 C 112.119 380.532,112.873 381.091,113.912 381.587 C 114.950 382.082,116.113 382.648,116.495 382.844 C 116.877 383.040,117.462 383.200,117.795 383.200 C 118.128 383.200,118.400 383.380,118.400 383.600 C 118.400 383.820,118.940 384.000,119.600 384.000 C 120.260 384.000,120.800 384.180,120.800 384.400 C 120.800 384.620,121.160 384.800,121.600 384.800 C 122.040 384.800,122.400 384.980,122.400 385.200 C 122.400 385.420,122.760 385.600,123.200 385.600 C 123.640 385.600,124.000 385.780,124.000 386.000 C 124.000 386.220,124.585 386.403,125.300 386.406 C 126.286 386.411,126.455 386.506,126.000 386.800 C 125.531 387.103,125.634 387.189,126.476 387.194 C 127.068 387.197,127.664 387.380,127.800 387.600 C 127.936 387.820,128.697 388.000,129.490 388.000 C 130.284 388.000,130.816 388.117,130.673 388.261 C 130.230 388.703,132.411 389.600,133.946 389.606 C 135.032 389.611,135.248 389.710,134.800 390.000 C 134.331 390.303,134.434 390.389,135.276 390.394 C 135.868 390.397,136.456 390.567,136.583 390.772 C 136.709 390.977,137.800 391.267,139.006 391.418 C 140.213 391.569,141.200 391.851,141.200 392.046 C 141.200 392.241,142.100 392.400,143.200 392.400 C 144.300 392.400,145.200 392.580,145.200 392.800 C 145.200 393.020,145.470 393.200,145.800 393.200 C 146.130 393.200,146.403 393.425,146.406 393.700 C 146.410 394.033,146.542 394.000,146.800 393.600 C 147.058 393.200,147.190 393.167,147.194 393.500 C 147.197 393.788,147.710 394.000,148.400 394.000 C 149.060 394.000,149.600 394.180,149.600 394.400 C 149.600 394.622,150.667 394.800,152.000 394.800 C 153.333 394.800,154.400 394.978,154.400 395.200 C 154.400 395.420,154.760 395.600,155.200 395.600 C 155.640 395.600,156.000 395.780,156.000 396.000 C 156.000 396.229,157.200 396.400,158.800 396.400 C 160.400 396.400,161.600 396.571,161.600 396.800 C 161.600 397.020,162.230 397.200,163.000 397.200 C 163.770 397.200,164.400 397.380,164.400 397.600 C 164.400 397.831,165.667 398.000,167.400 398.000 C 169.133 398.000,170.400 398.169,170.400 398.400 C 170.400 398.631,171.656 398.800,173.367 398.800 C 175.384 398.800,176.387 398.960,176.500 399.300 C 176.631 399.693,181.849 399.800,200.800 399.800 C 219.751 399.800,224.969 399.693,225.100 399.300 C 225.206 398.982,226.056 398.800,227.433 398.800 C 228.625 398.800,229.600 398.620,229.600 398.400 C 229.600 398.174,230.733 398.000,232.200 398.000 C 233.667 398.000,234.800 397.826,234.800 397.600 C 234.800 397.380,235.599 397.200,236.576 397.200 C 237.553 397.200,238.464 397.020,238.600 396.800 C 238.736 396.580,239.906 396.400,241.200 396.400 C 242.494 396.400,243.664 396.220,243.800 396.000 C 243.936 395.780,244.577 395.600,245.224 395.600 C 245.895 395.600,246.403 395.385,246.406 395.100 C 246.410 394.767,246.542 394.800,246.800 395.200 C 247.058 395.600,247.190 395.633,247.194 395.300 C 247.198 394.984,247.790 394.800,248.800 394.800 C 249.680 394.800,250.400 394.620,250.400 394.400 C 250.400 394.180,251.165 393.997,252.100 393.994 C 253.345 393.989,253.639 393.884,253.200 393.600 C 252.745 393.306,252.914 393.211,253.900 393.206 C 254.615 393.203,255.200 393.020,255.200 392.800 C 255.200 392.580,256.010 392.400,257.000 392.400 C 257.990 392.400,258.800 392.243,258.800 392.052 C 258.800 391.860,259.700 391.584,260.800 391.438 C 261.900 391.292,262.800 390.999,262.800 390.786 C 262.800 390.574,263.419 390.400,264.176 390.400 C 264.933 390.400,265.664 390.220,265.800 390.000 C 265.936 389.780,266.397 389.600,266.824 389.600 C 267.251 389.600,267.600 389.459,267.600 389.287 C 267.600 389.115,268.087 388.934,268.682 388.885 C 269.278 388.836,269.944 388.616,270.162 388.398 C 270.381 388.179,270.974 388.000,271.480 388.000 C 271.986 388.000,272.400 387.820,272.400 387.600 C 272.400 387.380,272.850 387.200,273.400 387.200 C 273.950 387.200,274.400 387.020,274.400 386.800 C 274.400 386.580,274.760 386.400,275.200 386.400 C 275.640 386.400,276.000 386.220,276.000 386.000 C 276.000 385.780,276.585 385.597,277.300 385.594 C 278.286 385.589,278.455 385.494,278.000 385.200 C 277.515 384.886,277.572 384.811,278.300 384.806 C 278.795 384.803,279.200 384.620,279.200 384.400 C 279.200 384.180,279.751 384.000,280.424 384.000 C 281.137 384.000,281.544 383.833,281.400 383.600 C 281.260 383.374,281.588 383.200,282.153 383.200 C 282.703 383.200,283.264 383.020,283.400 382.800 C 283.536 382.580,283.963 382.400,284.348 382.400 C 284.734 382.400,285.436 382.040,285.908 381.600 C 286.380 381.160,287.044 380.800,287.383 380.800 C 287.722 380.800,288.000 380.620,288.000 380.400 C 288.000 380.180,288.135 380.021,288.300 380.047 C 289.176 380.186,289.938 379.918,290.708 379.200 C 291.180 378.760,291.754 378.400,291.983 378.400 C 292.212 378.400,292.400 378.220,292.400 378.000 C 292.400 377.780,292.760 377.600,293.200 377.600 C 293.640 377.600,294.000 377.420,294.000 377.200 C 294.000 376.980,294.416 376.800,294.925 376.800 C 295.433 376.800,296.204 376.469,296.638 376.065 C 297.072 375.661,297.947 375.200,298.582 375.040 C 299.217 374.881,300.180 374.402,300.722 373.975 C 301.264 373.549,301.954 373.200,302.254 373.200 C 302.554 373.200,302.800 373.020,302.800 372.800 C 302.800 372.580,303.081 372.400,303.424 372.400 C 303.793 372.400,303.931 372.212,303.762 371.938 C 303.602 371.680,303.651 371.584,303.871 371.721 C 304.089 371.855,304.917 371.523,305.712 370.982 C 306.507 370.442,307.307 370.000,307.490 370.000 C 307.674 370.000,308.083 369.640,308.400 369.200 C 308.717 368.760,309.257 368.400,309.600 368.400 C 309.943 368.400,310.483 368.040,310.800 367.600 C 311.117 367.160,311.742 366.797,312.188 366.794 C 312.859 366.789,312.896 366.720,312.400 366.400 C 311.915 366.086,311.972 366.011,312.700 366.006 C 313.195 366.003,313.600 365.820,313.600 365.600 C 313.600 365.380,313.920 365.200,314.312 365.200 C 314.703 365.200,315.283 364.840,315.600 364.400 C 315.917 363.960,316.385 363.600,316.640 363.600 C 316.895 363.600,317.834 362.891,318.727 362.025 C 319.718 361.063,320.425 360.635,320.543 360.925 C 320.650 361.186,320.751 360.995,320.768 360.500 C 320.790 359.877,321.046 359.600,321.600 359.600 C 322.040 359.600,322.400 359.420,322.400 359.200 C 322.400 358.980,322.636 358.800,322.924 358.800 C 323.897 358.800,324.855 357.810,324.579 357.089 C 324.329 356.439,317.299 356.400,199.957 356.400 L 75.600 356.400 75.600 357.424 "
            stroke="none"
            fill="#dc0424"
            fill-rule="evenodd"
        ></path>
        <path
            d="M200.000 21.738 L 200.000 43.600 262.200 43.600 C 318.479 43.600,324.400 43.540,324.400 42.971 C 324.400 42.341,323.491 41.200,322.989 41.200 C 322.842 41.200,322.217 40.660,321.600 40.000 C 320.983 39.340,320.280 38.800,320.036 38.800 C 319.792 38.800,319.028 38.260,318.337 37.600 C 317.646 36.940,316.878 36.400,316.629 36.400 C 316.380 36.400,315.917 36.040,315.600 35.600 C 315.283 35.160,314.743 34.800,314.400 34.800 C 314.057 34.800,313.517 34.440,313.200 34.000 C 312.883 33.560,312.343 33.200,312.000 33.200 C 311.657 33.200,311.117 32.840,310.800 32.400 C 310.483 31.960,309.943 31.600,309.600 31.600 C 309.257 31.600,308.717 31.240,308.400 30.800 C 308.083 30.360,307.671 30.000,307.484 30.000 C 307.297 30.000,306.359 29.460,305.400 28.800 C 304.441 28.140,303.478 27.600,303.261 27.600 C 303.044 27.600,302.807 27.465,302.733 27.300 C 302.553 26.895,298.611 24.800,298.029 24.800 C 297.775 24.800,297.180 24.440,296.708 24.000 C 296.236 23.560,295.613 23.200,295.325 23.200 C 295.036 23.200,294.800 23.020,294.800 22.800 C 294.800 22.580,294.440 22.400,294.000 22.400 C 293.560 22.400,293.200 22.220,293.200 22.000 C 293.200 21.780,292.840 21.600,292.400 21.600 C 291.960 21.600,291.599 21.465,291.599 21.300 C 291.598 21.135,290.608 20.550,289.400 20.000 C 288.192 19.450,287.202 18.865,287.201 18.700 C 287.201 18.535,286.928 18.400,286.595 18.400 C 286.262 18.400,285.632 18.220,285.195 18.000 C 284.758 17.780,284.042 17.420,283.605 17.200 C 283.168 16.980,282.538 16.800,282.205 16.800 C 281.872 16.800,281.600 16.620,281.600 16.400 C 281.600 16.180,281.240 16.000,280.800 16.000 C 280.360 16.000,280.000 15.820,280.000 15.600 C 280.000 15.380,279.640 15.200,279.200 15.200 C 278.760 15.200,278.400 15.020,278.400 14.800 C 278.400 14.580,277.860 14.400,277.200 14.400 C 276.540 14.400,276.000 14.220,276.000 14.000 C 276.000 13.780,275.640 13.600,275.200 13.600 C 274.760 13.600,274.400 13.420,274.400 13.200 C 274.400 12.980,273.961 12.800,273.424 12.800 C 272.887 12.800,272.336 12.620,272.200 12.400 C 272.064 12.180,271.685 12.000,271.357 12.000 C 271.029 12.000,270.016 11.640,269.106 11.200 C 268.195 10.760,267.211 10.400,266.919 10.400 C 266.628 10.400,266.077 10.237,265.695 10.037 C 264.553 9.440,260.778 8.400,259.754 8.400 C 259.229 8.400,258.800 8.220,258.800 8.000 C 258.800 7.780,258.170 7.600,257.400 7.600 C 256.630 7.600,256.000 7.420,256.000 7.200 C 256.000 6.980,255.471 6.800,254.824 6.800 C 254.177 6.800,253.536 6.620,253.400 6.400 C 253.264 6.180,252.533 6.000,251.776 6.000 C 251.019 6.000,250.400 5.820,250.400 5.600 C 250.400 5.380,249.680 5.200,248.800 5.200 C 247.920 5.200,247.200 5.020,247.200 4.800 C 247.200 4.580,246.491 4.400,245.624 4.400 C 244.757 4.400,243.936 4.220,243.800 4.000 C 243.664 3.780,242.753 3.600,241.776 3.600 C 240.799 3.600,240.000 3.420,240.000 3.200 C 240.000 2.980,239.100 2.800,238.000 2.800 C 236.900 2.800,236.000 2.620,236.000 2.400 C 236.000 2.178,234.941 2.000,233.624 2.000 C 232.317 2.000,231.136 1.820,231.000 1.600 C 230.864 1.380,229.518 1.200,228.010 1.200 C 226.401 1.200,225.207 1.021,225.123 0.768 C 225.026 0.477,220.886 0.261,212.489 0.106 L 200.000 -0.123 200.000 21.738 M152.800 4.800 C 152.800 5.020,153.160 5.200,153.600 5.200 C 154.040 5.200,154.400 5.020,154.400 4.800 C 154.400 4.580,154.040 4.400,153.600 4.400 C 153.160 4.400,152.800 4.580,152.800 4.800 M152.446 19.920 C 151.042 24.254,149.665 28.520,149.387 29.400 L 148.881 31.000 139.141 31.102 C 133.783 31.158,129.152 31.296,128.849 31.409 C 128.373 31.586,132.414 34.851,136.415 37.522 C 140.411 40.190,144.400 43.399,144.400 43.947 C 144.400 44.581,139.562 60.047,138.769 61.948 C 138.178 63.364,138.955 62.939,145.098 58.486 C 156.555 50.181,154.321 50.542,161.600 55.821 C 170.681 62.406,171.388 62.868,171.511 62.303 C 171.572 62.022,170.357 57.953,168.811 53.261 C 165.358 42.782,165.297 43.877,169.500 40.812 C 181.532 32.039,181.970 31.703,181.712 31.446 C 181.577 31.311,177.005 31.200,171.552 31.200 L 161.637 31.200 158.603 21.905 C 156.935 16.793,155.442 12.482,155.285 12.325 C 155.128 12.168,153.851 15.586,152.446 19.920 M91.200 31.150 C 91.200 31.398,90.880 31.600,90.488 31.600 C 90.097 31.600,89.517 31.960,89.200 32.400 C 88.883 32.840,88.343 33.200,88.000 33.200 C 87.657 33.200,87.117 33.560,86.800 34.000 C 86.483 34.440,85.991 34.800,85.708 34.800 C 85.425 34.800,84.628 35.340,83.937 36.000 C 83.246 36.660,82.478 37.200,82.229 37.200 C 81.980 37.200,81.517 37.560,81.200 38.000 C 80.883 38.440,80.375 38.800,80.072 38.800 C 79.769 38.800,79.017 39.340,78.400 40.000 C 77.783 40.660,77.147 41.200,76.986 41.200 C 76.826 41.200,76.358 41.588,75.947 42.061 C 75.536 42.535,75.200 42.797,75.200 42.643 C 75.200 42.489,74.756 42.808,74.213 43.351 C 73.670 43.894,72.860 44.454,72.413 44.596 C 71.783 44.796,71.600 45.197,71.600 46.382 C 71.600 47.742,68.563 58.086,67.531 60.240 C 66.183 63.054,67.275 62.970,71.428 59.939 C 73.643 58.323,76.584 56.190,77.964 55.200 C 79.343 54.210,80.849 53.080,81.310 52.689 C 83.396 50.919,83.074 50.758,94.939 59.511 C 100.683 63.750,100.506 63.785,98.850 58.731 C 98.179 56.679,96.812 52.507,95.814 49.460 C 94.816 46.413,94.000 43.848,94.000 43.760 C 94.000 43.599,100.641 38.650,106.746 34.261 C 108.536 32.975,110.000 31.760,110.000 31.561 C 110.000 31.358,106.430 31.200,101.850 31.200 C 97.368 31.200,93.138 31.088,92.450 30.950 C 91.643 30.789,91.200 30.859,91.200 31.150 M154.406 72.088 C 152.473 78.331,148.986 88.683,148.675 89.100 C 148.394 89.476,145.886 89.600,138.551 89.600 C 133.188 89.600,128.800 89.737,128.800 89.905 C 128.800 90.192,134.591 94.545,140.900 99.000 C 145.216 102.047,145.227 100.287,140.802 114.000 C 138.159 122.188,138.069 121.976,142.730 118.530 C 145.823 116.243,147.641 114.913,152.388 111.462 C 155.570 109.149,154.450 108.712,164.551 116.212 C 170.288 120.471,171.600 121.296,171.600 120.639 C 171.600 120.051,169.037 111.771,168.368 110.200 C 168.181 109.760,167.650 108.140,167.188 106.600 C 166.726 105.060,166.186 103.401,165.988 102.912 C 165.604 101.964,166.045 101.550,172.200 97.091 C 179.640 91.700,181.600 90.204,181.600 89.918 C 181.600 89.743,177.212 89.600,171.849 89.600 C 160.776 89.600,161.671 89.898,160.447 85.800 C 158.796 80.276,155.661 71.101,155.302 70.742 C 155.081 70.521,154.727 71.052,154.406 72.088 M82.046 73.902 C 81.521 75.606,80.164 79.790,79.030 83.200 L 76.968 89.400 67.084 89.507 C 61.648 89.566,57.200 89.774,57.200 89.969 C 57.200 90.294,59.453 91.995,68.551 98.536 C 70.338 99.821,72.054 101.116,72.363 101.414 C 72.964 101.991,72.610 103.313,68.755 114.859 C 66.486 121.659,66.549 121.810,70.460 118.931 C 71.857 117.903,73.900 116.404,75.000 115.601 C 76.100 114.797,78.403 113.102,80.118 111.834 C 81.833 110.566,83.453 109.623,83.718 109.739 C 83.983 109.855,85.460 110.865,87.000 111.983 C 97.731 119.778,99.797 121.193,99.920 120.834 C 99.985 120.641,99.203 117.989,98.181 114.941 C 97.158 111.894,95.800 107.715,95.163 105.656 L 94.003 101.912 95.085 101.056 C 95.680 100.585,99.235 97.980,102.984 95.266 C 106.733 92.552,109.860 90.167,109.933 89.966 C 110.012 89.751,105.952 89.600,100.082 89.600 L 90.097 89.600 89.670 88.500 C 89.068 86.954,86.257 78.386,85.174 74.800 C 83.669 69.819,83.333 69.723,82.046 73.902 M31.970 89.900 C 31.660 90.505,31.089 91.291,30.703 91.647 C 30.316 92.003,30.000 92.420,30.000 92.575 C 30.000 92.729,29.460 93.641,28.800 94.600 C 27.328 96.740,27.939 97.926,29.717 96.380 C 29.983 96.149,31.955 94.693,34.100 93.146 C 38.618 89.886,38.757 89.600,35.824 89.600 C 34.627 89.600,33.536 89.420,33.400 89.200 C 32.989 88.535,32.564 88.743,31.970 89.900 M370.616 95.174 C 370.431 95.473,345.002 95.600,285.176 95.600 L 200.000 95.600 200.000 121.600 L 200.000 147.600 297.000 147.600 C 357.344 147.600,394.000 147.458,394.000 147.224 C 394.000 147.017,393.820 146.736,393.600 146.600 C 393.380 146.464,393.200 145.823,393.200 145.176 C 393.200 144.529,393.020 144.000,392.800 144.000 C 392.580 144.000,392.400 143.370,392.400 142.600 C 392.400 141.830,392.241 141.200,392.046 141.200 C 391.851 141.200,391.569 140.213,391.418 139.006 C 391.267 137.800,390.977 136.709,390.772 136.583 C 390.567 136.456,390.400 135.949,390.400 135.456 C 390.400 134.963,390.257 134.389,390.082 134.180 C 389.907 133.971,389.535 133.080,389.255 132.200 C 388.976 131.320,388.579 130.195,388.374 129.700 C 388.168 129.205,387.799 128.305,387.553 127.700 C 387.308 127.095,386.948 126.287,386.753 125.905 C 386.559 125.523,386.400 124.938,386.400 124.605 C 386.400 124.272,386.220 124.000,386.000 124.000 C 385.780 124.000,385.600 123.561,385.600 123.024 C 385.600 122.487,385.420 121.936,385.200 121.800 C 384.980 121.664,384.800 121.203,384.800 120.776 C 384.800 120.349,384.620 120.000,384.400 120.000 C 384.180 120.000,384.000 119.640,384.000 119.200 C 384.000 118.760,383.820 118.400,383.600 118.400 C 383.380 118.400,383.200 118.040,383.200 117.600 C 383.200 117.160,383.020 116.800,382.800 116.800 C 382.580 116.800,382.401 116.485,382.403 116.100 C 382.407 115.325,379.186 108.678,378.704 108.467 C 378.537 108.393,378.400 107.988,378.400 107.567 C 378.400 107.145,378.220 106.800,378.000 106.800 C 377.780 106.800,377.600 106.440,377.600 106.000 C 377.600 105.560,377.420 105.200,377.200 105.200 C 376.980 105.200,376.800 104.964,376.800 104.675 C 376.800 104.387,376.469 103.796,376.065 103.362 C 375.661 102.928,375.199 102.050,375.039 101.411 C 374.878 100.772,374.399 99.760,373.973 99.163 C 373.548 98.565,373.200 97.879,373.200 97.638 C 373.200 97.397,373.020 97.200,372.800 97.200 C 372.580 97.200,372.400 96.958,372.400 96.662 C 372.400 95.869,370.939 94.651,370.616 95.174 M22.400 106.000 C 22.400 106.440,22.220 106.800,22.000 106.800 C 21.780 106.800,21.600 107.145,21.600 107.567 C 21.600 107.988,21.465 108.393,21.300 108.467 C 20.860 108.662,19.200 111.978,19.200 112.661 C 19.200 112.984,19.020 113.136,18.800 113.000 C 18.574 112.861,18.400 113.185,18.400 113.743 C 18.400 114.288,18.175 114.837,17.900 114.963 C 17.625 115.089,17.806 115.092,18.303 114.968 C 18.997 114.796,20.198 115.490,23.503 117.971 C 28.708 121.880,28.709 121.879,26.170 113.989 C 23.584 105.949,22.400 103.441,22.400 106.000 M153.440 133.322 C 152.582 136.005,151.207 140.270,150.384 142.800 L 148.887 147.400 138.876 147.600 C 133.370 147.710,128.772 147.893,128.658 148.007 C 128.464 148.202,130.051 149.407,140.240 156.800 C 142.638 158.540,144.380 160.085,144.387 160.479 C 144.397 160.986,140.218 174.418,138.582 179.138 C 138.301 179.950,142.603 177.029,151.853 170.128 C 155.250 167.594,155.256 167.593,157.800 169.512 C 165.760 175.517,171.600 179.511,171.600 178.951 C 171.600 178.347,170.409 174.540,167.210 164.925 C 165.429 159.571,164.726 160.779,173.200 154.626 C 177.050 151.830,180.599 149.247,181.086 148.886 C 182.601 147.766,181.433 147.613,171.349 147.606 L 161.697 147.600 161.276 146.500 C 161.045 145.895,159.661 141.710,158.201 137.200 C 156.741 132.690,155.423 128.875,155.273 128.722 C 155.123 128.569,154.298 130.639,153.440 133.322 M83.099 129.093 C 83.013 129.262,81.613 133.495,79.989 138.500 L 77.035 147.600 67.141 147.600 C 61.700 147.600,57.148 147.760,57.027 147.956 C 56.906 148.152,60.397 150.897,64.784 154.056 C 69.171 157.215,72.769 160.040,72.780 160.333 C 72.791 160.627,71.899 163.597,70.798 166.933 C 67.426 177.153,67.200 177.884,67.200 178.553 C 67.200 179.508,66.983 179.640,75.295 173.610 C 84.343 167.045,83.123 167.328,87.715 170.726 C 97.921 178.275,100.000 179.682,100.000 179.038 C 100.000 178.815,97.484 170.956,94.958 163.292 C 94.431 161.692,94.000 160.304,94.000 160.207 C 94.000 160.038,101.640 154.393,105.499 151.711 C 108.315 149.753,110.000 148.350,110.000 147.963 C 110.000 147.771,105.459 147.566,99.909 147.507 L 89.819 147.400 88.766 144.200 C 88.188 142.440,86.852 138.339,85.797 135.087 C 83.993 129.521,83.472 128.363,83.099 129.093 M11.388 130.222 C 11.252 130.650,10.975 131.313,10.771 131.695 C 10.567 132.077,10.400 132.664,10.400 133.000 C 10.400 133.336,10.237 133.923,10.037 134.305 C 9.440 135.447,8.400 139.222,8.400 140.246 C 8.400 140.771,8.220 141.200,8.000 141.200 C 7.780 141.200,7.600 141.819,7.600 142.576 C 7.600 143.333,7.420 144.064,7.200 144.200 C 6.980 144.336,6.800 144.876,6.800 145.400 C 6.800 145.924,6.620 146.464,6.400 146.600 C 6.180 146.736,6.000 147.467,6.000 148.224 C 6.000 148.981,5.820 149.600,5.600 149.600 C 5.380 149.600,5.200 150.320,5.200 151.200 C 5.200 152.080,5.020 152.800,4.800 152.800 C 4.580 152.800,4.400 153.509,4.400 154.376 C 4.400 155.243,4.220 156.064,4.000 156.200 C 3.780 156.336,3.600 157.247,3.600 158.224 C 3.600 159.201,3.420 160.000,3.200 160.000 C 2.980 160.000,2.800 160.900,2.800 162.000 C 2.800 163.100,2.620 164.000,2.400 164.000 C 2.179 164.000,2.000 165.040,2.000 166.320 C 2.000 167.596,1.841 168.811,1.646 169.020 C 1.451 169.229,1.208 170.840,1.106 172.600 C 1.003 174.360,0.998 175.575,1.093 175.300 C 1.189 175.025,1.445 174.800,1.663 174.800 C 2.019 174.800,5.693 172.204,9.677 169.137 C 11.817 167.489,11.279 167.210,23.873 176.493 C 28.261 179.726,28.882 179.764,27.619 176.719 C 26.542 174.123,22.386 160.613,22.541 160.210 C 22.640 159.953,25.033 158.057,27.860 155.998 C 30.687 153.938,34.212 151.364,35.693 150.277 C 37.174 149.190,38.288 148.143,38.169 147.950 C 38.050 147.758,33.490 147.600,28.035 147.600 L 18.117 147.600 16.014 141.100 C 14.857 137.525,13.708 133.970,13.461 133.200 C 12.664 130.716,11.680 129.302,11.388 130.222 M395.600 156.776 C 395.600 157.229,395.780 157.600,396.000 157.600 C 396.220 157.600,396.400 157.341,396.400 157.024 C 396.400 156.707,396.220 156.336,396.000 156.200 C 395.780 156.064,395.600 156.323,395.600 156.776 M399.693 182.800 C 399.693 183.570,399.775 183.885,399.876 183.500 C 399.976 183.115,399.976 182.485,399.876 182.100 C 399.775 181.715,399.693 182.030,399.693 182.800 M0.106 212.489 C 0.261 220.886,0.477 225.026,0.768 225.123 C 1.021 225.207,1.200 226.401,1.200 228.010 C 1.200 229.518,1.380 230.864,1.600 231.000 C 1.820 231.136,2.000 232.317,2.000 233.624 C 2.000 234.941,2.178 236.000,2.400 236.000 C 2.620 236.000,2.800 236.900,2.800 238.000 C 2.800 239.100,2.980 240.000,3.200 240.000 C 3.420 240.000,3.600 240.799,3.600 241.776 C 3.600 242.753,3.780 243.664,4.000 243.800 C 4.220 243.936,4.400 244.757,4.400 245.624 C 4.400 246.491,4.580 247.200,4.800 247.200 C 5.020 247.200,5.200 247.920,5.200 248.800 C 5.200 249.680,5.380 250.400,5.600 250.400 C 5.820 250.400,6.000 251.030,6.000 251.800 C 6.000 252.570,6.180 253.200,6.400 253.200 C 6.620 253.200,6.800 253.019,6.800 252.799 C 6.800 252.531,71.138 252.431,200.400 252.499 L 394.000 252.600 394.000 251.524 C 394.000 250.932,394.180 250.336,394.400 250.200 C 394.620 250.064,394.800 249.333,394.800 248.576 C 394.800 247.819,394.980 247.200,395.200 247.200 C 395.420 247.200,395.600 246.491,395.600 245.624 C 395.600 244.757,395.780 243.936,396.000 243.800 C 396.220 243.664,396.400 242.753,396.400 241.776 C 396.400 240.799,396.580 240.000,396.800 240.000 C 397.020 240.000,397.200 239.111,397.200 238.024 C 397.200 236.937,397.380 235.936,397.600 235.800 C 397.820 235.664,398.000 234.584,398.000 233.400 C 398.000 232.216,398.180 231.136,398.400 231.000 C 398.620 230.864,398.800 229.518,398.800 228.010 C 398.800 226.401,398.979 225.207,399.232 225.123 C 399.523 225.026,399.739 220.886,399.894 212.489 L 400.123 200.000 200.000 200.000 L -0.123 200.000 0.106 212.489 M29.001 304.799 C 28.714 305.263,29.881 307.505,30.900 308.447 C 31.285 308.803,31.600 309.348,31.600 309.659 C 31.600 309.969,31.960 310.483,32.400 310.800 C 32.840 311.117,33.200 311.657,33.200 312.000 C 33.200 312.343,33.560 312.883,34.000 313.200 C 34.440 313.517,34.800 314.009,34.800 314.292 C 34.800 314.575,35.340 315.372,36.000 316.063 C 36.660 316.754,37.200 317.522,37.200 317.771 C 37.200 318.020,37.560 318.483,38.000 318.800 C 38.440 319.117,38.800 319.625,38.800 319.928 C 38.800 320.231,39.296 320.956,39.901 321.540 C 40.507 322.123,41.535 323.320,42.187 324.200 C 42.838 325.080,43.603 326.038,43.886 326.329 C 44.168 326.619,44.400 327.012,44.400 327.202 C 44.400 327.392,45.255 328.446,46.300 329.545 C 48.641 332.006,49.999 333.600,49.756 333.600 C 49.655 333.600,51.423 335.406,53.686 337.613 C 58.619 342.425,57.571 341.377,62.287 346.207 C 64.439 348.410,66.830 350.658,67.600 351.201 C 68.370 351.745,69.770 352.957,70.711 353.895 C 71.651 354.833,72.588 355.600,72.792 355.600 C 72.997 355.600,73.614 356.050,74.164 356.600 C 75.319 357.755,75.600 357.834,75.600 357.000 C 75.600 356.468,89.689 356.400,200.000 356.400 C 282.667 356.400,324.400 356.534,324.400 356.800 C 324.400 357.423,324.991 357.275,326.000 356.400 C 326.507 355.960,327.070 355.600,327.251 355.600 C 327.431 355.600,328.352 354.835,329.297 353.900 C 330.241 352.965,331.715 351.674,332.571 351.031 C 333.428 350.388,335.764 348.190,337.764 346.148 C 339.764 344.106,341.580 342.253,341.800 342.030 C 342.020 341.808,344.003 339.865,346.207 337.713 C 348.410 335.561,350.658 333.170,351.201 332.400 C 351.745 331.630,352.957 330.230,353.895 329.289 C 354.833 328.349,355.600 327.423,355.600 327.232 C 355.600 327.041,356.118 326.305,356.751 325.596 C 358.469 323.673,358.800 323.256,358.800 323.013 C 358.800 322.892,359.340 322.228,360.000 321.537 C 360.660 320.846,361.200 320.078,361.200 319.829 C 361.200 319.580,361.560 319.117,362.000 318.800 C 362.440 318.483,362.800 318.020,362.800 317.771 C 362.800 317.522,363.340 316.754,364.000 316.063 C 364.660 315.372,365.200 314.575,365.200 314.292 C 365.200 314.009,365.560 313.517,366.000 313.200 C 366.440 312.883,366.800 312.303,366.800 311.912 C 366.800 311.520,366.950 311.200,367.132 311.200 C 367.315 311.200,367.719 310.705,368.030 310.100 C 368.340 309.495,368.911 308.709,369.297 308.353 C 369.684 307.997,370.000 307.489,370.000 307.225 C 370.000 306.960,370.278 306.465,370.618 306.125 C 370.958 305.785,371.168 305.303,371.085 305.054 C 370.883 304.450,29.374 304.196,29.001 304.799 M144.000 392.800 C 144.000 393.020,144.270 393.200,144.600 393.200 C 144.930 393.200,145.200 393.020,145.200 392.800 C 145.200 392.580,144.930 392.400,144.600 392.400 C 144.270 392.400,144.000 392.580,144.000 392.800 M153.000 395.200 C 153.136 395.420,153.507 395.600,153.824 395.600 C 154.141 395.600,154.400 395.420,154.400 395.200 C 154.400 394.980,154.029 394.800,153.576 394.800 C 153.123 394.800,152.864 394.980,153.000 395.200 M160.000 396.800 C 160.000 397.020,160.360 397.200,160.800 397.200 C 161.240 397.200,161.600 397.020,161.600 396.800 C 161.600 396.580,161.240 396.400,160.800 396.400 C 160.360 396.400,160.000 396.580,160.000 396.800 M238.600 396.800 C 238.464 397.020,238.623 397.200,238.953 397.200 C 239.283 397.200,239.664 397.020,239.800 396.800 C 239.936 396.580,239.777 396.400,239.447 396.400 C 239.117 396.400,238.736 396.580,238.600 396.800 M169.000 398.400 C 169.136 398.620,169.507 398.800,169.824 398.800 C 170.141 398.800,170.400 398.620,170.400 398.400 C 170.400 398.180,170.029 398.000,169.576 398.000 C 169.123 398.000,168.864 398.180,169.000 398.400 M229.600 398.400 C 229.600 398.620,229.859 398.800,230.176 398.800 C 230.493 398.800,230.864 398.620,231.000 398.400 C 231.136 398.180,230.877 398.000,230.424 398.000 C 229.971 398.000,229.600 398.180,229.600 398.400 M174.800 399.200 C 174.800 399.420,175.160 399.600,175.600 399.600 C 176.040 399.600,176.400 399.420,176.400 399.200 C 176.400 398.980,176.040 398.800,175.600 398.800 C 175.160 398.800,174.800 398.980,174.800 399.200 "
            stroke="none"
            fill="#f3f3f3"
            fill-rule="evenodd"
        ></path>
    </g>
</svg>
