<svg id="svg" version="1.1" xmlns="http://www.w3.org/2000/svg" xmlns:xlink="http://www.w3.org/1999/xlink" width="400" height="400" viewBox="0, 0, 400,400"><g id="svgg"><path id="path0" d="M179.485 0.274 C 177.115 0.368,175.665 0.581,175.809 0.815 C 175.940 1.027,175.587 1.200,175.025 1.200 L 174.002 1.200 173.901 87.500 L 173.800 173.800 87.500 173.901 L 1.200 174.002 1.200 174.968 C 1.200 175.499,0.975 176.008,0.700 176.100 C 0.308 176.231,0.200 181.352,0.200 199.913 C 0.200 218.297,0.311 223.671,0.700 224.060 C 0.975 224.335,1.200 224.884,1.200 225.280 C 1.200 225.971,4.649 226.000,87.120 226.000 C 153.413 226.000,173.150 226.110,173.520 226.480 C 173.890 226.850,174.000 246.587,174.000 312.880 C 174.000 397.288,174.013 398.800,174.767 398.800 C 175.188 398.800,175.599 398.998,175.680 399.239 C 175.781 399.544,180.622 399.745,191.413 399.895 C 208.126 400.127,225.665 399.740,224.749 399.160 C 224.343 398.903,224.435 398.811,225.100 398.806 L 226.000 398.800 226.000 312.880 C 226.000 246.587,226.110 226.850,226.480 226.480 C 226.850 226.110,246.587 226.000,312.880 226.000 C 390.432 226.000,398.800 225.939,398.800 225.376 C 398.800 225.033,398.967 224.856,399.171 224.982 C 399.645 225.275,399.790 221.269,399.932 204.066 C 400.058 188.847,399.665 174.456,399.146 175.274 C 398.910 175.645,398.810 175.535,398.806 174.900 L 398.800 174.000 312.880 174.000 C 246.587 174.000,226.850 173.890,226.480 173.520 C 226.110 173.150,226.000 153.413,226.000 87.120 L 226.000 1.200 225.033 1.200 C 224.502 1.200,223.995 0.984,223.907 0.720 C 223.747 0.241,189.061 -0.107,179.485 0.274 M290.705 84.697 L 252.400 122.994 252.400 135.097 C 252.400 141.754,252.536 147.200,252.702 147.200 C 253.215 147.200,341.600 58.623,341.600 58.109 C 341.600 57.558,333.012 48.800,332.472 48.800 C 332.278 48.800,331.554 48.260,330.863 47.600 C 330.172 46.940,329.473 46.400,329.309 46.400 C 329.144 46.400,311.773 63.634,290.705 84.697 M53.271 62.766 C 50.812 65.167,48.800 67.300,48.800 67.507 C 48.800 67.713,48.255 68.451,47.590 69.148 C 45.946 70.867,42.658 67.312,85.280 109.900 L 123.410 148.000 134.805 147.994 C 141.431 147.990,146.451 147.826,146.800 147.602 C 147.411 147.209,59.168 58.400,58.167 58.400 C 57.933 58.400,55.730 60.365,53.271 62.766 M252.800 252.738 C 252.800 253.101,341.422 341.317,341.991 341.522 C 342.385 341.663,351.200 333.000,351.200 332.472 C 351.200 332.278,351.740 331.554,352.400 330.863 C 353.060 330.172,353.600 329.471,353.600 329.304 C 353.600 329.138,336.365 311.766,315.301 290.701 L 277.002 252.400 264.901 252.400 C 258.245 252.400,252.800 252.552,252.800 252.738 M102.985 297.211 C 78.574 321.623,58.551 341.746,58.490 341.929 C 58.336 342.392,64.643 348.824,64.951 348.516 C 65.088 348.379,65.200 348.527,65.200 348.845 C 65.200 349.397,66.353 350.470,67.042 350.558 C 67.221 350.581,68.035 351.275,68.852 352.100 C 69.669 352.925,70.488 353.600,70.671 353.600 C 70.855 353.600,88.329 336.273,109.503 315.095 L 148.000 276.590 147.994 265.195 C 147.991 258.928,147.849 253.581,147.678 253.313 C 147.473 252.990,132.485 267.711,102.985 297.211 " stroke="none" fill="#dc0424" fill-rule="evenodd"></path><path id="path1" d="M146.400 6.400 C 146.400 6.620,146.029 6.800,145.576 6.800 C 145.123 6.800,144.864 6.980,145.000 7.200 C 145.136 7.420,145.072 7.600,144.857 7.600 C 144.642 7.600,144.376 7.375,144.265 7.100 C 144.104 6.700,144.057 6.700,144.032 7.100 C 144.014 7.375,143.550 7.600,143.000 7.600 C 142.450 7.600,142.000 7.780,142.000 8.000 C 142.000 8.220,141.460 8.400,140.800 8.400 C 140.140 8.400,139.600 8.569,139.600 8.775 C 139.600 8.981,138.993 9.051,138.251 8.931 C 137.461 8.803,136.788 8.896,136.627 9.156 C 136.476 9.400,136.003 9.600,135.576 9.600 C 135.149 9.600,134.800 9.742,134.800 9.915 C 134.800 10.088,134.218 10.274,133.507 10.328 C 132.795 10.383,132.039 10.601,131.827 10.813 C 131.614 11.026,131.116 11.200,130.720 11.200 C 130.324 11.200,130.000 11.380,130.000 11.600 C 130.000 11.820,129.460 12.000,128.800 12.000 C 128.140 12.000,127.600 12.180,127.600 12.400 C 127.600 12.620,127.105 12.803,126.500 12.806 C 125.643 12.811,125.532 12.898,126.000 13.200 C 126.455 13.494,126.286 13.589,125.300 13.594 C 124.585 13.597,124.000 13.780,124.000 14.000 C 124.000 14.220,123.415 14.403,122.700 14.406 C 121.714 14.411,121.545 14.506,122.000 14.800 C 122.455 15.094,122.286 15.189,121.300 15.194 C 120.585 15.197,120.000 15.380,120.000 15.600 C 120.000 15.820,119.640 16.000,119.200 16.000 C 118.760 16.000,118.400 16.180,118.400 16.400 C 118.400 16.620,118.130 16.800,117.800 16.800 C 117.470 16.800,117.200 16.980,117.200 17.200 C 117.200 17.420,116.570 17.600,115.800 17.600 C 115.030 17.600,114.400 17.780,114.400 18.000 C 114.400 18.220,114.040 18.400,113.600 18.400 C 113.160 18.400,112.800 18.580,112.800 18.800 C 112.800 19.020,112.440 19.200,112.000 19.200 C 111.560 19.200,111.200 19.380,111.200 19.600 C 111.200 19.820,110.970 20.000,110.688 20.000 C 110.407 20.000,109.917 20.360,109.600 20.800 C 109.244 21.294,108.559 21.602,107.812 21.606 C 106.882 21.611,106.740 21.703,107.200 22.000 C 107.664 22.300,107.538 22.389,106.647 22.394 C 106.013 22.397,105.203 22.715,104.847 23.100 C 104.491 23.485,103.930 23.858,103.600 23.930 C 103.270 24.001,102.940 24.226,102.867 24.430 C 102.793 24.633,102.401 24.800,101.995 24.800 C 101.589 24.800,101.019 25.038,100.729 25.329 C 100.438 25.619,100.057 25.871,99.883 25.887 C 99.111 25.960,97.200 26.930,97.200 27.249 C 97.200 27.442,96.840 27.600,96.400 27.600 C 95.960 27.600,95.600 27.780,95.600 28.000 C 95.600 28.220,95.330 28.400,95.000 28.400 C 94.670 28.400,94.400 28.580,94.400 28.800 C 94.400 29.020,94.130 29.200,93.800 29.200 C 93.470 29.200,93.200 29.380,93.200 29.600 C 93.200 29.820,92.970 30.000,92.688 30.000 C 92.407 30.000,91.917 30.360,91.600 30.800 C 91.283 31.240,90.658 31.603,90.212 31.606 C 89.541 31.611,89.504 31.680,90.000 32.000 C 90.496 32.320,90.459 32.389,89.788 32.394 C 89.342 32.397,88.717 32.760,88.400 33.200 C 88.083 33.640,87.503 34.000,87.112 34.000 C 86.720 34.000,86.400 34.180,86.400 34.400 C 86.400 34.620,86.080 34.800,85.688 34.800 C 85.297 34.800,84.717 35.160,84.400 35.600 C 84.083 36.040,83.615 36.400,83.360 36.400 C 83.105 36.400,82.155 37.120,81.248 38.000 C 80.342 38.879,79.600 39.411,79.600 39.181 C 79.600 38.952,79.150 39.214,78.600 39.764 C 77.570 40.793,77.374 41.200,77.905 41.200 C 78.073 41.200,93.767 56.760,112.780 75.778 C 131.793 94.795,147.495 110.265,147.674 110.154 C 148.324 109.752,148.072 7.729,147.419 7.076 C 147.100 6.757,146.950 6.384,147.086 6.248 C 147.222 6.111,147.123 6.000,146.867 6.000 C 146.610 6.000,146.400 6.180,146.400 6.400 M252.900 6.623 C 252.430 7.133,252.089 110.400,252.557 110.400 C 252.643 110.400,268.384 94.723,287.537 75.562 L 322.360 40.724 321.398 39.762 C 320.869 39.233,320.230 38.800,319.979 38.800 C 319.727 38.800,319.017 38.260,318.400 37.600 C 317.783 36.940,317.031 36.400,316.728 36.400 C 316.425 36.400,315.917 36.040,315.600 35.600 C 315.283 35.160,314.703 34.800,314.312 34.800 C 313.920 34.800,313.600 34.620,313.600 34.400 C 313.600 34.180,313.312 34.000,312.960 34.000 C 312.609 34.000,311.817 33.460,311.200 32.800 C 310.583 32.140,309.831 31.600,309.528 31.600 C 309.225 31.600,308.717 31.240,308.400 30.800 C 308.083 30.360,307.593 30.000,307.312 30.000 C 307.030 30.000,306.800 29.820,306.800 29.600 C 306.800 29.380,306.564 29.200,306.275 29.200 C 305.987 29.200,305.364 28.840,304.892 28.400 C 304.420 27.960,303.771 27.600,303.450 27.600 C 303.129 27.600,302.807 27.443,302.733 27.251 C 302.565 26.809,298.604 24.800,297.902 24.800 C 297.613 24.800,297.117 24.440,296.800 24.000 C 296.444 23.506,295.759 23.198,295.012 23.194 C 294.082 23.189,293.940 23.097,294.400 22.800 C 294.885 22.486,294.828 22.411,294.100 22.406 C 293.605 22.403,293.200 22.220,293.200 22.000 C 293.200 21.780,292.703 21.600,292.096 21.600 C 291.426 21.600,290.796 21.286,290.493 20.800 C 290.218 20.360,289.725 20.000,289.397 20.000 C 289.068 20.000,288.800 19.820,288.800 19.600 C 288.800 19.380,288.215 19.197,287.500 19.194 C 286.514 19.189,286.345 19.094,286.800 18.800 C 287.285 18.486,287.228 18.411,286.500 18.406 C 286.005 18.403,285.600 18.220,285.600 18.000 C 285.600 17.780,285.150 17.600,284.600 17.600 C 284.050 17.600,283.600 17.420,283.600 17.200 C 283.600 16.980,283.150 16.800,282.600 16.800 C 282.050 16.800,281.600 16.620,281.600 16.400 C 281.600 16.180,281.240 16.000,280.800 16.000 C 280.360 16.000,280.000 15.820,280.000 15.600 C 280.000 15.380,279.640 15.200,279.200 15.200 C 278.760 15.200,278.400 15.020,278.400 14.800 C 278.400 14.580,277.860 14.400,277.200 14.400 C 276.540 14.400,276.000 14.220,276.000 14.000 C 276.000 13.780,275.640 13.600,275.200 13.600 C 274.760 13.600,274.400 13.420,274.400 13.200 C 274.400 12.980,273.950 12.800,273.400 12.800 C 272.850 12.800,272.400 12.620,272.400 12.400 C 272.400 12.180,272.038 12.000,271.595 12.000 C 271.152 12.000,270.477 11.841,270.095 11.647 C 268.149 10.657,264.820 9.600,263.648 9.600 C 263.156 9.600,262.850 9.443,262.968 9.251 C 263.192 8.889,261.014 8.412,259.100 8.404 C 258.495 8.402,258.000 8.220,258.000 8.000 C 258.000 7.780,257.550 7.600,257.000 7.600 C 256.450 7.600,256.000 7.420,256.000 7.200 C 256.000 6.980,255.475 6.800,254.833 6.800 C 254.192 6.800,253.607 6.638,253.533 6.439 C 253.460 6.241,253.175 6.323,252.900 6.623 M39.686 78.624 C 39.183 79.161,38.958 79.600,39.185 79.600 C 39.413 79.600,38.879 80.342,38.000 81.248 C 37.120 82.155,36.400 83.105,36.400 83.360 C 36.400 83.615,36.040 84.083,35.600 84.400 C 35.160 84.717,34.800 85.297,34.800 85.688 C 34.800 86.080,34.620 86.400,34.400 86.400 C 34.180 86.400,34.000 86.720,34.000 87.112 C 34.000 87.503,33.640 88.083,33.200 88.400 C 32.760 88.717,32.400 89.225,32.400 89.528 C 32.400 89.831,31.860 90.583,31.200 91.200 C 30.540 91.817,30.000 92.519,30.000 92.760 C 30.000 93.002,29.820 93.200,29.600 93.200 C 29.380 93.200,29.200 93.436,29.200 93.725 C 29.200 94.013,28.840 94.636,28.400 95.108 C 27.960 95.580,27.600 96.157,27.600 96.389 C 27.600 96.896,26.794 98.358,26.096 99.117 C 25.819 99.418,25.695 99.830,25.820 100.032 C 25.945 100.235,25.860 100.400,25.631 100.400 C 25.402 100.400,25.091 100.893,24.940 101.496 C 24.789 102.099,24.424 102.833,24.129 103.128 C 23.834 103.423,23.695 103.830,23.820 104.032 C 23.945 104.235,23.857 104.400,23.624 104.400 C 23.391 104.400,23.200 104.771,23.200 105.224 C 23.200 105.677,23.020 105.936,22.800 105.800 C 22.580 105.664,22.400 105.833,22.400 106.176 C 22.400 106.519,22.220 106.800,22.000 106.800 C 21.780 106.800,21.600 107.300,21.600 107.912 C 21.600 108.565,21.270 109.261,20.800 109.600 C 20.360 109.917,20.000 110.407,20.000 110.688 C 20.000 110.970,19.820 111.200,19.600 111.200 C 19.380 111.200,19.200 111.560,19.200 112.000 C 19.200 112.440,19.020 112.800,18.800 112.800 C 18.580 112.800,18.400 113.145,18.400 113.567 C 18.400 113.988,18.222 114.393,18.003 114.467 C 17.785 114.540,17.566 115.095,17.516 115.700 C 17.466 116.305,17.285 116.800,17.113 116.800 C 16.941 116.800,16.800 117.160,16.800 117.600 C 16.800 118.040,16.620 118.400,16.400 118.400 C 16.180 118.400,16.000 118.760,16.000 119.200 C 16.000 119.640,15.820 120.000,15.600 120.000 C 15.380 120.000,15.197 120.585,15.194 121.300 C 15.189 122.286,15.094 122.455,14.800 122.000 C 14.506 121.545,14.411 121.714,14.406 122.700 C 14.403 123.415,14.220 124.000,14.000 124.000 C 13.780 124.000,13.597 124.585,13.594 125.300 C 13.589 126.286,13.494 126.455,13.200 126.000 C 12.898 125.532,12.811 125.643,12.806 126.500 C 12.803 127.105,12.620 127.600,12.400 127.600 C 12.180 127.600,12.000 128.125,12.000 128.767 C 12.000 129.408,11.837 129.993,11.638 130.067 C 11.439 130.140,11.214 130.650,11.138 131.200 C 11.062 131.750,10.866 132.300,10.702 132.422 C 10.538 132.545,10.364 133.130,10.315 133.722 C 10.266 134.315,10.085 134.800,9.913 134.800 C 9.741 134.800,9.600 135.351,9.600 136.024 C 9.600 136.828,9.446 137.152,9.150 136.969 C 8.838 136.776,8.752 137.136,8.870 138.145 C 8.963 138.945,8.896 139.600,8.720 139.600 C 8.544 139.600,8.400 139.960,8.400 140.400 C 8.400 140.840,8.220 141.200,8.000 141.200 C 7.780 141.200,7.600 141.830,7.600 142.600 C 7.600 143.450,7.404 144.002,7.100 144.006 C 6.767 144.010,6.800 144.142,7.200 144.400 C 7.600 144.658,7.633 144.790,7.300 144.794 C 7.025 144.797,6.800 145.160,6.800 145.600 C 6.800 146.040,6.620 146.400,6.400 146.400 C 6.180 146.400,6.000 146.610,6.000 146.867 C 6.000 147.123,6.111 147.222,6.248 147.086 C 6.384 146.950,6.757 147.100,7.076 147.419 C 7.727 148.069,109.752 148.325,110.152 147.678 C 110.262 147.500,94.659 131.660,75.480 112.478 C 56.302 93.295,40.608 77.611,40.605 77.624 C 40.602 77.638,40.189 78.088,39.686 78.624 M358.800 77.905 C 358.800 78.073,343.236 93.771,324.213 112.790 C 301.182 135.815,289.788 147.472,290.113 147.678 C 291.187 148.361,392.529 148.030,393.400 147.341 C 393.954 146.903,394.046 146.651,393.700 146.521 C 393.425 146.418,393.200 145.808,393.200 145.167 C 393.200 144.525,393.020 144.000,392.800 144.000 C 392.580 144.000,392.400 143.370,392.400 142.600 C 392.400 141.830,392.243 141.200,392.052 141.200 C 391.860 141.200,391.584 140.300,391.438 139.200 C 391.292 138.100,390.999 137.200,390.786 137.200 C 390.574 137.200,390.400 136.581,390.400 135.824 C 390.400 135.067,390.220 134.336,390.000 134.200 C 389.780 134.064,389.600 133.601,389.600 133.171 C 389.600 132.741,389.420 132.032,389.200 131.595 C 388.980 131.158,388.620 130.442,388.400 130.005 C 388.180 129.568,388.000 128.848,388.000 128.405 C 388.000 127.962,387.820 127.600,387.600 127.600 C 387.380 127.600,387.200 127.150,387.200 126.600 C 387.200 126.050,387.020 125.600,386.800 125.600 C 386.580 125.600,386.400 125.240,386.400 124.800 C 386.400 124.360,386.220 124.000,386.000 124.000 C 385.780 124.000,385.600 123.460,385.600 122.800 C 385.600 122.140,385.420 121.600,385.200 121.600 C 384.980 121.600,384.800 121.240,384.800 120.800 C 384.800 120.360,384.620 120.000,384.400 120.000 C 384.180 120.000,384.000 119.640,384.000 119.200 C 384.000 118.760,383.820 118.400,383.600 118.400 C 383.380 118.400,383.200 118.128,383.200 117.795 C 383.200 117.462,382.992 116.787,382.738 116.295 C 381.767 114.418,381.600 113.993,381.600 113.405 C 381.600 113.072,381.420 112.800,381.200 112.800 C 380.980 112.800,380.800 112.440,380.800 112.000 C 380.800 111.560,380.620 111.200,380.400 111.200 C 380.180 111.200,380.000 110.930,380.000 110.600 C 380.000 110.270,379.820 110.000,379.600 110.000 C 379.380 110.000,379.197 109.595,379.194 109.100 C 379.189 108.372,379.114 108.315,378.800 108.800 C 378.506 109.255,378.411 109.086,378.406 108.100 C 378.403 107.385,378.220 106.800,378.000 106.800 C 377.780 106.800,377.600 106.440,377.600 106.000 C 377.600 105.560,377.420 105.200,377.200 105.200 C 376.980 105.200,376.800 104.906,376.800 104.547 C 376.800 104.188,376.464 103.603,376.054 103.247 C 375.643 102.891,375.179 102.013,375.021 101.296 C 374.864 100.579,374.570 100.095,374.367 100.220 C 374.165 100.345,374.000 100.077,374.000 99.624 C 374.000 99.171,373.820 98.800,373.600 98.800 C 373.380 98.800,373.245 98.575,373.300 98.300 C 373.355 98.025,373.213 97.832,372.985 97.872 C 372.757 97.911,372.532 97.482,372.485 96.919 C 372.438 96.355,372.040 95.582,371.600 95.200 C 371.160 94.818,370.800 94.212,370.800 93.853 C 370.800 93.494,370.620 93.200,370.400 93.200 C 370.180 93.200,370.000 93.002,370.000 92.760 C 370.000 92.519,369.460 91.817,368.800 91.200 C 368.140 90.583,367.600 89.831,367.600 89.528 C 367.600 89.225,367.240 88.717,366.800 88.400 C 366.360 88.083,366.000 87.503,366.000 87.112 C 366.000 86.720,365.820 86.400,365.600 86.400 C 365.380 86.400,365.200 86.080,365.200 85.688 C 365.200 85.297,364.840 84.717,364.400 84.400 C 363.960 84.083,363.600 83.583,363.600 83.288 C 363.600 82.994,363.420 82.864,363.200 83.000 C 362.980 83.136,362.800 82.949,362.800 82.584 C 362.800 82.219,362.266 81.422,361.614 80.813 C 360.962 80.204,360.542 79.592,360.681 79.453 C 360.820 79.314,360.693 79.200,360.400 79.200 C 360.107 79.200,359.978 79.089,360.114 78.952 C 360.250 78.816,360.113 78.456,359.810 78.152 C 359.196 77.538,358.800 77.442,358.800 77.905 M6.484 253.015 C 6.184 253.356,6.142 253.600,6.384 253.600 C 6.613 253.600,6.800 253.960,6.800 254.400 C 6.800 254.840,7.025 255.203,7.300 255.206 C 7.633 255.210,7.600 255.342,7.200 255.600 C 6.800 255.858,6.767 255.990,7.100 255.994 C 7.409 255.998,7.602 256.573,7.606 257.500 C 7.611 258.616,7.712 258.846,8.000 258.400 C 8.308 257.923,8.392 258.005,8.409 258.800 C 8.444 260.438,8.863 262.971,9.170 263.400 C 9.327 263.620,9.689 264.610,9.974 265.600 C 10.515 267.484,11.052 268.925,11.647 270.095 C 11.841 270.477,12.000 271.152,12.000 271.595 C 12.000 272.038,12.180 272.400,12.400 272.400 C 12.620 272.400,12.803 272.895,12.806 273.500 C 12.811 274.357,12.898 274.468,13.200 274.000 C 13.494 273.545,13.589 273.714,13.594 274.700 C 13.597 275.415,13.780 276.000,14.000 276.000 C 14.220 276.000,14.403 276.585,14.406 277.300 C 14.411 278.286,14.506 278.455,14.800 278.000 C 15.094 277.545,15.189 277.714,15.194 278.700 C 15.197 279.415,15.380 280.000,15.600 280.000 C 15.820 280.000,16.000 280.360,16.000 280.800 C 16.000 281.240,16.180 281.600,16.400 281.600 C 16.620 281.600,16.800 281.960,16.800 282.400 C 16.800 282.840,16.980 283.200,17.200 283.200 C 17.420 283.200,17.600 283.700,17.600 284.312 C 17.600 284.960,17.930 285.661,18.391 285.994 C 18.973 286.413,19.052 286.646,18.691 286.876 C 18.306 287.121,18.308 287.189,18.700 287.194 C 18.975 287.197,19.200 287.560,19.200 288.000 C 19.200 288.440,19.380 288.800,19.600 288.800 C 19.820 288.800,20.000 289.068,20.000 289.397 C 20.000 289.725,20.360 290.218,20.800 290.493 C 21.240 290.768,21.600 291.309,21.600 291.696 C 21.600 292.083,21.780 292.400,22.000 292.400 C 22.220 292.400,22.400 292.760,22.400 293.200 C 22.400 293.640,22.580 294.000,22.800 294.000 C 23.020 294.000,23.200 294.360,23.200 294.800 C 23.200 295.240,23.380 295.600,23.600 295.600 C 23.820 295.600,24.000 295.960,24.000 296.400 C 24.000 296.840,24.180 297.200,24.400 297.200 C 24.620 297.200,24.800 297.491,24.800 297.846 C 24.800 298.562,26.826 302.523,27.300 302.733 C 27.465 302.807,27.600 303.129,27.600 303.450 C 27.600 303.771,27.960 304.420,28.400 304.892 C 28.840 305.364,29.200 305.987,29.200 306.275 C 29.200 306.564,29.380 306.800,29.600 306.800 C 29.820 306.800,30.000 307.030,30.000 307.312 C 30.000 307.593,30.360 308.083,30.800 308.400 C 31.240 308.717,31.600 309.225,31.600 309.528 C 31.600 309.831,32.140 310.583,32.800 311.200 C 33.460 311.817,34.000 312.609,34.000 312.960 C 34.000 313.312,34.180 313.600,34.400 313.600 C 34.620 313.600,34.800 313.920,34.800 314.312 C 34.800 314.703,35.160 315.283,35.600 315.600 C 36.040 315.917,36.400 316.380,36.400 316.629 C 36.400 316.878,36.940 317.646,37.600 318.337 C 38.260 319.028,38.800 319.783,38.800 320.015 C 38.800 320.247,39.231 320.868,39.759 321.395 L 40.717 322.353 75.559 287.529 C 94.721 268.376,110.400 252.636,110.400 252.552 C 110.400 252.012,6.963 252.473,6.484 253.015 M324.201 287.284 C 343.340 306.470,359.034 322.239,359.076 322.326 C 359.117 322.413,359.621 322.016,360.194 321.442 C 360.767 320.869,361.048 320.400,360.819 320.400 C 360.589 320.400,361.121 319.658,362.000 318.752 C 362.880 317.845,363.600 316.895,363.600 316.640 C 363.600 316.385,363.960 315.917,364.400 315.600 C 364.840 315.283,365.200 314.703,365.200 314.312 C 365.200 313.920,365.380 313.600,365.600 313.600 C 365.820 313.600,366.000 313.312,366.000 312.960 C 366.000 312.609,366.540 311.817,367.200 311.200 C 367.860 310.583,368.400 309.831,368.400 309.528 C 368.400 309.225,368.760 308.717,369.200 308.400 C 369.640 308.083,370.000 307.593,370.000 307.312 C 370.000 307.030,370.136 306.800,370.302 306.800 C 370.665 306.800,371.821 304.340,371.679 303.870 C 371.625 303.689,371.765 303.655,371.990 303.794 C 372.216 303.933,372.400 303.767,372.400 303.424 C 372.400 303.081,372.580 302.800,372.800 302.800 C 373.020 302.800,373.200 302.603,373.200 302.362 C 373.200 302.121,373.561 301.416,374.003 300.795 C 374.445 300.175,374.918 299.112,375.053 298.434 C 375.189 297.755,375.457 297.200,375.650 297.200 C 375.843 297.200,376.003 296.795,376.006 296.300 C 376.011 295.572,376.086 295.515,376.400 296.000 C 376.691 296.451,376.791 296.252,376.800 295.200 C 376.809 294.148,376.909 293.949,377.200 294.400 C 377.500 294.864,377.589 294.738,377.594 293.847 C 377.597 293.213,377.929 292.403,378.330 292.047 C 378.732 291.691,379.316 290.815,379.628 290.100 C 379.940 289.385,380.331 288.800,380.498 288.800 C 380.664 288.800,380.800 288.440,380.800 288.000 C 380.800 287.560,380.980 287.200,381.200 287.200 C 381.420 287.200,381.600 286.840,381.600 286.400 C 381.600 285.960,381.780 285.600,382.000 285.600 C 382.220 285.600,382.400 285.150,382.400 284.600 C 382.400 284.050,382.580 283.600,382.800 283.600 C 383.020 283.600,383.200 283.150,383.200 282.600 C 383.200 282.050,383.380 281.600,383.600 281.600 C 383.820 281.600,384.000 281.240,384.000 280.800 C 384.000 280.360,384.180 280.000,384.400 280.000 C 384.620 280.000,384.803 279.415,384.806 278.700 C 384.811 277.714,384.906 277.545,385.200 278.000 C 385.494 278.455,385.589 278.286,385.594 277.300 C 385.597 276.585,385.780 276.000,386.000 276.000 C 386.220 276.000,386.400 275.640,386.400 275.200 C 386.400 274.760,386.580 274.400,386.800 274.400 C 387.020 274.400,387.200 273.950,387.200 273.400 C 387.200 272.850,387.380 272.400,387.600 272.400 C 387.820 272.400,388.000 272.038,388.000 271.595 C 388.000 271.152,388.208 270.387,388.462 269.895 C 389.456 267.974,389.600 267.584,389.600 266.829 C 389.600 266.399,389.780 265.936,390.000 265.800 C 390.220 265.664,390.400 265.149,390.400 264.656 C 390.400 264.163,390.579 263.581,390.798 263.362 C 391.016 263.144,391.313 261.836,391.457 260.456 C 391.622 258.877,391.843 258.142,392.054 258.473 C 392.267 258.810,392.390 258.458,392.394 257.500 C 392.397 256.675,392.580 256.000,392.800 256.000 C 393.020 256.000,393.200 255.475,393.200 254.833 C 393.200 254.192,393.425 253.575,393.700 253.464 C 396.010 252.526,390.324 252.412,341.201 252.406 L 289.402 252.400 324.201 287.284 M112.780 324.222 C 93.767 343.240,78.073 358.800,77.905 358.800 C 77.438 358.800,77.540 359.197,78.168 359.825 C 78.604 360.261,78.782 360.277,78.936 359.896 C 79.047 359.623,79.151 359.745,79.168 360.167 C 79.186 360.588,79.314 360.820,79.453 360.681 C 79.592 360.542,80.204 360.962,80.813 361.614 C 81.422 362.266,82.092 362.800,82.301 362.800 C 82.510 362.800,83.246 363.340,83.937 364.000 C 84.628 364.660,85.464 365.200,85.796 365.200 C 86.128 365.200,86.400 365.380,86.400 365.600 C 86.400 365.820,86.720 366.000,87.112 366.000 C 87.503 366.000,88.083 366.360,88.400 366.800 C 88.717 367.240,89.297 367.600,89.688 367.600 C 90.080 367.600,90.400 367.780,90.400 368.000 C 90.400 368.220,90.683 368.400,91.029 368.400 C 91.932 368.400,92.949 369.473,92.296 369.736 C 92.004 369.854,92.088 369.950,92.500 369.968 C 92.885 369.986,93.200 370.180,93.200 370.400 C 93.200 370.620,93.560 370.800,94.000 370.800 C 94.440 370.800,94.800 370.947,94.800 371.126 C 94.800 371.542,97.887 373.200,98.661 373.200 C 99.003 373.200,99.128 373.393,98.961 373.663 C 98.764 373.983,98.952 374.054,99.569 373.892 C 100.219 373.722,100.406 373.807,100.254 374.202 C 100.116 374.563,100.476 374.841,101.322 375.027 C 102.025 375.181,102.891 375.643,103.247 376.054 C 103.603 376.464,104.188 376.800,104.547 376.800 C 104.906 376.800,105.200 376.980,105.200 377.200 C 105.200 377.420,105.560 377.600,106.000 377.600 C 106.440 377.600,106.803 377.825,106.806 378.100 C 106.810 378.433,106.942 378.400,107.200 378.000 C 107.458 377.600,107.590 377.567,107.594 377.900 C 107.597 378.175,107.881 378.400,108.224 378.400 C 108.567 378.400,108.755 378.550,108.642 378.732 C 108.529 378.915,109.058 379.309,109.818 379.607 C 110.578 379.905,111.200 380.296,111.200 380.475 C 111.200 380.654,111.560 380.800,112.000 380.800 C 112.440 380.800,112.800 380.980,112.800 381.200 C 112.800 381.420,113.149 381.600,113.576 381.600 C 114.003 381.600,114.464 381.780,114.600 382.000 C 114.736 382.220,115.287 382.400,115.824 382.400 C 116.361 382.400,116.800 382.580,116.800 382.800 C 116.800 383.020,117.160 383.200,117.600 383.200 C 118.040 383.200,118.400 383.380,118.400 383.600 C 118.400 383.820,118.985 384.003,119.700 384.006 C 120.686 384.011,120.855 384.106,120.400 384.400 C 119.945 384.694,120.114 384.789,121.100 384.794 C 121.815 384.797,122.400 384.980,122.400 385.200 C 122.400 385.420,122.760 385.600,123.200 385.600 C 123.640 385.600,124.000 385.780,124.000 386.000 C 124.000 386.220,124.585 386.403,125.300 386.406 C 126.286 386.411,126.455 386.506,126.000 386.800 C 125.532 387.102,125.643 387.189,126.500 387.194 C 127.105 387.197,127.600 387.380,127.600 387.600 C 127.600 387.820,128.365 388.003,129.300 388.006 C 130.545 388.011,130.839 388.116,130.400 388.400 C 129.912 388.715,129.964 388.789,130.676 388.794 C 131.158 388.797,131.664 388.980,131.800 389.200 C 131.936 389.420,132.677 389.600,133.447 389.600 C 134.279 389.600,134.747 389.762,134.600 390.000 C 134.462 390.223,134.769 390.400,135.296 390.400 C 135.815 390.400,136.411 390.563,136.620 390.762 C 136.829 390.962,137.900 391.242,139.000 391.385 C 140.100 391.528,141.060 391.815,141.133 392.023 C 141.207 392.230,141.882 392.400,142.633 392.400 C 143.457 392.400,144.002 392.599,144.006 392.900 C 144.010 393.233,144.142 393.200,144.400 392.800 C 144.658 392.400,144.790 392.367,144.794 392.700 C 144.797 392.975,145.160 393.200,145.600 393.200 C 146.040 393.200,146.400 393.380,146.400 393.600 C 146.400 393.820,146.591 394.000,146.824 394.000 C 147.057 394.000,147.148 393.839,147.026 393.642 C 146.904 393.445,147.074 393.181,147.402 393.054 C 148.070 392.798,148.340 290.258,147.674 289.846 C 147.495 289.735,131.793 305.205,112.780 324.222 M252.400 341.303 C 252.400 377.562,252.528 393.200,252.824 393.200 C 253.057 393.200,253.136 393.380,253.000 393.600 C 252.864 393.820,252.943 394.000,253.176 394.000 C 253.409 394.000,253.600 393.820,253.600 393.600 C 253.600 393.380,254.140 393.200,254.800 393.200 C 255.460 393.200,256.000 393.020,256.000 392.800 C 256.000 392.580,256.675 392.397,257.500 392.394 C 258.616 392.389,258.846 392.288,258.400 392.000 C 257.939 391.702,258.077 391.610,259.000 391.602 C 261.023 391.584,263.196 391.117,262.968 390.749 C 262.850 390.557,263.383 390.400,264.153 390.400 C 264.923 390.400,265.664 390.220,265.800 390.000 C 265.936 389.780,266.397 389.600,266.824 389.600 C 267.251 389.600,267.600 389.459,267.600 389.287 C 267.600 389.115,268.087 388.934,268.682 388.885 C 269.278 388.836,269.944 388.616,270.162 388.398 C 270.381 388.179,270.974 388.000,271.480 388.000 C 271.986 388.000,272.400 387.820,272.400 387.600 C 272.400 387.380,272.850 387.200,273.400 387.200 C 273.950 387.200,274.400 387.020,274.400 386.800 C 274.400 386.580,274.760 386.400,275.200 386.400 C 275.640 386.400,276.000 386.220,276.000 386.000 C 276.000 385.780,276.463 385.600,277.029 385.600 C 277.594 385.600,278.329 385.328,278.661 384.996 C 278.993 384.664,279.430 384.495,279.632 384.620 C 279.835 384.745,280.000 384.657,280.000 384.424 C 280.000 384.191,280.360 384.000,280.800 384.000 C 281.240 384.000,281.600 383.820,281.600 383.600 C 281.600 383.380,281.872 383.200,282.205 383.200 C 282.903 383.200,284.462 382.388,284.894 381.800 C 285.070 381.561,285.190 381.625,285.194 381.961 C 285.198 382.338,285.445 382.240,285.947 381.661 C 286.358 381.187,287.167 380.800,287.747 380.800 C 288.326 380.800,288.800 380.654,288.800 380.475 C 288.800 380.296,289.430 379.902,290.200 379.600 C 290.970 379.298,291.600 378.904,291.600 378.725 C 291.600 378.546,291.920 378.400,292.312 378.400 C 292.703 378.400,293.283 378.040,293.600 377.600 C 293.917 377.160,294.553 376.800,295.013 376.800 C 295.473 376.800,296.204 376.469,296.638 376.065 C 297.072 375.661,297.950 375.199,298.589 375.039 C 299.228 374.878,300.240 374.399,300.837 373.973 C 301.435 373.548,302.121 373.200,302.362 373.200 C 302.603 373.200,302.800 373.020,302.800 372.800 C 302.800 372.580,303.078 372.400,303.417 372.400 C 303.756 372.400,304.420 372.040,304.892 371.600 C 305.364 371.160,305.987 370.800,306.275 370.800 C 306.564 370.800,306.800 370.620,306.800 370.400 C 306.800 370.180,306.998 370.000,307.240 370.000 C 307.481 370.000,308.183 369.460,308.800 368.800 C 309.417 368.140,310.169 367.600,310.472 367.600 C 310.775 367.600,311.283 367.240,311.600 366.800 C 311.917 366.360,312.497 366.000,312.888 366.000 C 313.280 366.000,313.600 365.820,313.600 365.600 C 313.600 365.380,313.920 365.200,314.312 365.200 C 314.703 365.200,315.283 364.840,315.600 364.400 C 315.917 363.960,316.385 363.600,316.640 363.600 C 316.895 363.600,317.834 362.891,318.727 362.025 C 319.718 361.063,320.425 360.635,320.543 360.925 C 320.650 361.186,320.751 360.995,320.768 360.500 C 320.790 359.877,321.046 359.600,321.600 359.600 C 322.899 359.600,323.642 360.367,287.335 324.203 L 252.400 289.405 252.400 341.303 " stroke="none" fill="#0454b4" fill-rule="evenodd"></path><path id="path2" d="M224.000 0.800 C 224.000 1.020,224.270 1.200,224.600 1.200 C 224.930 1.200,225.200 1.020,225.200 0.800 C 225.200 0.580,224.930 0.400,224.600 0.400 C 224.270 0.400,224.000 0.580,224.000 0.800 M168.600 1.600 C 168.464 1.820,167.463 2.000,166.376 2.000 C 165.289 2.000,164.400 2.180,164.400 2.400 C 164.400 2.620,163.410 2.800,162.200 2.800 C 160.990 2.800,160.000 2.980,160.000 3.200 C 160.000 3.420,159.201 3.600,158.224 3.600 C 157.247 3.600,156.336 3.780,156.200 4.000 C 156.064 4.220,155.243 4.400,154.376 4.400 C 153.509 4.400,152.800 4.580,152.800 4.800 C 152.800 5.020,152.080 5.200,151.200 5.200 C 150.320 5.200,149.600 5.380,149.600 5.600 C 149.600 5.820,149.090 6.000,148.467 6.000 C 147.020 6.000,146.686 6.343,147.419 7.076 C 148.072 7.729,148.324 109.752,147.674 110.154 C 147.495 110.265,131.793 94.795,112.780 75.778 C 77.472 40.461,77.396 40.391,75.947 42.061 C 75.536 42.535,75.200 42.797,75.200 42.643 C 75.200 42.489,74.742 42.822,74.182 43.382 C 73.622 43.942,73.012 44.400,72.827 44.400 C 72.641 44.400,71.704 45.169,70.745 46.110 C 69.785 47.050,68.370 48.262,67.600 48.803 C 66.033 49.904,58.400 57.466,58.400 57.918 C 58.400 58.077,78.425 78.234,102.900 102.712 C 138.218 138.033,147.276 147.296,146.800 147.602 C 146.451 147.826,141.430 147.990,134.802 147.994 L 123.405 148.000 84.840 109.435 C 43.273 67.868,45.715 70.078,44.324 72.781 C 44.036 73.342,43.440 74.196,43.000 74.681 C 41.444 76.394,41.200 76.774,41.200 77.484 C 41.200 77.902,55.633 92.634,75.777 112.777 C 94.794 131.793,110.263 147.498,110.153 147.676 C 109.752 148.325,7.728 148.071,7.076 147.419 C 6.343 146.686,6.000 147.020,6.000 148.467 C 6.000 149.090,5.820 149.600,5.600 149.600 C 5.380 149.600,5.200 150.320,5.200 151.200 C 5.200 152.080,5.020 152.800,4.800 152.800 C 4.580 152.800,4.400 153.509,4.400 154.376 C 4.400 155.243,4.220 156.064,4.000 156.200 C 3.780 156.336,3.600 157.247,3.600 158.224 C 3.600 159.201,3.420 160.000,3.200 160.000 C 2.980 160.000,2.800 160.900,2.800 162.000 C 2.800 163.100,2.620 164.000,2.400 164.000 C 2.178 164.000,2.000 165.059,2.000 166.376 C 2.000 167.683,1.820 168.864,1.600 169.000 C 1.380 169.136,1.200 170.317,1.200 171.625 L 1.200 174.002 87.500 173.901 L 173.800 173.800 173.901 87.500 L 174.002 1.200 171.425 1.200 C 170.007 1.200,168.736 1.380,168.600 1.600 M226.000 87.120 C 226.000 153.413,226.110 173.150,226.480 173.520 C 226.850 173.890,246.587 174.000,312.880 174.000 L 398.800 174.000 398.800 171.624 C 398.800 170.317,398.620 169.136,398.400 169.000 C 398.180 168.864,398.000 167.784,398.000 166.600 C 398.000 165.416,397.820 164.336,397.600 164.200 C 397.380 164.064,397.200 163.063,397.200 161.976 C 397.200 160.889,397.020 160.000,396.800 160.000 C 396.580 160.000,396.400 159.201,396.400 158.224 C 396.400 157.247,396.220 156.336,396.000 156.200 C 395.780 156.064,395.600 155.243,395.600 154.376 C 395.600 153.509,395.420 152.800,395.200 152.800 C 394.980 152.800,394.800 152.181,394.800 151.424 C 394.800 150.667,394.620 149.936,394.400 149.800 C 394.180 149.664,394.000 149.023,394.000 148.376 C 394.000 147.218,393.484 146.817,393.000 147.600 C 392.704 148.079,290.866 148.157,290.113 147.678 C 289.788 147.472,301.182 135.815,324.213 112.790 C 347.168 89.840,358.800 77.940,358.800 77.405 C 358.800 76.962,358.080 75.812,357.200 74.849 C 356.320 73.887,355.600 72.946,355.600 72.760 C 355.600 72.574,354.833 71.651,353.895 70.711 C 352.957 69.770,351.745 68.370,351.201 67.600 C 350.090 66.026,342.531 58.400,342.082 58.400 C 341.922 58.400,321.815 78.380,297.398 102.800 C 272.982 127.220,252.869 147.200,252.702 147.200 C 252.536 147.200,252.400 141.754,252.400 135.097 L 252.400 122.994 290.800 84.602 C 311.920 63.486,329.200 46.139,329.200 46.051 C 329.200 45.779,327.017 44.001,326.682 44.000 C 326.507 44.000,325.930 43.595,325.401 43.100 C 323.680 41.491,323.244 41.200,322.556 41.200 C 322.182 41.200,306.316 56.770,287.297 75.800 C 268.279 94.830,252.646 110.400,252.559 110.400 C 252.471 110.400,252.400 87.090,252.400 58.600 C 252.400 24.333,252.535 6.800,252.800 6.800 C 253.020 6.800,253.200 6.620,253.200 6.400 C 253.200 6.180,252.570 6.000,251.800 6.000 C 251.030 6.000,250.400 5.820,250.400 5.600 C 250.400 5.380,249.680 5.200,248.800 5.200 C 247.920 5.200,247.200 5.020,247.200 4.800 C 247.200 4.580,246.491 4.400,245.624 4.400 C 244.757 4.400,243.936 4.220,243.800 4.000 C 243.664 3.780,242.753 3.600,241.776 3.600 C 240.799 3.600,240.000 3.420,240.000 3.200 C 240.000 2.980,239.100 2.800,238.000 2.800 C 236.900 2.800,236.000 2.620,236.000 2.400 C 236.000 2.178,234.941 2.000,233.624 2.000 C 232.317 2.000,231.136 1.820,231.000 1.600 C 230.864 1.380,229.683 1.200,228.376 1.200 L 226.000 1.200 226.000 87.120 M0.679 174.957 C 0.515 175.374,0.475 175.809,0.591 175.924 C 0.955 176.289,1.276 175.691,1.124 174.931 C 0.983 174.235,0.962 174.236,0.679 174.957 M399.693 182.800 C 399.693 183.570,399.775 183.885,399.876 183.500 C 399.976 183.115,399.976 182.485,399.876 182.100 C 399.775 181.715,399.693 182.030,399.693 182.800 M1.200 228.376 C 1.200 229.683,1.380 230.864,1.600 231.000 C 1.820 231.136,2.000 232.317,2.000 233.624 C 2.000 234.941,2.178 236.000,2.400 236.000 C 2.620 236.000,2.800 236.900,2.800 238.000 C 2.800 239.100,2.980 240.000,3.200 240.000 C 3.420 240.000,3.600 240.799,3.600 241.776 C 3.600 242.753,3.780 243.664,4.000 243.800 C 4.220 243.936,4.400 244.757,4.400 245.624 C 4.400 246.491,4.580 247.200,4.800 247.200 C 5.020 247.200,5.200 247.920,5.200 248.800 C 5.200 249.680,5.380 250.400,5.600 250.400 C 5.820 250.400,6.000 251.030,6.000 251.800 C 6.000 252.570,6.180 253.200,6.400 253.200 C 6.620 253.200,6.800 253.020,6.800 252.800 C 6.800 252.535,24.333 252.400,58.600 252.400 C 87.090 252.400,110.400 252.469,110.400 252.554 C 110.400 252.639,94.830 268.268,75.800 287.286 C 56.770 306.303,41.200 322.102,41.200 322.394 C 41.200 322.893,42.746 325.158,43.886 326.329 C 44.168 326.619,44.400 327.012,44.400 327.202 C 44.400 327.392,45.255 328.446,46.300 329.545 C 48.641 332.006,49.999 333.600,49.756 333.600 C 49.655 333.600,51.385 335.400,53.600 337.600 C 55.815 339.800,57.847 341.600,58.114 341.600 C 58.381 341.599,78.573 321.625,102.985 297.213 C 132.485 267.711,147.473 252.990,147.678 253.313 C 147.849 253.581,147.991 258.928,147.994 265.195 L 148.000 276.590 109.320 315.278 L 70.639 353.967 71.581 354.783 C 72.099 355.232,72.667 355.600,72.843 355.600 C 73.019 355.600,73.577 356.010,74.082 356.512 C 75.424 357.845,76.890 358.800,77.594 358.800 C 77.934 358.800,93.767 343.240,112.780 324.222 C 131.793 305.205,147.495 289.735,147.674 289.846 C 148.340 290.258,148.070 392.798,147.402 393.054 C 146.411 393.435,147.154 394.000,148.647 394.000 C 149.479 394.000,149.947 394.162,149.800 394.400 C 149.651 394.641,150.188 394.800,151.153 394.800 C 152.033 394.800,152.864 394.980,153.000 395.200 C 153.136 395.420,153.856 395.600,154.600 395.600 C 155.344 395.600,156.064 395.780,156.200 396.000 C 156.336 396.220,157.247 396.400,158.224 396.400 C 159.201 396.400,160.000 396.580,160.000 396.800 C 160.000 397.020,160.990 397.200,162.200 397.200 C 163.410 397.200,164.400 397.380,164.400 397.600 C 164.400 397.820,165.379 398.000,166.576 398.000 C 167.773 398.000,168.864 398.180,169.000 398.400 C 169.136 398.620,170.317 398.800,171.624 398.800 L 174.000 398.800 174.000 312.880 C 174.000 246.587,173.890 226.850,173.520 226.480 C 173.150 226.110,153.413 226.000,87.120 226.000 L 1.200 226.000 1.200 228.376 M226.480 226.480 C 226.110 226.850,226.000 246.587,226.000 312.880 L 226.000 398.800 228.376 398.800 C 229.683 398.800,230.864 398.620,231.000 398.400 C 231.136 398.180,232.216 398.000,233.400 398.000 C 234.584 398.000,235.664 397.820,235.800 397.600 C 235.936 397.380,236.836 397.200,237.800 397.200 C 238.764 397.200,239.664 397.020,239.800 396.800 C 239.936 396.580,240.746 396.400,241.600 396.400 C 242.454 396.400,243.264 396.220,243.400 396.000 C 243.536 395.780,244.447 395.600,245.424 395.600 C 246.401 395.600,247.200 395.420,247.200 395.200 C 247.200 394.980,247.920 394.800,248.800 394.800 C 249.680 394.800,250.400 394.620,250.400 394.400 C 250.400 394.180,250.929 394.000,251.576 394.000 C 252.223 394.000,252.864 393.820,253.000 393.600 C 253.136 393.380,253.057 393.200,252.824 393.200 C 252.528 393.200,252.400 377.562,252.400 341.301 L 252.400 289.402 287.155 324.155 C 325.714 362.712,322.322 359.794,325.354 357.017 C 326.205 356.237,327.053 355.600,327.240 355.600 C 327.426 355.600,328.352 354.835,329.297 353.900 C 330.241 352.965,331.715 351.674,332.571 351.031 C 334.875 349.301,341.600 342.473,341.600 341.864 C 341.600 341.574,321.620 321.479,297.200 297.207 C 272.780 272.935,252.800 252.924,252.800 252.738 C 252.800 252.552,258.245 252.400,264.899 252.400 L 276.998 252.400 315.482 290.882 L 353.965 329.363 354.782 328.420 C 355.232 327.902,355.600 327.344,355.600 327.181 C 355.600 327.018,356.141 326.281,356.801 325.542 C 358.709 323.411,358.800 323.273,358.800 322.518 C 358.800 322.102,344.252 307.252,324.100 287.098 L 289.400 252.394 341.700 252.497 L 394.000 252.600 394.000 251.524 C 394.000 250.932,394.180 250.336,394.400 250.200 C 394.620 250.064,394.800 249.333,394.800 248.576 C 394.800 247.819,394.980 247.200,395.200 247.200 C 395.420 247.200,395.600 246.491,395.600 245.624 C 395.600 244.757,395.780 243.936,396.000 243.800 C 396.220 243.664,396.400 242.753,396.400 241.776 C 396.400 240.799,396.580 240.000,396.800 240.000 C 397.020 240.000,397.200 239.111,397.200 238.024 C 397.200 236.937,397.380 235.936,397.600 235.800 C 397.820 235.664,398.000 234.584,398.000 233.400 C 398.000 232.216,398.180 231.136,398.400 231.000 C 398.620 230.864,398.800 229.683,398.800 228.376 L 398.800 226.000 312.880 226.000 C 246.587 226.000,226.850 226.110,226.480 226.480 " stroke="none" fill="#f3f3f3" fill-rule="evenodd"></path></g></svg>