<svg xmlns="http://www.w3.org/2000/svg" width="400" height="400" viewBox="0, 0, 400,400">
    <g>
        <path
            d="M10.667 130.266 C 10.520 130.413,10.400 130.943,10.400 131.443 C 10.400 131.943,10.220 132.464,10.000 132.600 C 9.780 132.736,9.600 133.276,9.600 133.800 C 9.600 134.324,9.433 134.856,9.228 134.983 C 9.023 135.109,8.733 136.200,8.582 137.406 C 8.431 138.613,8.149 139.600,7.954 139.600 C 7.759 139.600,7.600 140.140,7.600 140.800 C 7.600 141.460,7.420 142.000,7.200 142.000 C 6.980 142.000,6.800 142.630,6.800 143.400 C 6.800 144.170,6.620 144.800,6.400 144.800 C 6.180 144.800,6.000 145.520,6.000 146.400 C 6.000 147.280,5.820 148.000,5.600 148.000 C 5.380 148.000,5.200 148.720,5.200 149.600 C 5.200 150.480,5.020 151.200,4.800 151.200 C 4.580 151.200,4.400 151.920,4.400 152.800 C 4.400 153.680,4.220 154.400,4.000 154.400 C 3.780 154.400,3.600 155.300,3.600 156.400 C 3.600 157.500,3.420 158.400,3.200 158.400 C 2.980 158.400,2.800 159.199,2.800 160.176 C 2.800 161.153,2.620 162.064,2.400 162.200 C 2.180 162.336,2.000 163.607,2.000 165.024 C 2.000 166.475,1.825 167.600,1.600 167.600 C 1.372 167.600,1.200 168.789,1.200 170.367 C 1.200 172.224,1.036 173.188,0.700 173.300 C -0.032 173.544,-0.032 225.656,0.700 225.900 C 1.044 226.015,1.200 227.056,1.200 229.233 C 1.200 231.078,1.367 232.400,1.600 232.400 C 1.822 232.400,2.000 233.467,2.000 234.800 C 2.000 236.133,2.178 237.200,2.400 237.200 C 2.620 237.200,2.800 238.100,2.800 239.200 C 2.800 240.300,2.980 241.200,3.200 241.200 C 3.420 241.200,3.600 242.010,3.600 243.000 C 3.600 243.990,3.780 244.800,4.000 244.800 C 4.220 244.800,4.400 245.700,4.400 246.800 C 4.400 247.900,4.580 248.800,4.800 248.800 C 5.020 248.800,5.200 249.520,5.200 250.400 C 5.200 251.280,5.380 252.000,5.600 252.000 C 5.820 252.000,6.000 252.720,6.000 253.600 C 6.000 254.480,6.180 255.200,6.400 255.200 C 6.620 255.200,6.800 255.740,6.800 256.400 C 6.800 257.060,6.980 257.600,7.200 257.600 C 7.420 257.600,7.600 258.230,7.600 259.000 C 7.600 259.770,7.759 260.400,7.954 260.400 C 8.149 260.400,8.431 261.387,8.582 262.594 C 8.733 263.800,9.023 264.891,9.228 265.017 C 9.433 265.144,9.600 265.651,9.600 266.144 C 9.600 266.637,9.765 267.211,9.966 267.420 C 10.168 267.629,10.393 268.250,10.466 268.800 C 10.577 269.631,10.769 269.766,11.600 269.600 C 12.150 269.490,96.930 269.400,200.000 269.400 C 303.070 269.400,387.850 269.490,388.400 269.600 C 389.231 269.766,389.423 269.631,389.534 268.800 C 389.607 268.250,389.832 267.629,390.034 267.420 C 390.235 267.211,390.400 266.637,390.400 266.144 C 390.400 265.651,390.567 265.144,390.772 265.017 C 390.977 264.891,391.267 263.800,391.418 262.594 C 391.569 261.387,391.851 260.400,392.046 260.400 C 392.241 260.400,392.400 259.770,392.400 259.000 C 392.400 258.230,392.580 257.600,392.800 257.600 C 393.020 257.600,393.200 257.060,393.200 256.400 C 393.200 255.740,393.380 255.200,393.600 255.200 C 393.820 255.200,394.000 254.480,394.000 253.600 C 394.000 252.720,394.180 252.000,394.400 252.000 C 394.620 252.000,394.800 251.291,394.800 250.424 C 394.800 249.557,394.980 248.736,395.200 248.600 C 395.420 248.464,395.600 247.553,395.600 246.576 C 395.600 245.599,395.780 244.800,396.000 244.800 C 396.220 244.800,396.400 243.990,396.400 243.000 C 396.400 242.010,396.580 241.200,396.800 241.200 C 397.020 241.200,397.200 240.300,397.200 239.200 C 397.200 238.100,397.380 237.200,397.600 237.200 C 397.822 237.200,398.000 236.133,398.000 234.800 C 398.000 233.467,398.178 232.400,398.400 232.400 C 398.633 232.400,398.800 231.078,398.800 229.233 C 398.800 227.056,398.956 226.015,399.300 225.900 C 399.693 225.769,399.800 220.311,399.800 200.400 C 399.800 180.489,399.693 175.031,399.300 174.900 C 398.956 174.785,398.800 173.744,398.800 171.567 C 398.800 169.722,398.633 168.400,398.400 168.400 C 398.178 168.400,398.000 167.333,398.000 166.000 C 398.000 164.667,397.822 163.600,397.600 163.600 C 397.380 163.600,397.200 162.610,397.200 161.400 C 397.200 160.190,397.020 159.200,396.800 159.200 C 396.580 159.200,396.400 158.300,396.400 157.200 C 396.400 156.100,396.220 155.200,396.000 155.200 C 395.780 155.200,395.600 154.480,395.600 153.600 C 395.600 152.720,395.420 152.000,395.200 152.000 C 394.980 152.000,394.800 151.280,394.800 150.400 C 394.800 149.520,394.620 148.800,394.400 148.800 C 394.180 148.800,394.000 148.080,394.000 147.200 C 394.000 146.320,393.820 145.600,393.600 145.600 C 393.380 145.600,393.200 144.981,393.200 144.224 C 393.200 143.467,393.020 142.736,392.800 142.600 C 392.580 142.464,392.400 141.733,392.400 140.976 C 392.400 140.219,392.241 139.600,392.046 139.600 C 391.851 139.600,391.569 138.613,391.418 137.406 C 391.267 136.200,390.977 135.109,390.772 134.983 C 390.567 134.856,390.400 134.349,390.400 133.856 C 390.400 133.363,390.235 132.789,390.034 132.580 C 389.832 132.371,389.607 131.750,389.534 131.200 L 389.400 130.200 200.167 130.100 C 96.089 130.044,10.814 130.119,10.667 130.266 "
            stroke="none"
            fill="#fcdc44"
            fill-rule="evenodd"
        ></path>
        <path
            d="M177.100 0.276 C 174.955 0.360,173.200 0.602,173.200 0.814 C 173.200 1.030,171.787 1.200,170.000 1.200 C 168.133 1.200,166.800 1.367,166.800 1.600 C 166.800 1.829,165.600 2.000,164.000 2.000 C 162.400 2.000,161.200 2.171,161.200 2.400 C 161.200 2.620,160.570 2.800,159.800 2.800 C 159.030 2.800,158.400 2.980,158.400 3.200 C 158.400 3.420,157.500 3.600,156.400 3.600 C 155.300 3.600,154.400 3.780,154.400 4.000 C 154.400 4.220,153.680 4.400,152.800 4.400 C 151.920 4.400,151.200 4.580,151.200 4.800 C 151.200 5.020,150.480 5.200,149.600 5.200 C 148.720 5.200,148.000 5.380,148.000 5.600 C 148.000 5.820,147.280 6.000,146.400 6.000 C 145.520 6.000,144.800 6.180,144.800 6.400 C 144.800 6.620,144.170 6.800,143.400 6.800 C 142.630 6.800,142.000 6.980,142.000 7.200 C 142.000 7.420,141.460 7.600,140.800 7.600 C 140.140 7.600,139.600 7.759,139.600 7.954 C 139.600 8.149,138.613 8.431,137.406 8.582 C 136.200 8.733,135.109 9.023,134.983 9.228 C 134.856 9.433,134.324 9.600,133.800 9.600 C 133.276 9.600,132.736 9.780,132.600 10.000 C 132.464 10.220,131.924 10.400,131.400 10.400 C 130.876 10.400,130.336 10.580,130.200 10.800 C 130.064 11.020,129.603 11.200,129.176 11.200 C 128.749 11.200,128.400 11.380,128.400 11.600 C 128.400 11.820,127.961 12.000,127.424 12.000 C 126.887 12.000,126.336 12.180,126.200 12.400 C 126.064 12.620,125.513 12.800,124.976 12.800 C 124.439 12.800,124.000 12.980,124.000 13.200 C 124.000 13.420,123.640 13.600,123.200 13.600 C 122.760 13.600,122.400 13.780,122.400 14.000 C 122.400 14.220,122.040 14.400,121.600 14.400 C 121.160 14.400,120.800 14.580,120.800 14.800 C 120.800 15.020,120.440 15.200,120.000 15.200 C 119.560 15.200,119.200 15.380,119.200 15.600 C 119.200 15.820,118.660 16.000,118.000 16.000 C 117.340 16.000,116.800 16.180,116.800 16.400 C 116.800 16.620,116.440 16.800,116.000 16.800 C 115.560 16.800,115.200 16.980,115.200 17.200 C 115.200 17.420,114.840 17.600,114.400 17.600 C 113.960 17.600,113.600 17.780,113.600 18.000 C 113.600 18.220,113.240 18.400,112.800 18.400 C 112.360 18.400,112.000 18.580,112.000 18.800 C 112.000 19.020,111.640 19.200,111.200 19.200 C 110.760 19.200,110.400 19.380,110.400 19.600 C 110.400 19.820,110.040 20.000,109.600 20.000 C 109.160 20.000,108.800 20.180,108.800 20.400 C 108.800 20.620,108.530 20.800,108.200 20.800 C 107.870 20.800,107.600 20.980,107.600 21.200 C 107.600 21.420,107.240 21.600,106.800 21.600 C 106.360 21.600,106.000 21.780,106.000 22.000 C 106.000 22.220,105.640 22.400,105.200 22.400 C 104.760 22.400,104.400 22.580,104.400 22.800 C 104.400 23.020,104.040 23.200,103.600 23.200 C 103.160 23.200,102.800 23.380,102.800 23.600 C 102.800 23.820,102.440 24.000,102.000 24.000 C 101.560 24.000,101.200 24.135,101.200 24.301 C 101.200 24.466,100.120 25.111,98.800 25.735 C 97.480 26.358,96.400 27.033,96.400 27.234 C 96.400 27.435,96.040 27.600,95.600 27.600 C 95.160 27.600,94.800 27.780,94.800 28.000 C 94.800 28.220,94.558 28.400,94.262 28.400 C 93.966 28.400,93.398 28.760,93.000 29.200 C 92.602 29.640,92.074 30.000,91.826 30.000 C 91.579 30.000,91.117 30.360,90.800 30.800 C 90.483 31.240,89.943 31.600,89.600 31.600 C 89.257 31.600,88.717 31.960,88.400 32.400 C 88.083 32.840,87.543 33.200,87.200 33.200 C 86.857 33.200,86.317 33.560,86.000 34.000 C 85.683 34.440,85.175 34.800,84.872 34.800 C 84.569 34.800,83.817 35.340,83.200 36.000 C 82.583 36.660,81.867 37.200,81.608 37.200 C 81.349 37.200,80.446 37.920,79.600 38.800 C 78.754 39.680,77.894 40.400,77.687 40.400 C 77.481 40.400,76.644 41.030,75.827 41.800 C 75.011 42.570,74.192 43.200,74.006 43.200 C 73.821 43.200,72.573 44.280,71.232 45.600 C 69.892 46.920,68.611 48.000,68.386 48.000 C 68.161 48.000,65.815 50.205,63.174 52.900 C 57.415 58.777,58.777 57.415,52.900 63.174 C 50.205 65.815,48.000 68.161,48.000 68.386 C 48.000 68.611,46.920 69.892,45.600 71.232 C 44.280 72.573,43.200 73.835,43.200 74.037 C 43.200 74.239,42.390 75.203,41.400 76.179 C 40.410 77.155,39.600 78.162,39.600 78.416 C 39.600 78.671,39.060 79.383,38.400 80.000 C 37.740 80.617,37.200 81.337,37.200 81.600 C 37.200 81.863,36.660 82.583,36.000 83.200 C 35.340 83.817,34.800 84.569,34.800 84.872 C 34.800 85.175,34.440 85.683,34.000 86.000 C 33.560 86.317,33.200 86.857,33.200 87.200 C 33.200 87.543,32.840 88.083,32.400 88.400 C 31.960 88.717,31.600 89.225,31.600 89.528 C 31.600 89.831,31.093 90.556,30.473 91.140 C 29.853 91.723,29.089 92.785,28.775 93.500 C 28.462 94.215,28.090 94.800,27.949 94.800 C 27.809 94.800,27.211 95.787,26.621 96.992 C 26.031 98.198,25.380 99.289,25.174 99.416 C 24.968 99.543,24.800 99.997,24.800 100.424 C 24.800 100.851,24.620 101.200,24.400 101.200 C 24.180 101.200,24.000 101.560,24.000 102.000 C 24.000 102.440,23.820 102.800,23.600 102.800 C 23.380 102.800,23.200 103.160,23.200 103.600 C 23.200 104.040,23.020 104.400,22.800 104.400 C 22.580 104.400,22.400 104.760,22.400 105.200 C 22.400 105.640,22.220 106.000,22.000 106.000 C 21.780 106.000,21.600 106.320,21.600 106.712 C 21.600 107.103,21.240 107.683,20.800 108.000 C 20.360 108.317,20.000 108.897,20.000 109.288 C 20.000 109.680,19.820 110.000,19.600 110.000 C 19.380 110.000,19.200 110.450,19.200 111.000 C 19.200 111.550,19.020 112.000,18.800 112.000 C 18.580 112.000,18.400 112.360,18.400 112.800 C 18.400 113.240,18.220 113.600,18.000 113.600 C 17.780 113.600,17.600 113.960,17.600 114.400 C 17.600 114.840,17.420 115.200,17.200 115.200 C 16.980 115.200,16.800 115.560,16.800 116.000 C 16.800 116.440,16.620 116.800,16.400 116.800 C 16.180 116.800,16.000 117.160,16.000 117.600 C 16.000 118.040,15.820 118.400,15.600 118.400 C 15.380 118.400,15.200 118.760,15.200 119.200 C 15.200 119.640,15.020 120.000,14.800 120.000 C 14.580 120.000,14.400 120.540,14.400 121.200 C 14.400 121.860,14.220 122.400,14.000 122.400 C 13.780 122.400,13.600 122.760,13.600 123.200 C 13.600 123.640,13.420 124.000,13.200 124.000 C 12.980 124.000,12.800 124.355,12.800 124.788 C 12.800 125.221,12.440 126.217,12.000 127.000 C 11.560 127.783,11.200 128.779,11.200 129.212 C 11.200 129.995,12.439 130.000,200.000 130.000 C 388.533 130.000,388.800 129.999,388.800 129.200 C 388.800 128.760,388.620 128.400,388.400 128.400 C 388.180 128.400,388.000 127.961,388.000 127.424 C 388.000 126.887,387.820 126.336,387.600 126.200 C 387.380 126.064,387.200 125.513,387.200 124.976 C 387.200 124.439,387.020 124.000,386.800 124.000 C 386.580 124.000,386.400 123.640,386.400 123.200 C 386.400 122.760,386.220 122.400,386.000 122.400 C 385.780 122.400,385.600 122.040,385.600 121.600 C 385.600 121.160,385.420 120.800,385.200 120.800 C 384.980 120.800,384.800 120.260,384.800 119.600 C 384.800 118.940,384.620 118.400,384.400 118.400 C 384.180 118.400,384.000 118.040,384.000 117.600 C 384.000 117.160,383.820 116.800,383.600 116.800 C 383.380 116.800,383.200 116.440,383.200 116.000 C 383.200 115.560,383.020 115.200,382.800 115.200 C 382.580 115.200,382.400 114.840,382.400 114.400 C 382.400 113.960,382.220 113.600,382.000 113.600 C 381.780 113.600,381.600 113.240,381.600 112.800 C 381.600 112.360,381.420 112.000,381.200 112.000 C 380.980 112.000,380.800 111.640,380.800 111.200 C 380.800 110.760,380.620 110.400,380.400 110.400 C 380.180 110.400,380.000 110.130,380.000 109.800 C 380.000 109.470,379.820 109.200,379.600 109.200 C 379.380 109.200,379.200 108.840,379.200 108.400 C 379.200 107.960,379.020 107.600,378.800 107.600 C 378.580 107.600,378.400 107.240,378.400 106.800 C 378.400 106.360,378.220 106.000,378.000 106.000 C 377.780 106.000,377.600 105.680,377.600 105.288 C 377.600 104.897,377.240 104.317,376.800 104.000 C 376.360 103.683,376.000 103.103,376.000 102.712 C 376.000 102.320,375.820 102.000,375.600 102.000 C 375.380 102.000,375.200 101.721,375.200 101.380 C 375.200 100.753,374.099 98.368,373.639 98.000 C 373.502 97.890,372.958 96.945,372.432 95.900 C 371.905 94.855,371.323 94.000,371.137 94.000 C 370.952 94.000,370.800 93.770,370.800 93.488 C 370.800 93.207,370.440 92.717,370.000 92.400 C 369.560 92.083,369.200 91.543,369.200 91.200 C 369.200 90.857,368.840 90.317,368.400 90.000 C 367.960 89.683,367.600 89.143,367.600 88.800 C 367.600 88.457,367.240 87.917,366.800 87.600 C 366.360 87.283,366.000 86.743,366.000 86.400 C 366.000 86.057,365.640 85.517,365.200 85.200 C 364.760 84.883,364.400 84.379,364.400 84.080 C 364.400 83.782,363.680 82.846,362.800 82.000 C 361.920 81.154,361.200 80.251,361.200 79.992 C 361.200 79.733,360.660 79.017,360.000 78.400 C 359.340 77.783,358.800 77.087,358.800 76.853 C 358.800 76.618,358.170 75.797,357.400 75.027 C 356.630 74.257,356.000 73.456,356.000 73.248 C 356.000 73.040,354.920 71.773,353.600 70.432 C 352.280 69.092,351.200 67.810,351.200 67.585 C 351.200 67.359,349.175 65.194,346.700 62.774 C 341.329 57.521,342.619 58.811,336.826 52.900 C 334.185 50.205,331.844 48.000,331.625 48.000 C 331.405 48.000,330.105 46.920,328.735 45.600 C 327.365 44.280,326.109 43.200,325.944 43.200 C 325.779 43.200,324.960 42.571,324.122 41.802 C 323.285 41.033,322.447 40.403,322.260 40.402 C 322.074 40.401,321.417 39.860,320.800 39.200 C 320.183 38.540,319.463 38.000,319.200 38.000 C 318.937 38.000,318.217 37.460,317.600 36.800 C 316.983 36.140,316.263 35.600,316.000 35.600 C 315.737 35.600,315.017 35.060,314.400 34.400 C 313.783 33.740,313.031 33.200,312.728 33.200 C 312.425 33.200,311.917 32.840,311.600 32.400 C 311.283 31.960,310.743 31.600,310.400 31.600 C 310.057 31.600,309.517 31.240,309.200 30.800 C 308.883 30.360,308.427 30.000,308.187 30.000 C 307.947 30.000,307.402 29.675,306.975 29.278 C 306.549 28.880,305.615 28.297,304.900 27.980 C 304.185 27.664,303.600 27.302,303.600 27.176 C 303.600 27.050,302.520 26.431,301.200 25.800 C 299.880 25.169,298.800 24.506,298.800 24.326 C 298.800 24.147,298.440 24.000,298.000 24.000 C 297.560 24.000,297.200 23.820,297.200 23.600 C 297.200 23.380,296.840 23.200,296.400 23.200 C 295.960 23.200,295.600 23.020,295.600 22.800 C 295.600 22.580,295.240 22.400,294.800 22.400 C 294.360 22.400,294.000 22.220,294.000 22.000 C 294.000 21.780,293.640 21.600,293.200 21.600 C 292.760 21.600,292.400 21.420,292.400 21.200 C 292.400 20.980,292.130 20.800,291.800 20.800 C 291.470 20.800,291.200 20.620,291.200 20.400 C 291.200 20.180,290.840 20.000,290.400 20.000 C 289.960 20.000,289.600 19.820,289.600 19.600 C 289.600 19.380,289.240 19.200,288.800 19.200 C 288.360 19.200,288.000 19.020,288.000 18.800 C 288.000 18.580,287.640 18.400,287.200 18.400 C 286.760 18.400,286.400 18.220,286.400 18.000 C 286.400 17.780,286.040 17.600,285.600 17.600 C 285.160 17.600,284.800 17.420,284.800 17.200 C 284.800 16.980,284.440 16.800,284.000 16.800 C 283.560 16.800,283.200 16.620,283.200 16.400 C 283.200 16.180,282.660 16.000,282.000 16.000 C 281.340 16.000,280.800 15.820,280.800 15.600 C 280.800 15.380,280.440 15.200,280.000 15.200 C 279.560 15.200,279.200 15.020,279.200 14.800 C 279.200 14.580,278.840 14.400,278.400 14.400 C 277.960 14.400,277.600 14.220,277.600 14.000 C 277.600 13.780,277.240 13.600,276.800 13.600 C 276.360 13.600,276.000 13.420,276.000 13.200 C 276.000 12.980,275.561 12.800,275.024 12.800 C 274.487 12.800,273.936 12.620,273.800 12.400 C 273.664 12.180,273.113 12.000,272.576 12.000 C 272.039 12.000,271.600 11.820,271.600 11.600 C 271.600 11.380,271.328 11.200,270.995 11.200 C 270.662 11.200,270.077 11.037,269.695 10.839 C 268.423 10.177,262.359 8.400,261.372 8.400 C 260.838 8.400,260.400 8.220,260.400 8.000 C 260.400 7.780,259.770 7.600,259.000 7.600 C 258.230 7.600,257.600 7.420,257.600 7.200 C 257.600 6.980,257.060 6.800,256.400 6.800 C 255.740 6.800,255.200 6.620,255.200 6.400 C 255.200 6.180,254.480 6.000,253.600 6.000 C 252.720 6.000,252.000 5.820,252.000 5.600 C 252.000 5.380,251.280 5.200,250.400 5.200 C 249.520 5.200,248.800 5.020,248.800 4.800 C 248.800 4.580,248.080 4.400,247.200 4.400 C 246.320 4.400,245.600 4.220,245.600 4.000 C 245.600 3.780,244.700 3.600,243.600 3.600 C 242.500 3.600,241.600 3.420,241.600 3.200 C 241.600 2.980,240.981 2.800,240.224 2.800 C 239.467 2.800,238.736 2.620,238.600 2.400 C 238.464 2.180,237.193 2.000,235.776 2.000 C 234.325 2.000,233.200 1.825,233.200 1.600 C 233.200 1.363,231.744 1.200,229.633 1.200 C 227.152 1.200,226.016 1.049,225.901 0.704 C 225.739 0.216,187.241 -0.122,177.100 0.276 M12.100 269.482 C 10.948 269.704,10.910 271.059,12.000 273.000 C 12.440 273.783,12.800 274.779,12.800 275.212 C 12.800 275.645,12.980 276.000,13.200 276.000 C 13.420 276.000,13.600 276.360,13.600 276.800 C 13.600 277.240,13.780 277.600,14.000 277.600 C 14.220 277.600,14.400 277.960,14.400 278.400 C 14.400 278.840,14.580 279.200,14.800 279.200 C 15.020 279.200,15.200 279.740,15.200 280.400 C 15.200 281.060,15.380 281.600,15.600 281.600 C 15.820 281.600,16.000 281.960,16.000 282.400 C 16.000 282.840,16.180 283.200,16.400 283.200 C 16.620 283.200,16.800 283.560,16.800 284.000 C 16.800 284.440,16.980 284.800,17.200 284.800 C 17.420 284.800,17.600 285.160,17.600 285.600 C 17.600 286.040,17.780 286.400,18.000 286.400 C 18.220 286.400,18.400 286.760,18.400 287.200 C 18.400 287.640,18.580 288.000,18.800 288.000 C 19.020 288.000,19.200 288.360,19.200 288.800 C 19.200 289.240,19.380 289.600,19.600 289.600 C 19.820 289.600,20.000 289.960,20.000 290.400 C 20.000 290.840,20.180 291.200,20.400 291.200 C 20.620 291.200,20.800 291.470,20.800 291.800 C 20.800 292.130,20.980 292.400,21.200 292.400 C 21.420 292.400,21.600 292.760,21.600 293.200 C 21.600 293.640,21.780 294.000,22.000 294.000 C 22.220 294.000,22.400 294.360,22.400 294.800 C 22.400 295.240,22.580 295.600,22.800 295.600 C 23.020 295.600,23.200 295.920,23.200 296.312 C 23.200 296.703,23.560 297.283,24.000 297.600 C 24.440 297.917,24.800 298.413,24.800 298.702 C 24.800 299.591,28.214 305.699,28.842 305.933 C 29.039 306.007,29.200 306.294,29.200 306.571 C 29.200 306.849,29.560 307.402,30.000 307.800 C 30.440 308.198,30.800 308.726,30.800 308.974 C 30.800 309.221,31.160 309.683,31.600 310.000 C 32.040 310.317,32.400 310.857,32.400 311.200 C 32.400 311.543,32.760 312.083,33.200 312.400 C 33.640 312.717,34.000 313.257,34.000 313.600 C 34.000 313.943,34.360 314.483,34.800 314.800 C 35.240 315.117,35.600 315.625,35.600 315.928 C 35.600 316.231,36.140 316.983,36.800 317.600 C 37.460 318.217,38.000 318.937,38.000 319.200 C 38.000 319.463,38.540 320.183,39.200 320.800 C 39.860 321.417,40.401 322.074,40.402 322.260 C 40.403 322.447,41.033 323.285,41.802 324.122 C 42.571 324.960,43.200 325.779,43.200 325.944 C 43.200 326.109,44.280 327.365,45.600 328.735 C 46.920 330.105,48.000 331.405,48.000 331.625 C 48.000 331.844,50.205 334.185,52.900 336.826 C 58.777 342.585,57.415 341.223,63.174 347.100 C 65.815 349.795,68.161 352.000,68.386 352.000 C 68.611 352.000,69.892 353.080,71.232 354.400 C 72.573 355.720,73.809 356.800,73.979 356.800 C 74.149 356.800,74.956 357.430,75.773 358.200 C 76.589 358.970,77.442 359.600,77.668 359.600 C 77.894 359.600,78.583 360.140,79.200 360.800 C 79.817 361.460,80.537 362.000,80.800 362.000 C 81.063 362.000,81.783 362.540,82.400 363.200 C 83.017 363.860,83.737 364.400,84.000 364.400 C 84.263 364.400,84.983 364.940,85.600 365.600 C 86.217 366.260,86.969 366.800,87.272 366.800 C 87.575 366.800,88.083 367.160,88.400 367.600 C 88.717 368.040,89.231 368.400,89.541 368.400 C 89.852 368.400,90.397 368.716,90.753 369.103 C 91.109 369.489,91.940 370.074,92.600 370.403 C 93.260 370.731,94.149 371.315,94.575 371.700 C 95.002 372.085,95.587 372.400,95.875 372.400 C 96.164 372.400,96.400 372.542,96.400 372.716 C 96.400 373.113,100.477 375.200,101.252 375.200 C 101.566 375.200,102.083 375.560,102.400 376.000 C 102.717 376.440,103.297 376.800,103.688 376.800 C 104.080 376.800,104.400 376.980,104.400 377.200 C 104.400 377.420,104.760 377.600,105.200 377.600 C 105.640 377.600,106.000 377.780,106.000 378.000 C 106.000 378.220,106.360 378.400,106.800 378.400 C 107.240 378.400,107.600 378.580,107.600 378.800 C 107.600 379.020,107.870 379.200,108.200 379.200 C 108.530 379.200,108.800 379.380,108.800 379.600 C 108.800 379.820,109.160 380.000,109.600 380.000 C 110.040 380.000,110.400 380.180,110.400 380.400 C 110.400 380.620,110.760 380.800,111.200 380.800 C 111.640 380.800,112.000 380.980,112.000 381.200 C 112.000 381.420,112.360 381.600,112.800 381.600 C 113.240 381.600,113.600 381.780,113.600 382.000 C 113.600 382.220,113.960 382.400,114.400 382.400 C 114.840 382.400,115.200 382.580,115.200 382.800 C 115.200 383.020,115.560 383.200,116.000 383.200 C 116.440 383.200,116.800 383.380,116.800 383.600 C 116.800 383.820,117.160 384.000,117.600 384.000 C 118.040 384.000,118.400 384.180,118.400 384.400 C 118.400 384.620,118.760 384.800,119.200 384.800 C 119.640 384.800,120.000 384.980,120.000 385.200 C 120.000 385.420,120.540 385.600,121.200 385.600 C 121.860 385.600,122.400 385.780,122.400 386.000 C 122.400 386.220,122.760 386.400,123.200 386.400 C 123.640 386.400,124.000 386.580,124.000 386.800 C 124.000 387.020,124.439 387.200,124.976 387.200 C 125.513 387.200,126.064 387.380,126.200 387.600 C 126.336 387.820,126.887 388.000,127.424 388.000 C 127.961 388.000,128.400 388.180,128.400 388.400 C 128.400 388.620,128.749 388.800,129.176 388.800 C 129.603 388.800,130.064 388.980,130.200 389.200 C 130.336 389.420,130.876 389.600,131.400 389.600 C 131.924 389.600,132.464 389.780,132.600 390.000 C 132.736 390.220,133.276 390.400,133.800 390.400 C 134.324 390.400,134.856 390.567,134.983 390.772 C 135.109 390.977,136.200 391.267,137.406 391.418 C 138.613 391.569,139.600 391.851,139.600 392.046 C 139.600 392.241,140.140 392.400,140.800 392.400 C 141.460 392.400,142.000 392.580,142.000 392.800 C 142.000 393.020,142.630 393.200,143.400 393.200 C 144.170 393.200,144.800 393.380,144.800 393.600 C 144.800 393.820,145.520 394.000,146.400 394.000 C 147.280 394.000,148.000 394.180,148.000 394.400 C 148.000 394.620,148.720 394.800,149.600 394.800 C 150.480 394.800,151.200 394.980,151.200 395.200 C 151.200 395.420,151.920 395.600,152.800 395.600 C 153.680 395.600,154.400 395.780,154.400 396.000 C 154.400 396.220,155.300 396.400,156.400 396.400 C 157.500 396.400,158.400 396.580,158.400 396.800 C 158.400 397.026,159.533 397.200,161.000 397.200 C 162.467 397.200,163.600 397.374,163.600 397.600 C 163.600 397.820,164.500 398.000,165.600 398.000 C 166.700 398.000,167.600 398.180,167.600 398.400 C 167.600 398.633,168.922 398.800,170.767 398.800 C 172.944 398.800,173.985 398.956,174.100 399.300 C 174.231 399.693,179.769 399.800,200.000 399.800 C 220.231 399.800,225.769 399.693,225.900 399.300 C 226.015 398.956,227.056 398.800,229.233 398.800 C 231.078 398.800,232.400 398.633,232.400 398.400 C 232.400 398.180,233.300 398.000,234.400 398.000 C 235.500 398.000,236.400 397.820,236.400 397.600 C 236.400 397.374,237.533 397.200,239.000 397.200 C 240.467 397.200,241.600 397.026,241.600 396.800 C 241.600 396.580,242.320 396.400,243.200 396.400 C 244.080 396.400,244.800 396.220,244.800 396.000 C 244.800 395.780,245.700 395.600,246.800 395.600 C 247.900 395.600,248.800 395.420,248.800 395.200 C 248.800 394.980,249.520 394.800,250.400 394.800 C 251.280 394.800,252.000 394.620,252.000 394.400 C 252.000 394.180,252.720 394.000,253.600 394.000 C 254.480 394.000,255.200 393.820,255.200 393.600 C 255.200 393.380,255.740 393.200,256.400 393.200 C 257.060 393.200,257.600 393.020,257.600 392.800 C 257.600 392.580,258.230 392.400,259.000 392.400 C 259.770 392.400,260.400 392.241,260.400 392.046 C 260.400 391.851,261.387 391.569,262.594 391.418 C 263.800 391.267,264.891 390.977,265.017 390.772 C 265.144 390.567,265.676 390.400,266.200 390.400 C 266.724 390.400,267.264 390.220,267.400 390.000 C 267.536 389.780,268.076 389.600,268.600 389.600 C 269.124 389.600,269.664 389.420,269.800 389.200 C 269.936 388.980,270.397 388.800,270.824 388.800 C 271.251 388.800,271.600 388.620,271.600 388.400 C 271.600 388.180,272.039 388.000,272.576 388.000 C 273.113 388.000,273.664 387.820,273.800 387.600 C 273.936 387.380,274.487 387.200,275.024 387.200 C 275.561 387.200,276.000 387.020,276.000 386.800 C 276.000 386.580,276.360 386.400,276.800 386.400 C 277.240 386.400,277.600 386.220,277.600 386.000 C 277.600 385.780,277.960 385.600,278.400 385.600 C 278.840 385.600,279.200 385.420,279.200 385.200 C 279.200 384.980,279.740 384.800,280.400 384.800 C 281.060 384.800,281.600 384.620,281.600 384.400 C 281.600 384.180,281.960 384.000,282.400 384.000 C 282.840 384.000,283.200 383.820,283.200 383.600 C 283.200 383.380,283.560 383.200,284.000 383.200 C 284.440 383.200,284.800 383.020,284.800 382.800 C 284.800 382.580,285.160 382.400,285.600 382.400 C 286.040 382.400,286.400 382.220,286.400 382.000 C 286.400 381.780,286.760 381.600,287.200 381.600 C 287.640 381.600,288.000 381.420,288.000 381.200 C 288.000 380.980,288.360 380.800,288.800 380.800 C 289.240 380.800,289.600 380.620,289.600 380.400 C 289.600 380.180,289.960 380.000,290.400 380.000 C 290.840 380.000,291.200 379.820,291.200 379.600 C 291.200 379.380,291.470 379.200,291.800 379.200 C 292.130 379.200,292.400 379.020,292.400 378.800 C 292.400 378.580,292.760 378.400,293.200 378.400 C 293.640 378.400,294.000 378.220,294.000 378.000 C 294.000 377.780,294.320 377.600,294.712 377.600 C 295.103 377.600,295.683 377.240,296.000 376.800 C 296.317 376.360,296.897 376.000,297.288 376.000 C 297.680 376.000,298.000 375.820,298.000 375.600 C 298.000 375.380,298.279 375.200,298.620 375.200 C 299.247 375.200,301.632 374.099,302.000 373.639 C 302.110 373.502,303.055 372.958,304.100 372.432 C 305.145 371.905,306.000 371.323,306.000 371.137 C 306.000 370.952,306.236 370.800,306.525 370.800 C 306.813 370.800,307.436 370.440,307.908 370.000 C 308.380 369.560,308.914 369.200,309.095 369.200 C 309.276 369.200,309.683 368.840,310.000 368.400 C 310.317 367.960,310.857 367.600,311.200 367.600 C 311.543 367.600,312.083 367.240,312.400 366.800 C 312.717 366.360,313.257 366.000,313.600 366.000 C 313.943 366.000,314.483 365.640,314.800 365.200 C 315.117 364.760,315.625 364.400,315.928 364.400 C 316.231 364.400,316.983 363.860,317.600 363.200 C 318.217 362.540,318.937 362.000,319.200 362.000 C 319.463 362.000,320.183 361.460,320.800 360.800 C 321.417 360.140,322.106 359.600,322.332 359.600 C 322.558 359.600,323.411 358.970,324.227 358.200 C 325.044 357.430,325.832 356.800,325.978 356.800 C 326.124 356.800,327.365 355.720,328.735 354.400 C 330.105 353.080,331.405 352.000,331.625 352.000 C 331.844 352.000,334.185 349.795,336.826 347.100 C 342.619 341.189,341.329 342.479,346.700 337.226 C 349.175 334.806,351.200 332.628,351.200 332.387 C 351.200 332.145,352.100 331.071,353.200 330.000 C 354.300 328.929,355.200 327.854,355.200 327.611 C 355.200 327.369,356.010 326.383,357.000 325.421 C 357.990 324.459,358.800 323.458,358.800 323.196 C 358.800 322.935,359.340 322.217,360.000 321.600 C 360.660 320.983,361.200 320.263,361.200 320.000 C 361.200 319.737,361.740 319.017,362.400 318.400 C 363.060 317.783,363.600 317.031,363.600 316.728 C 363.600 316.425,363.960 315.917,364.400 315.600 C 364.840 315.283,365.200 314.743,365.200 314.400 C 365.200 314.057,365.560 313.517,366.000 313.200 C 366.440 312.883,366.800 312.375,366.800 312.072 C 366.800 311.769,367.340 311.017,368.000 310.400 C 368.660 309.783,369.200 309.115,369.200 308.915 C 369.200 308.715,369.525 308.202,369.922 307.775 C 370.320 307.349,370.903 306.415,371.220 305.700 C 371.536 304.985,371.903 304.400,372.035 304.400 C 372.166 304.400,372.706 303.545,373.235 302.500 C 373.763 301.455,374.421 300.362,374.698 300.071 C 374.974 299.781,375.200 299.196,375.200 298.771 C 375.200 298.347,375.380 298.000,375.600 298.000 C 375.820 298.000,376.000 297.680,376.000 297.288 C 376.000 296.897,376.360 296.317,376.800 296.000 C 377.240 295.683,377.600 295.103,377.600 294.712 C 377.600 294.320,377.780 294.000,378.000 294.000 C 378.220 294.000,378.400 293.640,378.400 293.200 C 378.400 292.760,378.546 292.400,378.725 292.400 C 378.904 292.400,379.298 291.770,379.600 291.000 C 379.902 290.230,380.296 289.600,380.475 289.600 C 380.654 289.600,380.800 289.240,380.800 288.800 C 380.800 288.360,380.980 288.000,381.200 288.000 C 381.420 288.000,381.600 287.640,381.600 287.200 C 381.600 286.760,381.780 286.400,382.000 286.400 C 382.220 286.400,382.400 286.040,382.400 285.600 C 382.400 285.160,382.580 284.800,382.800 284.800 C 383.020 284.800,383.200 284.440,383.200 284.000 C 383.200 283.560,383.380 283.200,383.600 283.200 C 383.820 283.200,384.000 282.660,384.000 282.000 C 384.000 281.340,384.180 280.800,384.400 280.800 C 384.620 280.800,384.800 280.440,384.800 280.000 C 384.800 279.560,384.980 279.200,385.200 279.200 C 385.420 279.200,385.600 278.840,385.600 278.400 C 385.600 277.960,385.780 277.600,386.000 277.600 C 386.220 277.600,386.400 277.240,386.400 276.800 C 386.400 276.360,386.580 276.000,386.800 276.000 C 387.020 276.000,387.200 275.561,387.200 275.024 C 387.200 274.487,387.380 273.936,387.600 273.800 C 387.820 273.664,388.000 273.113,388.000 272.576 C 388.000 272.039,388.180 271.600,388.400 271.600 C 389.509 271.600,388.754 269.691,387.550 269.450 C 386.167 269.173,13.538 269.205,12.100 269.482 "
            stroke="none"
            fill="#dc0424"
            fill-rule="evenodd"
        ></path>
    </g>
</svg>
