<svg id="svg" version="1.1" xmlns="http://www.w3.org/2000/svg" xmlns:xlink="http://www.w3.org/1999/xlink" width="400" height="400" viewBox="0, 0, 400,400"><g id="svgg"><path id="path0" d="M287.900 19.984 C 286.740 21.116,286.820 379.097,287.980 380.090 C 288.714 380.719,288.774 380.711,289.016 379.950 C 289.169 379.468,289.500 379.229,289.836 379.359 C 290.164 379.484,290.400 379.329,290.400 378.987 C 290.400 378.664,290.760 378.400,291.200 378.400 C 291.640 378.400,292.000 378.220,292.000 378.000 C 292.000 377.780,292.270 377.600,292.600 377.600 C 292.930 377.600,293.200 377.420,293.200 377.200 C 293.200 376.980,293.560 376.800,294.000 376.800 C 294.440 376.800,294.800 376.620,294.800 376.400 C 294.800 376.180,295.081 376.000,295.424 376.000 C 295.793 376.000,295.931 376.188,295.762 376.462 C 295.585 376.748,295.652 376.815,295.938 376.638 C 296.192 376.481,296.400 376.093,296.400 375.776 C 296.400 375.459,296.715 375.187,297.100 375.170 C 298.635 375.105,299.740 374.755,300.806 373.996 C 301.421 373.558,302.166 373.197,302.462 373.194 C 302.871 373.189,302.857 373.095,302.400 372.800 C 301.887 372.469,301.902 372.411,302.500 372.406 C 302.885 372.403,303.200 372.220,303.200 372.000 C 303.200 371.780,303.605 371.596,304.100 371.591 C 304.595 371.586,305.450 371.230,306.000 370.800 C 306.550 370.370,307.225 370.014,307.500 370.009 C 307.775 370.004,308.000 369.640,308.000 369.200 C 308.000 368.667,308.267 368.400,308.800 368.400 C 309.240 368.400,309.600 368.220,309.600 368.000 C 309.600 367.780,309.888 367.600,310.240 367.600 C 310.591 367.600,311.383 367.060,312.000 366.400 C 312.617 365.740,313.369 365.200,313.672 365.200 C 313.975 365.200,314.483 364.840,314.800 364.400 C 315.117 363.960,315.793 363.600,316.301 363.600 C 316.813 363.600,317.343 363.288,317.490 362.900 C 317.869 361.899,318.643 361.200,319.371 361.200 C 319.717 361.200,320.003 360.975,320.006 360.700 C 320.010 360.362,320.148 360.394,320.432 360.800 C 320.761 361.270,320.797 361.205,320.599 360.500 C 320.384 359.735,320.500 359.600,321.373 359.600 C 321.938 359.600,322.400 359.459,322.400 359.288 C 322.400 359.116,322.962 358.763,323.649 358.504 C 324.465 358.196,324.822 357.836,324.680 357.465 C 324.386 356.698,325.155 356.000,326.293 356.000 C 326.813 356.000,327.342 355.691,327.490 355.300 C 327.884 354.261,328.650 353.601,329.471 353.594 C 330.088 353.589,330.108 353.528,329.600 353.200 C 329.115 352.886,329.172 352.811,329.900 352.806 C 330.395 352.803,330.800 352.632,330.800 352.427 C 330.800 352.222,331.139 351.946,331.552 351.815 C 332.561 351.495,334.000 350.218,334.000 349.643 C 334.000 349.388,334.810 348.369,335.800 347.379 C 336.790 346.389,337.600 345.776,337.600 346.016 C 337.600 346.257,338.502 345.527,339.604 344.396 C 340.707 343.264,341.506 342.172,341.381 341.969 C 341.255 341.766,341.421 341.600,341.750 341.600 C 342.078 341.600,343.271 340.700,344.400 339.600 C 345.529 338.500,346.257 337.600,346.018 337.600 C 345.779 337.600,346.573 336.610,347.783 335.400 C 348.993 334.190,350.235 333.200,350.543 333.200 C 350.851 333.200,351.327 332.660,351.600 332.000 C 351.873 331.340,352.255 330.800,352.449 330.800 C 352.642 330.800,352.800 330.522,352.800 330.182 C 352.800 329.471,354.272 327.888,355.301 327.493 C 355.685 327.346,356.000 326.849,356.000 326.389 C 356.000 325.929,356.180 325.664,356.400 325.800 C 356.620 325.936,356.800 325.767,356.800 325.424 C 356.800 325.081,357.064 324.800,357.386 324.800 C 358.019 324.800,358.636 323.879,358.860 322.600 C 359.047 321.532,359.780 320.801,360.671 320.794 C 361.288 320.789,361.308 320.728,360.800 320.400 C 360.400 320.142,360.367 320.010,360.700 320.006 C 360.975 320.003,361.200 319.717,361.200 319.371 C 361.200 318.643,361.899 317.869,362.900 317.490 C 363.313 317.334,363.600 316.809,363.600 316.213 C 363.600 315.467,363.811 315.200,364.400 315.200 C 365.008 315.200,365.200 314.933,365.200 314.088 C 365.200 313.435,365.530 312.739,366.000 312.400 C 366.440 312.083,366.800 311.580,366.800 311.283 C 366.800 310.446,367.887 309.486,368.136 310.104 C 368.247 310.377,368.351 310.262,368.368 309.847 C 368.386 309.433,368.770 308.773,369.222 308.381 C 369.675 307.988,370.074 307.278,370.110 306.801 C 370.146 306.324,370.496 305.763,370.888 305.553 C 371.299 305.333,371.603 304.713,371.606 304.086 C 371.611 303.238,371.697 303.131,372.000 303.600 C 372.331 304.113,372.389 304.098,372.394 303.500 C 372.397 303.115,372.580 302.800,372.800 302.800 C 373.020 302.800,373.200 302.603,373.200 302.362 C 373.200 302.121,373.572 301.401,374.027 300.762 C 374.546 300.034,374.759 299.302,374.600 298.800 C 374.454 298.341,374.528 298.000,374.773 298.000 C 375.008 298.000,375.200 297.640,375.200 297.200 C 375.200 296.760,375.380 296.400,375.600 296.400 C 375.820 296.400,376.000 296.040,376.000 295.600 C 376.000 295.160,376.180 294.800,376.400 294.800 C 376.620 294.800,376.800 294.440,376.800 294.000 C 376.800 293.560,376.980 293.200,377.200 293.200 C 377.420 293.200,377.600 292.840,377.600 292.400 C 377.600 291.960,377.780 291.600,378.000 291.600 C 378.220 291.600,378.400 291.330,378.400 291.000 C 378.400 290.670,378.625 290.445,378.900 290.500 C 379.209 290.562,379.352 290.255,379.275 289.700 C 379.177 288.997,379.352 288.793,380.075 288.768 C 380.584 288.751,380.775 288.646,380.500 288.535 C 379.656 288.194,379.946 287.202,380.900 287.168 C 381.395 287.151,381.575 287.046,381.300 286.935 C 380.706 286.696,380.624 285.600,381.200 285.600 C 381.420 285.600,381.600 285.240,381.600 284.800 C 381.600 284.360,381.780 284.000,382.000 284.000 C 382.220 284.000,382.400 283.640,382.400 283.200 C 382.400 282.760,382.580 282.400,382.800 282.400 C 383.020 282.400,383.200 281.950,383.200 281.400 C 383.200 280.850,383.380 280.400,383.600 280.400 C 383.820 280.400,384.000 279.950,384.000 279.400 C 384.000 278.850,384.180 278.400,384.400 278.400 C 384.620 278.400,384.800 278.040,384.800 277.600 C 384.800 277.160,384.980 276.800,385.200 276.800 C 385.420 276.800,385.600 276.339,385.600 275.776 C 385.600 275.196,385.773 274.860,386.000 275.000 C 386.231 275.142,386.400 274.770,386.400 274.120 C 386.400 273.426,386.707 272.800,387.200 272.493 C 387.640 272.218,388.000 271.671,388.000 271.277 C 388.000 270.882,388.225 270.318,388.500 270.021 C 388.900 269.590,388.900 269.539,388.500 269.765 C 388.200 269.934,388.000 269.815,388.000 269.466 C 388.000 269.147,388.248 268.791,388.551 268.674 C 388.910 268.536,389.029 268.085,388.893 267.372 C 388.748 266.616,388.824 266.368,389.142 266.564 C 389.449 266.754,389.609 266.411,389.628 265.524 C 389.652 264.399,389.711 264.321,390.021 265.000 C 390.319 265.656,390.379 265.548,390.352 264.400 C 390.301 262.237,390.367 261.932,390.826 262.216 C 391.114 262.394,391.164 262.014,390.981 261.039 C 390.803 260.088,390.862 259.600,391.155 259.600 C 391.400 259.600,391.600 259.060,391.600 258.400 C 391.600 257.740,391.780 257.200,392.000 257.200 C 392.220 257.200,392.400 256.480,392.400 255.600 C 392.400 254.720,392.580 254.000,392.800 254.000 C 393.020 254.000,393.200 253.460,393.200 252.800 C 393.200 252.140,393.380 251.600,393.600 251.600 C 393.820 251.600,394.000 250.880,394.000 250.000 C 394.000 249.120,394.180 248.400,394.400 248.400 C 394.620 248.400,394.800 247.630,394.800 246.688 C 394.800 245.435,395.014 244.822,395.600 244.400 C 396.400 243.824,396.756 242.933,396.000 243.400 C 395.773 243.540,395.600 243.204,395.600 242.624 C 395.600 242.061,395.780 241.600,396.000 241.600 C 396.220 241.600,396.400 240.700,396.400 239.600 C 396.400 238.500,396.580 237.600,396.800 237.600 C 397.020 237.600,397.200 236.610,397.200 235.400 C 397.200 234.190,397.380 233.200,397.600 233.200 C 397.822 233.200,398.000 232.133,398.000 230.800 C 398.000 229.467,398.178 228.400,398.400 228.400 C 398.634 228.400,398.800 227.059,398.800 225.176 C 398.800 223.349,398.957 222.050,399.163 222.177 C 399.755 222.543,399.855 218.830,399.817 198.030 C 399.789 182.808,399.668 178.223,399.290 178.097 C 398.958 177.986,398.800 176.911,398.800 174.767 C 398.800 172.922,398.633 171.600,398.400 171.600 C 398.178 171.600,398.000 170.533,398.000 169.200 C 398.000 167.867,397.822 166.800,397.600 166.800 C 397.380 166.800,397.200 165.810,397.200 164.600 C 397.200 163.390,397.020 162.400,396.800 162.400 C 396.580 162.400,396.400 161.500,396.400 160.400 C 396.400 159.300,396.220 158.400,396.000 158.400 C 395.420 158.400,395.508 156.900,396.100 156.687 C 396.439 156.565,396.310 156.250,395.700 155.707 C 395.041 155.121,394.800 154.463,394.800 153.253 C 394.800 152.344,394.620 151.600,394.400 151.600 C 394.180 151.600,394.000 150.869,394.000 149.976 C 394.000 148.996,393.842 148.451,393.600 148.600 C 393.373 148.740,393.200 148.404,393.200 147.824 C 393.200 147.261,393.425 146.788,393.700 146.773 C 393.975 146.758,393.795 146.551,393.300 146.312 C 392.598 145.973,392.400 145.539,392.400 144.339 C 392.400 143.492,392.220 142.800,392.000 142.800 C 391.780 142.800,391.600 142.260,391.600 141.600 C 391.600 140.940,391.423 140.400,391.208 140.400 C 390.981 140.400,390.891 139.598,390.995 138.500 C 391.094 137.455,391.077 136.915,390.958 137.300 C 390.515 138.731,390.022 137.935,390.215 136.100 C 390.360 134.723,390.310 134.420,390.035 135.000 C 389.693 135.723,389.654 135.695,389.628 134.700 C 389.613 134.095,389.399 133.600,389.153 133.600 C 388.889 133.600,388.787 133.179,388.904 132.568 C 389.029 131.913,388.900 131.460,388.551 131.326 C 388.248 131.209,388.000 130.853,388.000 130.534 C 388.000 130.214,388.193 130.072,388.430 130.218 C 388.666 130.364,388.622 130.105,388.333 129.642 C 388.044 129.179,387.671 128.800,387.504 128.800 C 387.337 128.800,387.200 128.440,387.200 128.000 C 387.200 127.560,387.020 127.200,386.800 127.200 C 386.580 127.200,386.400 126.750,386.400 126.200 C 386.400 125.650,386.220 125.200,386.000 125.200 C 385.780 125.200,385.600 124.750,385.600 124.200 C 385.600 123.650,385.420 123.200,385.200 123.200 C 384.980 123.200,384.800 122.840,384.800 122.400 C 384.800 121.960,384.620 121.600,384.400 121.600 C 384.180 121.600,384.000 121.060,384.000 120.400 C 384.000 119.740,383.820 119.200,383.600 119.200 C 383.380 119.200,383.200 118.662,383.200 118.003 C 383.200 117.240,382.910 116.626,382.400 116.307 C 381.960 116.032,381.600 115.660,381.600 115.480 C 381.600 115.300,381.780 115.264,382.000 115.400 C 382.220 115.536,382.400 115.440,382.400 115.186 C 382.400 114.933,382.040 114.631,381.600 114.516 C 380.711 114.283,380.524 113.378,381.300 113.065 C 381.575 112.954,381.395 112.849,380.900 112.832 C 379.967 112.799,379.593 111.622,380.500 111.573 C 380.775 111.558,380.595 111.351,380.100 111.112 C 379.605 110.873,379.200 110.435,379.200 110.139 C 379.200 109.842,379.020 109.600,378.800 109.600 C 378.580 109.600,378.400 109.330,378.400 109.000 C 378.400 108.670,378.220 108.400,378.000 108.400 C 377.780 108.400,377.600 108.040,377.600 107.600 C 377.600 107.160,377.420 106.800,377.200 106.800 C 376.980 106.800,376.800 106.440,376.800 106.000 C 376.800 105.560,376.620 105.200,376.400 105.200 C 376.180 105.200,376.000 104.919,376.000 104.576 C 376.000 104.233,376.180 104.064,376.400 104.200 C 376.620 104.336,376.800 104.257,376.800 104.024 C 376.800 103.791,376.440 103.600,376.000 103.600 C 375.467 103.600,375.200 103.333,375.200 102.800 C 375.200 102.360,375.008 102.000,374.773 102.000 C 374.520 102.000,374.456 101.654,374.616 101.150 C 374.791 100.598,374.737 100.392,374.463 100.561 C 373.955 100.875,373.200 99.586,373.200 98.403 C 373.200 97.935,373.020 97.664,372.800 97.800 C 372.580 97.936,372.400 97.666,372.400 97.200 C 372.400 96.734,372.236 96.454,372.035 96.579 C 371.834 96.703,371.430 96.264,371.137 95.602 C 370.844 94.941,370.469 94.400,370.302 94.400 C 370.136 94.400,370.000 94.080,370.000 93.688 C 370.000 93.297,369.640 92.717,369.200 92.400 C 368.760 92.083,368.400 91.543,368.400 91.200 C 368.400 90.857,368.040 90.317,367.600 90.000 C 367.160 89.683,366.800 89.143,366.800 88.800 C 366.800 88.457,366.440 87.917,366.000 87.600 C 365.530 87.261,365.200 86.565,365.200 85.912 C 365.200 85.067,365.008 84.800,364.400 84.800 C 363.811 84.800,363.600 84.533,363.600 83.787 C 363.600 83.191,363.313 82.666,362.900 82.510 C 362.022 82.177,361.200 81.380,361.200 80.862 C 361.200 80.645,360.975 80.375,360.700 80.264 C 360.322 80.111,360.347 79.946,360.800 79.593 C 361.307 79.197,361.284 79.162,360.649 79.369 C 359.756 79.660,358.831 78.619,358.813 77.300 C 358.805 76.772,358.552 76.400,358.200 76.400 C 357.870 76.400,357.600 76.119,357.600 75.776 C 357.600 75.433,357.420 75.264,357.200 75.400 C 356.980 75.536,356.800 75.277,356.800 74.824 C 356.800 74.371,356.620 74.000,356.400 74.000 C 356.180 74.000,356.000 73.700,356.000 73.333 C 356.000 72.967,355.891 72.776,355.758 72.909 C 355.380 73.287,353.601 71.321,353.594 70.518 C 353.589 69.908,353.529 69.890,353.200 70.400 C 352.886 70.885,352.811 70.828,352.806 70.100 C 352.803 69.605,352.663 69.200,352.495 69.200 C 352.327 69.200,352.005 68.795,351.780 68.300 C 351.555 67.805,351.152 67.445,350.885 67.500 C 350.618 67.555,350.421 67.465,350.447 67.300 C 350.578 66.476,350.365 65.833,350.094 66.229 C 349.912 66.494,348.995 65.844,347.692 64.529 C 346.533 63.358,345.788 62.400,346.038 62.400 C 346.287 62.400,345.525 61.510,344.345 60.422 C 343.165 59.334,342.068 58.299,341.907 58.122 C 339.353 55.322,337.567 53.600,337.217 53.600 C 336.643 53.600,332.393 49.340,332.681 49.053 C 332.803 48.930,332.430 48.614,331.852 48.351 C 331.273 48.087,330.800 47.720,330.800 47.536 C 330.800 47.351,330.522 47.200,330.182 47.200 C 329.471 47.200,327.888 45.728,327.493 44.699 C 327.346 44.315,326.949 44.000,326.613 44.000 C 326.276 44.000,326.000 43.801,326.000 43.557 C 326.000 43.314,325.720 43.222,325.379 43.353 C 324.964 43.512,324.532 43.194,324.079 42.398 C 323.705 41.742,323.175 41.204,322.900 41.203 C 322.625 41.201,322.397 40.975,322.394 40.700 C 322.390 40.367,322.258 40.400,322.000 40.800 C 321.692 41.276,321.610 41.193,321.600 40.400 C 321.590 39.607,321.508 39.524,321.200 40.000 C 320.892 40.476,320.810 40.393,320.800 39.600 C 320.790 38.807,320.708 38.724,320.400 39.200 C 320.142 39.600,320.010 39.633,320.006 39.300 C 320.003 39.025,319.717 38.800,319.371 38.800 C 318.563 38.800,317.600 37.837,317.600 37.029 C 317.600 36.597,317.224 36.400,316.400 36.400 C 315.424 36.400,315.199 36.232,315.194 35.500 C 315.189 34.772,315.114 34.715,314.800 35.200 C 314.542 35.600,314.410 35.633,314.406 35.300 C 314.403 35.025,314.112 34.800,313.760 34.800 C 313.409 34.800,312.617 34.260,312.000 33.600 C 311.383 32.940,310.591 32.400,310.240 32.400 C 309.888 32.400,309.600 32.220,309.600 32.000 C 309.600 31.780,309.300 31.600,308.933 31.600 C 308.567 31.600,308.378 31.489,308.514 31.352 C 308.809 31.058,307.829 30.000,307.262 30.000 C 307.045 30.000,306.776 29.775,306.665 29.500 C 306.504 29.100,306.457 29.100,306.432 29.500 C 306.414 29.775,306.220 30.000,306.000 30.000 C 305.780 30.000,305.621 29.865,305.647 29.700 C 305.776 28.887,305.545 28.400,305.033 28.400 C 304.722 28.400,304.407 28.222,304.333 28.003 C 304.260 27.785,303.705 27.566,303.100 27.516 C 302.488 27.466,302.000 27.186,302.000 26.886 C 302.000 26.528,301.730 26.432,301.200 26.600 C 300.649 26.775,300.400 26.672,300.400 26.270 C 300.400 25.571,299.436 25.135,298.600 25.455 C 298.270 25.582,298.000 25.486,298.000 25.243 C 298.000 24.999,297.640 24.800,297.200 24.800 C 296.760 24.800,296.400 24.620,296.400 24.400 C 296.400 24.180,296.040 24.000,295.600 24.000 C 295.160 24.000,294.800 23.820,294.800 23.600 C 294.800 23.380,294.440 23.200,294.000 23.200 C 293.560 23.200,293.200 23.020,293.200 22.800 C 293.200 22.580,292.919 22.400,292.576 22.400 C 292.233 22.400,292.064 22.220,292.200 22.000 C 292.340 21.773,292.004 21.600,291.424 21.600 C 290.790 21.600,290.400 21.376,290.400 21.013 C 290.400 20.688,290.162 20.517,289.868 20.629 C 289.576 20.741,289.171 20.488,288.968 20.067 C 288.621 19.343,288.561 19.339,287.900 19.984 " stroke="none" fill="#dc0424" fill-rule="evenodd"></path><path id="path1" d="M110.800 20.373 C 110.800 20.608,110.440 20.800,110.000 20.800 C 109.560 20.800,109.200 20.980,109.200 21.200 C 109.200 21.420,108.840 21.600,108.400 21.600 C 107.960 21.600,107.600 21.780,107.600 22.000 C 107.600 22.220,107.133 22.400,106.563 22.400 C 105.848 22.400,105.457 22.659,105.307 23.232 C 105.157 23.806,104.858 24.004,104.345 23.870 C 103.879 23.748,103.600 23.886,103.600 24.237 C 103.600 24.547,103.240 24.800,102.800 24.800 C 102.360 24.800,102.000 24.999,102.000 25.243 C 102.000 25.486,101.723 25.579,101.385 25.450 C 101.041 25.318,100.673 25.464,100.552 25.781 C 100.432 26.094,100.073 26.250,99.755 26.127 C 99.437 26.005,98.866 26.242,98.488 26.653 C 98.110 27.064,97.350 27.462,96.800 27.538 C 96.250 27.614,95.740 27.839,95.667 28.038 C 95.593 28.237,95.278 28.400,94.967 28.400 C 94.655 28.400,94.400 28.580,94.400 28.800 C 94.400 29.020,94.119 29.200,93.776 29.200 C 93.433 29.200,93.264 29.380,93.400 29.600 C 93.536 29.820,93.316 30.000,92.912 30.000 C 92.507 30.000,91.917 30.360,91.600 30.800 C 91.283 31.240,90.693 31.600,90.288 31.600 C 89.884 31.600,89.664 31.780,89.800 32.000 C 89.936 32.220,89.806 32.400,89.512 32.400 C 89.217 32.400,88.717 32.760,88.400 33.200 C 88.083 33.640,87.503 34.000,87.112 34.000 C 86.720 34.000,86.400 34.180,86.400 34.400 C 86.400 34.620,86.080 34.800,85.688 34.800 C 85.297 34.800,84.717 35.160,84.400 35.600 C 84.083 36.040,83.593 36.400,83.312 36.400 C 83.030 36.400,82.800 36.580,82.800 36.800 C 82.800 37.020,82.570 37.200,82.288 37.200 C 82.007 37.200,81.517 37.560,81.200 38.000 C 80.883 38.440,80.303 38.800,79.912 38.800 C 79.460 38.800,79.200 39.101,79.200 39.624 C 79.200 40.077,79.035 40.345,78.832 40.220 C 78.630 40.095,78.193 40.264,77.861 40.596 C 77.529 40.928,77.146 41.200,77.010 41.200 C 76.875 41.200,76.324 41.605,75.786 42.100 C 73.758 43.968,72.943 44.603,72.433 44.715 C 72.144 44.779,71.246 45.499,70.437 46.315 C 69.629 47.132,68.614 48.008,68.184 48.263 C 67.753 48.517,67.445 48.922,67.500 49.163 C 67.555 49.403,67.465 49.579,67.300 49.553 C 66.465 49.421,66.000 49.663,66.000 50.229 C 66.000 51.073,65.026 51.999,64.129 52.006 C 63.512 52.011,63.492 52.072,64.000 52.400 C 64.507 52.728,64.487 52.789,63.869 52.794 C 63.193 52.800,62.238 53.665,58.957 57.244 C 58.274 57.990,56.973 59.230,56.066 60.000 C 55.160 60.770,54.414 61.636,54.409 61.924 C 54.404 62.212,54.265 62.372,54.100 62.280 C 53.814 62.121,50.891 64.858,51.100 65.089 C 51.481 65.511,51.053 66.001,50.300 66.006 C 49.572 66.011,49.515 66.086,50.000 66.400 C 50.514 66.732,50.501 66.789,49.909 66.794 C 49.529 66.797,48.903 67.295,48.516 67.900 C 48.130 68.505,47.316 69.477,46.707 70.060 C 46.098 70.644,45.597 71.454,45.594 71.860 C 45.589 72.484,45.527 72.506,45.200 72.000 C 44.873 71.494,44.811 71.516,44.806 72.140 C 44.803 72.546,44.241 73.401,43.558 74.040 C 42.874 74.678,42.452 75.200,42.619 75.200 C 42.786 75.200,42.535 75.536,42.061 75.947 C 41.588 76.358,41.200 76.821,41.200 76.975 C 41.200 77.130,40.928 77.529,40.596 77.861 C 40.264 78.193,40.095 78.630,40.220 78.832 C 40.345 79.035,40.077 79.200,39.624 79.200 C 39.067 79.200,38.800 79.459,38.800 80.000 C 38.800 80.440,38.620 80.800,38.400 80.800 C 38.180 80.800,38.000 81.081,38.000 81.424 C 38.000 81.767,37.820 81.936,37.600 81.800 C 37.380 81.664,37.200 81.833,37.200 82.176 C 37.200 82.519,37.020 82.800,36.800 82.800 C 36.580 82.800,36.400 83.030,36.400 83.312 C 36.400 83.593,36.040 84.083,35.600 84.400 C 35.160 84.717,34.800 85.297,34.800 85.688 C 34.800 86.080,34.620 86.400,34.400 86.400 C 34.180 86.400,34.000 86.688,34.000 87.040 C 34.000 87.391,33.441 88.201,32.758 88.840 C 32.074 89.478,31.733 90.000,32.000 90.000 C 32.267 90.000,31.926 90.522,31.242 91.160 C 30.542 91.815,29.997 92.731,29.994 93.260 C 29.989 94.014,29.911 94.081,29.600 93.600 C 29.259 93.072,29.212 93.075,29.206 93.625 C 29.203 93.968,28.840 94.636,28.400 95.108 C 27.497 96.077,27.351 96.589,28.100 96.162 C 28.375 96.005,28.071 96.444,27.425 97.138 C 26.779 97.832,26.387 98.400,26.554 98.400 C 26.721 98.400,26.550 98.707,26.175 99.082 C 25.731 99.526,25.652 99.817,25.949 99.916 C 26.217 100.006,26.034 100.395,25.502 100.865 C 25.006 101.303,24.825 101.547,25.100 101.407 C 25.375 101.267,25.600 101.328,25.600 101.543 C 25.600 101.758,25.434 101.993,25.230 102.067 C 25.027 102.140,24.802 102.463,24.730 102.784 C 24.549 103.596,23.860 104.353,23.500 104.134 C 23.335 104.035,23.200 104.413,23.200 104.976 C 23.200 105.539,23.020 106.000,22.800 106.000 C 22.580 106.000,22.400 106.371,22.400 106.824 C 22.400 107.277,22.220 107.536,22.000 107.400 C 21.773 107.260,21.600 107.596,21.600 108.176 C 21.600 108.739,21.420 109.200,21.200 109.200 C 20.980 109.200,20.800 109.571,20.800 110.024 C 20.800 110.477,20.620 110.736,20.400 110.600 C 20.177 110.462,20.000 110.764,20.000 111.280 C 20.000 111.790,19.640 112.432,19.200 112.707 C 18.760 112.982,18.400 113.475,18.400 113.803 C 18.400 114.132,18.175 114.403,17.900 114.406 C 17.567 114.410,17.600 114.542,18.000 114.800 C 18.400 115.058,18.433 115.190,18.100 115.194 C 17.825 115.197,17.600 115.560,17.600 116.000 C 17.600 116.440,17.420 116.800,17.200 116.800 C 16.980 116.800,16.797 117.385,16.794 118.100 C 16.789 119.086,16.694 119.255,16.400 118.800 C 16.106 118.345,16.011 118.514,16.006 119.500 C 16.003 120.215,15.820 120.800,15.600 120.800 C 15.380 120.800,15.200 121.171,15.200 121.624 C 15.200 122.077,15.020 122.336,14.800 122.200 C 14.562 122.053,14.400 122.529,14.400 123.376 C 14.400 124.159,14.220 124.800,14.000 124.800 C 13.780 124.800,13.597 125.205,13.594 125.700 C 13.589 126.428,13.514 126.485,13.200 126.000 C 12.881 125.506,12.811 125.546,12.806 126.225 C 12.803 126.679,12.440 127.795,12.000 128.706 C 11.560 129.616,11.200 130.719,11.200 131.157 C 11.200 131.595,11.020 132.064,10.800 132.200 C 10.580 132.336,10.400 132.994,10.400 133.662 C 10.400 134.330,10.022 135.408,9.559 136.057 C 8.910 136.969,8.779 137.562,8.985 138.659 C 9.165 139.619,9.113 139.994,8.826 139.816 C 8.563 139.653,8.400 139.990,8.400 140.696 C 8.400 141.325,8.221 142.019,8.002 142.238 C 7.784 142.456,7.566 143.167,7.519 143.818 C 7.472 144.468,7.263 145.118,7.055 145.262 C 6.847 145.406,6.692 146.081,6.711 146.762 C 6.731 147.443,6.579 148.000,6.373 148.000 C 6.168 148.000,6.000 148.360,6.000 148.800 C 6.000 149.240,5.820 149.600,5.600 149.600 C 5.380 149.600,5.200 149.791,5.200 150.024 C 5.200 150.257,5.380 150.336,5.600 150.200 C 5.820 150.064,6.000 150.133,6.000 150.353 C 6.000 150.573,5.820 150.864,5.600 151.000 C 5.380 151.136,5.200 151.957,5.200 152.824 C 5.200 153.691,5.020 154.400,4.800 154.400 C 4.580 154.400,4.400 154.749,4.400 155.176 C 4.400 155.603,4.220 156.064,4.000 156.200 C 3.780 156.336,3.600 157.617,3.600 159.047 C 3.600 160.679,3.451 161.555,3.200 161.400 C 2.950 161.245,2.800 162.070,2.800 163.600 C 2.800 165.130,2.650 165.955,2.400 165.800 C 2.150 165.646,2.000 166.463,2.000 167.976 C 2.000 169.325,1.823 170.400,1.600 170.400 C 1.366 170.400,1.200 171.741,1.200 173.624 C 1.200 175.478,1.044 176.751,0.833 176.620 C 0.239 176.254,0.119 180.985,0.169 202.769 C 0.205 218.667,0.327 223.376,0.708 223.503 C 1.043 223.614,1.200 224.686,1.200 226.857 C 1.200 228.882,1.346 229.957,1.600 229.800 C 1.850 229.646,2.000 230.463,2.000 231.976 C 2.000 233.325,2.177 234.400,2.400 234.400 C 2.620 234.400,2.800 235.300,2.800 236.400 C 2.800 237.500,2.980 238.400,3.200 238.400 C 3.420 238.400,3.600 239.300,3.600 240.400 C 3.600 241.500,3.780 242.400,4.000 242.400 C 4.220 242.400,4.400 242.591,4.400 242.824 C 4.400 243.057,4.220 243.136,4.000 243.000 C 3.780 242.864,3.600 243.033,3.600 243.376 C 3.600 243.719,3.780 244.000,4.000 244.000 C 4.220 244.000,4.400 244.360,4.400 244.800 C 4.400 245.240,4.580 245.600,4.800 245.600 C 5.020 245.600,5.200 246.395,5.200 247.367 C 5.200 248.405,5.406 249.217,5.700 249.336 C 6.076 249.489,6.052 249.644,5.600 249.963 C 5.193 250.251,5.161 250.390,5.500 250.394 C 5.775 250.397,6.000 250.760,6.000 251.200 C 6.000 251.640,6.168 252.000,6.373 252.000 C 6.579 252.000,6.731 252.557,6.711 253.238 C 6.692 253.919,6.847 254.594,7.055 254.738 C 7.263 254.882,7.472 255.532,7.519 256.182 C 7.566 256.833,7.784 257.544,8.002 257.762 C 8.221 257.981,8.400 258.563,8.400 259.056 C 8.400 259.549,8.568 260.057,8.774 260.184 C 8.979 260.311,9.045 261.045,8.920 261.815 C 8.732 262.973,8.801 263.175,9.317 262.976 C 9.786 262.797,9.890 262.933,9.736 263.523 C 9.623 263.956,9.726 264.431,9.965 264.578 C 10.204 264.726,10.400 265.477,10.400 266.247 C 10.400 267.017,10.560 267.549,10.755 267.428 C 10.950 267.307,11.102 267.432,11.092 267.704 C 11.045 268.992,11.235 269.625,11.600 269.400 C 11.842 269.251,12.000 269.796,12.000 270.776 C 12.000 271.669,12.180 272.400,12.400 272.400 C 12.620 272.400,12.803 272.895,12.806 273.500 C 12.811 274.357,12.898 274.468,13.200 274.000 C 13.514 273.515,13.589 273.572,13.594 274.300 C 13.597 274.795,13.780 275.200,14.000 275.200 C 14.220 275.200,14.400 275.841,14.400 276.624 C 14.400 277.471,14.562 277.947,14.800 277.800 C 15.020 277.664,15.200 277.923,15.200 278.376 C 15.200 278.829,15.380 279.200,15.600 279.200 C 15.820 279.200,16.000 279.560,16.000 280.000 C 16.000 280.440,16.180 280.800,16.400 280.800 C 16.620 280.800,16.800 281.340,16.800 282.000 C 16.800 282.660,16.942 283.200,17.115 283.200 C 17.288 283.200,17.460 283.602,17.497 284.094 C 17.534 284.586,17.752 285.051,17.982 285.127 C 18.212 285.204,18.400 285.532,18.400 285.857 C 18.400 286.182,18.580 286.336,18.800 286.200 C 19.038 286.053,19.200 286.529,19.200 287.376 C 19.200 288.159,19.380 288.800,19.600 288.800 C 19.820 288.800,20.000 289.070,20.000 289.400 C 20.000 289.730,20.180 290.000,20.400 290.000 C 20.620 290.000,20.800 290.281,20.800 290.624 C 20.800 290.967,20.980 291.136,21.200 291.000 C 21.420 290.864,21.600 291.123,21.600 291.576 C 21.600 292.029,21.791 292.400,22.024 292.400 C 22.257 292.400,22.345 292.565,22.220 292.768 C 22.095 292.970,22.264 293.407,22.596 293.739 C 22.928 294.071,23.200 294.601,23.200 294.917 C 23.200 295.234,23.560 295.950,24.000 296.509 C 24.440 297.069,24.800 297.706,24.800 297.925 C 24.800 298.462,26.474 301.667,27.100 302.329 C 27.375 302.619,27.600 303.192,27.600 303.602 C 27.600 304.011,27.960 304.460,28.400 304.600 C 28.911 304.762,29.200 305.205,29.200 305.827 C 29.200 306.362,29.380 306.800,29.600 306.800 C 29.820 306.800,30.000 307.030,30.000 307.312 C 30.000 307.593,30.360 308.083,30.800 308.400 C 31.240 308.717,31.600 309.225,31.600 309.528 C 31.600 309.831,32.140 310.583,32.800 311.200 C 33.460 311.817,34.000 312.609,34.000 312.960 C 34.000 313.312,34.180 313.600,34.400 313.600 C 34.620 313.600,34.800 313.920,34.800 314.312 C 34.800 314.703,35.160 315.283,35.600 315.600 C 36.040 315.917,36.400 316.380,36.400 316.629 C 36.400 316.878,36.907 317.612,37.526 318.260 C 38.146 318.908,38.770 319.745,38.914 320.119 C 39.057 320.494,39.461 320.800,39.811 320.800 C 40.161 320.800,40.345 320.965,40.220 321.168 C 40.095 321.370,40.264 321.807,40.596 322.139 C 40.928 322.471,41.200 322.936,41.200 323.171 C 41.200 323.407,41.380 323.600,41.600 323.600 C 41.820 323.600,42.000 323.783,42.000 324.007 C 42.000 324.231,42.630 325.026,43.400 325.774 C 44.170 326.521,44.814 327.463,44.832 327.867 C 44.851 328.315,44.944 328.399,45.070 328.083 C 45.334 327.426,46.400 328.214,46.400 329.067 C 46.400 329.380,46.850 330.086,47.400 330.636 C 47.950 331.186,48.400 331.789,48.400 331.976 C 48.400 332.629,50.727 334.800,51.460 334.832 C 51.867 334.849,51.981 334.952,51.712 335.061 C 51.291 335.232,52.782 336.815,58.495 342.263 C 58.993 342.738,60.390 344.215,61.600 345.547 C 62.810 346.879,64.038 347.975,64.329 347.984 C 64.984 348.004,66.000 348.986,66.000 349.600 C 66.000 350.148,66.993 351.200,67.510 351.200 C 67.712 351.200,69.013 352.280,70.400 353.600 C 71.787 354.920,73.081 356.000,73.274 356.000 C 73.468 356.000,74.257 356.630,75.027 357.400 C 75.797 358.170,76.625 358.800,76.866 358.800 C 77.108 358.800,77.642 359.188,78.053 359.661 C 78.464 360.135,78.800 360.300,78.800 360.029 C 78.800 359.757,79.506 360.269,80.369 361.167 C 81.231 362.065,82.131 362.800,82.369 362.800 C 82.606 362.800,82.800 362.980,82.800 363.200 C 82.800 363.420,83.030 363.600,83.312 363.600 C 83.593 363.600,84.083 363.960,84.400 364.400 C 84.717 364.840,85.297 365.200,85.688 365.200 C 86.080 365.200,86.400 365.380,86.400 365.600 C 86.400 365.820,86.720 366.000,87.112 366.000 C 87.503 366.000,88.083 366.360,88.400 366.800 C 88.717 367.240,89.297 367.600,89.688 367.600 C 90.080 367.600,90.400 367.780,90.400 368.000 C 90.400 368.220,90.678 368.400,91.018 368.400 C 91.746 368.400,93.662 370.205,93.309 370.558 C 93.176 370.691,93.592 370.803,94.233 370.806 C 95.134 370.811,95.263 370.901,94.800 371.200 C 94.281 371.535,94.290 371.589,94.867 371.594 C 95.233 371.597,95.593 371.778,95.667 371.997 C 95.740 372.215,96.282 372.433,96.872 372.481 C 97.461 372.530,97.911 372.757,97.872 372.985 C 97.832 373.213,98.025 373.355,98.300 373.300 C 98.575 373.245,98.800 373.388,98.800 373.618 C 98.800 373.847,99.115 373.982,99.500 373.918 C 99.891 373.852,100.156 374.021,100.100 374.300 C 100.045 374.575,100.270 374.822,100.600 374.850 C 100.930 374.878,101.380 374.945,101.600 375.000 C 101.820 375.055,102.360 375.123,102.800 375.150 C 103.317 375.182,103.600 375.483,103.600 376.000 C 103.600 376.440,103.791 376.800,104.024 376.800 C 104.257 376.800,104.336 376.620,104.200 376.400 C 104.064 376.180,104.233 376.000,104.576 376.000 C 104.919 376.000,105.155 376.162,105.100 376.360 C 105.045 376.558,105.149 376.726,105.330 376.734 C 105.512 376.741,105.983 377.119,106.377 377.574 C 106.771 378.028,107.568 378.400,108.147 378.400 C 108.726 378.400,109.200 378.580,109.200 378.800 C 109.200 379.020,109.481 379.200,109.824 379.200 C 110.167 379.200,110.329 379.392,110.184 379.627 C 110.010 379.908,110.445 380.010,111.460 379.927 L 113.000 379.800 113.000 200.000 L 113.000 20.200 111.900 20.073 C 111.295 20.004,110.800 20.139,110.800 20.373 M148.182 196.400 C 148.326 208.900,148.576 210.795,151.003 217.800 C 155.761 231.532,168.924 244.571,182.600 249.098 C 184.912 249.864,185.849 250.132,190.200 251.275 C 191.523 251.622,194.842 251.800,200.000 251.800 C 205.158 251.800,208.477 251.622,209.800 251.275 C 210.900 250.986,212.520 250.557,213.400 250.321 C 231.477 245.482,245.603 231.353,250.313 213.400 C 250.543 212.520,250.947 211.080,251.210 210.200 C 251.517 209.171,251.738 204.387,251.828 196.800 C 251.910 189.853,251.828 185.547,251.628 186.331 C 249.761 193.646,241.860 200.000,234.630 200.000 C 234.565 200.000,234.410 200.855,234.286 201.900 C 233.378 209.543,227.778 215.473,220.227 216.787 C 217.077 217.335,182.923 217.335,179.773 216.787 C 172.631 215.544,167.144 209.963,165.895 202.671 L 165.442 200.024 163.221 199.589 C 159.924 198.944,157.116 197.888,156.071 196.900 C 155.781 196.625,155.391 196.400,155.206 196.400 C 153.723 196.400,149.059 189.329,148.346 186.000 C 148.181 185.230,148.108 189.910,148.182 196.400 " stroke="none" fill="#81a33e" fill-rule="evenodd"></path><path id="path2" d="M178.300 0.275 C 176.375 0.361,174.800 0.604,174.800 0.816 C 174.800 1.027,173.461 1.200,171.824 1.200 C 170.187 1.200,168.736 1.380,168.600 1.600 C 168.464 1.820,167.463 2.000,166.376 2.000 C 165.289 2.000,164.400 2.180,164.400 2.400 C 164.400 2.620,163.410 2.800,162.200 2.800 C 160.990 2.800,160.000 2.980,160.000 3.200 C 160.000 3.420,159.201 3.600,158.224 3.600 C 157.247 3.600,156.336 3.780,156.200 4.000 C 156.064 4.220,155.243 4.400,154.376 4.400 C 153.509 4.400,152.800 4.580,152.800 4.800 C 152.800 5.020,152.080 5.200,151.200 5.200 C 150.320 5.200,149.600 5.380,149.600 5.600 C 149.600 5.820,149.071 6.000,148.424 6.000 C 147.777 6.000,147.136 6.180,147.000 6.400 C 146.864 6.620,146.234 6.800,145.600 6.800 C 144.966 6.800,144.336 6.980,144.200 7.200 C 144.064 7.420,143.333 7.600,142.576 7.600 C 141.819 7.600,141.200 7.757,141.200 7.948 C 141.200 8.140,140.307 8.415,139.216 8.560 C 138.125 8.705,137.125 8.998,136.993 9.212 C 136.861 9.425,136.259 9.600,135.656 9.600 C 135.053 9.600,134.389 9.743,134.180 9.918 C 133.971 10.093,133.080 10.465,132.200 10.745 C 130.526 11.276,129.078 11.850,127.905 12.447 C 127.523 12.641,126.848 12.800,126.405 12.800 C 125.962 12.800,125.600 12.980,125.600 13.200 C 125.600 13.420,125.240 13.600,124.800 13.600 C 124.360 13.600,124.000 13.780,124.000 14.000 C 124.000 14.220,123.561 14.400,123.024 14.400 C 122.487 14.400,121.936 14.580,121.800 14.800 C 121.664 15.020,121.203 15.200,120.776 15.200 C 120.349 15.200,120.000 15.380,120.000 15.600 C 120.000 15.820,119.640 16.000,119.200 16.000 C 118.760 16.000,118.400 16.180,118.400 16.400 C 118.400 16.620,118.128 16.800,117.795 16.800 C 117.462 16.800,116.877 16.960,116.495 17.156 C 116.113 17.351,115.170 17.818,114.400 18.193 L 113.000 18.874 113.097 200.137 C 113.189 372.731,113.227 381.407,113.897 381.539 C 114.284 381.615,114.771 381.840,114.980 382.039 C 115.189 382.237,115.684 382.400,116.080 382.400 C 116.476 382.400,116.800 382.580,116.800 382.800 C 116.800 383.020,117.160 383.200,117.600 383.200 C 118.040 383.200,118.400 383.380,118.400 383.600 C 118.400 383.820,118.665 384.000,118.988 384.000 C 119.311 384.000,120.217 384.360,121.000 384.800 C 121.783 385.240,122.779 385.600,123.212 385.600 C 123.645 385.600,124.000 385.741,124.000 385.913 C 124.000 386.085,124.855 386.476,125.900 386.782 C 126.945 387.087,128.340 387.637,129.000 388.003 C 129.660 388.369,130.740 388.802,131.400 388.965 C 132.060 389.128,133.140 389.495,133.800 389.781 C 135.734 390.618,139.214 391.600,140.246 391.600 C 140.771 391.600,141.200 391.780,141.200 392.000 C 141.200 392.220,141.830 392.400,142.600 392.400 C 143.370 392.400,144.000 392.580,144.000 392.800 C 144.000 393.020,144.529 393.200,145.176 393.200 C 145.823 393.200,146.464 393.380,146.600 393.600 C 146.736 393.820,147.567 394.000,148.447 394.000 C 149.412 394.000,149.949 394.159,149.800 394.400 C 149.651 394.641,150.188 394.800,151.153 394.800 C 152.033 394.800,152.864 394.980,153.000 395.200 C 153.136 395.420,153.856 395.600,154.600 395.600 C 155.344 395.600,156.064 395.780,156.200 396.000 C 156.336 396.220,157.247 396.400,158.224 396.400 C 159.201 396.400,160.000 396.580,160.000 396.800 C 160.000 397.020,160.990 397.200,162.200 397.200 C 163.410 397.200,164.400 397.380,164.400 397.600 C 164.400 397.820,165.379 398.000,166.576 398.000 C 167.773 398.000,168.864 398.180,169.000 398.400 C 169.136 398.620,170.482 398.800,171.990 398.800 C 173.829 398.800,174.788 398.965,174.900 399.300 C 175.144 400.032,224.856 400.032,225.100 399.300 C 225.212 398.965,226.171 398.800,228.010 398.800 C 229.518 398.800,230.864 398.620,231.000 398.400 C 231.136 398.180,232.216 398.000,233.400 398.000 C 234.584 398.000,235.664 397.820,235.800 397.600 C 235.936 397.380,236.836 397.200,237.800 397.200 C 238.764 397.200,239.664 397.020,239.800 396.800 C 239.936 396.580,240.721 396.400,241.544 396.400 C 242.367 396.400,243.211 396.230,243.420 396.021 C 243.629 395.813,244.565 395.598,245.500 395.543 C 246.435 395.488,247.200 395.299,247.200 395.122 C 247.200 394.945,247.920 394.800,248.800 394.800 C 249.680 394.800,250.400 394.620,250.400 394.400 C 250.400 394.180,251.019 394.000,251.776 394.000 C 252.533 394.000,253.264 393.820,253.400 393.600 C 253.536 393.380,254.177 393.200,254.824 393.200 C 255.471 393.200,256.000 393.020,256.000 392.800 C 256.000 392.580,256.630 392.400,257.400 392.400 C 258.170 392.400,258.800 392.241,258.800 392.046 C 258.800 391.851,259.787 391.569,260.994 391.418 C 262.200 391.267,263.291 390.977,263.417 390.772 C 263.544 390.567,264.076 390.400,264.600 390.400 C 265.124 390.400,265.664 390.220,265.800 390.000 C 265.936 389.780,266.399 389.600,266.829 389.600 C 267.259 389.600,267.923 389.441,268.305 389.247 C 268.687 389.052,269.495 388.692,270.100 388.447 C 270.705 388.201,271.695 387.799,272.300 387.553 C 272.905 387.308,273.713 386.948,274.095 386.753 C 274.477 386.559,275.047 386.400,275.361 386.400 C 275.676 386.400,275.993 386.222,276.067 386.003 C 276.140 385.785,276.695 385.566,277.300 385.516 C 277.905 385.466,278.400 385.285,278.400 385.113 C 278.400 384.941,278.760 384.800,279.200 384.800 C 279.640 384.800,280.000 384.620,280.000 384.400 C 280.000 384.180,280.360 384.000,280.800 384.000 C 281.240 384.000,281.600 383.820,281.600 383.600 C 281.600 383.380,281.872 383.200,282.205 383.200 C 282.793 383.200,283.218 383.033,285.095 382.062 C 285.587 381.808,286.217 381.600,286.495 381.600 C 286.901 381.600,287.000 346.053,287.000 200.000 C 287.000 53.947,286.901 18.400,286.495 18.400 C 286.002 18.400,285.546 18.214,283.705 17.262 C 283.213 17.008,282.538 16.800,282.205 16.800 C 281.872 16.800,281.600 16.620,281.600 16.400 C 281.600 16.180,281.240 16.000,280.800 16.000 C 280.360 16.000,280.000 15.820,280.000 15.600 C 280.000 15.380,279.640 15.200,279.200 15.200 C 278.760 15.200,278.400 15.020,278.400 14.800 C 278.400 14.580,277.860 14.400,277.200 14.400 C 276.540 14.400,276.000 14.220,276.000 14.000 C 276.000 13.780,275.640 13.600,275.200 13.600 C 274.760 13.600,274.400 13.420,274.400 13.200 C 274.400 12.980,273.961 12.800,273.424 12.800 C 272.887 12.800,272.336 12.620,272.200 12.400 C 272.064 12.180,271.685 12.000,271.357 12.000 C 271.029 12.000,270.016 11.640,269.106 11.200 C 268.195 10.760,267.211 10.400,266.919 10.400 C 266.628 10.400,266.077 10.237,265.695 10.037 C 264.553 9.440,260.778 8.400,259.754 8.400 C 259.229 8.400,258.800 8.220,258.800 8.000 C 258.800 7.780,258.181 7.600,257.424 7.600 C 256.667 7.600,255.936 7.420,255.800 7.200 C 255.664 6.980,255.124 6.800,254.600 6.800 C 254.076 6.800,253.536 6.620,253.400 6.400 C 253.264 6.180,252.533 6.000,251.776 6.000 C 251.019 6.000,250.400 5.820,250.400 5.600 C 250.400 5.380,249.680 5.200,248.800 5.200 C 247.920 5.200,247.200 5.020,247.200 4.800 C 247.200 4.580,246.491 4.400,245.624 4.400 C 244.757 4.400,243.936 4.220,243.800 4.000 C 243.664 3.780,242.753 3.600,241.776 3.600 C 240.799 3.600,240.000 3.420,240.000 3.200 C 240.000 2.980,239.100 2.800,238.000 2.800 C 236.900 2.800,236.000 2.620,236.000 2.400 C 236.000 2.178,234.941 2.000,233.624 2.000 C 232.317 2.000,231.136 1.820,231.000 1.600 C 230.864 1.380,229.518 1.200,228.010 1.200 C 226.193 1.200,225.211 1.034,225.103 0.708 C 224.941 0.222,187.291 -0.126,178.300 0.275 M205.226 148.440 C 211.858 150.617,216.552 156.126,217.433 162.766 L 217.703 164.800 243.652 164.800 L 269.600 164.800 269.600 166.706 C 269.600 173.763,262.883 180.973,254.800 182.591 L 252.600 183.032 252.361 194.616 C 252.139 205.342,251.849 208.741,250.840 212.400 C 250.628 213.170,250.333 214.250,250.186 214.800 C 245.842 230.980,230.980 245.842,214.800 250.186 C 214.250 250.333,213.170 250.625,212.400 250.835 C 205.163 252.804,194.798 252.793,187.500 250.808 C 186.675 250.584,185.415 250.242,184.700 250.050 C 169.322 245.908,154.075 230.629,149.924 215.200 C 148.127 208.525,147.960 206.999,147.671 194.654 L 147.400 183.108 144.476 182.366 C 136.505 180.343,130.014 173.070,130.478 166.682 L 130.600 165.000 156.500 164.897 C 170.745 164.840,182.401 164.660,182.402 164.497 C 182.489 153.397,194.527 144.927,205.226 148.440 " stroke="none" fill="#f3f3f3" fill-rule="evenodd"></path><path id="path3" d="M111.828 19.555 C 111.708 19.750,111.967 20.003,112.404 20.117 C 112.920 20.252,113.200 20.127,113.200 19.763 C 113.200 19.144,112.177 18.989,111.828 19.555 M286.800 200.000 C 286.800 380.533,286.801 380.800,287.600 380.800 C 288.537 380.800,288.667 380.188,287.800 379.855 C 286.886 379.505,286.886 20.495,287.800 20.145 C 288.667 19.812,288.537 19.200,287.600 19.200 C 286.801 19.200,286.800 19.467,286.800 200.000 M290.400 21.200 C 290.400 21.420,290.670 21.600,291.000 21.600 C 291.330 21.600,291.600 21.420,291.600 21.200 C 291.600 20.980,291.330 20.800,291.000 20.800 C 290.670 20.800,290.400 20.980,290.400 21.200 M292.200 22.000 C 292.064 22.220,292.233 22.400,292.576 22.400 C 292.919 22.400,293.200 22.580,293.200 22.800 C 293.200 23.020,293.560 23.200,294.000 23.200 C 294.440 23.200,294.800 23.380,294.800 23.600 C 294.800 23.820,295.160 24.000,295.600 24.000 C 296.040 24.000,296.400 24.180,296.400 24.400 C 296.400 24.620,296.580 24.800,296.800 24.800 C 297.604 24.800,297.170 24.066,296.100 23.616 C 294.222 22.825,293.200 22.223,293.200 21.905 C 293.200 21.463,292.490 21.530,292.200 22.000 M312.000 33.429 C 312.000 33.853,313.236 34.897,313.467 34.667 C 313.592 34.541,313.417 34.160,313.076 33.819 C 312.441 33.184,312.000 33.024,312.000 33.429 M317.600 37.367 C 317.600 37.788,318.805 38.928,319.021 38.712 C 319.122 38.611,318.844 38.202,318.402 37.802 C 317.961 37.403,317.600 37.207,317.600 37.367 M327.600 44.948 C 327.600 45.439,329.634 47.299,329.891 47.042 C 330.024 46.909,330.058 46.755,329.967 46.700 C 329.875 46.645,329.305 46.164,328.700 45.630 C 328.095 45.097,327.600 44.790,327.600 44.948 M334.566 51.383 C 335.827 52.644,336.941 53.592,337.043 53.490 C 337.257 53.277,333.385 49.478,332.718 49.246 C 332.474 49.161,333.305 50.123,334.566 51.383 M65.002 51.198 C 64.603 51.639,64.407 52.000,64.567 52.000 C 64.988 52.000,66.128 50.795,65.912 50.579 C 65.811 50.478,65.402 50.756,65.002 51.198 M346.608 63.438 C 347.272 64.077,348.307 65.103,348.908 65.718 C 349.508 66.333,350.000 66.658,350.000 66.440 C 350.000 65.992,346.588 62.686,345.869 62.438 C 345.611 62.349,345.943 62.799,346.608 63.438 M353.600 70.948 C 353.600 71.107,354.050 71.686,354.600 72.236 C 355.150 72.786,355.600 73.080,355.600 72.888 C 355.600 72.696,355.150 72.117,354.600 71.600 C 354.050 71.083,353.600 70.790,353.600 70.948 M358.800 77.897 C 358.801 78.501,360.812 80.521,361.102 80.210 C 361.266 80.034,361.175 79.810,360.900 79.712 C 360.625 79.614,360.400 79.322,360.400 79.063 C 360.400 78.804,360.040 78.368,359.600 78.093 C 359.160 77.818,358.800 77.730,358.800 77.897 M361.200 80.967 C 361.200 81.388,362.405 82.528,362.621 82.312 C 362.722 82.211,362.444 81.802,362.002 81.402 C 361.561 81.003,361.200 80.807,361.200 80.967 M365.200 86.625 C 365.200 86.925,366.273 88.000,366.571 88.000 C 367.080 88.000,366.751 87.362,366.000 86.893 C 365.560 86.618,365.200 86.498,365.200 86.625 M366.800 89.029 C 366.800 89.453,368.036 90.497,368.267 90.267 C 368.392 90.141,368.217 89.760,367.876 89.419 C 367.241 88.784,366.800 88.624,366.800 89.029 M368.400 91.429 C 368.400 91.727,369.475 92.800,369.775 92.800 C 369.902 92.800,369.782 92.440,369.507 92.000 C 369.038 91.249,368.400 90.920,368.400 91.429 M370.013 93.700 C 370.006 94.085,370.136 94.400,370.302 94.400 C 370.469 94.400,370.844 94.941,371.137 95.602 C 371.434 96.273,371.857 96.688,372.095 96.541 C 372.370 96.371,372.286 96.106,371.861 95.795 C 371.497 95.529,371.200 95.141,371.200 94.932 C 371.200 94.137,370.027 92.920,370.013 93.700 M373.246 98.824 C 373.221 99.166,373.464 99.796,373.787 100.224 C 374.319 100.926,374.376 100.933,374.387 100.300 C 374.394 99.915,374.233 99.600,374.029 99.600 C 373.825 99.600,373.576 99.285,373.476 98.900 C 373.334 98.356,373.282 98.339,373.246 98.824 M376.009 104.500 C 376.004 104.885,376.180 105.200,376.400 105.200 C 376.620 105.200,376.800 105.560,376.800 106.000 C 376.800 106.440,376.980 106.800,377.200 106.800 C 377.420 106.800,377.600 107.160,377.600 107.600 C 377.600 108.040,377.780 108.400,378.000 108.400 C 378.220 108.400,378.400 108.670,378.400 109.000 C 378.400 109.330,378.580 109.600,378.800 109.600 C 379.020 109.600,379.200 109.330,379.200 109.000 C 379.200 108.670,379.020 108.400,378.800 108.400 C 378.580 108.400,378.400 108.040,378.400 107.600 C 378.400 107.160,378.220 106.800,378.000 106.800 C 377.780 106.800,377.596 106.575,377.591 106.300 C 377.576 105.437,376.019 103.667,376.009 104.500 M380.000 112.200 C 380.000 112.530,380.180 112.800,380.400 112.800 C 380.620 112.800,380.800 112.530,380.800 112.200 C 380.800 111.870,380.620 111.600,380.400 111.600 C 380.180 111.600,380.000 111.870,380.000 112.200 M380.800 113.800 C 380.800 114.130,380.980 114.400,381.200 114.400 C 381.420 114.400,381.600 114.130,381.600 113.800 C 381.600 113.470,381.420 113.200,381.200 113.200 C 380.980 113.200,380.800 113.470,380.800 113.800 M384.000 120.800 C 384.000 121.240,384.180 121.600,384.400 121.600 C 384.620 121.600,384.800 121.960,384.800 122.400 C 384.800 122.840,384.980 123.200,385.200 123.200 C 385.715 123.200,385.711 123.164,384.995 121.449 C 384.315 119.822,384.000 119.617,384.000 120.800 M385.600 124.600 C 385.600 124.930,385.780 125.200,386.000 125.200 C 386.220 125.200,386.400 124.930,386.400 124.600 C 386.400 124.270,386.220 124.000,386.000 124.000 C 385.780 124.000,385.600 124.270,385.600 124.600 M386.400 126.376 C 386.400 126.829,386.580 127.200,386.800 127.200 C 387.020 127.200,387.200 126.941,387.200 126.624 C 387.200 126.307,387.020 125.936,386.800 125.800 C 386.580 125.664,386.400 125.923,386.400 126.376 M388.806 132.700 C 388.803 133.195,388.980 133.600,389.200 133.600 C 389.701 133.600,389.701 133.176,389.200 132.400 C 388.886 131.915,388.811 131.972,388.806 132.700 M390.212 136.917 C 390.041 137.312,390.013 137.747,390.151 137.884 C 390.557 138.290,390.884 137.720,390.697 136.931 C 390.532 136.233,390.510 136.232,390.212 136.917 M391.012 139.317 C 390.841 139.712,390.813 140.147,390.951 140.284 C 391.357 140.690,391.684 140.120,391.497 139.331 C 391.332 138.633,391.310 138.632,391.012 139.317 M391.600 142.000 C 391.600 142.440,391.780 142.800,392.000 142.800 C 392.220 142.800,392.400 142.440,392.400 142.000 C 392.400 141.560,392.220 141.200,392.000 141.200 C 391.780 141.200,391.600 141.560,391.600 142.000 M392.400 144.976 C 392.400 145.539,392.580 146.000,392.800 146.000 C 393.020 146.000,393.200 145.651,393.200 145.224 C 393.200 144.797,393.020 144.336,392.800 144.200 C 392.573 144.060,392.400 144.396,392.400 144.976 M6.000 147.400 C 6.000 147.730,6.180 148.000,6.400 148.000 C 6.620 148.000,6.800 147.730,6.800 147.400 C 6.800 147.070,6.620 146.800,6.400 146.800 C 6.180 146.800,6.000 147.070,6.000 147.400 M393.200 147.824 C 393.200 148.404,393.373 148.740,393.600 148.600 C 393.820 148.464,394.000 148.003,394.000 147.576 C 394.000 147.149,393.820 146.800,393.600 146.800 C 393.380 146.800,393.200 147.261,393.200 147.824 M194.639 148.455 C 187.663 150.813,182.456 157.640,182.402 164.497 C 182.401 164.660,170.745 164.840,156.500 164.897 L 130.600 165.000 130.478 166.682 C 130.014 173.070,136.504 180.343,144.476 182.366 L 147.400 183.108 147.610 193.854 L 147.820 204.600 147.956 194.600 C 148.031 189.100,148.217 185.230,148.369 186.000 C 149.013 189.254,153.711 196.400,155.206 196.400 C 155.391 196.400,155.781 196.625,156.071 196.900 C 157.116 197.888,159.924 198.944,163.221 199.589 L 165.442 200.024 165.895 202.671 C 167.144 209.963,172.631 215.544,179.773 216.787 C 182.923 217.335,217.077 217.335,220.227 216.787 C 227.778 215.473,233.378 209.543,234.286 201.900 C 234.410 200.855,234.565 200.000,234.630 200.000 C 241.861 200.000,249.901 193.525,251.603 186.331 C 251.793 185.530,251.970 188.982,252.049 195.000 L 252.181 205.000 252.390 194.016 L 252.600 183.032 254.800 182.591 C 262.884 180.972,269.600 173.763,269.600 166.706 L 269.600 164.800 243.652 164.800 L 217.703 164.800 217.433 162.766 C 216.023 152.133,204.731 145.044,194.639 148.455 M394.000 150.576 C 394.000 151.139,394.180 151.600,394.400 151.600 C 394.620 151.600,394.800 151.251,394.800 150.824 C 394.800 150.397,394.620 149.936,394.400 149.800 C 394.173 149.660,394.000 149.996,394.000 150.576 M4.612 153.317 C 4.441 153.712,4.413 154.147,4.551 154.284 C 4.957 154.690,5.284 154.120,5.097 153.331 C 4.932 152.633,4.910 152.632,4.612 153.317 M394.800 154.000 C 394.800 154.660,394.980 155.200,395.200 155.200 C 395.420 155.200,395.600 154.660,395.600 154.000 C 395.600 153.340,395.420 152.800,395.200 152.800 C 394.980 152.800,394.800 153.340,394.800 154.000 M395.600 157.600 C 395.600 158.040,395.780 158.400,396.000 158.400 C 396.220 158.400,396.400 158.040,396.400 157.600 C 396.400 157.160,396.220 156.800,396.000 156.800 C 395.780 156.800,395.600 157.160,395.600 157.600 M2.800 160.576 C 2.800 160.893,2.980 161.264,3.200 161.400 C 3.420 161.536,3.600 161.277,3.600 160.824 C 3.600 160.371,3.420 160.000,3.200 160.000 C 2.980 160.000,2.800 160.259,2.800 160.576 M396.400 161.200 C 396.400 161.860,396.580 162.400,396.800 162.400 C 397.020 162.400,397.200 161.860,397.200 161.200 C 397.200 160.540,397.020 160.000,396.800 160.000 C 396.580 160.000,396.400 160.540,396.400 161.200 M397.200 165.376 C 397.200 166.159,397.380 166.800,397.600 166.800 C 397.820 166.800,398.000 166.271,398.000 165.624 C 398.000 164.977,397.820 164.336,397.600 164.200 C 397.362 164.053,397.200 164.529,397.200 165.376 M2.000 164.976 C 2.000 165.293,2.180 165.664,2.400 165.800 C 2.620 165.936,2.800 165.677,2.800 165.224 C 2.800 164.771,2.620 164.400,2.400 164.400 C 2.180 164.400,2.000 164.659,2.000 164.976 M1.200 169.800 C 1.200 170.130,1.380 170.400,1.600 170.400 C 1.820 170.400,2.000 170.130,2.000 169.800 C 2.000 169.470,1.820 169.200,1.600 169.200 C 1.380 169.200,1.200 169.470,1.200 169.800 M398.000 170.376 C 398.000 171.049,398.180 171.600,398.400 171.600 C 398.620 171.600,398.800 171.161,398.800 170.624 C 398.800 170.087,398.620 169.536,398.400 169.400 C 398.167 169.256,398.000 169.663,398.000 170.376 M0.400 175.576 C 0.400 176.003,0.580 176.464,0.800 176.600 C 1.027 176.740,1.200 176.404,1.200 175.824 C 1.200 175.261,1.020 174.800,0.800 174.800 C 0.580 174.800,0.400 175.149,0.400 175.576 M398.800 176.400 C 398.800 177.280,398.980 178.000,399.200 178.000 C 399.420 178.000,399.600 177.280,399.600 176.400 C 399.600 175.520,399.420 174.800,399.200 174.800 C 398.980 174.800,398.800 175.520,398.800 176.400 M399.734 184.800 C 399.734 186.450,399.805 187.125,399.891 186.300 C 399.978 185.475,399.978 184.125,399.891 183.300 C 399.805 182.475,399.734 183.150,399.734 184.800 M0.093 183.600 C 0.093 184.370,0.175 184.685,0.276 184.300 C 0.376 183.915,0.376 183.285,0.276 182.900 C 0.175 182.515,0.093 182.830,0.093 183.600 M148.406 209.433 C 148.409 209.855,148.595 210.470,148.818 210.800 C 149.115 211.238,149.152 211.076,148.956 210.200 C 148.627 208.729,148.398 208.410,148.406 209.433 M251.029 210.229 C 250.881 210.815,250.838 211.372,250.932 211.466 C 251.027 211.560,251.224 211.158,251.371 210.571 C 251.519 209.985,251.562 209.428,251.468 209.334 C 251.373 209.240,251.176 209.642,251.029 210.229 M399.734 215.200 C 399.734 216.850,399.805 217.525,399.891 216.700 C 399.978 215.875,399.978 214.525,399.891 213.700 C 399.805 212.875,399.734 213.550,399.734 215.200 M0.093 216.400 C 0.093 217.170,0.175 217.485,0.276 217.100 C 0.376 216.715,0.376 216.085,0.276 215.700 C 0.175 215.315,0.093 215.630,0.093 216.400 M398.800 223.576 C 398.800 224.469,398.980 225.200,399.200 225.200 C 399.420 225.200,399.600 224.581,399.600 223.824 C 399.600 223.067,399.420 222.336,399.200 222.200 C 398.958 222.051,398.800 222.596,398.800 223.576 M0.400 224.400 C 0.400 224.840,0.580 225.200,0.800 225.200 C 1.020 225.200,1.200 224.840,1.200 224.400 C 1.200 223.960,1.020 223.600,0.800 223.600 C 0.580 223.600,0.400 223.960,0.400 224.400 M244.553 226.900 C 243.176 229.236,243.086 229.435,243.787 228.600 C 244.600 227.632,245.300 226.400,245.038 226.400 C 244.933 226.400,244.715 226.625,244.553 226.900 M398.000 229.624 C 398.000 230.337,398.167 230.744,398.400 230.600 C 398.620 230.464,398.800 229.913,398.800 229.376 C 398.800 228.839,398.620 228.400,398.400 228.400 C 398.180 228.400,398.000 228.951,398.000 229.624 M241.775 231.068 C 241.159 231.876,240.859 232.411,241.109 232.256 C 241.621 231.940,243.353 229.600,243.075 229.600 C 242.976 229.600,242.391 230.261,241.775 231.068 M397.200 234.624 C 397.200 235.471,397.362 235.947,397.600 235.800 C 397.820 235.664,398.000 235.023,398.000 234.376 C 398.000 233.729,397.820 233.200,397.600 233.200 C 397.380 233.200,397.200 233.841,397.200 234.624 M396.400 238.824 C 396.400 239.537,396.567 239.944,396.800 239.800 C 397.020 239.664,397.200 239.113,397.200 238.576 C 397.200 238.039,397.020 237.600,396.800 237.600 C 396.580 237.600,396.400 238.151,396.400 238.824 M2.800 239.200 C 2.800 239.640,2.980 240.000,3.200 240.000 C 3.420 240.000,3.600 239.640,3.600 239.200 C 3.600 238.760,3.420 238.400,3.200 238.400 C 2.980 238.400,2.800 238.760,2.800 239.200 M230.800 242.049 C 229.406 243.271,229.405 243.272,230.688 242.419 C 231.396 241.948,232.082 241.391,232.212 241.181 C 232.597 240.557,232.277 240.754,230.800 242.049 M395.600 242.624 C 395.600 243.204,395.773 243.540,396.000 243.400 C 396.220 243.264,396.400 242.803,396.400 242.376 C 396.400 241.949,396.220 241.600,396.000 241.600 C 395.780 241.600,395.600 242.061,395.600 242.624 M170.007 242.936 C 172.728 244.764,173.600 245.290,173.600 245.103 C 173.600 244.850,169.295 242.000,168.913 242.000 C 168.749 242.000,169.241 242.421,170.007 242.936 M227.700 244.046 C 226.337 244.919,225.895 245.506,227.100 244.843 C 228.018 244.339,229.456 243.227,229.200 243.219 C 229.090 243.216,228.415 243.588,227.700 244.046 M394.800 246.024 C 394.800 246.737,394.967 247.144,395.200 247.000 C 395.420 246.864,395.600 246.313,395.600 245.776 C 395.600 245.239,395.420 244.800,395.200 244.800 C 394.980 244.800,394.800 245.351,394.800 246.024 M4.400 246.176 C 4.400 246.493,4.580 246.864,4.800 247.000 C 5.020 247.136,5.200 246.877,5.200 246.424 C 5.200 245.971,5.020 245.600,4.800 245.600 C 4.580 245.600,4.400 245.859,4.400 246.176 M394.000 249.424 C 394.000 250.004,394.173 250.340,394.400 250.200 C 394.620 250.064,394.800 249.603,394.800 249.176 C 394.800 248.749,394.620 248.400,394.400 248.400 C 394.180 248.400,394.000 248.861,394.000 249.424 M189.000 251.200 C 189.440 251.389,190.070 251.544,190.400 251.544 C 190.778 251.544,190.704 251.417,190.200 251.200 C 189.760 251.011,189.130 250.856,188.800 250.856 C 188.422 250.856,188.496 250.983,189.000 251.200 M209.800 251.200 C 209.296 251.417,209.222 251.544,209.600 251.544 C 209.930 251.544,210.560 251.389,211.000 251.200 C 211.504 250.983,211.578 250.856,211.200 250.856 C 210.870 250.856,210.240 251.011,209.800 251.200 M393.200 252.400 C 393.200 252.840,393.380 253.200,393.600 253.200 C 393.820 253.200,394.000 252.840,394.000 252.400 C 394.000 251.960,393.820 251.600,393.600 251.600 C 393.380 251.600,393.200 251.960,393.200 252.400 M6.000 252.600 C 6.000 252.930,6.180 253.200,6.400 253.200 C 6.620 253.200,6.800 252.930,6.800 252.600 C 6.800 252.270,6.620 252.000,6.400 252.000 C 6.180 252.000,6.000 252.270,6.000 252.600 M197.500 252.296 C 198.875 252.374,201.125 252.374,202.500 252.296 C 203.875 252.218,202.750 252.154,200.000 252.154 C 197.250 252.154,196.125 252.218,197.500 252.296 M392.400 255.000 C 392.400 255.550,392.580 256.000,392.800 256.000 C 393.020 256.000,393.200 255.550,393.200 255.000 C 393.200 254.450,393.020 254.000,392.800 254.000 C 392.580 254.000,392.400 254.450,392.400 255.000 M391.600 258.024 C 391.600 258.477,391.780 258.736,392.000 258.600 C 392.220 258.464,392.400 258.093,392.400 257.776 C 392.400 257.459,392.220 257.200,392.000 257.200 C 391.780 257.200,391.600 257.571,391.600 258.024 M390.800 260.400 C 390.800 260.840,390.980 261.200,391.200 261.200 C 391.420 261.200,391.600 260.840,391.600 260.400 C 391.600 259.960,391.420 259.600,391.200 259.600 C 390.980 259.600,390.800 259.960,390.800 260.400 M386.400 273.624 C 386.400 274.077,386.580 274.336,386.800 274.200 C 387.020 274.064,387.200 273.693,387.200 273.376 C 387.200 273.059,387.020 272.800,386.800 272.800 C 386.580 272.800,386.400 273.171,386.400 273.624 M384.800 277.600 C 384.800 278.040,384.620 278.400,384.400 278.400 C 384.180 278.400,384.000 278.760,384.000 279.200 C 384.000 280.288,384.660 280.215,384.902 279.100 C 385.009 278.605,385.230 277.885,385.391 277.500 C 385.569 277.078,385.510 276.800,385.243 276.800 C 384.999 276.800,384.800 277.160,384.800 277.600 M383.200 281.000 C 383.200 281.330,383.380 281.600,383.600 281.600 C 383.820 281.600,384.000 281.330,384.000 281.000 C 384.000 280.670,383.820 280.400,383.600 280.400 C 383.380 280.400,383.200 280.670,383.200 281.000 M380.800 286.200 C 380.800 286.530,380.980 286.800,381.200 286.800 C 381.420 286.800,381.600 286.530,381.600 286.200 C 381.600 285.870,381.420 285.600,381.200 285.600 C 380.980 285.600,380.800 285.870,380.800 286.200 M380.000 287.800 C 380.000 288.130,380.180 288.400,380.400 288.400 C 380.620 288.400,380.800 288.130,380.800 287.800 C 380.800 287.470,380.620 287.200,380.400 287.200 C 380.180 287.200,380.000 287.470,380.000 287.800 M379.200 289.400 C 379.200 289.730,379.380 290.000,379.600 290.000 C 379.820 290.000,380.000 289.730,380.000 289.400 C 380.000 289.070,379.820 288.800,379.600 288.800 C 379.380 288.800,379.200 289.070,379.200 289.400 M378.400 290.920 C 378.400 291.294,378.220 291.600,378.000 291.600 C 377.780 291.600,377.600 291.960,377.600 292.400 C 377.600 292.840,377.420 293.200,377.200 293.200 C 376.980 293.200,376.800 293.560,376.800 294.000 C 376.800 294.440,376.620 294.800,376.400 294.800 C 376.180 294.800,376.000 295.160,376.000 295.600 C 376.000 296.040,375.820 296.400,375.600 296.400 C 375.380 296.400,375.200 296.580,375.200 296.800 C 375.200 297.755,375.915 297.052,376.821 295.206 C 377.360 294.110,377.935 293.210,378.100 293.206 C 378.265 293.203,378.400 292.855,378.400 292.433 C 378.400 292.012,378.625 291.584,378.900 291.483 C 379.300 291.337,379.300 291.194,378.900 290.770 C 378.488 290.334,378.400 290.360,378.400 290.920 M367.300 310.223 C 366.711 310.863,366.662 311.200,367.157 311.200 C 367.498 311.200,368.137 309.996,367.909 309.783 C 367.849 309.727,367.575 309.925,367.300 310.223 M365.660 312.642 C 364.931 313.466,365.400 313.857,366.181 313.076 C 366.521 312.736,366.800 312.354,366.800 312.229 C 366.800 311.809,366.206 312.024,365.660 312.642 M361.660 318.242 C 360.931 319.066,361.400 319.457,362.181 318.676 C 362.521 318.336,362.800 317.954,362.800 317.829 C 362.800 317.409,362.206 317.624,361.660 318.242 M359.304 321.394 C 359.031 321.704,358.950 322.046,359.124 322.153 C 359.298 322.260,359.657 322.000,359.923 321.574 C 360.480 320.683,360.042 320.556,359.304 321.394 M353.660 328.651 C 353.143 329.202,352.796 329.729,352.889 329.822 C 352.982 329.915,353.574 329.454,354.204 328.796 C 354.834 328.138,355.181 327.611,354.975 327.624 C 354.769 327.638,354.177 328.100,353.660 328.651 M347.692 335.430 C 346.533 336.623,345.723 337.594,345.892 337.587 C 346.279 337.570,347.404 336.573,349.178 334.675 C 351.354 332.347,350.036 333.017,347.692 335.430 M335.662 347.489 C 334.706 348.462,333.997 349.331,334.087 349.420 C 334.177 349.510,335.037 348.781,336.000 347.800 C 336.963 346.819,337.671 345.950,337.575 345.869 C 337.479 345.787,336.618 346.516,335.662 347.489 M65.002 348.802 C 65.402 349.244,65.811 349.522,65.912 349.421 C 66.128 349.205,64.988 348.000,64.567 348.000 C 64.407 348.000,64.603 348.361,65.002 348.802 M328.060 354.242 C 327.762 354.578,327.599 354.932,327.695 355.029 C 327.792 355.126,328.198 354.844,328.598 354.402 C 328.997 353.961,329.161 353.607,328.962 353.615 C 328.763 353.624,328.357 353.905,328.060 354.242 M320.233 360.257 C 320.095 360.619,320.075 361.009,320.191 361.124 C 320.306 361.239,320.400 361.123,320.400 360.867 C 320.400 360.610,320.670 360.400,321.000 360.400 C 321.330 360.400,321.600 360.220,321.600 360.000 C 321.600 359.342,320.506 359.548,320.233 360.257 M318.060 361.842 C 317.331 362.666,317.800 363.057,318.581 362.276 C 318.921 361.936,319.200 361.554,319.200 361.429 C 319.200 361.009,318.606 361.224,318.060 361.842 M314.860 364.242 C 314.562 364.578,314.399 364.932,314.495 365.029 C 314.592 365.126,314.998 364.844,315.398 364.402 C 315.797 363.961,315.961 363.607,315.762 363.615 C 315.563 363.624,315.157 363.905,314.860 364.242 M312.460 365.842 C 311.731 366.666,312.200 367.057,312.981 366.276 C 313.321 365.936,313.600 365.554,313.600 365.429 C 313.600 365.009,313.006 365.224,312.460 365.842 M91.200 368.704 C 91.200 368.871,91.560 369.232,92.000 369.507 C 92.930 370.088,93.054 369.797,92.229 368.971 C 91.598 368.341,91.200 368.237,91.200 368.704 M294.800 376.400 C 294.800 376.620,294.440 376.800,294.000 376.800 C 293.560 376.800,293.200 376.980,293.200 377.200 C 293.200 377.420,292.930 377.600,292.600 377.600 C 292.270 377.600,292.000 377.780,292.000 378.000 C 292.000 378.220,292.270 378.400,292.600 378.400 C 292.930 378.400,293.200 378.220,293.200 378.000 C 293.200 377.780,293.478 377.600,293.817 377.600 C 294.156 377.600,294.820 377.240,295.292 376.800 C 296.020 376.122,296.048 376.000,295.475 376.000 C 295.104 376.000,294.800 376.180,294.800 376.400 M290.400 378.800 C 290.400 379.020,290.670 379.200,291.000 379.200 C 291.330 379.200,291.600 379.020,291.600 378.800 C 291.600 378.580,291.330 378.400,291.000 378.400 C 290.670 378.400,290.400 378.580,290.400 378.800 M112.000 380.004 L 111.000 380.259 111.930 380.566 C 112.899 380.886,113.384 380.699,113.142 380.099 C 113.064 379.906,112.550 379.863,112.000 380.004 " stroke="none" fill="#fcc47c" fill-rule="evenodd"></path></g></svg>