<svg id="svg" version="1.1" xmlns="http://www.w3.org/2000/svg" xmlns:xlink="http://www.w3.org/1999/xlink" width="400" height="400" viewBox="0, 0, 400,400"><g id="svgg"><path id="path0" d="M269.702 199.622 L 269.800 388.200 270.800 388.065 C 271.350 387.991,271.971 387.766,272.180 387.565 C 272.389 387.364,272.895 387.200,273.304 387.200 C 273.713 387.200,273.936 387.020,273.800 386.800 C 273.656 386.567,274.063 386.400,274.776 386.400 C 275.449 386.400,276.000 386.220,276.000 386.000 C 276.000 385.780,276.500 385.600,277.112 385.600 C 277.760 385.600,278.461 385.270,278.794 384.809 C 279.213 384.227,279.446 384.148,279.676 384.509 C 279.921 384.894,279.989 384.892,279.994 384.500 C 279.997 384.225,280.405 383.997,280.900 383.994 C 281.628 383.989,281.685 383.914,281.200 383.600 C 280.743 383.305,280.905 383.211,281.876 383.206 C 282.578 383.203,283.264 383.020,283.400 382.800 C 283.536 382.580,283.963 382.400,284.348 382.400 C 284.734 382.400,285.436 382.040,285.908 381.600 C 286.380 381.160,287.044 380.800,287.383 380.800 C 287.722 380.800,288.000 380.609,288.000 380.376 C 288.000 380.143,288.142 380.041,288.316 380.148 C 288.754 380.419,291.261 379.188,292.047 378.317 C 292.403 377.923,292.988 377.600,293.347 377.600 C 293.706 377.600,294.000 377.420,294.000 377.200 C 294.000 376.980,294.416 376.800,294.925 376.800 C 295.433 376.800,296.204 376.469,296.638 376.065 C 297.072 375.661,297.950 375.199,298.589 375.039 C 299.228 374.878,300.240 374.399,300.837 373.973 C 301.435 373.548,302.121 373.200,302.362 373.200 C 302.603 373.200,302.800 373.020,302.800 372.800 C 302.800 372.580,303.160 372.400,303.600 372.400 C 304.040 372.400,304.401 372.265,304.402 372.100 C 304.403 371.935,305.392 371.170,306.600 370.400 C 307.808 369.630,308.797 368.865,308.798 368.700 C 308.799 368.535,309.120 368.400,309.512 368.400 C 309.903 368.400,310.483 368.040,310.800 367.600 C 311.117 367.160,311.742 366.797,312.188 366.794 C 312.859 366.789,312.896 366.720,312.400 366.400 C 311.915 366.086,311.972 366.011,312.700 366.006 C 313.195 366.003,313.600 365.820,313.600 365.600 C 313.600 365.380,313.920 365.200,314.312 365.200 C 314.703 365.200,315.283 364.840,315.600 364.400 C 315.917 363.960,316.385 363.600,316.640 363.600 C 316.895 363.600,317.845 362.880,318.752 362.000 C 319.658 361.121,320.400 360.600,320.400 360.843 C 320.400 361.086,320.922 360.726,321.560 360.042 C 322.199 359.359,322.934 358.800,323.194 358.800 C 323.454 358.800,324.279 358.170,325.026 357.400 C 325.774 356.630,326.545 356.000,326.739 356.000 C 326.934 356.000,328.123 355.010,329.382 353.800 C 330.642 352.590,331.834 351.600,332.032 351.600 C 332.327 351.600,334.508 349.463,341.859 341.970 C 342.047 341.779,343.674 340.196,345.475 338.453 C 347.276 336.710,348.641 335.175,348.508 335.042 C 348.375 334.909,348.494 334.800,348.773 334.800 C 349.314 334.800,351.600 332.531,351.600 331.994 C 351.600 331.817,352.590 330.642,353.800 329.382 C 355.010 328.123,356.000 326.934,356.000 326.739 C 356.000 326.545,356.630 325.774,357.400 325.026 C 358.170 324.279,358.800 323.454,358.800 323.194 C 358.800 322.934,359.359 322.199,360.042 321.560 C 360.726 320.922,361.086 320.400,360.843 320.400 C 360.600 320.400,361.121 319.658,362.000 318.752 C 362.880 317.845,363.600 316.895,363.600 316.640 C 363.600 316.385,363.960 315.917,364.400 315.600 C 364.840 315.283,365.200 314.703,365.200 314.312 C 365.200 313.920,365.380 313.600,365.600 313.600 C 365.820 313.600,366.003 313.195,366.006 312.700 C 366.011 311.972,366.086 311.915,366.400 312.400 C 366.720 312.896,366.789 312.859,366.794 312.188 C 366.797 311.742,367.160 311.117,367.600 310.800 C 368.040 310.483,368.400 309.918,368.400 309.545 C 368.400 309.172,368.547 308.807,368.728 308.733 C 369.193 308.544,372.400 303.731,372.400 303.222 C 372.400 302.990,372.580 302.800,372.800 302.800 C 373.020 302.800,373.200 302.603,373.200 302.362 C 373.200 302.121,373.561 301.416,374.003 300.795 C 374.445 300.175,374.918 299.112,375.053 298.434 C 375.189 297.755,375.457 297.200,375.650 297.200 C 375.843 297.200,376.003 296.795,376.006 296.300 C 376.011 295.572,376.086 295.515,376.400 296.000 C 376.694 296.455,376.789 296.286,376.794 295.300 C 376.797 294.585,376.980 294.000,377.200 294.000 C 377.420 294.000,377.600 293.706,377.600 293.347 C 377.600 292.988,377.929 292.403,378.330 292.047 C 378.732 291.691,379.316 290.815,379.628 290.100 C 379.940 289.385,380.331 288.800,380.498 288.800 C 380.664 288.800,380.800 288.440,380.800 288.000 C 380.800 287.560,380.980 287.200,381.200 287.200 C 381.420 287.200,381.600 286.649,381.600 285.976 C 381.600 285.263,381.767 284.856,382.000 285.000 C 382.220 285.136,382.400 284.877,382.400 284.424 C 382.400 283.971,382.580 283.600,382.800 283.600 C 383.020 283.600,383.200 283.150,383.200 282.600 C 383.200 282.050,383.380 281.600,383.600 281.600 C 383.820 281.600,384.000 281.240,384.000 280.800 C 384.000 280.360,384.225 279.997,384.500 279.994 C 384.833 279.990,384.800 279.858,384.400 279.600 C 384.000 279.342,383.967 279.210,384.300 279.206 C 384.575 279.203,384.803 278.795,384.806 278.300 C 384.811 277.572,384.886 277.515,385.200 278.000 C 385.494 278.455,385.589 278.286,385.594 277.300 C 385.597 276.585,385.780 276.000,386.000 276.000 C 386.220 276.000,386.400 275.651,386.400 275.224 C 386.400 274.797,386.580 274.336,386.800 274.200 C 387.020 274.064,387.200 273.603,387.200 273.176 C 387.200 272.749,387.380 272.400,387.600 272.400 C 387.820 272.400,388.000 271.961,388.000 271.424 C 388.000 270.887,388.144 270.358,388.321 270.249 C 388.497 270.140,388.893 269.128,389.200 268.000 C 389.507 266.872,389.903 265.860,390.079 265.751 C 390.256 265.642,390.400 265.149,390.400 264.656 C 390.400 264.163,390.579 263.581,390.798 263.362 C 391.016 263.144,391.312 261.848,391.454 260.482 C 391.597 259.117,391.868 258.000,392.057 258.000 C 392.246 258.000,392.400 257.550,392.400 257.000 C 392.400 256.450,392.580 256.000,392.800 256.000 C 393.020 256.000,393.200 255.460,393.200 254.800 C 393.200 254.110,393.412 253.597,393.700 253.594 C 394.039 253.590,394.007 253.451,393.600 253.163 C 393.148 252.844,393.124 252.689,393.500 252.536 C 393.775 252.425,394.000 251.718,394.000 250.967 C 394.000 250.215,394.180 249.600,394.400 249.600 C 394.620 249.600,394.800 249.060,394.800 248.400 C 394.800 247.740,394.980 247.200,395.200 247.200 C 395.423 247.200,395.600 246.125,395.600 244.776 C 395.600 243.263,395.750 242.446,396.000 242.600 C 396.238 242.747,396.400 242.271,396.400 241.424 C 396.400 240.641,396.580 240.000,396.800 240.000 C 397.026 240.000,397.200 238.867,397.200 237.400 C 397.200 235.933,397.374 234.800,397.600 234.800 C 397.820 234.800,398.000 233.799,398.000 232.576 C 398.000 231.196,398.152 230.447,398.400 230.600 C 398.652 230.756,398.800 229.815,398.800 228.057 C 398.800 226.180,398.964 225.212,399.300 225.100 C 400.032 224.856,400.032 175.144,399.300 174.900 C 398.964 174.788,398.800 173.820,398.800 171.943 C 398.800 170.185,398.652 169.244,398.400 169.400 C 398.152 169.553,398.000 168.804,398.000 167.424 C 398.000 166.201,397.820 165.200,397.600 165.200 C 397.374 165.200,397.200 164.067,397.200 162.600 C 397.200 161.133,397.026 160.000,396.800 160.000 C 396.580 160.000,396.400 159.460,396.400 158.800 C 396.400 158.140,396.220 157.600,396.000 157.600 C 395.778 157.600,395.600 156.533,395.600 155.200 C 395.600 153.867,395.422 152.800,395.200 152.800 C 394.980 152.800,394.800 152.361,394.800 151.824 C 394.800 151.287,394.601 150.724,394.357 150.574 C 394.049 150.383,394.079 150.196,394.457 149.956 C 394.857 149.703,394.868 149.611,394.500 149.606 C 394.225 149.603,394.000 149.186,394.000 148.680 C 394.000 148.174,393.775 147.518,393.500 147.221 C 393.100 146.790,393.100 146.739,393.500 146.965 C 393.775 147.120,394.000 147.057,394.000 146.824 C 394.000 146.591,393.820 146.400,393.600 146.400 C 393.380 146.400,393.200 145.860,393.200 145.200 C 393.200 144.540,393.020 144.000,392.800 144.000 C 392.580 144.000,392.400 143.550,392.400 143.000 C 392.400 142.450,392.245 142.000,392.056 142.000 C 391.867 142.000,391.607 140.982,391.478 139.737 C 391.350 138.493,391.099 137.368,390.921 137.237 C 390.743 137.107,390.535 136.460,390.460 135.800 C 390.384 135.140,390.192 134.420,390.033 134.200 C 389.874 133.980,389.500 132.990,389.202 132.000 C 388.905 131.010,388.512 130.029,388.330 129.820 C 388.149 129.611,388.000 129.026,388.000 128.520 C 388.000 128.014,387.820 127.600,387.600 127.600 C 387.380 127.600,387.200 127.251,387.200 126.824 C 387.200 126.397,387.020 125.936,386.800 125.800 C 386.580 125.664,386.400 125.203,386.400 124.776 C 386.400 124.349,386.220 124.000,386.000 124.000 C 385.780 124.000,385.600 123.561,385.600 123.024 C 385.600 122.487,385.420 121.936,385.200 121.800 C 384.980 121.664,384.800 121.203,384.800 120.776 C 384.800 120.349,384.620 120.000,384.400 120.000 C 384.180 120.000,384.000 119.640,384.000 119.200 C 384.000 118.760,383.820 118.400,383.600 118.400 C 383.380 118.400,383.200 118.128,383.200 117.795 C 383.200 117.462,383.020 116.832,382.800 116.395 C 382.580 115.958,382.220 115.242,382.000 114.805 C 381.780 114.368,381.600 113.738,381.600 113.405 C 381.600 113.072,381.420 112.800,381.200 112.800 C 380.980 112.800,380.800 112.440,380.800 112.000 C 380.800 111.560,380.620 111.200,380.400 111.200 C 380.180 111.200,380.000 110.930,380.000 110.600 C 380.000 110.270,379.820 110.000,379.600 110.000 C 379.380 110.000,379.200 109.640,379.200 109.200 C 379.200 108.760,379.020 108.400,378.800 108.400 C 378.580 108.400,378.400 108.080,378.400 107.688 C 378.400 107.297,378.040 106.717,377.600 106.400 C 377.159 106.082,376.800 105.365,376.800 104.800 C 376.800 104.235,376.441 103.518,376.000 103.200 C 375.560 102.883,375.200 102.316,375.200 101.940 C 375.200 101.565,374.975 101.015,374.700 100.719 C 374.425 100.423,374.144 99.928,374.076 99.619 C 374.008 99.309,373.603 98.566,373.176 97.966 C 372.749 97.367,372.400 96.672,372.400 96.422 C 372.400 96.171,372.040 95.580,371.600 95.108 C 371.160 94.636,370.800 94.013,370.800 93.725 C 370.800 93.436,370.620 93.200,370.400 93.200 C 370.180 93.200,369.997 92.885,369.994 92.500 C 369.989 91.902,369.931 91.887,369.600 92.400 C 369.286 92.885,369.211 92.828,369.206 92.100 C 369.203 91.605,369.020 91.200,368.800 91.200 C 368.580 91.200,368.400 90.912,368.400 90.560 C 368.400 90.209,367.860 89.417,367.200 88.800 C 366.540 88.183,366.000 87.391,366.000 87.040 C 366.000 86.688,365.820 86.400,365.600 86.400 C 365.380 86.400,365.200 86.080,365.200 85.688 C 365.200 85.297,364.840 84.717,364.400 84.400 C 363.960 84.083,363.600 83.620,363.600 83.371 C 363.600 83.122,363.060 82.354,362.400 81.663 C 361.740 80.972,361.200 80.208,361.200 79.964 C 361.200 79.720,360.660 79.017,360.000 78.400 C 359.340 77.783,358.800 77.087,358.800 76.853 C 358.800 76.618,358.170 75.797,357.400 75.027 C 356.630 74.257,356.000 73.465,356.000 73.267 C 356.000 73.069,355.010 71.877,353.800 70.618 C 352.590 69.358,351.600 68.160,351.600 67.956 C 351.600 67.751,349.485 65.515,346.900 62.989 C 344.315 60.462,342.047 58.234,341.859 58.038 C 337.470 53.456,332.301 48.400,332.006 48.400 C 331.794 48.400,330.813 47.592,329.826 46.605 C 328.839 45.618,327.803 44.763,327.523 44.705 C 327.243 44.647,326.429 44.015,325.714 43.300 C 324.999 42.585,324.231 42.000,324.007 42.000 C 323.783 42.000,323.600 41.820,323.600 41.600 C 323.600 41.380,323.402 41.200,323.160 41.200 C 322.919 41.200,322.217 40.660,321.600 40.000 C 320.983 39.340,320.280 38.800,320.036 38.800 C 319.792 38.800,319.028 38.260,318.337 37.600 C 317.646 36.940,316.878 36.400,316.629 36.400 C 316.380 36.400,315.917 36.040,315.600 35.600 C 315.283 35.160,314.703 34.800,314.312 34.800 C 313.920 34.800,313.600 34.620,313.600 34.400 C 313.600 34.180,313.312 34.000,312.960 34.000 C 312.609 34.000,311.817 33.460,311.200 32.800 C 310.583 32.140,309.831 31.600,309.528 31.600 C 309.225 31.600,308.717 31.240,308.400 30.800 C 308.083 30.360,307.593 30.000,307.312 30.000 C 307.030 30.000,306.800 29.820,306.800 29.600 C 306.800 29.380,306.564 29.200,306.275 29.200 C 305.987 29.200,305.364 28.840,304.892 28.400 C 304.420 27.960,303.767 27.600,303.440 27.600 C 303.114 27.600,302.748 27.440,302.627 27.244 C 302.304 26.721,298.516 24.800,297.807 24.800 C 297.473 24.800,297.200 24.620,297.200 24.400 C 297.200 24.180,296.795 23.997,296.300 23.994 C 295.572 23.989,295.515 23.914,296.000 23.600 C 296.455 23.306,296.286 23.211,295.300 23.206 C 294.585 23.203,294.000 23.020,294.000 22.800 C 294.000 22.580,293.640 22.400,293.200 22.400 C 292.760 22.400,292.400 22.220,292.400 22.000 C 292.400 21.780,291.995 21.597,291.500 21.594 C 290.899 21.590,290.767 21.482,291.102 21.269 C 291.443 21.052,291.156 20.775,290.202 20.401 C 289.431 20.098,288.800 19.704,288.800 19.525 C 288.800 19.346,288.215 19.197,287.500 19.194 C 286.514 19.189,286.345 19.094,286.800 18.800 C 287.285 18.486,287.228 18.411,286.500 18.406 C 286.005 18.403,285.600 18.220,285.600 18.000 C 285.600 17.780,285.150 17.600,284.600 17.600 C 284.050 17.600,283.600 17.420,283.600 17.200 C 283.600 16.980,283.010 16.800,282.288 16.800 C 281.435 16.800,280.775 16.520,280.400 16.000 C 280.083 15.560,279.514 15.200,279.135 15.200 C 278.757 15.200,278.336 15.020,278.200 14.800 C 278.064 14.580,277.513 14.400,276.976 14.400 C 276.439 14.400,276.000 14.220,276.000 14.000 C 276.000 13.780,275.415 13.597,274.700 13.594 C 273.714 13.589,273.545 13.494,274.000 13.200 C 274.468 12.898,274.357 12.811,273.500 12.806 C 272.895 12.803,272.400 12.620,272.400 12.400 C 272.400 12.180,271.986 12.000,271.480 12.000 C 270.974 12.000,270.345 11.785,270.082 11.522 C 269.712 11.152,269.626 53.409,269.702 199.622 " stroke="none" fill="#dc0424" fill-rule="evenodd"></path><path id="path1" d="M127.600 12.400 C 127.600 12.620,127.105 12.803,126.500 12.806 C 125.643 12.811,125.532 12.898,126.000 13.200 C 126.455 13.494,126.286 13.589,125.300 13.594 C 124.585 13.597,124.000 13.780,124.000 14.000 C 124.000 14.220,123.415 14.403,122.700 14.406 C 121.714 14.411,121.545 14.506,122.000 14.800 C 122.485 15.114,122.428 15.189,121.700 15.194 C 121.205 15.197,120.800 15.380,120.800 15.600 C 120.800 15.820,120.440 16.000,120.000 16.000 C 119.560 16.000,119.197 16.225,119.194 16.500 C 119.190 16.833,119.058 16.800,118.800 16.400 C 118.542 16.000,118.410 15.967,118.406 16.300 C 118.403 16.575,117.950 16.800,117.400 16.800 C 116.850 16.800,116.400 16.980,116.400 17.200 C 116.400 17.420,115.950 17.600,115.400 17.600 C 114.850 17.600,114.400 17.780,114.400 18.000 C 114.400 18.220,113.995 18.413,113.500 18.428 C 112.641 18.455,112.637 18.472,113.400 18.800 C 114.042 19.076,113.903 19.149,112.700 19.172 C 111.875 19.187,111.200 19.380,111.200 19.600 C 111.200 19.820,110.885 20.003,110.500 20.006 C 109.902 20.011,109.887 20.069,110.400 20.400 C 110.860 20.697,110.718 20.789,109.788 20.794 C 109.041 20.798,108.356 21.106,108.000 21.600 C 107.644 22.094,106.959 22.402,106.212 22.406 C 105.282 22.411,105.140 22.503,105.600 22.800 C 106.085 23.114,106.028 23.189,105.300 23.194 C 104.805 23.197,104.400 23.391,104.400 23.624 C 104.400 23.857,104.235 23.945,104.032 23.820 C 103.830 23.695,103.423 23.834,103.128 24.129 C 102.833 24.424,102.099 24.789,101.496 24.940 C 100.893 25.091,100.400 25.452,100.400 25.741 C 100.400 26.030,100.130 26.297,99.800 26.333 C 99.470 26.370,98.930 26.430,98.600 26.467 C 98.270 26.503,98.000 26.694,98.000 26.890 C 98.000 27.087,97.820 27.136,97.600 27.000 C 97.380 26.864,97.200 26.943,97.200 27.176 C 97.200 27.409,96.840 27.600,96.400 27.600 C 95.960 27.600,95.600 27.780,95.600 28.000 C 95.600 28.220,95.330 28.400,95.000 28.400 C 94.670 28.400,94.400 28.580,94.400 28.800 C 94.400 29.020,94.130 29.200,93.800 29.200 C 93.470 29.200,93.200 29.380,93.200 29.600 C 93.200 29.820,92.970 30.000,92.688 30.000 C 92.407 30.000,91.917 30.360,91.600 30.800 C 91.283 31.240,90.775 31.600,90.472 31.600 C 90.169 31.600,89.417 32.140,88.800 32.800 C 88.183 33.460,87.391 34.000,87.040 34.000 C 86.688 34.000,86.400 34.180,86.400 34.400 C 86.400 34.620,86.080 34.800,85.688 34.800 C 85.297 34.800,84.717 35.160,84.400 35.600 C 84.083 36.040,83.615 36.400,83.360 36.400 C 83.105 36.400,82.185 37.075,81.316 37.900 C 80.447 38.725,79.492 39.456,79.193 39.525 C 78.895 39.594,78.348 39.999,77.978 40.425 C 77.609 40.851,77.194 41.200,77.056 41.200 C 76.820 41.200,75.310 42.406,74.175 43.500 C 73.890 43.775,73.492 44.000,73.290 44.000 C 73.088 44.000,71.787 45.080,70.400 46.400 C 69.013 47.720,67.720 48.800,67.526 48.800 C 67.333 48.800,65.194 50.825,62.774 53.300 C 60.353 55.775,58.217 57.953,58.028 58.141 C 57.838 58.329,55.594 60.536,53.041 63.045 C 50.488 65.555,48.400 67.782,48.400 67.994 C 48.400 68.206,47.592 69.187,46.605 70.174 C 45.618 71.161,44.763 72.192,44.705 72.466 C 44.647 72.740,44.240 73.350,43.800 73.823 C 42.340 75.392,41.200 76.803,41.200 77.043 C 41.200 77.173,40.641 77.801,39.958 78.440 C 39.274 79.078,38.914 79.600,39.157 79.600 C 39.400 79.600,38.879 80.342,38.000 81.248 C 37.120 82.155,36.400 83.105,36.400 83.360 C 36.400 83.615,36.040 84.083,35.600 84.400 C 35.160 84.717,34.800 85.231,34.800 85.541 C 34.800 85.852,34.412 86.442,33.939 86.853 C 33.465 87.264,33.304 87.600,33.581 87.600 C 33.858 87.600,33.526 88.122,32.842 88.760 C 32.159 89.399,31.600 90.169,31.600 90.472 C 31.600 90.775,31.240 91.283,30.800 91.600 C 30.360 91.917,30.000 92.407,30.000 92.688 C 30.000 92.970,29.820 93.200,29.600 93.200 C 29.380 93.200,29.200 93.436,29.200 93.725 C 29.200 94.013,28.840 94.636,28.400 95.108 C 27.960 95.580,27.600 96.157,27.600 96.389 C 27.600 96.915,26.722 98.511,26.242 98.860 C 26.045 99.002,25.994 99.407,26.129 99.760 C 26.287 100.171,26.161 100.400,25.777 100.400 C 25.434 100.400,25.078 100.909,24.940 101.600 C 24.808 102.260,24.543 102.800,24.350 102.800 C 24.158 102.800,24.000 103.160,24.000 103.600 C 24.000 104.040,23.820 104.400,23.600 104.400 C 23.380 104.400,23.200 104.760,23.200 105.200 C 23.200 105.640,23.020 106.000,22.800 106.000 C 22.580 106.000,22.400 106.360,22.400 106.800 C 22.400 107.240,22.220 107.600,22.000 107.600 C 21.780 107.600,21.597 108.005,21.594 108.500 C 21.589 109.228,21.514 109.285,21.200 108.800 C 20.888 108.317,20.811 108.381,20.806 109.124 C 20.803 109.636,20.622 109.937,20.400 109.800 C 20.180 109.664,20.000 109.908,20.000 110.343 C 20.000 110.778,19.837 111.193,19.638 111.267 C 19.439 111.340,19.214 111.850,19.138 112.400 C 19.062 112.950,18.685 113.691,18.300 114.047 C 17.915 114.403,17.600 114.977,17.600 115.323 C 17.600 115.670,17.420 116.064,17.200 116.200 C 16.980 116.336,16.800 116.887,16.800 117.424 C 16.800 117.961,16.620 118.400,16.400 118.400 C 16.180 118.400,16.000 118.760,16.000 119.200 C 16.000 119.640,15.820 120.000,15.600 120.000 C 15.380 120.000,15.200 120.360,15.200 120.800 C 15.200 121.240,15.020 121.600,14.800 121.600 C 14.580 121.600,14.400 122.140,14.400 122.800 C 14.400 123.460,14.220 124.000,14.000 124.000 C 13.780 124.000,13.597 124.585,13.594 125.300 C 13.589 126.286,13.494 126.455,13.200 126.000 C 12.898 125.532,12.811 125.643,12.806 126.500 C 12.803 127.105,12.653 127.600,12.472 127.600 C 12.133 127.600,10.923 131.568,11.100 132.100 C 11.155 132.265,11.020 132.400,10.800 132.400 C 10.580 132.400,10.400 132.940,10.400 133.600 C 10.400 134.260,10.220 134.800,10.000 134.800 C 9.780 134.800,9.600 135.149,9.600 135.576 C 9.600 136.003,9.434 136.455,9.231 136.581 C 9.029 136.706,8.738 137.977,8.585 139.404 C 8.432 140.832,8.148 142.000,7.953 142.000 C 7.759 142.000,7.600 142.450,7.600 143.000 C 7.600 143.550,7.420 144.000,7.200 144.000 C 6.980 144.000,6.800 144.540,6.800 145.200 C 6.800 145.860,6.620 146.400,6.400 146.400 C 6.180 146.400,6.000 147.300,6.000 148.400 C 6.000 149.500,5.820 150.400,5.600 150.400 C 5.380 150.400,5.200 150.940,5.200 151.600 C 5.200 152.260,5.020 152.800,4.800 152.800 C 4.580 152.800,4.400 153.801,4.400 155.024 C 4.400 156.404,4.248 157.153,4.000 157.000 C 3.762 156.853,3.600 157.321,3.600 158.153 C 3.600 158.923,3.420 159.664,3.200 159.800 C 2.980 159.936,2.800 161.207,2.800 162.624 C 2.800 164.075,2.625 165.200,2.400 165.200 C 2.180 165.200,2.000 165.909,2.000 166.776 C 2.000 167.643,1.820 168.464,1.600 168.600 C 1.380 168.736,1.200 170.377,1.200 172.247 C 1.200 174.231,1.046 175.552,0.830 175.418 C 0.234 175.050,0.098 180.792,0.165 203.571 C 0.212 219.952,0.340 224.980,0.713 225.104 C 1.034 225.211,1.202 226.242,1.206 228.133 C 1.210 230.132,1.330 230.818,1.600 230.400 C 1.871 229.980,1.990 230.617,1.994 232.524 C 1.998 234.236,2.149 235.155,2.400 235.000 C 2.651 234.845,2.800 235.721,2.800 237.353 C 2.800 238.783,2.980 240.064,3.200 240.200 C 3.420 240.336,3.600 241.067,3.600 241.824 C 3.600 242.581,3.746 243.200,3.925 243.200 C 4.104 243.200,4.294 244.055,4.347 245.100 C 4.400 246.145,4.613 247.060,4.821 247.133 C 5.030 247.207,5.200 247.792,5.200 248.433 C 5.200 249.075,5.380 249.600,5.600 249.600 C 5.820 249.600,6.000 250.320,6.000 251.200 C 6.000 252.210,6.184 252.802,6.500 252.806 C 6.833 252.810,6.800 252.942,6.400 253.200 C 6.000 253.458,5.967 253.590,6.300 253.594 C 6.588 253.597,6.800 254.110,6.800 254.800 C 6.800 255.460,6.980 256.000,7.200 256.000 C 7.420 256.000,7.600 256.450,7.600 257.000 C 7.600 257.550,7.754 258.000,7.943 258.000 C 8.132 258.000,8.403 259.117,8.546 260.482 C 8.688 261.848,8.984 263.144,9.202 263.362 C 9.421 263.581,9.600 264.084,9.600 264.480 C 9.600 264.876,9.742 265.200,9.915 265.200 C 10.088 265.200,10.274 265.782,10.328 266.493 C 10.383 267.205,10.601 267.961,10.813 268.173 C 11.026 268.386,11.200 268.884,11.200 269.280 C 11.200 269.676,11.380 270.000,11.600 270.000 C 11.820 270.000,12.000 270.540,12.000 271.200 C 12.000 271.860,12.180 272.400,12.400 272.400 C 12.620 272.400,12.803 272.895,12.806 273.500 C 12.811 274.357,12.898 274.468,13.200 274.000 C 13.494 273.545,13.589 273.714,13.594 274.700 C 13.597 275.415,13.780 276.000,14.000 276.000 C 14.220 276.000,14.403 276.585,14.406 277.300 C 14.411 278.286,14.506 278.455,14.800 278.000 C 15.114 277.515,15.189 277.572,15.194 278.300 C 15.197 278.795,15.380 279.200,15.600 279.200 C 15.820 279.200,16.000 279.740,16.000 280.400 C 16.000 281.060,16.180 281.600,16.400 281.600 C 16.620 281.600,16.800 281.955,16.800 282.388 C 16.800 283.271,18.248 286.042,18.946 286.494 C 19.257 286.695,19.223 286.790,18.839 286.794 C 18.475 286.798,18.602 287.081,19.200 287.600 C 19.798 288.119,19.925 288.402,19.561 288.406 C 19.196 288.410,19.151 288.515,19.432 288.706 C 19.670 288.868,20.113 289.572,20.417 290.271 C 20.721 290.970,21.112 291.455,21.285 291.348 C 21.458 291.240,21.600 291.433,21.600 291.776 C 21.600 292.119,21.780 292.400,22.000 292.400 C 22.220 292.400,22.400 292.760,22.400 293.200 C 22.400 293.640,22.580 294.000,22.800 294.000 C 23.020 294.000,23.200 294.500,23.200 295.112 C 23.200 295.765,23.530 296.461,24.000 296.800 C 24.440 297.117,24.800 297.628,24.800 297.934 C 24.800 298.585,26.859 302.537,27.300 302.733 C 27.465 302.807,27.600 303.129,27.600 303.450 C 27.600 303.771,27.960 304.420,28.400 304.892 C 28.840 305.364,29.200 305.987,29.200 306.275 C 29.200 306.564,29.380 306.800,29.600 306.800 C 29.820 306.800,30.000 307.030,30.000 307.312 C 30.000 307.593,30.360 308.083,30.800 308.400 C 31.240 308.717,31.600 309.225,31.600 309.528 C 31.600 309.831,32.140 310.583,32.800 311.200 C 33.460 311.817,34.000 312.609,34.000 312.960 C 34.000 313.312,34.180 313.600,34.400 313.600 C 34.620 313.600,34.800 313.920,34.800 314.312 C 34.800 314.703,35.160 315.283,35.600 315.600 C 36.040 315.917,36.400 316.385,36.400 316.640 C 36.400 316.895,37.120 317.845,38.000 318.752 C 38.879 319.658,39.400 320.400,39.157 320.400 C 38.914 320.400,39.274 320.922,39.958 321.560 C 40.641 322.199,41.200 322.919,41.200 323.160 C 41.200 323.402,41.380 323.600,41.600 323.600 C 41.820 323.600,42.000 323.845,42.000 324.144 C 42.000 324.443,42.450 325.026,43.000 325.439 C 43.550 325.852,44.000 326.390,44.000 326.634 C 44.000 326.878,45.080 328.213,46.400 329.600 C 47.720 330.987,48.800 332.280,48.800 332.474 C 48.800 332.667,50.825 334.806,53.300 337.226 C 58.703 342.510,57.490 341.297,62.774 346.700 C 65.194 349.175,67.333 351.200,67.526 351.200 C 67.720 351.200,69.013 352.280,70.400 353.600 C 71.787 354.920,73.081 356.000,73.274 356.000 C 73.468 356.000,74.257 356.630,75.027 357.400 C 75.797 358.170,76.625 358.800,76.866 358.800 C 77.108 358.800,77.642 359.188,78.053 359.661 C 78.464 360.135,78.800 360.316,78.800 360.063 C 78.800 359.811,79.718 360.503,80.841 361.602 C 81.963 362.701,83.093 363.600,83.352 363.600 C 83.611 363.600,84.083 363.960,84.400 364.400 C 84.717 364.840,85.297 365.200,85.688 365.200 C 86.080 365.200,86.400 365.380,86.400 365.600 C 86.400 365.820,86.688 366.000,87.040 366.000 C 87.391 366.000,88.201 366.559,88.840 367.242 C 89.478 367.926,90.000 368.258,90.000 367.981 C 90.000 367.704,90.336 367.865,90.747 368.339 C 91.158 368.812,91.833 369.203,92.247 369.206 C 92.880 369.211,92.904 369.274,92.400 369.600 C 91.887 369.931,91.902 369.989,92.500 369.994 C 92.885 369.997,93.200 370.180,93.200 370.400 C 93.200 370.620,93.520 370.800,93.912 370.800 C 94.303 370.800,94.883 371.160,95.200 371.600 C 95.517 372.040,96.052 372.404,96.388 372.409 C 96.725 372.414,97.450 372.770,98.000 373.200 C 98.550 373.630,99.326 373.986,99.724 373.991 C 100.122 373.996,100.342 374.171,100.212 374.380 C 100.083 374.589,100.613 374.879,101.389 375.024 C 102.165 375.170,102.800 375.449,102.800 375.645 C 102.800 375.840,103.261 376.000,103.824 376.000 C 104.404 376.000,104.740 376.173,104.600 376.400 C 104.464 376.620,104.723 376.800,105.176 376.800 C 105.629 376.800,106.000 376.980,106.000 377.200 C 106.000 377.420,106.294 377.600,106.653 377.600 C 107.012 377.600,107.597 377.916,107.953 378.303 C 108.309 378.689,109.140 379.274,109.800 379.602 C 110.460 379.930,111.132 380.379,111.294 380.599 C 111.476 380.848,111.590 380.810,111.594 380.500 C 111.597 380.225,111.810 380.000,112.067 380.000 C 112.323 380.000,112.422 380.111,112.286 380.248 C 111.936 380.597,113.021 381.600,113.748 381.600 C 114.081 381.600,114.464 381.780,114.600 382.000 C 114.736 382.220,115.287 382.400,115.824 382.400 C 116.361 382.400,116.800 382.580,116.800 382.800 C 116.800 383.020,117.160 383.200,117.600 383.200 C 118.040 383.200,118.400 383.380,118.400 383.600 C 118.400 383.820,118.985 384.003,119.700 384.006 C 120.686 384.011,120.855 384.106,120.400 384.400 C 119.915 384.714,119.972 384.789,120.700 384.794 C 121.195 384.797,121.600 384.980,121.600 385.200 C 121.600 385.420,122.140 385.600,122.800 385.600 C 123.460 385.600,124.000 385.780,124.000 386.000 C 124.000 386.220,124.641 386.400,125.424 386.400 C 126.271 386.400,126.747 386.562,126.600 386.800 C 126.464 387.020,126.618 387.200,126.943 387.200 C 127.268 387.200,127.593 387.363,127.667 387.562 C 127.740 387.761,128.340 387.986,129.000 388.062 L 130.200 388.200 130.300 200.100 L 130.401 12.000 129.000 12.000 C 128.230 12.000,127.600 12.180,127.600 12.400 " stroke="none" fill="#0454b4" fill-rule="evenodd"></path><path id="path2" d="M178.300 0.275 C 176.375 0.361,174.800 0.604,174.800 0.816 C 174.800 1.027,173.461 1.200,171.824 1.200 C 170.187 1.200,168.736 1.380,168.600 1.600 C 168.464 1.820,167.463 2.000,166.376 2.000 C 165.289 2.000,164.400 2.180,164.400 2.400 C 164.400 2.620,163.410 2.800,162.200 2.800 C 160.990 2.800,160.000 2.980,160.000 3.200 C 160.000 3.420,159.201 3.600,158.224 3.600 C 157.247 3.600,156.336 3.780,156.200 4.000 C 156.064 4.220,155.243 4.400,154.376 4.400 C 153.509 4.400,152.800 4.580,152.800 4.800 C 152.800 5.020,152.080 5.200,151.200 5.200 C 150.320 5.200,149.600 5.380,149.600 5.600 C 149.600 5.820,149.071 6.000,148.424 6.000 C 147.777 6.000,147.136 6.180,147.000 6.400 C 146.864 6.620,146.234 6.800,145.600 6.800 C 144.966 6.800,144.336 6.980,144.200 7.200 C 144.064 7.420,143.333 7.600,142.576 7.600 C 141.819 7.600,141.200 7.780,141.200 8.000 C 141.200 8.220,140.771 8.400,140.246 8.400 C 139.340 8.400,135.925 9.311,134.200 10.013 C 133.760 10.191,132.535 10.650,131.478 11.032 C 130.421 11.413,129.746 11.843,129.979 11.987 C 130.276 12.171,130.372 68.406,130.301 200.467 L 130.200 388.684 132.000 389.209 C 132.990 389.498,134.070 389.868,134.400 390.030 C 135.538 390.591,139.294 391.600,140.246 391.600 C 140.771 391.600,141.200 391.780,141.200 392.000 C 141.200 392.220,141.830 392.400,142.600 392.400 C 143.370 392.400,144.000 392.580,144.000 392.800 C 144.000 393.020,144.529 393.200,145.176 393.200 C 145.823 393.200,146.464 393.380,146.600 393.600 C 146.736 393.820,147.567 394.000,148.447 394.000 C 149.412 394.000,149.949 394.159,149.800 394.400 C 149.651 394.641,150.188 394.800,151.153 394.800 C 152.033 394.800,152.864 394.980,153.000 395.200 C 153.136 395.420,153.856 395.600,154.600 395.600 C 155.344 395.600,156.064 395.780,156.200 396.000 C 156.336 396.220,157.247 396.400,158.224 396.400 C 159.201 396.400,160.000 396.580,160.000 396.800 C 160.000 397.020,160.990 397.200,162.200 397.200 C 163.410 397.200,164.400 397.380,164.400 397.600 C 164.400 397.820,165.379 398.000,166.576 398.000 C 167.773 398.000,168.864 398.180,169.000 398.400 C 169.136 398.620,170.482 398.800,171.990 398.800 C 173.829 398.800,174.788 398.965,174.900 399.300 C 175.144 400.032,224.856 400.032,225.100 399.300 C 225.212 398.965,226.171 398.800,228.010 398.800 C 229.518 398.800,230.864 398.620,231.000 398.400 C 231.136 398.180,232.216 398.000,233.400 398.000 C 234.584 398.000,235.664 397.820,235.800 397.600 C 235.936 397.380,236.836 397.200,237.800 397.200 C 238.764 397.200,239.664 397.020,239.800 396.800 C 239.936 396.580,240.746 396.400,241.600 396.400 C 242.454 396.400,243.264 396.220,243.400 396.000 C 243.536 395.780,244.447 395.600,245.424 395.600 C 246.401 395.600,247.200 395.420,247.200 395.200 C 247.200 394.980,247.920 394.800,248.800 394.800 C 249.680 394.800,250.400 394.620,250.400 394.400 C 250.400 394.180,251.019 394.000,251.776 394.000 C 252.533 394.000,253.264 393.820,253.400 393.600 C 253.536 393.380,254.177 393.200,254.824 393.200 C 255.471 393.200,256.000 393.020,256.000 392.800 C 256.000 392.580,256.630 392.400,257.400 392.400 C 258.170 392.400,258.800 392.241,258.800 392.046 C 258.800 391.851,259.787 391.569,260.994 391.418 C 262.200 391.267,263.291 390.977,263.417 390.772 C 263.544 390.567,264.076 390.400,264.600 390.400 C 265.124 390.400,265.664 390.220,265.800 390.000 C 265.936 389.780,266.376 389.600,266.778 389.600 C 267.180 389.600,267.979 389.356,268.555 389.057 L 269.601 388.514 269.602 200.001 L 269.603 11.487 268.556 10.943 C 267.980 10.645,267.257 10.400,266.949 10.400 C 266.641 10.400,266.077 10.237,265.695 10.037 C 264.553 9.440,260.778 8.400,259.754 8.400 C 259.229 8.400,258.800 8.220,258.800 8.000 C 258.800 7.780,258.170 7.600,257.400 7.600 C 256.630 7.600,256.000 7.420,256.000 7.200 C 256.000 6.980,255.471 6.800,254.824 6.800 C 254.177 6.800,253.536 6.620,253.400 6.400 C 253.264 6.180,252.533 6.000,251.776 6.000 C 251.019 6.000,250.400 5.820,250.400 5.600 C 250.400 5.380,249.680 5.200,248.800 5.200 C 247.920 5.200,247.200 5.020,247.200 4.800 C 247.200 4.580,246.491 4.400,245.624 4.400 C 244.757 4.400,243.936 4.220,243.800 4.000 C 243.664 3.780,242.753 3.600,241.776 3.600 C 240.799 3.600,240.000 3.420,240.000 3.200 C 240.000 2.980,239.100 2.800,238.000 2.800 C 236.900 2.800,236.000 2.620,236.000 2.400 C 236.000 2.178,234.941 2.000,233.624 2.000 C 232.317 2.000,231.136 1.820,231.000 1.600 C 230.864 1.380,229.518 1.200,228.010 1.200 C 226.193 1.200,225.211 1.034,225.103 0.708 C 224.941 0.222,187.291 -0.126,178.300 0.275 M98.976 26.222 C 98.222 26.827,98.224 26.833,99.047 26.436 C 99.513 26.212,100.008 26.142,100.147 26.281 C 100.286 26.420,100.400 26.323,100.400 26.067 C 100.400 25.427,99.901 25.482,98.976 26.222 M395.600 156.776 C 395.600 157.229,395.780 157.600,396.000 157.600 C 396.220 157.600,396.400 157.341,396.400 157.024 C 396.400 156.707,396.220 156.336,396.000 156.200 C 395.780 156.064,395.600 156.323,395.600 156.776 M2.000 164.600 C 2.000 164.930,2.180 165.200,2.400 165.200 C 2.620 165.200,2.800 164.930,2.800 164.600 C 2.800 164.270,2.620 164.000,2.400 164.000 C 2.180 164.000,2.000 164.270,2.000 164.600 M395.600 243.200 C 395.600 243.947,395.707 244.053,396.080 243.680 C 396.453 243.307,396.453 243.093,396.080 242.720 C 395.707 242.347,395.600 242.453,395.600 243.200 M78.806 359.871 C 78.818 360.484,79.555 361.378,79.826 361.107 C 79.974 360.959,79.804 360.547,79.448 360.190 C 79.091 359.834,78.803 359.691,78.806 359.871 " stroke="none" fill="#f4f4f4" fill-rule="evenodd"></path></g></svg>