<svg id="svg" version="1.1" xmlns="http://www.w3.org/2000/svg" xmlns:xlink="http://www.w3.org/1999/xlink" width="400" height="400" viewBox="0, 0, 400,400"><g id="svgg"><path id="path0" d="M178.500 0.274 C 176.465 0.360,174.800 0.603,174.800 0.815 C 174.800 1.027,173.540 1.200,172.000 1.200 C 170.400 1.200,169.200 1.371,169.200 1.600 C 169.200 1.822,168.133 2.000,166.800 2.000 C 165.467 2.000,164.400 2.178,164.400 2.400 C 164.400 2.620,163.410 2.800,162.200 2.800 C 160.990 2.800,160.000 2.980,160.000 3.200 C 160.000 3.420,159.280 3.600,158.400 3.600 C 157.520 3.600,156.800 3.780,156.800 4.000 C 156.800 4.220,155.900 4.400,154.800 4.400 C 153.700 4.400,152.800 4.580,152.800 4.800 C 152.800 5.020,152.080 5.200,151.200 5.200 C 150.320 5.200,149.600 5.380,149.600 5.600 C 149.600 5.820,148.970 6.000,148.200 6.000 C 147.430 6.000,146.800 6.180,146.800 6.400 C 146.800 6.620,146.271 6.800,145.624 6.800 C 144.977 6.800,144.336 6.980,144.200 7.200 C 144.064 7.420,143.333 7.600,142.576 7.600 C 141.819 7.600,141.200 7.780,141.200 8.000 C 141.200 8.220,140.753 8.400,140.206 8.400 C 139.188 8.400,131.156 10.901,129.905 11.608 C 129.523 11.823,128.938 12.000,128.605 12.000 C 128.272 12.000,128.000 12.180,128.000 12.400 C 128.000 12.620,127.561 12.800,127.024 12.800 C 126.487 12.800,125.936 12.980,125.800 13.200 C 125.664 13.420,125.203 13.600,124.776 13.600 C 124.349 13.600,124.000 13.780,124.000 14.000 C 124.000 14.220,123.561 14.400,123.024 14.400 C 122.487 14.400,121.936 14.580,121.800 14.800 C 121.664 15.020,121.203 15.200,120.776 15.200 C 120.349 15.200,120.000 15.380,120.000 15.600 C 120.000 15.820,119.640 16.000,119.200 16.000 C 118.760 16.000,118.400 16.180,118.400 16.400 C 118.400 16.620,117.950 16.800,117.400 16.800 C 116.850 16.800,116.400 16.980,116.400 17.200 C 116.400 17.420,116.189 17.600,115.930 17.600 C 115.310 17.600,108.638 20.904,108.467 21.295 C 108.393 21.463,107.988 21.600,107.567 21.600 C 107.145 21.600,106.800 21.780,106.800 22.000 C 106.800 22.220,106.440 22.400,106.000 22.400 C 105.560 22.400,105.200 22.580,105.200 22.800 C 105.200 23.020,104.964 23.200,104.675 23.200 C 104.387 23.200,103.764 23.560,103.292 24.000 C 102.820 24.440,102.225 24.800,101.971 24.800 C 101.389 24.800,97.447 26.895,97.267 27.300 C 97.193 27.465,96.912 27.600,96.642 27.600 C 96.372 27.600,95.802 27.915,95.375 28.300 C 94.949 28.685,94.060 29.269,93.400 29.597 C 92.740 29.926,91.909 30.511,91.553 30.897 C 91.197 31.284,90.652 31.600,90.341 31.600 C 90.031 31.600,89.517 31.960,89.200 32.400 C 88.883 32.840,88.343 33.200,88.000 33.200 C 87.657 33.200,87.117 33.560,86.800 34.000 C 86.483 34.440,85.943 34.800,85.600 34.800 C 85.257 34.800,84.717 35.160,84.400 35.600 C 84.083 36.040,83.620 36.400,83.371 36.400 C 83.122 36.400,82.354 36.940,81.663 37.600 C 80.972 38.260,80.252 38.800,80.063 38.800 C 79.874 38.800,79.154 39.340,78.463 40.000 C 77.772 40.660,77.108 41.200,76.987 41.200 C 76.736 41.200,76.350 41.505,74.458 43.199 C 73.719 43.859,72.959 44.400,72.768 44.400 C 72.577 44.400,71.651 45.167,70.711 46.105 C 69.770 47.043,68.370 48.255,67.600 48.799 C 66.830 49.342,64.439 51.590,62.287 53.793 C 57.582 58.611,58.611 57.582,53.793 62.287 C 51.590 64.439,49.346 66.830,48.806 67.600 C 48.267 68.370,47.145 69.661,46.313 70.469 C 45.481 71.276,44.800 72.096,44.800 72.290 C 44.800 72.485,44.170 73.331,43.400 74.172 C 42.630 75.013,42.000 75.820,42.000 75.966 C 42.000 76.112,41.280 77.028,40.400 78.000 C 39.520 78.972,38.800 79.918,38.800 80.102 C 38.800 80.286,38.350 80.886,37.800 81.436 C 37.250 81.986,36.800 82.600,36.800 82.800 C 36.800 83.000,36.350 83.614,35.800 84.164 C 35.250 84.714,34.800 85.402,34.800 85.694 C 34.800 85.985,34.440 86.483,34.000 86.800 C 33.560 87.117,33.200 87.657,33.200 88.000 C 33.200 88.343,32.840 88.883,32.400 89.200 C 31.960 89.517,31.600 90.031,31.600 90.341 C 31.600 90.652,31.284 91.197,30.897 91.553 C 30.511 91.909,29.926 92.740,29.597 93.400 C 29.269 94.060,28.685 94.949,28.300 95.375 C 27.915 95.802,27.600 96.372,27.600 96.642 C 27.600 96.912,27.465 97.193,27.300 97.267 C 26.826 97.477,24.800 101.438,24.800 102.154 C 24.800 102.509,24.665 102.803,24.500 102.806 C 24.335 102.810,23.760 103.710,23.221 104.806 C 22.683 105.903,22.098 106.800,21.921 106.800 C 21.745 106.800,21.600 107.160,21.600 107.600 C 21.600 108.040,21.420 108.400,21.200 108.400 C 20.980 108.400,20.800 108.745,20.800 109.167 C 20.800 109.588,20.664 109.993,20.498 110.067 C 20.332 110.140,19.593 111.460,18.856 113.000 C 18.119 114.540,17.355 116.113,17.158 116.495 C 16.961 116.877,16.800 117.462,16.800 117.795 C 16.800 118.128,16.620 118.400,16.400 118.400 C 16.180 118.400,16.000 118.665,16.000 118.988 C 16.000 119.311,15.640 120.217,15.200 121.000 C 14.760 121.783,14.400 122.779,14.400 123.212 C 14.400 123.645,14.220 124.000,14.000 124.000 C 13.780 124.000,13.600 124.349,13.600 124.776 C 13.600 125.203,13.420 125.664,13.200 125.800 C 12.980 125.936,12.800 126.472,12.800 126.990 C 12.800 127.509,12.637 127.993,12.438 128.067 C 12.239 128.140,12.014 128.650,11.938 129.200 L 11.800 130.200 200.000 130.200 C 387.972 130.200,388.200 130.199,388.084 129.400 C 387.972 128.625,387.481 127.335,386.753 125.905 C 386.559 125.523,386.400 124.938,386.400 124.605 C 386.400 124.272,386.253 124.000,386.072 124.000 C 385.892 124.000,385.500 123.100,385.200 122.000 C 384.900 120.900,384.508 120.000,384.328 120.000 C 384.147 120.000,384.000 119.640,384.000 119.200 C 384.000 118.760,383.820 118.400,383.600 118.400 C 383.380 118.400,383.200 118.128,383.200 117.795 C 383.200 117.462,383.039 116.877,382.842 116.495 C 382.645 116.113,381.881 114.540,381.144 113.000 C 380.407 111.460,379.668 110.140,379.502 110.067 C 379.336 109.993,379.200 109.588,379.200 109.167 C 379.200 108.745,379.020 108.400,378.800 108.400 C 378.580 108.400,378.400 108.055,378.400 107.633 C 378.400 107.212,378.265 106.807,378.100 106.733 C 377.724 106.566,376.425 104.436,376.129 103.500 C 376.007 103.115,375.748 102.800,375.553 102.800 C 375.359 102.800,375.200 102.509,375.200 102.154 C 375.200 101.438,373.174 97.477,372.700 97.267 C 372.535 97.193,372.400 96.958,372.400 96.745 C 372.400 96.260,369.175 91.448,368.728 91.267 C 368.547 91.193,368.400 90.828,368.400 90.455 C 368.400 90.082,368.040 89.517,367.600 89.200 C 367.160 88.883,366.800 88.369,366.800 88.059 C 366.800 87.748,366.484 87.203,366.097 86.847 C 365.711 86.491,365.140 85.705,364.830 85.100 C 364.519 84.495,364.115 84.000,363.932 84.000 C 363.750 84.000,363.600 83.757,363.600 83.459 C 363.600 83.162,363.060 82.354,362.400 81.663 C 361.740 80.972,361.200 80.252,361.200 80.063 C 361.200 79.874,360.660 79.154,360.000 78.463 C 359.340 77.772,358.800 77.071,358.800 76.903 C 358.800 76.736,358.080 75.812,357.200 74.849 C 356.320 73.887,355.600 72.974,355.600 72.821 C 355.600 72.668,354.835 71.739,353.900 70.757 C 352.965 69.774,351.674 68.273,351.031 67.421 C 350.388 66.569,348.164 64.209,346.089 62.177 C 341.527 57.708,342.292 58.473,337.823 53.911 C 335.791 51.836,333.430 49.612,332.577 48.969 C 331.724 48.326,330.147 46.945,329.073 45.900 C 327.998 44.855,326.949 44.000,326.741 44.000 C 326.534 44.000,325.930 43.595,325.401 43.100 C 323.984 41.775,323.261 41.200,323.013 41.200 C 322.892 41.200,322.228 40.660,321.537 40.000 C 320.846 39.340,320.126 38.800,319.937 38.800 C 319.748 38.800,319.028 38.260,318.337 37.600 C 317.646 36.940,316.878 36.400,316.629 36.400 C 316.380 36.400,315.917 36.040,315.600 35.600 C 315.283 35.160,314.743 34.800,314.400 34.800 C 314.057 34.800,313.517 34.440,313.200 34.000 C 312.883 33.560,312.343 33.200,312.000 33.200 C 311.657 33.200,311.117 32.840,310.800 32.400 C 310.483 31.960,309.943 31.600,309.600 31.600 C 309.257 31.600,308.717 31.240,308.400 30.800 C 308.083 30.360,307.664 30.000,307.470 30.000 C 307.275 30.000,306.316 29.460,305.338 28.800 C 304.360 28.140,303.404 27.600,303.213 27.600 C 303.023 27.600,302.807 27.465,302.733 27.300 C 302.523 26.826,298.562 24.800,297.846 24.800 C 297.491 24.800,297.200 24.648,297.200 24.463 C 297.200 24.277,296.345 23.692,295.300 23.163 C 294.255 22.633,293.340 22.065,293.267 21.900 C 293.193 21.735,292.803 21.600,292.400 21.600 C 291.997 21.600,291.607 21.463,291.533 21.296 C 291.460 21.129,289.780 20.211,287.800 19.255 C 285.820 18.300,283.887 17.357,283.505 17.159 C 283.123 16.962,282.538 16.800,282.205 16.800 C 281.872 16.800,281.600 16.620,281.600 16.400 C 281.600 16.180,281.240 16.000,280.800 16.000 C 280.360 16.000,280.000 15.820,280.000 15.600 C 280.000 15.380,279.651 15.200,279.224 15.200 C 278.797 15.200,278.336 15.020,278.200 14.800 C 278.064 14.580,277.513 14.400,276.976 14.400 C 276.439 14.400,276.000 14.220,276.000 14.000 C 276.000 13.780,275.640 13.600,275.200 13.600 C 274.760 13.600,274.400 13.420,274.400 13.200 C 274.400 12.980,273.980 12.800,273.467 12.800 C 272.953 12.800,272.414 12.681,272.268 12.535 C 271.645 11.912,261.044 8.400,259.788 8.400 C 259.270 8.400,258.736 8.220,258.600 8.000 C 258.464 7.780,257.823 7.600,257.176 7.600 C 256.529 7.600,256.000 7.420,256.000 7.200 C 256.000 6.980,255.471 6.800,254.824 6.800 C 254.177 6.800,253.536 6.620,253.400 6.400 C 253.264 6.180,252.544 6.000,251.800 6.000 C 251.056 6.000,250.336 5.820,250.200 5.600 C 250.064 5.380,249.333 5.200,248.576 5.200 C 247.819 5.200,247.200 5.020,247.200 4.800 C 247.200 4.580,246.401 4.400,245.424 4.400 C 244.447 4.400,243.536 4.220,243.400 4.000 C 243.264 3.780,242.443 3.600,241.576 3.600 C 240.709 3.600,240.000 3.420,240.000 3.200 C 240.000 2.980,239.010 2.800,237.800 2.800 C 236.590 2.800,235.600 2.620,235.600 2.400 C 235.600 2.180,234.621 2.000,233.424 2.000 C 232.227 2.000,231.136 1.820,231.000 1.600 C 230.864 1.380,229.518 1.200,228.010 1.200 C 226.213 1.200,225.211 1.032,225.105 0.714 C 224.944 0.233,187.802 -0.118,178.500 0.274 " stroke="none" fill="#db0424" fill-rule="evenodd"></path><path id="path1" d="M11.895 269.839 C 11.590 270.143,12.177 271.992,13.247 274.095 C 13.441 274.477,13.600 275.062,13.600 275.395 C 13.600 275.728,13.780 276.000,14.000 276.000 C 14.220 276.000,14.400 276.439,14.400 276.976 C 14.400 277.513,14.580 278.064,14.800 278.200 C 15.020 278.336,15.200 278.797,15.200 279.224 C 15.200 279.651,15.380 280.000,15.600 280.000 C 15.820 280.000,16.000 280.360,16.000 280.800 C 16.000 281.240,16.180 281.600,16.400 281.600 C 16.620 281.600,16.800 281.872,16.800 282.205 C 16.800 282.538,16.961 283.123,17.158 283.505 C 17.355 283.887,18.119 285.460,18.856 287.000 C 19.593 288.540,20.332 289.860,20.498 289.933 C 20.664 290.007,20.800 290.412,20.800 290.833 C 20.800 291.255,20.980 291.600,21.200 291.600 C 21.420 291.600,21.600 291.945,21.600 292.367 C 21.600 292.788,21.735 293.193,21.900 293.267 C 22.276 293.434,23.575 295.564,23.871 296.500 C 23.993 296.885,24.252 297.200,24.447 297.200 C 24.641 297.200,24.800 297.491,24.800 297.846 C 24.800 298.562,26.826 302.523,27.300 302.733 C 27.465 302.807,27.600 303.044,27.600 303.261 C 27.600 303.478,28.140 304.441,28.800 305.400 C 29.460 306.359,30.000 307.297,30.000 307.484 C 30.000 307.671,30.360 308.083,30.800 308.400 C 31.240 308.717,31.600 309.257,31.600 309.600 C 31.600 309.943,31.960 310.483,32.400 310.800 C 32.840 311.117,33.200 311.657,33.200 312.000 C 33.200 312.343,33.560 312.883,34.000 313.200 C 34.440 313.517,34.800 314.057,34.800 314.400 C 34.800 314.743,35.160 315.283,35.600 315.600 C 36.040 315.917,36.400 316.380,36.400 316.629 C 36.400 316.878,36.940 317.646,37.600 318.337 C 38.260 319.028,38.800 319.748,38.800 319.937 C 38.800 320.126,39.340 320.846,40.000 321.537 C 40.660 322.228,41.200 322.892,41.200 323.013 C 41.200 323.264,41.505 323.650,43.199 325.542 C 43.859 326.281,44.400 327.041,44.400 327.232 C 44.400 327.423,45.167 328.349,46.105 329.289 C 47.043 330.230,48.255 331.630,48.799 332.400 C 49.342 333.170,51.590 335.561,53.793 337.713 C 58.611 342.418,57.582 341.389,62.287 346.207 C 64.439 348.410,66.830 350.658,67.600 351.201 C 68.370 351.745,69.770 352.957,70.711 353.895 C 71.651 354.833,72.574 355.600,72.760 355.600 C 72.946 355.600,73.887 356.320,74.849 357.200 C 75.812 358.080,76.736 358.800,76.903 358.800 C 77.071 358.800,77.772 359.340,78.463 360.000 C 79.154 360.660,79.874 361.200,80.063 361.200 C 80.252 361.200,80.972 361.740,81.663 362.400 C 82.354 363.060,83.122 363.600,83.371 363.600 C 83.620 363.600,84.083 363.960,84.400 364.400 C 84.717 364.840,85.257 365.200,85.600 365.200 C 85.943 365.200,86.483 365.560,86.800 366.000 C 87.117 366.440,87.657 366.800,88.000 366.800 C 88.343 366.800,88.883 367.160,89.200 367.600 C 89.517 368.040,90.057 368.400,90.400 368.400 C 90.743 368.400,91.283 368.760,91.600 369.200 C 91.917 369.640,92.329 370.000,92.516 370.000 C 92.703 370.000,93.641 370.540,94.600 371.200 C 95.559 371.860,96.522 372.400,96.739 372.400 C 96.956 372.400,97.193 372.535,97.267 372.700 C 97.472 373.162,101.430 375.200,102.121 375.200 C 102.458 375.200,102.793 375.335,102.867 375.500 C 103.034 375.876,105.164 377.175,106.100 377.471 C 106.485 377.593,106.800 377.852,106.800 378.047 C 106.800 378.241,107.160 378.400,107.600 378.400 C 108.040 378.400,108.400 378.580,108.400 378.800 C 108.400 379.020,108.745 379.200,109.167 379.200 C 109.588 379.200,109.993 379.335,110.067 379.500 C 110.140 379.665,111.100 380.226,112.200 380.747 C 113.300 381.268,114.892 382.033,115.738 382.447 C 116.584 382.861,117.529 383.200,117.838 383.200 C 118.147 383.200,118.400 383.380,118.400 383.600 C 118.400 383.820,118.760 384.000,119.200 384.000 C 119.640 384.000,120.000 384.180,120.000 384.400 C 120.000 384.620,120.349 384.800,120.776 384.800 C 121.203 384.800,121.664 384.980,121.800 385.200 C 121.936 385.420,122.487 385.600,123.024 385.600 C 123.561 385.600,124.000 385.780,124.000 386.000 C 124.000 386.220,124.272 386.400,124.605 386.400 C 124.938 386.400,125.523 386.559,125.905 386.753 C 126.531 387.072,127.245 387.380,129.800 388.438 C 132.132 389.404,139.344 391.600,140.182 391.600 C 140.716 391.600,141.264 391.780,141.400 392.000 C 141.536 392.220,142.177 392.400,142.824 392.400 C 143.471 392.400,144.000 392.580,144.000 392.800 C 144.000 393.020,144.630 393.200,145.400 393.200 C 146.170 393.200,146.800 393.380,146.800 393.600 C 146.800 393.820,147.430 394.000,148.200 394.000 C 148.970 394.000,149.600 394.180,149.600 394.400 C 149.600 394.620,150.320 394.800,151.200 394.800 C 152.080 394.800,152.800 394.980,152.800 395.200 C 152.800 395.420,153.700 395.600,154.800 395.600 C 155.900 395.600,156.800 395.780,156.800 396.000 C 156.800 396.220,157.520 396.400,158.400 396.400 C 159.280 396.400,160.000 396.580,160.000 396.800 C 160.000 397.020,160.990 397.200,162.200 397.200 C 163.410 397.200,164.400 397.380,164.400 397.600 C 164.400 397.822,165.467 398.000,166.800 398.000 C 168.133 398.000,169.200 398.178,169.200 398.400 C 169.200 398.628,170.389 398.800,171.967 398.800 C 173.824 398.800,174.788 398.964,174.900 399.300 C 175.031 399.693,180.409 399.800,200.000 399.800 C 219.591 399.800,224.969 399.693,225.100 399.300 C 225.212 398.965,226.171 398.800,228.010 398.800 C 229.518 398.800,230.864 398.620,231.000 398.400 C 231.136 398.180,232.227 398.000,233.424 398.000 C 234.621 398.000,235.600 397.820,235.600 397.600 C 235.600 397.380,236.590 397.200,237.800 397.200 C 239.010 397.200,240.000 397.020,240.000 396.800 C 240.000 396.580,240.709 396.400,241.576 396.400 C 242.443 396.400,243.264 396.220,243.400 396.000 C 243.536 395.780,244.447 395.600,245.424 395.600 C 246.401 395.600,247.200 395.420,247.200 395.200 C 247.200 394.980,247.920 394.800,248.800 394.800 C 249.680 394.800,250.400 394.620,250.400 394.400 C 250.400 394.180,251.019 394.000,251.776 394.000 C 252.533 394.000,253.264 393.820,253.400 393.600 C 253.536 393.380,254.177 393.200,254.824 393.200 C 255.471 393.200,256.000 393.020,256.000 392.800 C 256.000 392.580,256.630 392.400,257.400 392.400 C 258.170 392.400,258.800 392.220,258.800 392.000 C 258.800 391.780,259.238 391.600,259.772 391.600 C 260.643 391.600,265.976 390.071,268.300 389.155 C 271.787 387.780,273.346 387.134,274.095 386.753 C 274.477 386.559,275.062 386.400,275.395 386.400 C 275.728 386.400,276.000 386.253,276.000 386.072 C 276.000 385.892,276.900 385.500,278.000 385.200 C 279.100 384.900,280.000 384.508,280.000 384.328 C 280.000 384.147,280.360 384.000,280.800 384.000 C 281.240 384.000,281.600 383.820,281.600 383.600 C 281.600 383.380,281.872 383.200,282.205 383.200 C 282.538 383.200,283.123 383.038,283.505 382.841 C 283.887 382.643,285.820 381.700,287.800 380.745 C 289.780 379.789,291.460 378.871,291.533 378.704 C 291.607 378.537,292.012 378.400,292.433 378.400 C 292.855 378.400,293.200 378.220,293.200 378.000 C 293.200 377.780,293.560 377.600,294.000 377.600 C 294.440 377.600,294.800 377.420,294.800 377.200 C 294.800 376.980,295.036 376.800,295.325 376.800 C 295.613 376.800,296.236 376.440,296.708 376.000 C 297.180 375.560,297.775 375.200,298.029 375.200 C 298.611 375.200,302.553 373.105,302.733 372.700 C 302.807 372.535,303.044 372.400,303.261 372.400 C 303.478 372.400,304.441 371.860,305.400 371.200 C 306.359 370.540,307.297 370.000,307.484 370.000 C 307.671 370.000,308.083 369.640,308.400 369.200 C 308.717 368.760,309.257 368.400,309.600 368.400 C 309.943 368.400,310.483 368.040,310.800 367.600 C 311.117 367.160,311.657 366.800,312.000 366.800 C 312.343 366.800,312.883 366.440,313.200 366.000 C 313.517 365.560,314.057 365.200,314.400 365.200 C 314.743 365.200,315.283 364.840,315.600 364.400 C 315.917 363.960,316.380 363.600,316.629 363.600 C 316.878 363.600,317.646 363.060,318.337 362.400 C 319.028 361.740,319.748 361.200,319.937 361.200 C 320.126 361.200,320.846 360.660,321.537 360.000 C 322.228 359.340,322.929 358.800,323.097 358.800 C 323.264 358.800,324.188 358.080,325.151 357.200 C 326.113 356.320,327.054 355.600,327.240 355.600 C 327.426 355.600,328.349 354.833,329.289 353.895 C 330.230 352.957,331.630 351.745,332.400 351.201 C 333.170 350.658,335.561 348.410,337.713 346.207 C 342.418 341.389,341.389 342.418,346.207 337.713 C 348.410 335.561,350.658 333.170,351.201 332.400 C 351.745 331.630,352.957 330.230,353.895 329.289 C 354.833 328.349,355.600 327.426,355.600 327.240 C 355.600 327.054,356.320 326.113,357.200 325.151 C 358.080 324.188,358.800 323.264,358.800 323.097 C 358.800 322.929,359.340 322.228,360.000 321.537 C 360.660 320.846,361.200 320.126,361.200 319.937 C 361.200 319.748,361.740 319.028,362.400 318.337 C 363.060 317.646,363.600 316.878,363.600 316.629 C 363.600 316.380,363.960 315.917,364.400 315.600 C 364.840 315.283,365.200 314.743,365.200 314.400 C 365.200 314.057,365.560 313.517,366.000 313.200 C 366.440 312.883,366.800 312.343,366.800 312.000 C 366.800 311.657,367.160 311.117,367.600 310.800 C 368.040 310.483,368.400 309.943,368.400 309.600 C 368.400 309.257,368.760 308.717,369.200 308.400 C 369.640 308.083,370.000 307.671,370.000 307.484 C 370.000 307.297,370.540 306.359,371.200 305.400 C 371.860 304.441,372.400 303.478,372.400 303.261 C 372.400 303.044,372.535 302.807,372.700 302.733 C 373.174 302.523,375.200 298.562,375.200 297.846 C 375.200 297.491,375.380 297.200,375.600 297.200 C 375.820 297.200,376.000 296.964,376.000 296.675 C 376.000 296.387,376.360 295.764,376.800 295.292 C 377.240 294.820,377.600 294.156,377.600 293.817 C 377.600 293.478,377.780 293.200,378.000 293.200 C 378.220 293.200,378.400 292.840,378.400 292.400 C 378.400 291.960,378.580 291.600,378.800 291.600 C 379.020 291.600,379.200 291.255,379.200 290.833 C 379.200 290.412,379.336 290.007,379.502 289.933 C 379.668 289.860,380.407 288.540,381.144 287.000 C 381.881 285.460,382.645 283.887,382.842 283.505 C 383.039 283.123,383.200 282.538,383.200 282.205 C 383.200 281.872,383.380 281.600,383.600 281.600 C 383.820 281.600,384.000 281.240,384.000 280.800 C 384.000 280.360,384.180 280.000,384.400 280.000 C 384.620 280.000,384.800 279.651,384.800 279.224 C 384.800 278.797,384.980 278.336,385.200 278.200 C 385.420 278.064,385.600 277.513,385.600 276.976 C 385.600 276.439,385.780 276.000,386.000 276.000 C 386.220 276.000,386.400 275.728,386.400 275.395 C 386.400 275.062,386.559 274.477,386.753 274.095 C 387.481 272.665,387.972 271.375,388.084 270.600 C 388.199 269.810,12.683 269.050,11.895 269.839 " stroke="none" fill="#6ca444" fill-rule="evenodd"></path><path id="path2" d="M10.824 132.000 C 10.554 132.990,10.179 134.160,9.992 134.600 C 9.412 135.958,9.039 137.378,9.132 137.870 C 9.181 138.128,9.036 138.454,8.811 138.593 C 8.585 138.733,8.400 139.366,8.400 140.000 C 8.400 140.634,8.220 141.264,8.000 141.400 C 7.780 141.536,7.600 142.177,7.600 142.824 C 7.600 143.471,7.420 144.000,7.200 144.000 C 6.980 144.000,6.800 144.529,6.800 145.176 C 6.800 145.823,6.620 146.464,6.400 146.600 C 6.180 146.736,6.000 147.467,6.000 148.224 C 6.000 148.981,5.820 149.600,5.600 149.600 C 5.380 149.600,5.200 150.320,5.200 151.200 C 5.200 152.080,5.020 152.800,4.800 152.800 C 4.580 152.800,4.400 153.574,4.400 154.520 C 4.400 155.466,4.238 156.411,4.041 156.620 C 3.844 156.829,3.583 157.720,3.461 158.600 C 3.340 159.480,3.039 161.190,2.792 162.400 C 2.545 163.610,2.250 165.590,2.136 166.800 C 2.023 168.010,1.765 169.171,1.565 169.380 C 1.364 169.589,1.200 170.879,1.200 172.247 C 1.200 173.880,1.029 174.790,0.700 174.900 C -0.032 175.144,-0.032 224.856,0.700 225.100 C 1.030 225.210,1.200 226.131,1.200 227.810 C 1.200 229.208,1.380 230.464,1.600 230.600 C 1.820 230.736,2.000 231.906,2.000 233.200 C 2.000 234.494,2.180 235.664,2.400 235.800 C 2.620 235.936,2.800 236.847,2.800 237.824 C 2.800 238.801,2.980 239.600,3.200 239.600 C 3.420 239.600,3.600 240.399,3.600 241.376 C 3.600 242.353,3.780 243.264,4.000 243.400 C 4.220 243.536,4.400 244.447,4.400 245.424 C 4.400 246.401,4.580 247.200,4.800 247.200 C 5.020 247.200,5.200 247.920,5.200 248.800 C 5.200 249.680,5.380 250.400,5.600 250.400 C 5.820 250.400,6.000 251.019,6.000 251.776 C 6.000 252.533,6.180 253.264,6.400 253.400 C 6.620 253.536,6.800 254.177,6.800 254.824 C 6.800 255.471,6.980 256.000,7.200 256.000 C 7.420 256.000,7.600 256.529,7.600 257.176 C 7.600 257.823,7.780 258.464,8.000 258.600 C 8.220 258.736,8.400 259.366,8.400 260.000 C 8.400 260.634,8.585 261.267,8.811 261.407 C 9.036 261.546,9.179 261.872,9.127 262.130 C 9.075 262.389,9.553 264.220,10.188 266.200 L 11.343 269.800 200.014 269.800 L 388.684 269.800 389.176 268.000 C 389.446 267.010,389.823 265.840,390.013 265.400 C 390.765 263.663,391.600 260.722,391.600 259.810 C 391.600 259.280,391.780 258.736,392.000 258.600 C 392.220 258.464,392.400 257.823,392.400 257.176 C 392.400 256.529,392.580 256.000,392.800 256.000 C 393.020 256.000,393.200 255.471,393.200 254.824 C 393.200 254.177,393.380 253.536,393.600 253.400 C 393.820 253.264,394.000 252.533,394.000 251.776 C 394.000 251.019,394.180 250.400,394.400 250.400 C 394.620 250.400,394.800 249.680,394.800 248.800 C 394.800 247.920,394.980 247.200,395.200 247.200 C 395.420 247.200,395.600 246.300,395.600 245.200 C 395.600 244.100,395.780 243.200,396.000 243.200 C 396.220 243.200,396.400 242.491,396.400 241.624 C 396.400 240.757,396.580 239.936,396.800 239.800 C 397.020 239.664,397.200 238.764,397.200 237.800 C 397.200 236.836,397.380 235.936,397.600 235.800 C 397.820 235.664,398.000 234.483,398.000 233.176 C 398.000 231.859,398.178 230.800,398.400 230.800 C 398.628 230.800,398.800 229.611,398.800 228.033 C 398.800 226.176,398.964 225.212,399.300 225.100 C 400.032 224.856,400.032 175.144,399.300 174.900 C 398.964 174.788,398.800 173.824,398.800 171.967 C 398.800 170.389,398.628 169.200,398.400 169.200 C 398.178 169.200,398.000 168.141,398.000 166.824 C 398.000 165.517,397.820 164.336,397.600 164.200 C 397.380 164.064,397.200 163.164,397.200 162.200 C 397.200 161.236,397.020 160.336,396.800 160.200 C 396.580 160.064,396.400 159.254,396.400 158.400 C 396.400 157.546,396.220 156.736,396.000 156.600 C 395.780 156.464,395.600 155.553,395.600 154.576 C 395.600 153.599,395.420 152.800,395.200 152.800 C 394.980 152.800,394.800 152.080,394.800 151.200 C 394.800 150.320,394.620 149.600,394.400 149.600 C 394.180 149.600,394.000 148.981,394.000 148.224 C 394.000 147.467,393.820 146.736,393.600 146.600 C 393.380 146.464,393.200 145.823,393.200 145.176 C 393.200 144.529,393.020 144.000,392.800 144.000 C 392.580 144.000,392.400 143.471,392.400 142.824 C 392.400 142.177,392.220 141.536,392.000 141.400 C 391.780 141.264,391.600 140.720,391.600 140.190 C 391.600 139.214,390.645 135.897,390.048 134.800 C 389.869 134.470,389.492 133.300,389.211 132.200 L 388.700 130.200 200.008 130.200 L 11.316 130.200 10.824 132.000 " stroke="none" fill="#f4f4f4" fill-rule="evenodd"></path></g></svg>