<svg id="svg" version="1.1" xmlns="http://www.w3.org/2000/svg" xmlns:xlink="http://www.w3.org/1999/xlink" width="400" height="400" viewBox="0, 0, 400,400"><g id="svgg"><path id="path0" d="M269.702 199.622 C 269.800 387.948,269.801 388.200,270.600 388.073 C 271.771 387.888,273.600 387.052,273.600 386.702 C 273.600 386.536,274.140 386.400,274.800 386.400 C 275.460 386.400,276.000 386.220,276.000 386.000 C 276.000 385.780,276.585 385.597,277.300 385.594 C 278.286 385.589,278.455 385.494,278.000 385.200 C 277.515 384.886,277.572 384.811,278.300 384.806 C 278.795 384.803,279.203 384.575,279.206 384.300 C 279.210 383.967,279.342 384.000,279.600 384.400 C 279.858 384.800,279.990 384.833,279.994 384.500 C 279.997 384.225,280.405 383.997,280.900 383.994 C 281.628 383.989,281.685 383.914,281.200 383.600 C 280.743 383.305,280.905 383.211,281.876 383.206 C 282.578 383.203,283.264 383.020,283.400 382.800 C 283.536 382.580,284.007 382.400,284.447 382.400 C 284.887 382.400,285.136 382.220,285.000 382.000 C 284.864 381.780,285.123 381.600,285.576 381.600 C 286.029 381.600,286.400 381.420,286.400 381.200 C 286.400 380.980,286.760 380.800,287.200 380.800 C 287.640 380.800,288.000 380.609,288.000 380.376 C 288.000 380.143,288.142 380.041,288.316 380.148 C 288.754 380.419,291.261 379.188,292.047 378.317 C 292.403 377.923,292.988 377.600,293.347 377.600 C 293.706 377.600,294.000 377.420,294.000 377.200 C 294.000 376.980,294.416 376.800,294.925 376.800 C 295.433 376.800,296.204 376.469,296.638 376.065 C 297.072 375.661,297.950 375.199,298.589 375.039 C 299.228 374.878,300.240 374.399,300.837 373.973 C 301.435 373.548,302.121 373.200,302.362 373.200 C 302.603 373.200,302.800 373.020,302.800 372.800 C 302.800 372.580,303.160 372.400,303.600 372.400 C 304.040 372.400,304.401 372.265,304.402 372.100 C 304.403 371.935,305.392 371.170,306.600 370.400 C 307.808 369.630,308.797 368.865,308.798 368.700 C 308.799 368.535,309.120 368.400,309.512 368.400 C 309.903 368.400,310.483 368.040,310.800 367.600 C 311.117 367.160,311.742 366.797,312.188 366.794 C 312.859 366.789,312.896 366.720,312.400 366.400 C 311.915 366.086,311.972 366.011,312.700 366.006 C 313.195 366.003,313.600 365.820,313.600 365.600 C 313.600 365.380,313.920 365.200,314.312 365.200 C 314.703 365.200,315.283 364.840,315.600 364.400 C 315.917 363.960,316.385 363.600,316.640 363.600 C 316.895 363.600,317.845 362.880,318.752 362.000 C 319.658 361.121,320.400 360.600,320.400 360.843 C 320.400 361.086,320.922 360.726,321.560 360.042 C 322.199 359.359,322.922 358.800,323.168 358.800 C 323.413 358.800,324.226 358.170,324.974 357.400 C 325.721 356.630,326.484 356.000,326.667 356.000 C 326.851 356.000,328.056 355.010,329.346 353.800 C 330.636 352.590,331.849 351.600,332.041 351.600 C 332.329 351.600,334.521 349.449,341.859 341.970 C 342.047 341.779,343.674 340.196,345.475 338.453 C 347.276 336.710,348.641 335.175,348.508 335.042 C 348.375 334.909,348.494 334.800,348.773 334.800 C 349.309 334.800,351.600 332.533,351.600 332.003 C 351.600 331.832,352.590 330.636,353.800 329.346 C 355.010 328.056,356.000 326.863,356.000 326.693 C 356.000 326.524,356.630 325.774,357.400 325.026 C 358.170 324.279,358.800 323.454,358.800 323.194 C 358.800 322.934,359.359 322.199,360.042 321.560 C 360.726 320.922,361.086 320.400,360.843 320.400 C 360.600 320.400,361.121 319.658,362.000 318.752 C 362.880 317.845,363.600 316.895,363.600 316.640 C 363.600 316.385,363.960 315.917,364.400 315.600 C 364.840 315.283,365.200 314.703,365.200 314.312 C 365.200 313.920,365.380 313.600,365.600 313.600 C 365.820 313.600,366.003 313.195,366.006 312.700 C 366.011 311.972,366.086 311.915,366.400 312.400 C 366.720 312.896,366.789 312.859,366.794 312.188 C 366.797 311.742,367.160 311.117,367.600 310.800 C 368.040 310.483,368.400 309.918,368.400 309.545 C 368.400 309.172,368.547 308.807,368.728 308.733 C 369.193 308.544,372.400 303.731,372.400 303.222 C 372.400 302.990,372.580 302.800,372.800 302.800 C 373.020 302.800,373.200 302.603,373.200 302.362 C 373.200 302.121,373.561 301.416,374.003 300.795 C 374.445 300.175,374.918 299.112,375.053 298.434 C 375.189 297.755,375.457 297.200,375.650 297.200 C 375.843 297.200,376.003 296.795,376.006 296.300 C 376.011 295.572,376.086 295.515,376.400 296.000 C 376.694 296.455,376.789 296.286,376.794 295.300 C 376.797 294.585,376.980 294.000,377.200 294.000 C 377.420 294.000,377.600 293.706,377.600 293.347 C 377.600 292.988,377.929 292.403,378.330 292.047 C 378.732 291.691,379.316 290.815,379.628 290.100 C 379.940 289.385,380.331 288.800,380.498 288.800 C 380.664 288.800,380.800 288.440,380.800 288.000 C 380.800 287.560,380.980 287.200,381.200 287.200 C 381.420 287.200,381.600 286.649,381.600 285.976 C 381.600 285.263,381.767 284.856,382.000 285.000 C 382.220 285.136,382.400 284.877,382.400 284.424 C 382.400 283.971,382.580 283.600,382.800 283.600 C 383.020 283.600,383.200 283.150,383.200 282.600 C 383.200 282.050,383.380 281.600,383.600 281.600 C 383.820 281.600,384.000 281.240,384.000 280.800 C 384.000 280.360,384.225 279.997,384.500 279.994 C 384.833 279.990,384.800 279.858,384.400 279.600 C 384.000 279.342,383.967 279.210,384.300 279.206 C 384.575 279.203,384.803 278.795,384.806 278.300 C 384.811 277.572,384.886 277.515,385.200 278.000 C 385.494 278.455,385.589 278.286,385.594 277.300 C 385.597 276.585,385.780 276.000,386.000 276.000 C 386.220 276.000,386.400 275.550,386.400 275.000 C 386.400 274.450,386.580 274.000,386.800 274.000 C 387.020 274.000,387.200 273.640,387.200 273.200 C 387.200 272.760,387.380 272.400,387.600 272.400 C 387.820 272.400,388.000 271.980,388.000 271.467 C 388.000 270.953,388.123 270.410,388.274 270.259 C 388.723 269.810,389.587 267.071,389.594 266.076 C 389.597 265.564,389.778 265.263,390.000 265.400 C 390.223 265.538,390.400 265.231,390.400 264.704 C 390.400 264.185,390.579 263.581,390.798 263.362 C 391.016 263.144,391.312 261.848,391.454 260.482 C 391.597 259.117,391.868 258.000,392.057 258.000 C 392.246 258.000,392.400 257.550,392.400 257.000 C 392.400 256.450,392.580 256.000,392.800 256.000 C 393.020 256.000,393.200 255.190,393.200 254.200 C 393.200 253.210,393.380 252.400,393.600 252.400 C 393.820 252.400,394.000 251.770,394.000 251.000 C 394.000 250.230,394.180 249.600,394.400 249.600 C 394.620 249.600,394.800 249.060,394.800 248.400 C 394.800 247.740,394.980 247.200,395.200 247.200 C 395.423 247.200,395.600 246.125,395.600 244.776 C 395.600 243.263,395.750 242.446,396.000 242.600 C 396.238 242.747,396.400 242.271,396.400 241.424 C 396.400 240.641,396.580 240.000,396.800 240.000 C 397.026 240.000,397.200 238.867,397.200 237.400 C 397.200 235.933,397.374 234.800,397.600 234.800 C 397.820 234.800,398.000 233.799,398.000 232.576 C 398.000 231.196,398.152 230.447,398.400 230.600 C 398.652 230.756,398.800 229.831,398.800 228.104 C 398.800 226.442,398.997 225.163,399.300 224.860 C 399.689 224.471,399.800 218.897,399.800 199.713 C 399.800 180.351,399.693 175.031,399.300 174.900 C 398.964 174.788,398.800 173.820,398.800 171.943 C 398.800 170.185,398.652 169.244,398.400 169.400 C 398.152 169.553,398.000 168.804,398.000 167.424 C 398.000 166.201,397.820 165.200,397.600 165.200 C 397.374 165.200,397.200 164.067,397.200 162.600 C 397.200 161.133,397.026 160.000,396.800 160.000 C 396.580 160.000,396.400 159.460,396.400 158.800 C 396.400 158.140,396.220 157.600,396.000 157.600 C 395.778 157.600,395.600 156.533,395.600 155.200 C 395.600 153.867,395.422 152.800,395.200 152.800 C 394.980 152.800,394.800 152.361,394.800 151.824 C 394.800 151.287,394.620 150.736,394.400 150.600 C 394.180 150.464,394.000 149.769,394.000 149.056 C 394.000 148.343,393.775 147.518,393.500 147.221 C 393.100 146.790,393.100 146.739,393.500 146.965 C 393.775 147.120,394.000 147.057,394.000 146.824 C 394.000 146.591,393.820 146.400,393.600 146.400 C 393.380 146.400,393.200 145.860,393.200 145.200 C 393.200 144.540,393.020 144.000,392.800 144.000 C 392.580 144.000,392.400 143.550,392.400 143.000 C 392.400 142.450,392.245 142.000,392.056 142.000 C 391.867 142.000,391.607 140.982,391.478 139.737 C 391.350 138.493,391.039 137.348,390.788 137.193 C 390.537 137.038,390.347 136.796,390.366 136.655 C 390.523 135.480,390.330 134.396,390.000 134.600 C 389.778 134.737,389.597 134.436,389.594 133.924 C 389.587 132.929,388.723 130.190,388.274 129.741 C 388.123 129.590,388.000 129.047,388.000 128.533 C 388.000 128.020,387.820 127.600,387.600 127.600 C 387.380 127.600,387.200 127.229,387.200 126.776 C 387.200 126.323,387.020 126.064,386.800 126.200 C 386.567 126.344,386.400 125.937,386.400 125.224 C 386.400 124.551,386.220 124.000,386.000 124.000 C 385.780 124.000,385.600 123.539,385.600 122.976 C 385.600 122.396,385.427 122.060,385.200 122.200 C 384.967 122.344,384.800 121.937,384.800 121.224 C 384.800 120.551,384.620 120.000,384.400 120.000 C 384.180 120.000,384.000 119.640,384.000 119.200 C 384.000 118.760,383.820 118.400,383.600 118.400 C 383.380 118.400,383.200 118.128,383.200 117.795 C 383.200 117.462,383.020 116.832,382.800 116.395 C 382.580 115.958,382.220 115.242,382.000 114.805 C 381.780 114.368,381.600 113.778,381.600 113.494 C 381.600 113.209,381.244 112.720,380.809 112.406 C 380.227 111.987,380.148 111.754,380.509 111.524 C 380.894 111.279,380.892 111.211,380.500 111.206 C 380.225 111.203,380.000 110.930,380.000 110.600 C 380.000 110.270,379.820 110.000,379.600 110.000 C 379.380 110.000,379.200 109.719,379.200 109.376 C 379.200 109.033,379.020 108.864,378.800 109.000 C 378.569 109.143,378.400 108.767,378.400 108.112 C 378.400 107.435,378.077 106.744,377.600 106.400 C 377.159 106.082,376.800 105.365,376.800 104.800 C 376.800 104.235,376.441 103.518,376.000 103.200 C 375.560 102.883,375.200 102.316,375.200 101.940 C 375.200 101.565,374.975 101.015,374.700 100.718 C 374.131 100.105,372.397 96.763,372.399 96.283 C 372.400 96.109,372.040 95.580,371.600 95.108 C 371.160 94.636,370.800 94.013,370.800 93.725 C 370.800 93.436,370.620 93.200,370.400 93.200 C 370.180 93.200,369.997 92.885,369.994 92.500 C 369.989 91.902,369.931 91.887,369.600 92.400 C 369.286 92.885,369.211 92.828,369.206 92.100 C 369.203 91.605,369.020 91.200,368.800 91.200 C 368.580 91.200,368.400 90.912,368.400 90.560 C 368.400 90.209,367.860 89.417,367.200 88.800 C 366.540 88.183,366.000 87.391,366.000 87.040 C 366.000 86.688,365.820 86.400,365.600 86.400 C 365.380 86.400,365.200 86.080,365.200 85.688 C 365.200 85.297,364.840 84.717,364.400 84.400 C 363.960 84.083,363.600 83.620,363.600 83.371 C 363.600 83.122,363.060 82.354,362.400 81.663 C 361.740 80.972,361.200 80.208,361.200 79.964 C 361.200 79.720,360.660 79.017,360.000 78.400 C 359.340 77.783,358.800 77.099,358.800 76.880 C 358.800 76.660,358.170 75.850,357.400 75.080 C 356.630 74.310,356.000 73.506,356.000 73.294 C 356.000 73.081,355.010 71.877,353.800 70.618 C 352.590 69.358,351.600 68.160,351.600 67.956 C 351.600 67.751,349.485 65.515,346.900 62.989 C 344.315 60.462,342.047 58.234,341.859 58.038 C 337.470 53.456,332.301 48.400,332.006 48.400 C 331.794 48.400,330.813 47.592,329.826 46.605 C 328.839 45.618,327.803 44.763,327.523 44.705 C 327.243 44.647,326.429 44.015,325.714 43.300 C 324.999 42.585,324.231 42.000,324.007 42.000 C 323.783 42.000,323.600 41.820,323.600 41.600 C 323.600 41.380,323.402 41.200,323.160 41.200 C 322.919 41.200,322.217 40.660,321.600 40.000 C 320.983 39.340,320.280 38.800,320.036 38.800 C 319.792 38.800,319.028 38.260,318.337 37.600 C 317.646 36.940,316.878 36.400,316.629 36.400 C 316.380 36.400,315.917 36.040,315.600 35.600 C 315.283 35.160,314.703 34.800,314.312 34.800 C 313.920 34.800,313.600 34.620,313.600 34.400 C 313.600 34.180,313.312 34.000,312.960 34.000 C 312.609 34.000,311.817 33.460,311.200 32.800 C 310.583 32.140,309.831 31.600,309.528 31.600 C 309.225 31.600,308.717 31.240,308.400 30.800 C 308.083 30.360,307.593 30.000,307.312 30.000 C 307.030 30.000,306.800 29.820,306.800 29.600 C 306.800 29.380,306.564 29.200,306.275 29.200 C 305.987 29.200,305.364 28.840,304.892 28.400 C 304.420 27.960,303.767 27.600,303.440 27.600 C 303.114 27.600,302.748 27.440,302.627 27.244 C 302.304 26.721,298.516 24.800,297.807 24.800 C 297.473 24.800,297.200 24.620,297.200 24.400 C 297.200 24.180,296.795 23.997,296.300 23.994 C 295.572 23.989,295.515 23.914,296.000 23.600 C 296.455 23.306,296.286 23.211,295.300 23.206 C 294.585 23.203,294.000 23.020,294.000 22.800 C 294.000 22.580,293.640 22.400,293.200 22.400 C 292.760 22.400,292.400 22.220,292.400 22.000 C 292.400 21.780,291.995 21.597,291.500 21.594 C 290.899 21.590,290.767 21.482,291.102 21.269 C 291.443 21.052,291.156 20.775,290.202 20.401 C 289.431 20.098,288.800 19.704,288.800 19.525 C 288.800 19.346,288.300 19.200,287.688 19.200 C 287.040 19.200,286.339 18.870,286.006 18.409 C 285.587 17.827,285.354 17.748,285.124 18.109 C 284.879 18.494,284.811 18.492,284.806 18.100 C 284.803 17.825,284.530 17.600,284.200 17.600 C 283.870 17.600,283.600 17.420,283.600 17.200 C 283.600 16.980,283.010 16.800,282.288 16.800 C 281.435 16.800,280.775 16.520,280.400 16.000 C 280.056 15.523,279.365 15.200,278.688 15.200 C 278.033 15.200,277.657 15.031,277.800 14.800 C 277.940 14.573,277.604 14.400,277.024 14.400 C 276.461 14.400,276.000 14.220,276.000 14.000 C 276.000 13.780,275.415 13.597,274.700 13.594 C 273.714 13.589,273.545 13.494,274.000 13.200 C 274.468 12.898,274.357 12.811,273.500 12.806 C 272.895 12.803,272.400 12.620,272.400 12.400 C 272.400 12.180,271.986 12.000,271.480 12.000 C 270.974 12.000,270.345 11.785,270.082 11.522 C 269.712 11.152,269.626 53.409,269.702 199.622 " stroke="none" fill="#dc0424" fill-rule="evenodd"></path><path id="path1" d="M129.800 11.600 C 129.664 11.820,129.113 12.000,128.576 12.000 C 128.039 12.000,127.600 12.180,127.600 12.400 C 127.600 12.620,127.105 12.803,126.500 12.806 C 125.643 12.811,125.532 12.898,126.000 13.200 C 126.455 13.494,126.286 13.589,125.300 13.594 C 124.585 13.597,124.000 13.780,124.000 14.000 C 124.000 14.220,123.500 14.400,122.888 14.400 C 122.235 14.400,121.539 14.730,121.200 15.200 C 120.844 15.694,120.159 16.002,119.412 16.006 C 118.482 16.011,118.340 16.103,118.800 16.400 C 119.246 16.688,119.016 16.789,117.900 16.794 C 117.075 16.797,116.400 16.980,116.400 17.200 C 116.400 17.420,116.027 17.600,115.571 17.600 C 114.671 17.600,113.485 18.552,113.886 18.952 C 114.022 19.089,113.743 19.200,113.267 19.200 C 112.790 19.200,112.400 19.388,112.400 19.618 C 112.400 19.847,112.175 20.006,111.900 19.970 C 110.883 19.838,110.360 20.011,110.600 20.400 C 110.743 20.631,110.367 20.800,109.712 20.800 C 109.035 20.800,108.344 21.123,108.000 21.600 C 107.683 22.040,107.103 22.400,106.712 22.400 C 106.320 22.400,106.000 22.580,106.000 22.800 C 106.000 23.020,105.640 23.200,105.200 23.200 C 104.760 23.200,104.400 23.391,104.400 23.624 C 104.400 23.857,104.235 23.945,104.032 23.820 C 103.830 23.695,103.393 23.864,103.061 24.196 C 102.729 24.528,102.184 24.800,101.851 24.800 C 101.518 24.800,100.994 25.159,100.687 25.597 C 100.380 26.036,100.031 26.297,99.911 26.178 C 99.792 26.058,99.037 26.330,98.235 26.780 C 97.432 27.231,96.511 27.600,96.188 27.600 C 95.865 27.600,95.600 27.780,95.600 28.000 C 95.600 28.220,95.319 28.400,94.976 28.400 C 94.633 28.400,94.464 28.580,94.600 28.800 C 94.736 29.020,94.477 29.200,94.024 29.200 C 93.571 29.200,93.200 29.380,93.200 29.600 C 93.200 29.820,92.970 30.000,92.688 30.000 C 92.407 30.000,91.917 30.360,91.600 30.800 C 91.283 31.240,90.775 31.600,90.472 31.600 C 90.169 31.600,89.417 32.140,88.800 32.800 C 88.183 33.460,87.391 34.000,87.040 34.000 C 86.688 34.000,86.400 34.180,86.400 34.400 C 86.400 34.620,86.080 34.800,85.688 34.800 C 85.297 34.800,84.717 35.160,84.400 35.600 C 84.083 36.040,83.615 36.400,83.360 36.400 C 83.105 36.400,82.170 37.105,81.282 37.967 C 80.394 38.829,79.562 39.429,79.434 39.300 C 79.305 39.172,79.186 39.412,79.168 39.833 C 79.150 40.285,79.052 40.388,78.930 40.084 C 78.774 39.696,78.557 39.747,78.061 40.288 C 77.698 40.684,76.680 41.538,75.800 42.184 C 74.920 42.830,73.930 43.638,73.600 43.979 C 73.270 44.321,72.767 44.648,72.482 44.706 C 72.196 44.765,70.891 45.881,69.582 47.186 C 68.272 48.492,67.200 49.378,67.200 49.154 C 67.200 48.931,65.221 50.784,62.802 53.274 C 60.383 55.763,58.268 57.934,58.102 58.097 C 57.936 58.261,55.685 60.462,53.100 62.989 C 50.515 65.515,48.400 67.762,48.400 67.981 C 48.400 68.200,47.592 69.187,46.605 70.174 C 45.618 71.161,44.763 72.192,44.705 72.466 C 44.647 72.740,44.240 73.350,43.800 73.823 C 42.340 75.392,41.200 76.803,41.200 77.043 C 41.200 77.173,40.660 77.783,40.000 78.400 C 39.340 79.017,38.800 79.769,38.800 80.072 C 38.800 80.375,38.440 80.883,38.000 81.200 C 37.560 81.517,37.200 82.007,37.200 82.288 C 37.200 82.570,37.020 82.800,36.800 82.800 C 36.580 82.800,36.400 83.030,36.400 83.312 C 36.400 83.593,36.040 84.083,35.600 84.400 C 35.160 84.717,34.800 85.231,34.800 85.541 C 34.800 85.852,34.412 86.442,33.939 86.853 C 33.465 87.264,33.304 87.600,33.581 87.600 C 33.858 87.600,33.526 88.122,32.842 88.760 C 32.159 89.399,31.600 90.169,31.600 90.472 C 31.600 90.775,31.240 91.283,30.800 91.600 C 30.360 91.917,30.000 92.407,30.000 92.688 C 30.000 92.970,29.820 93.200,29.600 93.200 C 29.380 93.200,29.200 93.436,29.200 93.725 C 29.200 94.013,28.840 94.636,28.400 95.108 C 27.960 95.580,27.600 96.157,27.600 96.389 C 27.600 96.915,26.722 98.511,26.242 98.860 C 26.045 99.002,25.982 99.375,26.102 99.688 C 26.222 100.001,25.978 100.471,25.560 100.732 C 25.142 100.993,24.800 101.565,24.800 102.003 C 24.800 102.442,24.620 102.800,24.400 102.800 C 24.180 102.800,24.000 103.171,24.000 103.624 C 24.000 104.077,23.820 104.336,23.600 104.200 C 23.373 104.060,23.200 104.396,23.200 104.976 C 23.200 105.539,23.020 106.000,22.800 106.000 C 22.580 106.000,22.397 106.405,22.394 106.900 C 22.389 107.628,22.314 107.685,22.000 107.200 C 21.699 106.734,21.611 106.853,21.606 107.729 C 21.600 108.867,20.706 110.173,20.248 109.714 C 20.111 109.578,20.000 110.047,20.000 110.757 C 20.000 111.515,19.835 111.945,19.600 111.800 C 19.261 111.591,19.116 112.068,19.226 113.030 C 19.241 113.157,18.881 113.583,18.426 113.977 C 17.972 114.371,17.600 115.078,17.600 115.547 C 17.600 116.016,17.420 116.400,17.200 116.400 C 16.980 116.400,16.800 116.951,16.800 117.624 C 16.800 118.337,16.633 118.744,16.400 118.600 C 16.180 118.464,16.000 118.723,16.000 119.176 C 16.000 119.629,15.809 120.000,15.576 120.000 C 15.343 120.000,15.248 120.153,15.364 120.341 C 15.480 120.529,15.316 121.024,15.000 121.441 C 14.684 121.858,14.420 122.605,14.413 123.100 C 14.406 123.595,14.220 124.000,14.000 124.000 C 13.780 124.000,13.600 124.360,13.600 124.800 C 13.600 125.240,13.420 125.600,13.200 125.600 C 12.980 125.600,12.800 126.050,12.800 126.600 C 12.800 127.150,12.653 127.600,12.472 127.600 C 12.133 127.600,10.923 131.568,11.100 132.100 C 11.155 132.265,11.020 132.400,10.800 132.400 C 10.580 132.400,10.400 132.940,10.400 133.600 C 10.400 134.260,10.220 134.800,10.000 134.800 C 9.780 134.800,9.600 135.124,9.600 135.520 C 9.600 135.916,9.432 136.411,9.227 136.620 C 9.022 136.829,8.732 138.080,8.583 139.400 C 8.433 140.720,8.151 141.860,7.955 141.933 C 7.760 142.007,7.600 142.502,7.600 143.033 C 7.600 143.565,7.420 144.000,7.200 144.000 C 6.980 144.000,6.800 144.529,6.800 145.176 C 6.800 145.823,6.620 146.464,6.400 146.600 C 6.180 146.736,6.000 147.647,6.000 148.624 C 6.000 149.601,5.820 150.400,5.600 150.400 C 5.380 150.400,5.200 150.940,5.200 151.600 C 5.200 152.260,5.020 152.800,4.800 152.800 C 4.580 152.800,4.400 153.700,4.400 154.800 C 4.400 155.900,4.220 156.800,4.000 156.800 C 3.780 156.800,3.600 157.419,3.600 158.176 C 3.600 158.933,3.420 159.664,3.200 159.800 C 2.980 159.936,2.800 161.196,2.800 162.600 C 2.800 164.004,2.620 165.264,2.400 165.400 C 2.180 165.536,2.000 166.256,2.000 167.000 C 2.000 167.744,1.801 168.476,1.557 168.626 C 1.248 168.818,1.278 169.015,1.657 169.280 C 2.079 169.576,2.089 169.706,1.700 169.864 C 1.369 169.998,1.200 170.988,1.200 172.800 C 1.200 174.631,1.035 175.588,0.700 175.700 C -0.032 175.944,-0.032 224.856,0.700 225.100 C 1.036 225.212,1.200 226.176,1.200 228.033 C 1.200 229.611,1.372 230.800,1.600 230.800 C 1.820 230.800,2.000 231.711,2.000 232.824 C 2.000 234.071,2.153 234.752,2.400 234.600 C 2.652 234.444,2.800 235.388,2.800 237.153 C 2.800 238.693,2.980 240.064,3.200 240.200 C 3.420 240.336,3.600 241.067,3.600 241.824 C 3.600 242.581,3.746 243.200,3.925 243.200 C 4.104 243.200,4.294 244.055,4.347 245.100 C 4.400 246.145,4.613 247.060,4.821 247.133 C 5.030 247.207,5.200 247.792,5.200 248.433 C 5.200 249.075,5.380 249.600,5.600 249.600 C 5.820 249.600,6.000 250.331,6.000 251.224 C 6.000 252.272,6.151 252.754,6.427 252.583 C 6.661 252.438,6.820 252.563,6.779 252.860 C 6.585 254.273,6.836 256.025,7.200 255.800 C 7.433 255.656,7.600 256.063,7.600 256.776 C 7.600 257.449,7.754 258.000,7.943 258.000 C 8.132 258.000,8.403 259.125,8.547 260.500 C 8.690 261.875,8.986 263.060,9.204 263.133 C 9.422 263.207,9.600 263.702,9.600 264.233 C 9.600 264.765,9.741 265.200,9.913 265.200 C 10.085 265.200,10.263 265.655,10.309 266.212 C 10.355 266.769,10.755 267.973,11.197 268.887 C 11.638 269.802,12.000 270.966,12.000 271.475 C 12.000 271.984,12.180 272.400,12.400 272.400 C 12.620 272.400,12.803 272.895,12.806 273.500 C 12.811 274.357,12.898 274.468,13.200 274.000 C 13.494 273.545,13.589 273.714,13.594 274.700 C 13.597 275.415,13.780 276.000,14.000 276.000 C 14.220 276.000,14.400 276.416,14.400 276.925 C 14.400 277.433,14.755 278.230,15.188 278.695 C 15.743 279.290,15.832 279.600,15.488 279.739 C 15.112 279.891,15.115 279.944,15.500 279.968 C 15.775 279.986,16.000 280.360,16.000 280.800 C 16.000 281.240,16.141 281.600,16.313 281.600 C 16.485 281.600,16.865 282.410,17.157 283.400 C 17.449 284.390,17.848 285.200,18.044 285.200 C 18.240 285.200,18.400 285.571,18.400 286.024 C 18.400 286.477,18.580 286.736,18.800 286.600 C 19.020 286.464,19.200 286.723,19.200 287.176 C 19.200 287.629,19.425 288.003,19.700 288.006 C 20.033 288.010,20.000 288.142,19.600 288.400 C 19.270 288.613,19.191 288.791,19.425 288.794 C 19.659 288.797,20.098 289.430,20.400 290.200 C 20.702 290.970,21.096 291.600,21.275 291.600 C 21.454 291.600,21.603 292.005,21.606 292.500 C 21.611 293.228,21.686 293.285,22.000 292.800 C 22.314 292.315,22.389 292.372,22.394 293.100 C 22.397 293.595,22.625 294.003,22.900 294.006 C 23.233 294.010,23.200 294.142,22.800 294.400 C 22.400 294.658,22.367 294.790,22.700 294.794 C 22.975 294.797,23.200 295.036,23.200 295.325 C 23.200 295.613,23.560 296.236,24.000 296.708 C 24.440 297.180,24.800 297.799,24.801 298.083 C 24.802 298.367,25.432 299.644,26.201 300.920 C 26.970 302.196,27.600 303.419,27.600 303.637 C 27.600 303.855,27.960 304.420,28.400 304.892 C 28.840 305.364,29.200 305.987,29.200 306.275 C 29.200 306.564,29.380 306.800,29.600 306.800 C 29.820 306.800,30.000 307.030,30.000 307.312 C 30.000 307.593,30.360 308.083,30.800 308.400 C 31.240 308.717,31.600 309.257,31.600 309.600 C 31.600 309.943,31.960 310.483,32.400 310.800 C 32.840 311.117,33.203 311.742,33.206 312.188 C 33.211 312.859,33.280 312.896,33.600 312.400 C 33.914 311.915,33.989 311.972,33.994 312.700 C 33.997 313.195,34.180 313.600,34.400 313.600 C 34.620 313.600,34.800 313.920,34.800 314.312 C 34.800 314.703,35.160 315.283,35.600 315.600 C 36.040 315.917,36.400 316.385,36.400 316.640 C 36.400 316.895,37.120 317.845,38.000 318.752 C 38.880 319.659,39.600 320.631,39.600 320.912 C 39.600 321.193,39.960 321.683,40.400 322.000 C 40.840 322.317,41.200 322.807,41.200 323.088 C 41.200 323.370,41.380 323.600,41.600 323.600 C 41.820 323.600,42.000 323.783,42.000 324.007 C 42.000 324.231,42.585 324.999,43.300 325.714 C 44.015 326.429,44.645 327.235,44.699 327.504 C 44.753 327.773,45.698 328.913,46.799 330.037 C 47.900 331.161,48.800 332.249,48.800 332.453 C 48.800 332.658,50.825 334.802,53.300 337.217 C 58.821 342.606,58.344 342.129,63.182 347.100 C 65.377 349.355,67.337 351.200,67.538 351.200 C 67.739 351.200,68.645 351.920,69.552 352.800 C 70.459 353.680,71.516 354.403,71.900 354.406 C 72.408 354.411,72.461 354.500,72.092 354.734 C 71.728 354.966,71.896 355.218,72.689 355.628 C 73.297 355.943,74.386 356.785,75.110 357.500 C 75.834 358.215,76.625 358.800,76.866 358.800 C 77.108 358.800,77.642 359.188,78.053 359.661 C 78.464 360.135,78.800 360.316,78.800 360.063 C 78.800 359.811,79.718 360.503,80.841 361.602 C 81.963 362.701,83.093 363.600,83.352 363.600 C 83.611 363.600,84.083 363.960,84.400 364.400 C 84.717 364.840,85.297 365.200,85.688 365.200 C 86.080 365.200,86.400 365.380,86.400 365.600 C 86.400 365.820,86.720 366.000,87.112 366.000 C 87.503 366.000,88.083 366.360,88.400 366.800 C 88.717 367.240,89.257 367.600,89.600 367.600 C 89.943 367.600,90.483 367.960,90.800 368.400 C 91.117 368.840,91.685 369.200,92.061 369.200 C 92.438 369.200,92.860 369.560,93.000 370.000 C 93.140 370.440,93.562 370.800,93.939 370.800 C 94.315 370.800,94.883 371.160,95.200 371.600 C 95.517 372.040,96.052 372.404,96.388 372.409 C 96.725 372.414,97.450 372.770,98.000 373.200 C 98.550 373.630,99.238 373.986,99.529 373.991 C 99.819 373.996,100.327 374.270,100.657 374.600 C 100.987 374.930,101.604 375.200,102.029 375.200 C 102.453 375.200,102.800 375.380,102.800 375.600 C 102.800 375.820,103.160 376.000,103.600 376.000 C 104.040 376.000,104.400 376.180,104.400 376.400 C 104.400 376.620,104.760 376.800,105.200 376.800 C 105.640 376.800,106.000 376.980,106.000 377.200 C 106.000 377.420,106.294 377.600,106.653 377.600 C 107.012 377.600,107.597 377.916,107.953 378.303 C 108.309 378.689,109.140 379.274,109.800 379.602 C 110.460 379.930,111.132 380.379,111.294 380.599 C 111.476 380.848,111.590 380.810,111.594 380.500 C 111.604 379.706,112.321 379.920,112.600 380.800 C 112.740 381.240,113.191 381.600,113.603 381.600 C 114.016 381.600,114.464 381.780,114.600 382.000 C 114.736 382.220,115.287 382.400,115.824 382.400 C 116.361 382.400,116.800 382.580,116.800 382.800 C 116.800 383.020,117.160 383.200,117.600 383.200 C 118.040 383.200,118.400 383.380,118.400 383.600 C 118.400 383.820,118.900 384.000,119.512 384.000 C 120.165 384.000,120.861 384.330,121.200 384.800 C 121.539 385.270,122.235 385.600,122.888 385.600 C 123.500 385.600,124.000 385.780,124.000 386.000 C 124.000 386.220,124.641 386.400,125.424 386.400 C 126.271 386.400,126.747 386.562,126.600 386.800 C 126.464 387.020,126.618 387.200,126.943 387.200 C 127.268 387.200,127.593 387.363,127.667 387.562 C 127.740 387.761,128.340 387.986,129.000 388.062 L 130.200 388.200 130.298 199.700 C 130.352 96.025,130.317 11.200,130.222 11.200 C 130.126 11.200,129.936 11.380,129.800 11.600 " stroke="none" fill="#6ca444" fill-rule="evenodd"></path><path id="path2" d="M178.300 0.275 C 176.375 0.361,174.800 0.604,174.800 0.816 C 174.800 1.027,173.461 1.200,171.824 1.200 C 170.187 1.200,168.736 1.380,168.600 1.600 C 168.464 1.820,167.463 2.000,166.376 2.000 C 165.289 2.000,164.400 2.180,164.400 2.400 C 164.400 2.620,163.410 2.800,162.200 2.800 C 160.990 2.800,160.000 2.980,160.000 3.200 C 160.000 3.420,159.201 3.600,158.224 3.600 C 157.247 3.600,156.336 3.780,156.200 4.000 C 156.064 4.220,155.243 4.400,154.376 4.400 C 153.509 4.400,152.800 4.580,152.800 4.800 C 152.800 5.020,152.080 5.200,151.200 5.200 C 150.320 5.200,149.600 5.380,149.600 5.600 C 149.600 5.820,149.071 6.000,148.424 6.000 C 147.777 6.000,147.136 6.180,147.000 6.400 C 146.864 6.620,146.234 6.800,145.600 6.800 C 144.966 6.800,144.336 6.980,144.200 7.200 C 144.064 7.420,143.333 7.600,142.576 7.600 C 141.819 7.600,141.200 7.757,141.200 7.948 C 141.200 8.140,140.307 8.415,139.216 8.560 C 138.125 8.705,137.125 8.998,136.993 9.212 C 136.861 9.425,136.253 9.600,135.643 9.600 C 135.033 9.600,134.411 9.722,134.262 9.871 C 134.113 10.021,133.181 10.426,132.192 10.771 L 130.393 11.400 130.297 200.070 L 130.200 388.740 131.332 388.966 C 131.954 389.091,133.034 389.442,133.732 389.747 C 135.704 390.608,139.191 391.600,140.246 391.600 C 140.771 391.600,141.200 391.780,141.200 392.000 C 141.200 392.220,141.830 392.400,142.600 392.400 C 143.370 392.400,144.000 392.580,144.000 392.800 C 144.000 393.020,144.529 393.200,145.176 393.200 C 145.823 393.200,146.464 393.380,146.600 393.600 C 146.736 393.820,147.567 394.000,148.447 394.000 C 149.412 394.000,149.949 394.159,149.800 394.400 C 149.651 394.641,150.188 394.800,151.153 394.800 C 152.033 394.800,152.864 394.980,153.000 395.200 C 153.136 395.420,153.856 395.600,154.600 395.600 C 155.344 395.600,156.064 395.780,156.200 396.000 C 156.336 396.220,157.247 396.400,158.224 396.400 C 159.201 396.400,160.000 396.580,160.000 396.800 C 160.000 397.020,160.990 397.200,162.200 397.200 C 163.410 397.200,164.400 397.380,164.400 397.600 C 164.400 397.820,165.379 398.000,166.576 398.000 C 167.773 398.000,168.864 398.180,169.000 398.400 C 169.136 398.620,170.482 398.800,171.990 398.800 C 173.829 398.800,174.788 398.965,174.900 399.300 C 175.144 400.032,224.856 400.032,225.100 399.300 C 225.212 398.965,226.171 398.800,228.010 398.800 C 229.518 398.800,230.864 398.620,231.000 398.400 C 231.136 398.180,232.216 398.000,233.400 398.000 C 234.584 398.000,235.664 397.820,235.800 397.600 C 235.936 397.380,236.836 397.200,237.800 397.200 C 238.764 397.200,239.664 397.020,239.800 396.800 C 239.936 396.580,240.746 396.400,241.600 396.400 C 242.454 396.400,243.264 396.220,243.400 396.000 C 243.536 395.780,244.447 395.600,245.424 395.600 C 246.401 395.600,247.200 395.420,247.200 395.200 C 247.200 394.980,247.920 394.800,248.800 394.800 C 249.680 394.800,250.400 394.620,250.400 394.400 C 250.400 394.180,251.019 394.000,251.776 394.000 C 252.533 394.000,253.264 393.820,253.400 393.600 C 253.536 393.380,254.177 393.200,254.824 393.200 C 255.471 393.200,256.000 393.020,256.000 392.800 C 256.000 392.580,256.630 392.400,257.400 392.400 C 258.170 392.400,258.800 392.241,258.800 392.046 C 258.800 391.851,259.787 391.569,260.994 391.418 C 262.200 391.267,263.291 390.977,263.417 390.772 C 263.544 390.567,264.076 390.400,264.600 390.400 C 265.124 390.400,265.664 390.220,265.800 390.000 C 265.936 389.780,266.376 389.600,266.778 389.600 C 267.180 389.600,267.979 389.356,268.555 389.057 L 269.601 388.514 269.602 200.001 L 269.603 11.487 268.556 10.943 C 267.980 10.645,267.257 10.400,266.949 10.400 C 266.641 10.400,266.077 10.237,265.695 10.037 C 264.553 9.440,260.778 8.400,259.754 8.400 C 259.229 8.400,258.800 8.220,258.800 8.000 C 258.800 7.780,258.181 7.600,257.424 7.600 C 256.667 7.600,255.936 7.420,255.800 7.200 C 255.664 6.980,255.124 6.800,254.600 6.800 C 254.076 6.800,253.536 6.620,253.400 6.400 C 253.264 6.180,252.533 6.000,251.776 6.000 C 251.019 6.000,250.400 5.820,250.400 5.600 C 250.400 5.380,249.680 5.200,248.800 5.200 C 247.920 5.200,247.200 5.020,247.200 4.800 C 247.200 4.580,246.491 4.400,245.624 4.400 C 244.757 4.400,243.936 4.220,243.800 4.000 C 243.664 3.780,242.753 3.600,241.776 3.600 C 240.799 3.600,240.000 3.420,240.000 3.200 C 240.000 2.980,239.100 2.800,238.000 2.800 C 236.900 2.800,236.000 2.620,236.000 2.400 C 236.000 2.178,234.941 2.000,233.624 2.000 C 232.317 2.000,231.136 1.820,231.000 1.600 C 230.864 1.380,229.518 1.200,228.010 1.200 C 226.193 1.200,225.211 1.034,225.103 0.708 C 224.941 0.222,187.291 -0.126,178.300 0.275 M395.600 156.776 C 395.600 157.229,395.780 157.600,396.000 157.600 C 396.220 157.600,396.400 157.341,396.400 157.024 C 396.400 156.707,396.220 156.336,396.000 156.200 C 395.780 156.064,395.600 156.323,395.600 156.776 M2.000 164.824 C 2.000 165.277,2.180 165.536,2.400 165.400 C 2.919 165.079,2.919 164.000,2.400 164.000 C 2.180 164.000,2.000 164.371,2.000 164.824 M2.212 234.917 C 2.041 235.312,2.013 235.747,2.151 235.884 C 2.557 236.290,2.884 235.720,2.697 234.931 C 2.532 234.233,2.510 234.232,2.212 234.917 M395.600 243.200 C 395.600 243.947,395.707 244.053,396.080 243.680 C 396.453 243.307,396.453 243.093,396.080 242.720 C 395.707 242.347,395.600 242.453,395.600 243.200 M78.806 359.871 C 78.818 360.484,79.555 361.378,79.826 361.107 C 79.974 360.959,79.804 360.547,79.448 360.190 C 79.091 359.834,78.803 359.691,78.806 359.871 " stroke="none" fill="#f4f4f4" fill-rule="evenodd"></path></g></svg>