<svg id="svg" version="1.1" xmlns="http://www.w3.org/2000/svg" xmlns:xlink="http://www.w3.org/1999/xlink" width="400" height="400" viewBox="0, 0, 400,400"><g id="svgg"><path id="path0" d="M83.299 83.301 C 70.044 96.557,59.200 107.584,59.200 107.806 C 59.200 108.294,70.466 119.600,70.952 119.600 C 71.412 119.600,119.600 71.412,119.600 70.952 C 119.600 70.458,108.290 59.200,107.794 59.200 C 107.576 59.200,96.553 70.046,83.299 83.301 M286.049 65.006 C 280.946 70.171,280.373 70.887,280.856 71.485 C 282.358 73.340,298.141 88.800,298.534 88.800 C 298.785 88.800,301.574 86.163,304.732 82.941 L 310.475 77.081 301.541 68.141 C 296.627 63.223,292.422 59.200,292.196 59.200 C 291.970 59.200,289.204 61.813,286.049 65.006 M101.700 101.723 C 88.445 114.985,77.600 126.010,77.600 126.223 C 77.600 126.734,88.894 138.001,89.405 137.998 C 89.924 137.996,138.000 89.904,138.000 89.387 C 138.000 88.867,126.710 77.598,126.195 77.605 C 125.978 77.608,114.955 88.461,101.700 101.723 M267.964 83.113 C 264.975 86.131,262.396 88.830,262.235 89.110 C 261.951 89.602,309.910 138.000,310.681 138.000 C 310.862 138.000,313.662 135.344,316.903 132.097 L 322.796 126.194 298.497 101.897 C 285.132 88.534,274.018 77.606,273.799 77.613 C 273.579 77.619,270.954 80.094,267.964 83.113 M316.813 95.787 L 311.036 101.574 312.018 102.628 C 314.034 104.791,327.841 118.622,328.532 119.170 C 329.242 119.733,340.800 109.023,340.800 107.802 C 340.800 107.272,323.521 90.000,322.991 90.000 C 322.770 90.000,319.990 92.604,316.813 95.787 M120.100 120.261 C 106.845 133.560,96.000 144.569,96.000 144.726 C 96.000 145.168,107.359 156.400,107.806 156.400 C 108.329 156.400,156.400 108.317,156.400 107.794 C 156.400 107.247,145.093 95.989,144.595 96.040 C 144.378 96.062,133.355 106.962,120.100 120.261 M249.300 101.728 C 246.165 104.864,243.600 107.604,243.600 107.818 C 243.600 108.386,260.919 125.600,261.490 125.600 C 262.225 125.600,273.201 114.747,273.192 114.029 C 273.184 113.362,255.997 95.990,255.368 96.014 C 255.166 96.021,252.435 98.593,249.300 101.728 M280.095 132.505 C 276.963 135.643,274.400 138.389,274.400 138.608 C 274.400 139.131,291.685 156.400,292.209 156.400 C 292.683 156.400,304.000 145.139,304.000 144.668 C 304.000 144.193,286.671 126.806,286.195 126.803 C 285.972 126.801,283.227 129.367,280.095 132.505 M165.300 200.300 C 184.385 200.357,215.615 200.357,234.700 200.300 C 253.785 200.243,238.170 200.196,200.000 200.196 C 161.830 200.196,146.215 200.243,165.300 200.300 M101.695 249.305 C 98.563 252.443,96.000 255.152,96.000 255.326 C 96.000 255.738,144.282 304.000,144.694 304.000 C 145.157 304.000,156.400 292.661,156.400 292.194 C 156.400 291.671,108.317 243.600,107.794 243.600 C 107.571 243.600,104.827 246.167,101.695 249.305 M283.097 252.303 C 278.313 257.090,274.400 261.232,274.400 261.508 C 274.400 262.071,285.391 272.941,286.128 273.106 C 286.640 273.222,304.000 255.993,304.000 255.369 C 304.000 254.862,292.700 243.600,292.192 243.600 C 291.972 243.600,287.880 247.517,283.097 252.303 M83.295 267.705 C 80.163 270.843,77.600 273.588,77.600 273.806 C 77.600 274.024,81.626 278.215,86.546 283.119 L 95.492 292.036 101.246 286.211 C 104.411 283.006,107.067 280.187,107.149 279.945 C 107.315 279.456,90.047 262.000,89.398 262.000 C 89.174 262.000,86.427 264.567,83.295 267.705 M301.354 270.998 L 292.337 279.995 295.962 283.451 C 297.957 285.352,300.680 288.079,302.015 289.512 L 304.442 292.117 313.421 283.170 C 318.359 278.250,322.400 274.036,322.400 273.807 C 322.400 273.331,311.153 262.000,310.681 262.000 C 310.510 262.000,306.313 266.049,301.354 270.998 M252.297 283.103 C 247.513 287.890,243.600 291.987,243.600 292.209 C 243.600 292.718,254.879 304.000,255.389 304.000 C 255.900 304.000,273.199 286.707,273.199 286.195 C 273.200 285.671,261.917 274.400,261.392 274.400 C 261.172 274.400,257.080 278.317,252.297 283.103 M64.895 286.105 C 61.763 289.243,59.200 291.988,59.200 292.206 C 59.200 292.729,107.283 340.800,107.806 340.800 C 108.298 340.800,119.600 329.532,119.600 329.042 C 119.600 328.586,71.395 280.400,70.939 280.400 C 70.747 280.400,68.027 282.967,64.895 286.105 M320.013 289.268 C 315.166 294.145,311.200 298.251,311.200 298.391 C 311.200 298.531,313.837 301.307,317.061 304.559 L 322.921 310.472 331.861 301.539 C 336.777 296.626,340.800 292.423,340.800 292.198 C 340.800 291.745,329.557 280.400,329.108 280.400 C 328.953 280.400,324.860 284.391,320.013 289.268 M114.095 298.505 C 110.963 301.643,108.400 304.388,108.401 304.605 C 108.401 304.822,112.413 309.001,117.315 313.891 L 126.229 322.781 132.114 316.886 C 135.351 313.643,138.000 310.817,138.000 310.606 C 138.000 310.089,120.714 292.800,120.197 292.800 C 119.973 292.800,117.227 295.367,114.095 298.505 M270.755 301.592 C 265.940 306.427,262.000 310.520,262.000 310.687 C 262.000 310.854,264.653 313.648,267.896 316.896 L 273.792 322.802 282.696 313.904 C 287.593 309.011,291.600 304.823,291.600 304.598 C 291.600 304.108,280.338 292.800,279.850 292.800 C 279.662 292.800,275.570 296.756,270.755 301.592 M289.776 319.517 C 285.169 324.092,281.144 328.153,280.830 328.542 C 280.269 329.240,290.983 340.800,292.192 340.800 C 292.413 340.800,296.600 336.797,301.496 331.904 L 310.398 323.008 304.504 317.104 C 301.262 313.857,298.507 311.200,298.381 311.200 C 298.256 311.200,294.383 314.943,289.776 319.517 " stroke="none" fill="#052347" fill-rule="evenodd"></path><path id="path1" d="M192.000 131.027 C 191.450 131.120,189.740 131.396,188.200 131.641 C 185.713 132.036,184.243 132.379,179.800 133.599 C 160.380 138.932,141.896 156.427,134.791 176.200 C 133.984 178.445,133.752 179.206,132.774 182.800 C 131.772 186.483,131.149 190.630,130.924 195.100 L 130.678 200.000 199.916 200.000 C 249.186 200.000,269.230 199.875,269.421 199.567 C 270.298 198.147,267.982 184.374,265.735 177.657 C 260.230 161.195,248.047 146.963,232.200 138.482 C 229.714 137.152,225.236 135.200,224.670 135.200 C 224.389 135.200,223.989 135.049,223.780 134.863 C 223.184 134.335,217.945 132.855,212.200 131.591 C 210.223 131.156,193.934 130.701,192.000 131.027 " stroke="none" fill="#dc0424" fill-rule="evenodd"></path><path id="path2" d="M178.300 0.276 C 176.375 0.361,174.800 0.604,174.800 0.816 C 174.800 1.027,173.461 1.200,171.824 1.200 C 170.187 1.200,168.736 1.380,168.600 1.600 C 168.464 1.820,167.478 2.000,166.410 2.000 C 165.341 2.000,164.407 2.170,164.333 2.378 C 164.260 2.586,163.255 2.798,162.100 2.849 C 160.945 2.901,160.000 3.091,160.000 3.271 C 160.000 3.452,159.226 3.600,158.280 3.600 C 157.334 3.600,156.389 3.771,156.179 3.981 C 155.970 4.190,155.124 4.407,154.299 4.463 C 153.475 4.518,152.800 4.707,152.800 4.882 C 152.800 5.057,152.069 5.200,151.176 5.200 C 150.196 5.200,149.651 5.358,149.800 5.600 C 149.947 5.838,149.479 6.000,148.647 6.000 C 147.877 6.000,147.136 6.180,147.000 6.400 C 146.864 6.620,146.234 6.800,145.600 6.800 C 144.966 6.800,144.336 6.980,144.200 7.200 C 144.064 7.420,143.333 7.600,142.576 7.600 C 141.819 7.600,141.200 7.757,141.200 7.948 C 141.200 8.140,140.307 8.415,139.216 8.560 C 138.125 8.705,137.125 8.998,136.993 9.212 C 136.861 9.425,136.259 9.600,135.656 9.600 C 135.053 9.600,134.389 9.743,134.180 9.918 C 133.971 10.093,133.080 10.465,132.200 10.745 C 130.526 11.276,129.078 11.850,127.905 12.447 C 127.523 12.641,126.848 12.800,126.405 12.800 C 125.962 12.800,125.600 12.980,125.600 13.200 C 125.600 13.420,125.240 13.600,124.800 13.600 C 124.360 13.600,124.000 13.780,124.000 14.000 C 124.000 14.220,123.561 14.400,123.024 14.400 C 122.487 14.400,121.936 14.580,121.800 14.800 C 121.664 15.020,121.203 15.200,120.776 15.200 C 120.349 15.200,120.000 15.380,120.000 15.600 C 120.000 15.820,119.640 16.000,119.200 16.000 C 118.760 16.000,118.400 16.180,118.400 16.400 C 118.400 16.620,118.128 16.800,117.795 16.800 C 117.462 16.800,116.877 16.969,116.495 17.175 C 116.113 17.382,114.180 18.327,112.200 19.275 C 110.220 20.224,108.360 21.227,108.068 21.504 C 107.775 21.781,107.370 21.905,107.168 21.780 C 106.965 21.655,106.800 21.743,106.800 21.976 C 106.800 22.209,106.440 22.400,106.000 22.400 C 105.560 22.400,105.200 22.580,105.200 22.800 C 105.200 23.020,104.906 23.200,104.547 23.200 C 104.188 23.200,103.603 23.531,103.247 23.936 C 102.891 24.341,102.137 24.786,101.571 24.926 C 101.005 25.066,99.894 25.619,99.103 26.156 C 98.312 26.693,97.560 27.027,97.433 26.899 C 97.305 26.771,97.200 26.877,97.200 27.133 C 97.200 27.390,96.930 27.600,96.600 27.600 C 96.270 27.600,96.000 27.759,96.000 27.953 C 96.000 28.148,95.685 28.407,95.300 28.529 C 94.258 28.859,92.291 30.104,91.554 30.900 C 91.198 31.285,90.678 31.600,90.400 31.600 C 90.122 31.600,89.603 31.916,89.247 32.303 C 88.891 32.689,88.105 33.260,87.500 33.570 C 86.895 33.881,86.400 34.285,86.400 34.468 C 86.400 34.650,86.149 34.800,85.842 34.800 C 85.536 34.800,84.707 35.340,84.000 36.000 C 83.293 36.660,82.504 37.200,82.246 37.200 C 81.988 37.200,81.517 37.560,81.200 38.000 C 80.883 38.440,80.348 38.802,80.012 38.804 C 79.675 38.806,78.975 39.346,78.455 40.004 C 77.935 40.662,77.326 41.200,77.102 41.200 C 76.877 41.200,76.358 41.588,75.947 42.061 C 75.536 42.535,75.200 42.797,75.200 42.643 C 75.200 42.489,74.742 42.822,74.182 43.382 C 73.622 43.942,73.012 44.400,72.827 44.400 C 72.641 44.400,71.704 45.169,70.745 46.110 C 69.785 47.050,68.373 48.262,67.607 48.803 C 66.191 49.803,59.177 56.770,57.900 58.445 C 57.515 58.950,57.200 59.237,57.200 59.083 C 57.200 58.655,49.879 66.084,48.780 67.628 C 48.247 68.377,46.953 69.865,45.905 70.935 C 44.857 72.005,44.000 73.051,44.000 73.259 C 44.000 73.466,43.595 74.070,43.100 74.599 C 41.731 76.063,41.200 76.740,41.200 77.023 C 41.200 77.164,40.660 77.783,40.000 78.400 C 39.340 79.017,38.800 79.743,38.800 80.014 C 38.800 80.284,38.484 80.797,38.097 81.153 C 37.711 81.509,37.140 82.295,36.830 82.900 C 36.519 83.505,36.115 84.000,35.932 84.000 C 35.750 84.000,35.600 84.281,35.600 84.624 C 35.600 84.993,35.412 85.131,35.138 84.962 C 34.873 84.798,34.784 84.851,34.930 85.086 C 35.069 85.311,34.737 86.014,34.192 86.648 C 33.647 87.282,33.201 88.025,33.200 88.300 C 33.200 88.575,33.050 88.800,32.868 88.800 C 32.685 88.800,32.281 89.295,31.970 89.900 C 31.660 90.505,31.134 91.270,30.803 91.601 C 30.068 92.333,28.831 94.346,28.529 95.300 C 28.407 95.685,28.148 96.000,27.953 96.000 C 27.759 96.000,27.600 96.255,27.600 96.567 C 27.600 96.878,27.443 97.193,27.251 97.267 C 26.809 97.435,24.800 101.396,24.800 102.098 C 24.800 102.387,24.440 102.883,24.000 103.200 C 23.560 103.517,23.200 104.097,23.200 104.488 C 23.200 104.880,23.020 105.200,22.800 105.200 C 22.580 105.200,22.400 105.472,22.400 105.805 C 22.400 106.382,21.650 107.975,21.178 108.400 C 20.824 108.718,19.200 112.347,19.200 112.819 C 19.200 113.055,19.020 113.136,18.800 113.000 C 18.580 112.864,18.400 113.113,18.400 113.553 C 18.400 113.993,18.220 114.464,18.000 114.600 C 17.780 114.736,17.600 115.197,17.600 115.624 C 17.600 116.051,17.420 116.400,17.200 116.400 C 16.980 116.400,16.800 116.850,16.800 117.400 C 16.800 117.950,16.620 118.400,16.400 118.400 C 16.180 118.400,16.000 118.760,16.000 119.200 C 16.000 119.640,15.820 120.000,15.600 120.000 C 15.380 120.000,15.200 120.349,15.200 120.776 C 15.200 121.203,15.020 121.664,14.800 121.800 C 14.580 121.936,14.400 122.487,14.400 123.024 C 14.400 123.561,14.220 124.000,14.000 124.000 C 13.780 124.000,13.600 124.360,13.600 124.800 C 13.600 125.240,13.420 125.600,13.200 125.600 C 12.980 125.600,12.800 125.962,12.800 126.405 C 12.800 126.848,12.641 127.523,12.447 127.905 C 12.252 128.287,11.871 129.140,11.600 129.800 C 11.329 130.460,10.948 131.313,10.753 131.695 C 10.559 132.077,10.400 132.664,10.400 133.000 C 10.400 133.336,10.242 133.923,10.049 134.305 C 9.350 135.690,8.756 138.005,8.999 138.398 C 9.135 138.619,9.057 138.800,8.824 138.800 C 8.591 138.800,8.400 139.340,8.400 140.000 C 8.400 140.660,8.220 141.200,8.000 141.200 C 7.780 141.200,7.600 141.819,7.600 142.576 C 7.600 143.333,7.420 144.064,7.200 144.200 C 6.980 144.336,6.800 144.876,6.800 145.400 C 6.800 145.924,6.620 146.464,6.400 146.600 C 6.180 146.736,6.000 147.467,6.000 148.224 C 6.000 148.981,5.820 149.600,5.600 149.600 C 5.380 149.600,5.200 150.320,5.200 151.200 C 5.200 152.080,5.057 152.800,4.882 152.800 C 4.707 152.800,4.518 153.475,4.463 154.299 C 4.407 155.124,4.190 155.970,3.981 156.179 C 3.771 156.389,3.600 157.334,3.600 158.280 C 3.600 159.226,3.420 160.000,3.200 160.000 C 2.980 160.000,2.800 160.900,2.800 162.000 C 2.800 163.100,2.620 164.000,2.400 164.000 C 2.178 164.000,2.000 165.059,2.000 166.376 C 2.000 167.683,1.820 168.864,1.600 169.000 C 1.380 169.136,1.200 170.371,1.200 171.744 C 1.200 173.207,0.993 174.447,0.700 174.740 C 0.311 175.129,0.200 180.743,0.200 200.087 C 0.200 219.608,0.307 224.969,0.700 225.100 C 1.035 225.212,1.200 226.171,1.200 228.010 C 1.200 229.518,1.380 230.864,1.600 231.000 C 1.820 231.136,2.000 232.317,2.000 233.624 C 2.000 234.941,2.178 236.000,2.400 236.000 C 2.620 236.000,2.800 236.900,2.800 238.000 C 2.800 239.100,2.980 240.000,3.200 240.000 C 3.420 240.000,3.600 240.799,3.600 241.776 C 3.600 242.753,3.780 243.664,4.000 243.800 C 4.220 243.936,4.400 244.757,4.400 245.624 C 4.400 246.491,4.580 247.200,4.800 247.200 C 5.020 247.200,5.200 247.920,5.200 248.800 C 5.200 249.680,5.380 250.400,5.600 250.400 C 5.820 250.400,6.000 251.019,6.000 251.776 C 6.000 252.533,6.180 253.264,6.400 253.400 C 6.620 253.536,6.800 254.177,6.800 254.824 C 6.800 255.471,6.980 256.000,7.200 256.000 C 7.420 256.000,7.600 256.630,7.600 257.400 C 7.600 258.170,7.780 258.800,8.000 258.800 C 8.220 258.800,8.400 259.340,8.400 260.000 C 8.400 260.660,8.599 261.200,8.843 261.200 C 9.086 261.200,9.187 261.457,9.067 261.771 C 8.789 262.494,9.254 263.972,11.556 269.691 C 12.240 271.391,12.800 273.146,12.800 273.591 C 12.800 274.036,12.980 274.400,13.200 274.400 C 13.420 274.400,13.600 274.760,13.600 275.200 C 13.600 275.640,13.780 276.000,14.000 276.000 C 14.220 276.000,14.406 276.405,14.413 276.900 C 14.420 277.395,14.684 278.142,15.000 278.559 C 15.316 278.976,15.480 279.471,15.364 279.659 C 15.248 279.847,15.343 280.000,15.576 280.000 C 15.809 280.000,16.000 280.360,16.000 280.800 C 16.000 281.240,16.180 281.600,16.400 281.600 C 16.620 281.600,16.800 281.872,16.800 282.205 C 16.800 282.538,16.967 283.123,17.172 283.505 C 17.376 283.887,18.306 285.783,19.238 287.717 C 20.170 289.652,21.083 291.328,21.266 291.441 C 21.450 291.554,21.600 291.997,21.600 292.424 C 21.600 292.851,21.780 293.200,22.000 293.200 C 22.220 293.200,22.400 293.560,22.400 294.000 C 22.400 294.440,22.580 294.800,22.800 294.800 C 23.020 294.800,23.200 295.036,23.200 295.325 C 23.200 295.613,23.560 296.236,24.000 296.708 C 24.440 297.180,24.800 297.755,24.800 297.986 C 24.800 298.543,26.917 302.563,27.300 302.733 C 27.465 302.807,27.600 303.044,27.600 303.261 C 27.600 303.478,28.118 304.408,28.750 305.328 C 29.383 306.248,29.911 307.149,29.924 307.330 C 29.937 307.512,30.319 307.983,30.774 308.377 C 31.228 308.771,31.600 309.348,31.600 309.659 C 31.600 309.969,31.960 310.483,32.400 310.800 C 32.840 311.117,33.200 311.631,33.200 311.941 C 33.200 312.252,33.549 312.809,33.975 313.178 C 34.401 313.548,34.806 314.101,34.875 314.407 C 34.944 314.713,35.392 315.372,35.871 315.871 C 36.350 316.370,37.064 317.323,37.457 317.989 C 37.851 318.655,38.314 319.200,38.486 319.200 C 38.659 319.200,38.800 319.468,38.800 319.797 C 38.800 320.125,39.299 320.890,39.910 321.497 C 40.520 322.103,41.549 323.320,42.195 324.200 C 42.842 325.080,43.603 326.038,43.886 326.329 C 44.168 326.619,44.400 327.012,44.400 327.202 C 44.400 327.392,45.255 328.443,46.300 329.540 C 47.345 330.636,48.830 332.291,49.600 333.218 C 50.370 334.145,52.530 336.409,54.400 338.250 C 56.270 340.090,57.929 341.732,58.087 341.898 C 61.818 345.826,66.565 350.462,67.625 351.214 C 68.381 351.750,69.770 352.957,70.711 353.895 C 71.651 354.833,72.588 355.600,72.792 355.600 C 72.997 355.600,73.622 356.058,74.182 356.618 C 74.742 357.178,75.205 357.493,75.212 357.318 C 75.219 357.143,75.408 357.315,75.632 357.700 C 75.856 358.085,76.258 358.400,76.524 358.400 C 76.790 358.400,77.546 359.026,78.204 359.791 C 78.862 360.557,79.675 361.187,80.012 361.191 C 80.348 361.196,80.883 361.560,81.200 362.000 C 81.517 362.440,81.980 362.800,82.229 362.800 C 82.478 362.800,83.216 363.295,83.868 363.900 C 84.521 364.505,85.302 365.056,85.602 365.125 C 85.903 365.194,86.452 365.599,86.822 366.025 C 87.191 366.451,87.748 366.800,88.059 366.800 C 88.369 366.800,88.883 367.160,89.200 367.600 C 89.517 368.040,90.057 368.400,90.400 368.400 C 90.743 368.400,91.283 368.760,91.600 369.200 C 91.917 369.640,92.475 370.000,92.839 370.000 C 93.204 370.000,93.729 370.273,94.006 370.607 C 94.283 370.941,95.115 371.502,95.855 371.853 C 96.595 372.204,97.200 372.651,97.200 372.846 C 97.200 373.041,97.397 373.200,97.638 373.200 C 97.879 373.200,98.565 373.548,99.163 373.973 C 99.760 374.399,100.772 374.878,101.411 375.039 C 102.050 375.199,102.928 375.661,103.362 376.065 C 103.796 376.469,104.387 376.800,104.675 376.800 C 104.964 376.800,105.200 376.980,105.200 377.200 C 105.200 377.420,105.434 377.600,105.720 377.600 C 106.456 377.600,108.393 378.541,108.397 378.900 C 108.399 379.065,108.745 379.200,109.167 379.200 C 109.588 379.200,109.993 379.335,110.067 379.500 C 110.140 379.665,111.100 380.225,112.200 380.744 C 113.300 381.263,114.513 381.848,114.895 382.044 C 115.277 382.240,115.862 382.400,116.195 382.400 C 116.528 382.400,116.800 382.580,116.800 382.800 C 116.800 383.020,117.160 383.200,117.600 383.200 C 118.040 383.200,118.400 383.380,118.400 383.600 C 118.400 383.820,118.665 384.000,118.988 384.000 C 119.311 384.000,120.217 384.360,121.000 384.800 C 121.783 385.240,122.779 385.600,123.212 385.600 C 123.645 385.600,124.000 385.741,124.000 385.913 C 124.000 386.085,124.855 386.476,125.900 386.782 C 126.945 387.087,128.340 387.637,129.000 388.003 C 129.660 388.369,130.740 388.802,131.400 388.965 C 132.060 389.128,133.140 389.495,133.800 389.781 C 135.734 390.618,139.214 391.600,140.246 391.600 C 140.771 391.600,141.200 391.780,141.200 392.000 C 141.200 392.220,141.830 392.400,142.600 392.400 C 143.370 392.400,144.000 392.580,144.000 392.800 C 144.000 393.020,144.529 393.200,145.176 393.200 C 145.823 393.200,146.464 393.380,146.600 393.600 C 146.736 393.820,147.567 394.000,148.447 394.000 C 149.412 394.000,149.949 394.159,149.800 394.400 C 149.651 394.641,150.188 394.800,151.153 394.800 C 152.033 394.800,152.864 394.980,153.000 395.200 C 153.136 395.420,153.856 395.600,154.600 395.600 C 155.344 395.600,156.064 395.780,156.200 396.000 C 156.336 396.220,157.247 396.400,158.224 396.400 C 159.201 396.400,160.000 396.548,160.000 396.729 C 160.000 396.909,160.945 397.099,162.100 397.151 C 163.255 397.202,164.260 397.414,164.333 397.622 C 164.407 397.830,165.431 398.000,166.610 398.000 C 167.788 398.000,168.864 398.180,169.000 398.400 C 169.136 398.620,170.482 398.800,171.990 398.800 C 173.829 398.800,174.788 398.965,174.900 399.300 C 175.144 400.032,224.856 400.032,225.100 399.300 C 225.212 398.965,226.171 398.800,228.010 398.800 C 229.518 398.800,230.864 398.620,231.000 398.400 C 231.136 398.180,232.216 398.000,233.400 398.000 C 234.584 398.000,235.664 397.820,235.800 397.600 C 235.936 397.380,236.836 397.200,237.800 397.200 C 238.764 397.200,239.664 397.020,239.800 396.800 C 239.936 396.580,240.721 396.400,241.544 396.400 C 242.367 396.400,243.211 396.230,243.420 396.021 C 243.629 395.813,244.565 395.598,245.500 395.543 C 246.435 395.488,247.200 395.299,247.200 395.122 C 247.200 394.945,247.920 394.800,248.800 394.800 C 249.680 394.800,250.400 394.620,250.400 394.400 C 250.400 394.180,251.019 394.000,251.776 394.000 C 252.533 394.000,253.264 393.820,253.400 393.600 C 253.536 393.380,254.177 393.200,254.824 393.200 C 255.471 393.200,256.000 393.020,256.000 392.800 C 256.000 392.580,256.630 392.400,257.400 392.400 C 258.170 392.400,258.800 392.241,258.800 392.046 C 258.800 391.851,259.787 391.569,260.994 391.418 C 262.200 391.267,263.291 390.977,263.417 390.772 C 263.544 390.567,264.076 390.400,264.600 390.400 C 265.124 390.400,265.664 390.220,265.800 390.000 C 265.936 389.780,266.399 389.600,266.829 389.600 C 267.259 389.600,267.968 389.420,268.405 389.200 C 268.842 388.980,269.558 388.620,269.995 388.400 C 270.432 388.180,271.062 388.000,271.395 388.000 C 271.728 388.000,272.000 387.820,272.000 387.600 C 272.000 387.380,272.439 387.200,272.976 387.200 C 273.513 387.200,274.064 387.020,274.200 386.800 C 274.336 386.580,274.782 386.400,275.190 386.400 C 275.599 386.400,275.993 386.222,276.067 386.003 C 276.140 385.785,276.695 385.566,277.300 385.516 C 277.905 385.466,278.400 385.285,278.400 385.113 C 278.400 384.941,278.760 384.800,279.200 384.800 C 279.640 384.800,280.000 384.620,280.000 384.400 C 280.000 384.180,280.360 384.000,280.800 384.000 C 281.240 384.000,281.600 383.820,281.600 383.600 C 281.600 383.380,281.872 383.200,282.205 383.200 C 282.793 383.200,283.218 383.033,285.095 382.062 C 285.587 381.808,286.247 381.600,286.561 381.600 C 286.876 381.600,287.193 381.465,287.267 381.300 C 287.340 381.135,288.300 380.552,289.400 380.005 C 290.500 379.458,291.490 378.918,291.600 378.805 C 292.063 378.330,293.634 377.600,294.195 377.600 C 294.528 377.600,294.800 377.420,294.800 377.200 C 294.800 376.980,295.036 376.800,295.325 376.800 C 295.613 376.800,296.236 376.440,296.708 376.000 C 297.180 375.560,297.737 375.200,297.946 375.200 C 298.486 375.200,302.573 373.069,302.733 372.704 C 302.807 372.537,303.039 372.400,303.250 372.400 C 303.634 372.400,306.022 370.834,306.404 370.332 C 306.516 370.185,306.876 370.005,307.204 369.932 C 307.532 369.859,308.070 369.529,308.400 369.197 C 308.730 368.866,309.495 368.340,310.100 368.030 C 310.705 367.719,311.200 367.315,311.200 367.132 C 311.200 366.950,311.472 366.800,311.804 366.800 C 312.136 366.800,312.972 366.260,313.663 365.600 C 314.354 364.940,315.162 364.400,315.459 364.400 C 315.757 364.400,316.000 364.250,316.000 364.068 C 316.000 363.885,316.495 363.481,317.100 363.170 C 317.705 362.860,318.491 362.289,318.847 361.903 C 319.203 361.516,319.671 361.200,319.888 361.200 C 320.104 361.200,320.804 360.705,321.442 360.100 C 322.081 359.495,323.143 358.657,323.802 358.237 C 324.461 357.817,325.144 357.232,325.320 356.937 C 325.496 356.642,326.208 356.106,326.902 355.747 C 327.596 355.388,328.802 354.443,329.582 353.647 C 330.362 352.851,331.720 351.662,332.600 351.003 C 333.480 350.345,335.861 348.095,337.892 346.003 C 339.922 343.912,341.722 342.071,341.892 341.913 C 345.195 338.838,350.444 333.470,351.194 332.400 C 351.733 331.630,352.831 330.362,353.634 329.582 C 354.438 328.802,355.398 327.578,355.768 326.861 C 356.139 326.145,356.701 325.459,357.019 325.338 C 357.336 325.216,357.516 324.988,357.419 324.831 C 357.322 324.674,357.593 324.293,358.021 323.985 C 358.450 323.676,358.800 323.281,358.800 323.108 C 358.800 322.935,359.340 322.228,360.000 321.537 C 360.660 320.846,361.200 320.078,361.200 319.829 C 361.200 319.580,361.560 319.117,362.000 318.800 C 362.440 318.483,362.800 318.020,362.800 317.771 C 362.800 317.522,363.340 316.754,364.000 316.063 C 364.660 315.372,365.200 314.575,365.200 314.292 C 365.200 314.009,365.560 313.517,366.000 313.200 C 366.440 312.883,366.800 312.303,366.800 311.912 C 366.800 311.520,366.950 311.200,367.132 311.200 C 367.315 311.200,367.719 310.705,368.030 310.100 C 368.340 309.495,368.911 308.709,369.297 308.353 C 369.684 307.997,370.000 307.412,370.000 307.053 C 370.000 306.694,370.158 306.400,370.351 306.400 C 370.545 306.400,370.927 305.860,371.200 305.200 C 371.473 304.540,371.855 304.000,372.049 304.000 C 372.242 304.000,372.400 303.730,372.400 303.400 C 372.400 303.070,372.580 302.800,372.800 302.800 C 373.020 302.800,373.200 302.440,373.200 302.000 C 373.200 301.560,373.345 301.200,373.523 301.200 C 373.828 301.200,375.200 298.457,375.200 297.849 C 375.200 297.694,375.560 297.180,376.000 296.708 C 376.440 296.236,376.800 295.613,376.800 295.325 C 376.800 295.036,376.980 294.800,377.200 294.800 C 377.420 294.800,377.600 294.440,377.600 294.000 C 377.600 293.560,377.780 293.200,378.000 293.200 C 378.220 293.200,378.400 292.855,378.400 292.433 C 378.400 292.012,378.537 291.607,378.704 291.533 C 378.871 291.460,379.789 289.780,380.745 287.800 C 381.700 285.820,382.643 283.887,382.841 283.505 C 383.038 283.123,383.200 282.538,383.200 282.205 C 383.200 281.872,383.380 281.600,383.600 281.600 C 383.820 281.600,384.000 281.240,384.000 280.800 C 384.000 280.360,384.180 280.000,384.400 280.000 C 384.620 280.000,384.800 279.651,384.800 279.224 C 384.800 278.797,384.980 278.336,385.200 278.200 C 385.420 278.064,385.600 277.513,385.600 276.976 C 385.600 276.439,385.780 276.000,386.000 276.000 C 386.220 276.000,386.400 275.651,386.400 275.224 C 386.400 274.797,386.580 274.336,386.800 274.200 C 387.020 274.064,387.200 273.513,387.200 272.976 C 387.200 272.439,387.380 272.000,387.600 272.000 C 387.820 272.000,388.000 271.651,388.000 271.224 C 388.000 270.797,388.144 270.358,388.321 270.249 C 388.497 270.140,388.893 269.128,389.200 268.000 C 389.507 266.872,389.903 265.860,390.079 265.751 C 390.256 265.642,390.400 265.143,390.400 264.643 C 390.400 264.143,390.535 263.598,390.700 263.433 C 390.865 263.268,391.013 263.013,391.030 262.867 C 391.258 260.833,391.766 258.800,392.045 258.800 C 392.240 258.800,392.400 258.170,392.400 257.400 C 392.400 256.630,392.580 256.000,392.800 256.000 C 393.020 256.000,393.200 255.471,393.200 254.824 C 393.200 254.177,393.380 253.536,393.600 253.400 C 393.820 253.264,394.000 252.544,394.000 251.800 C 394.000 251.056,394.180 250.336,394.400 250.200 C 394.620 250.064,394.800 249.333,394.800 248.576 C 394.800 247.819,394.943 247.200,395.118 247.200 C 395.293 247.200,395.482 246.525,395.537 245.701 C 395.593 244.876,395.810 244.030,396.019 243.821 C 396.229 243.611,396.400 242.666,396.400 241.720 C 396.400 240.774,396.580 240.000,396.800 240.000 C 397.020 240.000,397.200 239.111,397.200 238.024 C 397.200 236.937,397.380 235.936,397.600 235.800 C 397.820 235.664,398.000 234.584,398.000 233.400 C 398.000 232.216,398.180 231.136,398.400 231.000 C 398.620 230.864,398.800 229.518,398.800 228.010 C 398.800 226.171,398.965 225.212,399.300 225.100 C 399.693 224.969,399.800 219.591,399.800 200.000 C 399.800 180.409,399.693 175.031,399.300 174.900 C 398.965 174.788,398.800 173.829,398.800 171.990 C 398.800 170.482,398.620 169.136,398.400 169.000 C 398.180 168.864,398.000 167.784,398.000 166.600 C 398.000 165.416,397.820 164.336,397.600 164.200 C 397.380 164.064,397.200 163.063,397.200 161.976 C 397.200 160.889,397.020 160.000,396.800 160.000 C 396.580 160.000,396.400 159.201,396.400 158.224 C 396.400 157.247,396.220 156.336,396.000 156.200 C 395.780 156.064,395.600 155.243,395.600 154.376 C 395.600 153.509,395.420 152.800,395.200 152.800 C 394.980 152.800,394.800 152.181,394.800 151.424 C 394.800 150.667,394.620 149.936,394.400 149.800 C 394.180 149.664,394.000 148.944,394.000 148.200 C 394.000 147.456,393.820 146.736,393.600 146.600 C 393.380 146.464,393.200 145.823,393.200 145.176 C 393.200 144.529,393.020 144.000,392.800 144.000 C 392.580 144.000,392.400 143.370,392.400 142.600 C 392.400 141.830,392.241 141.200,392.046 141.200 C 391.851 141.200,391.569 140.213,391.418 139.006 C 391.267 137.800,390.977 136.709,390.772 136.583 C 390.567 136.456,390.400 135.949,390.400 135.456 C 390.400 134.963,390.257 134.389,390.082 134.180 C 389.907 133.971,389.535 133.080,389.255 132.200 C 388.703 130.461,388.503 129.956,387.240 127.104 C 386.778 126.062,386.400 124.937,386.400 124.604 C 386.400 124.272,386.220 124.000,386.000 124.000 C 385.780 124.000,385.600 123.561,385.600 123.024 C 385.600 122.487,385.420 121.936,385.200 121.800 C 384.980 121.664,384.800 121.203,384.800 120.776 C 384.800 120.349,384.620 120.000,384.400 120.000 C 384.180 120.000,384.000 119.640,384.000 119.200 C 384.000 118.760,383.820 118.400,383.600 118.400 C 383.380 118.400,383.200 118.040,383.200 117.600 C 383.200 117.160,383.020 116.800,382.800 116.800 C 382.580 116.800,382.401 116.485,382.403 116.100 C 382.407 115.325,379.186 108.678,378.704 108.467 C 378.537 108.393,378.400 107.988,378.400 107.567 C 378.400 107.145,378.220 106.800,378.000 106.800 C 377.780 106.800,377.600 106.440,377.600 106.000 C 377.600 105.560,377.420 105.200,377.200 105.200 C 376.980 105.200,376.800 104.964,376.800 104.675 C 376.800 104.387,376.469 103.796,376.065 103.362 C 375.661 102.928,375.199 102.050,375.039 101.411 C 374.878 100.772,374.399 99.760,373.973 99.163 C 373.548 98.565,373.200 97.879,373.200 97.638 C 373.200 97.397,373.020 97.200,372.800 97.200 C 372.580 97.200,372.400 97.007,372.400 96.772 C 372.400 96.537,371.860 95.559,371.200 94.600 C 370.540 93.641,370.000 92.703,370.000 92.516 C 370.000 92.329,369.640 91.917,369.200 91.600 C 368.760 91.283,368.400 90.743,368.400 90.400 C 368.400 90.057,368.040 89.517,367.600 89.200 C 367.160 88.883,366.800 88.343,366.800 88.000 C 366.800 87.657,366.440 87.117,366.000 86.800 C 365.560 86.483,365.200 85.943,365.200 85.600 C 365.200 85.257,364.840 84.717,364.400 84.400 C 363.960 84.083,363.599 83.638,363.598 83.412 C 363.597 83.185,363.057 82.425,362.398 81.722 C 361.739 81.019,361.200 80.236,361.200 79.982 C 361.200 79.729,360.660 79.017,360.000 78.400 C 359.340 77.783,358.800 77.126,358.800 76.939 C 358.800 76.753,358.080 75.812,357.200 74.849 C 356.320 73.887,355.600 72.962,355.600 72.794 C 355.600 72.627,354.831 71.704,353.890 70.745 C 352.950 69.785,351.756 68.398,351.237 67.663 C 350.718 66.928,348.525 64.588,346.365 62.463 C 344.205 60.338,342.255 58.420,342.032 58.200 C 341.808 57.980,339.865 55.997,337.713 53.793 C 335.561 51.590,333.170 49.346,332.400 48.806 C 331.630 48.267,330.339 47.145,329.531 46.313 C 328.724 45.481,327.869 44.800,327.631 44.800 C 327.394 44.800,327.200 44.620,327.200 44.400 C 327.200 44.180,327.012 44.000,326.782 44.000 C 326.552 44.000,325.930 43.595,325.401 43.100 C 323.937 41.731,323.260 41.200,322.977 41.200 C 322.836 41.200,322.217 40.660,321.600 40.000 C 320.983 39.340,320.280 38.800,320.036 38.800 C 319.792 38.800,319.028 38.260,318.337 37.600 C 317.646 36.940,316.878 36.400,316.629 36.400 C 316.380 36.400,315.917 36.040,315.600 35.600 C 315.283 35.160,314.743 34.800,314.400 34.800 C 314.057 34.800,313.517 34.440,313.200 34.000 C 312.883 33.560,312.343 33.200,312.000 33.200 C 311.657 33.200,311.117 32.840,310.800 32.400 C 310.483 31.960,309.943 31.600,309.600 31.600 C 309.257 31.600,308.717 31.240,308.400 30.800 C 308.083 30.360,307.586 30.000,307.295 30.000 C 307.004 30.000,306.411 29.669,305.977 29.264 C 305.542 28.859,304.695 28.274,304.093 27.965 C 303.492 27.655,302.910 27.310,302.800 27.198 C 302.373 26.763,298.467 24.800,298.029 24.800 C 297.775 24.800,297.180 24.440,296.708 24.000 C 296.236 23.560,295.613 23.200,295.325 23.200 C 295.036 23.200,294.800 23.020,294.800 22.800 C 294.800 22.580,294.440 22.400,294.000 22.400 C 293.560 22.400,293.200 22.220,293.200 22.000 C 293.200 21.780,292.840 21.600,292.400 21.600 C 291.960 21.600,291.599 21.465,291.599 21.300 C 291.598 21.135,290.608 20.550,289.400 20.000 C 288.192 19.450,287.202 18.865,287.201 18.700 C 287.201 18.535,286.928 18.400,286.595 18.400 C 286.007 18.400,285.582 18.233,283.705 17.262 C 283.213 17.008,282.538 16.800,282.205 16.800 C 281.872 16.800,281.600 16.620,281.600 16.400 C 281.600 16.180,281.240 16.000,280.800 16.000 C 280.360 16.000,280.000 15.809,280.000 15.576 C 280.000 15.343,279.835 15.255,279.632 15.380 C 279.430 15.505,278.993 15.336,278.661 15.004 C 278.329 14.672,277.594 14.400,277.029 14.400 C 276.463 14.400,276.000 14.220,276.000 14.000 C 276.000 13.780,275.640 13.600,275.200 13.600 C 274.760 13.600,274.400 13.420,274.400 13.200 C 274.400 12.980,273.961 12.800,273.424 12.800 C 272.887 12.800,272.336 12.620,272.200 12.400 C 272.064 12.180,271.685 12.000,271.357 12.000 C 271.029 12.000,270.016 11.640,269.106 11.200 C 268.195 10.760,267.211 10.400,266.919 10.400 C 266.628 10.400,266.077 10.237,265.695 10.037 C 264.553 9.440,260.778 8.400,259.754 8.400 C 259.229 8.400,258.800 8.220,258.800 8.000 C 258.800 7.780,258.181 7.600,257.424 7.600 C 256.667 7.600,255.936 7.420,255.800 7.200 C 255.664 6.980,255.124 6.800,254.600 6.800 C 254.076 6.800,253.536 6.620,253.400 6.400 C 253.264 6.180,252.533 6.000,251.776 6.000 C 251.019 6.000,250.400 5.820,250.400 5.600 C 250.400 5.380,249.680 5.200,248.800 5.200 C 247.920 5.200,247.200 5.020,247.200 4.800 C 247.200 4.580,246.491 4.400,245.624 4.400 C 244.757 4.400,243.936 4.220,243.800 4.000 C 243.664 3.780,242.753 3.600,241.776 3.600 C 240.799 3.600,240.000 3.420,240.000 3.200 C 240.000 2.980,239.100 2.800,238.000 2.800 C 236.900 2.800,236.000 2.620,236.000 2.400 C 236.000 2.178,234.941 2.000,233.624 2.000 C 232.317 2.000,231.136 1.820,231.000 1.600 C 230.864 1.380,229.539 1.200,228.056 1.200 C 226.439 1.200,225.161 1.001,224.862 0.702 C 224.373 0.213,187.360 -0.126,178.300 0.276 M114.386 64.586 C 117.783 67.988,120.480 70.860,120.381 70.968 C 119.911 71.478,84.159 107.262,77.890 113.498 L 70.779 120.569 64.590 114.390 C 61.185 110.991,58.400 108.028,58.400 107.806 C 58.400 107.277,107.274 58.400,107.804 58.400 C 108.027 58.400,110.989 61.184,114.386 64.586 M301.697 67.497 C 306.704 72.500,310.800 76.806,310.800 77.065 C 310.800 77.689,299.341 88.960,298.522 89.140 C 297.805 89.299,280.000 71.746,280.000 70.880 C 280.000 70.296,291.567 58.495,292.197 58.437 C 292.415 58.417,296.690 62.494,301.697 67.497 M132.695 82.895 C 135.833 86.027,138.400 88.901,138.400 89.282 C 138.400 90.182,90.192 138.400,89.293 138.400 C 88.384 138.400,77.200 127.209,77.200 126.300 C 77.200 125.307,125.168 77.264,126.195 77.228 C 126.705 77.210,129.037 79.244,132.695 82.895 M298.946 101.549 C 320.138 122.752,323.230 125.995,322.872 126.649 C 322.647 127.062,319.835 129.999,316.624 133.176 L 310.785 138.952 308.967 137.176 C 297.910 126.374,261.770 89.888,261.673 89.429 C 261.500 88.606,272.767 77.281,273.804 77.235 C 274.358 77.211,282.190 84.785,298.946 101.549 M332.480 98.288 C 337.496 103.287,341.600 107.564,341.600 107.793 C 341.600 108.022,338.810 110.996,335.399 114.401 L 329.198 120.592 319.999 111.399 C 314.940 106.343,310.802 101.935,310.805 101.603 C 310.810 100.980,322.410 89.200,323.018 89.200 C 323.206 89.200,327.464 93.290,332.480 98.288 M157.200 107.794 C 157.200 108.323,108.326 157.200,107.796 157.200 C 107.573 157.200,104.604 154.410,101.199 150.999 L 95.008 144.799 119.904 119.904 L 144.799 95.008 150.999 101.199 C 154.410 104.604,157.200 107.572,157.200 107.794 M264.939 104.649 C 272.116 111.835,273.903 113.831,273.622 114.349 C 273.164 115.189,262.709 125.595,261.824 126.090 C 261.197 126.442,242.800 108.871,242.800 107.920 C 242.800 107.356,254.753 95.600,255.327 95.600 C 255.643 95.600,259.968 99.672,264.939 104.649 M295.799 135.599 L 304.992 144.798 298.801 150.999 C 295.396 154.410,292.422 157.200,292.193 157.200 C 291.696 157.200,273.600 139.113,273.600 138.616 C 273.600 138.006,285.378 126.412,286.003 126.406 C 286.335 126.403,290.743 130.540,295.799 135.599 M209.154 130.820 C 217.494 132.143,223.671 134.036,230.600 137.393 C 234.349 139.209,240.949 143.145,241.600 143.952 C 241.710 144.088,242.610 144.822,243.600 145.583 C 247.008 148.200,251.791 153.083,255.657 157.892 C 260.956 164.482,266.734 177.294,268.334 186.000 C 268.556 187.210,268.932 189.291,269.169 190.624 C 269.726 193.755,269.726 206.132,269.170 209.554 C 263.978 241.491,241.491 263.978,209.554 269.170 C 206.347 269.691,193.587 269.740,190.920 269.241 C 189.864 269.043,187.740 268.663,186.200 268.395 C 178.149 266.994,161.396 259.543,158.400 256.030 C 158.290 255.901,157.480 255.270,156.600 254.627 C 154.530 253.115,146.885 245.470,145.373 243.400 C 144.730 242.520,144.099 241.710,143.970 241.600 C 141.280 239.306,134.920 226.345,132.880 219.000 C 130.818 211.579,130.297 207.095,130.529 198.800 C 131.380 168.493,149.614 143.325,177.400 134.108 C 180.775 132.988,181.645 132.733,185.846 131.632 C 186.752 131.394,188.192 131.182,189.046 131.160 C 189.901 131.138,191.050 130.976,191.600 130.800 C 193.092 130.322,206.111 130.337,209.154 130.820 M132.699 267.299 C 146.174 280.773,157.200 291.980,157.200 292.204 C 157.200 292.427,154.410 295.396,150.999 298.801 L 144.799 304.992 119.904 280.096 L 95.008 255.201 101.199 249.001 C 104.604 245.590,107.572 242.800,107.794 242.800 C 108.016 242.800,119.223 253.824,132.699 267.299 M298.749 248.949 L 304.889 255.099 303.345 256.849 C 300.000 260.637,286.565 273.600,285.983 273.600 C 285.000 273.600,273.459 261.756,273.830 261.128 C 274.406 260.155,291.795 242.819,292.205 242.809 C 292.428 242.804,295.373 245.567,298.749 248.949 M98.085 269.738 C 102.548 274.213,106.642 278.359,107.182 278.951 L 108.164 280.026 101.987 286.213 C 98.589 289.616,95.681 292.400,95.523 292.400 C 94.904 292.400,77.200 274.316,77.200 273.684 C 77.200 272.794,88.390 261.600,89.280 261.600 C 89.660 261.600,93.622 265.262,98.085 269.738 M317.095 267.295 C 320.714 270.907,322.800 273.288,322.800 273.807 C 322.800 274.627,305.379 292.400,304.575 292.400 C 304.072 292.400,291.783 280.091,292.019 279.825 C 294.762 276.733,310.334 261.600,310.772 261.600 C 311.112 261.600,313.957 264.163,317.095 267.295 M267.670 279.483 C 270.931 282.718,273.600 285.643,273.600 285.983 C 273.600 286.507,262.222 298.345,256.871 303.388 L 255.186 304.976 248.993 298.793 C 245.587 295.392,242.800 292.444,242.800 292.241 C 242.800 291.781,260.945 273.600,261.404 273.600 C 261.589 273.600,264.408 276.247,267.670 279.483 M94.258 302.835 C 106.682 315.246,117.671 326.273,118.678 327.341 L 120.509 329.282 114.359 335.441 C 110.977 338.828,108.028 341.600,107.806 341.600 C 107.283 341.600,58.400 292.729,58.400 292.206 C 58.400 291.341,70.540 279.639,71.108 279.956 C 71.416 280.129,81.833 290.424,94.258 302.835 M341.600 292.192 C 341.600 292.699,323.539 310.800,323.033 310.800 C 322.384 310.800,310.800 299.064,310.800 298.406 C 310.800 298.060,314.943 293.648,320.008 288.601 L 329.215 279.425 335.408 285.608 C 338.813 289.008,341.600 291.971,341.600 292.192 M129.078 300.711 C 133.875 305.501,138.051 309.736,138.358 310.122 C 138.988 310.913,127.736 322.800,126.358 322.800 C 125.816 322.800,110.250 307.713,108.030 305.037 C 107.503 304.401,118.960 292.000,120.074 292.000 C 120.229 292.000,124.281 295.920,129.078 300.711 M286.347 298.147 C 291.646 303.454,292.428 304.397,292.071 305.047 C 290.824 307.318,274.063 323.261,273.342 322.863 C 271.709 321.959,261.523 311.297,261.660 310.634 C 261.789 310.012,279.511 292.000,279.995 292.000 C 280.113 292.000,282.972 294.766,286.347 298.147 M304.917 316.730 C 308.153 319.992,310.800 322.818,310.800 323.010 C 310.800 323.511,292.708 341.600,292.207 341.600 C 291.978 341.600,289.004 338.810,285.599 335.399 L 279.408 329.198 288.601 319.999 C 293.657 314.940,298.073 310.800,298.414 310.800 C 298.755 310.800,301.682 313.469,304.917 316.730 " stroke="none" fill="#f3f3f3" fill-rule="evenodd"></path><path id="path3" d="M82.899 82.901 C 69.424 96.377,58.400 107.584,58.400 107.806 C 58.400 108.028,61.185 110.991,64.590 114.390 L 70.779 120.569 77.890 113.498 C 84.159 107.262,119.911 71.478,120.381 70.968 C 120.626 70.701,108.316 58.400,107.804 58.400 C 107.580 58.400,96.373 69.426,82.899 82.901 M285.900 64.413 C 282.655 67.680,280.000 70.590,280.000 70.880 C 280.000 71.746,297.805 89.299,298.522 89.140 C 299.341 88.960,310.800 77.689,310.800 77.065 C 310.800 76.473,292.738 58.387,292.197 58.437 C 291.979 58.457,289.145 61.147,285.900 64.413 M113.895 64.895 C 117.033 68.027,119.600 70.752,119.600 70.952 C 119.600 71.412,71.412 119.600,70.952 119.600 C 70.466 119.600,59.200 108.294,59.200 107.806 C 59.200 107.283,107.271 59.200,107.794 59.200 C 108.012 59.200,110.757 61.763,113.895 64.895 M301.541 68.141 L 310.475 77.081 304.732 82.941 C 301.574 86.163,298.785 88.800,298.534 88.800 C 298.141 88.800,282.358 73.340,280.856 71.485 C 280.315 70.815,291.037 59.200,292.196 59.200 C 292.422 59.200,296.627 63.223,301.541 68.141 M101.300 101.422 C 87.541 115.219,77.200 125.894,77.200 126.300 C 77.200 127.209,88.384 138.400,89.293 138.400 C 90.192 138.400,138.400 90.182,138.400 89.282 C 138.400 88.274,127.181 77.193,126.195 77.228 C 125.696 77.246,116.414 86.267,101.300 101.422 M267.273 83.049 C 264.014 86.338,261.601 89.087,261.673 89.429 C 261.770 89.888,297.910 126.374,308.967 137.176 L 310.785 138.952 316.624 133.176 C 319.835 129.999,322.647 127.062,322.872 126.649 C 323.392 125.698,275.207 77.174,273.804 77.235 C 273.328 77.257,270.668 79.624,267.273 83.049 M132.295 83.295 C 135.433 86.427,138.000 89.168,138.000 89.387 C 138.000 89.904,89.924 137.996,89.405 137.998 C 88.894 138.001,77.600 126.734,77.600 126.223 C 77.600 125.714,125.680 77.612,126.195 77.605 C 126.412 77.602,129.157 80.163,132.295 83.295 M298.497 101.897 L 322.796 126.194 316.903 132.097 C 313.662 135.344,310.862 138.000,310.681 138.000 C 309.910 138.000,261.951 89.602,262.235 89.110 C 262.766 88.189,273.390 77.625,273.799 77.613 C 274.018 77.606,285.132 88.534,298.497 101.897 M316.743 95.100 C 313.480 98.345,310.808 101.271,310.805 101.603 C 310.802 101.935,314.940 106.343,319.999 111.399 L 329.198 120.592 335.399 114.401 C 338.810 110.996,341.600 108.022,341.600 107.793 C 341.600 107.298,323.513 89.200,323.018 89.200 C 322.830 89.200,320.006 91.855,316.743 95.100 M332.097 98.697 C 336.883 103.480,340.800 107.577,340.800 107.802 C 340.800 109.023,329.242 119.733,328.532 119.170 C 327.841 118.622,314.034 104.791,312.018 102.628 L 311.036 101.574 316.813 95.787 C 319.990 92.604,322.770 90.000,322.991 90.000 C 323.213 90.000,327.310 93.913,332.097 98.697 M119.904 119.904 L 95.008 144.799 101.199 150.999 C 104.604 154.410,107.573 157.200,107.796 157.200 C 108.326 157.200,157.200 108.323,157.200 107.794 C 157.200 107.572,154.410 104.604,150.999 101.199 L 144.799 95.008 119.904 119.904 M248.776 101.611 C 245.489 104.917,242.800 107.756,242.800 107.920 C 242.800 108.871,261.197 126.442,261.824 126.090 C 262.709 125.595,273.164 115.189,273.622 114.349 C 274.017 113.623,256.430 95.600,255.327 95.600 C 255.010 95.600,252.062 98.305,248.776 101.611 M150.695 101.695 C 153.833 104.827,156.400 107.571,156.400 107.794 C 156.400 108.317,108.329 156.400,107.806 156.400 C 107.359 156.400,96.000 145.168,96.000 144.726 C 96.000 144.307,144.130 96.088,144.595 96.040 C 144.812 96.018,147.557 98.563,150.695 101.695 M264.461 104.700 C 269.259 109.485,273.188 113.683,273.192 114.029 C 273.201 114.747,262.225 125.600,261.490 125.600 C 260.919 125.600,243.600 108.386,243.600 107.818 C 243.600 107.332,254.865 96.032,255.368 96.014 C 255.571 96.006,259.663 99.915,264.461 104.700 M279.500 132.341 C 276.255 135.603,273.600 138.426,273.600 138.616 C 273.600 139.113,291.696 157.200,292.193 157.200 C 292.422 157.200,295.396 154.410,298.801 150.999 L 304.992 144.798 295.799 135.599 C 290.743 130.540,286.335 126.403,286.003 126.406 C 285.671 126.409,282.745 129.080,279.500 132.341 M295.300 135.575 C 300.085 140.399,304.000 144.490,304.000 144.668 C 304.000 145.139,292.683 156.400,292.209 156.400 C 291.685 156.400,274.400 139.131,274.400 138.608 C 274.400 138.081,285.672 126.799,286.195 126.803 C 286.418 126.805,290.515 130.752,295.300 135.575 M191.678 130.740 C 191.171 130.883,195.032 131.000,200.258 131.000 C 205.484 131.000,209.229 130.886,208.580 130.747 C 207.019 130.413,192.858 130.407,191.678 130.740 M186.200 131.600 L 185.400 131.944 186.200 131.925 C 186.640 131.914,187.540 131.768,188.200 131.600 L 189.400 131.295 188.200 131.275 C 187.540 131.265,186.640 131.411,186.200 131.600 M211.800 131.600 C 212.460 131.768,213.360 131.914,213.800 131.925 L 214.600 131.944 213.800 131.600 C 213.360 131.411,212.460 131.265,211.800 131.275 L 210.600 131.295 211.800 131.600 M182.800 132.400 C 182.005 132.914,183.004 132.914,184.200 132.400 L 185.000 132.056 184.200 132.034 C 183.760 132.022,183.130 132.187,182.800 132.400 M215.800 132.400 C 216.996 132.914,217.995 132.914,217.200 132.400 C 216.870 132.187,216.240 132.022,215.800 132.034 L 215.000 132.056 215.800 132.400 M180.000 133.200 C 179.467 133.545,179.467 133.588,180.000 133.588 C 180.330 133.588,180.870 133.413,181.200 133.200 C 181.733 132.855,181.733 132.812,181.200 132.812 C 180.870 132.812,180.330 132.987,180.000 133.200 M219.000 133.200 C 219.440 133.389,220.070 133.544,220.400 133.544 C 220.778 133.544,220.704 133.417,220.200 133.200 C 219.760 133.011,219.130 132.856,218.800 132.856 C 218.422 132.856,218.496 132.983,219.000 133.200 M175.200 134.800 C 174.667 135.145,174.667 135.188,175.200 135.188 C 175.530 135.188,176.070 135.013,176.400 134.800 C 176.933 134.455,176.933 134.412,176.400 134.412 C 176.070 134.412,175.530 134.587,175.200 134.800 M170.036 137.022 C 167.966 138.003,166.355 138.888,166.456 138.989 C 166.557 139.090,168.431 138.288,170.620 137.206 C 172.809 136.124,174.420 135.239,174.200 135.239 C 173.980 135.239,172.106 136.041,170.036 137.022 M227.600 136.195 C 227.600 136.405,230.335 137.611,230.749 137.583 C 231.070 137.562,228.301 136.039,227.900 136.017 C 227.735 136.008,227.600 136.088,227.600 136.195 M231.600 137.998 C 231.930 138.238,233.682 139.309,235.493 140.377 C 240.073 143.078,244.160 146.230,248.486 150.398 C 250.516 152.354,252.229 153.904,252.291 153.842 C 252.477 153.656,245.130 146.671,243.400 145.390 C 242.520 144.738,241.710 144.100,241.600 143.972 C 241.111 143.405,236.349 140.397,233.800 139.046 C 232.260 138.229,231.270 137.758,231.600 137.998 M164.100 140.226 C 162.212 141.358,161.777 141.949,163.500 141.041 C 164.709 140.403,166.316 139.231,166.000 139.217 C 165.890 139.212,165.035 139.666,164.100 140.226 M159.116 143.500 C 157.644 144.545,156.430 145.546,156.420 145.723 C 156.404 145.987,160.342 143.204,161.780 141.935 C 162.782 141.051,161.529 141.787,159.116 143.500 M152.795 148.747 C 151.142 150.256,148.919 152.551,147.854 153.846 L 145.918 156.200 148.459 153.509 C 149.857 152.029,152.170 149.739,153.600 148.420 C 155.030 147.101,156.110 146.018,156.000 146.012 C 155.890 146.007,154.448 147.238,152.795 148.747 M253.768 156.100 C 254.609 157.145,255.377 158.000,255.475 158.000 C 255.792 158.000,254.117 155.826,253.163 155.000 C 252.655 154.560,252.928 155.055,253.768 156.100 M143.800 158.695 C 140.757 163.003,140.969 163.124,144.159 158.900 C 145.197 157.525,145.901 156.407,145.723 156.415 C 145.546 156.424,144.680 157.450,143.800 158.695 M257.323 160.900 C 258.292 162.275,259.757 164.615,260.577 166.100 C 262.347 169.303,262.924 169.745,261.293 166.648 C 259.732 163.684,256.270 158.411,255.880 158.405 C 255.704 158.402,256.353 159.525,257.323 160.900 M140.708 163.300 C 140.387 163.795,139.907 164.650,139.640 165.200 C 138.960 166.603,140.194 165.106,141.041 163.500 C 141.739 162.174,141.523 162.044,140.708 163.300 M137.400 169.200 C 136.602 170.785,136.028 172.162,136.125 172.259 C 136.223 172.356,136.944 171.127,137.727 169.527 C 138.511 167.928,139.085 166.551,139.002 166.468 C 138.919 166.386,138.198 167.615,137.400 169.200 M262.442 169.400 C 262.445 169.620,262.979 170.880,263.629 172.200 C 264.280 173.520,264.696 174.150,264.554 173.600 C 264.253 172.428,262.435 168.813,262.442 169.400 M134.600 175.600 C 134.450 176.073,134.417 176.550,134.527 176.660 C 134.637 176.770,134.850 176.473,135.000 176.000 C 135.150 175.527,135.183 175.050,135.073 174.940 C 134.963 174.830,134.750 175.127,134.600 175.600 M266.456 179.600 C 266.456 179.930,266.611 180.560,266.800 181.000 C 267.017 181.504,267.144 181.578,267.144 181.200 C 267.144 180.870,266.989 180.240,266.800 179.800 C 266.583 179.296,266.456 179.222,266.456 179.600 M133.000 180.400 C 132.850 180.873,132.817 181.350,132.927 181.460 C 133.037 181.570,133.250 181.273,133.400 180.800 C 133.550 180.327,133.583 179.850,133.473 179.740 C 133.363 179.630,133.150 179.927,133.000 180.400 M267.256 182.600 C 267.256 183.040,267.411 183.760,267.600 184.200 L 267.944 185.000 267.944 184.200 C 267.944 183.760,267.789 183.040,267.600 182.600 L 267.256 181.800 267.256 182.600 M132.273 182.953 C 132.123 183.345,132.011 183.966,132.025 184.333 C 132.042 184.775,132.181 184.674,132.437 184.034 C 132.649 183.503,132.761 182.882,132.685 182.654 C 132.609 182.427,132.424 182.561,132.273 182.953 M131.476 186.410 C 131.330 186.955,131.227 187.850,131.246 188.400 C 131.271 189.118,131.384 188.957,131.649 187.827 C 132.055 186.095,131.900 184.825,131.476 186.410 M268.068 186.200 C 268.074 186.640,268.224 187.450,268.400 188.000 L 268.720 189.000 268.732 188.000 C 268.738 187.450,268.589 186.640,268.400 186.200 L 268.056 185.400 268.068 186.200 M269.075 193.200 C 269.201 194.850,269.371 196.275,269.452 196.367 C 269.747 196.699,269.511 192.174,269.183 191.200 C 268.975 190.585,268.934 191.354,269.075 193.200 M130.653 192.036 C 130.514 192.731,130.428 194.853,130.461 196.750 L 130.523 200.200 130.813 195.600 C 131.116 190.794,131.077 189.916,130.653 192.036 M101.199 249.001 L 95.008 255.201 119.904 280.096 L 144.799 304.992 150.999 298.801 C 154.410 295.396,157.200 292.427,157.200 292.204 C 157.200 291.674,108.323 242.800,107.794 242.800 C 107.572 242.800,104.604 245.590,101.199 249.001 M282.971 251.709 C 278.116 256.599,274.002 260.838,273.830 261.128 C 273.459 261.756,285.000 273.600,285.983 273.600 C 286.565 273.600,300.000 260.637,303.345 256.849 L 304.889 255.099 298.749 248.949 C 295.373 245.567,292.428 242.804,292.205 242.809 C 291.982 242.815,287.827 246.820,282.971 251.709 M132.299 267.699 C 145.554 280.953,156.400 291.976,156.400 292.194 C 156.400 292.661,145.157 304.000,144.694 304.000 C 144.282 304.000,96.000 255.738,96.000 255.326 C 96.000 254.857,107.322 243.600,107.794 243.600 C 108.016 243.600,119.043 254.444,132.299 267.699 M298.295 249.295 C 301.433 252.427,304.000 255.160,304.000 255.369 C 304.000 255.993,286.640 273.222,286.128 273.106 C 285.391 272.941,274.400 262.071,274.400 261.508 C 274.400 260.918,291.606 243.600,292.192 243.600 C 292.411 243.600,295.157 246.163,298.295 249.295 M82.895 267.305 C 79.763 270.443,77.200 273.313,77.200 273.684 C 77.200 274.316,94.904 292.400,95.523 292.400 C 95.681 292.400,98.589 289.616,101.987 286.213 L 108.164 280.026 107.182 278.951 C 102.939 274.303,89.831 261.600,89.280 261.600 C 88.900 261.600,86.027 264.167,82.895 267.305 M301.177 270.610 C 296.240 275.566,292.119 279.712,292.019 279.825 C 291.783 280.091,304.072 292.400,304.575 292.400 C 305.379 292.400,322.800 274.627,322.800 273.807 C 322.800 272.840,311.724 261.600,310.772 261.600 C 310.432 261.600,306.115 265.655,301.177 270.610 M98.553 270.753 C 103.363 275.566,107.231 279.703,107.149 279.945 C 107.067 280.187,104.411 283.006,101.246 286.211 L 95.492 292.036 86.546 283.119 C 81.626 278.215,77.600 274.024,77.600 273.806 C 77.600 273.281,88.873 262.000,89.398 262.000 C 89.623 262.000,93.742 265.939,98.553 270.753 M316.695 267.695 C 319.833 270.827,322.400 273.577,322.400 273.807 C 322.400 274.036,318.359 278.250,313.421 283.170 L 304.442 292.117 302.015 289.512 C 300.680 288.079,297.957 285.352,295.962 283.451 L 292.337 279.995 301.354 270.998 C 306.313 266.049,310.510 262.000,310.681 262.000 C 310.851 262.000,313.557 264.563,316.695 267.695 M251.934 282.737 C 246.910 287.762,242.800 292.039,242.800 292.241 C 242.800 292.444,245.587 295.392,248.993 298.793 L 255.186 304.976 256.871 303.388 C 262.222 298.345,273.600 286.507,273.600 285.983 C 273.600 285.357,262.021 273.600,261.404 273.600 C 261.220 273.600,256.958 277.711,251.934 282.737 M267.495 280.095 C 270.633 283.227,273.200 285.972,273.199 286.195 C 273.199 286.707,255.900 304.000,255.389 304.000 C 254.879 304.000,243.600 292.718,243.600 292.209 C 243.600 291.685,260.869 274.400,261.392 274.400 C 261.611 274.400,264.357 276.963,267.495 280.095 M64.474 285.726 C 61.133 289.072,58.400 291.988,58.400 292.206 C 58.400 292.729,107.283 341.600,107.806 341.600 C 108.028 341.600,110.977 338.828,114.359 335.441 L 120.509 329.282 118.678 327.341 C 114.992 323.432,71.651 280.260,71.108 279.956 C 70.710 279.734,68.790 281.403,64.474 285.726 M320.008 288.601 C 314.943 293.648,310.800 298.060,310.800 298.406 C 310.800 299.064,322.384 310.800,323.033 310.800 C 323.539 310.800,341.600 292.699,341.600 292.192 C 341.600 291.971,338.813 289.008,335.408 285.608 L 329.215 279.425 320.008 288.601 M95.444 304.547 C 108.730 317.828,119.600 328.850,119.600 329.042 C 119.600 329.532,108.298 340.800,107.806 340.800 C 107.283 340.800,59.200 292.729,59.200 292.206 C 59.200 291.718,70.453 280.400,70.939 280.400 C 71.131 280.400,82.158 291.266,95.444 304.547 M335.095 286.095 C 338.233 289.227,340.800 291.973,340.800 292.198 C 340.800 292.423,336.777 296.626,331.861 301.539 L 322.921 310.472 317.061 304.559 C 313.837 301.307,311.200 298.531,311.200 298.391 C 311.200 298.039,328.758 280.400,329.108 280.400 C 329.263 280.400,331.957 282.963,335.095 286.095 M113.625 298.175 C 108.046 303.763,107.514 304.415,108.030 305.037 C 109.144 306.379,125.685 322.800,125.924 322.800 C 126.224 322.800,124.518 321.046,115.500 312.081 C 111.595 308.199,108.400 304.835,108.400 304.606 C 108.400 304.075,119.676 292.800,120.207 292.800 C 120.717 292.800,138.000 310.096,138.000 310.606 C 138.000 310.817,135.347 313.647,132.105 316.895 C 128.863 320.143,126.396 322.800,126.622 322.800 C 127.820 322.800,138.912 310.817,138.358 310.122 C 137.298 308.791,120.356 292.000,120.074 292.000 C 119.918 292.000,117.016 294.779,113.625 298.175 M270.790 300.979 C 265.846 305.918,261.737 310.263,261.660 310.634 C 261.523 311.297,271.709 321.959,273.342 322.863 C 274.063 323.261,290.824 307.318,292.071 305.047 C 292.438 304.380,280.979 292.000,279.995 292.000 C 279.877 292.000,275.735 296.041,270.790 300.979 M285.895 298.495 C 289.033 301.627,291.600 304.373,291.600 304.598 C 291.600 304.823,287.593 309.011,282.696 313.904 L 273.792 322.802 267.896 316.896 C 264.653 313.648,262.000 310.854,262.000 310.687 C 262.000 310.265,279.429 292.800,279.850 292.800 C 280.037 292.800,282.757 295.363,285.895 298.495 M288.601 319.999 L 279.408 329.198 285.599 335.399 C 289.004 338.810,291.978 341.600,292.207 341.600 C 292.708 341.600,310.800 323.511,310.800 323.010 C 310.800 322.381,299.052 310.800,298.414 310.800 C 298.073 310.800,293.657 314.940,288.601 319.999 M304.504 317.104 L 310.398 323.008 301.496 331.904 C 296.600 336.797,292.413 340.800,292.192 340.800 C 290.983 340.800,280.269 329.240,280.830 328.542 C 281.783 327.359,298.136 311.200,298.381 311.200 C 298.507 311.200,301.262 313.857,304.504 317.104 " stroke="none" fill="#929293" fill-rule="evenodd"></path><path id="path4" d="M130.400 203.154 C 130.400 211.758,133.552 223.255,138.518 232.762 C 161.282 276.347,223.401 282.420,254.006 244.053 C 254.773 243.092,255.586 242.102,255.814 241.853 C 262.537 234.491,268.771 217.381,269.459 204.400 L 269.682 200.200 200.041 200.200 L 130.400 200.200 130.400 203.154 " stroke="none" fill="#5a8cc9" fill-rule="evenodd"></path></g></svg>