<svg xmlns="http://www.w3.org/2000/svg" width="400" height="432.72727273"><g fill="#04C8C8"><path d="M117.455 79.683C106.226 80.982 96 87.37 96 93.084c0 17.493 21.343 37.021 54.348 49.725 19.468 7.494 40.401 13.468 61.798 17.637l4.328.844-3.827 5.082c-6.399 8.5-12.47 15.224-22.998 25.475-26.008 25.324-45.439 48.431-59.91 71.244-7.289 11.491-13.578 22.822-14.84 26.737-17.943 55.668-.907 96.631 48.59 116.829 37.412 15.267 88.508 8.517 131.634-17.387 36.981-22.213 71.09-60.171 84.631-94.179 3.814-9.578 5.62-17.42 2.387-10.364-16.145 35.242-32.571 55.677-60.686 75.499-30.209 21.298-63.028 29.464-97.637 24.294-24.897-3.72-39.954-18.323-44.018-42.691-3.016-18.091 6.678-59.414 19.539-83.284 2.348-4.359 7.86-14.047 10.24-18 15.208-25.256 39.733-41.574 72.7-48.371 29.836-6.152 38.735-12.156 37.988-25.629-.349-6.285-1.101-7.604-8.351-14.633-11.303-10.958-25.243-17.957-43.734-21.957l-4.727-1.022-17.952-.122-17.952-.122-3.503-2.649c-25.394-19.202-54.029-36.295-71.503-42.682-8.605-3.146-24.91-4.853-35.09-3.675m33.636 27.775c8.063 1.827 25.032 7.924 31.074 11.166 15.802 8.48 27.588 18.096 33.263 27.142l.994 1.585-2.302-.249c-9.542-1.032-25.229-5.979-44.12-13.915-19.104-8.025-31.818-17.539-31.818-23.809 0-3.004 4.903-3.734 12.909-1.92"/><path d="M188.182 19.284c-29.63 3.179-50.302 9.987-74.583 24.562-60.805 36.5-97.081 109.332-92.54 185.792.487 8.192 1.604 14.432 4.946 27.635 12.4 48.979 34.064 85.848 64.277 109.39 3.871 3.017 13.351 9.461 13.58 9.232.079-.078-.821-2.091-1.999-4.473-9.639-19.496-11.997-41.294-7.117-65.786 1.272-6.385 3.32-13.857 5.174-18.883l1.063-2.884-1.972-4.345c-23.458-51.666-21.201-98.442 6.72-139.33l3.468-5.079-1.016-.739C78.02 112.431 71.617 86.658 93.091 73.618c21.142-12.838 46.39-12.292 74.077 1.602l3.565 1.789 3.452-1.624c45.545-21.433 93.003-21.78 135.815-.993 34.39 16.697 59.827 43.538 72.86 76.881 2.58 6.6 1.761 2.807-1.28-5.929-22.293-64.048-80.838-114.192-145.762-124.846-12.425-2.039-34.662-2.606-47.636-1.214" fill-rule="evenodd"/></g></svg>