<svg xmlns="http://www.w3.org/2000/svg" width="400" height="400" viewBox="0, 0, 400,400">
    <g>
        <path
            d="M178.300 0.274 C 176.375 0.360,174.800 0.604,174.800 0.816 C 174.800 1.027,173.551 1.200,172.024 1.200 C 170.497 1.200,169.136 1.380,169.000 1.600 C 168.864 1.820,167.874 2.000,166.800 2.000 C 165.726 2.000,164.736 2.180,164.600 2.400 C 164.464 2.620,163.363 2.800,162.153 2.800 C 160.788 2.800,160.047 2.952,160.200 3.200 C 160.352 3.446,159.679 3.600,158.447 3.600 C 157.347 3.600,156.336 3.780,156.200 4.000 C 156.064 4.220,155.243 4.400,154.376 4.400 C 153.509 4.400,152.800 4.580,152.800 4.800 C 152.800 5.020,152.181 5.200,151.424 5.200 C 150.667 5.200,149.936 5.380,149.800 5.600 C 149.664 5.820,148.933 6.000,148.176 6.000 C 147.419 6.000,146.800 6.180,146.800 6.400 C 146.800 6.620,146.271 6.800,145.624 6.800 C 144.977 6.800,144.336 6.980,144.200 7.200 C 144.064 7.420,143.434 7.600,142.800 7.600 C 142.166 7.600,141.548 7.760,141.427 7.956 C 141.306 8.151,140.621 8.401,139.904 8.511 C 137.573 8.868,131.092 10.997,128.692 12.194 C 128.024 12.527,127.055 12.800,126.539 12.800 C 126.022 12.800,125.600 12.980,125.600 13.200 C 125.600 13.420,125.240 13.600,124.800 13.600 C 124.360 13.600,124.000 13.780,124.000 14.000 C 124.000 14.220,123.645 14.400,123.212 14.400 C 122.779 14.400,121.783 14.760,121.000 15.200 C 120.217 15.640,119.311 16.000,118.988 16.000 C 118.665 16.000,118.400 16.180,118.400 16.400 C 118.400 16.620,118.040 16.800,117.600 16.800 C 117.160 16.800,116.800 16.941,116.800 17.113 C 116.800 17.285,115.990 17.665,115.000 17.957 C 114.010 18.249,113.200 18.648,113.200 18.844 C 113.200 19.040,112.840 19.200,112.400 19.200 C 111.960 19.200,111.600 19.380,111.600 19.600 C 111.600 19.820,111.240 20.000,110.800 20.000 C 110.360 20.000,110.000 20.180,110.000 20.400 C 110.000 20.620,109.640 20.800,109.200 20.800 C 108.760 20.800,108.400 20.980,108.400 21.200 C 108.400 21.420,108.040 21.600,107.600 21.600 C 107.160 21.600,106.800 21.780,106.800 22.000 C 106.800 22.220,106.440 22.400,106.000 22.400 C 105.560 22.400,105.200 22.580,105.200 22.800 C 105.200 23.020,104.930 23.200,104.600 23.200 C 104.270 23.200,104.000 23.380,104.000 23.600 C 104.000 23.820,103.730 24.000,103.400 24.000 C 103.070 24.000,102.800 24.180,102.800 24.400 C 102.800 24.620,102.440 24.800,102.000 24.800 C 101.560 24.800,101.200 24.980,101.200 25.200 C 101.200 25.420,100.883 25.600,100.495 25.600 C 100.107 25.600,98.854 26.230,97.710 27.000 C 96.567 27.770,95.444 28.400,95.216 28.400 C 94.987 28.400,94.800 28.580,94.800 28.800 C 94.800 29.020,94.530 29.200,94.200 29.200 C 93.870 29.200,93.600 29.358,93.600 29.551 C 93.600 29.745,93.060 30.127,92.400 30.400 C 91.740 30.673,91.200 31.055,91.200 31.249 C 91.200 31.442,90.964 31.600,90.675 31.600 C 90.387 31.600,89.764 31.960,89.292 32.400 C 88.820 32.840,88.196 33.200,87.905 33.200 C 87.614 33.200,87.117 33.560,86.800 34.000 C 86.483 34.440,86.038 34.800,85.812 34.801 C 85.585 34.801,84.770 35.341,84.000 36.000 C 83.230 36.659,82.415 37.199,82.188 37.199 C 81.962 37.200,81.517 37.560,81.200 38.000 C 80.883 38.440,80.485 38.800,80.316 38.800 C 80.042 38.800,79.218 39.403,77.855 40.600 C 77.605 40.820,76.680 41.533,75.800 42.186 C 74.920 42.838,73.962 43.603,73.671 43.886 C 73.381 44.168,73.004 44.400,72.834 44.400 C 72.664 44.400,71.619 45.255,70.511 46.300 C 68.153 48.525,66.873 49.600,66.581 49.600 C 66.466 49.600,64.573 51.445,62.373 53.700 C 60.174 55.955,58.192 57.980,57.968 58.200 C 57.745 58.420,55.771 60.363,53.581 62.517 C 51.392 64.671,49.600 66.514,49.600 66.612 C 49.600 66.893,48.354 68.352,46.489 70.254 C 45.549 71.214,44.887 72.000,45.018 72.000 C 45.150 72.000,45.019 72.264,44.729 72.586 C 44.014 73.378,43.583 73.922,42.188 75.792 C 40.692 77.797,39.934 78.748,39.300 79.416 C 39.025 79.706,38.800 80.096,38.800 80.283 C 38.800 80.470,38.440 80.883,38.000 81.200 C 37.560 81.517,37.200 82.025,37.200 82.328 C 37.200 82.631,36.660 83.383,36.000 84.000 C 35.340 84.617,34.800 85.369,34.800 85.672 C 34.800 85.975,34.440 86.483,34.000 86.800 C 33.560 87.117,33.200 87.697,33.200 88.088 C 33.200 88.480,33.050 88.800,32.868 88.800 C 32.685 88.800,32.280 89.295,31.968 89.900 C 31.656 90.505,31.311 91.090,31.201 91.200 C 30.600 91.799,29.200 94.027,29.200 94.384 C 29.200 94.613,29.020 94.800,28.800 94.800 C 28.580 94.800,28.400 94.987,28.400 95.216 C 28.400 95.444,27.770 96.567,27.000 97.710 C 26.230 98.854,25.600 100.107,25.600 100.495 C 25.600 100.883,25.420 101.200,25.200 101.200 C 24.980 101.200,24.800 101.560,24.800 102.000 C 24.800 102.440,24.620 102.800,24.400 102.800 C 24.180 102.800,24.000 103.070,24.000 103.400 C 24.000 103.730,23.865 104.001,23.700 104.001 C 23.535 104.002,22.950 104.992,22.400 106.200 C 21.850 107.408,21.265 108.398,21.100 108.399 C 20.935 108.399,20.800 108.760,20.800 109.200 C 20.800 109.640,20.620 110.000,20.400 110.000 C 20.180 110.000,20.000 110.360,20.000 110.800 C 20.000 111.240,19.820 111.600,19.600 111.600 C 19.380 111.600,19.200 111.960,19.200 112.400 C 19.200 112.840,19.020 113.200,18.800 113.200 C 18.580 113.200,18.400 113.389,18.400 113.619 C 18.400 113.850,18.040 114.784,17.600 115.694 C 17.160 116.605,16.800 117.586,16.800 117.875 C 16.800 118.164,16.620 118.400,16.400 118.400 C 16.180 118.400,16.000 118.636,16.000 118.925 C 16.000 119.214,15.640 120.195,15.200 121.106 C 14.760 122.016,14.400 123.040,14.400 123.381 C 14.400 123.721,14.220 124.000,14.000 124.000 C 13.780 124.000,13.600 124.360,13.600 124.800 C 13.600 125.240,13.420 125.600,13.200 125.600 C 12.980 125.600,12.800 126.016,12.800 126.525 C 12.800 127.034,12.440 128.195,12.000 129.106 C 11.560 130.016,11.200 130.952,11.200 131.186 C 11.200 131.420,11.024 131.923,10.809 132.305 C 10.132 133.508,8.400 139.174,8.400 140.185 C 8.400 140.717,8.220 141.264,8.000 141.400 C 7.780 141.536,7.600 142.166,7.600 142.800 C 7.600 143.434,7.420 144.064,7.200 144.200 C 6.980 144.336,6.800 144.876,6.800 145.400 C 6.800 145.924,6.620 146.464,6.400 146.600 C 6.180 146.736,6.000 147.456,6.000 148.200 C 6.000 148.944,5.820 149.664,5.600 149.800 C 5.380 149.936,5.200 150.667,5.200 151.424 C 5.200 152.181,5.020 152.800,4.800 152.800 C 4.580 152.800,4.400 153.700,4.400 154.800 C 4.400 155.900,4.220 156.800,4.000 156.800 C 3.780 156.800,3.600 157.509,3.600 158.376 C 3.600 159.243,3.420 160.064,3.200 160.200 C 2.980 160.336,2.800 161.236,2.800 162.200 C 2.800 163.164,2.620 164.064,2.400 164.200 C 2.180 164.336,2.000 165.517,2.000 166.824 C 2.000 168.141,1.822 169.200,1.600 169.200 C 1.376 169.200,1.200 170.307,1.200 171.720 C 1.200 173.203,0.994 174.446,0.700 174.740 C 0.311 175.129,0.200 180.743,0.200 200.087 C 0.200 219.608,0.307 224.969,0.700 225.100 C 1.036 225.212,1.200 226.176,1.200 228.033 C 1.200 229.611,1.372 230.800,1.600 230.800 C 1.822 230.800,2.000 231.859,2.000 233.176 C 2.000 234.483,2.180 235.664,2.400 235.800 C 2.620 235.936,2.800 236.836,2.800 237.800 C 2.800 238.764,2.980 239.664,3.200 239.800 C 3.420 239.936,3.600 240.757,3.600 241.624 C 3.600 242.491,3.780 243.200,4.000 243.200 C 4.220 243.200,4.400 244.100,4.400 245.200 C 4.400 246.300,4.580 247.200,4.800 247.200 C 5.020 247.200,5.200 247.920,5.200 248.800 C 5.200 249.680,5.380 250.400,5.600 250.400 C 5.820 250.400,6.000 250.929,6.000 251.576 C 6.000 252.223,6.180 252.864,6.400 253.000 C 6.620 253.136,6.800 253.867,6.800 254.624 C 6.800 255.381,6.980 256.000,7.200 256.000 C 7.420 256.000,7.600 256.630,7.600 257.400 C 7.600 258.170,7.780 258.800,8.000 258.800 C 8.220 258.800,8.400 259.246,8.400 259.792 C 8.400 260.703,9.911 265.774,10.817 267.900 C 12.427 271.681,13.169 273.897,12.912 274.155 C 12.777 274.290,12.877 274.400,13.133 274.400 C 13.390 274.400,13.600 274.760,13.600 275.200 C 13.600 275.640,13.780 276.000,14.000 276.000 C 14.220 276.000,14.400 276.349,14.400 276.776 C 14.400 277.203,14.580 277.664,14.800 277.800 C 15.020 277.936,15.200 278.487,15.200 279.024 C 15.200 279.561,15.380 280.000,15.600 280.000 C 15.820 280.000,16.000 280.360,16.000 280.800 C 16.000 281.240,16.180 281.600,16.400 281.600 C 16.620 281.600,16.800 281.960,16.800 282.400 C 16.800 282.840,16.980 283.200,17.200 283.200 C 17.420 283.200,17.600 283.650,17.600 284.200 C 17.600 284.750,17.780 285.200,18.000 285.200 C 18.220 285.200,18.400 285.453,18.400 285.762 C 18.400 286.428,20.068 289.741,20.500 289.933 C 20.665 290.007,20.800 290.412,20.800 290.833 C 20.800 291.255,20.935 291.601,21.100 291.603 C 21.411 291.606,22.400 293.503,22.400 294.096 C 22.400 294.282,22.760 294.820,23.200 295.292 C 23.640 295.764,24.000 296.387,24.000 296.675 C 24.000 296.964,24.180 297.200,24.400 297.200 C 24.620 297.200,24.813 297.515,24.829 297.900 C 24.845 298.285,25.203 299.140,25.625 299.800 C 26.046 300.460,26.516 301.270,26.668 301.600 C 27.096 302.530,30.782 308.386,31.200 308.800 C 31.310 308.910,31.656 309.495,31.968 310.100 C 32.280 310.705,32.685 311.200,32.868 311.200 C 33.050 311.200,33.200 311.472,33.200 311.804 C 33.200 312.136,33.740 312.972,34.400 313.663 C 35.060 314.354,35.600 315.096,35.600 315.312 C 35.600 315.529,35.916 315.997,36.303 316.353 C 36.689 316.709,37.260 317.495,37.570 318.100 C 37.881 318.705,38.285 319.200,38.468 319.200 C 38.650 319.200,38.800 319.426,38.800 319.702 C 38.800 319.978,39.520 320.969,40.400 321.903 C 41.280 322.837,42.000 323.704,42.000 323.829 C 42.000 323.955,42.225 324.292,42.500 324.580 C 42.775 324.867,43.270 325.506,43.600 326.000 C 43.930 326.494,44.438 327.146,44.729 327.449 C 45.019 327.752,45.178 328.000,45.082 328.000 C 44.985 328.000,45.962 329.120,47.253 330.489 C 48.544 331.859,49.600 333.111,49.600 333.273 C 49.600 333.434,51.392 335.329,53.581 337.483 C 55.771 339.637,57.745 341.580,57.968 341.800 C 58.192 342.020,60.174 344.045,62.373 346.300 C 64.573 348.555,66.513 350.401,66.686 350.402 C 66.859 350.404,68.256 351.574,69.792 353.002 C 71.327 354.431,72.710 355.600,72.863 355.600 C 73.017 355.600,73.381 355.832,73.671 356.114 C 73.962 356.397,74.916 357.162,75.792 357.814 C 77.786 359.299,78.744 360.062,79.416 360.700 C 79.706 360.975,80.096 361.200,80.283 361.200 C 80.470 361.200,80.883 361.560,81.200 362.000 C 81.517 362.440,81.962 362.800,82.188 362.800 C 82.415 362.801,83.123 363.251,83.762 363.800 C 84.401 364.350,85.068 364.800,85.244 364.800 C 85.420 364.800,86.014 365.250,86.564 365.800 C 87.114 366.350,87.759 366.800,87.999 366.800 C 88.238 366.800,88.820 367.160,89.292 367.600 C 89.764 368.040,90.387 368.400,90.675 368.400 C 90.964 368.400,91.200 368.542,91.200 368.715 C 91.200 368.889,92.235 369.652,93.500 370.412 C 94.765 371.171,95.860 371.929,95.933 372.096 C 96.007 372.263,96.223 372.400,96.413 372.400 C 96.604 372.400,97.804 373.030,99.080 373.799 C 100.356 374.568,101.715 375.198,102.100 375.199 C 102.485 375.200,102.800 375.358,102.800 375.551 C 102.800 375.745,103.340 376.127,104.000 376.400 C 104.660 376.673,105.200 377.055,105.200 377.249 C 105.200 377.442,105.434 377.600,105.720 377.600 C 106.456 377.600,108.393 378.541,108.397 378.900 C 108.399 379.065,108.745 379.200,109.167 379.200 C 109.588 379.200,109.993 379.343,110.067 379.519 C 110.247 379.949,113.839 381.600,114.596 381.600 C 114.928 381.600,115.200 381.780,115.200 382.000 C 115.200 382.220,115.560 382.400,116.000 382.400 C 116.440 382.400,116.800 382.580,116.800 382.800 C 116.800 383.020,117.160 383.200,117.600 383.200 C 118.040 383.200,118.400 383.380,118.400 383.600 C 118.400 383.820,118.760 384.000,119.200 384.000 C 119.640 384.000,120.000 384.147,120.000 384.328 C 120.000 384.508,120.900 384.900,122.000 385.200 C 123.100 385.500,124.000 385.853,124.000 385.985 C 124.000 386.117,124.855 386.475,125.900 386.780 C 126.945 387.085,128.070 387.469,128.400 387.634 C 131.537 389.198,138.827 391.600,140.436 391.600 C 141.076 391.600,141.600 391.780,141.600 392.000 C 141.600 392.220,142.129 392.400,142.776 392.400 C 143.423 392.400,144.064 392.580,144.200 392.800 C 144.336 393.020,144.876 393.200,145.400 393.200 C 145.924 393.200,146.464 393.380,146.600 393.600 C 146.736 393.820,147.467 394.000,148.224 394.000 C 148.981 394.000,149.600 394.180,149.600 394.400 C 149.600 394.620,150.320 394.800,151.200 394.800 C 152.080 394.800,152.800 394.980,152.800 395.200 C 152.800 395.420,153.700 395.600,154.800 395.600 C 155.900 395.600,156.800 395.780,156.800 396.000 C 156.800 396.220,157.621 396.400,158.624 396.400 C 159.737 396.400,160.351 396.556,160.200 396.800 C 160.047 397.048,160.796 397.200,162.176 397.200 C 163.399 397.200,164.400 397.380,164.400 397.600 C 164.400 397.820,165.379 398.000,166.576 398.000 C 167.773 398.000,168.864 398.180,169.000 398.400 C 169.136 398.620,170.482 398.800,171.990 398.800 C 173.829 398.800,174.788 398.965,174.900 399.300 C 175.144 400.032,224.856 400.032,225.100 399.300 C 225.212 398.965,226.171 398.800,228.010 398.800 C 229.518 398.800,230.864 398.620,231.000 398.400 C 231.136 398.180,232.227 398.000,233.424 398.000 C 234.621 398.000,235.600 397.820,235.600 397.600 C 235.600 397.380,236.590 397.200,237.800 397.200 C 239.010 397.200,240.000 397.020,240.000 396.800 C 240.000 396.580,240.709 396.400,241.576 396.400 C 242.443 396.400,243.264 396.220,243.400 396.000 C 243.536 395.780,244.447 395.600,245.424 395.600 C 246.401 395.600,247.200 395.420,247.200 395.200 C 247.200 394.980,247.920 394.800,248.800 394.800 C 249.680 394.800,250.400 394.620,250.400 394.400 C 250.400 394.180,251.030 394.000,251.800 394.000 C 252.570 394.000,253.200 393.820,253.200 393.600 C 253.200 393.380,253.830 393.200,254.600 393.200 C 255.370 393.200,256.000 393.020,256.000 392.800 C 256.000 392.580,256.630 392.400,257.400 392.400 C 258.170 392.400,258.800 392.220,258.800 392.000 C 258.800 391.780,259.241 391.600,259.780 391.600 C 260.960 391.600,269.744 388.755,269.933 388.312 C 270.007 388.140,270.414 388.000,270.839 388.000 C 271.585 388.000,271.976 387.855,273.895 386.862 C 274.387 386.608,275.062 386.400,275.395 386.400 C 275.728 386.400,276.000 386.220,276.000 386.000 C 276.000 385.780,276.355 385.600,276.788 385.600 C 277.221 385.600,278.217 385.240,279.000 384.800 C 279.783 384.360,280.689 384.000,281.012 384.000 C 281.335 384.000,281.600 383.820,281.600 383.600 C 281.600 383.380,281.872 383.200,282.205 383.200 C 282.538 383.200,283.123 383.032,283.505 382.826 C 283.887 382.621,284.785 382.217,285.500 381.929 C 286.215 381.640,286.800 381.269,286.800 381.102 C 286.800 380.936,287.034 380.800,287.320 380.800 C 288.056 380.800,289.993 379.859,289.997 379.500 C 289.999 379.335,290.360 379.200,290.800 379.200 C 291.240 379.200,291.600 379.020,291.600 378.800 C 291.600 378.580,291.960 378.400,292.400 378.400 C 292.840 378.400,293.200 378.220,293.200 378.000 C 293.200 377.780,293.436 377.600,293.725 377.600 C 294.013 377.600,294.636 377.240,295.108 376.800 C 295.580 376.360,296.244 376.000,296.583 376.000 C 296.922 376.000,297.200 375.820,297.200 375.600 C 297.200 375.380,297.487 375.200,297.838 375.200 C 298.429 375.200,300.742 374.085,301.200 373.579 C 301.310 373.458,302.050 373.056,302.845 372.687 C 303.640 372.317,304.517 371.741,304.794 371.407 C 305.071 371.073,305.546 370.800,305.849 370.800 C 306.152 370.800,306.400 370.620,306.400 370.400 C 306.400 370.180,306.636 370.000,306.925 370.000 C 307.213 370.000,307.836 369.640,308.308 369.200 C 308.780 368.760,309.404 368.400,309.695 368.400 C 309.986 368.400,310.483 368.040,310.800 367.600 C 311.117 367.160,311.657 366.800,312.000 366.800 C 312.343 366.800,312.883 366.440,313.200 366.000 C 313.517 365.560,313.980 365.200,314.229 365.200 C 314.478 365.200,315.246 364.660,315.937 364.000 C 316.628 363.340,317.425 362.800,317.708 362.800 C 317.991 362.800,318.483 362.440,318.800 362.000 C 319.117 361.560,319.572 361.200,319.810 361.200 C 320.049 361.200,320.931 360.570,321.772 359.800 C 322.613 359.030,323.423 358.400,323.572 358.400 C 323.721 358.400,324.531 357.770,325.372 357.000 C 326.213 356.230,327.013 355.597,327.150 355.593 C 327.288 355.589,328.390 354.665,329.600 353.538 C 330.810 352.412,332.428 351.020,333.195 350.445 C 333.963 349.870,336.173 347.780,338.107 345.800 C 340.042 343.820,341.780 342.046,341.971 341.859 C 342.162 341.671,344.015 339.855,346.089 337.823 C 348.164 335.791,350.388 333.431,351.031 332.579 C 351.674 331.727,352.965 330.226,353.900 329.243 C 354.835 328.261,355.600 327.332,355.600 327.179 C 355.600 327.026,356.230 326.213,357.000 325.372 C 357.770 324.531,358.400 323.719,358.400 323.566 C 358.400 323.413,359.026 322.593,359.791 321.744 C 360.556 320.895,361.186 320.015,361.191 319.788 C 361.196 319.562,361.560 319.117,362.000 318.800 C 362.440 318.483,362.800 317.991,362.800 317.708 C 362.800 317.425,363.340 316.628,364.000 315.937 C 364.660 315.246,365.200 314.478,365.200 314.229 C 365.200 313.980,365.560 313.517,366.000 313.200 C 366.440 312.883,366.800 312.343,366.800 312.000 C 366.800 311.657,367.160 311.117,367.600 310.800 C 368.040 310.483,368.400 309.986,368.400 309.695 C 368.400 309.404,368.736 308.806,369.146 308.366 C 369.557 307.925,370.305 306.763,370.809 305.782 C 371.313 304.802,371.834 304.000,371.965 304.000 C 372.097 304.000,372.462 303.419,372.776 302.709 C 373.090 301.999,373.764 300.804,374.274 300.053 C 374.783 299.303,375.200 298.368,375.200 297.978 C 375.200 297.587,375.335 297.207,375.500 297.133 C 375.876 296.966,377.175 294.836,377.471 293.900 C 377.593 293.515,377.852 293.200,378.047 293.200 C 378.241 293.200,378.400 292.840,378.400 292.400 C 378.400 291.960,378.580 291.600,378.800 291.600 C 379.020 291.600,379.200 291.255,379.200 290.833 C 379.200 290.412,379.335 290.007,379.500 289.933 C 379.665 289.860,380.225 288.900,380.744 287.800 C 381.263 286.700,381.848 285.487,382.044 285.105 C 382.240 284.723,382.400 284.138,382.400 283.805 C 382.400 283.472,382.580 283.200,382.800 283.200 C 383.020 283.200,383.200 282.840,383.200 282.400 C 383.200 281.960,383.380 281.600,383.600 281.600 C 383.820 281.600,384.000 281.364,384.000 281.075 C 384.000 280.786,384.360 279.805,384.800 278.894 C 385.240 277.984,385.600 276.960,385.600 276.619 C 385.600 276.279,385.780 276.000,386.000 276.000 C 386.220 276.000,386.400 275.728,386.400 275.395 C 386.400 275.062,386.580 274.432,386.800 273.995 C 387.020 273.558,387.380 272.842,387.600 272.405 C 387.820 271.968,388.000 271.263,388.000 270.839 C 388.000 270.414,388.140 270.007,388.312 269.933 C 388.755 269.744,391.600 260.960,391.600 259.780 C 391.600 259.241,391.780 258.800,392.000 258.800 C 392.220 258.800,392.400 258.170,392.400 257.400 C 392.400 256.630,392.580 256.000,392.800 256.000 C 393.020 256.000,393.200 255.381,393.200 254.624 C 393.200 253.867,393.380 253.136,393.600 253.000 C 393.820 252.864,394.000 252.223,394.000 251.576 C 394.000 250.929,394.180 250.400,394.400 250.400 C 394.620 250.400,394.800 249.680,394.800 248.800 C 394.800 247.920,394.980 247.200,395.200 247.200 C 395.420 247.200,395.600 246.300,395.600 245.200 C 395.600 244.100,395.780 243.200,396.000 243.200 C 396.220 243.200,396.400 242.480,396.400 241.600 C 396.400 240.720,396.580 240.000,396.800 240.000 C 397.020 240.000,397.200 239.010,397.200 237.800 C 397.200 236.590,397.380 235.600,397.600 235.600 C 397.820 235.600,398.000 234.621,398.000 233.424 C 398.000 232.227,398.180 231.136,398.400 231.000 C 398.620 230.864,398.800 229.539,398.800 228.056 C 398.800 226.433,398.999 225.161,399.300 224.860 C 399.689 224.471,399.800 218.897,399.800 199.713 C 399.800 180.352,399.693 175.031,399.300 174.900 C 398.965 174.788,398.800 173.829,398.800 171.990 C 398.800 170.482,398.620 169.136,398.400 169.000 C 398.180 168.864,398.000 167.773,398.000 166.576 C 398.000 165.379,397.820 164.400,397.600 164.400 C 397.380 164.400,397.200 163.511,397.200 162.424 C 397.200 161.337,397.020 160.336,396.800 160.200 C 396.580 160.064,396.400 159.243,396.400 158.376 C 396.400 157.509,396.220 156.800,396.000 156.800 C 395.780 156.800,395.600 155.900,395.600 154.800 C 395.600 153.700,395.420 152.800,395.200 152.800 C 394.980 152.800,394.800 152.181,394.800 151.424 C 394.800 150.667,394.620 149.936,394.400 149.800 C 394.180 149.664,394.000 148.944,394.000 148.200 C 394.000 147.456,393.820 146.736,393.600 146.600 C 393.380 146.464,393.200 145.924,393.200 145.400 C 393.200 144.876,393.020 144.336,392.800 144.200 C 392.580 144.064,392.400 143.333,392.400 142.576 C 392.400 141.819,392.220 141.200,392.000 141.200 C 391.780 141.200,391.600 140.754,391.600 140.208 C 391.600 138.846,389.610 132.776,388.353 130.305 C 388.159 129.923,388.000 129.248,388.000 128.805 C 388.000 128.362,387.853 128.000,387.672 128.000 C 387.492 128.000,387.100 127.100,386.800 126.000 C 386.500 124.900,386.108 124.000,385.928 124.000 C 385.747 124.000,385.600 123.561,385.600 123.024 C 385.600 122.487,385.420 121.936,385.200 121.800 C 384.980 121.664,384.800 121.203,384.800 120.776 C 384.800 120.349,384.620 120.000,384.400 120.000 C 384.180 120.000,384.000 119.640,384.000 119.200 C 384.000 118.760,383.820 118.400,383.600 118.400 C 383.380 118.400,383.200 118.040,383.200 117.600 C 383.200 117.160,383.020 116.800,382.800 116.800 C 382.580 116.800,382.400 116.350,382.400 115.800 C 382.400 115.250,382.220 114.800,382.000 114.800 C 381.780 114.800,381.600 114.440,381.600 114.000 C 381.600 113.560,381.420 113.200,381.200 113.200 C 380.980 113.200,380.800 112.966,380.800 112.680 C 380.800 111.944,379.859 110.007,379.500 110.003 C 379.335 110.001,379.200 109.640,379.200 109.200 C 379.200 108.760,379.020 108.400,378.800 108.400 C 378.580 108.400,378.400 108.040,378.400 107.600 C 378.400 107.160,378.265 106.797,378.100 106.794 C 377.935 106.790,377.360 105.890,376.821 104.794 C 376.283 103.697,375.698 102.800,375.521 102.800 C 375.345 102.800,375.200 102.474,375.200 102.076 C 375.200 101.679,374.570 100.307,373.800 99.028 C 373.030 97.749,372.400 96.545,372.400 96.352 C 372.400 96.158,372.265 96.000,372.099 96.000 C 371.934 96.000,371.354 95.145,370.810 94.100 C 370.266 93.055,369.502 91.909,369.111 91.553 C 368.720 91.197,368.400 90.652,368.400 90.341 C 368.400 90.031,368.040 89.517,367.600 89.200 C 367.160 88.883,366.800 88.343,366.800 88.000 C 366.800 87.657,366.440 87.117,366.000 86.800 C 365.560 86.483,365.200 85.985,365.200 85.694 C 365.200 85.402,364.763 84.727,364.229 84.193 C 363.695 83.659,362.936 82.677,362.543 82.011 C 362.149 81.345,361.686 80.800,361.514 80.800 C 361.341 80.800,361.200 80.622,361.200 80.405 C 361.200 80.187,360.885 79.632,360.500 79.171 C 360.115 78.710,359.395 77.853,358.900 77.266 C 358.406 76.680,358.001 76.084,358.000 75.942 C 358.000 75.801,357.460 75.107,356.800 74.400 C 356.140 73.693,355.596 72.999,355.591 72.858 C 355.586 72.716,354.418 71.340,352.995 69.800 C 351.572 68.260,350.406 66.873,350.404 66.717 C 350.402 66.561,348.608 64.671,346.419 62.517 C 341.494 57.672,342.294 58.473,337.354 53.441 C 335.064 51.109,333.045 49.200,332.868 49.200 C 332.690 49.200,331.545 48.255,330.324 47.100 C 329.102 45.945,327.945 44.939,327.751 44.865 C 327.242 44.670,325.271 43.145,324.178 42.100 C 323.660 41.605,323.128 41.200,322.996 41.200 C 322.865 41.200,322.181 40.661,321.478 40.002 C 320.775 39.343,320.015 38.803,319.788 38.802 C 319.562 38.801,319.117 38.440,318.800 38.000 C 318.483 37.560,318.020 37.200,317.771 37.200 C 317.522 37.200,316.754 36.660,316.063 36.000 C 315.372 35.340,314.575 34.800,314.292 34.800 C 314.009 34.800,313.517 34.440,313.200 34.000 C 312.883 33.560,312.343 33.200,312.000 33.200 C 311.657 33.200,311.117 32.840,310.800 32.400 C 310.483 31.960,309.943 31.600,309.600 31.600 C 309.257 31.600,308.717 31.240,308.400 30.800 C 308.083 30.360,307.518 30.000,307.145 30.000 C 306.772 30.000,306.407 29.858,306.333 29.684 C 306.158 29.269,302.102 26.800,301.594 26.800 C 301.377 26.800,301.200 26.655,301.200 26.477 C 301.200 26.132,298.420 24.800,297.699 24.800 C 297.461 24.800,297.207 24.665,297.133 24.500 C 296.966 24.124,294.836 22.825,293.900 22.529 C 293.515 22.407,293.200 22.148,293.200 21.953 C 293.200 21.759,292.840 21.600,292.400 21.600 C 291.960 21.600,291.600 21.420,291.600 21.200 C 291.600 20.980,291.255 20.800,290.833 20.800 C 290.412 20.800,290.007 20.665,289.933 20.500 C 289.860 20.335,288.900 19.775,287.800 19.256 C 286.700 18.737,285.487 18.152,285.105 17.956 C 284.723 17.760,284.138 17.600,283.805 17.600 C 283.472 17.600,283.200 17.420,283.200 17.200 C 283.200 16.980,282.840 16.800,282.400 16.800 C 281.960 16.800,281.600 16.620,281.600 16.400 C 281.600 16.180,281.240 16.000,280.800 16.000 C 280.360 16.000,280.000 15.820,280.000 15.600 C 280.000 15.380,279.651 15.200,279.224 15.200 C 278.797 15.200,278.336 15.020,278.200 14.800 C 278.064 14.580,277.513 14.400,276.976 14.400 C 276.439 14.400,276.000 14.220,276.000 14.000 C 276.000 13.780,275.640 13.600,275.200 13.600 C 274.760 13.600,274.400 13.409,274.400 13.176 C 274.400 12.943,274.252 12.844,274.071 12.956 C 273.891 13.068,273.240 12.898,272.626 12.580 C 272.011 12.261,271.205 12.000,270.834 12.000 C 270.463 12.000,269.989 11.842,269.780 11.649 C 269.173 11.089,260.923 8.400,259.811 8.400 C 259.255 8.400,258.800 8.220,258.800 8.000 C 258.800 7.780,258.170 7.600,257.400 7.600 C 256.630 7.600,256.000 7.420,256.000 7.200 C 256.000 6.980,255.381 6.800,254.624 6.800 C 253.867 6.800,253.136 6.620,253.000 6.400 C 252.864 6.180,252.223 6.000,251.576 6.000 C 250.929 6.000,250.400 5.820,250.400 5.600 C 250.400 5.380,249.680 5.200,248.800 5.200 C 247.920 5.200,247.200 5.020,247.200 4.800 C 247.200 4.580,246.300 4.400,245.200 4.400 C 244.100 4.400,243.200 4.220,243.200 4.000 C 243.200 3.780,242.480 3.600,241.600 3.600 C 240.720 3.600,240.000 3.420,240.000 3.200 C 240.000 2.980,239.111 2.800,238.024 2.800 C 236.937 2.800,235.936 2.620,235.800 2.400 C 235.664 2.180,234.483 2.000,233.176 2.000 C 231.859 2.000,230.800 1.822,230.800 1.600 C 230.800 1.372,229.611 1.200,228.033 1.200 C 226.215 1.200,225.211 1.033,225.104 0.713 C 224.944 0.232,187.144 -0.123,178.300 0.274 M202.323 79.937 C 203.136 80.562,205.150 82.060,206.800 83.265 C 209.776 85.440,212.400 87.372,222.800 95.047 C 225.770 97.239,228.830 99.469,229.600 100.003 C 230.370 100.537,231.207 101.160,231.460 101.387 C 231.713 101.614,234.751 103.870,238.212 106.400 C 245.626 111.821,254.351 118.254,255.200 118.927 C 255.530 119.189,259.220 121.905,263.400 124.963 C 267.580 128.022,273.880 132.653,277.400 135.255 C 280.920 137.858,285.780 141.441,288.200 143.217 C 290.620 144.994,293.050 146.783,293.600 147.193 C 295.086 148.300,306.054 156.387,313.400 161.793 C 316.744 164.253,322.052 168.166,328.600 172.998 C 341.603 182.593,344.536 184.751,347.064 186.586 C 348.569 187.678,352.590 190.634,356.000 193.155 C 359.410 195.675,362.785 198.166,363.500 198.689 C 365.466 200.128,366.139 199.398,355.900 206.934 C 352.114 209.721,344.873 215.055,343.600 215.995 C 343.050 216.401,341.250 217.730,339.600 218.949 C 337.950 220.168,335.880 221.689,335.000 222.329 C 334.120 222.969,330.610 225.556,327.200 228.077 C 316.578 235.929,309.941 240.824,303.168 245.800 C 292.574 253.584,278.296 264.105,269.139 270.875 C 265.476 273.584,260.630 277.150,258.371 278.800 C 256.112 280.450,251.639 283.737,248.432 286.105 C 241.438 291.269,230.176 299.563,227.400 301.595 C 226.300 302.400,222.970 304.861,220.000 307.064 C 199.162 322.520,200.218 321.782,199.534 321.359 C 199.258 321.188,197.567 319.958,195.776 318.624 C 193.985 317.291,190.558 314.767,188.160 313.015 C 185.762 311.263,181.100 307.835,177.800 305.397 C 174.500 302.959,169.850 299.532,167.466 297.782 C 165.082 296.032,158.754 291.360,153.403 287.400 C 144.852 281.072,141.639 278.707,131.622 271.373 C 130.400 270.478,126.520 267.615,123.000 265.009 C 116.052 259.867,113.973 258.337,110.000 255.447 C 108.570 254.407,107.130 253.338,106.800 253.072 C 106.470 252.806,105.570 252.144,104.800 251.600 C 104.030 251.056,103.130 250.394,102.800 250.128 C 102.470 249.862,101.120 248.853,99.800 247.886 C 98.480 246.918,94.610 244.066,91.200 241.548 C 87.790 239.029,84.370 236.528,83.600 235.990 C 82.830 235.452,81.930 234.792,81.600 234.525 C 81.270 234.257,79.470 232.918,77.600 231.549 C 73.071 228.233,69.680 225.733,63.200 220.930 C 60.230 218.729,55.100 214.955,51.800 212.545 C 40.057 203.966,35.200 200.307,35.200 200.038 C 35.200 199.726,35.372 199.596,50.600 188.395 C 52.800 186.777,57.030 183.656,60.000 181.460 C 65.335 177.515,68.146 175.445,74.000 171.149 C 75.650 169.938,79.070 167.416,81.600 165.544 C 84.130 163.673,88.000 160.822,90.200 159.208 C 92.400 157.595,95.820 155.073,97.800 153.604 C 99.780 152.135,103.712 149.238,106.537 147.167 C 111.624 143.436,123.736 134.519,133.000 127.681 C 135.640 125.733,139.150 123.150,140.800 121.942 C 142.450 120.734,146.340 117.868,149.445 115.573 C 152.550 113.278,158.040 109.225,161.645 106.567 C 165.250 103.910,170.990 99.673,174.400 97.152 C 177.810 94.631,182.194 91.406,184.142 89.985 C 186.091 88.563,190.304 85.465,193.506 83.100 C 199.887 78.386,200.175 78.283,202.323 79.937 M191.421 130.747 C 190.773 130.886,194.608 131.000,199.944 131.000 C 205.279 131.000,209.230 130.883,208.722 130.740 C 207.541 130.407,192.981 130.413,191.421 130.747 M186.734 131.400 C 186.624 131.509,185.739 131.762,184.767 131.962 C 181.895 132.551,178.350 133.584,177.651 134.035 C 176.920 134.507,177.368 134.416,181.200 133.315 C 182.410 132.968,184.840 132.368,186.600 131.982 C 188.981 131.461,189.433 131.271,188.367 131.241 C 187.578 131.218,186.844 131.290,186.734 131.400 M211.400 131.600 C 213.197 132.057,214.864 132.057,213.800 131.600 C 213.360 131.411,212.370 131.265,211.600 131.275 L 210.200 131.295 211.400 131.600 M218.401 133.138 C 239.529 139.191,256.708 154.523,264.409 174.200 C 266.065 178.431,266.538 180.068,268.344 187.800 C 268.647 189.098,268.725 189.194,268.759 188.311 C 268.903 184.522,264.433 172.023,260.434 165.031 C 256.569 158.275,249.008 149.558,243.400 145.393 C 242.520 144.739,241.710 144.099,241.600 143.970 C 238.769 140.651,219.523 131.890,215.357 132.024 C 214.941 132.038,216.310 132.539,218.401 133.138 M172.800 135.748 C 167.626 137.981,160.209 142.247,158.147 144.176 C 157.898 144.409,156.908 145.219,155.947 145.976 C 153.695 147.751,147.751 153.695,145.976 155.947 C 145.219 156.908,144.409 157.898,144.176 158.147 C 142.514 159.924,137.560 168.348,136.431 171.318 C 136.035 172.360,136.067 172.398,137.310 172.346 C 138.250 172.306,138.356 172.244,137.700 172.118 C 136.542 171.895,136.533 171.943,138.393 168.299 C 143.079 159.122,151.734 149.061,159.400 143.878 C 160.720 142.986,161.860 142.108,161.933 141.928 C 162.007 141.747,162.249 141.600,162.472 141.600 C 162.694 141.600,163.354 141.264,163.938 140.853 C 165.717 139.601,170.833 137.011,173.900 135.810 C 175.495 135.185,176.800 134.612,176.800 134.537 C 176.800 134.182,175.551 134.561,172.800 135.748 M156.100 169.887 C 156.705 169.978,157.695 169.978,158.300 169.887 C 158.905 169.795,158.410 169.720,157.200 169.720 C 155.990 169.720,155.495 169.795,156.100 169.887 M172.100 169.887 C 172.705 169.978,173.695 169.978,174.300 169.887 C 174.905 169.795,174.410 169.720,173.200 169.720 C 171.990 169.720,171.495 169.795,172.100 169.887 M152.300 170.282 C 152.795 170.378,153.605 170.378,154.100 170.282 C 154.595 170.187,154.190 170.109,153.200 170.109 C 152.210 170.109,151.805 170.187,152.300 170.282 M176.300 170.282 C 176.795 170.378,177.605 170.378,178.100 170.282 C 178.595 170.187,178.190 170.109,177.200 170.109 C 176.210 170.109,175.805 170.187,176.300 170.282 M144.900 171.076 C 145.285 171.176,145.915 171.176,146.300 171.076 C 146.685 170.975,146.370 170.893,145.600 170.893 C 144.830 170.893,144.515 170.975,144.900 171.076 M140.600 171.600 C 139.511 171.877,139.493 171.907,140.400 171.925 C 140.950 171.935,141.760 171.789,142.200 171.600 C 143.186 171.176,142.266 171.176,140.600 171.600 M269.000 200.000 C 269.000 205.526,269.117 209.632,269.260 209.124 C 269.403 208.616,269.520 204.510,269.520 200.000 C 269.520 195.490,269.403 191.384,269.260 190.876 C 269.117 190.368,269.000 194.474,269.000 200.000 M241.174 191.524 C 241.709 191.959,242.699 192.619,243.374 192.991 L 244.600 193.667 243.626 192.876 C 243.091 192.441,242.101 191.781,241.426 191.409 L 240.200 190.733 241.174 191.524 M246.000 194.562 C 246.000 194.672,246.810 195.319,247.800 196.000 C 248.790 196.681,249.600 197.148,249.600 197.038 C 249.600 196.928,248.790 196.281,247.800 195.600 C 246.810 194.919,246.000 194.452,246.000 194.562 M162.100 195.897 C 163.805 195.972,166.595 195.972,168.300 195.897 C 170.005 195.822,168.610 195.761,165.200 195.761 C 161.790 195.761,160.395 195.822,162.100 195.897 M152.700 196.282 C 153.195 196.378,154.005 196.378,154.500 196.282 C 154.995 196.187,154.590 196.109,153.600 196.109 C 152.610 196.109,152.205 196.187,152.700 196.282 M175.900 196.282 C 176.395 196.378,177.205 196.378,177.700 196.282 C 178.195 196.187,177.790 196.109,176.800 196.109 C 175.810 196.109,175.405 196.187,175.900 196.282 M130.440 204.233 C 130.462 206.195,130.624 208.250,130.801 208.800 C 130.979 209.353,131.025 207.832,130.906 205.400 C 130.640 200.024,130.386 199.385,130.440 204.233 M257.600 203.325 C 257.600 203.394,258.185 203.979,258.900 204.625 L 260.200 205.800 259.025 204.500 C 257.930 203.288,257.600 203.016,257.600 203.325 M261.200 206.525 C 261.200 206.594,261.785 207.179,262.500 207.825 L 263.800 209.000 262.625 207.700 C 261.530 206.488,261.200 206.216,261.200 206.525 M131.240 211.354 C 131.218 211.988,131.372 213.158,131.582 213.954 C 131.792 214.749,132.071 215.916,132.201 216.547 C 132.332 217.178,132.520 217.614,132.619 217.515 C 132.717 217.416,132.457 215.730,132.039 213.767 C 131.622 211.805,131.262 210.719,131.240 211.354 M268.460 211.500 C 268.422 212.062,268.137 212.405,267.700 212.412 C 267.051 212.423,267.054 212.455,267.730 212.849 C 268.674 213.398,268.900 213.136,268.690 211.737 C 268.559 210.860,268.506 210.806,268.460 211.500 M132.837 218.400 C 132.686 221.611,141.107 239.158,143.970 241.600 C 144.099 241.710,144.733 242.520,145.379 243.400 C 149.229 248.644,158.562 256.733,165.031 260.434 C 172.036 264.441,184.565 268.917,188.311 268.752 C 189.118 268.716,188.934 268.600,187.600 268.304 C 177.781 266.123,168.957 262.711,163.938 259.153 C 163.354 258.739,162.752 258.400,162.601 258.400 C 160.137 258.400,141.600 239.887,141.600 237.426 C 141.600 237.271,141.094 236.392,140.475 235.472 C 138.403 232.391,135.562 226.084,133.777 220.600 C 133.275 219.060,132.852 218.070,132.837 218.400 M240.400 222.925 C 240.400 222.994,240.985 223.579,241.700 224.225 L 243.000 225.400 241.825 224.100 C 240.730 222.888,240.400 222.616,240.400 222.925 M247.800 230.000 C 250.212 232.420,252.276 234.400,252.386 234.400 C 252.496 234.400,250.612 232.420,248.200 230.000 C 245.788 227.580,243.724 225.600,243.614 225.600 C 243.504 225.600,245.388 227.580,247.800 230.000 M255.200 237.920 C 255.200 238.130,255.470 238.526,255.800 238.800 C 257.466 240.183,251.614 247.381,243.400 254.053 C 239.037 257.596,238.708 257.818,233.300 260.838 C 232.475 261.298,231.620 261.849,231.400 262.061 C 230.777 262.662,232.437 261.982,233.662 261.135 C 234.246 260.731,234.839 260.400,234.980 260.400 C 235.249 260.400,241.254 256.436,241.600 256.030 C 241.710 255.901,242.520 255.268,243.400 254.624 C 245.798 252.868,252.227 246.501,254.127 244.000 C 255.046 242.790,255.888 241.710,255.999 241.600 C 257.256 240.349,257.285 240.016,256.242 238.777 C 255.669 238.096,255.200 237.710,255.200 237.920 M228.600 263.163 C 226.166 264.597,216.883 267.511,211.576 268.508 C 210.636 268.684,210.640 268.693,211.689 268.746 C 213.234 268.823,221.178 266.670,225.200 265.084 C 229.040 263.570,231.293 262.426,230.400 262.444 C 230.070 262.451,229.260 262.775,228.600 263.163 M190.876 269.260 C 191.384 269.403,195.490 269.520,200.000 269.520 C 204.510 269.520,208.616 269.403,209.124 269.260 C 209.632 269.117,205.526 269.000,200.000 269.000 C 194.474 269.000,190.368 269.117,190.876 269.260 "
            stroke="none"
            fill="#6ca444"
            fill-rule="evenodd"
        ></path>
        <path
            d="M193.506 83.100 C 190.304 85.465,186.091 88.563,184.142 89.985 C 182.194 91.406,177.810 94.631,174.400 97.152 C 170.990 99.673,165.250 103.910,161.645 106.567 C 158.040 109.225,152.550 113.278,149.445 115.573 C 146.340 117.868,142.450 120.734,140.800 121.942 C 139.150 123.150,135.640 125.733,133.000 127.681 C 123.736 134.519,111.624 143.436,106.537 147.167 C 103.712 149.238,99.780 152.135,97.800 153.604 C 95.820 155.073,92.400 157.595,90.200 159.208 C 88.000 160.822,84.130 163.673,81.600 165.544 C 79.070 167.416,75.650 169.938,74.000 171.149 C 68.146 175.445,65.335 177.515,60.000 181.460 C 57.030 183.656,52.800 186.777,50.600 188.395 C 35.372 199.596,35.200 199.726,35.200 200.038 C 35.200 200.307,40.057 203.966,51.800 212.545 C 55.100 214.955,60.230 218.729,63.200 220.930 C 69.680 225.733,73.071 228.233,77.600 231.549 C 79.470 232.918,81.270 234.257,81.600 234.525 C 81.930 234.792,82.830 235.452,83.600 235.990 C 84.370 236.528,87.790 239.029,91.200 241.548 C 94.610 244.066,98.480 246.918,99.800 247.886 C 101.120 248.853,102.470 249.862,102.800 250.128 C 103.130 250.394,104.030 251.056,104.800 251.600 C 105.570 252.144,106.470 252.806,106.800 253.072 C 107.130 253.338,108.570 254.407,110.000 255.447 C 113.973 258.337,116.052 259.867,123.000 265.009 C 126.520 267.615,130.400 270.478,131.622 271.373 C 141.639 278.707,144.852 281.072,153.403 287.400 C 158.754 291.360,165.082 296.032,167.466 297.782 C 169.850 299.532,174.500 302.959,177.800 305.397 C 181.100 307.835,185.762 311.263,188.160 313.015 C 190.558 314.767,193.985 317.291,195.776 318.624 C 197.567 319.958,199.258 321.188,199.534 321.359 C 200.218 321.782,199.162 322.520,220.000 307.064 C 222.970 304.861,226.300 302.400,227.400 301.595 C 230.176 299.563,241.438 291.269,248.432 286.105 C 251.639 283.737,256.112 280.450,258.371 278.800 C 260.630 277.150,265.476 273.584,269.139 270.875 C 278.296 264.105,292.574 253.584,303.168 245.800 C 309.941 240.824,316.578 235.929,327.200 228.077 C 330.610 225.556,334.120 222.969,335.000 222.329 C 335.880 221.689,337.950 220.168,339.600 218.949 C 341.250 217.730,343.050 216.401,343.600 215.995 C 344.873 215.055,352.114 209.721,355.900 206.934 C 366.139 199.398,365.466 200.128,363.500 198.689 C 362.785 198.166,359.410 195.675,356.000 193.155 C 352.590 190.634,348.569 187.678,347.064 186.586 C 344.536 184.751,341.603 182.593,328.600 172.998 C 322.052 168.166,316.744 164.253,313.400 161.793 C 306.054 156.387,295.086 148.300,293.600 147.193 C 293.050 146.783,290.620 144.994,288.200 143.217 C 285.780 141.441,280.920 137.858,277.400 135.255 C 273.880 132.653,267.580 128.022,263.400 124.963 C 259.220 121.905,255.530 119.189,255.200 118.927 C 254.351 118.254,245.626 111.821,238.212 106.400 C 234.751 103.870,231.713 101.614,231.460 101.387 C 231.207 101.160,230.370 100.537,229.600 100.003 C 228.830 99.469,225.770 97.239,222.800 95.047 C 212.400 87.372,209.776 85.440,206.800 83.265 C 205.150 82.060,203.136 80.562,202.323 79.937 C 200.175 78.283,199.887 78.386,193.506 83.100 M209.376 130.831 C 216.789 132.149,220.012 132.981,225.000 134.867 C 230.157 136.817,240.193 142.320,241.600 143.970 C 241.710 144.099,242.520 144.739,243.400 145.393 C 256.600 155.196,266.218 172.034,269.223 190.600 C 269.982 195.289,269.335 212.347,268.359 213.380 C 268.162 213.589,268.000 214.116,268.000 214.552 C 268.000 214.987,267.827 215.896,267.615 216.572 C 267.404 217.247,266.674 219.600,265.993 221.800 C 264.645 226.159,261.322 233.249,258.797 237.155 C 257.919 238.515,257.200 239.767,257.200 239.938 C 257.200 240.109,256.885 240.598,256.500 241.025 C 256.115 241.452,255.272 242.521,254.626 243.400 C 252.862 245.804,246.496 252.230,244.000 254.127 C 242.790 255.046,241.710 255.902,241.600 256.029 C 241.490 256.156,240.306 256.997,238.969 257.898 C 230.475 263.622,221.321 267.158,209.776 269.176 C 187.467 273.076,158.718 261.569,145.379 243.400 C 144.733 242.520,144.099 241.710,143.970 241.600 C 143.262 240.996,139.498 234.906,137.913 231.800 C 133.121 222.406,130.941 214.020,130.530 203.400 C 130.162 193.894,131.849 183.171,134.866 175.845 C 135.490 174.330,136.000 172.863,136.000 172.586 C 136.000 171.213,142.207 160.252,144.176 158.147 C 144.409 157.898,145.219 156.908,145.976 155.947 C 147.751 153.695,153.695 147.751,155.947 145.976 C 156.908 145.219,157.898 144.409,158.147 144.176 C 163.824 138.865,178.484 132.815,190.400 130.865 C 193.567 130.347,206.521 130.323,209.376 130.831 "
            stroke="none"
            fill="#fbdb44"
            fill-rule="evenodd"
        ></path>
        <path
            d="M192.200 131.055 C 183.141 132.016,170.045 136.556,163.938 140.853 C 163.354 141.264,162.694 141.600,162.472 141.600 C 162.249 141.600,162.007 141.747,161.933 141.928 C 161.860 142.108,160.720 142.986,159.400 143.878 C 151.677 149.099,142.994 159.222,138.333 168.438 C 136.344 172.371,136.256 172.286,141.502 171.467 C 186.973 164.368,231.116 177.791,263.470 208.554 C 265.694 210.670,267.703 212.400,267.933 212.400 C 269.219 212.400,269.474 192.911,268.260 187.400 C 266.920 181.318,266.085 178.454,264.411 174.200 C 253.201 145.718,223.165 127.772,192.200 131.055 M151.352 196.611 C 145.803 197.325,140.910 198.259,136.400 199.465 C 134.310 200.023,132.169 200.578,131.642 200.698 C 128.018 201.521,134.317 226.316,140.475 235.472 C 141.094 236.392,141.600 237.271,141.600 237.426 C 141.600 239.887,160.137 258.400,162.601 258.400 C 162.752 258.400,163.354 258.739,163.938 259.153 C 176.704 268.203,199.437 271.682,216.800 267.243 C 223.852 265.440,228.157 263.765,233.455 260.762 C 234.195 260.343,235.475 259.619,236.300 259.153 C 242.793 255.487,256.400 242.520,256.400 239.997 C 256.400 238.092,244.040 225.814,235.597 219.331 C 212.701 201.753,179.974 192.927,151.352 196.611 "
            stroke="none"
            fill="#0454b4"
            fill-rule="evenodd"
        ></path>
        <path
            d="M158.800 169.830 C 158.470 169.905,155.770 170.168,152.800 170.413 C 147.553 170.846,146.128 171.016,139.389 172.008 L 136.178 172.481 134.906 175.740 C 131.385 184.765,128.981 201.309,131.300 200.565 C 132.244 200.262,132.950 200.077,137.200 199.013 C 141.969 197.819,143.361 197.549,151.000 196.331 C 155.407 195.628,175.062 195.652,179.600 196.365 C 183.395 196.961,191.846 198.605,194.000 199.166 C 201.341 201.078,206.779 202.925,211.968 205.270 C 215.600 206.911,223.406 210.892,224.453 211.638 C 225.042 212.057,225.639 212.400,225.780 212.400 C 226.195 212.400,231.903 216.293,235.951 219.338 C 242.455 224.229,248.641 230.065,254.861 237.178 L 257.116 239.757 258.756 237.220 C 262.770 231.009,266.596 221.691,267.962 214.800 C 268.265 213.274,267.332 212.193,260.280 205.897 C 243.115 190.576,219.057 178.017,198.400 173.596 C 196.143 173.113,190.764 172.035,188.600 171.632 C 181.116 170.237,162.058 169.085,158.800 169.830 "
            stroke="none"
            fill="#f3f3f3"
            fill-rule="evenodd"
        ></path>
    </g>
</svg>
