<svg id="svg" version="1.1" xmlns="http://www.w3.org/2000/svg" xmlns:xlink="http://www.w3.org/1999/xlink" width="400" height="400" viewBox="0, 0, 400,400"><g id="svgg"><path id="path0" d="M388.000 129.978 C 388.000 130.277,332.348 130.373,199.600 130.301 C 11.447 130.200,11.200 130.201,11.153 131.000 C 11.127 131.440,11.127 131.935,11.153 132.100 C 11.179 132.265,11.020 132.400,10.800 132.400 C 10.580 132.400,10.400 132.940,10.400 133.600 C 10.400 134.260,10.220 134.800,10.000 134.800 C 9.780 134.800,9.600 135.351,9.600 136.024 C 9.600 136.737,9.433 137.144,9.200 137.000 C 8.980 136.864,8.791 137.078,8.780 137.476 C 8.727 139.338,8.271 141.823,7.944 142.029 C 7.744 142.156,7.556 142.921,7.526 143.729 C 7.495 144.538,7.320 145.200,7.135 145.200 C 6.951 145.200,6.800 145.470,6.800 145.800 C 6.800 146.130,6.620 146.400,6.400 146.400 C 6.180 146.400,6.000 147.390,6.000 148.600 C 6.000 149.810,5.820 150.800,5.600 150.800 C 5.380 150.800,5.200 151.430,5.200 152.200 C 5.200 152.970,5.020 153.600,4.800 153.600 C 4.580 153.600,4.400 154.410,4.400 155.400 C 4.400 156.390,4.220 157.200,4.000 157.200 C 3.780 157.200,3.600 158.100,3.600 159.200 C 3.600 160.300,3.420 161.200,3.200 161.200 C 2.980 161.200,2.800 162.111,2.800 163.224 C 2.800 164.471,2.647 165.152,2.400 165.000 C 2.148 164.844,2.000 165.796,2.000 167.576 C 2.000 169.192,1.829 170.400,1.600 170.400 C 1.369 170.400,1.200 171.656,1.200 173.367 C 1.200 175.384,1.040 176.387,0.700 176.500 C -0.032 176.744,-0.032 223.256,0.700 223.500 C 1.040 223.613,1.200 224.616,1.200 226.633 C 1.200 228.344,1.369 229.600,1.600 229.600 C 1.829 229.600,2.000 230.808,2.000 232.424 C 2.000 234.204,2.148 235.156,2.400 235.000 C 2.647 234.848,2.800 235.529,2.800 236.776 C 2.800 237.889,2.980 238.800,3.200 238.800 C 3.420 238.800,3.600 239.790,3.600 241.000 C 3.600 242.210,3.743 243.200,3.918 243.200 C 4.093 243.200,4.281 243.875,4.336 244.700 C 4.390 245.525,4.607 246.260,4.818 246.333 C 5.028 246.407,5.200 247.082,5.200 247.833 C 5.200 248.585,5.380 249.200,5.600 249.200 C 5.820 249.200,6.000 250.010,6.000 251.000 C 6.000 252.170,6.175 252.802,6.500 252.806 C 6.833 252.810,6.800 252.942,6.400 253.200 C 6.000 253.458,5.967 253.590,6.300 253.594 C 6.575 253.597,6.800 253.971,6.800 254.424 C 6.800 254.877,6.980 255.136,7.200 255.000 C 7.420 254.864,7.600 254.928,7.600 255.143 C 7.600 255.358,7.375 255.624,7.100 255.735 C 6.700 255.896,6.700 255.943,7.100 255.968 C 7.375 255.986,7.600 256.345,7.600 256.767 C 7.600 257.188,7.757 257.593,7.950 257.667 C 8.142 257.740,8.422 258.970,8.571 260.400 C 8.721 261.830,9.013 263.171,9.221 263.380 C 9.430 263.589,9.600 264.084,9.600 264.480 C 9.600 264.876,9.780 265.200,10.000 265.200 C 10.220 265.200,10.400 265.819,10.400 266.576 C 10.400 267.333,10.580 268.064,10.800 268.200 C 11.020 268.336,11.200 268.752,11.200 269.124 C 11.200 269.758,22.967 269.800,200.000 269.800 C 377.033 269.800,388.800 269.758,388.800 269.124 C 388.800 268.752,388.980 268.336,389.200 268.200 C 389.420 268.064,389.600 267.323,389.600 266.553 C 389.600 265.721,389.762 265.253,390.000 265.400 C 390.223 265.538,390.400 265.231,390.400 264.704 C 390.400 264.185,390.584 263.576,390.808 263.352 C 391.033 263.127,391.329 261.741,391.466 260.272 C 391.603 258.802,391.870 257.600,392.058 257.600 C 392.246 257.600,392.400 257.060,392.400 256.400 C 392.400 255.740,392.580 255.200,392.800 255.200 C 393.020 255.200,393.200 254.840,393.200 254.400 C 393.200 253.960,393.425 253.597,393.700 253.594 C 394.033 253.590,394.000 253.458,393.600 253.200 C 393.200 252.942,393.167 252.810,393.500 252.806 C 393.825 252.802,394.000 252.170,394.000 251.000 C 394.000 250.010,394.180 249.200,394.400 249.200 C 394.620 249.200,394.803 248.525,394.806 247.700 C 394.811 246.584,394.912 246.354,395.200 246.800 C 395.473 247.222,395.591 246.628,395.600 244.800 C 395.609 242.972,395.727 242.378,396.000 242.800 C 396.275 243.226,396.390 242.733,396.394 241.100 C 396.397 239.835,396.580 238.800,396.800 238.800 C 397.020 238.800,397.200 238.170,397.200 237.400 C 397.200 236.630,397.380 236.000,397.600 236.000 C 397.833 236.000,398.000 234.667,398.000 232.800 C 398.000 230.933,398.167 229.600,398.400 229.600 C 398.631 229.600,398.800 228.344,398.800 226.633 C 398.800 224.616,398.960 223.613,399.300 223.500 C 399.691 223.370,399.808 218.837,399.839 202.767 C 399.880 180.805,399.755 175.857,399.168 176.220 C 398.956 176.351,398.800 175.164,398.800 173.424 C 398.800 171.675,398.631 170.400,398.400 170.400 C 398.171 170.400,398.000 169.200,398.000 167.600 C 398.000 165.630,397.852 164.798,397.500 164.794 C 397.167 164.790,397.200 164.658,397.600 164.400 C 398.000 164.142,398.033 164.010,397.700 164.006 C 397.396 164.002,397.200 163.450,397.200 162.600 C 397.200 161.830,397.020 161.200,396.800 161.200 C 396.580 161.200,396.400 160.390,396.400 159.400 C 396.400 158.410,396.220 157.600,396.000 157.600 C 395.780 157.600,395.603 157.285,395.606 156.900 C 395.611 156.302,395.669 156.287,396.000 156.800 C 396.233 157.161,396.390 157.210,396.394 156.924 C 396.397 156.662,396.220 156.336,396.000 156.200 C 395.780 156.064,395.600 155.423,395.600 154.776 C 395.600 154.129,395.420 153.600,395.200 153.600 C 394.980 153.600,394.800 152.970,394.800 152.200 C 394.800 151.430,394.649 150.800,394.463 150.800 C 394.278 150.800,394.094 149.855,394.054 148.700 C 394.013 147.545,393.805 146.540,393.590 146.467 C 393.376 146.393,393.200 145.988,393.200 145.567 C 393.200 145.145,392.975 144.797,392.700 144.794 C 392.367 144.790,392.400 144.658,392.800 144.400 C 393.200 144.142,393.233 144.010,392.900 144.006 C 392.625 144.003,392.400 143.640,392.400 143.200 C 392.400 142.760,392.245 142.400,392.056 142.400 C 391.866 142.400,391.610 141.279,391.485 139.910 C 391.361 138.540,391.066 137.355,390.830 137.277 C 390.593 137.198,390.400 136.508,390.400 135.743 C 390.400 134.918,390.237 134.453,390.000 134.600 C 389.762 134.747,389.600 134.279,389.600 133.447 C 389.600 132.677,389.420 131.936,389.200 131.800 C 388.980 131.664,388.800 131.214,388.800 130.800 C 388.800 130.386,388.620 129.936,388.400 129.800 C 388.180 129.664,388.000 129.744,388.000 129.978 " stroke="none" fill="#0454b4" fill-rule="evenodd"></path><path id="path1" d="M11.936 269.798 C 11.613 270.120,12.060 272.400,12.445 272.400 C 12.640 272.400,12.803 272.895,12.806 273.500 C 12.811 274.357,12.898 274.468,13.200 274.000 C 13.494 273.545,13.589 273.714,13.594 274.700 C 13.597 275.415,13.780 276.000,14.000 276.000 C 14.220 276.000,14.400 276.461,14.400 277.024 C 14.400 277.604,14.573 277.940,14.800 277.800 C 15.020 277.664,15.200 277.923,15.200 278.376 C 15.200 278.829,15.380 279.200,15.600 279.200 C 15.820 279.200,16.000 279.740,16.000 280.400 C 16.000 281.060,16.180 281.600,16.400 281.600 C 16.620 281.600,16.800 282.050,16.800 282.600 C 16.800 283.150,16.980 283.600,17.200 283.600 C 17.420 283.600,17.600 283.960,17.600 284.400 C 17.600 284.840,17.780 285.200,18.000 285.200 C 18.220 285.200,18.400 285.470,18.400 285.800 C 18.400 286.130,18.541 286.400,18.713 286.400 C 18.885 286.400,19.066 286.885,19.115 287.478 C 19.164 288.070,19.338 288.655,19.503 288.778 C 19.667 288.900,20.056 289.495,20.368 290.100 C 20.680 290.705,21.085 291.200,21.268 291.200 C 21.450 291.200,21.600 291.470,21.600 291.800 C 21.600 292.130,21.780 292.400,22.000 292.400 C 22.220 292.400,22.403 292.985,22.406 293.700 C 22.411 294.686,22.506 294.855,22.800 294.400 C 23.091 293.949,23.191 294.148,23.200 295.200 C 23.209 296.252,23.309 296.451,23.600 296.000 C 23.914 295.515,23.989 295.572,23.994 296.300 C 23.997 296.795,24.180 297.200,24.400 297.200 C 24.620 297.200,24.800 297.515,24.801 297.900 C 24.802 298.285,25.432 299.644,26.201 300.920 C 26.970 302.196,27.600 303.419,27.600 303.637 C 27.600 303.855,27.960 304.420,28.400 304.892 C 28.840 305.364,29.200 305.987,29.200 306.275 C 29.200 306.564,29.380 306.800,29.600 306.800 C 29.820 306.800,30.000 307.030,30.000 307.312 C 30.000 307.593,30.360 308.083,30.800 308.400 C 31.240 308.717,31.600 309.225,31.600 309.528 C 31.600 309.831,32.140 310.583,32.800 311.200 C 33.460 311.817,34.000 312.609,34.000 312.960 C 34.000 313.312,34.180 313.600,34.400 313.600 C 34.620 313.600,34.800 313.920,34.800 314.312 C 34.800 314.703,35.160 315.283,35.600 315.600 C 36.040 315.917,36.400 316.385,36.400 316.640 C 36.400 316.895,37.120 317.845,38.000 318.752 C 38.879 319.658,39.400 320.400,39.157 320.400 C 38.914 320.400,39.274 320.922,39.958 321.560 C 40.641 322.199,41.200 322.919,41.200 323.160 C 41.200 323.402,41.380 323.600,41.600 323.600 C 41.820 323.600,42.000 323.812,42.000 324.072 C 42.000 324.331,42.585 325.096,43.300 325.772 C 44.015 326.447,44.645 327.224,44.699 327.497 C 44.753 327.770,45.698 328.913,46.799 330.037 C 47.900 331.161,48.800 332.249,48.800 332.453 C 48.800 332.736,53.987 338.011,58.102 341.914 C 58.268 342.071,60.372 344.225,62.776 346.700 C 65.181 349.175,67.316 351.200,67.521 351.200 C 67.725 351.200,68.923 352.190,70.182 353.400 C 71.442 354.610,72.621 355.600,72.803 355.600 C 72.986 355.600,73.884 356.320,74.800 357.200 C 75.716 358.080,76.654 358.800,76.886 358.800 C 77.117 358.800,77.609 359.149,77.978 359.575 C 78.348 360.001,78.895 360.406,79.193 360.475 C 79.492 360.544,80.447 361.275,81.316 362.100 C 82.185 362.925,83.105 363.600,83.360 363.600 C 83.615 363.600,84.083 363.960,84.400 364.400 C 84.717 364.840,85.297 365.200,85.688 365.200 C 86.080 365.200,86.400 365.380,86.400 365.600 C 86.400 365.820,86.688 366.000,87.040 366.000 C 87.391 366.000,88.183 366.540,88.800 367.200 C 89.417 367.860,90.209 368.400,90.560 368.400 C 90.912 368.400,91.200 368.580,91.200 368.800 C 91.200 369.020,91.605 369.203,92.100 369.206 C 92.828 369.211,92.885 369.286,92.400 369.600 C 91.887 369.931,91.902 369.989,92.500 369.994 C 92.885 369.997,93.200 370.159,93.200 370.353 C 93.200 370.548,93.515 370.813,93.900 370.942 C 94.693 371.209,96.520 372.264,97.989 373.301 C 98.533 373.686,99.298 374.000,99.689 374.000 C 100.080 374.000,100.400 374.177,100.400 374.392 C 100.400 374.608,100.895 374.907,101.500 375.056 C 102.105 375.206,102.891 375.659,103.247 376.064 C 103.603 376.469,104.368 376.800,104.947 376.800 C 105.526 376.800,106.000 376.980,106.000 377.200 C 106.000 377.420,106.294 377.600,106.653 377.600 C 107.012 377.600,107.597 377.929,107.953 378.330 C 108.309 378.732,109.185 379.316,109.900 379.628 C 110.615 379.940,111.200 380.331,111.200 380.498 C 111.200 380.664,111.560 380.800,112.000 380.800 C 112.440 380.800,112.800 380.980,112.800 381.200 C 112.800 381.420,113.072 381.600,113.405 381.600 C 113.738 381.600,114.413 381.808,114.905 382.062 C 116.782 383.033,117.207 383.200,117.795 383.200 C 118.128 383.200,118.400 383.380,118.400 383.600 C 118.400 383.820,118.760 384.000,119.200 384.000 C 119.640 384.000,120.000 384.180,120.000 384.400 C 120.000 384.620,120.360 384.800,120.800 384.800 C 121.240 384.800,121.603 385.025,121.606 385.300 C 121.610 385.633,121.742 385.600,122.000 385.200 C 122.258 384.800,122.390 384.767,122.394 385.100 C 122.397 385.375,122.760 385.600,123.200 385.600 C 123.640 385.600,124.000 385.780,124.000 386.000 C 124.000 386.220,124.551 386.400,125.224 386.400 C 125.937 386.400,126.344 386.567,126.200 386.800 C 126.064 387.020,126.236 387.200,126.582 387.200 C 126.928 387.200,127.523 387.359,127.905 387.553 C 128.287 387.748,129.140 388.129,129.800 388.400 C 130.460 388.671,131.313 389.052,131.695 389.247 C 132.077 389.441,132.942 389.600,133.618 389.600 C 134.336 389.600,134.744 389.766,134.600 390.000 C 134.462 390.223,134.769 390.400,135.296 390.400 C 135.815 390.400,136.411 390.563,136.620 390.762 C 136.829 390.962,137.900 391.242,139.000 391.385 C 140.100 391.528,141.060 391.815,141.133 392.023 C 141.207 392.230,141.882 392.400,142.633 392.400 C 143.385 392.400,144.000 392.580,144.000 392.800 C 144.000 393.020,144.540 393.200,145.200 393.200 C 145.860 393.200,146.400 393.380,146.400 393.600 C 146.400 393.820,147.120 394.000,148.000 394.000 C 148.880 394.000,149.600 394.180,149.600 394.400 C 149.600 394.620,150.320 394.800,151.200 394.800 C 152.080 394.800,152.800 394.980,152.800 395.200 C 152.800 395.422,153.867 395.600,155.200 395.600 C 156.533 395.600,157.600 395.778,157.600 396.000 C 157.600 396.220,158.140 396.400,158.800 396.400 C 159.460 396.400,160.000 396.580,160.000 396.800 C 160.000 397.020,160.990 397.200,162.200 397.200 C 163.410 397.200,164.400 397.380,164.400 397.600 C 164.400 397.833,165.733 398.000,167.600 398.000 C 169.467 398.000,170.800 398.167,170.800 398.400 C 170.800 398.620,171.685 398.800,172.767 398.800 C 173.984 398.800,174.797 398.990,174.900 399.300 C 175.031 399.693,180.409 399.800,200.000 399.800 C 219.591 399.800,224.969 399.693,225.100 399.300 C 225.212 398.965,226.171 398.800,228.010 398.800 C 229.518 398.800,230.864 398.620,231.000 398.400 C 231.136 398.180,231.957 398.000,232.824 398.000 C 233.691 398.000,234.400 397.820,234.400 397.600 C 234.400 397.371,235.600 397.200,237.200 397.200 C 238.800 397.200,240.000 397.029,240.000 396.800 C 240.000 396.580,240.799 396.400,241.776 396.400 C 242.753 396.400,243.664 396.220,243.800 396.000 C 243.936 395.780,244.757 395.600,245.624 395.600 C 246.491 395.600,247.200 395.420,247.200 395.200 C 247.200 394.980,247.650 394.800,248.200 394.800 C 248.750 394.800,249.200 394.620,249.200 394.400 C 249.200 394.180,250.190 394.000,251.400 394.000 C 252.610 394.000,253.600 393.820,253.600 393.600 C 253.600 393.380,254.140 393.200,254.800 393.200 C 255.460 393.200,256.000 393.020,256.000 392.800 C 256.000 392.580,256.675 392.397,257.500 392.394 C 258.462 392.390,258.810 392.268,258.472 392.053 C 258.136 391.840,258.778 391.632,260.234 391.481 C 261.494 391.351,262.632 391.099,262.763 390.921 C 262.893 390.743,263.540 390.537,264.200 390.464 C 264.860 390.391,265.571 390.167,265.780 389.966 C 265.989 389.765,266.484 389.600,266.880 389.600 C 267.276 389.600,267.600 389.459,267.600 389.287 C 267.600 389.115,268.087 388.934,268.682 388.885 C 269.278 388.836,269.944 388.616,270.162 388.398 C 270.381 388.179,270.974 388.000,271.480 388.000 C 271.986 388.000,272.400 387.820,272.400 387.600 C 272.400 387.380,272.749 387.200,273.176 387.200 C 273.603 387.200,274.064 387.020,274.200 386.800 C 274.336 386.580,274.797 386.400,275.224 386.400 C 275.651 386.400,276.000 386.220,276.000 386.000 C 276.000 385.780,276.585 385.597,277.300 385.594 C 278.286 385.589,278.455 385.494,278.000 385.200 C 277.515 384.886,277.572 384.811,278.300 384.806 C 278.795 384.803,279.203 384.575,279.206 384.300 C 279.210 383.967,279.342 384.000,279.600 384.400 C 279.858 384.800,279.990 384.833,279.994 384.500 C 279.997 384.225,280.360 384.000,280.800 384.000 C 281.240 384.000,281.600 383.820,281.600 383.600 C 281.600 383.380,282.050 383.200,282.600 383.200 C 283.150 383.200,283.600 383.020,283.600 382.800 C 283.600 382.580,283.870 382.400,284.200 382.400 C 284.530 382.400,284.800 382.209,284.800 381.976 C 284.800 381.743,284.965 381.655,285.168 381.780 C 285.370 381.905,285.807 381.736,286.139 381.404 C 286.471 381.072,287.206 380.800,287.771 380.800 C 288.337 380.800,288.800 380.654,288.800 380.475 C 288.800 380.296,289.422 379.905,290.182 379.607 C 290.942 379.309,291.471 378.915,291.358 378.732 C 291.245 378.550,291.433 378.400,291.776 378.400 C 292.119 378.400,292.400 378.220,292.400 378.000 C 292.400 377.780,292.760 377.600,293.200 377.600 C 293.640 377.600,294.000 377.420,294.000 377.200 C 294.000 376.980,294.474 376.800,295.053 376.800 C 295.632 376.800,296.397 376.469,296.753 376.064 C 297.109 375.659,297.929 375.197,298.576 375.037 C 299.222 374.878,300.240 374.399,300.837 373.973 C 301.435 373.548,302.121 373.200,302.362 373.200 C 302.603 373.200,302.800 373.020,302.800 372.800 C 302.800 372.580,303.160 372.400,303.600 372.400 C 304.040 372.400,304.401 372.265,304.402 372.100 C 304.403 371.935,305.392 371.170,306.600 370.400 C 307.808 369.630,308.797 368.865,308.798 368.700 C 308.799 368.535,309.120 368.400,309.512 368.400 C 309.903 368.400,310.483 368.040,310.800 367.600 C 311.117 367.160,311.742 366.797,312.188 366.794 C 312.859 366.789,312.896 366.720,312.400 366.400 C 311.915 366.086,311.972 366.011,312.700 366.006 C 313.195 366.003,313.600 365.820,313.600 365.600 C 313.600 365.380,313.920 365.200,314.312 365.200 C 314.703 365.200,315.283 364.840,315.600 364.400 C 315.917 363.960,316.380 363.600,316.629 363.600 C 316.878 363.600,317.646 363.060,318.337 362.400 C 319.028 361.740,319.792 361.200,320.036 361.200 C 320.280 361.200,320.983 360.660,321.600 360.000 C 322.217 359.340,322.934 358.800,323.194 358.800 C 323.454 358.800,324.279 358.170,325.026 357.400 C 325.774 356.630,326.545 356.000,326.739 356.000 C 326.934 356.000,328.123 355.010,329.382 353.800 C 330.642 352.590,331.834 351.600,332.032 351.600 C 332.230 351.600,334.445 349.512,336.955 346.959 C 339.464 344.406,341.671 342.162,341.859 341.972 C 342.047 341.783,344.225 339.647,346.700 337.226 C 349.175 334.806,351.200 332.658,351.200 332.453 C 351.200 332.249,352.100 331.162,353.200 330.039 C 354.300 328.915,355.200 327.716,355.200 327.374 C 355.200 327.033,355.380 326.864,355.600 327.000 C 355.820 327.136,356.000 327.053,356.000 326.817 C 356.000 326.580,356.630 325.774,357.400 325.026 C 358.170 324.279,358.800 323.454,358.800 323.194 C 358.800 322.934,359.359 322.199,360.042 321.560 C 360.726 320.922,361.086 320.400,360.843 320.400 C 360.600 320.400,361.121 319.658,362.000 318.752 C 362.880 317.845,363.600 316.895,363.600 316.640 C 363.600 316.385,363.960 315.917,364.400 315.600 C 364.840 315.283,365.200 314.703,365.200 314.312 C 365.200 313.920,365.380 313.600,365.600 313.600 C 365.820 313.600,366.000 313.312,366.000 312.960 C 366.000 312.609,366.540 311.817,367.200 311.200 C 367.860 310.583,368.400 309.806,368.400 309.473 C 368.400 309.139,368.547 308.807,368.728 308.733 C 369.193 308.544,372.400 303.731,372.400 303.222 C 372.400 302.990,372.580 302.800,372.800 302.800 C 373.020 302.800,373.200 302.603,373.200 302.362 C 373.200 302.121,373.561 301.416,374.003 300.795 C 374.445 300.175,374.918 299.112,375.053 298.434 C 375.189 297.755,375.457 297.200,375.650 297.200 C 375.842 297.200,376.003 296.795,376.006 296.300 C 376.011 295.572,376.086 295.515,376.400 296.000 C 376.694 296.455,376.789 296.286,376.794 295.300 C 376.797 294.585,376.980 294.000,377.200 294.000 C 377.420 294.000,377.600 293.706,377.600 293.347 C 377.600 292.988,377.970 292.373,378.422 291.981 C 378.875 291.588,379.272 290.905,379.305 290.461 C 379.339 290.018,379.509 289.744,379.683 289.851 C 379.857 289.959,380.000 289.767,380.000 289.424 C 380.000 289.081,380.225 288.797,380.500 288.794 C 380.833 288.790,380.800 288.658,380.400 288.400 C 380.070 288.187,379.992 288.009,380.226 288.006 C 380.711 287.999,382.400 285.013,382.400 284.162 C 382.400 283.853,382.580 283.600,382.800 283.600 C 383.020 283.600,383.200 283.150,383.200 282.600 C 383.200 282.050,383.380 281.600,383.600 281.600 C 383.820 281.600,384.000 281.255,384.000 280.833 C 384.000 280.412,384.225 279.976,384.500 279.865 C 384.890 279.708,384.886 279.656,384.484 279.632 C 384.145 279.611,384.247 279.301,384.784 278.725 C 385.233 278.243,385.600 277.433,385.600 276.925 C 385.600 276.416,385.780 276.000,386.000 276.000 C 386.220 276.000,386.400 275.449,386.400 274.776 C 386.400 274.063,386.567 273.656,386.800 273.800 C 387.020 273.936,387.200 273.677,387.200 273.224 C 387.200 272.771,387.380 272.400,387.600 272.400 C 387.820 272.400,388.000 271.770,388.000 271.000 L 388.000 269.600 200.067 269.600 C 96.703 269.600,12.044 269.689,11.936 269.798 " stroke="none" fill="#db0424" fill-rule="evenodd"></path><path id="path2" d="M178.300 0.275 C 176.375 0.361,174.800 0.604,174.800 0.816 C 174.800 1.027,173.461 1.200,171.824 1.200 C 170.187 1.200,168.736 1.380,168.600 1.600 C 168.464 1.820,167.463 2.000,166.376 2.000 C 165.289 2.000,164.400 2.180,164.400 2.400 C 164.400 2.620,163.410 2.800,162.200 2.800 C 160.990 2.800,160.000 2.980,160.000 3.200 C 160.000 3.420,159.201 3.600,158.224 3.600 C 157.247 3.600,156.336 3.780,156.200 4.000 C 156.064 4.220,155.243 4.400,154.376 4.400 C 153.509 4.400,152.800 4.580,152.800 4.800 C 152.800 5.020,152.080 5.200,151.200 5.200 C 150.320 5.200,149.600 5.380,149.600 5.600 C 149.600 5.820,149.071 6.000,148.424 6.000 C 147.777 6.000,147.136 6.180,147.000 6.400 C 146.864 6.620,146.234 6.800,145.600 6.800 C 144.966 6.800,144.336 6.980,144.200 7.200 C 144.064 7.420,143.333 7.600,142.576 7.600 C 141.819 7.600,141.200 7.780,141.200 8.000 C 141.200 8.220,140.771 8.400,140.246 8.400 C 139.355 8.400,136.018 9.285,134.200 10.003 C 133.760 10.177,132.770 10.536,132.000 10.800 C 130.307 11.382,128.840 11.971,127.905 12.447 C 127.523 12.641,126.848 12.800,126.405 12.800 C 125.962 12.800,125.600 12.980,125.600 13.200 C 125.600 13.420,125.240 13.600,124.800 13.600 C 124.360 13.600,124.000 13.780,124.000 14.000 C 124.000 14.220,123.561 14.400,123.024 14.400 C 122.487 14.400,121.936 14.580,121.800 14.800 C 121.664 15.020,121.203 15.200,120.776 15.200 C 120.349 15.200,120.000 15.380,120.000 15.600 C 120.000 15.820,119.640 16.000,119.200 16.000 C 118.760 16.000,118.400 16.180,118.400 16.400 C 118.400 16.620,118.128 16.800,117.795 16.800 C 117.462 16.800,116.877 16.967,116.495 17.172 C 116.113 17.376,114.180 18.319,112.200 19.267 C 110.220 20.215,108.540 21.128,108.467 21.295 C 108.393 21.463,107.988 21.600,107.567 21.600 C 107.145 21.600,106.800 21.780,106.800 22.000 C 106.800 22.220,106.440 22.400,106.000 22.400 C 105.560 22.400,105.200 22.580,105.200 22.800 C 105.200 23.020,104.880 23.200,104.488 23.200 C 104.097 23.200,103.517 23.560,103.200 24.000 C 102.883 24.440,102.372 24.800,102.066 24.800 C 101.415 24.800,97.463 26.859,97.267 27.300 C 97.193 27.465,96.956 27.600,96.739 27.600 C 96.522 27.600,95.559 28.140,94.600 28.800 C 93.641 29.460,92.703 30.000,92.516 30.000 C 92.329 30.000,91.917 30.360,91.600 30.800 C 91.283 31.240,90.743 31.600,90.400 31.600 C 90.057 31.600,89.517 31.960,89.200 32.400 C 88.883 32.840,88.343 33.200,88.000 33.200 C 87.657 33.200,87.117 33.560,86.800 34.000 C 86.483 34.440,85.991 34.800,85.708 34.800 C 85.425 34.800,84.628 35.340,83.937 36.000 C 83.246 36.660,82.478 37.200,82.229 37.200 C 81.980 37.200,81.517 37.560,81.200 38.000 C 80.883 38.440,80.375 38.800,80.072 38.800 C 79.769 38.800,79.017 39.340,78.400 40.000 C 77.783 40.660,77.147 41.200,76.986 41.200 C 76.826 41.200,76.358 41.588,75.947 42.061 C 75.536 42.535,75.200 42.797,75.200 42.643 C 75.200 42.489,74.742 42.822,74.182 43.382 C 73.622 43.942,73.012 44.400,72.827 44.400 C 72.641 44.400,71.704 45.169,70.745 46.110 C 69.785 47.050,68.370 48.262,67.600 48.803 C 66.830 49.344,64.439 51.590,62.287 53.793 C 57.582 58.611,58.611 57.582,53.793 62.287 C 51.590 64.439,49.342 66.828,48.799 67.595 C 48.255 68.362,46.953 69.865,45.905 70.935 C 44.857 72.005,44.000 73.051,44.000 73.259 C 44.000 73.466,43.595 74.070,43.100 74.599 C 41.731 76.063,41.200 76.740,41.200 77.023 C 41.200 77.164,40.660 77.783,40.000 78.400 C 39.340 79.017,38.800 79.743,38.800 80.014 C 38.800 80.284,38.484 80.797,38.097 81.153 C 37.711 81.509,37.140 82.295,36.830 82.900 C 36.519 83.505,36.115 84.000,35.932 84.000 C 35.750 84.000,35.600 84.281,35.600 84.624 C 35.600 84.993,35.412 85.131,35.138 84.962 C 34.862 84.791,34.785 84.851,34.946 85.112 C 35.094 85.352,34.762 86.002,34.208 86.556 C 33.653 87.110,33.200 87.842,33.200 88.182 C 33.200 88.522,33.050 88.800,32.868 88.800 C 32.685 88.800,32.281 89.295,31.970 89.900 C 31.660 90.505,31.089 91.291,30.703 91.647 C 30.316 92.003,30.000 92.420,30.000 92.575 C 30.000 92.729,29.460 93.641,28.800 94.600 C 28.140 95.559,27.600 96.522,27.600 96.739 C 27.600 96.956,27.443 97.193,27.251 97.267 C 26.809 97.435,24.800 101.396,24.800 102.098 C 24.800 102.387,24.440 102.883,24.000 103.200 C 23.560 103.517,23.200 104.097,23.200 104.488 C 23.200 104.880,23.020 105.200,22.800 105.200 C 22.580 105.200,22.400 105.560,22.400 106.000 C 22.400 106.440,22.220 106.800,22.000 106.800 C 21.780 106.800,21.600 107.145,21.600 107.567 C 21.600 107.988,21.465 108.393,21.300 108.467 C 20.860 108.662,19.200 111.978,19.200 112.661 C 19.200 112.984,19.020 113.136,18.800 113.000 C 18.580 112.864,18.400 113.113,18.400 113.553 C 18.400 113.993,18.220 114.464,18.000 114.600 C 17.780 114.736,17.600 115.197,17.600 115.624 C 17.600 116.051,17.420 116.400,17.200 116.400 C 16.980 116.400,16.800 116.850,16.800 117.400 C 16.800 117.950,16.620 118.400,16.400 118.400 C 16.180 118.400,16.000 118.760,16.000 119.200 C 16.000 119.640,15.820 120.000,15.600 120.000 C 15.380 120.000,15.200 120.349,15.200 120.776 C 15.200 121.203,15.020 121.664,14.800 121.800 C 14.580 121.936,14.400 122.487,14.400 123.024 C 14.400 123.561,14.220 124.000,14.000 124.000 C 13.780 124.000,13.600 124.360,13.600 124.800 C 13.600 125.240,13.420 125.600,13.200 125.600 C 12.980 125.600,12.800 126.014,12.800 126.520 C 12.800 127.026,12.636 127.611,12.435 127.820 C 12.234 128.029,12.009 128.650,11.935 129.200 L 11.800 130.200 199.900 130.300 L 388.000 130.401 388.000 129.395 C 388.000 128.842,387.820 128.032,387.600 127.595 C 387.380 127.158,387.020 126.442,386.800 126.005 C 386.580 125.568,386.400 124.938,386.400 124.605 C 386.400 124.272,386.220 124.000,386.000 124.000 C 385.780 124.000,385.600 123.561,385.600 123.024 C 385.600 122.487,385.420 121.936,385.200 121.800 C 384.980 121.664,384.800 121.203,384.800 120.776 C 384.800 120.349,384.620 120.000,384.400 120.000 C 384.180 120.000,384.000 119.640,384.000 119.200 C 384.000 118.760,383.820 118.400,383.600 118.400 C 383.380 118.400,383.200 118.040,383.200 117.600 C 383.200 117.160,383.020 116.800,382.800 116.800 C 382.580 116.800,382.401 116.485,382.403 116.100 C 382.407 115.325,379.186 108.678,378.704 108.467 C 378.537 108.393,378.400 107.988,378.400 107.567 C 378.400 107.145,378.220 106.800,378.000 106.800 C 377.780 106.800,377.600 106.440,377.600 106.000 C 377.600 105.560,377.420 105.200,377.200 105.200 C 376.980 105.200,376.800 104.964,376.800 104.675 C 376.800 104.387,376.469 103.796,376.065 103.362 C 375.661 102.928,375.199 102.050,375.039 101.411 C 374.878 100.772,374.399 99.760,373.973 99.163 C 373.548 98.565,373.200 97.879,373.200 97.638 C 373.200 97.397,373.020 97.200,372.800 97.200 C 372.580 97.200,372.400 97.007,372.400 96.772 C 372.400 96.537,371.860 95.559,371.200 94.600 C 370.540 93.641,370.000 92.703,370.000 92.516 C 370.000 92.329,369.640 91.917,369.200 91.600 C 368.760 91.283,368.400 90.743,368.400 90.400 C 368.400 90.057,368.040 89.517,367.600 89.200 C 367.160 88.883,366.800 88.343,366.800 88.000 C 366.800 87.657,366.440 87.117,366.000 86.800 C 365.560 86.483,365.200 85.943,365.200 85.600 C 365.200 85.257,364.840 84.717,364.400 84.400 C 363.960 84.083,363.600 83.620,363.600 83.371 C 363.600 83.122,363.060 82.354,362.400 81.663 C 361.740 80.972,361.200 80.208,361.200 79.964 C 361.200 79.720,360.660 79.017,360.000 78.400 C 359.340 77.783,358.800 77.126,358.800 76.939 C 358.800 76.753,358.080 75.812,357.200 74.849 C 356.320 73.887,355.600 72.946,355.600 72.760 C 355.600 72.574,354.833 71.651,353.895 70.711 C 352.957 69.770,351.745 68.370,351.201 67.600 C 350.658 66.830,348.410 64.439,346.207 62.287 C 341.389 57.582,342.418 58.611,337.713 53.793 C 335.561 51.590,333.172 49.342,332.405 48.799 C 331.638 48.255,330.135 46.953,329.065 45.905 C 327.995 44.857,326.949 44.000,326.741 44.000 C 326.534 44.000,325.930 43.595,325.401 43.100 C 323.937 41.731,323.260 41.200,322.977 41.200 C 322.836 41.200,322.217 40.660,321.600 40.000 C 320.983 39.340,320.280 38.800,320.036 38.800 C 319.792 38.800,319.028 38.260,318.337 37.600 C 317.646 36.940,316.878 36.400,316.629 36.400 C 316.380 36.400,315.917 36.040,315.600 35.600 C 315.283 35.160,314.743 34.800,314.400 34.800 C 314.057 34.800,313.517 34.440,313.200 34.000 C 312.883 33.560,312.343 33.200,312.000 33.200 C 311.657 33.200,311.117 32.840,310.800 32.400 C 310.483 31.960,309.943 31.600,309.600 31.600 C 309.257 31.600,308.717 31.240,308.400 30.800 C 308.083 30.360,307.671 30.000,307.484 30.000 C 307.297 30.000,306.359 29.460,305.400 28.800 C 304.441 28.140,303.478 27.600,303.261 27.600 C 303.044 27.600,302.807 27.465,302.733 27.300 C 302.553 26.895,298.611 24.800,298.029 24.800 C 297.775 24.800,297.180 24.440,296.708 24.000 C 296.236 23.560,295.613 23.200,295.325 23.200 C 295.036 23.200,294.800 23.020,294.800 22.800 C 294.800 22.580,294.440 22.400,294.000 22.400 C 293.560 22.400,293.200 22.220,293.200 22.000 C 293.200 21.780,292.840 21.600,292.400 21.600 C 291.960 21.600,291.599 21.465,291.599 21.300 C 291.598 21.135,290.608 20.550,289.400 20.000 C 288.192 19.450,287.202 18.865,287.201 18.700 C 287.201 18.535,286.928 18.400,286.595 18.400 C 286.007 18.400,285.582 18.233,283.705 17.262 C 283.213 17.008,282.538 16.800,282.205 16.800 C 281.872 16.800,281.600 16.620,281.600 16.400 C 281.600 16.180,281.240 16.000,280.800 16.000 C 280.360 16.000,280.000 15.820,280.000 15.600 C 280.000 15.380,279.640 15.200,279.200 15.200 C 278.760 15.200,278.400 15.020,278.400 14.800 C 278.400 14.580,277.860 14.400,277.200 14.400 C 276.540 14.400,276.000 14.220,276.000 14.000 C 276.000 13.780,275.640 13.600,275.200 13.600 C 274.760 13.600,274.400 13.420,274.400 13.200 C 274.400 12.980,273.961 12.800,273.424 12.800 C 272.887 12.800,272.336 12.620,272.200 12.400 C 272.064 12.180,271.685 12.000,271.357 12.000 C 271.029 12.000,270.016 11.640,269.106 11.200 C 268.195 10.760,267.211 10.400,266.919 10.400 C 266.628 10.400,266.077 10.237,265.695 10.037 C 264.553 9.440,260.778 8.400,259.754 8.400 C 259.229 8.400,258.800 8.220,258.800 8.000 C 258.800 7.780,258.170 7.600,257.400 7.600 C 256.630 7.600,256.000 7.420,256.000 7.200 C 256.000 6.980,255.471 6.800,254.824 6.800 C 254.177 6.800,253.536 6.620,253.400 6.400 C 253.264 6.180,252.533 6.000,251.776 6.000 C 251.019 6.000,250.400 5.820,250.400 5.600 C 250.400 5.380,249.680 5.200,248.800 5.200 C 247.920 5.200,247.200 5.020,247.200 4.800 C 247.200 4.580,246.491 4.400,245.624 4.400 C 244.757 4.400,243.936 4.220,243.800 4.000 C 243.664 3.780,242.753 3.600,241.776 3.600 C 240.799 3.600,240.000 3.420,240.000 3.200 C 240.000 2.980,239.100 2.800,238.000 2.800 C 236.900 2.800,236.000 2.620,236.000 2.400 C 236.000 2.178,234.941 2.000,233.624 2.000 C 232.317 2.000,231.136 1.820,231.000 1.600 C 230.864 1.380,229.518 1.200,228.010 1.200 C 226.193 1.200,225.211 1.034,225.103 0.708 C 224.941 0.222,187.291 -0.126,178.300 0.275 M391.600 141.800 C 391.600 142.130,391.780 142.400,392.000 142.400 C 392.220 142.400,392.400 142.130,392.400 141.800 C 392.400 141.470,392.220 141.200,392.000 141.200 C 391.780 141.200,391.600 141.470,391.600 141.800 M5.200 150.200 C 5.200 150.530,5.380 150.800,5.600 150.800 C 5.820 150.800,6.000 150.530,6.000 150.200 C 6.000 149.870,5.820 149.600,5.600 149.600 C 5.380 149.600,5.200 149.870,5.200 150.200 M2.800 160.600 C 2.800 160.930,2.980 161.200,3.200 161.200 C 3.420 161.200,3.600 160.930,3.600 160.600 C 3.600 160.270,3.420 160.000,3.200 160.000 C 2.980 160.000,2.800 160.270,2.800 160.600 M396.400 160.600 C 396.400 160.930,396.580 161.200,396.800 161.200 C 397.020 161.200,397.200 160.930,397.200 160.600 C 397.200 160.270,397.020 160.000,396.800 160.000 C 396.580 160.000,396.400 160.270,396.400 160.600 M1.412 169.317 C 1.241 169.712,1.213 170.147,1.351 170.284 C 1.757 170.690,2.084 170.120,1.897 169.331 C 1.732 168.633,1.710 168.632,1.412 169.317 M398.006 169.500 C 398.003 169.995,398.180 170.400,398.400 170.400 C 398.901 170.400,398.901 169.976,398.400 169.200 C 398.086 168.715,398.011 168.772,398.006 169.500 M0.667 174.667 C 0.252 175.082,0.353 176.400,0.800 176.400 C 1.020 176.400,1.200 175.950,1.200 175.400 C 1.200 174.353,1.108 174.226,0.667 174.667 M398.800 175.624 C 398.800 176.077,398.980 176.336,399.200 176.200 C 399.420 176.064,399.600 175.693,399.600 175.376 C 399.600 175.059,399.420 174.800,399.200 174.800 C 398.980 174.800,398.800 175.171,398.800 175.624 M399.693 216.800 C 399.693 217.570,399.775 217.885,399.876 217.500 C 399.976 217.115,399.976 216.485,399.876 216.100 C 399.775 215.715,399.693 216.030,399.693 216.800 M0.400 224.400 C 0.400 224.840,0.580 225.200,0.800 225.200 C 1.020 225.200,1.200 224.840,1.200 224.400 C 1.200 223.960,1.020 223.600,0.800 223.600 C 0.580 223.600,0.400 223.960,0.400 224.400 M398.800 224.400 C 398.800 224.840,398.980 225.200,399.200 225.200 C 399.420 225.200,399.600 224.840,399.600 224.400 C 399.600 223.960,399.420 223.600,399.200 223.600 C 398.980 223.600,398.800 223.960,398.800 224.400 M1.200 230.176 C 1.200 230.493,1.380 230.864,1.600 231.000 C 1.820 231.136,2.000 230.877,2.000 230.424 C 2.000 229.971,1.820 229.600,1.600 229.600 C 1.380 229.600,1.200 229.859,1.200 230.176 M398.000 230.424 C 398.000 230.877,398.180 231.136,398.400 231.000 C 398.620 230.864,398.800 230.493,398.800 230.176 C 398.800 229.859,398.620 229.600,398.400 229.600 C 398.180 229.600,398.000 229.971,398.000 230.424 M2.800 239.400 C 2.800 239.730,2.980 240.000,3.200 240.000 C 3.420 240.000,3.600 239.730,3.600 239.400 C 3.600 239.070,3.420 238.800,3.200 238.800 C 2.980 238.800,2.800 239.070,2.800 239.400 M396.400 239.400 C 396.400 239.730,396.580 240.000,396.800 240.000 C 397.020 240.000,397.200 239.730,397.200 239.400 C 397.200 239.070,397.020 238.800,396.800 238.800 C 396.580 238.800,396.400 239.070,396.400 239.400 M5.200 249.800 C 5.200 250.130,5.380 250.400,5.600 250.400 C 5.820 250.400,6.000 250.130,6.000 249.800 C 6.000 249.470,5.820 249.200,5.600 249.200 C 5.380 249.200,5.200 249.470,5.200 249.800 M7.600 258.200 C 7.600 258.530,7.780 258.800,8.000 258.800 C 8.220 258.800,8.400 258.530,8.400 258.200 C 8.400 257.870,8.220 257.600,8.000 257.600 C 7.780 257.600,7.600 257.870,7.600 258.200 M249.200 394.400 C 249.200 394.620,249.470 394.800,249.800 394.800 C 250.130 394.800,250.400 394.620,250.400 394.400 C 250.400 394.180,250.130 394.000,249.800 394.000 C 249.470 394.000,249.200 394.180,249.200 394.400 M156.200 396.000 C 156.336 396.220,156.707 396.400,157.024 396.400 C 157.341 396.400,157.600 396.220,157.600 396.000 C 157.600 395.780,157.229 395.600,156.776 395.600 C 156.323 395.600,156.064 395.780,156.200 396.000 M234.400 397.600 C 234.400 397.820,234.659 398.000,234.976 398.000 C 235.293 398.000,235.664 397.820,235.800 397.600 C 235.936 397.380,235.677 397.200,235.224 397.200 C 234.771 397.200,234.400 397.380,234.400 397.600 M169.000 398.400 C 169.136 398.620,169.597 398.800,170.024 398.800 C 170.451 398.800,170.800 398.620,170.800 398.400 C 170.800 398.180,170.339 398.000,169.776 398.000 C 169.196 398.000,168.860 398.173,169.000 398.400 " stroke="none" fill="#f3f3f3" fill-rule="evenodd"></path></g></svg>