<svg id="svg" version="1.1" xmlns="http://www.w3.org/2000/svg" xmlns:xlink="http://www.w3.org/1999/xlink" width="400" height="400" viewBox="0, 0, 400,400"><g id="svgg"><path id="path0" d="M178.300 0.275 C 176.375 0.361,174.800 0.604,174.800 0.816 C 174.800 1.027,173.461 1.200,171.824 1.200 C 170.187 1.200,168.736 1.380,168.600 1.600 C 168.464 1.820,167.463 2.000,166.376 2.000 C 165.289 2.000,164.400 2.180,164.400 2.400 C 164.400 2.620,163.410 2.800,162.200 2.800 C 160.990 2.800,160.000 2.980,160.000 3.200 C 160.000 3.420,159.280 3.600,158.400 3.600 C 157.520 3.600,156.800 3.780,156.800 4.000 C 156.800 4.220,155.889 4.400,154.776 4.400 C 153.529 4.400,152.848 4.553,153.000 4.800 C 153.149 5.041,152.612 5.200,151.647 5.200 C 150.767 5.200,149.936 5.380,149.800 5.600 C 149.664 5.820,148.944 6.000,148.200 6.000 C 147.456 6.000,146.736 6.180,146.600 6.400 C 146.464 6.620,145.823 6.800,145.176 6.800 C 144.529 6.800,144.000 6.980,144.000 7.200 C 144.000 7.420,143.370 7.600,142.600 7.600 C 141.830 7.600,141.200 7.759,141.200 7.954 C 141.200 8.149,140.210 8.432,139.000 8.583 C 137.790 8.734,136.800 8.996,136.800 9.165 C 136.800 9.334,135.765 9.711,134.500 10.003 C 133.235 10.295,132.020 10.658,131.800 10.809 C 131.580 10.960,130.545 11.329,129.500 11.629 C 128.455 11.929,127.600 12.315,127.600 12.487 C 127.600 12.659,127.139 12.800,126.576 12.800 C 125.996 12.800,125.660 12.973,125.800 13.200 C 125.940 13.427,125.604 13.600,125.024 13.600 C 124.461 13.600,124.000 13.780,124.000 14.000 C 124.000 14.220,123.460 14.400,122.800 14.400 C 122.140 14.400,121.600 14.580,121.600 14.800 C 121.600 15.020,121.240 15.200,120.800 15.200 C 120.360 15.200,120.000 15.380,120.000 15.600 C 120.000 15.820,119.640 16.000,119.200 16.000 C 118.760 16.000,118.400 16.180,118.400 16.400 C 118.400 16.620,117.961 16.800,117.424 16.800 C 116.887 16.800,116.336 16.980,116.200 17.200 C 116.064 17.420,115.603 17.600,115.176 17.600 C 114.749 17.600,114.400 17.746,114.400 17.925 C 114.400 18.104,113.770 18.498,113.000 18.800 C 112.230 19.102,111.600 19.496,111.600 19.675 C 111.600 19.854,111.139 20.000,110.576 20.000 C 109.996 20.000,109.660 20.173,109.800 20.400 C 109.936 20.620,109.666 20.800,109.200 20.800 C 108.734 20.800,108.464 20.980,108.600 21.200 C 108.740 21.427,108.404 21.600,107.824 21.600 C 107.261 21.600,106.800 21.780,106.800 22.000 C 106.800 22.220,106.440 22.400,106.000 22.400 C 105.560 22.400,105.200 22.580,105.200 22.800 C 105.200 23.020,104.880 23.200,104.488 23.200 C 104.097 23.200,103.517 23.560,103.200 24.000 C 102.883 24.440,102.421 24.800,102.173 24.800 C 101.594 24.800,99.303 25.916,97.938 26.863 C 97.354 27.268,96.589 27.600,96.238 27.600 C 95.887 27.600,95.600 27.780,95.600 28.000 C 95.600 28.220,95.330 28.400,95.000 28.400 C 94.670 28.400,94.400 28.580,94.400 28.800 C 94.400 29.020,94.130 29.200,93.800 29.200 C 93.470 29.200,93.200 29.380,93.200 29.600 C 93.200 29.820,92.919 30.000,92.576 30.000 C 92.233 30.000,92.064 30.180,92.200 30.400 C 92.336 30.620,92.167 30.800,91.824 30.800 C 91.481 30.800,91.200 30.980,91.200 31.200 C 91.200 31.420,90.880 31.600,90.488 31.600 C 90.097 31.600,89.517 31.960,89.200 32.400 C 88.883 32.840,88.375 33.200,88.072 33.200 C 87.769 33.200,87.017 33.740,86.400 34.400 C 85.783 35.060,84.991 35.600,84.640 35.600 C 84.288 35.600,84.000 35.750,84.000 35.932 C 84.000 36.115,83.505 36.519,82.900 36.830 C 82.295 37.140,81.509 37.711,81.153 38.097 C 80.797 38.484,80.304 38.800,80.057 38.800 C 79.809 38.800,79.091 39.340,78.460 40.000 C 77.829 40.660,77.190 41.200,77.039 41.200 C 76.887 41.200,76.330 41.605,75.801 42.100 C 74.378 43.431,73.847 43.840,72.848 44.375 C 72.351 44.640,71.040 45.744,69.932 46.829 C 68.825 47.913,67.749 48.800,67.541 48.800 C 66.987 48.800,65.207 50.673,65.491 50.958 C 65.624 51.091,65.509 51.200,65.234 51.200 C 64.960 51.200,63.314 52.685,61.576 54.500 C 59.839 56.315,58.279 57.936,58.109 58.102 C 57.939 58.268,55.775 60.372,53.300 62.776 C 50.825 65.181,48.800 67.322,48.800 67.534 C 48.800 67.746,47.900 68.839,46.799 69.963 C 45.698 71.087,44.753 72.220,44.699 72.482 C 44.603 72.946,43.942 73.786,42.100 75.786 C 41.605 76.324,41.200 76.887,41.200 77.039 C 41.200 77.190,40.660 77.829,40.000 78.460 C 39.340 79.091,38.800 79.787,38.800 80.007 C 38.800 80.227,38.260 80.972,37.600 81.663 C 36.940 82.354,36.400 83.122,36.400 83.371 C 36.400 83.620,36.040 84.083,35.600 84.400 C 35.160 84.717,34.800 85.257,34.800 85.600 C 34.800 85.943,34.440 86.483,34.000 86.800 C 33.560 87.117,33.200 87.697,33.200 88.088 C 33.200 88.480,33.020 88.800,32.800 88.800 C 32.580 88.800,32.397 89.205,32.394 89.700 C 32.389 90.428,32.314 90.485,32.000 90.000 C 31.680 89.504,31.611 89.541,31.606 90.212 C 31.603 90.658,31.240 91.283,30.800 91.600 C 30.360 91.917,30.000 92.507,30.000 92.912 C 30.000 93.316,29.820 93.536,29.600 93.400 C 29.380 93.264,29.200 93.399,29.200 93.701 C 29.200 94.002,28.840 94.636,28.400 95.108 C 27.960 95.580,27.600 96.233,27.600 96.560 C 27.600 96.886,27.413 97.268,27.185 97.409 C 26.676 97.724,24.800 101.550,24.800 102.275 C 24.800 102.564,24.620 102.800,24.400 102.800 C 24.180 102.800,24.000 103.171,24.000 103.624 C 24.000 104.077,23.820 104.336,23.600 104.200 C 23.380 104.064,23.200 104.233,23.200 104.576 C 23.200 104.919,23.020 105.200,22.800 105.200 C 22.580 105.200,22.400 105.560,22.400 106.000 C 22.400 106.440,22.220 106.800,22.000 106.800 C 21.780 106.800,21.600 107.160,21.600 107.600 C 21.600 108.040,21.420 108.400,21.200 108.400 C 20.980 108.400,20.800 108.771,20.800 109.224 C 20.800 109.677,20.620 109.936,20.400 109.800 C 20.174 109.661,20.000 109.985,20.000 110.543 C 20.000 111.088,19.812 111.596,19.582 111.673 C 19.352 111.749,19.135 112.202,19.099 112.678 C 19.063 113.155,18.891 113.456,18.717 113.349 C 18.543 113.241,18.400 113.433,18.400 113.776 C 18.400 114.119,18.220 114.400,18.000 114.400 C 17.780 114.400,17.600 114.951,17.600 115.624 C 17.600 116.337,17.433 116.744,17.200 116.600 C 16.973 116.460,16.800 116.796,16.800 117.376 C 16.800 117.939,16.620 118.400,16.400 118.400 C 16.180 118.400,16.000 118.760,16.000 119.200 C 16.000 119.640,15.820 120.000,15.600 120.000 C 15.380 120.000,15.200 120.349,15.200 120.776 C 15.200 121.203,15.020 121.664,14.800 121.800 C 14.580 121.936,14.400 122.487,14.400 123.024 C 14.400 123.561,14.220 124.000,14.000 124.000 C 13.780 124.000,13.600 124.360,13.600 124.800 C 13.600 125.240,13.420 125.600,13.200 125.600 C 12.980 125.600,12.800 126.050,12.800 126.600 C 12.800 127.150,12.659 127.600,12.487 127.600 C 12.315 127.600,11.929 128.455,11.629 129.500 C 11.329 130.545,10.953 131.580,10.794 131.800 C 10.635 132.020,10.390 132.830,10.250 133.600 C 10.110 134.370,9.726 135.518,9.395 136.150 C 9.065 136.783,8.682 138.264,8.544 139.441 C 8.405 140.618,8.136 141.484,7.946 141.367 C 7.756 141.249,7.600 141.793,7.600 142.576 C 7.600 143.359,7.420 144.000,7.200 144.000 C 6.980 144.000,6.800 144.529,6.800 145.176 C 6.800 145.823,6.620 146.464,6.400 146.600 C 6.180 146.736,6.000 147.467,6.000 148.224 C 6.000 148.981,5.820 149.600,5.600 149.600 C 5.380 149.600,5.200 150.421,5.200 151.424 C 5.200 152.537,5.044 153.151,4.800 153.000 C 4.558 152.851,4.400 153.396,4.400 154.376 C 4.400 155.269,4.220 156.000,4.000 156.000 C 3.780 156.000,3.600 156.799,3.600 157.776 C 3.600 158.753,3.420 159.664,3.200 159.800 C 2.980 159.936,2.800 160.836,2.800 161.800 C 2.800 162.764,2.620 163.664,2.400 163.800 C 2.180 163.936,2.000 164.991,2.000 166.144 C 2.000 167.297,1.835 168.411,1.632 168.620 C 1.430 168.829,1.165 170.170,1.043 171.600 C 0.920 173.030,0.655 176.090,0.453 178.400 C 0.250 180.710,0.066 186.515,0.042 191.300 L 0.000 200.000 200.062 200.000 L 400.123 200.000 399.894 187.511 C 399.739 179.114,399.523 174.974,399.232 174.877 C 398.979 174.793,398.800 173.599,398.800 171.990 C 398.800 170.482,398.620 169.136,398.400 169.000 C 398.180 168.864,398.000 167.683,398.000 166.376 C 398.000 165.059,397.822 164.000,397.600 164.000 C 397.380 164.000,397.200 163.111,397.200 162.024 C 397.200 160.937,397.020 159.936,396.800 159.800 C 396.580 159.664,396.400 158.768,396.400 157.810 C 396.400 156.851,396.228 156.007,396.018 155.933 C 395.807 155.860,395.590 155.125,395.536 154.300 C 395.481 153.475,395.293 152.800,395.118 152.800 C 394.943 152.800,394.800 152.080,394.800 151.200 C 394.800 150.320,394.620 149.600,394.400 149.600 C 394.180 149.600,394.000 148.880,394.000 148.000 C 394.000 147.120,393.820 146.400,393.600 146.400 C 393.380 146.400,393.200 145.860,393.200 145.200 C 393.200 144.540,393.020 144.000,392.800 144.000 C 392.580 144.000,392.400 143.370,392.400 142.600 C 392.400 141.830,392.241 141.200,392.046 141.200 C 391.851 141.200,391.569 140.213,391.418 139.006 C 391.267 137.800,390.977 136.709,390.772 136.583 C 390.567 136.456,390.400 136.003,390.400 135.576 C 390.400 135.149,390.220 134.800,390.000 134.800 C 389.780 134.800,389.645 134.665,389.700 134.500 C 389.877 133.968,388.667 130.000,388.328 130.000 C 388.147 130.000,388.000 129.460,388.000 128.800 C 388.000 128.140,387.820 127.600,387.600 127.600 C 387.380 127.600,387.200 127.150,387.200 126.600 C 387.200 126.050,387.020 125.600,386.800 125.600 C 386.580 125.600,386.400 125.240,386.400 124.800 C 386.400 124.360,386.220 124.000,386.000 124.000 C 385.780 124.000,385.600 123.460,385.600 122.800 C 385.600 122.140,385.420 121.600,385.200 121.600 C 384.980 121.600,384.800 121.240,384.800 120.800 C 384.800 120.360,384.620 120.000,384.400 120.000 C 384.180 120.000,384.000 119.640,384.000 119.200 C 384.000 118.760,383.820 118.400,383.600 118.400 C 383.380 118.400,383.200 118.040,383.200 117.600 C 383.200 117.160,383.020 116.800,382.800 116.800 C 382.580 116.800,382.400 116.440,382.400 116.000 C 382.400 115.560,382.220 115.200,382.000 115.200 C 381.780 115.200,381.621 115.065,381.647 114.900 C 381.792 113.987,381.546 113.186,381.190 113.406 C 380.965 113.545,380.830 113.502,380.890 113.309 C 381.053 112.790,379.903 110.000,379.525 110.000 C 379.346 110.000,379.200 109.640,379.200 109.200 C 379.200 108.760,379.020 108.400,378.800 108.400 C 378.580 108.400,378.400 108.040,378.400 107.600 C 378.400 107.160,378.220 106.800,378.000 106.800 C 377.780 106.800,377.600 106.440,377.600 106.000 C 377.600 105.560,377.420 105.200,377.200 105.200 C 376.980 105.200,376.800 104.906,376.800 104.547 C 376.800 104.188,376.469 103.603,376.064 103.247 C 375.659 102.891,375.196 102.067,375.035 101.415 C 374.874 100.764,374.215 99.449,373.571 98.495 C 372.927 97.541,372.400 96.499,372.400 96.180 C 372.400 95.861,372.220 95.600,372.000 95.600 C 371.780 95.600,371.600 95.330,371.600 95.000 C 371.600 94.670,371.420 94.400,371.200 94.400 C 370.980 94.400,370.800 94.119,370.800 93.776 C 370.800 93.433,370.620 93.264,370.400 93.400 C 370.180 93.536,370.000 93.316,370.000 92.912 C 370.000 92.507,369.640 91.917,369.200 91.600 C 368.760 91.283,368.400 90.743,368.400 90.400 C 368.400 90.057,368.040 89.517,367.600 89.200 C 367.160 88.883,366.800 88.393,366.800 88.112 C 366.800 87.830,366.620 87.600,366.400 87.600 C 366.180 87.600,366.000 87.330,366.000 87.000 C 366.000 86.670,365.820 86.400,365.600 86.400 C 365.380 86.400,365.200 86.112,365.200 85.760 C 365.200 85.409,364.660 84.617,364.000 84.000 C 363.340 83.383,362.800 82.631,362.800 82.328 C 362.800 82.025,362.440 81.517,362.000 81.200 C 361.560 80.883,361.200 80.375,361.200 80.072 C 361.200 79.769,360.685 79.040,360.056 78.452 C 359.427 77.865,358.784 76.980,358.627 76.486 C 358.471 75.992,358.175 75.692,357.971 75.818 C 357.767 75.944,357.600 75.833,357.600 75.571 C 357.600 75.308,357.284 74.803,356.897 74.447 C 356.511 74.091,355.944 73.311,355.637 72.714 C 355.330 72.116,354.927 71.722,354.740 71.837 C 354.553 71.953,354.400 71.857,354.400 71.624 C 354.400 71.391,353.680 70.459,352.800 69.552 C 351.920 68.645,351.200 67.730,351.200 67.518 C 351.200 67.305,349.175 65.174,346.700 62.781 C 344.225 60.388,342.046 58.262,341.859 58.057 C 339.497 55.469,333.777 49.876,332.564 48.969 C 331.704 48.326,330.157 46.945,329.126 45.900 C 328.095 44.855,327.036 44.000,326.772 44.000 C 326.508 44.000,325.875 43.550,325.365 43.000 C 324.855 42.450,324.271 42.000,324.067 42.000 C 323.863 42.000,322.985 41.325,322.116 40.500 C 321.247 39.675,320.306 38.949,320.025 38.886 C 319.744 38.823,319.249 38.506,318.925 38.182 C 318.601 37.858,318.170 37.695,317.968 37.820 C 317.765 37.945,317.600 37.761,317.600 37.411 C 317.600 37.061,317.285 36.658,316.900 36.515 C 316.515 36.372,315.909 35.928,315.553 35.528 C 315.197 35.127,314.612 34.800,314.253 34.800 C 313.894 34.800,313.600 34.650,313.600 34.468 C 313.600 34.285,313.105 33.881,312.500 33.570 C 311.895 33.260,311.109 32.689,310.753 32.303 C 310.397 31.916,309.852 31.600,309.541 31.600 C 309.231 31.600,308.717 31.240,308.400 30.800 C 308.083 30.360,307.593 30.000,307.312 30.000 C 307.030 30.000,306.800 29.820,306.800 29.600 C 306.800 29.380,306.564 29.200,306.275 29.200 C 305.987 29.200,305.364 28.840,304.892 28.400 C 304.420 27.960,303.767 27.600,303.440 27.600 C 303.114 27.600,302.729 27.409,302.585 27.175 C 302.324 26.753,300.807 26.049,300.371 26.148 C 300.246 26.177,299.828 25.885,299.443 25.500 C 299.058 25.115,298.473 24.800,298.143 24.800 C 297.813 24.800,297.271 24.528,296.939 24.196 C 296.607 23.864,296.170 23.695,295.968 23.820 C 295.765 23.945,295.600 23.857,295.600 23.624 C 295.600 23.391,295.319 23.200,294.976 23.200 C 294.633 23.200,294.464 23.020,294.600 22.800 C 294.736 22.580,294.477 22.400,294.024 22.400 C 293.571 22.400,293.200 22.209,293.200 21.976 C 293.200 21.743,293.035 21.655,292.832 21.780 C 292.630 21.905,292.193 21.736,291.861 21.404 C 291.529 21.072,290.974 20.800,290.629 20.800 C 290.283 20.800,290.000 20.620,290.000 20.400 C 290.000 20.180,289.730 20.000,289.400 20.000 C 289.070 20.000,288.800 19.820,288.800 19.600 C 288.800 19.380,288.440 19.200,288.000 19.200 C 287.560 19.200,287.200 19.020,287.200 18.800 C 287.200 18.580,286.840 18.400,286.400 18.400 C 285.960 18.400,285.600 18.220,285.600 18.000 C 285.600 17.780,285.251 17.600,284.824 17.600 C 284.397 17.600,283.936 17.420,283.800 17.200 C 283.664 16.980,283.113 16.800,282.576 16.800 C 282.039 16.800,281.600 16.620,281.600 16.400 C 281.600 16.180,281.240 16.000,280.800 16.000 C 280.360 16.000,280.000 15.820,280.000 15.600 C 280.000 15.380,279.640 15.200,279.200 15.200 C 278.760 15.200,278.400 15.020,278.400 14.800 C 278.400 14.580,277.860 14.400,277.200 14.400 C 276.540 14.400,276.000 14.220,276.000 14.000 C 276.000 13.780,275.640 13.600,275.200 13.600 C 274.760 13.600,274.400 13.420,274.400 13.200 C 274.400 12.980,273.950 12.800,273.400 12.800 C 272.850 12.800,272.400 12.620,272.400 12.400 C 272.400 12.180,271.860 12.000,271.200 12.000 C 270.540 12.000,270.000 11.820,270.000 11.600 C 270.000 11.380,269.651 11.200,269.224 11.200 C 268.797 11.200,268.351 11.044,268.232 10.853 C 268.114 10.661,267.339 10.393,266.509 10.256 C 265.679 10.119,264.493 9.740,263.874 9.414 C 263.255 9.088,261.860 8.703,260.774 8.559 C 259.688 8.415,258.800 8.140,258.800 7.948 C 258.800 7.757,258.170 7.600,257.400 7.600 C 256.630 7.600,256.000 7.420,256.000 7.200 C 256.000 6.980,255.460 6.800,254.800 6.800 C 254.140 6.800,253.600 6.620,253.600 6.400 C 253.600 6.180,252.880 6.000,252.000 6.000 C 251.120 6.000,250.400 5.820,250.400 5.600 C 250.400 5.380,249.680 5.200,248.800 5.200 C 247.920 5.200,247.200 5.020,247.200 4.800 C 247.200 4.580,246.480 4.400,245.600 4.400 C 244.720 4.400,244.000 4.220,244.000 4.000 C 244.000 3.780,243.201 3.600,242.224 3.600 C 241.247 3.600,240.336 3.420,240.200 3.200 C 240.064 2.980,239.164 2.800,238.200 2.800 C 237.236 2.800,236.336 2.620,236.200 2.400 C 236.064 2.180,234.984 2.000,233.800 2.000 C 232.616 2.000,231.536 1.820,231.400 1.600 C 231.264 1.380,229.828 1.200,228.210 1.200 C 226.235 1.200,225.213 1.038,225.103 0.708 C 224.941 0.222,187.291 -0.126,178.300 0.275 " stroke="none" fill="#348cf3" fill-rule="evenodd"></path><path id="path1" d="M0.106 212.489 C 0.261 220.886,0.477 225.026,0.768 225.123 C 1.021 225.207,1.200 226.401,1.200 228.010 C 1.200 229.518,1.380 230.864,1.600 231.000 C 1.820 231.136,2.000 232.317,2.000 233.624 C 2.000 234.941,2.178 236.000,2.400 236.000 C 2.620 236.000,2.800 236.900,2.800 238.000 C 2.800 239.100,2.980 240.000,3.200 240.000 C 3.420 240.000,3.600 240.799,3.600 241.776 C 3.600 242.753,3.780 243.664,4.000 243.800 C 4.220 243.936,4.400 244.757,4.400 245.624 C 4.400 246.491,4.580 247.200,4.800 247.200 C 5.020 247.200,5.200 247.920,5.200 248.800 C 5.200 249.680,5.380 250.400,5.600 250.400 C 5.820 250.400,6.000 251.019,6.000 251.776 C 6.000 252.533,6.180 253.264,6.400 253.400 C 6.620 253.536,6.800 254.177,6.800 254.824 C 6.800 255.471,6.980 256.000,7.200 256.000 C 7.420 256.000,7.600 256.630,7.600 257.400 C 7.600 258.170,7.780 258.800,8.000 258.800 C 8.220 258.800,8.400 259.229,8.400 259.754 C 8.400 260.645,9.285 263.982,10.003 265.800 C 10.177 266.240,10.536 267.230,10.800 268.000 C 11.382 269.693,11.971 271.160,12.447 272.095 C 12.641 272.477,12.800 273.152,12.800 273.595 C 12.800 274.038,12.980 274.400,13.200 274.400 C 13.420 274.400,13.600 274.760,13.600 275.200 C 13.600 275.640,13.780 276.000,14.000 276.000 C 14.220 276.000,14.400 276.439,14.400 276.976 C 14.400 277.513,14.580 278.064,14.800 278.200 C 15.020 278.336,15.200 278.797,15.200 279.224 C 15.200 279.651,15.380 280.000,15.600 280.000 C 15.820 280.000,16.000 280.360,16.000 280.800 C 16.000 281.240,16.180 281.600,16.400 281.600 C 16.620 281.600,16.800 281.872,16.800 282.205 C 16.800 282.538,16.980 283.168,17.200 283.605 C 17.420 284.042,17.780 284.758,18.000 285.195 C 18.220 285.632,18.400 286.262,18.400 286.595 C 18.400 286.928,18.535 287.201,18.700 287.201 C 18.865 287.202,19.450 288.192,20.000 289.400 C 20.550 290.608,21.135 291.598,21.300 291.599 C 21.465 291.599,21.600 291.960,21.600 292.400 C 21.600 292.840,21.780 293.200,22.000 293.200 C 22.220 293.200,22.400 293.560,22.400 294.000 C 22.400 294.440,22.580 294.800,22.800 294.800 C 23.020 294.800,23.200 295.036,23.200 295.325 C 23.200 295.613,23.560 296.236,24.000 296.708 C 24.440 297.180,24.800 297.775,24.800 298.029 C 24.800 298.611,26.895 302.553,27.300 302.733 C 27.465 302.807,27.600 303.044,27.600 303.261 C 27.600 303.478,28.140 304.441,28.800 305.400 C 29.460 306.359,30.000 307.297,30.000 307.484 C 30.000 307.671,30.360 308.083,30.800 308.400 C 31.240 308.717,31.600 309.257,31.600 309.600 C 31.600 309.943,31.960 310.483,32.400 310.800 C 32.840 311.117,33.200 311.657,33.200 312.000 C 33.200 312.343,33.560 312.883,34.000 313.200 C 34.440 313.517,34.800 314.009,34.800 314.292 C 34.800 314.575,35.340 315.372,36.000 316.063 C 36.660 316.754,37.200 317.522,37.200 317.771 C 37.200 318.020,37.560 318.483,38.000 318.800 C 38.440 319.117,38.800 319.607,38.800 319.888 C 38.800 320.169,39.520 321.141,40.400 322.048 C 41.280 322.955,42.000 323.836,42.000 324.006 C 42.000 324.176,42.540 324.893,43.200 325.600 C 43.860 326.307,44.400 327.041,44.400 327.232 C 44.400 327.423,45.167 328.349,46.105 329.289 C 47.043 330.230,48.255 331.630,48.799 332.400 C 49.342 333.170,51.590 335.561,53.793 337.713 C 58.611 342.418,57.582 341.389,62.287 346.207 C 64.439 348.410,66.830 350.658,67.600 351.201 C 68.370 351.745,69.770 352.957,70.711 353.895 C 71.651 354.833,72.574 355.600,72.760 355.600 C 72.947 355.600,73.787 356.230,74.628 357.000 C 75.469 357.770,76.295 358.400,76.465 358.400 C 76.635 358.400,77.403 359.030,78.173 359.800 C 78.943 360.570,79.810 361.200,80.098 361.200 C 80.387 361.200,80.883 361.560,81.200 362.000 C 81.517 362.440,81.980 362.800,82.229 362.800 C 82.478 362.800,83.246 363.340,83.937 364.000 C 84.628 364.660,85.425 365.200,85.708 365.200 C 85.991 365.200,86.483 365.560,86.800 366.000 C 87.117 366.440,87.657 366.800,88.000 366.800 C 88.343 366.800,88.883 367.160,89.200 367.600 C 89.517 368.040,90.057 368.400,90.400 368.400 C 90.743 368.400,91.283 368.760,91.600 369.200 C 91.917 369.640,92.329 370.000,92.516 370.000 C 92.703 370.000,93.641 370.540,94.600 371.200 C 95.559 371.860,96.537 372.400,96.772 372.400 C 97.007 372.400,97.200 372.580,97.200 372.800 C 97.200 373.020,97.397 373.200,97.638 373.200 C 97.879 373.200,98.565 373.548,99.163 373.973 C 99.760 374.399,100.772 374.878,101.411 375.039 C 102.050 375.199,102.928 375.661,103.362 376.065 C 103.796 376.469,104.387 376.800,104.675 376.800 C 104.964 376.800,105.200 376.980,105.200 377.200 C 105.200 377.420,105.560 377.600,106.000 377.600 C 106.440 377.600,106.800 377.780,106.800 378.000 C 106.800 378.220,107.160 378.400,107.600 378.400 C 108.040 378.400,108.400 378.580,108.400 378.800 C 108.400 379.020,108.745 379.200,109.167 379.200 C 109.588 379.200,109.993 379.335,110.067 379.500 C 110.140 379.665,111.100 380.225,112.200 380.744 C 113.300 381.263,114.513 381.848,114.895 382.044 C 115.277 382.240,115.862 382.400,116.195 382.400 C 116.528 382.400,116.800 382.580,116.800 382.800 C 116.800 383.020,117.160 383.200,117.600 383.200 C 118.040 383.200,118.400 383.380,118.400 383.600 C 118.400 383.820,118.760 384.000,119.200 384.000 C 119.640 384.000,120.000 384.180,120.000 384.400 C 120.000 384.620,120.349 384.800,120.776 384.800 C 121.203 384.800,121.664 384.980,121.800 385.200 C 121.936 385.420,122.487 385.600,123.024 385.600 C 123.561 385.600,124.000 385.780,124.000 386.000 C 124.000 386.220,124.360 386.400,124.800 386.400 C 125.240 386.400,125.600 386.580,125.600 386.800 C 125.600 387.020,125.962 387.200,126.405 387.200 C 126.848 387.200,127.523 387.359,127.905 387.553 C 128.840 388.029,130.307 388.618,132.000 389.200 C 132.770 389.464,133.760 389.823,134.200 389.997 C 136.018 390.715,139.355 391.600,140.246 391.600 C 140.771 391.600,141.200 391.780,141.200 392.000 C 141.200 392.220,141.830 392.400,142.600 392.400 C 143.370 392.400,144.000 392.580,144.000 392.800 C 144.000 393.020,144.529 393.200,145.176 393.200 C 145.823 393.200,146.464 393.380,146.600 393.600 C 146.736 393.820,147.467 394.000,148.224 394.000 C 148.981 394.000,149.600 394.180,149.600 394.400 C 149.600 394.620,150.320 394.800,151.200 394.800 C 152.080 394.800,152.800 394.980,152.800 395.200 C 152.800 395.420,153.509 395.600,154.376 395.600 C 155.243 395.600,156.064 395.780,156.200 396.000 C 156.336 396.220,157.247 396.400,158.224 396.400 C 159.201 396.400,160.000 396.580,160.000 396.800 C 160.000 397.020,160.990 397.200,162.200 397.200 C 163.410 397.200,164.400 397.380,164.400 397.600 C 164.400 397.820,165.379 398.000,166.576 398.000 C 167.773 398.000,168.864 398.180,169.000 398.400 C 169.136 398.620,170.482 398.800,171.990 398.800 C 173.829 398.800,174.788 398.965,174.900 399.300 C 175.031 399.693,180.409 399.800,200.000 399.800 C 219.591 399.800,224.969 399.693,225.100 399.300 C 225.212 398.965,226.171 398.800,228.010 398.800 C 229.518 398.800,230.864 398.620,231.000 398.400 C 231.136 398.180,232.216 398.000,233.400 398.000 C 234.584 398.000,235.664 397.820,235.800 397.600 C 235.936 397.380,236.937 397.200,238.024 397.200 C 239.111 397.200,240.000 397.020,240.000 396.800 C 240.000 396.580,240.709 396.400,241.576 396.400 C 242.443 396.400,243.264 396.220,243.400 396.000 C 243.536 395.780,244.447 395.600,245.424 395.600 C 246.401 395.600,247.200 395.420,247.200 395.200 C 247.200 394.980,247.920 394.800,248.800 394.800 C 249.680 394.800,250.400 394.620,250.400 394.400 C 250.400 394.180,251.019 394.000,251.776 394.000 C 252.533 394.000,253.264 393.820,253.400 393.600 C 253.536 393.380,254.177 393.200,254.824 393.200 C 255.471 393.200,256.000 393.020,256.000 392.800 C 256.000 392.580,256.630 392.400,257.400 392.400 C 258.170 392.400,258.800 392.241,258.800 392.046 C 258.800 391.851,259.787 391.569,260.994 391.418 C 262.200 391.267,263.291 390.977,263.417 390.772 C 263.544 390.567,264.076 390.400,264.600 390.400 C 265.124 390.400,265.664 390.220,265.800 390.000 C 265.936 389.780,266.399 389.600,266.829 389.600 C 267.259 389.600,267.923 389.441,268.305 389.247 C 268.687 389.052,269.540 388.671,270.200 388.400 C 270.860 388.129,271.713 387.748,272.095 387.553 C 272.477 387.359,273.152 387.200,273.595 387.200 C 274.038 387.200,274.400 387.020,274.400 386.800 C 274.400 386.580,274.760 386.400,275.200 386.400 C 275.640 386.400,276.000 386.220,276.000 386.000 C 276.000 385.780,276.540 385.600,277.200 385.600 C 277.860 385.600,278.400 385.420,278.400 385.200 C 278.400 384.980,278.760 384.800,279.200 384.800 C 279.640 384.800,280.000 384.620,280.000 384.400 C 280.000 384.180,280.360 384.000,280.800 384.000 C 281.240 384.000,281.600 383.820,281.600 383.600 C 281.600 383.380,281.872 383.200,282.205 383.200 C 282.538 383.200,283.168 383.020,283.605 382.800 C 284.042 382.580,284.758 382.220,285.195 382.000 C 285.632 381.780,286.262 381.600,286.595 381.600 C 286.928 381.600,287.201 381.465,287.201 381.300 C 287.202 381.135,288.192 380.550,289.400 380.000 C 290.608 379.450,291.598 378.865,291.599 378.700 C 291.599 378.535,291.960 378.400,292.400 378.400 C 292.840 378.400,293.200 378.220,293.200 378.000 C 293.200 377.780,293.560 377.600,294.000 377.600 C 294.440 377.600,294.800 377.420,294.800 377.200 C 294.800 376.980,295.036 376.800,295.325 376.800 C 295.613 376.800,296.236 376.440,296.708 376.000 C 297.180 375.560,297.775 375.200,298.029 375.200 C 298.611 375.200,302.553 373.105,302.733 372.700 C 302.807 372.535,303.044 372.400,303.261 372.400 C 303.478 372.400,304.441 371.860,305.400 371.200 C 306.359 370.540,307.297 370.000,307.484 370.000 C 307.671 370.000,308.083 369.640,308.400 369.200 C 308.717 368.760,309.257 368.400,309.600 368.400 C 309.943 368.400,310.483 368.040,310.800 367.600 C 311.117 367.160,311.657 366.800,312.000 366.800 C 312.343 366.800,312.883 366.440,313.200 366.000 C 313.517 365.560,314.009 365.200,314.292 365.200 C 314.575 365.200,315.372 364.660,316.063 364.000 C 316.754 363.340,317.522 362.800,317.771 362.800 C 318.020 362.800,318.483 362.440,318.800 362.000 C 319.117 361.560,319.613 361.200,319.902 361.200 C 320.190 361.200,321.057 360.570,321.827 359.800 C 322.597 359.030,323.365 358.400,323.535 358.400 C 323.705 358.400,324.531 357.770,325.372 357.000 C 326.213 356.230,327.053 355.600,327.240 355.600 C 327.426 355.600,328.349 354.833,329.289 353.895 C 330.230 352.957,331.630 351.745,332.400 351.201 C 333.170 350.658,335.561 348.410,337.713 346.207 C 342.418 341.389,341.389 342.418,346.207 337.713 C 348.410 335.561,350.658 333.170,351.201 332.400 C 351.745 331.630,352.957 330.230,353.895 329.289 C 354.833 328.349,355.600 327.426,355.600 327.240 C 355.600 327.054,356.320 326.113,357.200 325.151 C 358.080 324.188,358.800 323.247,358.800 323.061 C 358.800 322.874,359.340 322.217,360.000 321.600 C 360.660 320.983,361.200 320.231,361.200 319.928 C 361.200 319.625,361.560 319.117,362.000 318.800 C 362.440 318.483,362.800 318.020,362.800 317.771 C 362.800 317.522,363.340 316.754,364.000 316.063 C 364.660 315.372,365.200 314.575,365.200 314.292 C 365.200 314.009,365.560 313.517,366.000 313.200 C 366.440 312.883,366.800 312.343,366.800 312.000 C 366.800 311.657,367.160 311.117,367.600 310.800 C 368.040 310.483,368.400 309.943,368.400 309.600 C 368.400 309.257,368.760 308.717,369.200 308.400 C 369.640 308.083,370.000 307.671,370.000 307.484 C 370.000 307.297,370.540 306.359,371.200 305.400 C 371.860 304.441,372.400 303.463,372.400 303.228 C 372.400 302.993,372.580 302.800,372.800 302.800 C 373.020 302.800,373.200 302.440,373.200 302.000 C 373.200 301.560,373.347 301.200,373.526 301.200 C 373.874 301.200,375.200 298.642,375.200 297.970 C 375.200 297.748,375.560 297.180,376.000 296.708 C 376.440 296.236,376.800 295.613,376.800 295.325 C 376.800 295.036,376.980 294.800,377.200 294.800 C 377.420 294.800,377.600 294.440,377.600 294.000 C 377.600 293.560,377.780 293.200,378.000 293.200 C 378.220 293.200,378.400 292.855,378.400 292.433 C 378.400 292.012,378.537 291.607,378.704 291.533 C 378.871 291.460,379.789 289.780,380.745 287.800 C 381.700 285.820,382.643 283.887,382.841 283.505 C 383.038 283.123,383.200 282.538,383.200 282.205 C 383.200 281.872,383.380 281.600,383.600 281.600 C 383.820 281.600,384.000 281.240,384.000 280.800 C 384.000 280.360,384.180 280.000,384.400 280.000 C 384.620 280.000,384.800 279.651,384.800 279.224 C 384.800 278.797,384.980 278.336,385.200 278.200 C 385.420 278.064,385.600 277.513,385.600 276.976 C 385.600 276.439,385.780 276.000,386.000 276.000 C 386.220 276.000,386.400 275.640,386.400 275.200 C 386.400 274.760,386.580 274.400,386.800 274.400 C 387.020 274.400,387.200 274.038,387.200 273.595 C 387.200 273.152,387.359 272.477,387.553 272.095 C 387.748 271.713,388.129 270.860,388.400 270.200 C 388.671 269.540,389.052 268.687,389.247 268.305 C 389.441 267.923,389.600 267.259,389.600 266.829 C 389.600 266.399,389.780 265.936,390.000 265.800 C 390.220 265.664,390.400 265.124,390.400 264.600 C 390.400 264.076,390.567 263.544,390.772 263.417 C 390.977 263.291,391.267 262.200,391.418 260.994 C 391.569 259.787,391.851 258.800,392.046 258.800 C 392.241 258.800,392.400 258.170,392.400 257.400 C 392.400 256.630,392.580 256.000,392.800 256.000 C 393.020 256.000,393.200 255.471,393.200 254.824 C 393.200 254.177,393.380 253.536,393.600 253.400 C 393.820 253.264,394.000 252.533,394.000 251.776 C 394.000 251.019,394.180 250.400,394.400 250.400 C 394.620 250.400,394.800 249.680,394.800 248.800 C 394.800 247.920,394.980 247.200,395.200 247.200 C 395.420 247.200,395.600 246.491,395.600 245.624 C 395.600 244.757,395.780 243.936,396.000 243.800 C 396.220 243.664,396.400 242.753,396.400 241.776 C 396.400 240.799,396.580 240.000,396.800 240.000 C 397.020 240.000,397.200 239.111,397.200 238.024 C 397.200 236.937,397.380 235.936,397.600 235.800 C 397.820 235.664,398.000 234.584,398.000 233.400 C 398.000 232.216,398.180 231.136,398.400 231.000 C 398.620 230.864,398.800 229.518,398.800 228.010 C 398.800 226.401,398.979 225.207,399.232 225.123 C 399.523 225.026,399.739 220.886,399.894 212.489 L 400.123 200.000 200.000 200.000 L -0.123 200.000 0.106 212.489 " stroke="none" fill="#fcdc44" fill-rule="evenodd"></path></g></svg>