<svg id="svg" version="1.1" xmlns="http://www.w3.org/2000/svg" xmlns:xlink="http://www.w3.org/1999/xlink" width="400" height="400" viewBox="0, 0, 400,400"><g id="svgg"><path id="path0" d="M232.943 95.462 C 223.235 106.940,224.297 106.058,221.694 104.800 C 220.784 104.360,219.796 104.000,219.499 104.000 C 219.203 104.000,218.789 103.847,218.580 103.659 C 218.371 103.471,216.040 102.466,213.400 101.425 C 210.760 100.384,208.009 99.254,207.286 98.914 C 205.601 98.121,205.254 98.495,206.177 100.112 C 207.174 101.859,211.718 109.183,213.858 112.495 C 215.923 115.690,215.920 115.665,214.445 117.311 C 211.344 120.773,203.200 130.602,203.200 130.882 C 203.200 131.415,203.920 131.278,213.190 128.985 C 218.114 127.766,222.336 126.844,222.572 126.935 C 222.807 127.027,224.415 129.419,226.144 132.251 C 227.874 135.083,230.079 138.613,231.044 140.095 C 232.010 141.578,232.800 142.973,232.800 143.195 C 232.800 143.418,232.957 143.600,233.149 143.600 C 233.568 143.600,233.885 141.708,234.188 137.400 C 234.312 135.640,234.618 131.814,234.867 128.898 L 235.322 123.596 236.961 123.172 C 237.862 122.939,239.140 122.597,239.800 122.411 C 240.460 122.226,241.990 121.848,243.200 121.570 C 244.410 121.293,247.437 120.556,249.927 119.933 C 252.417 119.310,254.532 118.800,254.627 118.800 C 255.500 118.800,254.335 118.018,252.300 117.236 C 250.925 116.709,248.831 115.838,247.647 115.302 C 246.463 114.767,243.853 113.695,241.847 112.921 C 235.910 110.630,235.866 110.598,236.159 108.765 C 236.297 107.903,236.583 104.723,236.795 101.699 C 237.007 98.674,237.301 94.985,237.448 93.500 C 237.807 89.876,237.587 89.972,232.943 95.462 M108.996 123.300 C 108.897 123.575,107.736 127.130,106.416 131.200 C 101.046 147.751,97.366 159.016,94.852 166.600 L 92.200 174.600 65.017 174.703 C 50.067 174.759,37.690 174.950,37.513 175.127 C 37.336 175.304,39.286 176.967,41.845 178.824 C 44.404 180.681,48.354 183.550,50.622 185.200 C 52.891 186.850,57.104 189.910,59.985 192.000 C 62.866 194.090,66.817 196.970,68.764 198.400 C 70.711 199.830,74.297 202.440,76.732 204.200 C 79.720 206.360,81.167 207.655,81.180 208.186 C 81.198 208.877,78.023 218.874,71.014 240.200 C 64.039 261.422,64.379 260.247,65.323 259.885 C 65.844 259.685,70.863 256.139,76.200 252.200 C 78.419 250.563,96.874 237.212,107.254 229.735 C 108.273 229.001,109.308 228.400,109.553 228.400 C 110.027 228.400,114.911 231.781,118.403 234.526 C 118.734 234.787,121.254 236.617,124.003 238.594 C 126.751 240.570,130.101 243.000,131.446 243.994 C 132.791 244.987,135.653 247.060,137.806 248.600 C 139.959 250.140,143.178 252.481,144.960 253.803 C 154.665 261.000,154.735 261.027,153.416 257.000 C 152.574 254.429,149.313 244.352,143.709 227.000 C 142.502 223.260,140.633 217.560,139.557 214.333 C 138.481 211.107,137.600 208.290,137.600 208.074 C 137.600 207.857,139.265 206.460,141.300 204.968 C 143.335 203.476,145.900 201.597,147.000 200.793 C 148.100 199.988,150.823 197.996,153.051 196.365 C 155.279 194.734,158.861 192.140,161.009 190.600 C 163.158 189.060,166.735 186.464,168.958 184.832 C 173.492 181.502,175.819 179.801,179.575 177.072 C 180.991 176.042,182.071 175.158,181.975 175.107 C 181.879 175.056,169.394 174.921,154.230 174.807 L 126.660 174.600 124.320 167.400 C 123.033 163.440,120.391 155.340,118.449 149.400 C 116.506 143.460,113.766 135.045,112.360 130.700 C 109.950 123.252,109.426 122.100,108.996 123.300 M265.738 144.447 C 265.878 145.411,266.167 147.190,266.380 148.400 C 266.594 149.610,266.947 151.680,267.165 153.000 C 267.383 154.320,267.779 156.570,268.045 158.000 C 269.023 163.266,270.282 162.124,254.527 170.265 C 250.408 172.392,250.306 172.611,253.293 172.911 C 255.400 173.123,257.795 173.455,266.375 174.723 L 270.950 175.400 271.427 177.800 C 271.690 179.120,272.092 181.280,272.322 182.600 C 274.134 193.017,274.577 195.138,274.899 194.939 C 275.101 194.814,277.133 190.924,279.415 186.295 C 281.696 181.665,283.706 177.739,283.881 177.571 C 284.057 177.402,288.497 177.887,293.749 178.649 C 299.002 179.411,303.412 179.918,303.549 179.776 C 303.687 179.634,300.588 176.398,296.661 172.584 C 292.735 168.770,289.609 165.503,289.715 165.324 C 290.395 164.182,298.000 148.232,298.000 147.949 C 298.000 147.382,297.334 147.542,295.514 148.545 C 294.571 149.065,291.640 150.621,289.000 152.005 C 286.360 153.388,283.345 154.978,282.300 155.538 L 280.400 156.557 278.914 155.179 C 278.097 154.420,274.937 151.370,271.893 148.400 C 265.457 142.122,265.395 142.082,265.738 144.447 M279.200 210.951 C 279.200 211.071,278.291 214.101,277.179 217.684 C 276.067 221.268,274.791 225.387,274.343 226.838 L 273.527 229.477 266.664 229.737 C 262.889 229.880,258.405 229.998,256.700 229.999 C 253.474 230.000,252.980 230.317,254.500 231.410 C 254.995 231.766,258.460 234.221,262.200 236.865 C 265.940 239.509,269.153 241.819,269.340 241.997 C 269.527 242.175,269.326 243.373,268.892 244.660 C 267.764 248.006,266.198 253.038,264.429 258.999 L 263.657 261.598 264.507 261.143 C 264.974 260.893,268.573 258.283,272.504 255.344 C 276.435 252.405,279.934 250.000,280.278 250.000 C 280.818 250.000,285.749 253.300,290.400 256.772 C 293.480 259.072,296.413 260.921,296.633 260.700 C 296.761 260.573,295.501 256.437,293.833 251.510 C 292.165 246.583,290.800 242.359,290.800 242.124 C 290.800 241.724,291.815 240.902,297.500 236.700 C 298.765 235.765,300.002 234.820,300.250 234.600 C 300.497 234.380,301.975 233.300,303.533 232.200 C 307.518 229.388,307.505 229.383,296.566 229.519 C 285.587 229.656,286.479 229.946,285.105 225.800 C 281.064 213.610,279.200 208.923,279.200 210.951 M228.205 264.200 C 225.247 268.710,222.623 272.400,222.374 272.400 C 221.965 272.400,217.991 271.381,212.000 269.739 C 207.082 268.391,203.502 267.565,203.329 267.738 C 203.228 267.838,205.950 271.403,209.377 275.660 C 212.804 279.917,215.521 283.627,215.415 283.905 C 215.308 284.183,214.431 285.623,213.465 287.105 C 206.174 298.290,204.782 300.515,204.962 300.696 C 205.124 300.858,210.820 298.755,216.600 296.400 C 217.040 296.220,218.660 295.587,220.200 294.992 C 221.740 294.397,223.200 293.831,223.446 293.733 C 223.868 293.566,228.528 298.948,233.800 305.693 C 235.120 307.382,236.362 308.771,236.560 308.782 C 236.906 308.799,236.695 300.546,236.143 292.509 C 235.911 289.121,235.952 288.797,236.645 288.570 C 237.060 288.433,239.290 287.603,241.600 286.723 C 245.642 285.185,246.536 284.836,248.500 284.031 C 248.995 283.828,250.525 283.244,251.901 282.733 C 255.770 281.295,256.054 281.441,242.420 277.856 C 238.649 276.865,235.719 275.886,235.556 275.563 C 235.215 274.888,234.386 262.995,234.394 258.900 C 234.402 254.849,234.255 254.975,228.205 264.200 " stroke="none" fill="#fbda43" fill-rule="evenodd"></path><path id="path1" d="M178.300 0.275 C 176.375 0.361,174.800 0.604,174.800 0.816 C 174.800 1.027,173.461 1.200,171.824 1.200 C 170.187 1.200,168.736 1.380,168.600 1.600 C 168.464 1.820,167.463 2.000,166.376 2.000 C 165.289 2.000,164.400 2.180,164.400 2.400 C 164.400 2.620,163.410 2.800,162.200 2.800 C 160.990 2.800,160.000 2.980,160.000 3.200 C 160.000 3.420,159.201 3.600,158.224 3.600 C 157.247 3.600,156.336 3.780,156.200 4.000 C 156.064 4.220,155.243 4.400,154.376 4.400 C 153.509 4.400,152.800 4.580,152.800 4.800 C 152.800 5.020,152.080 5.200,151.200 5.200 C 150.320 5.200,149.600 5.380,149.600 5.600 C 149.600 5.820,148.880 6.000,148.000 6.000 C 147.120 6.000,146.400 6.180,146.400 6.400 C 146.400 6.620,145.860 6.800,145.200 6.800 C 144.540 6.800,144.000 6.980,144.000 7.200 C 144.000 7.420,143.370 7.600,142.600 7.600 C 141.830 7.600,141.200 7.780,141.200 8.000 C 141.200 8.220,140.771 8.400,140.246 8.400 C 139.355 8.400,136.018 9.285,134.200 10.003 C 133.760 10.177,132.770 10.536,132.000 10.800 C 130.307 11.382,128.840 11.971,127.905 12.447 C 127.523 12.641,126.848 12.800,126.405 12.800 C 125.962 12.800,125.600 12.980,125.600 13.200 C 125.600 13.420,125.240 13.600,124.800 13.600 C 124.360 13.600,124.000 13.780,124.000 14.000 C 124.000 14.220,123.561 14.400,123.024 14.400 C 122.487 14.400,121.936 14.580,121.800 14.800 C 121.664 15.020,121.203 15.200,120.776 15.200 C 120.349 15.200,120.000 15.380,120.000 15.600 C 120.000 15.820,119.640 16.000,119.200 16.000 C 118.760 16.000,118.400 16.180,118.400 16.400 C 118.400 16.620,118.128 16.800,117.795 16.800 C 117.207 16.800,116.782 16.967,114.905 17.938 C 114.413 18.192,113.738 18.400,113.405 18.400 C 113.072 18.400,112.800 18.580,112.800 18.800 C 112.800 19.020,112.440 19.200,112.000 19.200 C 111.560 19.200,111.200 19.346,111.200 19.525 C 111.200 19.704,110.570 20.098,109.800 20.400 C 109.030 20.702,108.400 21.096,108.400 21.275 C 108.400 21.454,108.040 21.600,107.600 21.600 C 107.160 21.600,106.800 21.780,106.800 22.000 C 106.800 22.220,106.440 22.400,106.000 22.400 C 105.560 22.400,105.200 22.580,105.200 22.800 C 105.200 23.020,104.880 23.200,104.488 23.200 C 104.097 23.200,103.517 23.560,103.200 24.000 C 102.883 24.440,102.372 24.800,102.066 24.800 C 101.415 24.800,97.463 26.859,97.267 27.300 C 97.193 27.465,96.956 27.600,96.739 27.600 C 96.522 27.600,95.559 28.140,94.600 28.800 C 93.641 29.460,92.703 30.000,92.516 30.000 C 92.329 30.000,91.917 30.360,91.600 30.800 C 91.283 31.240,90.743 31.600,90.400 31.600 C 90.057 31.600,89.517 31.960,89.200 32.400 C 88.883 32.840,88.343 33.200,88.000 33.200 C 87.657 33.200,87.117 33.560,86.800 34.000 C 86.483 34.440,85.991 34.800,85.708 34.800 C 85.425 34.800,84.628 35.340,83.937 36.000 C 83.246 36.660,82.478 37.200,82.229 37.200 C 81.980 37.200,81.517 37.560,81.200 38.000 C 80.883 38.440,80.375 38.800,80.072 38.800 C 79.769 38.800,79.017 39.340,78.400 40.000 C 77.783 40.660,77.164 41.200,77.023 41.200 C 76.752 41.200,76.352 41.514,74.349 43.300 C 73.671 43.905,72.959 44.400,72.768 44.400 C 72.577 44.400,71.651 45.167,70.711 46.105 C 69.770 47.043,68.370 48.255,67.600 48.799 C 66.830 49.342,64.439 51.590,62.287 53.793 C 57.582 58.611,58.611 57.582,53.793 62.287 C 51.590 64.439,49.342 66.828,48.799 67.595 C 48.255 68.362,46.953 69.865,45.905 70.935 C 44.857 72.005,44.000 73.051,44.000 73.259 C 44.000 73.466,43.595 74.070,43.100 74.599 C 41.731 76.063,41.200 76.740,41.200 77.023 C 41.200 77.164,40.660 77.783,40.000 78.400 C 39.340 79.017,38.800 79.769,38.800 80.072 C 38.800 80.375,38.440 80.883,38.000 81.200 C 37.560 81.517,37.200 81.980,37.200 82.229 C 37.200 82.478,36.660 83.246,36.000 83.937 C 35.340 84.628,34.800 85.425,34.800 85.708 C 34.800 85.991,34.440 86.483,34.000 86.800 C 33.560 87.117,33.200 87.657,33.200 88.000 C 33.200 88.343,32.840 88.883,32.400 89.200 C 31.960 89.517,31.600 90.057,31.600 90.400 C 31.600 90.743,31.240 91.283,30.800 91.600 C 30.360 91.917,30.000 92.329,30.000 92.516 C 30.000 92.703,29.460 93.641,28.800 94.600 C 28.140 95.559,27.600 96.522,27.600 96.739 C 27.600 96.956,27.443 97.193,27.251 97.267 C 26.809 97.435,24.800 101.396,24.800 102.098 C 24.800 102.387,24.440 102.883,24.000 103.200 C 23.560 103.517,23.200 104.097,23.200 104.488 C 23.200 104.880,23.020 105.200,22.800 105.200 C 22.580 105.200,22.400 105.560,22.400 106.000 C 22.400 106.440,22.220 106.800,22.000 106.800 C 21.780 106.800,21.600 107.160,21.600 107.600 C 21.600 108.040,21.454 108.400,21.275 108.400 C 21.096 108.400,20.702 109.030,20.400 109.800 C 20.098 110.570,19.704 111.200,19.525 111.200 C 19.346 111.200,19.200 111.560,19.200 112.000 C 19.200 112.440,19.020 112.800,18.800 112.800 C 18.580 112.800,18.400 113.149,18.400 113.576 C 18.400 114.003,18.220 114.464,18.000 114.600 C 17.780 114.736,17.600 115.197,17.600 115.624 C 17.600 116.051,17.420 116.400,17.200 116.400 C 16.980 116.400,16.800 116.850,16.800 117.400 C 16.800 117.950,16.620 118.400,16.400 118.400 C 16.180 118.400,16.000 118.760,16.000 119.200 C 16.000 119.640,15.820 120.000,15.600 120.000 C 15.380 120.000,15.200 120.349,15.200 120.776 C 15.200 121.203,15.020 121.664,14.800 121.800 C 14.580 121.936,14.400 122.487,14.400 123.024 C 14.400 123.561,14.220 124.000,14.000 124.000 C 13.780 124.000,13.600 124.360,13.600 124.800 C 13.600 125.240,13.420 125.600,13.200 125.600 C 12.980 125.600,12.800 125.962,12.800 126.405 C 12.800 126.848,12.641 127.523,12.447 127.905 C 12.252 128.287,11.871 129.140,11.600 129.800 C 11.329 130.460,10.948 131.313,10.753 131.695 C 10.559 132.077,10.400 132.664,10.400 133.000 C 10.400 133.336,10.237 133.923,10.037 134.305 C 9.440 135.447,8.400 139.222,8.400 140.246 C 8.400 140.771,8.220 141.200,8.000 141.200 C 7.780 141.200,7.600 141.830,7.600 142.600 C 7.600 143.370,7.420 144.000,7.200 144.000 C 6.980 144.000,6.800 144.529,6.800 145.176 C 6.800 145.823,6.620 146.464,6.400 146.600 C 6.180 146.736,6.000 147.467,6.000 148.224 C 6.000 148.981,5.820 149.600,5.600 149.600 C 5.380 149.600,5.200 150.320,5.200 151.200 C 5.200 152.080,5.020 152.800,4.800 152.800 C 4.580 152.800,4.400 153.509,4.400 154.376 C 4.400 155.243,4.220 156.064,4.000 156.200 C 3.780 156.336,3.600 157.247,3.600 158.224 C 3.600 159.201,3.420 160.000,3.200 160.000 C 2.980 160.000,2.800 160.900,2.800 162.000 C 2.800 163.100,2.620 164.000,2.400 164.000 C 2.178 164.000,2.000 165.059,2.000 166.376 C 2.000 167.683,1.820 168.864,1.600 169.000 C 1.380 169.136,1.200 170.371,1.200 171.744 C 1.200 173.207,0.993 174.447,0.700 174.740 C 0.311 175.129,0.200 180.743,0.200 200.087 C 0.200 219.608,0.307 224.969,0.700 225.100 C 1.035 225.212,1.200 226.171,1.200 228.010 C 1.200 229.518,1.380 230.864,1.600 231.000 C 1.820 231.136,2.000 232.317,2.000 233.624 C 2.000 234.941,2.178 236.000,2.400 236.000 C 2.620 236.000,2.800 236.900,2.800 238.000 C 2.800 239.100,2.980 240.000,3.200 240.000 C 3.420 240.000,3.600 240.799,3.600 241.776 C 3.600 242.753,3.780 243.664,4.000 243.800 C 4.220 243.936,4.400 244.757,4.400 245.624 C 4.400 246.491,4.580 247.200,4.800 247.200 C 5.020 247.200,5.200 247.920,5.200 248.800 C 5.200 249.680,5.380 250.400,5.600 250.400 C 5.820 250.400,6.000 251.019,6.000 251.776 C 6.000 252.533,6.180 253.264,6.400 253.400 C 6.620 253.536,6.800 254.177,6.800 254.824 C 6.800 255.471,6.980 256.000,7.200 256.000 C 7.420 256.000,7.600 256.630,7.600 257.400 C 7.600 258.170,7.780 258.800,8.000 258.800 C 8.220 258.800,8.400 259.229,8.400 259.754 C 8.400 260.645,9.285 263.982,10.003 265.800 C 10.177 266.240,10.536 267.230,10.800 268.000 C 11.382 269.693,11.971 271.160,12.447 272.095 C 12.641 272.477,12.800 273.152,12.800 273.595 C 12.800 274.038,12.980 274.400,13.200 274.400 C 13.420 274.400,13.600 274.760,13.600 275.200 C 13.600 275.640,13.780 276.000,14.000 276.000 C 14.220 276.000,14.400 276.439,14.400 276.976 C 14.400 277.513,14.580 278.064,14.800 278.200 C 15.020 278.336,15.200 278.797,15.200 279.224 C 15.200 279.651,15.380 280.000,15.600 280.000 C 15.820 280.000,16.000 280.360,16.000 280.800 C 16.000 281.240,16.180 281.600,16.400 281.600 C 16.620 281.600,16.800 281.872,16.800 282.205 C 16.800 282.538,16.980 283.168,17.200 283.605 C 17.420 284.042,17.780 284.758,18.000 285.195 C 18.220 285.632,18.400 286.262,18.400 286.595 C 18.400 286.928,18.535 287.201,18.700 287.201 C 18.865 287.202,19.450 288.192,20.000 289.400 C 20.550 290.608,21.135 291.598,21.300 291.599 C 21.465 291.599,21.600 291.960,21.600 292.400 C 21.600 292.840,21.780 293.200,22.000 293.200 C 22.220 293.200,22.400 293.560,22.400 294.000 C 22.400 294.440,22.580 294.800,22.800 294.800 C 23.020 294.800,23.200 295.036,23.200 295.325 C 23.200 295.613,23.560 296.236,24.000 296.708 C 24.440 297.180,24.800 297.775,24.800 298.029 C 24.800 298.611,26.895 302.553,27.300 302.733 C 27.465 302.807,27.600 303.044,27.600 303.261 C 27.600 303.478,28.140 304.441,28.800 305.400 C 29.460 306.359,30.000 307.297,30.000 307.484 C 30.000 307.671,30.360 308.083,30.800 308.400 C 31.240 308.717,31.600 309.257,31.600 309.600 C 31.600 309.943,31.960 310.483,32.400 310.800 C 32.840 311.117,33.200 311.657,33.200 312.000 C 33.200 312.343,33.560 312.883,34.000 313.200 C 34.440 313.517,34.800 314.009,34.800 314.292 C 34.800 314.575,35.340 315.372,36.000 316.063 C 36.660 316.754,37.200 317.522,37.200 317.771 C 37.200 318.020,37.560 318.483,38.000 318.800 C 38.440 319.117,38.800 319.607,38.800 319.888 C 38.800 320.169,39.520 321.141,40.400 322.048 C 41.280 322.955,42.000 323.836,42.000 324.006 C 42.000 324.176,42.540 324.893,43.200 325.600 C 43.860 326.307,44.400 327.041,44.400 327.232 C 44.400 327.423,45.167 328.349,46.105 329.289 C 47.043 330.230,48.255 331.630,48.799 332.400 C 49.342 333.170,51.590 335.561,53.793 337.713 C 58.611 342.418,57.582 341.389,62.287 346.207 C 64.439 348.410,66.830 350.658,67.600 351.201 C 68.370 351.745,69.770 352.957,70.711 353.895 C 71.651 354.833,72.574 355.600,72.760 355.600 C 72.947 355.600,73.787 356.230,74.628 357.000 C 75.469 357.770,76.295 358.400,76.465 358.400 C 76.635 358.400,77.403 359.030,78.173 359.800 C 78.943 360.570,79.810 361.200,80.098 361.200 C 80.387 361.200,80.883 361.560,81.200 362.000 C 81.517 362.440,81.980 362.800,82.229 362.800 C 82.478 362.800,83.246 363.340,83.937 364.000 C 84.628 364.660,85.425 365.200,85.708 365.200 C 85.991 365.200,86.483 365.560,86.800 366.000 C 87.117 366.440,87.657 366.800,88.000 366.800 C 88.343 366.800,88.883 367.160,89.200 367.600 C 89.517 368.040,90.057 368.400,90.400 368.400 C 90.743 368.400,91.283 368.760,91.600 369.200 C 91.917 369.640,92.329 370.000,92.516 370.000 C 92.703 370.000,93.641 370.540,94.600 371.200 C 95.559 371.860,96.537 372.400,96.772 372.400 C 97.007 372.400,97.200 372.580,97.200 372.800 C 97.200 373.020,97.397 373.200,97.638 373.200 C 97.879 373.200,98.565 373.548,99.163 373.973 C 99.760 374.399,100.772 374.878,101.411 375.039 C 102.050 375.199,102.928 375.661,103.362 376.065 C 103.796 376.469,104.387 376.800,104.675 376.800 C 104.964 376.800,105.200 376.980,105.200 377.200 C 105.200 377.420,105.560 377.600,106.000 377.600 C 106.440 377.600,106.800 377.780,106.800 378.000 C 106.800 378.220,107.160 378.400,107.600 378.400 C 108.040 378.400,108.400 378.580,108.400 378.800 C 108.400 379.020,108.745 379.200,109.167 379.200 C 109.588 379.200,109.993 379.335,110.067 379.500 C 110.140 379.665,111.100 380.225,112.200 380.744 C 113.300 381.263,114.513 381.848,114.895 382.044 C 115.277 382.240,115.862 382.400,116.195 382.400 C 116.528 382.400,116.800 382.580,116.800 382.800 C 116.800 383.020,117.160 383.200,117.600 383.200 C 118.040 383.200,118.400 383.380,118.400 383.600 C 118.400 383.820,118.760 384.000,119.200 384.000 C 119.640 384.000,120.000 384.180,120.000 384.400 C 120.000 384.620,120.349 384.800,120.776 384.800 C 121.203 384.800,121.664 384.980,121.800 385.200 C 121.936 385.420,122.487 385.600,123.024 385.600 C 123.561 385.600,124.000 385.780,124.000 386.000 C 124.000 386.220,124.360 386.400,124.800 386.400 C 125.240 386.400,125.600 386.580,125.600 386.800 C 125.600 387.020,125.962 387.200,126.405 387.200 C 126.848 387.200,127.523 387.359,127.905 387.553 C 128.840 388.029,130.307 388.618,132.000 389.200 C 132.770 389.464,133.760 389.823,134.200 389.997 C 136.018 390.715,139.355 391.600,140.246 391.600 C 140.771 391.600,141.200 391.780,141.200 392.000 C 141.200 392.220,141.830 392.400,142.600 392.400 C 143.370 392.400,144.000 392.580,144.000 392.800 C 144.000 393.020,144.529 393.200,145.176 393.200 C 145.823 393.200,146.464 393.380,146.600 393.600 C 146.736 393.820,147.467 394.000,148.224 394.000 C 148.981 394.000,149.600 394.180,149.600 394.400 C 149.600 394.620,150.320 394.800,151.200 394.800 C 152.080 394.800,152.800 394.980,152.800 395.200 C 152.800 395.420,153.509 395.600,154.376 395.600 C 155.243 395.600,156.064 395.780,156.200 396.000 C 156.336 396.220,157.247 396.400,158.224 396.400 C 159.201 396.400,160.000 396.580,160.000 396.800 C 160.000 397.020,160.990 397.200,162.200 397.200 C 163.410 397.200,164.400 397.380,164.400 397.600 C 164.400 397.820,165.379 398.000,166.576 398.000 C 167.773 398.000,168.864 398.180,169.000 398.400 C 169.136 398.620,170.482 398.800,171.990 398.800 C 173.829 398.800,174.788 398.965,174.900 399.300 C 175.144 400.032,224.856 400.032,225.100 399.300 C 225.212 398.965,226.171 398.800,228.010 398.800 C 229.518 398.800,230.864 398.620,231.000 398.400 C 231.136 398.180,232.216 398.000,233.400 398.000 C 234.584 398.000,235.664 397.820,235.800 397.600 C 235.936 397.380,236.937 397.200,238.024 397.200 C 239.111 397.200,240.000 397.020,240.000 396.800 C 240.000 396.580,240.709 396.400,241.576 396.400 C 242.443 396.400,243.264 396.220,243.400 396.000 C 243.536 395.780,244.447 395.600,245.424 395.600 C 246.401 395.600,247.200 395.420,247.200 395.200 C 247.200 394.980,247.920 394.800,248.800 394.800 C 249.680 394.800,250.400 394.620,250.400 394.400 C 250.400 394.180,251.019 394.000,251.776 394.000 C 252.533 394.000,253.264 393.820,253.400 393.600 C 253.536 393.380,254.177 393.200,254.824 393.200 C 255.471 393.200,256.000 393.020,256.000 392.800 C 256.000 392.580,256.630 392.400,257.400 392.400 C 258.170 392.400,258.800 392.241,258.800 392.046 C 258.800 391.851,259.787 391.569,260.994 391.418 C 262.200 391.267,263.291 390.977,263.417 390.772 C 263.544 390.567,264.076 390.400,264.600 390.400 C 265.124 390.400,265.664 390.220,265.800 390.000 C 265.936 389.780,266.399 389.600,266.829 389.600 C 267.259 389.600,267.923 389.441,268.305 389.247 C 268.687 389.052,269.540 388.671,270.200 388.400 C 270.860 388.129,271.713 387.748,272.095 387.553 C 272.477 387.359,273.152 387.200,273.595 387.200 C 274.038 387.200,274.400 387.020,274.400 386.800 C 274.400 386.580,274.760 386.400,275.200 386.400 C 275.640 386.400,276.000 386.220,276.000 386.000 C 276.000 385.780,276.540 385.600,277.200 385.600 C 277.860 385.600,278.400 385.420,278.400 385.200 C 278.400 384.980,278.760 384.800,279.200 384.800 C 279.640 384.800,280.000 384.620,280.000 384.400 C 280.000 384.180,280.360 384.000,280.800 384.000 C 281.240 384.000,281.600 383.820,281.600 383.600 C 281.600 383.380,281.872 383.200,282.205 383.200 C 282.793 383.200,283.218 383.033,285.095 382.062 C 285.587 381.808,286.262 381.600,286.595 381.600 C 286.928 381.600,287.201 381.465,287.201 381.300 C 287.202 381.135,288.192 380.550,289.400 380.000 C 290.608 379.450,291.598 378.865,291.599 378.700 C 291.599 378.535,291.960 378.400,292.400 378.400 C 292.840 378.400,293.200 378.220,293.200 378.000 C 293.200 377.780,293.560 377.600,294.000 377.600 C 294.440 377.600,294.800 377.420,294.800 377.200 C 294.800 376.980,295.036 376.800,295.325 376.800 C 295.613 376.800,296.236 376.440,296.708 376.000 C 297.180 375.560,297.775 375.200,298.029 375.200 C 298.611 375.200,302.553 373.105,302.733 372.700 C 302.807 372.535,303.044 372.400,303.261 372.400 C 303.478 372.400,304.441 371.860,305.400 371.200 C 306.359 370.540,307.297 370.000,307.484 370.000 C 307.671 370.000,308.083 369.640,308.400 369.200 C 308.717 368.760,309.257 368.400,309.600 368.400 C 309.943 368.400,310.483 368.040,310.800 367.600 C 311.117 367.160,311.657 366.800,312.000 366.800 C 312.343 366.800,312.883 366.440,313.200 366.000 C 313.517 365.560,314.009 365.200,314.292 365.200 C 314.575 365.200,315.372 364.660,316.063 364.000 C 316.754 363.340,317.522 362.800,317.771 362.800 C 318.020 362.800,318.483 362.440,318.800 362.000 C 319.117 361.560,319.613 361.200,319.902 361.200 C 320.190 361.200,321.057 360.570,321.827 359.800 C 322.597 359.030,323.365 358.400,323.535 358.400 C 323.705 358.400,324.531 357.770,325.372 357.000 C 326.213 356.230,327.053 355.600,327.240 355.600 C 327.426 355.600,328.349 354.833,329.289 353.895 C 330.230 352.957,331.630 351.745,332.400 351.201 C 333.170 350.658,335.561 348.410,337.713 346.207 C 342.418 341.389,341.389 342.418,346.207 337.713 C 348.410 335.561,350.658 333.170,351.201 332.400 C 351.745 331.630,352.957 330.230,353.895 329.289 C 354.833 328.349,355.600 327.426,355.600 327.240 C 355.600 327.054,356.320 326.113,357.200 325.151 C 358.080 324.188,358.800 323.247,358.800 323.061 C 358.800 322.874,359.340 322.217,360.000 321.600 C 360.660 320.983,361.200 320.231,361.200 319.928 C 361.200 319.625,361.560 319.117,362.000 318.800 C 362.440 318.483,362.800 318.020,362.800 317.771 C 362.800 317.522,363.340 316.754,364.000 316.063 C 364.660 315.372,365.200 314.575,365.200 314.292 C 365.200 314.009,365.560 313.517,366.000 313.200 C 366.440 312.883,366.800 312.343,366.800 312.000 C 366.800 311.657,367.160 311.117,367.600 310.800 C 368.040 310.483,368.400 309.943,368.400 309.600 C 368.400 309.257,368.760 308.717,369.200 308.400 C 369.640 308.083,370.000 307.671,370.000 307.484 C 370.000 307.297,370.540 306.359,371.200 305.400 C 371.860 304.441,372.400 303.463,372.400 303.228 C 372.400 302.993,372.580 302.800,372.800 302.800 C 373.020 302.800,373.200 302.440,373.200 302.000 C 373.200 301.560,373.347 301.200,373.526 301.200 C 373.874 301.200,375.200 298.642,375.200 297.970 C 375.200 297.748,375.560 297.180,376.000 296.708 C 376.440 296.236,376.800 295.613,376.800 295.325 C 376.800 295.036,376.980 294.800,377.200 294.800 C 377.420 294.800,377.600 294.440,377.600 294.000 C 377.600 293.560,377.780 293.200,378.000 293.200 C 378.220 293.200,378.400 292.855,378.400 292.433 C 378.400 292.012,378.537 291.607,378.704 291.533 C 378.871 291.460,379.789 289.780,380.745 287.800 C 381.700 285.820,382.643 283.887,382.841 283.505 C 383.038 283.123,383.200 282.538,383.200 282.205 C 383.200 281.872,383.380 281.600,383.600 281.600 C 383.820 281.600,384.000 281.240,384.000 280.800 C 384.000 280.360,384.180 280.000,384.400 280.000 C 384.620 280.000,384.800 279.651,384.800 279.224 C 384.800 278.797,384.980 278.336,385.200 278.200 C 385.420 278.064,385.600 277.513,385.600 276.976 C 385.600 276.439,385.780 276.000,386.000 276.000 C 386.220 276.000,386.400 275.640,386.400 275.200 C 386.400 274.760,386.580 274.400,386.800 274.400 C 387.020 274.400,387.200 274.038,387.200 273.595 C 387.200 273.152,387.359 272.477,387.553 272.095 C 387.748 271.713,388.129 270.860,388.400 270.200 C 388.671 269.540,389.052 268.687,389.247 268.305 C 389.441 267.923,389.600 267.259,389.600 266.829 C 389.600 266.399,389.780 265.936,390.000 265.800 C 390.220 265.664,390.400 265.124,390.400 264.600 C 390.400 264.076,390.567 263.544,390.772 263.417 C 390.977 263.291,391.267 262.200,391.418 260.994 C 391.569 259.787,391.851 258.800,392.046 258.800 C 392.241 258.800,392.400 258.170,392.400 257.400 C 392.400 256.630,392.580 256.000,392.800 256.000 C 393.020 256.000,393.200 255.471,393.200 254.824 C 393.200 254.177,393.380 253.536,393.600 253.400 C 393.820 253.264,394.000 252.533,394.000 251.776 C 394.000 251.019,394.180 250.400,394.400 250.400 C 394.620 250.400,394.800 249.680,394.800 248.800 C 394.800 247.920,394.980 247.200,395.200 247.200 C 395.420 247.200,395.600 246.491,395.600 245.624 C 395.600 244.757,395.780 243.936,396.000 243.800 C 396.220 243.664,396.400 242.753,396.400 241.776 C 396.400 240.799,396.580 240.000,396.800 240.000 C 397.020 240.000,397.200 239.111,397.200 238.024 C 397.200 236.937,397.380 235.936,397.600 235.800 C 397.820 235.664,398.000 234.584,398.000 233.400 C 398.000 232.216,398.180 231.136,398.400 231.000 C 398.620 230.864,398.800 229.518,398.800 228.010 C 398.800 226.171,398.965 225.212,399.300 225.100 C 399.693 224.969,399.800 219.591,399.800 200.000 C 399.800 180.409,399.693 175.031,399.300 174.900 C 398.965 174.788,398.800 173.829,398.800 171.990 C 398.800 170.482,398.620 169.136,398.400 169.000 C 398.180 168.864,398.000 167.784,398.000 166.600 C 398.000 165.416,397.820 164.336,397.600 164.200 C 397.380 164.064,397.200 163.063,397.200 161.976 C 397.200 160.889,397.020 160.000,396.800 160.000 C 396.580 160.000,396.400 159.201,396.400 158.224 C 396.400 157.247,396.220 156.336,396.000 156.200 C 395.780 156.064,395.600 155.243,395.600 154.376 C 395.600 153.509,395.420 152.800,395.200 152.800 C 394.980 152.800,394.800 152.080,394.800 151.200 C 394.800 150.320,394.620 149.600,394.400 149.600 C 394.180 149.600,394.000 148.981,394.000 148.224 C 394.000 147.467,393.820 146.736,393.600 146.600 C 393.380 146.464,393.200 145.823,393.200 145.176 C 393.200 144.529,393.020 144.000,392.800 144.000 C 392.580 144.000,392.400 143.370,392.400 142.600 C 392.400 141.830,392.241 141.200,392.046 141.200 C 391.851 141.200,391.569 140.213,391.418 139.006 C 391.267 137.800,390.977 136.709,390.772 136.583 C 390.567 136.456,390.400 135.924,390.400 135.400 C 390.400 134.876,390.220 134.336,390.000 134.200 C 389.780 134.064,389.600 133.601,389.600 133.171 C 389.600 132.741,389.441 132.077,389.247 131.695 C 389.052 131.313,388.671 130.460,388.400 129.800 C 388.129 129.140,387.748 128.287,387.553 127.905 C 387.359 127.523,387.200 126.848,387.200 126.405 C 387.200 125.962,387.020 125.600,386.800 125.600 C 386.580 125.600,386.400 125.240,386.400 124.800 C 386.400 124.360,386.220 124.000,386.000 124.000 C 385.780 124.000,385.600 123.561,385.600 123.024 C 385.600 122.487,385.420 121.936,385.200 121.800 C 384.980 121.664,384.800 121.203,384.800 120.776 C 384.800 120.349,384.620 120.000,384.400 120.000 C 384.180 120.000,384.000 119.640,384.000 119.200 C 384.000 118.760,383.820 118.400,383.600 118.400 C 383.380 118.400,383.200 118.040,383.200 117.600 C 383.200 117.160,383.020 116.800,382.800 116.800 C 382.580 116.800,382.401 116.485,382.403 116.100 C 382.407 115.325,379.186 108.678,378.704 108.467 C 378.537 108.393,378.400 107.988,378.400 107.567 C 378.400 107.145,378.220 106.800,378.000 106.800 C 377.780 106.800,377.600 106.440,377.600 106.000 C 377.600 105.560,377.420 105.200,377.200 105.200 C 376.980 105.200,376.800 104.964,376.800 104.675 C 376.800 104.387,376.469 103.796,376.065 103.362 C 375.661 102.928,375.199 102.050,375.039 101.411 C 374.878 100.772,374.399 99.760,373.973 99.163 C 373.548 98.565,373.200 97.879,373.200 97.638 C 373.200 97.397,373.020 97.200,372.800 97.200 C 372.580 97.200,372.400 97.007,372.400 96.772 C 372.400 96.537,371.860 95.559,371.200 94.600 C 370.540 93.641,370.000 92.703,370.000 92.516 C 370.000 92.329,369.640 91.917,369.200 91.600 C 368.760 91.283,368.400 90.743,368.400 90.400 C 368.400 90.057,368.040 89.517,367.600 89.200 C 367.160 88.883,366.800 88.343,366.800 88.000 C 366.800 87.657,366.440 87.117,366.000 86.800 C 365.560 86.483,365.200 85.943,365.200 85.600 C 365.200 85.257,364.840 84.717,364.400 84.400 C 363.960 84.083,363.600 83.620,363.600 83.371 C 363.600 83.122,363.060 82.354,362.400 81.663 C 361.740 80.972,361.200 80.208,361.200 79.964 C 361.200 79.720,360.660 79.017,360.000 78.400 C 359.340 77.783,358.800 77.126,358.800 76.939 C 358.800 76.753,358.080 75.812,357.200 74.849 C 356.320 73.887,355.600 72.946,355.600 72.760 C 355.600 72.574,354.833 71.651,353.895 70.711 C 352.957 69.770,351.745 68.370,351.201 67.600 C 350.658 66.830,348.410 64.439,346.207 62.287 C 341.389 57.582,342.418 58.611,337.713 53.793 C 335.561 51.590,333.172 49.342,332.405 48.799 C 331.638 48.255,330.135 46.953,329.065 45.905 C 327.995 44.857,326.949 44.000,326.741 44.000 C 326.534 44.000,325.930 43.595,325.401 43.100 C 323.937 41.731,323.260 41.200,322.977 41.200 C 322.836 41.200,322.217 40.660,321.600 40.000 C 320.983 39.340,320.280 38.800,320.036 38.800 C 319.792 38.800,319.028 38.260,318.337 37.600 C 317.646 36.940,316.878 36.400,316.629 36.400 C 316.380 36.400,315.917 36.040,315.600 35.600 C 315.283 35.160,314.743 34.800,314.400 34.800 C 314.057 34.800,313.517 34.440,313.200 34.000 C 312.883 33.560,312.343 33.200,312.000 33.200 C 311.657 33.200,311.117 32.840,310.800 32.400 C 310.483 31.960,309.943 31.600,309.600 31.600 C 309.257 31.600,308.717 31.240,308.400 30.800 C 308.083 30.360,307.671 30.000,307.484 30.000 C 307.297 30.000,306.359 29.460,305.400 28.800 C 304.441 28.140,303.478 27.600,303.261 27.600 C 303.044 27.600,302.807 27.465,302.733 27.300 C 302.553 26.895,298.611 24.800,298.029 24.800 C 297.775 24.800,297.180 24.440,296.708 24.000 C 296.236 23.560,295.613 23.200,295.325 23.200 C 295.036 23.200,294.800 23.020,294.800 22.800 C 294.800 22.580,294.440 22.400,294.000 22.400 C 293.560 22.400,293.200 22.220,293.200 22.000 C 293.200 21.780,292.840 21.600,292.400 21.600 C 291.960 21.600,291.599 21.465,291.599 21.300 C 291.598 21.135,290.608 20.550,289.400 20.000 C 288.192 19.450,287.202 18.865,287.201 18.700 C 287.201 18.535,286.928 18.400,286.595 18.400 C 286.007 18.400,285.582 18.233,283.705 17.262 C 283.213 17.008,282.538 16.800,282.205 16.800 C 281.872 16.800,281.600 16.620,281.600 16.400 C 281.600 16.180,281.240 16.000,280.800 16.000 C 280.360 16.000,280.000 15.820,280.000 15.600 C 280.000 15.380,279.640 15.200,279.200 15.200 C 278.760 15.200,278.400 15.020,278.400 14.800 C 278.400 14.580,277.860 14.400,277.200 14.400 C 276.540 14.400,276.000 14.220,276.000 14.000 C 276.000 13.780,275.640 13.600,275.200 13.600 C 274.760 13.600,274.400 13.420,274.400 13.200 C 274.400 12.980,274.038 12.800,273.595 12.800 C 273.152 12.800,272.477 12.641,272.095 12.447 C 271.713 12.252,270.860 11.871,270.200 11.600 C 269.540 11.329,268.687 10.948,268.305 10.753 C 267.923 10.559,267.336 10.400,267.000 10.400 C 266.664 10.400,266.077 10.237,265.695 10.037 C 264.553 9.440,260.778 8.400,259.754 8.400 C 259.229 8.400,258.800 8.220,258.800 8.000 C 258.800 7.780,258.170 7.600,257.400 7.600 C 256.630 7.600,256.000 7.420,256.000 7.200 C 256.000 6.980,255.471 6.800,254.824 6.800 C 254.177 6.800,253.536 6.620,253.400 6.400 C 253.264 6.180,252.533 6.000,251.776 6.000 C 251.019 6.000,250.400 5.820,250.400 5.600 C 250.400 5.380,249.680 5.200,248.800 5.200 C 247.920 5.200,247.200 5.020,247.200 4.800 C 247.200 4.580,246.491 4.400,245.624 4.400 C 244.757 4.400,243.936 4.220,243.800 4.000 C 243.664 3.780,242.753 3.600,241.776 3.600 C 240.799 3.600,240.000 3.420,240.000 3.200 C 240.000 2.980,239.100 2.800,238.000 2.800 C 236.900 2.800,236.000 2.620,236.000 2.400 C 236.000 2.178,234.941 2.000,233.624 2.000 C 232.317 2.000,231.136 1.820,231.000 1.600 C 230.864 1.380,229.518 1.200,228.010 1.200 C 226.193 1.200,225.211 1.034,225.103 0.708 C 224.941 0.222,187.291 -0.126,178.300 0.275 M237.448 93.500 C 237.301 94.985,237.007 98.674,236.795 101.699 C 236.583 104.723,236.297 107.903,236.159 108.765 C 235.866 110.598,235.910 110.630,241.847 112.921 C 243.853 113.695,246.463 114.767,247.647 115.302 C 248.831 115.838,250.925 116.709,252.300 117.236 C 254.335 118.018,255.500 118.800,254.627 118.800 C 254.532 118.800,252.417 119.310,249.927 119.933 C 247.437 120.556,244.410 121.293,243.200 121.570 C 241.990 121.848,240.460 122.226,239.800 122.411 C 239.140 122.597,237.862 122.939,236.961 123.172 L 235.322 123.596 234.867 128.898 C 234.618 131.814,234.312 135.640,234.188 137.400 C 233.885 141.708,233.568 143.600,233.149 143.600 C 232.957 143.600,232.800 143.418,232.800 143.195 C 232.800 142.973,232.010 141.578,231.044 140.095 C 230.079 138.613,227.874 135.083,226.144 132.251 C 224.415 129.419,222.807 127.027,222.572 126.935 C 222.336 126.844,218.114 127.766,213.190 128.985 C 203.920 131.278,203.200 131.415,203.200 130.882 C 203.200 130.602,211.344 120.773,214.445 117.311 C 215.920 115.665,215.923 115.690,213.858 112.495 C 211.718 109.183,207.174 101.859,206.177 100.112 C 205.254 98.495,205.601 98.121,207.286 98.914 C 208.009 99.254,210.760 100.384,213.400 101.425 C 216.040 102.466,218.371 103.471,218.580 103.659 C 218.789 103.847,219.203 104.000,219.499 104.000 C 219.796 104.000,220.784 104.360,221.694 104.800 C 224.297 106.058,223.235 106.940,232.943 95.462 C 237.587 89.972,237.807 89.876,237.448 93.500 M112.360 130.700 C 113.766 135.045,116.506 143.460,118.449 149.400 C 120.391 155.340,123.033 163.440,124.320 167.400 L 126.660 174.600 154.230 174.807 C 169.394 174.921,181.879 175.056,181.975 175.107 C 182.071 175.158,180.991 176.042,179.575 177.072 C 175.819 179.801,173.492 181.502,168.958 184.832 C 166.735 186.464,163.158 189.060,161.009 190.600 C 158.861 192.140,155.279 194.734,153.051 196.365 C 150.823 197.996,148.100 199.988,147.000 200.793 C 145.900 201.597,143.335 203.476,141.300 204.968 C 139.265 206.460,137.600 207.857,137.600 208.074 C 137.600 208.290,138.481 211.107,139.557 214.333 C 140.633 217.560,142.502 223.260,143.709 227.000 C 149.313 244.352,152.574 254.429,153.416 257.000 C 154.735 261.027,154.665 261.000,144.960 253.803 C 143.178 252.481,139.959 250.140,137.806 248.600 C 135.653 247.060,132.791 244.987,131.446 243.994 C 130.101 243.000,126.751 240.570,124.003 238.594 C 121.254 236.617,118.734 234.787,118.403 234.526 C 114.911 231.781,110.027 228.400,109.553 228.400 C 109.308 228.400,108.273 229.001,107.254 229.735 C 96.874 237.212,78.419 250.563,76.200 252.200 C 70.863 256.139,65.844 259.685,65.323 259.885 C 64.379 260.247,64.039 261.422,71.014 240.200 C 78.023 218.874,81.198 208.877,81.180 208.186 C 81.167 207.655,79.720 206.360,76.732 204.200 C 74.297 202.440,70.711 199.830,68.764 198.400 C 66.817 196.970,62.866 194.090,59.985 192.000 C 57.104 189.910,52.891 186.850,50.622 185.200 C 48.354 183.550,44.404 180.681,41.845 178.824 C 39.286 176.967,37.336 175.304,37.513 175.127 C 37.690 174.950,50.067 174.759,65.017 174.703 L 92.200 174.600 94.852 166.600 C 97.366 159.016,101.046 147.751,106.416 131.200 C 109.362 122.120,109.113 122.800,109.489 122.800 C 109.662 122.800,110.954 126.355,112.360 130.700 M271.893 148.400 C 274.937 151.370,278.097 154.420,278.914 155.179 L 280.400 156.557 282.300 155.538 C 283.345 154.978,286.360 153.388,289.000 152.005 C 291.640 150.621,294.571 149.065,295.514 148.545 C 297.334 147.542,298.000 147.382,298.000 147.949 C 298.000 148.232,290.395 164.182,289.715 165.324 C 289.609 165.503,292.735 168.770,296.661 172.584 C 300.588 176.398,303.687 179.634,303.549 179.776 C 303.412 179.918,299.002 179.411,293.749 178.649 C 288.497 177.887,284.057 177.402,283.881 177.571 C 283.706 177.739,281.696 181.665,279.415 186.295 C 277.133 190.924,275.101 194.814,274.899 194.939 C 274.577 195.138,274.134 193.017,272.322 182.600 C 272.092 181.280,271.690 179.120,271.427 177.800 L 270.950 175.400 266.375 174.723 C 257.795 173.455,255.400 173.123,253.293 172.911 C 250.306 172.611,250.408 172.392,254.527 170.265 C 270.282 162.124,269.023 163.266,268.045 158.000 C 267.779 156.570,267.383 154.320,267.165 153.000 C 266.947 151.680,266.594 149.610,266.380 148.400 C 265.150 141.416,264.733 141.416,271.893 148.400 M282.051 216.810 C 283.147 219.994,284.521 224.040,285.105 225.800 C 286.479 229.946,285.587 229.656,296.566 229.519 C 307.505 229.383,307.518 229.388,303.533 232.200 C 301.975 233.300,300.497 234.380,300.250 234.600 C 300.002 234.820,298.765 235.765,297.500 236.700 C 291.815 240.902,290.800 241.724,290.800 242.124 C 290.800 242.359,292.165 246.583,293.833 251.510 C 295.501 256.437,296.761 260.573,296.633 260.700 C 296.413 260.921,293.480 259.072,290.400 256.772 C 285.749 253.300,280.818 250.000,280.278 250.000 C 279.934 250.000,276.435 252.405,272.504 255.344 C 268.573 258.283,264.974 260.893,264.507 261.143 L 263.657 261.598 264.429 258.999 C 266.198 253.038,267.764 248.006,268.892 244.660 C 269.326 243.373,269.527 242.175,269.340 241.997 C 269.153 241.819,265.940 239.509,262.200 236.865 C 258.460 234.221,254.995 231.766,254.500 231.410 C 252.980 230.317,253.474 230.000,256.700 229.999 C 258.405 229.998,262.889 229.880,266.664 229.737 L 273.527 229.477 274.343 226.838 C 274.791 225.387,276.067 221.268,277.179 217.684 C 278.291 214.101,279.200 211.071,279.200 210.951 C 279.200 209.578,280.437 212.121,282.051 216.810 M234.394 258.900 C 234.386 262.995,235.215 274.888,235.556 275.563 C 235.719 275.886,238.649 276.865,242.420 277.856 C 256.054 281.441,255.770 281.295,251.901 282.733 C 250.525 283.244,248.995 283.828,248.500 284.031 C 246.536 284.836,245.642 285.185,241.600 286.723 C 239.290 287.603,237.060 288.433,236.645 288.570 C 235.952 288.797,235.911 289.121,236.143 292.509 C 236.695 300.546,236.906 308.799,236.560 308.782 C 236.362 308.771,235.120 307.382,233.800 305.693 C 228.528 298.948,223.868 293.566,223.446 293.733 C 223.200 293.831,221.740 294.397,220.200 294.992 C 218.660 295.587,217.040 296.220,216.600 296.400 C 210.820 298.755,205.124 300.858,204.962 300.696 C 204.782 300.515,206.174 298.290,213.465 287.105 C 214.431 285.623,215.308 284.183,215.415 283.905 C 215.521 283.627,212.804 279.917,209.377 275.660 C 205.950 271.403,203.228 267.838,203.329 267.738 C 203.502 267.565,207.082 268.391,212.000 269.739 C 217.991 271.381,221.965 272.400,222.374 272.400 C 222.623 272.400,225.247 268.710,228.205 264.200 C 234.255 254.975,234.402 254.849,234.394 258.900 " stroke="none" fill="#dc0424" fill-rule="evenodd"></path></g></svg>